<svg width="1760" height="796" viewBox="0 0 1760 796" fill="none" xmlns="http://www.w3.org/2000/svg">
<rect y="114" width="1760" height="400" rx="20" fill="#56AFDF"/>
<path d="M21.1562 486V474.688H25.1875C27.8125 474.688 29.1094 476.266 29.1094 478.359C29.1094 480.438 27.8125 482.031 25.1875 482.031H22.875V486H21.1562ZM22.875 480.562H25.0156C26.6875 480.562 27.375 479.625 27.375 478.359C27.375 477.078 26.6875 476.156 25.0156 476.156H22.875V480.562ZM31.1012 486V477.516H32.7106V478.859H32.8044C33.1169 477.953 33.9606 477.391 34.9606 477.391C35.1637 477.391 35.4919 477.406 35.6637 477.422V479.016C35.5231 478.984 35.1325 478.922 34.7887 478.922C33.6325 478.922 32.7731 479.719 32.7731 480.828V486H31.1012ZM40.5463 486.172C38.14 486.172 36.5775 484.422 36.5775 481.797C36.5775 479.156 38.14 477.406 40.5463 477.406C42.9369 477.406 44.4994 479.156 44.4994 481.797C44.4994 484.422 42.9369 486.172 40.5463 486.172ZM40.5463 484.781C42.0775 484.781 42.8119 483.422 42.8119 481.797C42.8119 480.172 42.0775 478.781 40.5463 478.781C38.9838 478.781 38.2494 480.172 38.2494 481.797C38.2494 483.422 38.9838 484.781 40.5463 484.781ZM46.46 477.516H48.1319V486.547C48.1319 488.266 47.1787 489.188 45.4287 489.188C45.3194 489.188 45.21 489.188 45.085 489.172V487.75H45.3506C46.1319 487.75 46.46 487.312 46.46 486.531V477.516ZM47.2881 476.203C46.71 476.203 46.2256 475.766 46.2256 475.219C46.2256 474.672 46.71 474.234 47.2881 474.234C47.8506 474.234 48.335 474.672 48.335 475.219C48.335 475.766 47.8506 476.203 47.2881 476.203ZM54.1394 486.172C51.6394 486.172 50.1081 484.453 50.1081 481.812C50.1081 479.203 51.6706 477.406 54.03 477.406C55.9675 477.406 57.7956 478.609 57.7956 481.672V482.266H51.7644C51.8113 483.875 52.7566 484.797 54.155 484.797C55.1081 484.797 55.7175 484.391 55.9988 483.875H57.6863C57.3113 485.25 55.9988 486.172 54.1394 486.172ZM51.78 481.016H56.155C56.155 479.719 55.3269 478.781 54.0456 478.781C52.7097 478.781 51.8425 479.812 51.78 481.016ZM63.3656 486.172C60.8969 486.172 59.3969 484.344 59.3969 481.797C59.3969 479.203 60.9437 477.406 63.3344 477.406C65.2719 477.406 66.6781 478.547 66.85 480.266H65.225C65.0531 479.469 64.4125 478.797 63.3656 478.797C61.9906 478.797 61.0687 479.938 61.0687 481.75C61.0687 483.609 61.975 484.75 63.3656 484.75C64.3031 484.75 65.0219 484.234 65.225 483.312H66.85C66.6625 484.953 65.3656 486.172 63.3656 486.172ZM72.7169 477.516V478.844H70.9825V483.5C70.9825 484.453 71.4669 484.625 71.9981 484.641C72.2325 484.641 72.6075 484.609 72.8419 484.594V486.047C72.6075 486.078 72.2481 486.109 71.795 486.109C70.4825 486.109 69.3106 485.391 69.3262 483.844V478.844H68.0762V477.516H69.3262V475.484H70.9825V477.516H72.7169ZM74.99 486V474.688H76.7088V479.594H82.3338V474.688H84.0525V486H82.3338V481.062H76.7088V486H74.99ZM87.6381 486.109C87.0287 486.109 86.5131 485.609 86.5287 485C86.5131 484.391 87.0287 483.891 87.6381 483.891C88.2319 483.891 88.7475 484.391 88.7475 485C88.7475 485.609 88.2319 486.109 87.6381 486.109ZM95.2625 486V474.688H99.4031C101.809 474.688 102.981 475.984 102.981 477.656C102.981 479.062 102.122 479.781 101.075 480.047V480.156C102.2 480.219 103.419 481.203 103.419 482.953C103.419 484.688 102.231 486 99.5906 486H95.2625ZM99.4344 484.531C101.059 484.531 101.716 483.812 101.716 482.875C101.716 481.797 100.856 480.922 99.4969 480.922H96.9812V484.531H99.4344ZM99.2625 479.578C100.403 479.578 101.294 478.875 101.294 477.797C101.294 476.859 100.653 476.156 99.2937 476.156H96.9812V479.578H99.2625ZM107.114 474.688V486H105.442V474.688H107.114ZM114.856 482.469V477.516H116.512V486H114.887V484.531H114.793C114.402 485.438 113.527 486.109 112.262 486.109C110.621 486.109 109.465 485.016 109.465 482.906V477.516H111.137V482.703C111.137 483.859 111.84 484.594 112.856 484.594C113.777 484.594 114.856 483.922 114.856 482.469ZM122.519 486.172C120.019 486.172 118.488 484.453 118.488 481.812C118.488 479.203 120.051 477.406 122.41 477.406C124.348 477.406 126.176 478.609 126.176 481.672V482.266H120.144C120.191 483.875 121.137 484.797 122.535 484.797C123.488 484.797 124.098 484.391 124.379 483.875H126.066C125.691 485.25 124.379 486.172 122.519 486.172ZM120.16 481.016H124.535C124.535 479.719 123.707 478.781 122.426 478.781C121.09 478.781 120.223 479.812 120.16 481.016Z" fill="white"/>
<path d="M1674.25 486L1674.75 482.969H1672.11L1671.61 486H1670.27L1670.77 482.969H1669.14L1669.34 481.641H1670.98L1671.41 479.047H1669.8L1670 477.703H1671.64L1672.12 474.688H1673.47L1672.98 477.703H1675.62L1676.11 474.688H1677.44L1676.95 477.703H1678.59L1678.38 479.047H1676.73L1676.31 481.641H1677.94L1677.7 482.969H1676.09L1675.59 486H1674.25ZM1672.33 481.641H1674.97L1675.39 479.047H1672.75L1672.33 481.641ZM1683.88 486.156C1681.74 486.156 1680.13 484.844 1680.05 483.047H1681.73C1681.82 484.016 1682.74 484.719 1683.88 484.719C1685.26 484.719 1686.24 483.719 1686.24 482.375C1686.24 481 1685.23 480 1683.8 479.984C1682.9 479.984 1682.21 480.281 1681.82 480.984H1680.19L1680.93 474.688H1687.34V476.156H1682.35L1681.98 479.328H1682.09C1682.55 478.875 1683.35 478.562 1684.21 478.562C1686.34 478.562 1687.91 480.141 1687.91 482.328C1687.91 484.562 1686.24 486.156 1683.88 486.156ZM1694.16 486.156C1692.06 486.141 1689.87 484.906 1689.87 480.719C1689.87 476.781 1691.58 474.531 1694.3 474.531C1696.37 474.531 1697.83 475.828 1698.09 477.625H1696.39C1696.17 476.703 1695.44 476.031 1694.3 476.031C1692.55 476.031 1691.53 477.562 1691.53 480.109H1691.66C1692.26 479.156 1693.33 478.578 1694.56 478.578C1696.58 478.578 1698.2 480.125 1698.2 482.297C1698.2 484.484 1696.59 486.172 1694.16 486.156ZM1694.14 484.719C1695.51 484.719 1696.53 483.656 1696.53 482.328C1696.53 481.031 1695.55 479.984 1694.19 479.984C1692.8 479.984 1691.75 481.078 1691.73 482.344C1691.75 483.594 1692.75 484.719 1694.14 484.719ZM1701.48 486H1699.65L1703.71 474.688H1705.69L1709.77 486H1707.94L1706.91 483.016H1702.51L1701.48 486ZM1703.01 481.578H1706.41L1704.74 476.75H1704.66L1703.01 481.578ZM1711.53 486V474.688H1718.55V476.172H1713.25V479.594H1718.05V481.062H1713.25V486H1711.53ZM1724.46 486H1720.79V474.688H1724.57C1727.9 474.688 1729.9 476.812 1729.9 480.328C1729.9 483.859 1727.9 486 1724.46 486ZM1722.51 484.5H1724.37C1726.93 484.5 1728.19 483 1728.19 480.328C1728.19 477.672 1726.93 476.188 1724.46 476.188H1722.51V484.5ZM1732.15 486V474.688H1739.17V476.172H1733.87V479.594H1738.67V481.062H1733.87V486H1732.15Z" fill="white"/>
<rect y="524" width="1760" height="131" rx="20" fill="#FDB666"/>
<path d="M21.1562 627V615.688H25.1875C27.8125 615.688 29.1094 617.266 29.1094 619.359C29.1094 621.438 27.8125 623.031 25.1875 623.031H22.875V627H21.1562ZM22.875 621.562H25.0156C26.6875 621.562 27.375 620.625 27.375 619.359C27.375 618.078 26.6875 617.156 25.0156 617.156H22.875V621.562ZM31.1012 627V618.516H32.7106V619.859H32.8044C33.1169 618.953 33.9606 618.391 34.9606 618.391C35.1637 618.391 35.4919 618.406 35.6637 618.422V620.016C35.5231 619.984 35.1325 619.922 34.7887 619.922C33.6325 619.922 32.7731 620.719 32.7731 621.828V627H31.1012ZM40.5463 627.172C38.14 627.172 36.5775 625.422 36.5775 622.797C36.5775 620.156 38.14 618.406 40.5463 618.406C42.9369 618.406 44.4994 620.156 44.4994 622.797C44.4994 625.422 42.9369 627.172 40.5463 627.172ZM40.5463 625.781C42.0775 625.781 42.8119 624.422 42.8119 622.797C42.8119 621.172 42.0775 619.781 40.5463 619.781C38.9838 619.781 38.2494 621.172 38.2494 622.797C38.2494 624.422 38.9838 625.781 40.5463 625.781ZM46.46 618.516H48.1319V627.547C48.1319 629.266 47.1787 630.188 45.4287 630.188C45.3194 630.188 45.21 630.188 45.085 630.172V628.75H45.3506C46.1319 628.75 46.46 628.312 46.46 627.531V618.516ZM47.2881 617.203C46.71 617.203 46.2256 616.766 46.2256 616.219C46.2256 615.672 46.71 615.234 47.2881 615.234C47.8506 615.234 48.335 615.672 48.335 616.219C48.335 616.766 47.8506 617.203 47.2881 617.203ZM54.1394 627.172C51.6394 627.172 50.1081 625.453 50.1081 622.812C50.1081 620.203 51.6706 618.406 54.03 618.406C55.9675 618.406 57.7956 619.609 57.7956 622.672V623.266H51.7644C51.8113 624.875 52.7566 625.797 54.155 625.797C55.1081 625.797 55.7175 625.391 55.9988 624.875H57.6863C57.3113 626.25 55.9988 627.172 54.1394 627.172ZM51.78 622.016H56.155C56.155 620.719 55.3269 619.781 54.0456 619.781C52.7097 619.781 51.8425 620.812 51.78 622.016ZM63.3656 627.172C60.8969 627.172 59.3969 625.344 59.3969 622.797C59.3969 620.203 60.9437 618.406 63.3344 618.406C65.2719 618.406 66.6781 619.547 66.85 621.266H65.225C65.0531 620.469 64.4125 619.797 63.3656 619.797C61.9906 619.797 61.0687 620.938 61.0687 622.75C61.0687 624.609 61.975 625.75 63.3656 625.75C64.3031 625.75 65.0219 625.234 65.225 624.312H66.85C66.6625 625.953 65.3656 627.172 63.3656 627.172ZM72.7169 618.516V619.844H70.9825V624.5C70.9825 625.453 71.4669 625.625 71.9981 625.641C72.2325 625.641 72.6075 625.609 72.8419 625.594V627.047C72.6075 627.078 72.2481 627.109 71.795 627.109C70.4825 627.109 69.3106 626.391 69.3262 624.844V619.844H68.0762V618.516H69.3262V616.484H70.9825V618.516H72.7169ZM74.99 627V615.688H76.7088V620.594H82.3338V615.688H84.0525V627H82.3338V622.062H76.7088V627H74.99ZM87.6381 627.109C87.0287 627.109 86.5131 626.609 86.5287 626C86.5131 625.391 87.0287 624.891 87.6381 624.891C88.2319 624.891 88.7475 625.391 88.7475 626C88.7475 626.609 88.2319 627.109 87.6381 627.109ZM105.091 621.344C105.091 624.953 102.919 627.156 99.9969 627.156C97.0437 627.156 94.8875 624.953 94.8875 621.344C94.8875 617.719 97.0437 615.531 99.9969 615.531C102.919 615.531 105.091 617.719 105.091 621.344ZM103.387 621.344C103.387 618.594 101.934 617.109 99.9969 617.109C98.0437 617.109 96.5906 618.594 96.5906 621.344C96.5906 624.094 98.0437 625.578 99.9969 625.578C101.934 625.578 103.387 624.094 103.387 621.344ZM107.207 627V618.516H108.817V619.859H108.911C109.223 618.953 110.067 618.391 111.067 618.391C111.27 618.391 111.598 618.406 111.77 618.422V620.016C111.629 619.984 111.239 619.922 110.895 619.922C109.739 619.922 108.879 620.719 108.879 621.828V627H107.207ZM112.856 624.609C112.856 622.672 114.496 622.172 116.027 622.062C116.59 622.023 117.863 621.953 118.262 621.938L118.246 621.266C118.246 620.312 117.668 619.75 116.527 619.75C115.543 619.75 114.949 620.203 114.777 620.828H113.121C113.277 619.422 114.59 618.406 116.59 618.406C117.934 618.406 119.918 618.906 119.918 621.359V627H118.293V625.844H118.231C117.902 626.484 117.121 627.188 115.715 627.188C114.106 627.188 112.856 626.266 112.856 624.609ZM114.481 624.625C114.481 625.438 115.152 625.859 116.09 625.859C117.449 625.859 118.262 624.953 118.262 623.938V623.156L116.262 623.297C115.168 623.375 114.481 623.781 114.481 624.625ZM123.926 621.969V627H122.254V618.516H123.863V619.906H123.957C124.363 619 125.191 618.406 126.457 618.406C128.207 618.406 129.348 619.5 129.348 621.609V627H127.691V621.812C127.691 620.578 127.019 619.844 125.894 619.844C124.754 619.844 123.926 620.609 123.926 621.969ZM135.261 630.359C133.121 630.359 131.714 629.406 131.558 627.828H133.261C133.418 628.625 134.168 629.016 135.277 629.016C136.605 629.016 137.449 628.453 137.449 627.125V625.453H137.339C137.043 626 136.433 626.875 134.871 626.875C132.871 626.875 131.324 625.375 131.324 622.672C131.324 619.969 132.839 618.406 134.886 618.406C136.464 618.406 137.043 619.359 137.355 619.891H137.464V618.516H139.089V627.188C139.089 629.359 137.449 630.359 135.261 630.359ZM135.246 625.5C136.668 625.5 137.464 624.453 137.464 622.703C137.464 620.984 136.683 619.828 135.246 619.828C133.761 619.828 133.027 621.078 133.027 622.703C133.027 624.359 133.793 625.5 135.246 625.5ZM145.097 627.172C142.597 627.172 141.066 625.453 141.066 622.812C141.066 620.203 142.628 618.406 144.988 618.406C146.925 618.406 148.753 619.609 148.753 622.672V623.266H142.722C142.769 624.875 143.714 625.797 145.113 625.797C146.066 625.797 146.675 625.391 146.956 624.875H148.644C148.269 626.25 146.956 627.172 145.097 627.172ZM142.738 622.016H147.113C147.113 620.719 146.284 619.781 145.003 619.781C143.667 619.781 142.8 620.812 142.738 622.016Z" fill="white"/>
<path d="M1673.25 627L1673.75 623.969H1671.11L1670.61 627H1669.27L1669.77 623.969H1668.14L1668.34 622.641H1669.98L1670.41 620.047H1668.8L1669 618.703H1670.64L1671.12 615.688H1672.47L1671.98 618.703H1674.62L1675.11 615.688H1676.44L1675.95 618.703H1677.59L1677.38 620.047H1675.73L1675.31 622.641H1676.94L1676.7 623.969H1675.09L1674.59 627H1673.25ZM1671.33 622.641H1673.97L1674.39 620.047H1671.75L1671.33 622.641ZM1679.19 627V615.688H1686.21V617.172H1680.91V620.594H1685.71V622.062H1680.91V627H1679.19ZM1692.12 627H1688.45V615.688H1692.23C1695.56 615.688 1697.56 617.812 1697.56 621.328C1697.56 624.859 1695.56 627 1692.12 627ZM1690.17 625.5H1692.03C1694.59 625.5 1695.86 624 1695.86 621.328C1695.86 618.672 1694.59 617.188 1692.12 617.188H1690.17V625.5ZM1699.82 627V615.688H1703.96C1706.37 615.688 1707.54 616.984 1707.54 618.656C1707.54 620.062 1706.68 620.781 1705.63 621.047V621.156C1706.76 621.219 1707.98 622.203 1707.98 623.953C1707.98 625.688 1706.79 627 1704.15 627H1699.82ZM1703.99 625.531C1705.62 625.531 1706.27 624.812 1706.27 623.875C1706.27 622.797 1705.41 621.922 1704.05 621.922H1701.54V625.531H1703.99ZM1703.82 620.578C1704.96 620.578 1705.85 619.875 1705.85 618.797C1705.85 617.859 1705.21 617.156 1703.85 617.156H1701.54V620.578H1703.82ZM1714.08 627.156C1711.98 627.141 1709.8 625.906 1709.8 621.719C1709.8 617.781 1711.5 615.531 1714.22 615.531C1716.3 615.531 1717.75 616.828 1718.01 618.625H1716.31C1716.09 617.703 1715.36 617.031 1714.22 617.031C1712.47 617.031 1711.45 618.562 1711.45 621.109H1711.58C1712.19 620.156 1713.25 619.578 1714.48 619.578C1716.5 619.578 1718.12 621.125 1718.12 623.297C1718.12 625.484 1716.51 627.172 1714.08 627.156ZM1714.06 625.719C1715.44 625.719 1716.45 624.656 1716.45 623.328C1716.45 622.031 1715.47 620.984 1714.11 620.984C1712.72 620.984 1711.67 622.078 1711.65 623.344C1711.67 624.594 1712.67 625.719 1714.06 625.719ZM1724.37 627.156C1722.27 627.141 1720.08 625.906 1720.08 621.719C1720.08 617.781 1721.79 615.531 1724.51 615.531C1726.58 615.531 1728.04 616.828 1728.3 618.625H1726.6C1726.38 617.703 1725.65 617.031 1724.51 617.031C1722.76 617.031 1721.74 618.562 1721.74 621.109H1721.87C1722.47 620.156 1723.54 619.578 1724.77 619.578C1726.79 619.578 1728.41 621.125 1728.41 623.297C1728.41 625.484 1726.8 627.172 1724.37 627.156ZM1724.35 625.719C1725.72 625.719 1726.74 624.656 1726.74 623.328C1726.74 622.031 1725.76 620.984 1724.4 620.984C1723.01 620.984 1721.96 622.078 1721.94 623.344C1721.96 624.594 1722.96 625.719 1724.35 625.719ZM1734.65 627.156C1732.56 627.141 1730.37 625.906 1730.37 621.719C1730.37 617.781 1732.08 615.531 1734.79 615.531C1736.87 615.531 1738.33 616.828 1738.59 618.625H1736.89C1736.67 617.703 1735.94 617.031 1734.79 617.031C1733.04 617.031 1732.03 618.562 1732.03 621.109H1732.15C1732.76 620.156 1733.83 619.578 1735.06 619.578C1737.08 619.578 1738.7 621.125 1738.7 623.297C1738.7 625.484 1737.09 627.172 1734.65 627.156ZM1734.64 625.719C1736.01 625.719 1737.03 624.656 1737.03 623.328C1737.03 622.031 1736.04 620.984 1734.69 620.984C1733.29 620.984 1732.25 622.078 1732.23 623.344C1732.25 624.594 1733.25 625.719 1734.64 625.719Z" fill="white"/>
<rect y="665" width="560" height="131" rx="20" fill="#0A0F15"/>
<path d="M21.1562 768V756.688H25.2969C27.7031 756.688 28.875 757.984 28.875 759.656C28.875 761.062 28.0156 761.781 26.9688 762.047V762.156C28.0938 762.219 29.3125 763.203 29.3125 764.953C29.3125 766.688 28.125 768 25.4844 768H21.1562ZM25.3281 766.531C26.9531 766.531 27.6094 765.812 27.6094 764.875C27.6094 763.797 26.75 762.922 25.3906 762.922H22.875V766.531H25.3281ZM25.1562 761.578C26.2969 761.578 27.1875 760.875 27.1875 759.797C27.1875 758.859 26.5469 758.156 25.1875 758.156H22.875V761.578H25.1562ZM33.0075 756.688V768H31.3356V756.688H33.0075ZM34.9681 765.609C34.9681 763.672 36.6088 763.172 38.14 763.062C38.7025 763.023 39.9759 762.953 40.3744 762.938L40.3588 762.266C40.3588 761.312 39.7806 760.75 38.64 760.75C37.6556 760.75 37.0619 761.203 36.89 761.828H35.2338C35.39 760.422 36.7025 759.406 38.7025 759.406C40.0463 759.406 42.0306 759.906 42.0306 762.359V768H40.4056V766.844H40.3431C40.015 767.484 39.2338 768.188 37.8275 768.188C36.2181 768.188 34.9681 767.266 34.9681 765.609ZM36.5931 765.625C36.5931 766.438 37.265 766.859 38.2025 766.859C39.5619 766.859 40.3744 765.953 40.3744 764.938V764.156L38.3744 764.297C37.2806 764.375 36.5931 764.781 36.5931 765.625ZM47.96 768.172C45.4912 768.172 43.9912 766.344 43.9912 763.797C43.9912 761.203 45.5381 759.406 47.9287 759.406C49.8662 759.406 51.2725 760.547 51.4444 762.266H49.8194C49.6475 761.469 49.0069 760.797 47.96 760.797C46.585 760.797 45.6631 761.938 45.6631 763.75C45.6631 765.609 46.5694 766.75 47.96 766.75C48.8975 766.75 49.6162 766.234 49.8194 765.312H51.4444C51.2569 766.953 49.96 768.172 47.96 768.172ZM53.3425 768V756.688H55.0144V763.094H55.155L58.5144 759.516H60.5144L57.0925 763.156L60.7487 768H58.7019L55.8269 764.188L55.0144 764.984V768H53.3425Z" fill="white"/>
<path d="M477.25 768L477.75 764.969H475.109L474.609 768H473.266L473.766 764.969H472.141L472.344 763.641H473.984L474.406 761.047H472.797L473 759.703H474.641L475.125 756.688H476.469L475.984 759.703H478.625L479.109 756.688H480.438L479.953 759.703H481.594L481.375 761.047H479.734L479.312 763.641H480.938L480.703 764.969H479.094L478.594 768H477.25ZM475.328 763.641H477.969L478.391 761.047H475.75L475.328 763.641ZM486.976 768.156C484.351 768.156 482.82 766.047 482.82 762.344C482.82 758.672 484.382 756.531 486.976 756.531C489.57 756.531 491.132 758.672 491.132 762.344C491.132 766.047 489.586 768.156 486.976 768.156ZM486.976 766.672C488.507 766.672 489.414 765.172 489.414 762.344C489.414 759.531 488.492 757.984 486.976 757.984C485.461 757.984 484.539 759.531 484.539 762.344C484.539 765.172 485.445 766.672 486.976 766.672ZM494.359 768H492.531L496.593 756.688H498.577L502.656 768H500.827L499.796 765.016H495.39L494.359 768ZM495.89 763.578H499.296L497.624 758.75H497.546L495.89 763.578ZM508.194 768.156C505.569 768.156 504.038 766.047 504.038 762.344C504.038 758.672 505.601 756.531 508.194 756.531C510.788 756.531 512.351 758.672 512.351 762.344C512.351 766.047 510.804 768.156 508.194 768.156ZM508.194 766.672C509.726 766.672 510.632 765.172 510.632 762.344C510.632 759.531 509.71 757.984 508.194 757.984C506.679 757.984 505.757 759.531 505.757 762.344C505.757 765.172 506.663 766.672 508.194 766.672ZM514.608 768V756.688H521.624V758.172H516.327V761.594H521.124V763.062H516.327V768H514.608ZM528.006 756.688V768H526.272V758.406H526.209L523.506 760.172V758.531L526.319 756.688H528.006ZM535.045 768.156C532.904 768.156 531.295 766.844 531.217 765.047H532.889C532.982 766.016 533.904 766.719 535.045 766.719C536.42 766.719 537.404 765.719 537.404 764.375C537.404 763 536.389 762 534.967 761.984C534.061 761.984 533.373 762.281 532.982 762.984H531.357L532.092 756.688H538.498V758.156H533.514L533.139 761.328H533.248C533.717 760.875 534.514 760.562 535.373 760.562C537.498 760.562 539.076 762.141 539.076 764.328C539.076 766.562 537.404 768.156 535.045 768.156Z" fill="white"/>
<rect x="560" y="665" width="300" height="131" rx="20" fill="#696E82"/>
<path d="M774.25 773L774.75 769.969H772.109L771.609 773H770.266L770.766 769.969H769.141L769.344 768.641H770.984L771.406 766.047H769.797L770 764.703H771.641L772.125 761.688H773.469L772.984 764.703H775.625L776.109 761.688H777.438L776.953 764.703H778.594L778.375 766.047H776.734L776.312 768.641H777.938L777.703 769.969H776.094L775.594 773H774.25ZM772.328 768.641H774.969L775.391 766.047H772.75L772.328 768.641ZM784.132 773.156C782.039 773.141 779.851 771.906 779.851 767.719C779.851 763.781 781.554 761.531 784.273 761.531C786.351 761.531 787.804 762.828 788.07 764.625H786.367C786.148 763.703 785.414 763.031 784.273 763.031C782.523 763.031 781.507 764.562 781.507 767.109H781.632C782.242 766.156 783.304 765.578 784.539 765.578C786.554 765.578 788.179 767.125 788.179 769.297C788.179 771.484 786.57 773.172 784.132 773.156ZM784.117 771.719C785.492 771.719 786.507 770.656 786.507 769.328C786.507 768.031 785.523 766.984 784.164 766.984C782.773 766.984 781.726 768.078 781.711 769.344C781.726 770.594 782.726 771.719 784.117 771.719ZM794.218 761.531C796.296 761.547 798.484 762.797 798.484 766.938C798.484 770.906 796.781 773.156 794.062 773.156C791.984 773.156 790.515 771.875 790.249 770.031H791.952C792.187 770.984 792.921 771.656 794.062 771.656C795.812 771.656 796.827 770.125 796.843 767.547H796.702C796.093 768.5 795.031 769.078 793.812 769.078C791.781 769.078 790.156 767.531 790.156 765.359C790.156 763.203 791.765 761.516 794.218 761.531ZM794.218 762.969C792.843 762.969 791.827 764.031 791.827 765.328C791.827 766.641 792.812 767.672 794.187 767.672C795.546 767.672 796.609 766.562 796.609 765.312C796.609 764.094 795.609 762.969 794.218 762.969ZM804.71 773.156C802.616 773.141 800.429 771.906 800.429 767.719C800.429 763.781 802.132 761.531 804.851 761.531C806.929 761.531 808.382 762.828 808.647 764.625H806.944C806.726 763.703 805.991 763.031 804.851 763.031C803.101 763.031 802.085 764.562 802.085 767.109H802.21C802.819 766.156 803.882 765.578 805.116 765.578C807.132 765.578 808.757 767.125 808.757 769.297C808.757 771.484 807.147 773.172 804.71 773.156ZM804.694 771.719C806.069 771.719 807.085 770.656 807.085 769.328C807.085 768.031 806.101 766.984 804.741 766.984C803.351 766.984 802.304 768.078 802.288 769.344C802.304 770.594 803.304 771.719 804.694 771.719ZM811.061 773V761.688H818.155V763.172H812.78V766.594H817.78V768.062H812.78V771.516H818.217V773H811.061ZM824.381 773.156C821.928 773.156 820.209 771.828 820.225 769.984C820.209 768.531 821.256 767.344 822.584 767.141V767.078C821.428 766.812 820.647 765.781 820.647 764.547C820.647 762.812 822.225 761.531 824.381 761.531C826.522 761.531 828.084 762.812 828.1 764.547C828.084 765.781 827.303 766.812 826.162 767.078V767.141C827.475 767.344 828.522 768.531 828.537 769.984C828.522 771.828 826.803 773.156 824.381 773.156ZM824.381 771.734C825.85 771.734 826.787 770.969 826.787 769.859C826.787 768.688 825.772 767.844 824.381 767.844C822.975 767.844 821.944 768.688 821.975 769.859C821.944 770.969 822.881 771.734 824.381 771.734ZM824.381 766.484C825.569 766.484 826.412 765.766 826.412 764.703C826.412 763.656 825.584 762.938 824.381 762.938C823.131 762.938 822.319 763.641 822.319 764.703C822.319 765.766 823.178 766.484 824.381 766.484ZM830.639 773V771.75L834.561 767.797C835.795 766.5 836.42 765.781 836.42 764.797C836.42 763.688 835.514 762.969 834.326 762.969C833.076 762.969 832.264 763.766 832.264 764.969H830.639C830.623 762.906 832.201 761.531 834.357 761.531C836.545 761.531 838.045 762.906 838.061 764.75C838.045 766.016 837.451 767.016 835.326 769.109L833.029 771.438V771.531H838.248V773H830.639Z" fill="white"/>
<rect x="860" y="665" width="300" height="131" rx="20" fill="#A8B1CE"/>
<path d="M1075.25 773L1075.75 769.969H1073.11L1072.61 773H1071.27L1071.77 769.969H1070.14L1070.34 768.641H1071.98L1072.41 766.047H1070.8L1071 764.703H1072.64L1073.12 761.688H1074.47L1073.98 764.703H1076.62L1077.11 761.688H1078.44L1077.95 764.703H1079.59L1079.38 766.047H1077.73L1077.31 768.641H1078.94L1078.7 769.969H1077.09L1076.59 773H1075.25ZM1073.33 768.641H1075.97L1076.39 766.047H1073.75L1073.33 768.641ZM1082.16 773H1080.34L1084.4 761.688H1086.38L1090.46 773H1088.63L1087.6 770.016H1083.19L1082.16 773ZM1083.69 768.578H1087.1L1085.43 763.75H1085.35L1083.69 768.578ZM1096.01 773.156C1093.56 773.156 1091.84 771.828 1091.86 769.984C1091.84 768.531 1092.89 767.344 1094.22 767.141V767.078C1093.06 766.812 1092.28 765.781 1092.28 764.547C1092.28 762.812 1093.86 761.531 1096.01 761.531C1098.16 761.531 1099.72 762.812 1099.73 764.547C1099.72 765.781 1098.94 766.812 1097.8 767.078V767.141C1099.11 767.344 1100.16 768.531 1100.17 769.984C1100.16 771.828 1098.44 773.156 1096.01 773.156ZM1096.01 771.734C1097.48 771.734 1098.42 770.969 1098.42 769.859C1098.42 768.688 1097.41 767.844 1096.01 767.844C1094.61 767.844 1093.58 768.688 1093.61 769.859C1093.58 770.969 1094.51 771.734 1096.01 771.734ZM1096.01 766.484C1097.2 766.484 1098.05 765.766 1098.05 764.703C1098.05 763.656 1097.22 762.938 1096.01 762.938C1094.76 762.938 1093.95 763.641 1093.95 764.703C1093.95 765.766 1094.81 766.484 1096.01 766.484ZM1102.43 773V761.688H1106.57C1108.98 761.688 1110.15 762.984 1110.15 764.656C1110.15 766.062 1109.29 766.781 1108.24 767.047V767.156C1109.37 767.219 1110.58 768.203 1110.58 769.953C1110.58 771.688 1109.4 773 1106.76 773H1102.43ZM1106.6 771.531C1108.23 771.531 1108.88 770.812 1108.88 769.875C1108.88 768.797 1108.02 767.922 1106.66 767.922H1104.15V771.531H1106.6ZM1106.43 766.578C1107.57 766.578 1108.46 765.875 1108.46 764.797C1108.46 763.859 1107.82 763.156 1106.46 763.156H1104.15V766.578H1106.43ZM1116.89 761.688V773H1115.15V763.406H1115.09L1112.39 765.172V763.531L1115.2 761.688H1116.89ZM1127.9 765.375C1127.62 763.922 1126.41 763.109 1124.97 763.109C1123.02 763.109 1121.57 764.609 1121.57 767.344C1121.57 770.094 1123.04 771.578 1124.97 771.578C1126.4 771.578 1127.6 770.781 1127.9 769.344L1129.63 769.359C1129.27 771.594 1127.44 773.156 1124.96 773.156C1122.01 773.156 1119.87 770.953 1119.87 767.344C1119.87 763.719 1122.02 761.531 1124.96 761.531C1127.35 761.531 1129.24 762.938 1129.63 765.375H1127.9ZM1131.81 773V761.688H1138.9V763.172H1133.53V766.594H1138.53V768.062H1133.53V771.516H1138.97V773H1131.81Z" fill="#40424D"/>
<rect x="1160" y="665" width="300" height="131" rx="20" fill="#CDD3E7"/>
<path d="M1371.25 773L1371.75 769.969H1369.11L1368.61 773H1367.27L1367.77 769.969H1366.14L1366.34 768.641H1367.98L1368.41 766.047H1366.8L1367 764.703H1368.64L1369.12 761.688H1370.47L1369.98 764.703H1372.62L1373.11 761.688H1374.44L1373.95 764.703H1375.59L1375.38 766.047H1373.73L1373.31 768.641H1374.94L1374.7 769.969H1373.09L1372.59 773H1371.25ZM1369.33 768.641H1371.97L1372.39 766.047H1369.75L1369.33 768.641ZM1384.85 765.375C1384.57 763.922 1383.37 763.109 1381.93 763.109C1379.98 763.109 1378.52 764.609 1378.52 767.344C1378.52 770.094 1379.99 771.578 1381.93 771.578C1383.35 771.578 1384.55 770.781 1384.85 769.344L1386.59 769.359C1386.23 771.594 1384.4 773.156 1381.91 773.156C1378.96 773.156 1376.82 770.953 1376.82 767.344C1376.82 763.719 1378.98 761.531 1381.91 761.531C1384.3 761.531 1386.19 762.938 1386.59 765.375H1384.85ZM1392.44 773H1388.76V761.688H1392.55C1395.87 761.688 1397.87 763.812 1397.87 767.328C1397.87 770.859 1395.87 773 1392.44 773ZM1390.48 771.5H1392.34C1394.91 771.5 1396.17 770 1396.17 767.328C1396.17 764.672 1394.91 763.188 1392.44 763.188H1390.48V771.5ZM1403.8 773H1400.13V761.688H1403.91C1407.24 761.688 1409.24 763.812 1409.24 767.328C1409.24 770.859 1407.24 773 1403.8 773ZM1401.85 771.5H1403.71C1406.27 771.5 1407.54 770 1407.54 767.328C1407.54 764.672 1406.27 763.188 1403.8 763.188H1401.85V771.5ZM1415.36 773.156C1413.01 773.156 1411.34 771.891 1411.28 770.047H1413.03C1413.09 771.047 1414.08 771.672 1415.34 771.672C1416.7 771.672 1417.7 770.922 1417.7 769.828C1417.7 768.719 1416.76 767.906 1415.15 767.906H1414.19V766.5H1415.15C1416.44 766.5 1417.34 765.781 1417.34 764.703C1417.34 763.672 1416.58 762.969 1415.37 762.969C1414.23 762.969 1413.23 763.594 1413.19 764.625H1411.53C1411.58 762.781 1413.28 761.531 1415.39 761.531C1417.61 761.531 1419.01 762.938 1419 764.609C1419.01 765.891 1418.22 766.828 1417 767.125V767.203C1418.55 767.422 1419.44 768.453 1419.44 769.891C1419.44 771.781 1417.7 773.156 1415.36 773.156ZM1421.8 773V761.688H1428.9V763.172H1423.52V766.594H1428.52V768.062H1423.52V771.516H1428.96V773H1421.8ZM1431.56 773L1436.61 763.25V763.156H1430.78V761.688H1438.39V763.219L1433.36 773H1431.56Z" fill="#40424D"/>
<rect x="1460" y="665" width="300" height="131" rx="20" fill="#EBF0F4"/>
<path d="M1676.25 773L1676.75 769.969H1674.11L1673.61 773H1672.27L1672.77 769.969H1671.14L1671.34 768.641H1672.98L1673.41 766.047H1671.8L1672 764.703H1673.64L1674.12 761.688H1675.47L1674.98 764.703H1677.62L1678.11 761.688H1679.44L1678.95 764.703H1680.59L1680.38 766.047H1678.73L1678.31 768.641H1679.94L1679.7 769.969H1678.09L1677.59 773H1676.25ZM1674.33 768.641H1676.97L1677.39 766.047H1674.75L1674.33 768.641ZM1682.19 773V761.688H1689.29V763.172H1683.91V766.594H1688.91V768.062H1683.91V771.516H1689.35V773H1682.19ZM1691.72 773V761.688H1695.86C1698.26 761.688 1699.44 762.984 1699.44 764.656C1699.44 766.062 1698.58 766.781 1697.53 767.047V767.156C1698.66 767.219 1699.87 768.203 1699.87 769.953C1699.87 771.688 1698.69 773 1696.05 773H1691.72ZM1695.89 771.531C1697.51 771.531 1698.17 770.812 1698.17 769.875C1698.17 768.797 1697.31 767.922 1695.95 767.922H1693.44V771.531H1695.89ZM1695.72 766.578C1696.86 766.578 1697.75 765.875 1697.75 764.797C1697.75 763.859 1697.11 763.156 1695.75 763.156H1693.44V766.578H1695.72ZM1702.04 773V761.688H1709.05V763.172H1703.76V766.594H1708.55V768.062H1703.76V773H1702.04ZM1715.08 773.156C1712.45 773.156 1710.92 771.047 1710.92 767.344C1710.92 763.672 1712.48 761.531 1715.08 761.531C1717.67 761.531 1719.23 763.672 1719.23 767.344C1719.23 771.047 1717.69 773.156 1715.08 773.156ZM1715.08 771.672C1716.61 771.672 1717.51 770.172 1717.51 767.344C1717.51 764.531 1716.59 762.984 1715.08 762.984C1713.56 762.984 1712.64 764.531 1712.64 767.344C1712.64 770.172 1713.55 771.672 1715.08 771.672ZM1721.49 773V761.688H1728.51V763.172H1723.21V766.594H1728.01V768.062H1723.21V773H1721.49ZM1730.34 770.797V769.406L1735.34 761.688H1737.47V769.344H1739.01V770.797H1737.47V773H1735.84V770.797H1730.34ZM1732.15 769.344H1735.84V763.734H1735.72L1732.15 769.25V769.344Z" fill="#40424D"/>
<rect width="100" height="54" rx="27" fill="#56AFDF"/>
<path d="M35.0496 24.625C34.7566 22.9258 33.3895 21.9492 31.6707 21.9492C29.3465 21.9492 27.7254 23.7266 27.7254 26.9297C27.7254 30.1719 29.366 31.9102 31.6707 31.9102C33.3504 31.9102 34.7176 30.9727 35.0496 29.3125H37.6082C37.2176 32.0273 34.991 34.1953 31.6316 34.1953C27.9012 34.1953 25.1668 31.4805 25.1668 26.9297C25.1668 22.3594 27.9402 19.6641 31.6316 19.6641C34.7566 19.6641 37.1785 21.4805 37.6082 24.625H35.0496ZM44.7074 34.2148C41.6215 34.2148 39.6293 32.0273 39.6293 28.7461C39.6293 25.4453 41.6215 23.2578 44.7074 23.2578C47.8129 23.2578 49.7855 25.4453 49.7855 28.7461C49.7855 32.0273 47.8129 34.2148 44.7074 34.2148ZM44.727 32.2227C46.4262 32.2227 47.266 30.6797 47.266 28.7266C47.266 26.793 46.4262 25.2305 44.727 25.2305C42.9887 25.2305 42.1488 26.793 42.1488 28.7266C42.1488 30.6797 42.9887 32.2227 44.727 32.2227ZM54.6191 19.8594V34H52.1191V19.8594H54.6191ZM62.0309 34.2148C58.9449 34.2148 56.9527 32.0273 56.9527 28.7461C56.9527 25.4453 58.9449 23.2578 62.0309 23.2578C65.1363 23.2578 67.109 25.4453 67.109 28.7461C67.109 32.0273 65.1363 34.2148 62.0309 34.2148ZM62.0504 32.2227C63.7496 32.2227 64.5895 30.6797 64.5895 28.7266C64.5895 26.793 63.7496 25.2305 62.0504 25.2305C60.3121 25.2305 59.4723 26.793 59.4723 28.7266C59.4723 30.6797 60.3121 32.2227 62.0504 32.2227ZM69.4426 34V23.3945H71.8645V25.1523H71.9816C72.3527 23.9414 73.3879 23.2383 74.5988 23.2383C74.8723 23.2383 75.2629 23.2578 75.4973 23.2969V25.6016C75.2824 25.5234 74.7551 25.4453 74.3449 25.4453C72.9582 25.4453 71.9426 26.4023 71.9426 27.75V34H69.4426Z" fill="white"/>
</svg>
