<svg width="63" height="63" viewBox="0 0 63 63" fill="none" xmlns="http://www.w3.org/2000/svg">
<path d="M31.229 10.4102C42.7273 10.4102 52.0491 19.7313 52.0493 31.2295C52.0493 42.7279 42.7274 52.0498 31.229 52.0498C19.7308 52.0496 10.4097 42.7278 10.4097 31.2295C10.4099 19.7314 19.7309 10.4104 31.229 10.4102ZM30.8052 38.5605C29.1852 38.5606 27.8655 39.7962 27.8169 41.3613V41.667C27.8657 43.2341 29.1853 44.5029 30.8052 44.5029C32.3707 44.5029 33.7583 43.1504 33.7583 41.5137C33.7581 39.8771 32.3706 38.5605 30.8052 38.5605ZM31.3394 18.0664C26.7852 18.0664 23.0849 20.4502 22.978 25.4668H28.0298C28.1011 23.3678 29.6311 22.2647 31.3032 22.2646C33.011 22.2646 34.3988 23.4389 34.3989 25.2178C34.3989 26.8545 33.2248 27.9578 31.6948 28.9541C29.56 30.2706 28.3857 31.6583 28.3501 36.0703V36.4619H33.0464V36.0703C33.082 33.5797 33.972 32.4411 35.9644 31.2314C38.3127 29.8438 39.8071 27.9576 39.8071 25.04C39.8071 20.6638 36.2848 18.0665 31.3394 18.0664Z" fill="#56AFDF"/>
</svg>
