<svg width="63" height="63" viewBox="0 0 63 63" fill="none" xmlns="http://www.w3.org/2000/svg">
<path fill-rule="evenodd" clip-rule="evenodd" d="M41.6392 10.4102C43.0765 10.4102 44.2416 11.5753 44.2416 13.0126V15.6151H46.8441C49.7187 15.6151 52.049 17.9454 52.049 20.82V46.8446C52.049 49.7192 49.7187 52.0495 46.8441 52.0495H15.6146C12.9193 52.0495 10.7038 50.0008 10.4376 47.3757L10.4097 46.8446V20.82C10.4097 17.9454 12.74 15.6151 15.6146 15.6151H18.217V13.0126C18.217 11.5753 19.3822 10.4102 20.8195 10.4102C22.2568 10.4102 23.422 11.5753 23.422 13.0126V15.6151H39.0367V13.0126C39.0367 11.5753 40.2019 10.4102 41.6392 10.4102ZM15.6146 46.8446H46.8441V31.2298H15.6146V46.8446Z" fill="#56AFDF"/>
</svg>
