<svg width="63" height="63" viewBox="0 0 63 63" fill="none" xmlns="http://www.w3.org/2000/svg">
<path d="M25.7163 36.4354C24.2089 36.4355 22.7342 36.8941 21.4809 37.7518C20.2283 38.6095 19.2515 39.8282 18.6747 41.254C18.098 42.6802 17.9466 44.2509 18.2405 45.765C18.5346 47.2794 19.2613 48.6709 20.3272 49.7627C21.393 50.8545 22.7517 51.5987 24.2301 51.9C25.7082 52.2011 27.2417 52.046 28.6342 51.4553C30.0261 50.8645 31.2159 49.864 32.0532 48.5809C32.8908 47.297 33.3385 45.7868 33.3385 44.2427H38.4199C38.4199 46.8162 37.6746 49.3332 36.2787 51.4731C34.8828 53.6123 32.8978 55.279 30.5769 56.2637C28.2559 57.2482 25.7015 57.5078 23.2376 57.0058C20.7736 56.5036 18.5109 55.2623 16.7344 53.4427C14.958 51.623 13.746 49.3055 13.2558 46.7816C12.7657 44.2577 13.019 41.6415 13.9803 39.264C14.9416 36.8868 16.5689 34.8535 18.6573 33.4238C20.7463 31.9941 23.2039 31.2306 25.7163 31.2305V36.4354Z" fill="#56AFDF"/>
<path d="M33.3385 20.8208C36.1449 20.8208 38.4199 23.1511 38.4199 26.0256V28.6281H43.5014C44.9046 28.6281 46.0421 29.7932 46.0421 31.2305C46.0421 32.6678 44.9046 33.8329 43.5014 33.8329H38.4199V36.4354H41.5512C43.851 36.4354 45.8636 38.018 46.459 40.2933L49.3594 51.3765C49.7226 52.7647 48.9183 54.1914 47.5631 54.5635C46.2078 54.9352 44.8148 54.1116 44.4517 52.7235L41.5512 41.6403H28.257V26.0256C28.257 23.1512 30.5323 20.821 33.3385 20.8208Z" fill="#56AFDF"/>
<path d="M33.3385 7.80859C36.1449 7.80859 38.4199 10.1389 38.4199 13.0135C38.4199 15.888 36.1449 18.2183 33.3385 18.2183C30.5323 18.2181 28.257 15.8879 28.257 13.0135C28.257 10.1391 30.5323 7.80886 33.3385 7.80859Z" fill="#56AFDF"/>
</svg>
