<svg width="63" height="63" viewBox="0 0 63 63" fill="none" xmlns="http://www.w3.org/2000/svg">
<path d="M11.5714 18.0901C12.9242 15.7245 15.9201 14.9123 18.2631 16.2781L22.5048 18.7509C24.8478 20.1167 25.6518 23.143 24.2991 25.5087L23.1402 27.5317C22.4267 28.7794 22.8566 30.3786 24.0983 31.1024L36.5693 38.3736C37.8105 39.0971 39.3957 38.6723 40.1095 37.4256L41.2684 35.4001C42.6213 33.0346 45.6172 32.2248 47.9601 33.5905L52.2018 36.0634C54.5446 37.429 55.3482 40.453 53.9961 42.8186L51.5461 47.1035C48.8405 51.8344 42.8486 53.4541 38.1628 50.7225L12.7075 35.8855C8.02171 33.1538 6.41624 27.1037 9.12147 22.3725L11.5714 18.0901Z" fill="#56AFDF"/>
<path fill-rule="evenodd" clip-rule="evenodd" d="M52.0492 10.4102C53.4865 10.4102 54.6516 11.5753 54.6516 13.0126V20.82C54.6516 22.2573 53.4865 23.4225 52.0492 23.4225H33.832L31.2295 26.0249V13.0126C31.2295 11.5753 32.3947 10.4102 33.832 10.4102H52.0492ZM37.7357 15.6151C37.017 15.6151 36.4344 16.1977 36.4344 16.9163C36.4344 17.635 37.017 18.2175 37.7357 18.2175C38.4543 18.2175 39.0369 17.635 39.0369 16.9163C39.0369 16.1977 38.4543 15.6151 37.7357 15.6151ZM42.9406 15.6151C42.2219 15.6151 41.6393 16.1977 41.6393 16.9163C41.6393 17.635 42.2219 18.2175 42.9406 18.2175C43.6592 18.2175 44.2418 17.635 44.2418 16.9163C44.2418 16.1977 43.6592 15.6151 42.9406 15.6151ZM48.1455 15.6151C47.4268 15.6151 46.8443 16.1977 46.8443 16.9163C46.8443 17.635 47.4268 18.2175 48.1455 18.2175C48.8641 18.2175 49.4467 17.635 49.4467 16.9163C49.4467 16.1977 48.8641 15.6151 48.1455 15.6151Z" fill="#56AFDF"/>
</svg>
