<svg width="63" height="63" viewBox="0 0 63 63" fill="none" xmlns="http://www.w3.org/2000/svg">
<path d="M31.5496 10.4152C35.5555 10.4769 39.4606 11.6916 42.7955 13.9199C46.2191 16.2075 48.8873 19.4583 50.4631 23.2623C50.6907 23.8118 50.889 24.3708 51.068 24.9346C51.102 25.0414 51.1374 25.1476 51.1697 25.2548C51.1983 25.3504 51.2263 25.4461 51.2535 25.542C51.2939 25.6838 51.3306 25.8265 51.3679 25.969C51.3938 26.068 51.4197 26.167 51.4441 26.2663C51.4658 26.3544 51.4872 26.4424 51.5077 26.5307C51.6161 26.998 51.7089 27.4682 51.7847 27.9412C51.8063 28.0757 51.8268 28.2103 51.8457 28.3453C51.8555 28.4155 51.8645 28.4859 51.8736 28.5562C51.8902 28.684 51.9052 28.8119 51.9194 28.94C52.0514 30.1298 52.0805 31.3301 52.0058 32.5285C52.0011 32.6031 51.996 32.6776 51.9906 32.7522C51.9805 32.8894 51.9703 33.0267 51.9575 33.1639C51.9542 33.1995 51.9509 33.2351 51.9474 33.2706C51.9426 33.3182 51.9346 33.3654 51.9296 33.4129C51.8634 34.041 51.7739 34.6681 51.65 35.2911C50.8467 39.3297 48.8637 43.0408 45.952 45.9525C43.0404 48.8642 39.3292 50.8472 35.2906 51.6505C33.9526 51.9166 32.5983 52.0461 31.2471 52.047C31.2158 52.0471 31.1844 52.0495 31.1531 52.0495C31.1353 52.0495 31.1175 52.0473 31.0997 52.047C28.4224 52.0297 25.7597 51.4983 23.2619 50.4636C19.4578 48.8878 16.207 46.2196 13.9194 42.796C11.6317 39.3723 10.4097 35.3476 10.4097 31.2298C10.4097 29.7925 11.5748 28.6274 13.0121 28.6274C14.4494 28.6274 15.6146 29.7925 15.6146 31.2298C15.6146 34.3176 16.5298 37.3363 18.245 39.9038C19.9608 42.4717 22.4011 44.4733 25.2544 45.6552C27.1514 46.4409 29.1753 46.839 31.209 46.842C33.772 46.8329 36.294 46.2023 38.5538 44.9995C40.8302 43.7878 42.771 42.0363 44.2035 39.9013C45.632 37.7723 46.5074 35.3261 46.7628 32.7801C46.764 32.7682 46.7667 32.7565 46.7678 32.7445C47.0174 30.1959 46.6366 27.624 45.6521 25.2574C44.6658 22.886 43.105 20.7929 41.1106 19.163C39.1162 17.5332 36.7479 16.4166 34.2156 15.915C31.6831 15.4134 29.0643 15.5423 26.5937 16.2886C24.236 17.001 22.0882 18.2614 20.3112 19.9534H21.6861C22.6441 19.9534 23.4215 20.7288 23.422 21.6866C23.422 22.6448 22.6443 23.4225 21.6861 23.4225H15.6146C14.1773 23.4225 13.0121 22.2573 13.0121 20.82V14.7484C13.0121 13.7902 13.7897 13.0126 14.7479 13.0126C15.7058 13.0131 16.4812 13.7905 16.4812 14.7484V16.4055C18.8934 14.0359 21.8476 12.284 25.0892 11.3048C27.046 10.7136 29.0721 10.42 31.1023 10.4152C31.1444 10.4132 31.1867 10.4102 31.2293 10.4102H31.4047C31.453 10.4107 31.5013 10.4143 31.5496 10.4152Z" fill="#56AFDF"/>
</svg>
