<svg width="63" height="63" viewBox="0 0 63 63" fill="none" xmlns="http://www.w3.org/2000/svg">
<path d="M31.2293 10.4102C32.6666 10.4102 33.8318 11.5753 33.8318 13.0126V28.6274H49.4466C50.8839 28.6274 52.049 29.7925 52.049 31.2298C52.049 32.6671 50.8839 33.8323 49.4466 33.8323H33.8318V49.447C33.8318 50.8843 32.6666 52.0495 31.2293 52.0495C29.792 52.0495 28.6269 50.8843 28.6269 49.447V33.8323H13.0121C11.5748 33.8323 10.4097 32.6671 10.4097 31.2298C10.4097 29.7925 11.5748 28.6274 13.0121 28.6274H28.6269V13.0126C28.6269 11.5753 29.792 10.4102 31.2293 10.4102Z" fill="#56AFDF"/>
</svg>
