<svg width="63" height="63" viewBox="0 0 63 63" fill="none" xmlns="http://www.w3.org/2000/svg">
<path d="M7.71846 38.7576C19.2421 32.1919 32.8072 32.1919 44.3308 38.7576C45.8706 39.6356 46.844 41.4286 46.8443 43.3907V52.0495H5.20496V43.3907C5.20528 41.4286 6.17861 39.6356 7.71846 38.7576Z" fill="#56AFDF"/>
<path d="M49.4468 20.82C50.8841 20.82 52.0492 21.9852 52.0492 23.4225V26.0249H54.6517C56.089 26.0249 57.2541 27.1901 57.2541 28.6274C57.2541 30.0647 56.089 31.2298 54.6517 31.2298H52.0492V33.8323C52.0492 35.2696 50.8841 36.4347 49.4468 36.4347C48.0095 36.4347 46.8443 35.2696 46.8443 33.8323V31.2298H44.2418C42.8045 31.2298 41.6394 30.0647 41.6394 28.6274C41.6394 27.1901 42.8045 26.0249 44.2418 26.0249H46.8443V23.4225C46.8443 21.9852 48.0095 20.82 49.4468 20.82Z" fill="#56AFDF"/>
<path d="M26.0246 10.4102C31.7738 10.4102 36.4345 15.0708 36.4345 20.82C36.4345 26.5692 31.7738 31.2298 26.0246 31.2298C20.2754 31.2298 15.6148 26.5692 15.6148 20.82C15.6148 15.0708 20.2754 10.4102 26.0246 10.4102Z" fill="#56AFDF"/>
</svg>
