<svg width="63" height="63" viewBox="0 0 63 63" fill="none" xmlns="http://www.w3.org/2000/svg">
<path fill-rule="evenodd" clip-rule="evenodd" d="M46.8441 15.6172C49.7187 15.6172 52.049 17.9475 52.049 20.8221V41.6418C52.049 44.5164 49.7187 46.8467 46.8441 46.8467H15.6146C12.74 46.8467 10.4097 44.5164 10.4097 41.6418V20.8221C10.4097 17.9475 12.74 15.6172 15.6146 15.6172H46.8441ZM49.0094 19.3786C48.212 18.1832 46.5962 17.8597 45.4005 18.6568L31.2293 28.1034L17.0581 18.6568C15.8623 17.8601 14.2464 18.183 13.4493 19.3786C12.6525 20.5742 12.9758 22.1901 14.171 22.9874L28.3422 32.4341C30.0904 33.5993 32.3683 33.5993 34.1164 32.4341L48.2876 22.9874C49.4834 22.1903 49.8062 20.5744 49.0094 19.3786Z" fill="#56AFDF"/>
</svg>
