<svg width="63" height="63" viewBox="0 0 63 63" fill="none" xmlns="http://www.w3.org/2000/svg">
<path d="M31.2293 18.2184C32.6666 18.2184 33.8318 19.3836 33.8318 20.8209V29.7262L40.3379 33.485C41.5825 34.2037 42.0096 35.7958 41.291 37.0405C40.5722 38.2849 38.9801 38.7096 37.7355 37.991L30.1873 33.6349C29.3426 33.147 28.7823 32.2967 28.6548 31.3451L28.6269 30.9308V20.8209C28.6269 19.3836 29.792 18.2184 31.2293 18.2184Z" fill="#56AFDF"/>
<path fill-rule="evenodd" clip-rule="evenodd" d="M33.8318 7.80859C35.2691 7.80859 36.4343 8.97375 36.4343 10.4111C36.4343 10.6307 36.4016 10.8427 36.3504 11.0464C40.1723 12.0131 43.5706 14.0387 46.2214 16.7901L47.2812 16.0684C48.4679 15.2588 50.0872 15.5658 50.8977 16.752C51.7075 17.9388 51.4006 19.5581 50.2141 20.3685L49.3398 20.9658C51.0609 23.9958 52.049 27.497 52.049 31.2307C52.049 42.7291 42.7277 52.0504 31.2293 52.0504C19.731 52.0504 10.4097 42.7291 10.4097 31.2307C10.4097 21.5003 17.0849 13.3292 26.1057 11.0464C26.0546 10.8428 26.0244 10.6305 26.0244 10.4111C26.0244 8.97375 27.1896 7.80859 28.6269 7.80859H33.8318ZM31.2293 15.616C22.6055 15.616 15.6146 22.6069 15.6146 31.2307C15.6146 39.8545 22.6055 46.8455 31.2293 46.8455C39.8531 46.8455 46.8441 39.8545 46.8441 31.2307C46.8441 22.6069 39.8531 15.616 31.2293 15.616Z" fill="#56AFDF"/>
</svg>
