<svg width="63" height="63" viewBox="0 0 63 63" fill="none" xmlns="http://www.w3.org/2000/svg">
<path fill-rule="evenodd" clip-rule="evenodd" d="M41.6393 10.4102C43.0766 10.4102 44.2418 11.5753 44.2418 13.0126V15.6151H46.8442C49.7188 15.6151 52.0491 17.9454 52.0491 20.82V37.3598C53.6678 39.1947 54.6516 41.603 54.6516 44.2421C54.6516 49.9913 49.991 54.652 44.2418 54.652C41.6026 54.652 39.1943 53.6682 37.3595 52.0495H15.6147C12.9195 52.0495 10.7039 50.0008 10.4377 47.3757L10.4098 46.8446V20.82C10.4098 17.9454 12.7401 15.6151 15.6147 15.6151H18.2172V13.0126C18.2172 11.5753 19.3823 10.4102 20.8196 10.4102C22.2569 10.4102 23.4221 11.5753 23.4221 13.0126V15.6151H39.0368V13.0126C39.0368 11.5753 40.202 10.4102 41.6393 10.4102ZM49.068 40.7324C48.5692 40.2115 47.76 40.2119 47.261 40.7324L43.0219 45.1571L41.1945 43.3704C40.6794 42.8673 39.8697 42.8965 39.3876 43.4339C38.9058 43.9722 38.931 44.8187 39.446 45.3222L41.8197 47.6401C42.5243 48.3269 43.6236 48.3062 44.3053 47.5943L49.068 42.6207C49.5667 42.0994 49.5669 41.2535 49.068 40.7324ZM15.6147 46.8446H34.1598C33.9457 46.0128 33.8319 45.1407 33.8319 44.2421C33.8319 38.4929 38.4926 33.8323 44.2418 33.8323C45.1404 33.8323 46.0124 33.9461 46.8442 34.1601V31.2298H15.6147V46.8446Z" fill="#56AFDF"/>
</svg>
