<svg width="63" height="63" viewBox="0 0 63 63" fill="none" xmlns="http://www.w3.org/2000/svg">
<path d="M31.2297 7.80859C33.8878 7.80859 36.5197 8.34368 38.9755 9.38125C41.4312 10.4188 43.6642 11.9373 45.5438 13.8544C47.4233 15.7715 48.912 18.0492 49.9292 20.554C50.1954 21.2097 50.4257 21.8783 50.6239 22.5559H51.471C54.665 22.5559 57.2543 25.1969 57.2543 28.4548V34.3537C57.2543 37.6116 54.665 40.2526 51.471 40.2526H47.896C47.0127 41.9853 45.8798 43.5765 44.5215 44.9619C42.7762 46.7421 40.7024 48.1519 38.422 49.1153C36.1416 50.0788 33.6979 50.5757 31.2297 50.5757C31.1044 50.5757 30.9841 50.5544 30.8682 50.5238C30.3757 51.4331 29.4286 52.0504 28.338 52.0504H25.4464C23.8494 52.0504 22.5548 50.7299 22.5548 49.1009C22.5548 47.472 23.8494 46.1515 25.4464 46.1515H28.338C29.4277 46.1515 30.3753 46.7671 30.8682 47.6752C30.9839 47.6448 31.1046 47.6262 31.2297 47.6262C33.3181 47.6262 35.3856 47.2057 37.3151 46.3906C39.2446 45.5753 40.9974 44.38 42.4742 42.8737C43.8147 41.5064 44.9004 39.9054 45.6878 38.1499V28.4548C45.6878 26.5183 45.3129 24.6013 44.5865 22.8122C43.8599 21.023 42.7946 19.3974 41.452 18.028C40.1094 16.6586 38.5157 15.5719 36.7616 14.8308C35.0076 14.0899 33.1281 13.7075 31.2297 13.7075C29.3312 13.7075 27.4517 14.0899 25.6977 14.8308C23.9436 15.5719 22.3499 16.6586 21.0073 18.028C19.6648 19.3974 18.5995 21.023 17.8729 22.8122C17.1464 24.6013 16.7716 26.5183 16.7716 28.4548V40.2526H10.9883C7.79432 40.2526 5.20508 37.6116 5.20508 34.3537V28.4548C5.20508 25.1969 7.79432 22.5559 10.9883 22.5559H11.8355C12.0337 21.8783 12.2639 21.2097 12.5301 20.554C13.5474 18.0492 15.036 15.7715 16.9156 13.8544C18.7951 11.9373 21.0281 10.4188 23.4839 9.38125C25.9396 8.34368 28.5715 7.80859 31.2297 7.80859Z" fill="#56AFDF"/>
</svg>
