<svg width="63" height="63" viewBox="0 0 63 63" fill="none" xmlns="http://www.w3.org/2000/svg">
<path d="M36.4345 46.8455C39.3091 46.8455 41.6394 49.1758 41.6394 52.0504H20.8197C20.8197 49.1758 23.1501 46.8455 26.0247 46.8455H36.4345Z" fill="#56AFDF"/>
<path fill-rule="evenodd" clip-rule="evenodd" d="M31.2296 7.80859C38.4157 7.80859 44.2412 13.4329 44.2419 20.371C44.2419 27.3097 31.2296 44.243 31.2296 44.243C31.2296 44.243 18.2173 27.3097 18.2173 20.371C18.2179 13.4329 24.0435 7.80859 31.2296 7.80859ZM31.2296 15.616C28.355 15.616 26.0247 17.9463 26.0247 20.8209C26.0247 23.6955 28.355 26.0258 31.2296 26.0258C34.1042 26.0258 36.4345 23.6955 36.4345 20.8209C36.4345 17.9463 34.1042 15.616 31.2296 15.616Z" fill="#56AFDF"/>
</svg>
