<svg width="63" height="63" viewBox="0 0 63 63" fill="none" xmlns="http://www.w3.org/2000/svg">
<path d="M15.6147 49.4452C15.6147 43.6961 20.2754 39.0354 26.0246 39.0354H36.4344C42.1836 39.0354 46.8443 43.6961 46.8443 49.4452V52.0477H15.6147V49.4452Z" fill="#56AFDF"/>
<path d="M31.2295 15.6133C36.9787 15.6133 41.6393 20.2739 41.6393 26.0231C41.6393 31.7723 36.9787 36.433 31.2295 36.433C25.4803 36.433 20.8197 31.7723 20.8197 26.0231C20.8197 22.1221 22.9658 18.7226 26.1415 16.9399C26.3439 18.1127 26.8102 19.2311 27.5164 20.2032C28.4854 21.5363 29.8526 22.5301 31.4201 23.0394C32.9875 23.5484 34.6765 23.5484 36.2438 23.0394C37.0632 22.7731 37.5128 21.8918 37.2477 21.0723C36.981 20.253 36.1002 19.8028 35.2806 20.0685C34.3398 20.3741 33.3242 20.3741 32.3833 20.0685C31.4429 19.7627 30.6213 19.1656 30.0401 18.3657C29.5 17.6215 29.1959 16.7349 29.1557 15.8191C29.8258 15.6837 30.5194 15.6133 31.2295 15.6133Z" fill="#56AFDF"/>
</svg>
