<svg width="63" height="63" viewBox="0 0 63 63" fill="none" xmlns="http://www.w3.org/2000/svg">
<path d="M31.2294 7.80469C32.6667 7.80469 33.8319 8.96985 33.8319 10.4071V13.2688C39.7714 14.4744 44.2417 19.7266 44.2417 26.0219V44.2391H46.8442C48.2815 44.2391 49.4466 45.4043 49.4466 46.8416C49.4466 48.2789 48.2815 49.444 46.8442 49.444H36.4343C36.4343 52.3186 34.104 54.6489 31.2294 54.6489C28.3548 54.6489 26.0245 52.3186 26.0245 49.444H15.6147C14.1774 49.444 13.0122 48.2789 13.0122 46.8416C13.0122 45.4043 14.1774 44.2391 15.6147 44.2391H18.2171V26.0219C18.2171 19.7266 22.6874 14.4744 28.627 13.2688V10.4071C28.627 8.96985 29.7921 7.80469 31.2294 7.80469Z" fill="#56AFDF"/>
</svg>
