<svg width="1920" height="1094" viewBox="0 0 1920 1094" fill="none" xmlns="http://www.w3.org/2000/svg">
<rect width="1920" height="1094" fill="#56AFDF"/>
<path d="M0 394C0 349.817 35.8172 314 80 314H1840C1884.18 314 1920 349.817 1920 394V1094H0V394Z" fill="white"/>
<rect x="80" y="200" width="89" height="54" rx="27" fill="white"/>
<path d="M107.972 219.859V234H105.433V219.859H107.972ZM115.521 234.215C112.357 234.215 110.443 231.949 110.443 228.746C110.443 225.504 112.415 223.258 115.521 223.258C118.099 223.258 119.896 224.762 120.071 227.047H117.689C117.493 226.031 116.751 225.25 115.54 225.25C113.997 225.25 112.962 226.559 112.962 228.688C112.962 230.875 113.978 232.184 115.54 232.184C116.654 232.184 117.474 231.539 117.689 230.387H120.071C119.876 232.633 118.177 234.215 115.521 234.215ZM126.975 234.215C123.889 234.215 121.897 232.027 121.897 228.746C121.897 225.445 123.889 223.258 126.975 223.258C130.081 223.258 132.054 225.445 132.054 228.746C132.054 232.027 130.081 234.215 126.975 234.215ZM126.995 232.223C128.694 232.223 129.534 230.68 129.534 228.727C129.534 226.793 128.694 225.23 126.995 225.23C125.257 225.23 124.417 226.793 124.417 228.727C124.417 230.68 125.257 232.223 126.995 232.223ZM136.887 227.789V234H134.387V223.395H136.77V225.191H136.907C137.395 224 138.469 223.258 140.051 223.258C142.258 223.258 143.704 224.703 143.684 227.242V234H141.204V227.633C141.204 226.207 140.442 225.367 139.133 225.367C137.805 225.367 136.887 226.246 136.887 227.789Z" fill="#56AFDF"/>
</svg>
