<svg width="1920" height="1094" viewBox="0 0 1920 1094" fill="none" xmlns="http://www.w3.org/2000/svg">
<rect width="1920" height="1094" fill="#56AFDF"/>
<path d="M0 394C0 349.817 35.8172 314 80 314H1840C1884.18 314 1920 349.817 1920 394V1094H0V394Z" fill="white"/>
<rect x="80" y="200" width="89" height="54" rx="27" fill="white"/>
<path d="M107.972 219.859V234H105.433V219.859H107.972ZM115.521 234.215C112.357 234.215 110.443 231.949 110.443 228.746C110.443 225.504 112.415 223.258 115.521 223.258C118.099 223.258 119.896 224.762 120.071 227.047H117.689C117.493 226.031 116.751 225.25 115.54 225.25C113.997 225.25 112.962 226.559 112.962 228.688C112.962 230.875 113.978 232.184 115.54 232.184C116.654 232.184 117.474 231.539 117.689 230.387H120.071C119.876 232.633 118.177 234.215 115.521 234.215ZM126.975 234.215C123.889 234.215 121.897 232.027 121.897 228.746C121.897 225.445 123.889 223.258 126.975 223.258C130.081 223.258 132.054 225.445 132.054 228.746C132.054 232.027 130.081 234.215 126.975 234.215ZM126.995 232.223C128.694 232.223 129.534 230.68 129.534 228.727C129.534 226.793 128.694 225.23 126.995 225.23C125.257 225.23 124.417 226.793 124.417 228.727C124.417 230.68 125.257 232.223 126.995 232.223ZM136.887 227.789V234H134.387V223.395H136.77V225.191H136.907C137.395 224 138.469 223.258 140.051 223.258C142.258 223.258 143.704 224.703 143.684 227.242V234H141.204V227.633C141.204 226.207 140.442 225.367 139.133 225.367C137.805 225.367 136.887 226.246 136.887 227.789Z" fill="#56AFDF"/>
<rect width="450" height="450" transform="translate(265 479)" fill="white"/>
<path fill-rule="evenodd" clip-rule="evenodd" d="M573.908 479C579.256 479 584.615 478.995 589.973 479.028C594.487 479.055 598.998 479.109 603.516 479.229C613.352 479.496 623.32 480.075 633.098 481.836C643.026 483.619 652.283 486.538 661.324 491.141C669.562 495.336 677.147 500.72 683.826 507.099V479.881H685.588V507.165L713.494 479.258L714.119 479.881L714.742 480.504L687.298 507.947H714.119V509.709H686.454C693.027 516.498 698.57 524.249 702.859 532.676C707.468 541.723 710.386 550.986 712.17 560.919C713.924 570.697 714.502 580.652 714.769 590.488C714.859 593.872 714.912 597.262 714.945 600.648L714.972 604.032C715 609.384 715 614.743 715 620.097V620.978H714.993V795.931C714.99 798.609 714.982 801.289 714.966 803.968C714.938 808.481 714.884 812.993 714.764 817.511C714.502 827.347 713.918 837.303 712.163 847.081C710.485 856.398 707.818 865.118 703.697 873.626L702.854 875.324C698.663 883.558 693.28 891.143 686.899 897.823H714.119V899.585H686.832L714.742 927.494L713.494 928.742L685.588 900.834V928.117H683.826V900.892C677.596 906.845 670.579 911.936 662.976 915.995L661.319 916.859C652.278 921.463 643.019 924.381 633.091 926.164C623.308 927.924 613.346 928.504 603.511 928.771C600.122 928.861 596.737 928.914 593.352 928.946L589.966 928.972C584.614 928.999 579.257 929 573.903 929H406.097C400.749 929 395.39 929.005 390.032 928.972C385.518 928.945 381.006 928.891 376.487 928.771C366.646 928.504 356.685 927.925 346.907 926.164C336.979 924.381 327.722 921.462 318.681 916.859C310.248 912.565 302.502 907.025 295.709 900.447V928.117H293.947V901.298L266.504 928.742L265.881 928.117L265.258 927.494L293.168 899.585H265.881V897.823H293.101C287.15 891.597 282.062 884.578 278.004 876.981L277.14 875.324C272.537 866.277 269.619 857.014 267.836 847.081C266.081 837.303 265.501 827.348 265.234 817.512C265.114 812.994 265.06 808.481 265.033 803.968C265 798.616 265 793.257 265 787.903V620.097C265 614.748 265 609.39 265.033 604.032C265.06 599.519 265.114 595.007 265.234 590.489C265.496 580.653 266.081 570.697 267.836 560.919C269.619 550.98 272.537 541.723 277.14 532.676L278.004 531.019C282.168 523.232 287.407 516.055 293.551 509.709H265.881V507.947H292.702L265.258 480.504L266.504 479.258L293.947 506.7V479.881H295.709V507.552C302.502 500.974 310.248 495.43 318.681 491.141C327.722 486.538 336.979 483.619 346.907 481.836C356.685 480.075 366.652 479.496 376.487 479.229C381.001 479.109 385.518 479.055 390.032 479.028C395.384 479.001 400.743 479 406.097 479H573.908ZM406.835 927.238H488.653V899.619C487.791 899.613 486.931 899.602 486.072 899.585H406.835V927.238ZM494.009 899.585C492.813 899.608 491.615 899.622 490.415 899.624V927.238H572.7V899.585H494.009ZM297.352 899.585C303.918 905.864 311.376 911.162 319.479 915.288C328.348 919.804 337.438 922.673 347.218 924.43C356.865 926.167 366.723 926.742 376.536 927.009C381.037 927.129 385.535 927.183 390.042 927.21C395.052 927.241 400.064 927.237 405.073 927.236V899.585H297.352ZM574.462 927.236C579.63 927.236 584.796 927.237 589.956 927.21L593.335 927.184C596.713 927.152 600.088 927.099 603.464 927.009C613.271 926.742 623.128 926.167 632.78 924.43C642.56 922.673 651.65 919.804 660.519 915.288C668.622 911.167 676.081 905.865 682.648 899.585H574.462V927.236ZM297.423 897.823H405.073V880.255C385.44 870.771 367.635 858.101 352.325 842.919L297.423 897.823ZM406.835 879.142C430.935 890.614 457.775 897.259 486.108 897.823H488.653V823.66C485.843 823.625 483.015 823.494 480.172 823.259C451.487 820.886 426.009 808.575 406.835 789.995V879.142ZM572.7 881.353C555.278 889.489 536.457 895.13 516.698 897.823H572.7V881.353ZM627.714 842.96C612.272 858.265 594.293 871.013 574.462 880.517V897.823H682.575L627.714 842.96ZM572.7 790.513C551.136 811.111 522.004 823.606 490.415 823.67V897.823H493.973C522.092 897.263 548.741 890.715 572.7 879.402V790.513ZM406.835 897.823H463.382C443.417 895.102 424.411 889.367 406.835 881.093V897.823ZM295.709 897.043L351.078 841.673C335.79 826.239 323.057 808.272 313.562 788.457H295.709V897.043ZM685.588 896.644C691.866 890.079 697.163 882.622 701.283 874.526C705.799 865.651 708.668 856.561 710.43 846.769L710.742 844.958C712.233 835.89 712.759 826.657 713.004 817.464L713.082 814.088C713.149 810.713 713.185 807.336 713.205 803.956C713.222 801.28 713.228 798.605 713.231 795.929V788.457H685.588V896.644ZM666.519 788.457C657.015 808.29 644.266 826.269 628.96 841.713L683.826 896.579V788.457H666.519ZM266.762 788.457C266.762 793.627 266.763 798.794 266.795 803.956C266.822 808.463 266.876 812.962 266.996 817.464L267.111 821.143C267.424 829.73 268.055 838.328 269.57 846.769C271.327 856.555 274.194 865.651 278.71 874.526C282.728 882.421 287.872 889.71 293.947 896.152V788.457H266.762ZM574.462 878.559C593.811 869.182 611.363 856.682 626.467 841.714L574.462 789.708V878.559ZM353.571 841.673C368.542 856.519 385.922 868.936 405.073 878.292V790.172L353.571 841.673ZM627.714 840.467C642.684 825.361 655.185 807.808 664.563 788.457H575.704L627.714 840.467ZM315.518 788.457C324.887 807.79 337.372 825.331 352.323 840.427L404.296 788.457H315.518ZM498.464 788.457C495.814 788.718 493.13 788.856 490.415 788.868V821.909C521.934 821.843 550.969 809.216 572.292 788.457H498.464ZM407.778 788.457C426.701 806.916 451.914 819.152 480.317 821.502C483.111 821.734 485.891 821.863 488.653 821.898V788.858C486.282 788.82 483.935 788.686 481.616 788.457H407.778ZM266.762 786.695H293.947V704.879H266.762V786.695ZM296.222 704.879C296.346 734.135 302.95 761.86 314.675 786.695H403.556C383.062 765.237 370.59 736.287 370.405 704.879H296.222ZM408.551 786.695H470.869C455.417 783.125 441.585 775.331 430.645 764.599L408.551 786.695ZM431.89 763.353C445.01 776.217 462.374 784.767 481.691 786.695H488.653V706.593L431.89 763.353ZM490.415 786.695H498.39C517.686 784.769 535.033 776.234 548.147 763.393L490.415 705.66V786.695ZM549.393 764.64C538.459 775.351 524.644 783.13 509.212 786.695H571.448L549.393 764.64ZM683.826 730.669C681.135 750.437 675.494 769.265 667.355 786.695H683.826V730.669ZM685.623 704.879C685.619 705.821 685.605 706.762 685.588 707.701V786.695H713.231V704.879H685.623ZM609.667 704.879C609.643 707.867 609.508 710.877 609.258 713.904C606.906 742.317 594.807 767.585 576.52 786.695H665.406C676.747 762.673 683.297 735.948 683.826 707.747V704.879H609.667ZM295.709 786.695H312.726C303.991 767.988 298.13 747.67 295.709 726.309V786.695ZM574.865 704.879C574.84 707.416 574.705 709.926 574.462 712.405V786.291C592.918 767.369 605.153 742.157 607.503 713.757C607.749 710.78 607.881 707.819 607.905 704.879H574.865ZM406.835 785.917L429.399 763.352C418.119 751.82 410.098 737.088 406.835 720.64V785.917ZM372.167 704.879C372.353 735.943 384.74 764.565 405.073 785.73V704.879H372.167ZM572.7 723.19C569.138 738.631 561.355 752.454 550.639 763.393L572.7 785.453V723.19ZM549.393 762.147C562.25 749.016 570.789 731.642 572.7 712.316V704.879H492.127L549.393 762.147ZM406.976 704.879C407.196 727.148 416.183 747.315 430.645 762.106L487.873 704.879H406.976ZM266.762 703.117H293.947V620.837H266.762V703.117ZM314.937 620.837C303.06 645.788 296.359 673.676 296.222 703.117H370.409C370.434 700.156 370.568 697.173 370.816 694.174C373.19 665.49 385.498 640.01 404.077 620.837H314.937ZM405.073 622.343C386.918 641.202 374.9 666.198 372.573 694.32C372.329 697.27 372.196 700.204 372.17 703.117H405.073V622.343ZM430.686 645.932C416.218 660.708 407.219 680.861 406.976 703.117H487.872L430.686 645.932ZM492.128 703.117H572.7V695.765C570.787 676.419 562.233 659.026 549.354 645.891L492.128 703.117ZM574.462 695.676C574.702 698.127 574.838 700.609 574.865 703.117H607.907C607.698 671.811 595.098 642.988 574.462 621.789V695.676ZM575.992 620.837C596.78 642.331 609.463 671.474 609.671 703.117H683.826V700.321C683.292 671.911 676.645 644.997 665.144 620.837H575.992ZM685.588 700.321C685.606 701.252 685.617 702.184 685.621 703.117H713.231V620.837H685.588V700.321ZM490.415 702.338L548.106 644.645C533.212 630.083 512.867 621.074 490.415 620.975V702.338ZM488.653 620.985C466.581 621.347 446.605 630.319 431.932 644.686L488.653 701.405V620.985ZM406.835 687.441C410.102 670.973 418.138 656.224 429.44 644.686L406.835 622.081V687.441ZM550.599 644.645C561.336 655.59 569.133 669.43 572.7 684.889V622.546L550.599 644.645ZM295.709 681.772C298.154 660.201 304.109 639.696 312.987 620.837H295.709V681.772ZM667.094 620.837C675.371 638.42 681.107 657.435 683.826 677.41V620.837H667.094ZM430.686 643.44C442.222 632.14 456.968 624.105 473.432 620.837H408.083L430.686 643.44ZM506.648 620.837C523.093 624.101 537.822 632.121 549.352 643.399L571.916 620.837H506.648ZM293.947 511.848C287.872 518.294 282.733 525.58 278.71 533.476C274.194 542.35 271.327 551.44 269.57 561.231C267.839 570.878 267.257 580.73 266.996 590.536C266.876 595.038 266.822 599.537 266.795 604.044C266.764 609.055 266.762 614.066 266.762 619.075H293.947V511.848ZM352.366 567.612C337.539 582.575 325.134 599.941 315.787 619.075H403.829L352.366 567.612ZM488.653 586.172C457.798 586.499 429.385 598.859 408.344 619.075H488.653V586.172ZM490.415 619.075H571.733C552.874 600.92 527.878 588.9 499.756 586.573C496.622 586.314 493.507 586.18 490.415 586.167V619.075ZM628.919 566.325C644.102 581.636 656.771 599.441 666.256 619.075H683.826V511.42L628.919 566.325ZM685.588 619.075H713.238C713.238 614.062 713.236 609.05 713.211 604.044L713.185 600.663C713.163 598.411 713.131 596.159 713.087 593.91L713.009 590.536C712.743 580.729 712.167 570.878 710.435 561.231C708.678 551.445 705.809 542.349 701.289 533.474C697.167 525.376 691.865 517.912 685.588 511.349V619.075ZM576.171 619.075H664.294C654.938 599.923 642.519 582.543 627.673 567.571L576.171 619.075ZM295.709 619.075H313.825C323.301 599.459 335.956 581.668 351.121 566.367L295.709 510.955V619.075ZM574.462 618.291L626.426 566.325C611.331 551.376 593.793 538.889 574.462 529.52V618.291ZM488.653 510.224C459.382 510.429 431.655 517.122 406.835 528.937V618.084C428.224 597.397 457.188 584.738 488.653 584.41V510.224ZM405.073 529.787C385.94 539.134 368.574 551.538 353.612 566.365L405.073 617.826V529.787ZM490.415 584.405C493.555 584.419 496.719 584.553 499.902 584.817C528.318 587.168 553.589 599.271 572.7 617.561V528.677C547.733 516.888 519.844 510.274 490.415 510.219V584.405ZM352.366 565.119C367.667 549.955 385.458 537.299 405.073 527.824V509.709H296.955L352.366 565.119ZM574.462 527.564C594.275 537.059 612.239 549.794 627.671 565.08L683.043 509.709H574.462V527.564ZM406.835 526.988C425.695 518.109 446.202 512.154 467.773 509.709H406.835V526.988ZM512.307 509.709C533.671 512.13 553.991 517.991 572.7 526.728V509.709H512.307ZM398.065 480.766L390.042 480.79C386.662 480.81 383.284 480.847 379.91 480.914L376.536 480.991C366.728 481.258 356.865 481.833 347.218 483.57C337.438 485.327 328.348 488.195 319.479 492.71C311.579 496.728 304.293 501.872 297.848 507.947H405.073V480.762C402.737 480.762 400.4 480.763 398.065 480.766ZM406.835 507.947H488.653V480.762H406.835V507.947ZM490.415 507.947H572.7V480.762H490.415V507.947ZM574.462 507.947H682.157C675.712 501.873 668.425 496.734 660.524 492.71C651.655 488.195 642.565 485.327 632.785 483.57C623.138 481.833 613.277 481.258 603.47 480.991C598.967 480.871 594.468 480.817 589.961 480.79C584.795 480.758 579.628 480.762 574.462 480.762V507.947Z" fill="#EDEDF1"/>
<path d="M467.496 580.008C480.83 570.331 499.17 570.331 512.504 580.008L625.004 661.664C634.443 668.516 639.998 679.27 640 690.689V854H527.5V799.563C527.497 779.523 510.709 763.272 490 763.272C469.291 763.272 452.503 779.523 452.5 799.563V854H340V690.689C340.002 679.27 345.557 668.516 354.996 661.664L467.496 580.008Z" fill="#56AFDF"/>
<path fill-rule="evenodd" clip-rule="evenodd" d="M995.361 455.362C1001.96 448.76 1012.67 448.76 1019.27 455.362C1025.19 461.285 1025.8 470.506 1021.09 477.108L1031.22 487.24C1032.32 488.34 1032.32 490.124 1031.22 491.224C1030.12 492.325 1028.34 492.325 1027.24 491.224L1017.11 481.093C1010.51 485.798 1001.28 485.193 995.361 479.27C988.759 472.668 988.759 461.964 995.361 455.362ZM999.346 459.346C994.945 463.748 994.945 470.884 999.346 475.285C1003.75 479.687 1010.88 479.687 1015.28 475.285C1019.69 470.884 1019.69 463.748 1015.28 459.346C1010.88 454.945 1003.75 454.945 999.346 459.346Z" fill="#56AFDF"/>
<path d="M1105.49 455.749C1104.27 454.528 1104.27 452.548 1105.49 451.326C1106.71 450.105 1108.69 450.105 1109.92 451.326L1145.3 486.71C1146.52 487.932 1146.52 489.912 1145.3 491.133C1144.08 492.355 1142.1 492.355 1140.88 491.133L1105.49 455.749Z" fill="#56AFDF"/>
<path d="M1140.88 451.326C1142.1 450.105 1144.08 450.105 1145.3 451.326C1146.52 452.548 1146.52 454.528 1145.3 455.749L1109.92 491.133C1108.69 492.355 1106.71 492.355 1105.49 491.133C1104.27 489.912 1104.27 487.932 1105.49 486.71L1140.88 451.326Z" fill="#56AFDF"/>
<path d="M1239.56 450.41C1241 450.41 1242.17 451.575 1242.17 453.013V468.627H1257.78C1259.22 468.627 1260.38 469.793 1260.38 471.23C1260.38 472.667 1259.22 473.832 1257.78 473.832H1242.17V489.447C1242.17 490.884 1241 492.049 1239.56 492.049C1238.13 492.049 1236.96 490.884 1236.96 489.447V473.832H1221.35C1219.91 473.832 1218.74 472.667 1218.74 471.23C1218.74 469.793 1219.91 468.627 1221.35 468.627H1236.96V453.013C1236.96 451.575 1238.13 450.41 1239.56 450.41Z" fill="#56AFDF"/>
<path d="M1371.95 468.629C1373.38 468.629 1374.55 469.794 1374.55 471.231C1374.55 472.669 1373.38 473.834 1371.95 473.834H1335.51C1334.07 473.834 1332.91 472.669 1332.91 471.231C1332.91 469.794 1334.07 468.629 1335.51 468.629H1371.95Z" fill="#56AFDF"/>
<path d="M1471.45 453.736C1472.43 452.771 1474 452.77 1474.97 453.736C1475.95 454.702 1475.95 456.268 1474.97 457.234L1460.89 471.229L1474.97 485.224C1475.95 486.19 1475.95 487.756 1474.97 488.722C1474 489.688 1472.43 489.687 1471.45 488.722L1455.61 472.978C1454.64 472.012 1454.64 470.446 1455.61 469.48L1471.45 453.736Z" fill="#56AFDF"/>
<path d="M1598.67 456.412C1599.63 455.352 1601.19 455.352 1602.16 456.412C1603.12 457.472 1603.12 459.19 1602.16 460.25L1580.12 484.462C1577.23 487.642 1572.54 487.641 1569.64 484.462L1561.97 476.028C1561 474.968 1561 473.25 1561.97 472.19C1562.93 471.131 1564.5 471.13 1565.46 472.19L1573.14 480.624C1574.1 481.683 1575.67 481.684 1576.63 480.624L1598.67 456.412Z" fill="#56AFDF"/>
<path d="M1011.23 566.21C1012.67 566.21 1013.83 567.375 1013.83 568.812C1013.83 570.25 1012.67 571.415 1011.23 571.415H998.217C996.78 571.415 995.615 572.58 995.615 574.017V600.042C995.615 601.479 996.78 602.644 998.217 602.644H1011.23C1012.67 602.644 1013.83 603.81 1013.83 605.247C1013.83 606.684 1012.67 607.849 1011.23 607.849H998.217C993.905 607.849 990.41 604.354 990.41 600.042V574.017C990.41 569.705 993.905 566.21 998.217 566.21H1011.23Z" fill="#56AFDF"/>
<path d="M1018.64 577.662C1019.45 576.512 1020.99 576.279 1022.07 577.141L1030.58 583.906C1032.54 585.468 1032.54 588.592 1030.58 590.153L1022.07 596.918C1020.99 597.78 1019.45 597.547 1018.64 596.397C1017.82 595.248 1018.04 593.618 1019.13 592.756L1023.05 589.632H1005.88L1005.63 589.619C1004.39 589.486 1003.42 588.377 1003.42 587.03C1003.42 585.682 1004.39 584.574 1005.63 584.44L1005.88 584.427H1023.05L1019.13 581.304C1018.04 580.442 1017.82 578.812 1018.64 577.662Z" fill="#56AFDF"/>
<path d="M1125.72 566.215C1129.72 566.277 1133.63 567.491 1136.96 569.72C1140.39 572.007 1143.05 575.258 1144.63 579.062C1144.86 579.612 1145.06 580.171 1145.23 580.734C1145.27 580.841 1145.3 580.947 1145.34 581.055C1145.37 581.15 1145.39 581.246 1145.42 581.342C1145.46 581.484 1145.5 581.626 1145.53 581.769C1145.56 581.868 1145.59 581.967 1145.61 582.066C1145.63 582.154 1145.65 582.242 1145.67 582.33C1145.78 582.798 1145.88 583.268 1145.95 583.741C1145.97 583.876 1145.99 584.01 1146.01 584.145C1146.02 584.215 1146.03 584.286 1146.04 584.356C1146.06 584.484 1146.07 584.612 1146.09 584.74C1146.22 585.93 1146.25 587.13 1146.17 588.328C1146.17 588.403 1146.16 588.477 1146.16 588.552C1146.15 588.689 1146.14 588.827 1146.12 588.964C1146.12 588.999 1146.12 589.035 1146.11 589.07C1146.11 589.118 1146.1 589.165 1146.1 589.213C1146.03 589.841 1145.94 590.468 1145.82 591.091C1145.01 595.13 1143.03 598.841 1140.12 601.752C1137.21 604.664 1133.5 606.647 1129.46 607.45C1128.12 607.716 1126.77 607.846 1125.41 607.847C1125.38 607.847 1125.35 607.849 1125.32 607.849C1125.3 607.849 1125.28 607.847 1125.27 607.847C1122.59 607.829 1119.93 607.298 1117.43 606.263C1113.62 604.688 1110.37 602.019 1108.09 598.596C1105.8 595.172 1104.58 591.147 1104.58 587.03C1104.58 585.592 1105.74 584.427 1107.18 584.427C1108.62 584.427 1109.78 585.592 1109.78 587.03C1109.78 590.117 1110.7 593.136 1112.41 595.704C1114.13 598.271 1116.57 600.273 1119.42 601.455C1121.32 602.241 1123.34 602.639 1125.38 602.642C1127.94 602.633 1130.46 602.002 1132.72 600.799C1135 599.588 1136.94 597.836 1138.37 595.701C1139.8 593.572 1140.67 591.126 1140.93 588.58C1140.93 588.568 1140.93 588.556 1140.93 588.544C1141.18 585.996 1140.8 583.424 1139.82 581.057C1138.83 578.686 1137.27 576.593 1135.28 574.963C1133.28 573.333 1130.91 572.216 1128.38 571.715C1125.85 571.213 1123.23 571.342 1120.76 572.088C1118.4 572.801 1116.25 574.061 1114.48 575.753H1115.85C1116.81 575.753 1117.59 576.529 1117.59 577.486C1117.59 578.445 1116.81 579.222 1115.85 579.222H1109.78C1108.34 579.222 1107.18 578.057 1107.18 576.62V570.548C1107.18 569.59 1107.96 568.812 1108.91 568.812C1109.87 568.813 1110.65 569.59 1110.65 570.548V572.205C1113.06 569.836 1116.01 568.084 1119.26 567.105C1121.21 566.513 1123.24 566.22 1125.27 566.215C1125.31 566.213 1125.35 566.21 1125.4 566.21H1125.57C1125.62 566.211 1125.67 566.214 1125.72 566.215Z" fill="#56AFDF"/>
<path d="M1239.56 574.018C1241 574.018 1242.17 575.183 1242.17 576.621V585.526L1248.67 589.285C1249.92 590.004 1250.34 591.596 1249.62 592.84C1248.91 594.085 1247.31 594.509 1246.07 593.791L1238.52 589.435C1237.68 588.947 1237.12 588.097 1236.99 587.145L1236.96 586.731V576.621C1236.96 575.183 1238.13 574.018 1239.56 574.018Z" fill="#56AFDF"/>
<path fill-rule="evenodd" clip-rule="evenodd" d="M1242.17 563.608C1243.6 563.608 1244.77 564.774 1244.77 566.211C1244.77 566.431 1244.74 566.642 1244.68 566.846C1248.51 567.813 1251.9 569.839 1254.55 572.59L1255.61 571.868C1256.8 571.059 1258.42 571.366 1259.23 572.552C1260.04 573.739 1259.73 575.358 1258.55 576.168L1257.67 576.766C1259.39 579.796 1260.38 583.297 1260.38 587.031C1260.38 598.529 1251.06 607.85 1239.56 607.85C1228.06 607.85 1218.74 598.529 1218.74 587.031C1218.74 577.3 1225.42 569.129 1234.44 566.846C1234.39 566.643 1234.36 566.43 1234.36 566.211C1234.36 564.774 1235.52 563.608 1236.96 563.608H1242.17ZM1239.56 571.416C1230.94 571.416 1223.95 578.407 1223.95 587.031C1223.95 595.654 1230.94 602.645 1239.56 602.645C1248.19 602.645 1255.18 595.654 1255.18 587.031C1255.18 578.407 1248.19 571.416 1239.56 571.416Z" fill="#56AFDF"/>
<path d="M1375.2 585.076L1371.3 581.173L1355.68 596.785L1347.87 588.979L1334.21 602.643L1330.31 598.737L1347.87 581.173L1355.68 588.979L1367.39 577.27L1363.49 573.365L1377.15 571.413L1375.2 585.076Z" fill="#56AFDF"/>
<path d="M1467.9 563.608C1470.55 563.608 1473.19 564.143 1475.64 565.181C1478.1 566.219 1480.33 567.737 1482.21 569.654C1484.09 571.571 1485.58 573.849 1486.6 576.354C1486.86 577.009 1487.09 577.678 1487.29 578.356H1488.14C1491.33 578.356 1493.92 580.997 1493.92 584.255V590.153C1493.92 593.411 1491.33 596.052 1488.14 596.052H1484.56C1483.68 597.785 1482.55 599.376 1481.19 600.762C1479.44 602.542 1477.37 603.952 1475.09 604.915C1472.81 605.879 1470.36 606.375 1467.9 606.375C1467.77 606.375 1467.65 606.354 1467.53 606.324C1467.04 607.233 1466.1 607.85 1465 607.85H1462.11C1460.52 607.85 1459.22 606.53 1459.22 604.901C1459.22 603.272 1460.52 601.951 1462.11 601.951H1465C1466.09 601.951 1467.04 602.567 1467.53 603.475C1467.65 603.445 1467.77 603.426 1467.9 603.426C1469.98 603.426 1472.05 603.005 1473.98 602.19C1475.91 601.375 1477.66 600.18 1479.14 598.673C1480.48 597.306 1481.57 595.705 1482.35 593.95V584.255C1482.35 582.318 1481.98 580.401 1481.25 578.612C1480.53 576.823 1479.46 575.197 1478.12 573.828C1476.78 572.458 1475.18 571.372 1473.43 570.631C1471.67 569.89 1469.79 569.507 1467.9 569.507C1466 569.507 1464.12 569.89 1462.36 570.631C1460.61 571.372 1459.02 572.458 1457.67 573.828C1456.33 575.197 1455.27 576.823 1454.54 578.612C1453.81 580.401 1453.44 582.318 1453.44 584.255V596.052H1447.65C1444.46 596.052 1441.87 593.411 1441.87 590.153V584.255C1441.87 580.997 1444.46 578.356 1447.65 578.356H1448.5C1448.7 577.678 1448.93 577.009 1449.2 576.354C1450.21 573.849 1451.7 571.571 1453.58 569.654C1455.46 567.737 1457.69 566.219 1460.15 565.181C1462.61 564.143 1465.24 563.608 1467.9 563.608Z" fill="#56AFDF"/>
<path fill-rule="evenodd" clip-rule="evenodd" d="M1592.47 566.21C1593.91 566.21 1595.08 567.375 1595.08 568.812V571.415H1597.68C1600.55 571.415 1602.88 573.745 1602.88 576.62V602.644C1602.88 605.519 1600.55 607.849 1597.68 607.849H1566.45C1563.75 607.849 1561.54 605.801 1561.27 603.176L1561.24 602.644V576.62C1561.24 573.745 1563.57 571.415 1566.45 571.415H1569.05V568.812C1569.05 567.375 1570.22 566.21 1571.65 566.21C1573.09 566.21 1574.26 567.375 1574.26 568.812V571.415H1589.87V568.812C1589.87 567.375 1591.04 566.21 1592.47 566.21ZM1566.45 602.644H1597.68V587.03H1566.45V602.644Z" fill="#56AFDF"/>
<path fill-rule="evenodd" clip-rule="evenodd" d="M1021.64 682.01C1023.08 682.01 1024.24 683.175 1024.24 684.613V687.215H1026.84C1029.72 687.215 1032.05 689.545 1032.05 692.42V708.96C1033.67 710.795 1034.65 713.203 1034.65 715.842C1034.65 721.591 1029.99 726.252 1024.24 726.252C1021.6 726.252 1019.19 725.268 1017.36 723.65H995.615C992.919 723.65 990.704 721.601 990.438 718.976L990.41 718.445V692.42C990.41 689.545 992.74 687.215 995.615 687.215H998.217V684.613C998.217 683.175 999.382 682.01 1000.82 682.01C1002.26 682.01 1003.42 683.175 1003.42 684.613V687.215H1019.04V684.613C1019.04 683.175 1020.2 682.01 1021.64 682.01ZM1029.07 712.332C1028.57 711.812 1027.76 711.812 1027.26 712.332L1023.02 716.757L1021.19 714.97C1020.68 714.467 1019.87 714.497 1019.39 715.034C1018.91 715.572 1018.93 716.419 1019.45 716.922L1021.82 719.24C1022.52 719.927 1023.62 719.906 1024.31 719.194L1029.07 714.221C1029.57 713.699 1029.57 712.854 1029.07 712.332ZM995.615 718.445H1014.16C1013.95 717.613 1013.83 716.741 1013.83 715.842C1013.83 710.093 1018.49 705.432 1024.24 705.432C1025.14 705.432 1026.01 705.546 1026.84 705.76V702.83H995.615V718.445Z" fill="#56AFDF"/>
<g clip-path="url(#clip0_4723_3845)">
<path fill-rule="evenodd" clip-rule="evenodd" d="M1236.59 723.65H1218.74V705.803H1236.59V723.65ZM1224.69 717.7H1230.64V711.753H1224.69V717.7Z" fill="#56AFDF"/>
<path d="M1249.97 723.65H1242.17V715.842H1249.97V723.65Z" fill="#56AFDF"/>
<path d="M1260.38 723.65H1252.58V715.842H1260.38V723.65Z" fill="#56AFDF"/>
<path d="M1249.97 713.24H1242.17V705.432H1249.97V713.24Z" fill="#56AFDF"/>
<path d="M1260.38 713.24H1252.58V705.432H1260.38V713.24Z" fill="#56AFDF"/>
<path fill-rule="evenodd" clip-rule="evenodd" d="M1236.59 699.856H1218.74V682.01H1236.59V699.856ZM1224.69 693.907H1230.64V687.96H1224.69V693.907Z" fill="#56AFDF"/>
<path fill-rule="evenodd" clip-rule="evenodd" d="M1260.38 699.856H1242.54V682.01H1260.38V699.856ZM1248.49 693.907H1254.43V687.96H1248.49V693.907Z" fill="#56AFDF"/>
</g>
<path d="M1366.74 682.01C1371.05 682.01 1374.55 685.506 1374.55 689.818C1374.55 694.13 1371.05 697.625 1366.74 697.625C1364.64 697.625 1362.73 696.789 1361.33 695.434L1348.46 701.864C1348.5 702.181 1348.52 702.503 1348.52 702.83C1348.52 703.155 1348.5 703.476 1348.46 703.791L1361.33 710.223C1362.73 708.87 1364.64 708.035 1366.74 708.035C1371.05 708.035 1374.55 711.53 1374.55 715.842C1374.55 720.154 1371.05 723.65 1366.74 723.65C1362.43 723.65 1358.93 720.154 1358.93 715.842C1358.93 715.516 1358.96 715.195 1359 714.879L1346.13 708.447C1344.73 709.8 1342.82 710.637 1340.72 710.637C1336.41 710.637 1332.91 707.142 1332.91 702.83C1332.91 698.518 1336.41 695.023 1340.72 695.023C1342.82 695.023 1344.73 695.858 1346.13 697.211L1359 690.778C1358.96 690.463 1358.93 690.143 1358.93 689.818C1358.93 685.506 1362.43 682.01 1366.74 682.01Z" fill="#56AFDF"/>
<path d="M1118.16 721.355L1108.09 723.505C1106 724.199 1104.02 722.218 1104.72 720.137L1106.87 710.061L1118.16 721.355ZM1140.25 699.272L1121.86 717.659L1110.56 706.364L1128.95 687.978L1140.25 699.272ZM1134.53 682.396C1134.85 682.081 1135.3 681.945 1135.73 682.032C1141.01 683.087 1145.14 687.212 1146.19 692.488C1146.28 692.925 1146.14 693.376 1145.83 693.69L1143.93 695.592L1132.63 684.298L1134.53 682.396Z" fill="#56AFDF"/>
<path fill-rule="evenodd" clip-rule="evenodd" d="M1483.51 687.217C1486.39 687.217 1488.72 689.548 1488.72 692.422V713.242C1488.72 716.116 1486.39 718.447 1483.51 718.447H1452.28C1449.41 718.447 1447.08 716.116 1447.08 713.242V692.422C1447.08 689.548 1449.41 687.217 1452.28 687.217H1483.51ZM1485.68 690.979C1484.88 689.783 1483.26 689.46 1482.07 690.257L1467.9 699.703L1453.72 690.257C1452.53 689.46 1450.91 689.783 1450.12 690.979C1449.32 692.174 1449.64 693.79 1450.84 694.588L1465.01 704.034C1466.76 705.199 1469.03 705.199 1470.78 704.034L1484.95 694.588C1486.15 693.79 1486.47 692.174 1485.68 690.979Z" fill="#56AFDF"/>
<path d="M1582.06 679.405C1583.5 679.405 1584.67 680.57 1584.67 682.007V684.869C1590.6 686.074 1595.08 691.327 1595.08 697.622V715.839H1597.68C1599.11 715.839 1600.28 717.004 1600.28 718.442C1600.28 719.879 1599.11 721.044 1597.68 721.044H1587.27C1587.27 723.919 1584.94 726.249 1582.06 726.249C1579.19 726.249 1576.86 723.919 1576.86 721.044H1566.45C1565.01 721.044 1563.85 719.879 1563.85 718.442C1563.85 717.004 1565.01 715.839 1566.45 715.839H1569.05V697.622C1569.05 691.327 1573.52 686.074 1579.46 684.869V682.007C1579.46 680.57 1580.63 679.405 1582.06 679.405Z" fill="#56AFDF"/>
<path fill-rule="evenodd" clip-rule="evenodd" d="M1026.84 797.81C1029.72 797.81 1032.05 800.14 1032.05 803.015V834.244C1032.05 837.119 1029.72 839.449 1026.84 839.449H995.615C992.74 839.449 990.41 837.119 990.41 834.244V803.015C990.41 800.14 992.74 797.81 995.615 797.81H1026.84ZM1019.62 822.396C1018.75 820.666 1016.37 820.452 1015.21 822L1011.23 827.304L1008.87 823.761C1007.89 822.296 1005.77 822.203 1004.67 823.578L998.217 831.642H1024.24L1019.62 822.396ZM1019.04 808.22C1017.6 808.22 1016.43 809.385 1016.43 810.822C1016.43 812.26 1017.6 813.425 1019.04 813.425C1020.47 813.425 1021.64 812.26 1021.64 810.822C1021.64 809.385 1020.47 808.22 1019.04 808.22Z" fill="#56AFDF"/>
<path d="M1105.74 805.49C1107.09 803.124 1110.09 802.312 1112.43 803.678L1116.67 806.151C1119.01 807.517 1119.82 810.543 1118.47 812.909L1117.31 814.932C1116.59 816.179 1117.02 817.779 1118.27 818.502L1130.74 825.773C1131.98 826.497 1133.56 826.072 1134.28 824.826L1135.44 822.8C1136.79 820.434 1139.78 819.625 1142.13 820.99L1146.37 823.463C1148.71 824.829 1149.51 827.853 1148.16 830.218L1145.71 834.503C1143.01 839.234 1137.02 840.854 1132.33 838.122L1106.87 823.285C1102.19 820.554 1100.58 814.504 1103.29 809.772L1105.74 805.49Z" fill="#56AFDF"/>
<path fill-rule="evenodd" clip-rule="evenodd" d="M1146.22 797.81C1147.65 797.81 1148.82 798.975 1148.82 800.413V808.22C1148.82 809.657 1147.65 810.822 1146.22 810.822H1128L1125.4 813.425V800.413C1125.4 798.975 1126.56 797.81 1128 797.81H1146.22ZM1131.9 803.015C1131.18 803.015 1130.6 803.598 1130.6 804.316C1130.6 805.035 1131.18 805.617 1131.9 805.617C1132.62 805.617 1133.2 805.035 1133.2 804.316C1133.2 803.598 1132.62 803.015 1131.9 803.015ZM1137.11 803.015C1136.39 803.015 1135.81 803.598 1135.81 804.316C1135.81 805.035 1136.39 805.617 1137.11 805.617C1137.83 805.617 1138.41 805.035 1138.41 804.316C1138.41 803.598 1137.83 803.015 1137.11 803.015ZM1142.31 803.015C1141.59 803.015 1141.01 803.598 1141.01 804.316C1141.01 805.035 1141.59 805.617 1142.31 805.617C1143.03 805.617 1143.61 805.035 1143.61 804.316C1143.61 803.598 1143.03 803.015 1142.31 803.015Z" fill="#56AFDF"/>
<path d="M1244.77 834.245C1247.64 834.245 1249.97 836.576 1249.97 839.45H1229.15C1229.15 836.576 1231.48 834.245 1234.36 834.245H1244.77Z" fill="#56AFDF"/>
<path fill-rule="evenodd" clip-rule="evenodd" d="M1239.56 795.208C1246.75 795.208 1252.57 800.833 1252.58 807.771C1252.58 814.71 1239.56 831.643 1239.56 831.643C1239.56 831.643 1226.55 814.71 1226.55 807.771C1226.55 800.833 1232.38 795.208 1239.56 795.208ZM1239.56 803.016C1236.69 803.016 1234.36 805.346 1234.36 808.221C1234.36 811.095 1236.69 813.426 1239.56 813.426C1242.44 813.426 1244.77 811.095 1244.77 808.221C1244.77 805.346 1242.44 803.016 1239.56 803.016Z" fill="#56AFDF"/>
<path d="M1346.53 825.174C1347.52 825.466 1347.97 825.833 1347.99 826.442C1347.97 827.111 1347.44 827.609 1346.53 827.746V825.174Z" fill="#56AFDF"/>
<path d="M1345.54 822.343C1344.73 822.094 1344.21 821.725 1344.23 821.09C1344.25 820.489 1344.68 820.034 1345.54 819.906V822.343Z" fill="#56AFDF"/>
<path fill-rule="evenodd" clip-rule="evenodd" d="M1345.92 808.22C1347.06 808.22 1348.17 808.344 1349.24 808.576C1349.28 808.584 1349.32 808.595 1349.36 808.604C1350.13 808.778 1350.89 809.01 1351.61 809.295C1351.69 809.325 1351.77 809.353 1351.84 809.384C1352 809.448 1352.15 809.516 1352.31 809.585C1352.36 809.606 1352.41 809.629 1352.45 809.651C1352.59 809.716 1352.73 809.782 1352.87 809.852C1352.96 809.897 1353.06 809.944 1353.15 809.991C1353.27 810.057 1353.4 810.124 1353.52 810.192C1353.56 810.216 1353.6 810.243 1353.65 810.268C1354.24 810.609 1354.82 810.986 1355.36 811.399C1355.5 811.505 1355.64 811.612 1355.78 811.722C1355.87 811.796 1355.95 811.874 1356.04 811.951C1356.13 812.024 1356.22 812.097 1356.3 812.172C1356.39 812.249 1356.47 812.329 1356.56 812.408C1356.66 812.504 1356.76 812.6 1356.86 812.698C1356.92 812.755 1356.98 812.813 1357.03 812.871C1357.12 812.964 1357.22 813.058 1357.31 813.153C1357.39 813.241 1357.47 813.327 1357.55 813.417C1357.63 813.509 1357.71 813.605 1357.79 813.699C1357.86 813.781 1357.94 813.86 1358 813.943C1358.3 814.304 1358.58 814.68 1358.84 815.067C1358.9 815.155 1358.96 815.246 1359.02 815.336C1359.07 815.421 1359.13 815.504 1359.18 815.59C1359.27 815.724 1359.35 815.86 1359.42 815.997C1359.47 816.07 1359.51 816.144 1359.55 816.218C1359.62 816.334 1359.68 816.451 1359.74 816.569C1359.79 816.664 1359.84 816.761 1359.89 816.858C1359.94 816.964 1360 817.069 1360.05 817.176C1360.1 817.289 1360.15 817.404 1360.2 817.519C1360.24 817.609 1360.28 817.698 1360.32 817.789C1360.38 817.92 1360.43 818.054 1360.48 818.188C1360.52 818.287 1360.56 818.386 1360.6 818.487C1360.66 818.674 1360.73 818.862 1360.79 819.052C1360.81 819.12 1360.83 819.188 1360.85 819.257C1360.91 819.456 1360.97 819.656 1361.02 819.857C1361.04 819.925 1361.06 819.993 1361.07 820.061C1361.11 820.217 1361.15 820.375 1361.18 820.533C1361.2 820.629 1361.22 820.726 1361.24 820.823C1361.27 820.98 1361.3 821.137 1361.33 821.296C1361.34 821.398 1361.36 821.5 1361.37 821.603C1361.39 821.74 1361.41 821.877 1361.43 822.015C1361.44 822.105 1361.45 822.196 1361.46 822.287C1361.47 822.452 1361.49 822.618 1361.5 822.785C1361.5 822.881 1361.51 822.976 1361.52 823.072C1361.53 823.325 1361.54 823.579 1361.54 823.835C1361.54 824.075 1361.53 824.314 1361.52 824.551C1361.52 824.61 1361.51 824.668 1361.51 824.727C1361.5 824.935 1361.48 825.141 1361.46 825.347C1361.46 825.412 1361.45 825.477 1361.44 825.543C1361.42 825.722 1361.4 825.901 1361.37 826.079C1361.36 826.158 1361.35 826.237 1361.34 826.315C1361.32 826.454 1361.29 826.592 1361.26 826.729C1361.24 826.848 1361.22 826.965 1361.19 827.083C1361.16 827.221 1361.13 827.359 1361.1 827.497C1361.08 827.592 1361.06 827.687 1361.03 827.782C1361 827.905 1360.96 828.028 1360.93 828.15C1360.87 828.355 1360.81 828.558 1360.74 828.76C1360.7 828.873 1360.66 828.986 1360.62 829.098C1360.59 829.204 1360.54 829.308 1360.5 829.413C1360.46 829.541 1360.41 829.668 1360.35 829.794C1360.31 829.892 1360.27 829.99 1360.23 830.087C1360.18 830.196 1360.13 830.304 1360.08 830.412C1360.04 830.514 1359.99 830.616 1359.94 830.717C1359.87 830.848 1359.81 830.977 1359.74 831.106C1359.7 831.183 1359.66 831.26 1359.62 831.337C1359.57 831.427 1359.51 831.515 1359.46 831.604C1359.23 832.01 1358.98 832.406 1358.71 832.788C1358.64 832.889 1358.57 832.989 1358.49 833.088C1358.43 833.174 1358.37 833.258 1358.3 833.342C1358.23 833.441 1358.15 833.54 1358.07 833.637C1358 833.72 1357.94 833.804 1357.87 833.886C1357.8 833.969 1357.72 834.049 1357.65 834.13C1357.56 834.236 1357.47 834.34 1357.37 834.443C1357.3 834.515 1357.24 834.585 1357.17 834.656C1356.66 835.18 1356.13 835.668 1355.55 836.118C1355.5 836.16 1355.45 836.203 1355.39 836.245C1355.29 836.325 1355.18 836.405 1355.07 836.484C1355.01 836.53 1354.94 836.575 1354.88 836.621C1353.86 837.336 1352.75 837.932 1351.57 838.39C1351.55 838.397 1351.54 838.403 1351.52 838.41C1349.78 839.078 1347.89 839.449 1345.92 839.449C1337.3 839.449 1330.31 832.458 1330.31 823.835C1330.31 815.211 1337.3 808.22 1345.92 808.22ZM1345.54 817.471C1342.99 817.651 1341.2 819.143 1341.21 821.296C1341.21 823.166 1342.52 824.229 1344.66 824.727L1345.54 824.933V827.746C1344.46 827.626 1343.76 827.017 1343.7 825.962H1340.89C1340.94 828.655 1342.73 830.061 1345.54 830.198V831.606H1346.53V830.198C1349.32 830.052 1350.94 828.663 1350.96 826.442C1350.94 824.452 1349.55 823.269 1347.16 822.737L1346.53 822.582V819.906C1347.42 820.034 1347.91 820.542 1347.97 821.314H1350.79C1350.75 819.144 1349.12 817.634 1346.53 817.471V816.063H1345.54V817.471Z" fill="#56AFDF"/>
<path d="M1369.34 797.81C1372.22 797.81 1374.55 800.14 1374.55 803.015C1374.55 805.89 1372.22 808.22 1369.34 808.22C1372.22 808.22 1374.55 810.55 1374.55 813.425C1374.55 816.299 1372.22 818.63 1369.34 818.63C1372.22 818.63 1374.55 820.96 1374.55 823.835C1374.55 826.709 1372.22 829.04 1369.34 829.04L1369.88 829.068C1372.5 829.334 1374.55 831.549 1374.55 834.244C1374.55 837.119 1372.22 839.449 1369.34 839.449H1355.31C1360.6 836.262 1364.14 830.462 1364.14 823.835C1364.14 814.012 1356.36 806.007 1346.63 805.633C1346.18 804.863 1345.92 803.97 1345.92 803.015C1345.92 800.14 1348.25 797.81 1351.13 797.81H1369.34Z" fill="#56AFDF"/>
<path d="M1600.24 797.81C1602.46 797.81 1603.69 800.363 1602.28 802.062L1587.34 820.076V834.244C1587.34 837.119 1584.98 839.449 1582.06 839.449C1579.15 839.449 1576.79 837.119 1576.79 834.244V820.076L1561.84 802.062C1560.43 800.363 1561.66 797.811 1563.89 797.81H1600.24Z" fill="#56AFDF"/>
<path d="M1447.08 802.78C1447.08 801.043 1449.07 799.9 1450.8 800.649L1487.24 816.503C1489.21 817.36 1489.21 819.906 1487.24 820.762L1450.8 836.616C1449.07 837.366 1447.08 836.223 1447.08 834.486V823.533L1466.79 818.632L1447.08 813.732V802.78Z" fill="#56AFDF"/>
<path d="M1011.23 913.61C1022.73 913.61 1032.05 922.931 1032.05 934.43C1032.05 945.928 1022.73 955.25 1011.23 955.25C999.731 955.25 990.41 945.928 990.41 934.43C990.41 922.932 999.731 913.611 1011.23 913.61ZM1010.81 941.761C1009.19 941.761 1007.87 942.996 1007.82 944.562V944.867C1007.87 946.434 1009.19 947.703 1010.81 947.703C1012.37 947.703 1013.76 946.351 1013.76 944.714C1013.76 943.077 1012.37 941.761 1010.81 941.761ZM1011.34 921.267C1006.79 921.267 1003.08 923.65 1002.98 928.667H1008.03C1008.1 926.568 1009.63 925.465 1011.3 925.465C1013.01 925.465 1014.4 926.639 1014.4 928.418C1014.4 930.055 1013.22 931.158 1011.69 932.154C1009.56 933.471 1008.39 934.859 1008.35 939.271V939.662H1013.05V939.271C1013.08 936.78 1013.97 935.641 1015.96 934.432C1018.31 933.044 1019.81 931.158 1019.81 928.24C1019.81 923.864 1016.28 921.267 1011.34 921.267Z" fill="#56AFDF"/>
<path d="M1101.89 941.958C1113.41 935.392 1126.97 935.392 1138.5 941.958C1140.04 942.836 1141.01 944.629 1141.01 946.591V955.25H1099.37V946.591C1099.37 944.629 1100.35 942.836 1101.89 941.958Z" fill="#56AFDF"/>
<path d="M1143.61 924.02C1145.05 924.02 1146.22 925.185 1146.22 926.623V929.225H1148.82C1150.26 929.225 1151.42 930.39 1151.42 931.828C1151.42 933.265 1150.26 934.43 1148.82 934.43H1146.22V937.032C1146.22 938.47 1145.05 939.635 1143.61 939.635C1142.18 939.635 1141.01 938.47 1141.01 937.032V934.43H1138.41C1136.97 934.43 1135.81 933.265 1135.81 931.828C1135.81 930.39 1136.97 929.225 1138.41 929.225H1141.01V926.623C1141.01 925.185 1142.18 924.02 1143.61 924.02Z" fill="#56AFDF"/>
<path d="M1120.19 913.61C1125.94 913.61 1130.6 918.271 1130.6 924.02C1130.6 929.769 1125.94 934.43 1120.19 934.43C1114.44 934.43 1109.78 929.769 1109.78 924.02C1109.78 918.271 1114.44 913.61 1120.19 913.61Z" fill="#56AFDF"/>
<path d="M1223.95 952.645C1223.95 946.896 1228.61 942.236 1234.36 942.236H1244.77C1250.52 942.236 1255.18 946.896 1255.18 952.645V955.248H1223.95V952.645Z" fill="#56AFDF"/>
<path d="M1239.56 918.813C1245.31 918.813 1249.97 923.474 1249.97 929.223C1249.97 934.973 1245.31 939.633 1239.56 939.633C1233.81 939.633 1229.15 934.973 1229.15 929.223C1229.15 925.322 1231.3 921.923 1234.47 920.14C1234.68 921.313 1235.14 922.431 1235.85 923.403C1236.82 924.736 1238.19 925.73 1239.75 926.24C1241.32 926.749 1243.01 926.749 1244.58 926.24C1245.4 925.973 1245.85 925.092 1245.58 924.273C1245.31 923.453 1244.43 923.003 1243.61 923.269C1242.67 923.574 1241.66 923.574 1240.72 923.269C1239.78 922.963 1238.95 922.366 1238.37 921.566C1237.83 920.822 1237.53 919.935 1237.49 919.019C1238.16 918.884 1238.85 918.813 1239.56 918.813Z" fill="#56AFDF"/>
<path d="M1335.42 944.614C1346.95 938.074 1360.51 938.074 1372.04 944.614C1373.57 945.489 1374.55 947.275 1374.55 949.229V955.253H1332.91V949.229C1332.91 947.275 1333.88 945.489 1335.42 944.614Z" fill="#56AFDF"/>
<path d="M1352 911.306C1353.12 910.91 1354.34 910.91 1355.46 911.306L1369.76 916.35C1372.12 917.185 1372.05 920.544 1369.66 921.288L1369.34 921.388V929.843C1369.34 930.561 1368.76 931.144 1368.04 931.144C1367.32 931.144 1366.74 930.561 1366.74 929.843V922.196L1364.14 923.006V926.623C1364.14 926.663 1364.14 926.705 1364.14 926.745C1364.14 932.47 1359.48 937.114 1353.73 937.114C1347.98 937.114 1343.32 932.47 1343.32 926.745C1343.32 926.705 1343.32 926.663 1343.32 926.623L1343.32 923.006L1337.79 921.288C1335.4 920.544 1335.34 917.185 1337.7 916.35L1352 911.306Z" fill="#56AFDF"/>
<path d="M1472.1 924.188C1474.96 923.489 1477.89 925.038 1478.66 927.647L1481.21 936.313C1481.34 936.785 1481.41 937.275 1481.41 937.767L1481.44 949.623C1481.44 949.849 1481.47 950.078 1481.53 950.296L1483.42 957.179C1483.8 958.566 1482.96 959.993 1481.54 960.366C1480.12 960.737 1478.66 959.913 1478.28 958.526L1476.21 950.983C1476.15 950.765 1476.12 950.54 1476.12 950.314L1476.12 945.61C1476.12 945.185 1475.77 944.84 1475.33 944.84C1474.96 944.84 1474.64 945.09 1474.56 945.442L1473.52 950.055C1473.47 950.24 1473.45 950.43 1473.45 950.619V957.852C1473.45 959.289 1472.26 960.454 1470.79 960.455C1469.32 960.454 1468.13 959.289 1468.13 957.852V950.04C1468.13 949.854 1468.15 949.667 1468.19 949.486L1468.19 949.481L1470.57 939.015C1470.67 938.591 1470.65 938.151 1470.53 937.734L1470.09 936.252C1468.35 937.697 1465.9 938.794 1462.67 939.119C1462.68 939.223 1462.69 939.328 1462.69 939.434V958.452C1462.69 959.557 1461.76 960.454 1460.61 960.455C1459.46 960.455 1458.53 959.558 1458.53 958.452V939.434C1458.53 938.882 1458.06 938.433 1457.49 938.433C1456.91 938.433 1456.44 938.882 1456.44 939.434V940.436C1456.44 941.541 1455.51 942.438 1454.36 942.438C1453.21 942.438 1452.28 941.541 1452.28 940.436V939.434C1452.28 936.67 1454.61 934.43 1457.49 934.43C1458.2 934.43 1458.88 934.568 1459.49 934.816C1459.95 934.341 1460.59 934.034 1461.31 934.003C1467.5 933.741 1468.22 930.138 1468.15 929.535C1468.13 929.356 1468.12 929.177 1468.14 929.004C1468.09 926.808 1469.68 924.782 1472.1 924.188Z" fill="#56AFDF"/>
<path d="M1464.14 913.61C1467.81 913.611 1470.79 916.523 1470.79 920.116C1470.79 923.71 1467.81 926.622 1464.14 926.623C1460.47 926.623 1457.49 923.71 1457.49 920.116C1457.49 916.523 1460.47 913.61 1464.14 913.61Z" fill="#56AFDF"/>
<path d="M1576.55 939.636C1575.04 939.636 1573.57 940.094 1572.31 940.952C1571.06 941.81 1570.08 943.028 1569.51 944.454C1568.93 945.88 1568.78 947.451 1569.07 948.965C1569.37 950.48 1570.09 951.871 1571.16 952.963C1572.23 954.055 1573.59 954.799 1575.06 955.1C1576.54 955.401 1578.08 955.246 1579.47 954.655C1580.86 954.065 1582.05 953.064 1582.89 951.781C1583.72 950.497 1584.17 948.987 1584.17 947.443H1589.25C1589.25 950.016 1588.51 952.533 1587.11 954.673C1585.72 956.813 1583.73 958.479 1581.41 959.464C1579.09 960.448 1576.54 960.708 1574.07 960.206C1571.61 959.704 1569.34 958.463 1567.57 956.643C1565.79 954.823 1564.58 952.506 1564.09 949.982C1563.6 947.458 1563.85 944.842 1564.81 942.464C1565.78 940.087 1567.4 938.054 1569.49 936.624C1571.58 935.194 1574.04 934.431 1576.55 934.431V939.636Z" fill="#56AFDF"/>
<path d="M1584.17 924.021C1586.98 924.021 1589.25 926.351 1589.25 929.226V931.828H1594.33C1595.74 931.828 1596.88 932.993 1596.88 934.431C1596.88 935.868 1595.74 937.033 1594.33 937.033H1589.25V939.636H1592.38C1594.68 939.636 1596.7 941.218 1597.29 943.493L1600.19 954.577C1600.56 955.965 1599.75 957.392 1598.4 957.764C1597.04 958.135 1595.65 957.312 1595.29 955.924L1592.38 944.84H1579.09V929.226C1579.09 926.351 1581.37 924.021 1584.17 924.021Z" fill="#56AFDF"/>
<path d="M1584.17 911.009C1586.98 911.009 1589.25 913.339 1589.25 916.214C1589.25 919.088 1586.98 921.419 1584.17 921.419C1581.37 921.418 1579.09 919.088 1579.09 916.214C1579.09 913.339 1581.37 911.009 1584.17 911.009Z" fill="#56AFDF"/>
<defs>
<clipPath id="clip0_4723_3845">
<rect width="62.459" height="62.459" fill="white" transform="translate(1208.33 671.6)"/>
</clipPath>
</defs>
</svg>
