<svg width="63" height="63" viewBox="0 0 63 63" fill="none" xmlns="http://www.w3.org/2000/svg">
<path fill-rule="evenodd" clip-rule="evenodd" d="M15.3614 15.3617C21.9635 8.75963 32.6676 8.75963 39.2697 15.3617C45.1928 21.2848 45.7974 30.5062 41.0928 37.1084L51.2239 47.2395C52.3242 48.3399 52.3242 50.1239 51.2239 51.2242C50.1235 52.3246 48.3395 52.3246 47.2391 51.2242L37.1081 41.0932C30.5059 45.7978 21.2844 45.1931 15.3614 39.2701C8.75926 32.668 8.75926 21.9638 15.3614 15.3617ZM19.3461 19.3465C14.9447 23.7479 14.9447 30.8839 19.3461 35.2853C23.7475 39.6868 30.8836 39.6868 35.285 35.2853C39.6864 30.8839 39.6864 23.7479 35.285 19.3465C30.8836 14.9451 23.7475 14.9451 19.3461 19.3465Z" fill="#56AFDF"/>
</svg>
