<svg width="63" height="63" viewBox="0 0 63 63" fill="none" xmlns="http://www.w3.org/2000/svg">
<g clip-path="url(#clip0_4632_4970)">
<path fill-rule="evenodd" clip-rule="evenodd" d="M28.2558 52.0495H10.4097V34.2033H28.2558V52.0495ZM16.3592 46.0999H22.3063V40.1529H16.3592V46.0999Z" fill="#56AFDF"/>
<path d="M41.6392 52.0495H33.8318V44.2421H41.6392V52.0495Z" fill="#56AFDF"/>
<path d="M52.049 52.0495H44.2416V44.2421H52.049V52.0495Z" fill="#56AFDF"/>
<path d="M41.6392 41.6397H33.8318V33.8323H41.6392V41.6397Z" fill="#56AFDF"/>
<path d="M52.049 41.6397H44.2416V33.8323H52.049V41.6397Z" fill="#56AFDF"/>
<path fill-rule="evenodd" clip-rule="evenodd" d="M28.2558 28.2563H10.4097V10.4102H28.2558V28.2563ZM16.3592 22.3067H22.3063V16.3597H16.3592V22.3067Z" fill="#56AFDF"/>
<path fill-rule="evenodd" clip-rule="evenodd" d="M52.049 28.2563H34.2029V10.4102H52.049V28.2563ZM40.1524 22.3067H46.0994V16.3597H40.1524V22.3067Z" fill="#56AFDF"/>
</g>
<defs>
<clipPath id="clip0_4632_4970">
<rect width="62.459" height="62.459" fill="white"/>
</clipPath>
</defs>
</svg>
