<svg width="450" height="450" viewBox="0 0 450 450" fill="none" xmlns="http://www.w3.org/2000/svg">
<rect width="450" height="450" fill="white"/>
<path fill-rule="evenodd" clip-rule="evenodd" d="M308.908 0.000299115C314.256 0.000299115 319.615 -0.00487632 324.973 0.0278285C329.487 0.0550863 333.998 0.10909 338.516 0.229137C348.352 0.496445 358.32 1.07541 368.098 2.83583C378.026 4.6195 387.283 7.53758 396.324 12.1408C404.562 16.3363 412.147 21.7196 418.826 28.0992V0.881241H420.588V28.1646L448.494 0.258387L449.119 0.881241L449.742 1.50409L422.298 28.9475H449.119V30.7094H421.454C428.027 37.4977 433.57 45.2491 437.859 53.6758C442.468 62.7229 445.386 71.9861 447.17 81.9193C448.924 91.6968 449.502 101.652 449.769 111.488C449.859 114.872 449.912 118.262 449.945 121.648L449.972 125.032C450 130.384 450 135.743 450 141.097V141.978H449.993V316.931C449.99 319.609 449.982 322.289 449.966 324.968C449.938 329.481 449.884 333.993 449.764 338.511C449.502 348.347 448.918 358.303 447.163 368.081C445.485 377.398 442.818 386.118 438.697 394.626L437.854 396.324C433.663 404.558 428.28 412.143 421.899 418.823H449.119V420.585H421.832L449.742 448.494L448.494 449.742L420.588 421.834V449.117H418.826V421.892C412.596 427.845 405.579 432.936 397.976 436.995L396.319 437.859C387.278 442.463 378.019 445.381 368.091 447.164C358.308 448.924 348.346 449.504 338.511 449.771C335.122 449.861 331.737 449.914 328.352 449.946L324.966 449.972C319.614 449.999 314.257 450 308.903 450H141.097C135.749 450 130.39 450.005 125.032 449.972C120.518 449.945 116.006 449.891 111.487 449.771C101.646 449.504 91.6852 448.925 81.907 447.164C71.9791 445.381 62.7222 442.462 53.6807 437.859C45.2484 433.565 37.502 428.025 30.7091 421.447V449.117H28.9472V422.298L1.5038 449.742L0.880943 449.117L0.258089 448.494L28.1678 420.585H0.880943V418.823H28.1007C22.15 412.597 17.062 405.578 13.0042 397.981L12.1405 396.324C7.53724 387.277 4.61917 378.014 2.83553 368.081C1.08075 358.303 0.501318 348.348 0.234 338.512C0.113959 333.994 0.0599483 329.481 0.0326912 324.968C-1.03769e-05 319.616 0 314.257 0 308.903V141.097C-4.34699e-10 135.748 -1.15518e-05 130.39 0.0326912 125.032C0.0599488 120.519 0.113957 116.007 0.234 111.489C0.495879 101.653 1.08073 91.6969 2.83553 81.9193C4.61921 71.9802 7.53725 62.7228 12.1405 53.6758L13.0042 52.0189C17.1678 44.2317 22.4068 37.0546 28.5515 30.7094H0.880943V28.9475H27.7015L0.258089 1.50409L1.5038 0.258387L28.9472 27.7001V0.881241H30.7091V28.5518C37.5016 21.9737 45.2483 16.43 53.6807 12.1408C62.7222 7.53758 71.9791 4.61947 81.907 2.83583C91.6852 1.07543 101.652 0.496448 111.487 0.229137C116.001 0.109078 120.518 0.0550858 125.032 0.0278285C130.384 0.000581509 135.743 0.000299115 141.097 0.000299115H308.908ZM141.835 448.238H223.653V420.619C222.791 420.613 221.931 420.602 221.072 420.585H141.835V448.238ZM229.009 420.585C227.813 420.608 226.615 420.622 225.415 420.624V448.238H307.7V420.585H229.009ZM32.3523 420.585C38.9181 426.864 46.3764 432.162 54.4791 436.288C63.3482 440.804 72.4382 443.673 82.2185 445.43C91.8655 447.167 101.723 447.742 111.536 448.009C116.037 448.129 120.535 448.183 125.042 448.21C130.052 448.241 135.064 448.237 140.073 448.236V420.585H32.3523ZM309.462 448.236C314.63 448.236 319.796 448.237 324.956 448.21L328.335 448.184C331.713 448.152 335.088 448.099 338.464 448.009C348.271 447.742 358.128 447.167 367.78 445.43C377.56 443.673 386.65 440.804 395.519 436.288C403.622 432.167 411.081 426.865 417.648 420.585H309.462V448.236ZM32.4228 418.823H140.073V401.255C120.44 391.771 102.635 379.101 87.3252 363.919L32.4228 418.823ZM141.835 400.142C165.935 411.614 192.775 418.259 221.108 418.823H223.653V344.66C220.843 344.625 218.015 344.494 215.172 344.259C186.487 341.886 161.009 329.575 141.835 310.995V400.142ZM307.7 402.353C290.278 410.489 271.457 416.13 251.698 418.823H307.7V402.353ZM362.714 363.96C347.272 379.265 329.293 392.013 309.462 401.517V418.823H417.575L362.714 363.96ZM307.7 311.513C286.136 332.111 257.004 344.606 225.415 344.67V418.823H228.973C257.092 418.263 283.741 411.715 307.7 400.402V311.513ZM141.835 418.823H198.382C178.417 416.102 159.411 410.367 141.835 402.093V418.823ZM30.7091 418.043L86.0777 362.673C70.7905 347.239 58.0573 329.272 48.562 309.457H30.7091V418.043ZM420.588 417.644C426.866 411.079 432.163 403.622 436.283 395.526C440.799 386.651 443.668 377.561 445.43 367.769L445.742 365.958C447.233 356.89 447.759 347.657 448.004 338.464L448.082 335.088C448.149 331.713 448.185 328.336 448.205 324.956C448.222 322.28 448.228 319.605 448.231 316.929V309.457H420.588V417.644ZM401.519 309.457C392.015 329.29 379.266 347.269 363.96 362.712L418.826 417.579V309.457H401.519ZM1.76189 309.457C1.76192 314.627 1.76304 319.794 1.79458 324.956C1.82179 329.463 1.87627 333.962 1.99589 338.464L2.11117 342.143C2.42364 350.73 3.05495 359.328 4.56989 367.769C6.32702 377.555 9.19415 386.651 13.7097 395.526C17.7281 403.421 22.8721 410.71 28.9472 417.152V309.457H1.76189ZM309.462 399.559C328.811 390.182 346.363 377.682 361.467 362.714L309.462 310.708V399.559ZM88.5709 362.673C103.542 377.519 120.922 389.936 140.073 399.292V311.172L88.5709 362.673ZM362.714 361.467C377.684 346.361 390.185 328.808 399.563 309.457H310.704L362.714 361.467ZM50.5183 309.457C59.887 328.79 72.3723 346.331 87.3234 361.427L139.296 309.457H50.5183ZM233.464 309.457C230.814 309.718 228.13 309.856 225.415 309.868V342.909C256.934 342.843 285.969 330.216 307.292 309.457H233.464ZM142.778 309.457C161.701 327.916 186.914 340.152 215.316 342.502C218.111 342.734 220.891 342.863 223.653 342.898V309.858C221.282 309.82 218.935 309.686 216.616 309.457H142.778ZM1.76189 307.695H28.9472V225.879H1.76189V307.695ZM31.2218 225.879C31.3457 255.135 37.9496 282.86 49.6752 307.695H138.556C118.062 286.237 105.59 257.287 105.405 225.879H31.2218ZM143.551 307.695H205.869C190.417 304.125 176.585 296.331 165.645 285.599L143.551 307.695ZM166.89 284.353C180.01 297.217 197.374 305.767 216.691 307.695H223.653V227.593L166.89 284.353ZM225.415 307.695H233.39C252.686 305.769 270.033 297.234 283.147 284.393L225.415 226.66V307.695ZM284.393 285.64C273.459 296.351 259.644 304.13 244.212 307.695H306.448L284.393 285.64ZM418.826 251.669C416.135 271.437 410.494 290.265 402.355 307.695H418.826V251.669ZM420.623 225.879C420.619 226.821 420.605 227.762 420.588 228.701V307.695H448.231V225.879H420.623ZM344.667 225.879C344.643 228.867 344.508 231.877 344.258 234.904C341.906 263.317 329.807 288.585 311.52 307.695H400.406C411.747 283.673 418.297 256.948 418.826 228.747V225.879H344.667ZM30.7091 307.695H47.7258C38.9907 288.988 33.13 268.67 30.7091 247.309V307.695ZM309.865 225.879C309.84 228.416 309.705 230.926 309.462 233.405V307.291C327.918 288.369 340.153 263.157 342.503 234.757C342.749 231.78 342.881 228.819 342.905 225.879H309.865ZM141.835 306.917L164.399 284.352C153.119 272.82 145.098 258.088 141.835 241.64V306.917ZM107.167 225.879C107.353 256.943 119.74 285.565 140.073 306.73V225.879H107.167ZM307.7 244.19C304.138 259.631 296.355 273.454 285.639 284.393L307.7 306.453V244.19ZM284.393 283.147C297.25 270.016 305.789 252.642 307.7 233.316V225.879H227.127L284.393 283.147ZM141.976 225.879C142.196 248.148 151.183 268.315 165.645 283.106L222.873 225.879H141.976ZM1.76189 224.117H28.9472V141.837H1.76189V224.117ZM49.9367 141.837C38.0597 166.788 31.3592 194.676 31.2218 224.117H105.409C105.435 221.156 105.568 218.173 105.816 215.174C108.19 186.49 120.498 161.01 139.077 141.837H49.9367ZM140.073 143.343C121.918 162.202 109.9 187.198 107.573 215.32C107.329 218.27 107.196 221.204 107.17 224.117H140.073V143.343ZM165.686 166.932C151.218 181.708 142.219 201.861 141.976 224.117H222.872L165.686 166.932ZM227.128 224.117H307.7V216.765C305.787 197.419 297.233 180.026 284.354 166.891L227.128 224.117ZM309.462 216.676C309.702 219.127 309.838 221.609 309.865 224.117H342.907C342.698 192.811 330.098 163.988 309.462 142.789V216.676ZM310.992 141.837C331.78 163.331 344.463 192.474 344.671 224.117H418.826V221.321C418.292 192.911 411.645 165.997 400.144 141.837H310.992ZM420.588 221.321C420.606 222.252 420.617 223.184 420.621 224.117H448.231V141.837H420.588V221.321ZM225.415 223.338L283.106 165.645C268.212 151.083 247.867 142.074 225.415 141.975V223.338ZM223.653 141.985C201.581 142.347 181.605 151.319 166.932 165.686L223.653 222.405V141.985ZM141.835 208.441C145.102 191.973 153.138 177.224 164.44 165.686L141.835 143.081V208.441ZM285.599 165.645C296.336 176.59 304.133 190.43 307.7 205.889V143.546L285.599 165.645ZM30.7091 202.772C33.1539 181.201 39.1095 160.696 47.9873 141.837H30.7091V202.772ZM402.094 141.837C410.371 159.42 416.107 178.435 418.826 198.41V141.837H402.094ZM165.686 164.44C177.222 153.14 191.968 145.105 208.432 141.837H143.083L165.686 164.44ZM241.648 141.837C258.093 145.101 272.822 153.121 284.352 164.399L306.916 141.837H241.648ZM28.9472 32.8481C22.8725 39.2935 17.7333 46.5802 13.7097 54.4759C9.19445 63.3502 6.32694 72.44 4.56989 82.2307C2.83851 91.8779 2.25696 101.73 1.99589 111.536C1.87627 116.038 1.82179 120.537 1.79458 125.044C1.764 130.055 1.76201 135.066 1.76189 140.075H28.9472V32.8481ZM87.3665 88.6124C72.5385 103.575 60.134 120.941 50.7867 140.075H138.829L87.3665 88.6124ZM223.653 107.172C192.798 107.499 164.385 119.859 143.344 140.075H223.653V107.172ZM225.415 140.075H306.733C287.874 121.92 262.878 109.9 234.756 107.573C231.622 107.314 228.507 107.18 225.415 107.167V140.075ZM363.919 87.3254C379.102 102.636 391.771 120.441 401.256 140.075H418.826V32.4196L363.919 87.3254ZM420.588 140.075H448.238C448.238 135.062 448.236 130.05 448.211 125.044L448.185 121.663C448.163 119.411 448.131 117.159 448.087 114.91L448.009 111.536C447.743 101.729 447.167 91.8776 445.435 82.2307C443.678 72.4449 440.809 63.3486 436.289 54.4741C432.167 46.3759 426.865 38.9117 420.588 32.3491V140.075ZM311.171 140.075H399.294C389.938 120.923 377.519 103.543 362.673 88.5711L311.171 140.075ZM30.7091 140.075H48.8252C58.3009 120.459 70.956 102.668 86.1208 87.3667L30.7091 31.9551V140.075ZM309.462 139.291L361.426 87.3254C346.331 72.3756 328.793 59.8886 309.462 50.5202V139.291ZM223.653 31.2238C194.382 31.4291 166.655 38.1222 141.835 49.937V139.084C163.224 118.397 192.188 105.738 223.653 105.41V31.2238ZM140.073 50.7869C120.94 60.1338 103.574 72.5379 88.6122 87.3649L140.073 138.826V50.7869ZM225.415 105.405C228.555 105.419 231.719 105.553 234.902 105.817C263.318 108.168 288.589 120.271 307.7 138.561V49.6771C282.733 37.888 254.844 31.2743 225.415 31.2187V105.405ZM87.3665 86.1192C102.667 70.9552 120.458 58.2991 140.073 48.8237V30.7094H31.9548L87.3665 86.1192ZM309.462 48.5639C329.275 58.059 347.239 70.7937 362.671 86.0797L418.043 30.7094H309.462V48.5639ZM141.835 47.9875C160.695 39.1092 181.202 33.154 202.773 30.7094H141.835V47.9875ZM247.307 30.7094C268.671 33.1304 288.991 38.9912 307.7 47.7277V30.7094H247.307ZM133.065 1.76562L125.042 1.78971C121.662 1.81012 118.284 1.84656 114.91 1.91359L111.536 1.99102C101.728 2.25755 91.8654 2.83341 82.2185 4.57018C72.4382 6.32731 63.3481 9.19452 54.4791 13.71C46.5794 17.7283 39.2931 22.8722 32.8478 28.9475H140.073V1.76218C137.737 1.76224 135.4 1.76265 133.065 1.76562ZM141.835 28.9475H223.653V1.76218H141.835V28.9475ZM225.415 28.9475H307.7V1.76218H225.415V28.9475ZM309.462 28.9475H417.157C410.712 22.8728 403.425 17.7335 395.524 13.71C386.655 9.19467 377.565 6.32725 367.785 4.57018C358.138 2.83349 348.277 2.25756 338.47 1.99102C333.967 1.8714 329.468 1.81693 324.961 1.78971C319.795 1.75818 314.628 1.76189 309.462 1.76218V28.9475Z" fill="#EDEDF1"/>
<path d="M278.408 131.879C283.572 141.259 292.468 147.984 302.867 150.366L345.828 160.21C373.245 166.492 384.264 199.757 366.065 221.301L334.813 258.298C328.26 266.055 325.109 276.148 326.079 286.277L330.614 333.671C333.387 362.638 303.815 383.686 277.547 371.44L240.776 354.298C230.776 349.636 219.242 349.636 209.242 354.297L172.451 371.446C146.183 383.689 116.613 362.642 119.385 333.675L123.921 286.277C124.891 276.148 121.74 266.055 115.187 258.298L83.9352 221.301C65.7361 199.757 76.7551 166.492 104.172 160.21L147.135 150.366C157.533 147.983 166.429 141.261 171.592 131.883L192.218 94.4251C206.48 68.5231 243.534 68.5255 257.793 94.4292L278.408 131.879Z" fill="#56AFDF"/>
</svg>
