<svg width="63" height="63" viewBox="0 0 63 63" fill="none" xmlns="http://www.w3.org/2000/svg">
<path d="M24.032 37.7741C25.0175 38.0657 25.4711 38.4336 25.4882 39.0423C25.4711 39.7111 24.9406 40.2086 24.032 40.3461V37.7741Z" fill="#56AFDF"/>
<path d="M23.0357 34.9429C22.2295 34.6942 21.7148 34.3247 21.7319 33.69C21.7491 33.0896 22.1781 32.6343 23.0357 32.5056V34.9429Z" fill="#56AFDF"/>
<path fill-rule="evenodd" clip-rule="evenodd" d="M23.422 20.82C24.5603 20.82 25.6695 20.9445 26.7386 21.1758C26.7778 21.1843 26.819 21.195 26.8581 21.2038C27.634 21.378 28.3874 21.61 29.1149 21.895C29.1911 21.9249 29.268 21.953 29.3436 21.984C29.5001 22.0482 29.6548 22.1157 29.8087 22.1848C29.8571 22.2065 29.9054 22.2286 29.9536 22.2508C30.0945 22.3158 30.2343 22.3826 30.3729 22.4516C30.4649 22.4974 30.5565 22.5438 30.6474 22.5914C30.7721 22.6566 30.8957 22.7237 31.0184 22.7922C31.0622 22.8166 31.1045 22.8436 31.1481 22.8684C31.7446 23.2089 32.317 23.5858 32.861 23.9994C33.0004 24.1053 33.1395 24.2116 33.2753 24.3221C33.3666 24.3965 33.455 24.4744 33.5447 24.5509C33.6306 24.6241 33.717 24.6969 33.8013 24.772C33.8882 24.8493 33.9729 24.929 34.058 25.0083C34.1607 25.1039 34.263 25.1998 34.363 25.2981C34.4207 25.3547 34.4765 25.4133 34.5333 25.4709C34.6251 25.5638 34.7158 25.6577 34.8052 25.753C34.8877 25.8408 34.9713 25.9275 35.0517 26.0173C35.1344 26.1094 35.2127 26.2053 35.2932 26.2994C35.363 26.3811 35.436 26.4602 35.5041 26.5434C35.8002 26.9045 36.0796 27.2796 36.3428 27.6667C36.403 27.7553 36.4597 27.8462 36.5182 27.9361C36.5732 28.0208 36.6299 28.1044 36.6834 28.1902C36.7667 28.324 36.8455 28.4605 36.9248 28.5969C36.9675 28.6703 37.0103 28.7438 37.0519 28.818C37.1169 28.934 37.1804 29.0509 37.2425 29.1687C37.293 29.2645 37.3413 29.3614 37.3899 29.4584C37.4428 29.5641 37.4969 29.6691 37.5475 29.7761C37.601 29.8895 37.6516 30.0043 37.7025 30.1192C37.7422 30.209 37.7838 30.298 37.8219 30.3886C37.8773 30.5203 37.9277 30.6541 37.9795 30.7876C38.0183 30.8875 38.0596 30.9866 38.0964 31.0875C38.1643 31.2737 38.2261 31.4623 38.287 31.6517C38.3091 31.7203 38.332 31.7886 38.3531 31.8576C38.4138 32.0558 38.4704 32.2558 38.5234 32.4574C38.5411 32.5249 38.5574 32.5928 38.5742 32.6607C38.6131 32.8173 38.6494 32.9749 38.6835 33.1334C38.7042 33.2296 38.723 33.3263 38.7419 33.4231C38.7726 33.58 38.8024 33.7373 38.8284 33.8958C38.8451 33.998 38.8594 34.1006 38.8741 34.2033C38.8937 34.3401 38.9115 34.4772 38.9275 34.6151C38.938 34.7055 38.949 34.796 38.958 34.887C38.9742 35.0523 38.9876 35.2183 38.9986 35.3851C39.005 35.4807 39.0118 35.5763 39.0164 35.6723C39.0286 35.925 39.0368 36.1791 39.0368 36.4347C39.0368 36.675 39.0297 36.9139 39.019 37.1514C39.0163 37.21 39.0121 37.2684 39.0088 37.3268C38.9971 37.5346 38.9828 37.7414 38.9631 37.9469C38.9568 38.0124 38.9473 38.0774 38.9402 38.1426C38.9206 38.3223 38.8997 38.5011 38.8741 38.6789C38.8627 38.7578 38.8511 38.8366 38.8385 38.9152C38.8164 39.054 38.7906 39.1919 38.7648 39.3295C38.7426 39.4478 38.7185 39.5654 38.6937 39.6827C38.6643 39.8216 38.6327 39.9595 38.5996 40.097C38.5768 40.192 38.5556 40.2873 38.531 40.3816C38.4988 40.5052 38.4645 40.6278 38.4293 40.7502C38.3704 40.9555 38.3058 41.1584 38.2387 41.3601C38.2012 41.4731 38.1644 41.5862 38.1244 41.6981C38.0865 41.804 38.0451 41.9084 38.0049 42.0133C37.956 42.141 37.9071 42.2684 37.855 42.3945C37.8145 42.4925 37.7729 42.5898 37.7304 42.6867C37.6826 42.7959 37.6333 42.9042 37.583 43.0121C37.5355 43.1142 37.4878 43.2161 37.4382 43.317C37.3738 43.4477 37.3078 43.5773 37.2399 43.7059C37.1991 43.7834 37.1575 43.8604 37.1154 43.9371C37.066 44.027 37.014 44.1152 36.9629 44.204C36.7292 44.6106 36.4789 45.0059 36.2107 45.3883C36.1398 45.4892 36.0678 45.5891 35.9946 45.6882C35.9314 45.7739 35.8664 45.858 35.8015 45.9424C35.7253 46.0414 35.6487 46.14 35.5702 46.2372C35.5028 46.3206 35.4359 46.4043 35.3669 46.4862C35.2972 46.5689 35.2247 46.649 35.1534 46.7302C35.0607 46.8357 34.9667 46.9398 34.8713 47.0428C34.8044 47.1149 34.7362 47.1855 34.668 47.2563C34.1643 47.7796 33.6262 48.2684 33.0542 48.7176C33 48.7601 32.9462 48.8029 32.8915 48.8447C32.7857 48.9256 32.6792 49.0054 32.5713 49.0836C32.5067 49.1303 32.4408 49.1751 32.3756 49.2209C31.3564 49.9359 30.2495 50.5322 29.0717 50.9897C29.0539 50.9966 29.0361 51.0032 29.0183 51.01C27.2804 51.6778 25.395 52.0495 23.422 52.0495C14.7982 52.0495 7.80725 45.0585 7.80725 36.4347C7.80725 27.811 14.7982 20.82 23.422 20.82ZM23.0357 30.0709C20.4884 30.2512 18.6955 31.743 18.7127 33.8958C18.7127 35.7657 20.0171 36.8293 22.1614 37.3268L23.0357 37.5327V40.3461C21.9551 40.2259 21.2608 39.6169 21.2008 38.562H18.3874C18.4388 41.2552 20.2311 42.6612 23.0357 42.7986V44.2065H24.032V42.7986C26.819 42.6525 28.4395 41.2636 28.4566 39.0423C28.4395 37.0523 27.0493 35.8686 24.6648 35.3368L24.032 35.1818V32.5056C24.9235 32.6345 25.4129 33.1419 25.473 33.9136H28.2864C28.2521 31.7438 26.6218 30.2342 24.032 30.0709V28.6629H23.0357V30.0709Z" fill="#56AFDF"/>
<path d="M46.8441 10.4102C49.7187 10.4102 52.0491 12.7405 52.0491 15.6151C52.0491 18.4897 49.7187 20.82 46.8441 20.82C49.7187 20.82 52.0491 23.1503 52.0491 26.0249C52.0491 28.8995 49.7187 31.2298 46.8441 31.2298C49.7187 31.2298 52.0491 33.5601 52.0491 36.4347C52.0491 39.3093 49.7187 41.6397 46.8441 41.6397L47.3753 41.6676C50.0003 41.9338 52.0491 44.1493 52.0491 46.8446C52.0491 49.7192 49.7187 52.0495 46.8441 52.0495H32.8076C38.0992 48.862 41.6392 43.0624 41.6392 36.4347C41.6392 26.612 33.8648 18.6066 24.1336 18.2328C23.6843 17.4631 23.422 16.5706 23.422 15.6151C23.422 12.7405 25.7523 10.4102 28.6269 10.4102H46.8441Z" fill="#56AFDF"/>
</svg>
