<svg width="63" height="63" viewBox="0 0 63 63" fill="none" xmlns="http://www.w3.org/2000/svg">
<path d="M35.4356 20.9877C38.2921 20.2891 41.2285 21.838 41.9951 24.4467L44.5391 33.1131C44.6776 33.5849 44.7463 34.075 44.7475 34.5668L44.778 46.4227C44.7782 46.6492 44.8071 46.8774 44.867 47.0962L46.7528 53.9785C47.1327 55.3663 46.2909 56.7931 44.8721 57.1655C43.4531 57.5367 41.9946 56.7129 41.6139 55.3254L39.5452 47.7824C39.4856 47.5646 39.4563 47.3394 39.4562 47.114L39.4537 42.4097C39.4533 41.9849 39.1002 41.64 38.6658 41.6397C38.2972 41.64 37.976 41.8901 37.8958 42.242L36.8487 46.8547C36.8067 47.0396 36.7877 47.2295 36.7877 47.419V54.652C36.7874 56.0884 35.5954 57.2534 34.1268 57.2544C32.6576 57.254 31.4636 56.0888 31.4633 54.652V46.8395C31.4634 46.6534 31.4838 46.4673 31.5243 46.2855L31.5269 46.2804L33.9031 35.8146C33.9992 35.3913 33.9845 34.9506 33.8625 34.5337L33.4279 33.0521C31.6824 34.497 29.2333 35.5933 26.0068 35.9188C26.0136 36.0232 26.0246 36.128 26.0246 36.234V55.2517C26.0246 56.3572 25.0927 57.2542 23.9431 57.2544C22.7933 57.2544 21.8617 56.3574 21.8617 55.2517V36.234C21.8613 35.6814 21.3944 35.2326 20.8197 35.2326C20.2449 35.2326 19.778 35.6814 19.7777 36.234V37.2353C19.7777 38.3409 18.846 39.238 17.6962 39.238C16.5466 39.2377 15.6147 38.3408 15.6147 37.2353V36.234C15.6151 33.4702 17.9453 31.2298 20.8197 31.2298C21.5314 31.2298 22.2096 31.3675 22.8274 31.6161C23.2862 31.1411 23.9275 30.8338 24.6471 30.8029C30.8374 30.5404 31.5558 26.9378 31.4836 26.335C31.4617 26.1554 31.456 25.9773 31.4709 25.8038C31.425 23.6077 33.009 21.5822 35.4356 20.9877Z" fill="#56AFDF"/>
<path d="M27.4732 10.4102C31.1472 10.4105 34.1268 13.3233 34.1268 16.9163C34.1268 20.5093 31.1472 23.4221 27.4732 23.4225C23.7989 23.4225 20.8197 20.5095 20.8197 16.9163C20.8197 13.3231 23.7989 10.4102 27.4732 10.4102Z" fill="#56AFDF"/>
</svg>
