<svg width="63" height="63" viewBox="0 0 63 63" fill="none" xmlns="http://www.w3.org/2000/svg">
<path d="M44.2418 10.4102C48.5536 10.4102 52.0491 13.9056 52.0491 18.2175C52.0491 22.5294 48.5536 26.0249 44.2418 26.0249C42.1369 26.0249 40.23 25.1884 38.8259 23.8342L25.961 30.2641C26.0001 30.5807 26.0245 30.9026 26.0245 31.2298C26.0245 31.5553 25.9997 31.8755 25.961 32.1905L38.8259 38.6229C40.2299 37.2694 42.1375 36.4347 44.2418 36.4347C48.5536 36.4347 52.0491 39.9302 52.0491 44.2421C52.0491 48.554 48.5536 52.0495 44.2418 52.0495C39.9299 52.0495 36.4344 48.554 36.4344 44.2421C36.4344 43.9159 36.4565 43.5946 36.4954 43.2789L23.6305 36.8465C22.2265 38.2 20.3214 39.0372 18.2172 39.0372C13.9053 39.0372 10.4098 35.5417 10.4098 31.2298C10.4098 26.9179 13.9053 23.4225 18.2172 23.4225C20.3207 23.4225 22.2266 24.2579 23.6305 25.6107L36.4954 19.1782C36.4567 18.8633 36.4344 18.5429 36.4344 18.2175C36.4344 13.9056 39.9299 10.4102 44.2418 10.4102Z" fill="#56AFDF"/>
</svg>
