<svg width="63" height="63" viewBox="0 0 63 63" fill="none" xmlns="http://www.w3.org/2000/svg">
<path d="M11.3257 15.7492C10.1043 14.5278 10.1043 12.5476 11.3257 11.3262C12.5471 10.1048 14.5274 10.1048 15.7487 11.3262L51.133 46.7104C52.3544 47.9318 52.3544 49.9121 51.133 51.1335C49.9116 52.3548 47.9313 52.3548 46.7099 51.1335L11.3257 15.7492Z" fill="#56AFDF"/>
<path d="M46.7099 11.3262C47.9313 10.1048 49.9116 10.1048 51.133 11.3262C52.3544 12.5476 52.3544 14.5278 51.133 15.7492L15.7487 51.1335C14.5274 52.3548 12.5471 52.3548 11.3257 51.1335C10.1043 49.9121 10.1043 47.9318 11.3257 46.7104L46.7099 11.3262Z" fill="#56AFDF"/>
</svg>
