<svg width="63" height="63" viewBox="0 0 63 63" fill="none" xmlns="http://www.w3.org/2000/svg">
<path d="M12.9232 41.4138C24.4468 34.8738 38.0119 34.8738 49.5355 41.4138C51.0746 42.2886 52.0487 44.0752 52.049 46.0291V52.0523H10.4097V46.0291C10.41 44.0752 11.384 42.2886 12.9232 41.4138Z" fill="#56AFDF"/>
<path d="M29.4961 8.10535C30.6171 7.70968 31.8416 7.70968 32.9626 8.10535L47.2584 13.1502C49.6181 13.9847 49.5547 17.3442 47.1643 18.0882L46.8441 18.1873V26.6428C46.8428 27.3604 46.2607 27.944 45.5429 27.944C44.825 27.944 44.2429 27.3604 44.2416 26.6428V18.9955L41.6392 19.8062V23.4227C41.6396 23.463 41.6392 23.5044 41.6392 23.5447C41.6379 29.2703 36.9778 33.9139 31.2293 33.9139C25.4809 33.9139 20.8208 29.2703 20.8195 23.5447C20.8195 23.5044 20.8216 23.463 20.822 23.4227L20.8195 19.8062L15.2944 18.0882C12.9039 17.3442 12.8405 13.9847 15.2003 13.1502L29.4961 8.10535Z" fill="#56AFDF"/>
</svg>
