<svg width="63" height="63" viewBox="0 0 63 63" fill="none" xmlns="http://www.w3.org/2000/svg">
<path d="M31.2295 10.4102C32.6668 10.4102 33.8319 11.5753 33.8319 13.0126C33.8319 14.4499 32.6668 15.6151 31.2295 15.6151H18.2172C16.7799 15.6151 15.6147 16.7802 15.6147 18.2175V44.2421C15.6147 45.6794 16.7799 46.8446 18.2172 46.8446H31.2295C32.6668 46.8446 33.8319 48.0097 33.8319 49.447C33.8319 50.8843 32.6668 52.0495 31.2295 52.0495H18.2172C13.9053 52.0495 10.4098 48.554 10.4098 44.2421V18.2175C10.4098 13.9056 13.9053 10.4102 18.2172 10.4102H31.2295Z" fill="#56AFDF"/>
<path d="M38.6353 21.862C39.4483 20.7122 40.9872 20.4789 42.0713 21.341L50.5776 28.1064C52.5397 29.668 52.5398 32.7917 50.5776 34.3533L42.0713 41.1187C40.9874 41.9803 39.4483 41.7469 38.6353 40.5977C37.8235 39.4479 38.0449 37.8179 39.1283 36.9557L43.0524 33.8323H25.8771L25.6255 33.8196C24.3887 33.686 23.4224 32.5768 23.4221 31.2298C23.4222 29.8826 24.3886 28.7737 25.6255 28.6401L25.8771 28.6274H43.0524L39.1283 25.5039C38.0447 24.6419 37.8236 23.0118 38.6353 21.862Z" fill="#56AFDF"/>
</svg>
