<svg width="63" height="63" viewBox="0 0 63 63" fill="none" xmlns="http://www.w3.org/2000/svg">
<path fill-rule="evenodd" clip-rule="evenodd" d="M46.8442 10.4102C49.7188 10.4102 52.0491 12.7405 52.0491 15.6151V46.8446C52.0491 49.7192 49.7188 52.0495 46.8442 52.0495H15.6147C12.7401 52.0495 10.4098 49.7192 10.4098 46.8446V15.6151C10.4098 12.7405 12.7401 10.4102 15.6147 10.4102H46.8442ZM39.6188 34.9963C38.7536 33.2659 36.3701 33.0521 35.2094 34.5998L31.2295 39.9038L28.8659 36.361C27.889 34.8956 25.7704 34.8031 24.6699 36.1781L18.2172 44.2421H44.2418L39.6188 34.9963ZM39.0368 20.82C37.5995 20.82 36.4344 21.9852 36.4344 23.4225C36.4344 24.8597 37.5995 26.0249 39.0368 26.0249C40.4741 26.0249 41.6393 24.8597 41.6393 23.4225C41.6393 21.9852 40.4741 20.82 39.0368 20.82Z" fill="#56AFDF"/>
</svg>
