<svg width="706" height="428" viewBox="0 0 706 428" fill="none" xmlns="http://www.w3.org/2000/svg">
<g filter="url(#filter0_d_4723_3690)">
<path d="M675.889 723.229L655.119 735.22L655.14 735.257C652.499 730.683 648.147 727.348 643.04 725.985C637.933 724.621 632.49 725.342 627.908 727.987C623.325 730.632 619.979 734.986 618.607 740.091C617.234 745.196 617.946 750.633 620.586 755.206L610.698 760.915C608.057 756.342 603.705 753.007 598.598 751.643C593.49 750.28 588.047 751.001 583.465 753.646C578.883 756.292 575.537 760.645 574.164 765.75C572.792 770.854 573.504 776.291 576.144 780.865L566.27 786.566C563.629 781.993 559.277 778.657 554.17 777.294C549.062 775.93 543.619 776.651 539.037 779.297C534.455 781.942 531.109 786.296 529.736 791.4C528.364 796.505 529.076 801.942 531.716 806.515L521.842 812.216C519.201 807.643 514.848 804.308 509.741 802.945C504.634 801.581 499.191 802.302 494.609 804.947C490.027 807.592 486.681 811.946 485.308 817.051C483.936 822.155 484.648 827.592 487.288 832.166L477.414 837.867C474.773 833.293 470.42 829.959 465.313 828.595C460.206 827.232 454.763 827.952 450.181 830.598C445.599 833.243 442.253 837.597 440.881 842.701C439.508 847.806 440.219 853.243 442.86 857.817L433 863.509C430.359 858.936 426.007 855.6 420.9 854.237C415.793 852.874 410.349 853.594 405.767 856.24C401.185 858.885 397.84 863.239 396.467 868.344C395.094 873.448 395.806 878.885 398.447 883.459L388.572 889.16C385.933 884.588 381.582 881.254 376.477 879.891C371.372 878.529 365.931 879.249 361.351 881.893C356.771 884.537 353.426 888.89 352.054 893.992C350.682 899.094 351.394 904.529 354.033 909.101L329.602 923.206L50.2561 439.365L50.1543 439.424L8.12717 366.631L8.229 366.572L-64.8982 239.912L-40.46 225.803C-37.8206 230.374 -33.4693 233.708 -28.3642 235.07C-23.2592 236.433 -17.8183 235.713 -13.2382 233.069C-8.65809 230.425 -5.31403 226.073 -3.94175 220.97C-2.5695 215.868 -3.28142 210.433 -5.92085 205.861L3.95369 200.16C6.59418 204.734 10.9467 208.069 16.0538 209.432C21.1609 210.796 26.6051 210.076 31.1872 207.43C35.7691 204.785 39.1141 200.43 40.4869 195.326C41.8598 190.221 41.1476 184.784 38.5071 180.211L48.3817 174.51C51.0221 179.083 55.3747 182.418 60.4817 183.782C65.5889 185.145 71.033 184.425 75.6151 181.78C80.1971 179.134 83.5421 174.78 84.9149 169.675C86.2877 164.571 85.5756 159.134 82.9351 154.56L92.8096 148.859C95.4501 153.433 99.8027 156.768 104.91 158.131C110.017 159.495 115.461 158.775 120.043 156.129C124.625 153.484 127.97 149.129 129.343 144.025C130.716 138.92 130.004 133.483 127.363 128.91L137.238 123.209C139.385 126.937 142.685 129.867 146.643 131.561C150.601 133.255 155.004 133.621 159.192 132.604C161.048 132.168 162.831 131.466 164.485 130.519C166.754 129.209 168.743 127.465 170.339 125.388C171.935 123.31 173.107 120.939 173.786 118.411C174.466 115.883 174.64 113.246 174.299 110.652C173.959 108.058 173.109 105.557 171.801 103.293L181.675 97.5915C184.316 102.165 188.668 105.5 193.775 106.864C198.882 108.227 204.327 107.507 208.909 104.862C213.491 102.216 216.836 97.8617 218.208 92.7571C219.581 87.6526 218.869 82.2156 216.229 77.6421L226.103 71.941C228.744 76.5145 233.096 79.8497 238.203 81.2131C243.31 82.5765 248.755 81.8566 253.337 79.2111C257.919 76.5657 261.264 72.2112 262.636 67.1066C264.009 62.002 263.297 56.5652 260.657 51.9916L281.427 39.9998L675.889 723.229Z" fill="white"/>
<path d="M384.984 884.628C382.607 882.39 379.692 880.75 376.477 879.891C371.372 878.529 365.931 879.249 361.351 881.893C356.771 884.537 353.426 888.89 352.054 893.992C350.682 899.094 351.394 904.529 354.033 909.101L329.602 923.206L50.2561 439.365L50.1543 439.424L8.12777 366.63L8.229 366.572L-64.8982 239.912L-40.46 225.803C-37.8206 230.374 -33.4693 233.708 -28.3642 235.07C-23.2592 236.433 -17.8183 235.713 -13.2382 233.069C-8.65809 230.425 -5.31403 226.073 -3.94175 220.97C-3.08018 217.767 -3.04077 214.432 -3.78359 211.262L384.984 884.628Z" fill="#56AFDF"/>
<path d="M655.119 735.22L655.14 735.257C652.499 730.683 648.147 727.348 643.04 725.985C637.933 724.621 632.49 725.342 627.908 727.987C623.325 730.632 619.979 734.986 618.607 740.091C617.234 745.196 617.946 750.633 620.586 755.206L618.434 756.449L223.95 73.1835L226.103 71.941C228.744 76.5145 233.096 79.8497 238.203 81.2131C243.31 82.5765 248.755 81.8566 253.337 79.2111C257.919 76.5657 261.264 72.2112 262.636 67.1066C264.009 62.002 263.297 56.5652 260.657 51.9916L281.427 39.9998L675.889 723.229L655.119 735.22Z" fill="#56AFDF"/>
</g>
<path d="M239.666 219.652C233.47 223.23 225.496 221.02 221.857 214.717C218.218 208.414 220.291 200.403 226.488 196.826C232.684 193.248 240.658 195.458 244.297 201.761C247.936 208.064 245.863 216.075 239.666 219.652Z" fill="#EBF0F4"/>
<path d="M242.901 210.176C236.704 213.754 228.731 211.544 225.091 205.241C221.452 198.937 223.525 190.927 229.722 187.349C235.919 183.772 243.892 185.981 247.532 192.285C251.171 198.588 249.098 206.598 242.901 210.176Z" fill="#EBF0F4"/>
<path fill-rule="evenodd" clip-rule="evenodd" d="M240.73 173.173C242.332 173.872 243.299 175.547 243.103 177.284L239.99 204.951C239.852 206.179 239.148 207.262 238.089 207.874L226.318 214.67C224.459 215.743 222.067 215.08 220.975 213.189L205.16 185.797C204.068 183.906 204.69 181.503 206.549 180.43L226.74 168.773C227.799 168.161 229.089 168.093 230.222 168.587L240.73 173.173ZM218.836 187.535C217.745 185.644 215.353 184.981 213.494 186.054L207.355 189.599L211.42 196.64L217.559 193.096C219.418 192.022 220.04 189.619 218.948 187.728L218.836 187.535Z" fill="#56AFDF"/>
<path d="M243.887 238.98L264.512 227.072L269.183 235.163C271.897 239.863 270.566 244.202 266.492 246.554C262.361 248.939 257.962 247.832 255.215 243.075L253.077 239.372L246.354 243.253L243.887 238.98ZM256.524 237.381L258.268 240.401C259.732 242.936 261.863 243.339 263.943 242.138C265.994 240.954 266.683 238.923 265.219 236.388L263.475 233.368L256.524 237.381ZM254.163 256.778L269.632 247.847L271.984 251.921L269.306 253.467L269.404 253.638C271.642 253.105 273.461 253.954 274.465 255.692C274.711 256.119 274.967 256.693 275.095 257.113L271.335 259.284C271.219 258.82 270.872 257.956 270.527 257.358C269.425 255.449 267.28 254.826 265.4 255.912L256.597 260.994L254.163 256.778ZM263.977 274.5C261.28 269.828 262.821 265.064 267.607 262.301C272.393 259.538 277.261 260.601 279.959 265.273C282.656 269.945 281.159 274.722 276.374 277.485C271.588 280.248 266.674 279.172 263.977 274.5ZM267.27 272.637C268.52 274.802 271.184 274.746 273.89 273.183C276.625 271.604 278.006 269.326 276.756 267.16C275.49 264.967 272.809 264.995 270.074 266.574C267.368 268.137 266.003 270.444 267.27 272.637ZM285.512 275.352L287.946 279.569L271.708 288.944C268.147 291 265.399 289.661 263.311 286.043L262.846 285.172L266.15 283.264C266.282 283.492 266.335 283.651 266.451 283.851C267.24 285.218 268.163 285.369 269.331 284.695L285.512 275.352ZM288.735 276.264C287.995 274.982 288.371 273.398 289.539 272.723C290.736 272.032 292.297 272.499 293.037 273.781C293.76 275.034 293.384 276.619 292.188 277.31C291.02 277.984 289.459 277.518 288.735 276.264ZM277.933 298.673C275.203 293.944 276.602 289.262 281.502 286.433C286.288 283.67 291.201 284.745 293.816 289.275C296.168 293.349 295.446 298.019 290.176 301.062L288.979 301.753L282.877 291.184C280.541 292.533 279.894 294.768 281.144 296.933C281.967 298.357 283.186 299.021 284.372 298.905L286.692 302.922C283.497 303.968 280.137 302.49 277.933 298.673ZM285.527 289.654L289.326 296.235C291.206 295.15 291.789 293.066 290.703 291.186C289.585 289.249 287.348 288.698 285.527 289.654ZM287.403 315.075C284.672 310.346 286.304 305.606 291.033 302.875C295.762 300.145 300.67 301.147 303.384 305.848C305.687 309.836 304.913 313.891 301.48 316.102L299.193 312.142C300.584 310.997 301.062 309.392 300.141 307.796C298.973 305.774 296.491 305.422 293.557 307.116C290.566 308.843 289.613 311.14 290.797 313.191C291.652 314.672 293.205 315.257 295.006 314.56L297.292 318.519C293.673 320.343 289.771 319.177 287.403 315.075ZM313.197 323.305L310.035 325.131L308.358 322.225L300.808 326.584C299.583 327.291 299.615 328.07 300.08 328.941C300.327 329.368 300.783 330.093 301.136 330.573L297.803 332.497C297.455 332.09 296.97 331.383 296.361 330.329C294.602 327.28 294.768 324.411 297.776 322.713L305.923 318.009L304.69 315.872L307.852 314.047L309.086 316.183L312.789 314.045L315.223 318.261L311.52 320.399L313.197 323.305ZM302.852 341.111L323.477 329.203L325.944 333.476L317.398 338.41L322.563 347.355L331.109 342.421L333.592 346.723L312.967 358.63L310.484 354.329L319.03 349.395L313.866 340.449L305.319 345.384L302.852 341.111Z" fill="#56AFDF"/>
<path d="M315.931 364.355C315.158 363.016 315.615 361.309 316.942 360.581C318.236 359.796 319.915 360.27 320.688 361.609C321.412 362.862 320.999 364.582 319.689 365.338C318.378 366.095 316.654 365.609 315.931 364.355Z" fill="#EBF0F4"/>
<path d="M173.054 207.266L166.867 210.838L166.368 209.975L169.078 204.228L169.049 204.177L164.528 206.787L163.985 205.847L170.173 202.275L170.676 203.147L167.957 208.898L167.992 208.958L172.521 206.343L173.054 207.266ZM168.838 211.233C169.897 210.621 170.689 211.36 171.232 212.163C171.431 212.459 171.872 213.133 172.006 213.346L172.369 213.125C172.89 212.824 173.015 212.33 172.655 211.707C172.344 211.168 171.909 210.986 171.513 211.09L170.99 210.184C171.808 209.825 172.778 210.222 173.41 211.316C173.834 212.051 174.187 213.295 172.846 214.069L169.76 215.851L169.247 214.962L169.88 214.597L169.86 214.562C169.406 214.585 168.775 214.38 168.331 213.611C167.822 212.731 167.932 211.756 168.838 211.233ZM169.342 212.126C168.898 212.383 168.879 212.884 169.175 213.397C169.605 214.14 170.357 214.298 170.912 213.978L171.34 213.731L170.631 212.681C170.243 212.108 169.804 211.86 169.342 212.126ZM170.498 217.128L175.139 214.449L175.647 215.329L174.886 215.768L174.916 215.819C175.551 215.715 176.111 215.995 176.467 216.611C176.822 217.226 176.766 217.839 176.367 218.332L176.396 218.383C177.029 218.314 177.631 218.628 178.021 219.303C178.504 220.14 178.32 221.044 177.26 221.656L174.149 223.452L173.621 222.538L176.647 220.791C177.271 220.431 177.309 219.885 177.032 219.406C176.692 218.817 176.098 218.715 175.542 219.036L172.585 220.743L172.062 219.837L175.139 218.061C175.643 217.77 175.774 217.227 175.488 216.731C175.192 216.218 174.513 216.029 173.889 216.39L171.026 218.043L170.498 217.128ZM175.947 226.784C175.158 225.417 175.615 224.036 177.059 223.202C178.486 222.378 179.962 222.666 180.707 223.956C181.319 225.016 181.238 226.396 179.563 227.363L179.239 227.55L177.334 224.251C176.469 224.785 176.263 225.593 176.704 226.358C177.005 226.88 177.42 227.085 177.791 227.076L178.324 227.999C177.453 228.228 176.535 227.801 175.947 226.784ZM178.023 223.865L179.404 226.258C180.114 225.849 180.365 225.1 179.96 224.399C179.538 223.668 178.7 223.519 178.023 223.865Z" fill="#40424D"/>
<path d="M178.106 230.443C177.913 230.11 178.024 229.67 178.362 229.486C178.691 229.285 179.127 229.409 179.319 229.743C179.507 230.067 179.396 230.507 179.063 230.7C178.73 230.892 178.293 230.768 178.106 230.443Z" fill="#56AFDF"/>
<path d="M144.704 216.136L203.651 318.236" stroke="#56AFDF" stroke-width="1.68421"/>
<path d="M101.697 244.487L100.537 242.478L106.725 238.906L107.919 240.974C108.97 242.794 108.439 244.559 106.516 245.67C104.585 246.785 102.782 246.367 101.697 244.487ZM101.9 242.945L102.488 243.962C103.297 245.363 104.517 245.582 105.978 244.738C107.431 243.899 107.844 242.738 107.064 241.388L106.447 240.32L101.9 242.945ZM105.267 247.65C106.326 247.038 107.118 247.778 107.661 248.581C107.86 248.876 108.301 249.55 108.435 249.763L108.798 249.542C109.319 249.241 109.444 248.748 109.084 248.124C108.773 247.585 108.338 247.404 107.942 247.507L107.419 246.601C108.237 246.242 109.207 246.64 109.839 247.734C110.263 248.469 110.616 249.712 109.275 250.486L106.189 252.268L105.676 251.379L106.309 251.014L106.289 250.98C105.835 251.002 105.204 250.797 104.759 250.028C104.251 249.148 104.361 248.173 105.267 247.65ZM105.771 248.544C105.327 248.8 105.308 249.301 105.604 249.814C106.034 250.557 106.786 250.715 107.341 250.395L107.769 250.148L107.06 249.099C106.672 248.525 106.233 248.277 105.771 248.544ZM112.821 253.037L112.094 253.456L111.547 252.508L109 253.978C108.479 254.279 108.538 254.598 108.697 254.894C108.771 255.022 108.906 255.217 108.989 255.34L108.194 255.799C108.103 255.681 107.972 255.494 107.829 255.246C107.415 254.528 107.438 253.66 108.289 253.181L111.024 251.602L110.629 250.918L111.355 250.498L111.75 251.182L112.861 250.541L113.384 251.447L112.273 252.088L112.821 253.037ZM109.825 258.783C109.036 257.415 109.492 256.035 110.937 255.201C112.364 254.377 113.84 254.664 114.585 255.955C115.197 257.015 115.116 258.394 113.441 259.361L113.117 259.549L111.212 256.25C110.346 256.784 110.141 257.592 110.582 258.357C110.883 258.878 111.298 259.083 111.669 259.074L112.202 259.997C111.331 260.226 110.413 259.8 109.825 258.783ZM111.901 255.864L113.282 258.257C113.992 257.847 114.243 257.098 113.838 256.398C113.416 255.667 112.578 255.518 111.901 255.864Z" fill="#40424D"/>
<path d="M111.984 262.442C111.791 262.109 111.902 261.669 112.24 261.485C112.568 261.284 113.005 261.408 113.197 261.741C113.385 262.066 113.274 262.506 112.941 262.698C112.607 262.891 112.171 262.767 111.984 262.442Z" fill="#56AFDF"/>
<path d="M86.5502 257.778L74.1751 264.923L72.8824 262.684L83.0866 256.792L83.0472 256.724L79.5334 254.901L81.5674 253.727L85.3166 255.642L86.5502 257.778ZM91.3904 266.162L79.0154 273.306L77.7226 271.067L87.9269 265.176L87.8874 265.107L84.3737 263.285L86.4077 262.11L90.1569 264.025L91.3904 266.162ZM96.8316 274.244L79.7129 278.817L78.6077 276.903L95.7362 272.347L96.8316 274.244ZM84.7781 283.288L86.3848 282.36L93.133 284.298C95.1012 284.826 96.2112 285.051 97.2538 284.449C98.399 283.788 98.611 282.458 97.9103 281.244C97.1702 279.962 95.8932 279.605 94.6553 280.343L93.4316 278.223C95.7634 276.854 98.3011 277.737 99.732 280.215C101.193 282.745 100.675 285.322 98.5899 286.526C97.1883 287.336 95.6655 287.303 91.9738 286.198L88.5129 285.257L88.4274 285.306L91.6051 290.81L89.742 291.885L84.7781 283.288ZM106.345 292.065L93.9704 299.209L92.6776 296.97L102.882 291.079L102.842 291.01L99.3287 289.187L101.363 288.013L105.112 289.928L106.345 292.065ZM102.914 299.344C103.855 299.553 104.594 300.083 105.048 300.87C105.837 302.237 105.561 303.969 106.35 305.336C106.804 306.123 107.524 306.619 108.489 306.791L106.626 307.866C105.668 307.668 104.946 307.127 104.492 306.341C103.702 304.974 103.969 303.225 103.189 301.874C102.735 301.088 102.016 300.592 101.051 300.42L102.914 299.344ZM117.901 312.079L105.526 319.224L104.233 316.985L114.437 311.093L114.398 311.025L110.884 309.202L112.918 308.028L116.667 309.943L117.901 312.079ZM122.741 320.463L110.366 327.608L109.073 325.368L119.278 319.477L119.238 319.409L115.724 317.586L117.758 316.411L121.508 318.326L122.741 320.463ZM128.182 328.545L111.064 333.118L109.958 331.204L127.087 326.648L128.182 328.545ZM116.129 337.589L117.736 336.661L124.484 338.6C126.452 339.127 127.562 339.352 128.605 338.75C129.75 338.089 129.962 336.759 129.261 335.545C128.521 334.263 127.244 333.907 126.006 334.644L124.782 332.525C127.114 331.155 129.652 332.038 131.083 334.516C132.543 337.046 132.026 339.624 129.941 340.828C128.539 341.637 127.016 341.604 123.325 340.5L119.864 339.558L119.778 339.607L122.956 345.111L121.093 346.187L116.129 337.589ZM124.844 353.079C123.315 350.43 123.665 347.721 125.721 346.466L127.013 348.705C126.062 349.345 125.984 350.712 126.725 351.994C127.514 353.361 128.829 353.901 129.922 353.27C131.034 352.628 131.284 351.207 130.357 349.6L129.715 348.489L131.424 347.503L132.066 348.614C132.826 349.93 134.094 350.428 135.161 349.79C136.213 349.205 136.46 348.014 135.759 346.8C135.088 345.638 133.856 345.005 132.794 345.572L131.561 343.436C133.675 342.283 136.18 343.344 137.581 345.771C139.032 348.284 138.431 350.796 136.524 351.874C135.149 352.691 133.608 352.35 132.555 351.157L132.452 351.217C133.219 353.098 132.681 354.731 131.115 355.612C129.04 356.833 126.394 355.763 124.844 353.079Z" fill="#56AFDF"/>
<path d="M184.748 388.338L190.935 384.765L192.208 386.97C193.037 388.406 192.584 389.614 191.438 390.275C190.302 390.931 189.02 390.725 188.192 389.289L187.461 388.024L185.29 389.278L184.748 388.338ZM188.265 387.56L188.941 388.731C189.469 389.646 190.198 389.726 190.891 389.326C191.591 388.921 191.879 388.254 191.351 387.34L190.675 386.169L188.265 387.56ZM194.604 391.119L188.416 394.692L187.888 393.777L194.076 390.205L194.604 391.119ZM190.343 395.009C191.403 394.397 192.194 395.137 192.738 395.94C192.937 396.235 193.377 396.909 193.512 397.122L193.874 396.902C194.395 396.601 194.521 396.107 194.16 395.483C193.85 394.944 193.414 394.763 193.018 394.866L192.495 393.96C193.314 393.602 194.284 393.999 194.915 395.093C195.339 395.828 195.693 397.071 194.351 397.846L191.266 399.627L190.752 398.738L191.385 398.373L191.365 398.339C190.911 398.362 190.28 398.156 189.836 397.387C189.328 396.507 189.437 395.532 190.343 395.009ZM190.848 395.903C190.403 396.159 190.385 396.66 190.681 397.173C191.11 397.916 191.862 398.075 192.418 397.754L192.845 397.507L192.136 396.458C191.748 395.884 191.309 395.636 190.848 395.903ZM193.044 402.924C192.264 401.574 192.791 400.176 194.184 399.372C195.602 398.553 197.074 398.831 197.829 400.139C198.44 401.199 198.261 402.328 197.375 402.965L196.862 402.076C197.243 401.73 197.408 401.168 197.078 400.595C196.644 399.843 195.729 399.699 194.737 400.272C193.72 400.859 193.383 401.715 193.822 402.475C194.118 402.988 194.627 403.218 195.195 403.038L195.708 403.927C194.752 404.343 193.676 404.018 193.044 402.924ZM195.898 407.868C195.109 406.501 195.565 405.12 197.01 404.287C198.437 403.463 199.913 403.75 200.658 405.04C201.27 406.1 201.189 407.48 199.514 408.447L199.19 408.634L197.285 405.336C196.419 405.869 196.214 406.678 196.655 407.442C196.956 407.964 197.371 408.169 197.742 408.16L198.275 409.083C197.404 409.312 196.486 408.885 195.898 407.868ZM197.974 404.949L199.355 407.342C200.065 406.933 200.316 406.184 199.911 405.483C199.489 404.752 198.651 404.604 197.974 404.949Z" fill="#40424D"/>
<path d="M198.057 411.527C197.864 411.194 197.975 410.754 198.313 410.57C198.641 410.369 199.078 410.493 199.27 410.827C199.458 411.151 199.347 411.591 199.014 411.784C198.68 411.976 198.244 411.852 198.057 411.527Z" fill="#56AFDF"/>
<path d="M157.988 410.488C156.613 408.068 156.648 404.812 161.221 402.194C165.46 399.747 169.037 400.257 170.784 403.282C172.165 405.675 171.608 408.185 169.766 409.613L168.493 407.408C169.305 406.643 169.503 405.526 168.852 404.398C167.816 402.603 165.644 402.512 163.046 404.012L163.115 404.132C164.54 404.152 165.863 404.984 166.643 406.334C167.926 408.556 167.237 411.232 164.896 412.584C162.434 414.005 159.55 413.232 157.988 410.488ZM159.782 409.452C160.582 410.836 162.251 411.24 163.601 410.46C164.917 409.7 165.395 408.08 164.605 406.713C163.806 405.328 162.1 404.9 160.791 405.633C159.502 406.4 158.973 408.05 159.782 409.452ZM164.585 421.914C163.21 419.494 163.245 416.238 167.818 413.62C172.057 411.173 175.634 411.683 177.38 414.708C178.762 417.101 178.205 419.611 176.363 421.039L175.09 418.834C175.902 418.069 176.1 416.952 175.449 415.824C174.413 414.029 172.241 413.938 169.643 415.438L169.712 415.558C171.137 415.578 172.46 416.41 173.24 417.76C174.522 419.982 173.834 422.658 171.493 424.01C169.031 425.432 166.146 424.659 164.585 421.914ZM166.379 420.878C167.179 422.262 168.848 422.666 170.198 421.886C171.514 421.127 171.991 419.506 171.202 418.139C170.403 416.754 168.697 416.326 167.388 417.059C166.099 417.826 165.57 419.476 166.379 420.878ZM184.56 436.657C185.649 435.504 185.86 434.015 184.992 432.511C183.837 430.511 181.453 429.973 178.667 431.582C175.847 433.21 175.11 435.527 176.304 437.595C177.38 439.458 179.199 440.003 180.979 439.021L179.321 436.149L181.082 435.133L183.983 440.158L182.496 441.017C179.317 442.852 176.071 441.809 174.305 438.749C172.331 435.331 173.426 431.622 177.357 429.352C181.323 427.063 185.107 428.091 186.982 431.339C188.561 434.074 188.083 437.153 185.872 438.93L184.56 436.657ZM176.085 449.492C175.839 449.065 175.609 448.627 175.485 448.334L177.229 447.328C177.37 447.611 177.56 447.98 177.728 448.27C178.033 448.8 178.341 449.215 179.55 449.019L180.154 448.92L187.669 440.069L189.002 442.377L183.237 448.576L183.296 448.679L191.548 446.786L192.88 449.094L180.319 451.378C178.526 451.706 177.092 451.235 176.085 449.492ZM186.593 460.073C184.975 457.27 185.851 454.485 188.757 452.807C191.628 451.149 194.583 451.768 196.113 454.417C197.425 456.691 197.141 459.475 193.877 461.36L193.193 461.755L189.453 455.277C187.887 456.215 187.493 457.685 188.312 459.103C188.865 460.06 189.65 460.473 190.355 460.431L191.588 462.567C189.755 463.102 187.836 462.227 186.593 460.073ZM190.95 454.435L193.476 458.811C194.731 458.064 195.171 456.693 194.44 455.428C193.681 454.112 192.177 453.818 190.95 454.435ZM191.424 468.006L199.185 460.015L200.468 462.237L194.886 467.648L194.936 467.734L202.422 465.622L203.695 467.827L198.167 473.252L198.217 473.337L205.649 471.211L206.932 473.433L196.131 476.159L194.819 473.886L200.102 468.511L200.033 468.391L192.736 470.28L191.424 468.006ZM200.655 484.429C199.096 481.729 200.004 478.88 202.875 477.222C205.764 475.554 208.685 476.193 210.244 478.893C211.813 481.611 210.895 484.442 208.007 486.11C205.135 487.768 202.224 487.147 200.655 484.429ZM202.408 483.44C203.267 484.927 205.042 484.882 206.751 483.895C208.443 482.918 209.386 481.394 208.528 479.907C207.649 478.386 205.857 478.44 204.165 479.417C202.456 480.404 201.53 481.919 202.408 483.44ZM211.287 489.857L205.851 492.995L204.588 490.807L213.869 485.449L215.073 487.534L213.501 488.442L213.57 488.561C214.859 488.387 216.051 488.952 216.851 490.336C217.966 492.268 217.431 494.263 215.199 495.529L209.285 498.943L208.032 496.772L213.604 493.555C214.852 492.835 215.202 491.744 214.541 490.599C213.87 489.436 212.637 489.077 211.287 489.857ZM212.514 504.93C211.251 502.742 212.047 500.095 215.106 498.328C218.2 496.542 220.852 497.267 222.096 499.421C223.043 501.062 222.463 502.308 221.984 503.017L222.034 503.103L226.649 500.438L227.902 502.609L215.527 509.754L214.293 507.617L215.763 506.769L215.694 506.649C214.813 506.702 213.441 506.537 212.514 504.93ZM214.654 504.492C215.463 505.894 217.141 505.996 218.952 504.95C220.747 503.914 221.473 502.447 220.653 501.028C219.815 499.575 218.133 499.544 216.406 500.54C214.646 501.557 213.825 503.056 214.654 504.492ZM219.192 516.537C217.574 513.734 218.45 510.949 221.356 509.271C224.227 507.613 227.183 508.232 228.712 510.881C230.025 513.154 229.741 515.939 226.476 517.824L225.792 518.219L222.052 511.74C220.486 512.679 220.092 514.148 220.911 515.567C221.464 516.524 222.249 516.937 222.954 516.895L224.188 519.031C222.354 519.566 220.436 518.69 219.192 516.537ZM223.549 510.899L226.076 515.275C227.331 514.527 227.77 513.157 227.04 511.892C226.28 510.576 224.777 510.282 223.549 510.899ZM225.306 520.653C227.391 519.449 229.003 520.82 230.103 522.487C230.516 523.103 231.362 524.392 231.611 524.784L232.346 524.359C233.269 523.827 233.454 522.922 232.832 521.846C232.269 520.871 231.48 520.53 230.714 520.744L229.501 518.641C231.162 517.887 233.177 518.615 234.52 520.94C235.536 522.7 235.992 525.149 233.514 526.58L227.309 530.162L226.105 528.076L227.387 527.336L227.348 527.268C226.325 527.312 225.138 526.835 224.299 525.382C223.273 523.604 223.477 521.708 225.306 520.653ZM226.537 522.745C225.734 523.209 225.698 524.095 226.231 525.018C226.991 526.334 228.356 526.686 229.399 526.084L230.168 525.64L228.847 523.668C228.16 522.674 227.357 522.271 226.537 522.745ZM235.394 531.613L229.959 534.751L228.696 532.563L241.071 525.418L242.304 527.555L237.638 530.249L237.707 530.369C238.996 530.194 240.159 530.708 240.988 532.143C242.103 534.075 241.586 536.06 239.347 537.353L233.433 540.767L232.179 538.597L237.751 535.38C239.016 534.649 239.339 533.551 238.678 532.406C237.997 531.226 236.745 530.833 235.394 531.613ZM237.197 541.248C239.282 540.045 240.895 541.416 241.994 543.083C242.407 543.699 243.253 544.988 243.502 545.38L244.237 544.955C245.16 544.422 245.345 543.518 244.723 542.441C244.16 541.467 243.371 541.126 242.605 541.339L241.392 539.237C243.053 538.483 245.068 539.211 246.411 541.535C247.427 543.296 247.883 545.745 245.405 547.175L239.2 550.758L237.996 548.672L239.278 547.932L239.239 547.864C238.216 547.908 237.029 547.431 236.19 545.978C235.164 544.2 235.368 542.304 237.197 541.248ZM238.428 543.341C237.625 543.805 237.59 544.691 238.122 545.614C238.882 546.93 240.247 547.282 241.29 546.68L242.059 546.236L240.738 544.263C240.051 543.27 239.249 542.867 238.428 543.341ZM240.587 553.159L252.962 546.014L254.225 548.202L247.405 552.139L247.494 552.293L253.144 553.475L254.615 556.022L248.543 554.742L245.462 561.603L243.962 559.005L246.296 553.851L244.978 553.541L241.85 555.347L240.587 553.159ZM246.928 564.459C246.504 563.724 246.757 562.78 247.492 562.356C248.21 561.941 249.153 562.194 249.578 562.929C249.982 563.63 249.739 564.591 249.022 565.005C248.287 565.429 247.333 565.16 246.928 564.459ZM249.241 568.148L258.522 562.79L259.746 564.909L258.208 565.797L258.267 565.9C259.514 565.613 260.652 566.164 261.264 567.223C261.402 567.463 261.583 567.814 261.667 568.039L259.65 569.204C259.61 568.976 259.412 568.475 259.204 568.116C258.504 566.903 257.153 566.497 255.974 567.178L250.504 570.336L249.241 568.148ZM255.225 578.948C253.666 576.247 254.574 573.399 257.446 571.741C260.334 570.073 263.255 570.711 264.814 573.412C266.383 576.13 265.466 578.961 262.577 580.629C259.706 582.287 256.795 581.666 255.225 578.948ZM256.979 577.959C257.837 579.446 259.612 579.401 261.321 578.414C263.013 577.437 263.956 575.913 263.098 574.426C262.22 572.904 260.428 572.959 258.736 573.936C257.026 574.923 256.1 576.437 256.979 577.959Z" fill="#56AFDF"/>
<defs>
<filter id="filter0_d_4723_3690" x="-114.898" y="0" width="820.787" height="963.206" filterUnits="userSpaceOnUse" color-interpolation-filters="sRGB">
<feFlood flood-opacity="0" result="BackgroundImageFix"/>
<feColorMatrix in="SourceAlpha" type="matrix" values="0 0 0 0 0 0 0 0 0 0 0 0 0 0 0 0 0 0 127 0" result="hardAlpha"/>
<feOffset dx="-10"/>
<feGaussianBlur stdDeviation="20"/>
<feComposite in2="hardAlpha" operator="out"/>
<feColorMatrix type="matrix" values="0 0 0 0 0.0392157 0 0 0 0 0.0588235 0 0 0 0 0.0823529 0 0 0 0.1 0"/>
<feBlend mode="normal" in2="BackgroundImageFix" result="effect1_dropShadow_4723_3690"/>
<feBlend mode="normal" in="SourceGraphic" in2="effect1_dropShadow_4723_3690" result="shape"/>
</filter>
</defs>
</svg>
