<svg width="715" height="640" viewBox="0 0 715 640" fill="none" xmlns="http://www.w3.org/2000/svg">
<g filter="url(#filter0_d_4723_3750)">
<path d="M883.258 410.479L871.266 431.25L871.302 431.27C866.729 428.63 861.292 427.918 856.187 429.291C851.083 430.664 846.729 434.009 844.084 438.591C841.438 443.173 840.718 448.617 842.081 453.724C843.444 458.831 846.78 463.183 851.353 465.824L845.644 475.713C841.07 473.072 835.633 472.36 830.529 473.733C825.424 475.106 821.07 478.452 818.424 483.034C815.779 487.616 815.059 493.059 816.422 498.166C817.786 503.273 821.121 507.626 825.694 510.266L819.993 520.141C815.42 517.5 809.983 516.788 804.878 518.161C799.774 519.534 795.419 522.88 792.774 527.462C790.129 532.044 789.408 537.487 790.772 542.594C792.135 547.701 795.47 552.053 800.044 554.694L794.343 564.569C789.769 561.928 784.332 561.217 779.227 562.589C774.123 563.962 769.769 567.308 767.124 571.89C764.478 576.472 763.758 581.915 765.121 587.022C766.485 592.129 769.82 596.481 774.393 599.122L768.692 608.997C764.119 606.356 758.681 605.645 753.577 607.017C748.472 608.39 744.118 611.736 741.473 616.318C738.828 620.9 738.107 626.343 739.471 631.45C740.834 636.557 744.169 640.91 748.742 643.551L743.05 653.41C738.476 650.77 733.039 650.058 727.935 651.43C722.83 652.803 718.476 656.149 715.831 660.731C713.185 665.313 712.465 670.757 713.828 675.864C715.192 680.971 718.527 685.323 723.101 687.964L717.399 697.838C712.828 695.199 707.393 694.487 702.291 695.859C697.188 697.231 692.836 700.576 690.192 705.156C687.548 709.736 686.827 715.177 688.19 720.282C689.553 725.387 692.887 729.738 697.458 732.377L683.353 756.808L199.512 477.463L199.453 477.564L126.66 435.537L126.719 435.436L0.0587921 362.308L14.1682 337.87C18.7398 340.51 24.1749 341.221 29.2774 339.849C34.3799 338.476 38.7318 335.132 41.3762 330.552C44.0205 325.972 44.7405 320.531 43.3777 315.426C42.0149 310.321 38.681 305.97 34.1094 303.331L39.8104 293.456C44.3839 296.097 49.8209 296.809 54.9255 295.436C60.0301 294.063 64.3849 290.718 67.0304 286.136C69.6757 281.554 70.3953 276.11 69.032 271.003C67.6686 265.896 64.3334 261.544 59.7599 258.903L65.4609 249.028C70.0344 251.669 75.4714 252.381 80.576 251.008C85.6806 249.635 90.0354 246.29 92.6809 241.708C95.3262 237.126 96.0458 231.682 94.6825 226.575C93.3191 221.468 89.9839 217.116 85.4104 214.475L91.1114 204.601C95.6849 207.241 101.122 207.953 106.226 206.58C111.331 205.208 115.686 201.862 118.331 197.28C120.977 192.698 121.696 187.254 120.333 182.147C118.97 177.04 115.634 172.688 111.061 170.047L116.762 160.173C120.486 162.327 124.809 163.215 129.083 162.703C133.358 162.191 137.354 160.306 140.473 157.332C141.862 156.027 143.055 154.527 144.014 152.88C145.324 150.611 146.175 148.106 146.518 145.509C146.862 142.912 146.691 140.273 146.015 137.743C145.339 135.214 144.172 132.843 142.58 130.767C140.988 128.691 139.002 126.95 136.736 125.643L142.437 115.769C147.011 118.409 152.448 119.121 157.552 117.748C162.657 116.376 167.012 113.03 169.657 108.448C172.303 103.866 173.022 98.4223 171.659 93.3152C170.296 88.2081 166.96 83.8557 162.387 81.2151L168.088 71.3406C172.661 73.9811 178.098 74.6931 183.203 73.3204C188.308 71.9476 192.662 68.602 195.308 64.02C197.953 59.4379 198.673 53.9944 197.309 48.8873C195.946 43.7801 192.611 39.4277 188.037 36.7872L200.029 16.0168L883.258 410.479Z" fill="white"/>
<path d="M712.027 695.708C708.849 694.958 705.504 694.995 702.291 695.859C697.188 697.231 692.836 700.576 690.192 705.156C687.548 709.736 686.827 715.177 688.19 720.282C689.553 725.387 692.887 729.738 697.458 732.377L683.353 756.808L199.512 477.463L199.453 477.564L126.66 435.536L126.719 435.436L0.0587921 362.308L14.1682 337.87C18.7398 340.51 24.1749 341.221 29.2774 339.849C34.3799 338.476 38.7318 335.132 41.3762 330.552C44.0205 325.972 44.7405 320.531 43.3777 315.426C42.5221 312.221 40.889 309.313 38.6608 306.94L712.027 695.708Z" fill="#56AFDF"/>
<path d="M871.266 431.25L871.302 431.27C866.729 428.63 861.292 427.918 856.187 429.291C851.083 430.664 846.729 434.009 844.084 438.591C841.438 443.173 840.718 448.617 842.081 453.724C843.444 458.831 846.78 463.183 851.353 465.824L850.11 467.977L166.845 73.4931L168.088 71.3406C172.661 73.9811 178.098 74.6931 183.203 73.3204C188.308 71.9476 192.662 68.602 195.308 64.02C197.953 59.4379 198.673 53.9944 197.309 48.8873C195.946 43.7801 192.611 39.4277 188.037 36.7872L200.029 16.0168L883.258 410.479L871.266 431.25Z" fill="#56AFDF"/>
</g>
<path d="M253.69 192.48C250.112 198.677 242.102 200.75 235.798 197.111C229.495 193.471 227.285 185.498 230.863 179.301C234.441 173.104 242.451 171.031 248.754 174.67C255.058 178.31 257.267 186.283 253.69 192.48Z" fill="#EBF0F4"/>
<path d="M251.753 182.656C248.175 188.853 240.165 190.926 233.861 187.287C227.558 183.647 225.348 175.674 228.926 169.477C232.504 163.28 240.514 161.207 246.817 164.846C253.121 168.486 255.33 176.459 251.753 182.656Z" fill="#EBF0F4"/>
<path fill-rule="evenodd" clip-rule="evenodd" d="M231.371 151.696C233.107 151.5 234.782 152.468 235.482 154.069L246.619 179.586C247.114 180.719 247.045 182.009 246.434 183.068L239.638 194.839C238.565 196.698 236.161 197.32 234.27 196.229L206.878 180.414C204.987 179.322 204.325 176.93 205.398 175.071L217.055 154.88C217.666 153.821 218.749 153.117 219.978 152.979L231.371 151.696ZM219.592 175.08C217.701 173.989 215.297 174.611 214.224 176.47L210.68 182.608L217.721 186.674L221.265 180.535C222.339 178.676 221.676 176.284 219.785 175.192L219.592 175.08Z" fill="#56AFDF"/>
<path d="M267.009 207.108L278.917 186.483L287.007 191.154C291.708 193.868 292.724 198.291 290.372 202.365C287.987 206.496 283.624 207.737 278.867 204.99L275.163 202.852L271.282 209.575L267.009 207.108ZM277.154 199.405L280.173 201.149C282.709 202.612 284.756 201.895 285.957 199.816C287.141 197.765 286.722 195.661 284.186 194.198L281.167 192.454L277.154 199.405ZM284.807 217.384L293.738 201.915L297.811 204.267L296.265 206.945L296.436 207.044C298.108 205.464 300.108 205.289 301.846 206.292C302.273 206.539 302.781 206.909 303.102 207.208L300.931 210.968C300.598 210.624 299.866 210.05 299.268 209.704C297.36 208.602 295.191 209.135 294.105 211.015L289.023 219.818L284.807 217.384ZM302.167 227.825C297.495 225.127 296.448 220.231 299.211 215.445C301.975 210.659 306.722 209.146 311.394 211.843C316.066 214.541 317.158 219.425 314.395 224.211C311.632 228.997 306.839 230.522 302.167 227.825ZM304.087 224.565C306.252 225.815 308.531 224.434 310.094 221.728C311.673 218.993 311.729 216.329 309.564 215.079C307.371 213.812 305.063 215.177 303.484 217.912C301.922 220.618 301.894 223.299 304.087 224.565ZM321.243 217.795L325.459 220.23L316.084 236.468C314.028 240.028 310.979 240.243 307.362 238.155L306.523 237.633L308.431 234.328C308.659 234.46 308.785 234.57 308.985 234.686C310.352 235.475 311.227 235.144 311.901 233.976L321.243 217.795ZM324.49 216.973C323.208 216.233 322.742 214.673 323.416 213.505C324.107 212.308 325.692 211.932 326.974 212.672C328.227 213.395 328.694 214.956 328.003 216.153C327.329 217.321 325.744 217.697 324.49 216.973ZM326.34 241.781C321.611 239.051 320.481 234.296 323.31 229.396C326.073 224.61 330.866 223.085 335.396 225.701C339.47 228.052 341.18 232.458 338.137 237.729L337.446 238.925L326.877 232.823C325.529 235.159 326.086 237.418 328.251 238.668C329.675 239.49 331.063 239.456 332.033 238.762L336.049 241.081C333.806 243.585 330.157 243.985 326.34 241.781ZM328.407 230.174L334.988 233.973C336.073 232.093 335.536 229.998 333.656 228.912C331.718 227.794 329.506 228.434 328.407 230.174ZM342.742 251.251C338.013 248.52 337.056 243.599 339.786 238.87C342.516 234.142 347.268 232.555 351.969 235.269C355.957 237.572 357.315 241.47 355.446 245.101L351.486 242.815C352.118 241.129 351.73 239.499 350.134 238.578C348.112 237.41 345.786 238.346 344.092 241.281C342.365 244.272 342.688 246.738 344.74 247.922C346.221 248.777 347.858 248.507 349.069 247.003L353.028 249.289C350.806 252.678 346.844 253.619 342.742 251.251ZM369.196 245.481L367.37 248.643L364.464 246.965L360.106 254.515C359.399 255.74 359.816 256.398 360.654 256.92C361.081 257.167 361.839 257.566 362.384 257.805L360.46 261.138C359.955 260.961 359.181 260.59 358.127 259.981C355.079 258.221 353.789 255.653 355.544 252.679L360.248 244.531L358.112 243.298L359.937 240.135L362.074 241.369L364.212 237.666L368.428 240.1L366.29 243.803L369.196 245.481ZM369.139 266.073L381.047 245.448L385.32 247.915L380.386 256.462L389.331 261.626L394.266 253.08L398.567 255.563L386.659 276.188L382.358 273.705L387.292 265.159L378.347 259.994L373.413 268.54L369.139 266.073Z" fill="#56AFDF"/>
<path d="M392.088 279.665C390.749 278.892 390.292 277.184 391.077 275.89C391.805 274.563 393.496 274.134 394.835 274.907C396.088 275.631 396.591 277.326 395.834 278.637C395.077 279.947 393.341 280.388 392.088 279.665Z" fill="#EBF0F4"/>
<path d="M189.809 215.061L186.236 221.248L185.373 220.75L184.847 214.418L184.796 214.389L182.185 218.91L181.245 218.367L184.818 212.179L185.689 212.683L186.211 219.023L186.27 219.058L188.886 214.528L189.809 215.061ZM188.141 220.604C188.752 219.545 189.808 219.789 190.68 220.213C191 220.369 191.718 220.733 191.941 220.85L192.145 220.478C192.446 219.956 192.307 219.466 191.683 219.106C191.145 218.795 190.677 218.855 190.386 219.143L189.48 218.62C190.009 217.9 191.048 217.759 192.142 218.391C192.877 218.815 193.804 219.715 193.03 221.057L191.248 224.142L190.36 223.629L190.725 222.997L190.691 222.977C190.309 223.224 189.659 223.362 188.89 222.917C188.01 222.409 187.617 221.51 188.141 220.604ZM189.024 221.126C188.768 221.57 189.002 222.013 189.515 222.309C190.258 222.739 190.989 222.5 191.31 221.944L191.556 221.517L190.418 220.962C189.795 220.659 189.291 220.665 189.024 221.126ZM192.526 224.88L195.205 220.239L196.086 220.747L195.646 221.508L195.698 221.538C196.195 221.13 196.821 221.092 197.436 221.447C198.052 221.803 198.31 222.362 198.21 222.988L198.262 223.018C198.775 222.642 199.453 222.612 200.128 223.002C200.966 223.485 201.258 224.36 200.646 225.42L198.85 228.531L197.936 228.003L199.683 224.978C200.043 224.354 199.803 223.862 199.324 223.586C198.734 223.245 198.169 223.454 197.848 224.01L196.141 226.967L195.235 226.444L197.011 223.367C197.303 222.863 197.145 222.327 196.649 222.041C196.136 221.745 195.454 221.921 195.093 222.545L193.44 225.408L192.526 224.88ZM202.073 230.517C200.706 229.728 200.411 228.304 201.245 226.86C202.069 225.433 203.491 224.943 204.782 225.688C205.841 226.3 206.461 227.535 205.494 229.211L205.307 229.535L202.008 227.631C201.525 228.526 201.751 229.329 202.516 229.77C203.037 230.071 203.499 230.041 203.816 229.848L204.739 230.381C204.099 231.015 203.09 231.104 202.073 230.517ZM202.411 226.952L204.804 228.334C205.214 227.624 205.057 226.85 204.356 226.445C203.625 226.023 202.825 226.314 202.411 226.952Z" fill="#40424D"/>
<path d="M205.772 232.607C205.439 232.415 205.315 231.978 205.516 231.65C205.699 231.312 206.139 231.201 206.473 231.394C206.797 231.581 206.922 232.017 206.729 232.351C206.537 232.684 206.097 232.795 205.772 232.607Z" fill="#56AFDF"/>
<path d="M169.692 236.918L271.792 295.865" stroke="#56AFDF" stroke-width="1.68421"/>
<path d="M146.622 282.974L144.613 281.814L148.186 275.627L150.254 276.821C152.074 277.872 152.497 279.665 151.387 281.588C150.272 283.52 148.502 284.059 146.622 282.974ZM146.027 281.536L147.044 282.124C148.446 282.933 149.612 282.512 150.455 281.051C151.294 279.598 151.071 278.386 149.72 277.607L148.652 276.99L146.027 281.536ZM151.295 283.928C151.907 282.869 152.962 283.113 153.834 283.537C154.154 283.693 154.873 284.057 155.096 284.174L155.299 283.802C155.6 283.28 155.462 282.79 154.838 282.43C154.3 282.119 153.832 282.179 153.54 282.467L152.634 281.944C153.164 281.224 154.203 281.083 155.296 281.715C156.031 282.139 156.959 283.039 156.184 284.381L154.403 287.466L153.514 286.953L153.879 286.321L153.845 286.301C153.463 286.548 152.814 286.685 152.045 286.241C151.165 285.733 150.772 284.834 151.295 283.928ZM152.179 284.45C151.922 284.894 152.157 285.337 152.669 285.633C153.413 286.063 154.143 285.824 154.464 285.268L154.711 284.841L153.573 284.286C152.95 283.983 152.445 283.988 152.179 284.45ZM160.531 284.816L160.111 285.543L159.162 284.995L157.692 287.542C157.391 288.063 157.602 288.31 157.887 288.486C158.016 288.56 158.231 288.662 158.364 288.727L157.905 289.522C157.767 289.465 157.56 289.369 157.312 289.226C156.595 288.811 156.181 288.048 156.678 287.207L158.257 284.472L157.573 284.077L157.992 283.351L158.676 283.746L159.317 282.635L160.223 283.158L159.582 284.269L160.531 284.816ZM160.809 291.29C159.442 290.501 159.147 289.077 159.981 287.633C160.805 286.206 162.227 285.716 163.518 286.461C164.577 287.073 165.197 288.308 164.23 289.983L164.043 290.308L160.744 288.404C160.261 289.299 160.487 290.101 161.252 290.543C161.773 290.844 162.235 290.814 162.552 290.621L163.475 291.154C162.835 291.788 161.826 291.877 160.809 291.29ZM161.147 287.725L163.54 289.106C163.95 288.397 163.793 287.623 163.092 287.218C162.361 286.796 161.561 287.087 161.147 287.725Z" fill="#40424D"/>
<path d="M164.508 293.38C164.175 293.188 164.051 292.751 164.252 292.423C164.436 292.085 164.875 291.974 165.209 292.167C165.534 292.354 165.658 292.79 165.465 293.124C165.273 293.457 164.833 293.568 164.508 293.38Z" fill="#56AFDF"/>
<path d="M140.15 302.057L133.005 314.432L130.766 313.14L136.658 302.935L136.589 302.896L132.635 303.074L133.809 301.04L138.014 300.824L140.15 302.057ZM148.534 306.898L141.389 319.273L139.15 317.98L145.041 307.776L144.973 307.736L141.018 307.914L142.193 305.88L146.397 305.664L148.534 306.898ZM157.287 311.176L144.748 323.696L142.834 322.591L155.39 310.081L157.287 311.176ZM151.37 325.035L152.298 323.429L159.111 321.733C161.079 321.206 162.153 320.846 162.755 319.803C163.416 318.658 162.935 317.4 161.721 316.699C160.439 315.959 159.155 316.289 158.452 317.546L156.332 316.323C157.667 313.971 160.306 313.466 162.784 314.897C165.314 316.358 166.155 318.849 164.951 320.934C164.142 322.336 162.807 323.069 159.057 323.958L155.589 324.873L155.54 324.958L161.044 328.136L159.968 329.999L151.37 325.035ZM174.437 321.853L167.292 334.228L165.053 332.935L170.944 322.731L170.876 322.691L166.921 322.869L168.096 320.835L172.3 320.619L174.437 321.853ZM175.104 329.873C176.024 329.583 176.929 329.673 177.715 330.127C179.083 330.916 179.709 332.554 181.077 333.344C181.863 333.798 182.734 333.868 183.656 333.534L182.581 335.397C181.651 335.704 180.756 335.597 179.97 335.143C178.602 334.354 177.958 332.706 176.608 331.926C175.822 331.472 174.951 331.402 174.029 331.736L175.104 329.873ZM194.451 333.408L187.307 345.783L185.067 344.49L190.959 334.286L190.89 334.247L186.936 334.425L188.11 332.391L192.315 332.175L194.451 333.408ZM202.835 338.248L195.69 350.623L193.451 349.331L199.342 339.126L199.274 339.087L195.32 339.265L196.494 337.231L200.698 337.015L202.835 338.248ZM211.588 342.527L199.05 355.047L197.135 353.942L209.691 341.432L211.588 342.527ZM205.672 356.386L206.599 354.779L213.412 353.084C215.381 352.557 216.454 352.197 217.056 351.154C217.718 350.009 217.236 348.751 216.022 348.05C214.74 347.31 213.456 347.64 212.753 348.897L210.633 347.673C211.968 345.322 214.607 344.817 217.086 346.248C219.615 347.709 220.456 350.2 219.252 352.285C218.443 353.686 217.108 354.42 213.358 355.309L209.89 356.224L209.841 356.309L215.345 359.487L214.269 361.35L205.672 356.386ZM220.964 365.443C218.315 363.914 217.264 361.392 218.416 359.278L220.656 360.57C220.152 361.601 220.768 362.823 222.05 363.563C223.417 364.353 224.826 364.163 225.457 363.069C226.099 361.958 225.605 360.602 223.999 359.675L222.888 359.033L223.875 357.324L224.986 357.965C226.302 358.725 227.649 358.523 228.254 357.436C228.873 356.404 228.491 355.249 227.278 354.548C226.115 353.877 224.732 353.944 224.096 354.967L221.959 353.734C223.214 351.678 225.914 351.345 228.341 352.746C230.853 354.197 231.589 356.673 230.476 358.56C229.694 359.954 228.189 360.43 226.681 359.924L226.622 360.026C228.227 361.272 228.577 362.956 227.662 364.501C226.475 366.596 223.648 366.993 220.964 365.443Z" fill="#56AFDF"/>
<path d="M290.47 366.025L294.043 359.837L296.248 361.111C297.683 361.939 297.894 363.212 297.233 364.357C296.577 365.494 295.364 365.956 293.929 365.127L292.664 364.397L291.41 366.568L290.47 366.025ZM293.128 363.594L294.298 364.27C295.213 364.798 295.885 364.502 296.285 363.81C296.689 363.109 296.604 362.388 295.69 361.86L294.519 361.184L293.128 363.594ZM300.397 363.506L296.824 369.694L295.91 369.166L299.482 362.978L300.397 363.506ZM298.652 369.005C299.263 367.945 300.319 368.19 301.191 368.614C301.511 368.77 302.23 369.134 302.452 369.251L302.656 368.878C302.957 368.357 302.818 367.867 302.195 367.507C301.656 367.196 301.188 367.256 300.897 367.544L299.991 367.021C300.521 366.301 301.559 366.16 302.653 366.791C303.388 367.216 304.316 368.116 303.541 369.458L301.76 372.543L300.871 372.03L301.236 371.397L301.202 371.378C300.82 371.624 300.171 371.762 299.401 371.318C298.521 370.81 298.129 369.911 298.652 369.005ZM299.536 369.527C299.279 369.971 299.513 370.414 300.026 370.71C300.77 371.139 301.5 370.9 301.821 370.345L302.068 369.917L300.929 369.363C300.306 369.06 299.802 369.065 299.536 369.527ZM304.949 374.509C303.598 373.73 303.355 372.256 304.159 370.863C304.978 369.444 306.392 368.95 307.7 369.705C308.759 370.317 309.168 371.385 308.719 372.379L307.831 371.866C307.988 371.376 307.85 370.806 307.277 370.475C306.525 370.041 305.661 370.374 305.089 371.365C304.501 372.382 304.637 373.292 305.398 373.732C305.91 374.028 306.466 373.973 306.868 373.533L307.757 374.046C307.137 374.884 306.042 375.141 304.949 374.509ZM309.892 377.364C308.525 376.574 308.23 375.151 309.064 373.706C309.888 372.279 311.31 371.79 312.601 372.535C313.66 373.147 314.28 374.382 313.313 376.057L313.126 376.382L309.827 374.477C309.344 375.372 309.57 376.175 310.335 376.617C310.856 376.918 311.318 376.888 311.635 376.695L312.558 377.227C311.918 377.861 310.909 377.951 309.892 377.364ZM310.23 373.798L312.623 375.18C313.033 374.471 312.876 373.696 312.175 373.292C311.444 372.87 310.644 373.16 310.23 373.798Z" fill="#40424D"/>
<path d="M313.591 379.454C313.258 379.261 313.134 378.825 313.335 378.496C313.519 378.158 313.958 378.048 314.292 378.24C314.617 378.428 314.741 378.864 314.548 379.197C314.356 379.53 313.916 379.641 313.591 379.454Z" fill="#56AFDF"/>
<path d="M278.37 398.587C275.97 397.179 274.372 394.342 277.024 389.788C279.471 385.549 282.824 384.203 285.849 385.949C288.242 387.331 289.015 389.782 288.134 391.94L285.929 390.667C286.249 389.599 285.862 388.532 284.734 387.881C282.939 386.845 281.013 387.852 279.513 390.45L279.633 390.519C280.877 389.824 282.439 389.883 283.789 390.662C286.011 391.945 286.753 394.607 285.401 396.949C283.98 399.41 281.095 400.183 278.37 398.587ZM279.407 396.792C280.791 397.592 282.438 397.107 283.218 395.757C283.978 394.441 283.581 392.799 282.214 392.009C280.829 391.21 279.138 391.692 278.371 392.981C277.638 394.29 278.005 395.983 279.407 396.792ZM289.797 405.184C287.396 403.776 285.798 400.938 288.45 396.385C290.897 392.146 294.25 390.799 297.275 392.546C299.668 393.928 300.441 396.379 299.56 398.537L297.355 397.264C297.675 396.196 297.288 395.129 296.16 394.478C294.366 393.441 292.439 394.449 290.939 397.047L291.059 397.116C292.303 396.421 293.865 396.48 295.215 397.259C297.437 398.542 298.179 401.204 296.827 403.546C295.406 406.007 292.522 406.78 289.797 405.184ZM290.833 403.389C292.217 404.189 293.865 403.704 294.644 402.354C295.404 401.038 295.007 399.396 293.64 398.606C292.255 397.807 290.564 398.289 289.797 399.578C289.064 400.887 289.431 402.58 290.833 403.389ZM314.467 407.964C314.834 406.421 314.272 405.026 312.768 404.157C310.768 403.003 308.435 403.729 306.826 406.515C305.198 409.336 305.718 411.71 307.787 412.904C309.65 413.98 311.498 413.543 312.548 411.802L309.677 410.144L310.693 408.383L315.718 411.285L314.86 412.772C313.024 415.951 309.692 416.671 306.632 414.904C303.214 412.93 302.307 409.171 304.577 405.24C306.867 401.274 310.658 400.273 313.906 402.148C316.641 403.727 317.766 406.633 316.741 409.277L314.467 407.964ZM313.546 423.317C313.118 423.07 312.701 422.806 312.447 422.614L313.454 420.871C313.717 421.046 314.066 421.27 314.357 421.438C314.887 421.744 315.361 421.949 316.309 421.175L316.783 420.788L318.866 409.364L321.174 410.697L319.281 418.948L319.384 419.007L325.584 413.243L327.891 414.575L318.155 422.833C316.767 424.014 315.289 424.323 313.546 423.317ZM327.936 427.227C325.133 425.608 324.499 422.758 326.177 419.853C327.835 416.981 330.703 416.039 333.353 417.569C335.626 418.881 336.772 421.435 334.888 424.699L334.493 425.383L328.015 421.643C327.128 423.239 327.521 424.708 328.94 425.527C329.897 426.08 330.783 426.045 331.373 425.656L333.509 426.889C332.189 428.269 330.09 428.47 327.936 427.227ZM328.89 420.166L333.266 422.692C333.979 421.417 333.675 420.011 332.41 419.281C331.094 418.521 329.645 419.017 328.89 420.166ZM336.086 431.682L338.813 420.881L341.035 422.163L338.906 429.64L338.991 429.69L344.419 424.117L346.624 425.39L344.549 432.853L344.634 432.902L350.008 427.344L352.23 428.627L344.239 436.389L341.966 435.076L343.854 427.78L343.735 427.711L338.36 432.994L336.086 431.682ZM352.292 441.289C349.592 439.73 348.953 436.809 350.611 433.937C352.279 431.048 355.128 430.141 357.828 431.7C360.546 433.269 361.167 436.18 359.5 439.069C357.842 441.94 355.01 442.858 352.292 441.289ZM353.316 439.555C354.803 440.414 356.318 439.488 357.304 437.779C358.281 436.086 358.336 434.295 356.849 433.436C355.328 432.558 353.803 433.501 352.826 435.193C351.839 436.902 351.795 438.677 353.316 439.555ZM364.213 440.673L361.075 446.109L358.887 444.846L364.246 435.564L366.331 436.768L365.423 438.341L365.543 438.41C366.572 437.614 367.887 437.507 369.272 438.307C371.203 439.422 371.738 441.417 370.438 443.629L367.023 449.543L364.852 448.29L368.07 442.718C368.79 441.47 368.548 440.35 367.402 439.689C366.24 439.018 364.993 439.323 364.213 440.673ZM372.813 453.113C370.625 451.85 369.99 449.159 371.757 446.1C373.543 443.006 376.202 442.308 378.356 443.551C379.997 444.499 380.118 445.868 380.058 446.722L380.143 446.771L382.808 442.156L384.979 443.41L377.834 455.785L375.697 454.551L376.546 453.081L376.426 453.012C375.69 453.498 374.419 454.041 372.813 453.113ZM374.447 451.664C375.849 452.473 377.353 451.724 378.399 449.912C379.435 448.117 379.33 446.484 377.911 445.665C376.458 444.826 374.986 445.639 373.989 447.366C372.972 449.126 373.011 450.835 374.447 451.664ZM384.4 459.826C381.597 458.208 380.963 455.358 382.641 452.452C384.298 449.58 387.167 448.638 389.816 450.168C392.09 451.48 393.236 454.034 391.351 457.299L390.957 457.982L384.478 454.242C383.591 455.838 383.985 457.308 385.404 458.127C386.361 458.679 387.247 458.644 387.836 458.255L389.973 459.489C388.652 460.868 386.553 461.069 384.4 459.826ZM385.354 452.765L389.73 455.291C390.443 454.017 390.138 452.61 388.873 451.88C387.557 451.12 386.108 451.617 385.354 452.765ZM391.752 460.333C392.956 458.248 395.038 458.63 396.824 459.524C397.489 459.851 398.867 460.544 399.278 460.759L399.703 460.024C400.236 459.101 399.943 458.225 398.866 457.604C397.892 457.041 397.037 457.14 396.482 457.708L394.379 456.494C395.441 455.011 397.55 454.633 399.875 455.975C401.635 456.992 403.255 458.884 401.824 461.362L398.242 467.567L396.157 466.363L396.897 465.081L396.828 465.042C395.964 465.591 394.698 465.772 393.245 464.933C391.467 463.906 390.696 462.162 391.752 460.333ZM393.865 461.53C393.401 462.334 393.813 463.119 394.736 463.652C396.053 464.412 397.411 464.033 398.013 462.991L398.457 462.221L396.327 461.174C395.235 460.657 394.338 460.71 393.865 461.53ZM405.969 464.781L402.831 470.217L400.643 468.953L407.788 456.578L409.924 457.812L407.23 462.478L407.35 462.547C408.379 461.751 409.643 461.615 411.079 462.444C413.01 463.559 413.555 465.537 412.262 467.776L408.847 473.69L406.677 472.437L409.894 466.865C410.624 465.6 410.355 464.487 409.21 463.826C408.03 463.145 406.749 463.431 405.969 464.781ZM412.348 472.225C413.552 470.139 415.634 470.521 417.419 471.415C418.085 471.742 419.463 472.435 419.874 472.65L420.299 471.915C420.831 470.992 420.539 470.116 419.462 469.495C418.488 468.932 417.633 469.031 417.077 469.599L414.975 468.385C416.037 466.902 418.146 466.524 420.471 467.866C422.231 468.883 423.851 470.775 422.42 473.254L418.838 479.458L416.752 478.254L417.493 476.972L417.424 476.933C416.56 477.482 415.294 477.663 413.841 476.824C412.063 475.797 411.292 474.053 412.348 472.225ZM414.461 473.421C413.997 474.225 414.409 475.01 415.332 475.543C416.649 476.303 418.006 475.924 418.608 474.882L419.053 474.112L416.922 473.065C415.83 472.549 414.934 472.601 414.461 473.421ZM421.239 480.844L428.384 468.469L430.572 469.733L426.634 476.553L426.788 476.641L432.272 474.839L434.819 476.31L428.92 478.237L429.683 485.719L427.085 484.219L426.529 478.589L425.233 478.98L423.427 482.108L421.239 480.844ZM432.381 487.46C431.646 487.035 431.393 486.092 431.817 485.357C432.232 484.639 433.176 484.386 433.911 484.81C434.611 485.215 434.881 486.168 434.467 486.886C434.042 487.621 433.082 487.864 432.381 487.46ZM436.228 489.499L441.587 480.217L443.706 481.441L442.818 482.979L442.921 483.039C443.857 482.166 445.119 482.074 446.178 482.686C446.418 482.824 446.75 483.039 446.935 483.191L445.771 485.208C445.622 485.031 445.2 484.696 444.841 484.489C443.627 483.788 442.255 484.113 441.574 485.292L438.416 490.762L436.228 489.499ZM446.811 495.859C444.11 494.3 443.472 491.379 445.13 488.507C446.798 485.619 449.647 484.711 452.347 486.27C455.065 487.839 455.686 490.75 454.018 493.639C452.36 496.511 449.529 497.428 446.811 495.859ZM447.835 494.126C449.322 494.984 450.836 494.058 451.823 492.349C452.8 490.657 452.855 488.865 451.368 488.006C449.846 487.128 448.322 488.071 447.345 489.763C446.358 491.473 446.313 493.247 447.835 494.126Z" fill="#56AFDF"/>
<defs>
<filter id="filter0_d_4723_3750" x="-49.9414" y="-23.9834" width="963.199" height="820.792" filterUnits="userSpaceOnUse" color-interpolation-filters="sRGB">
<feFlood flood-opacity="0" result="BackgroundImageFix"/>
<feColorMatrix in="SourceAlpha" type="matrix" values="0 0 0 0 0 0 0 0 0 0 0 0 0 0 0 0 0 0 127 0" result="hardAlpha"/>
<feOffset dx="-10"/>
<feGaussianBlur stdDeviation="20"/>
<feComposite in2="hardAlpha" operator="out"/>
<feColorMatrix type="matrix" values="0 0 0 0 0.0392157 0 0 0 0 0.0588235 0 0 0 0 0.0823529 0 0 0 0.1 0"/>
<feBlend mode="normal" in2="BackgroundImageFix" result="effect1_dropShadow_4723_3750"/>
<feBlend mode="normal" in="SourceGraphic" in2="effect1_dropShadow_4723_3750" result="shape"/>
</filter>
</defs>
</svg>
