<svg width="715" height="381" viewBox="0 0 715 381" fill="none" xmlns="http://www.w3.org/2000/svg">
<g filter="url(#filter0_d_4723_3720)">
<path d="M648.075 -249.989L654.283 -226.823L654.323 -226.834C649.222 -225.467 644.874 -222.126 642.235 -217.546C639.596 -212.966 638.883 -207.522 640.253 -202.411C641.622 -197.3 644.962 -192.942 649.537 -190.294C654.112 -187.647 659.549 -186.928 664.65 -188.295L667.605 -177.265C662.504 -175.898 658.156 -172.557 655.517 -167.977C652.878 -163.397 652.165 -157.952 653.535 -152.841C654.904 -147.731 658.244 -143.373 662.819 -140.725C667.394 -138.078 672.83 -137.359 677.932 -138.726L680.883 -127.712C675.782 -126.345 671.433 -123.004 668.795 -118.424C666.156 -113.844 665.443 -108.399 666.813 -103.288C668.182 -98.1779 671.522 -93.8197 676.097 -91.1725C680.672 -88.5253 686.108 -87.8061 691.209 -89.1728L694.16 -78.1592C689.059 -76.7923 684.711 -73.4506 682.073 -68.8704C679.434 -64.2902 678.721 -58.8461 680.09 -53.7355C681.46 -48.625 684.799 -44.2668 689.375 -41.6196C693.95 -38.9724 699.386 -38.2531 704.487 -39.6199L707.438 -28.6063C702.337 -27.2394 697.989 -23.8977 695.35 -19.3175C692.712 -14.7372 691.999 -9.29316 693.368 -4.1826C694.737 0.927989 698.077 5.2861 702.652 7.93337C707.227 10.5806 712.664 11.3006 717.765 9.93386L720.711 20.9308C715.61 22.2977 711.262 25.6386 708.624 30.2188C705.985 34.7991 705.272 40.2438 706.641 45.3545C708.011 50.4649 711.35 54.8232 715.926 57.4704C720.501 60.1176 725.937 60.8369 731.038 59.4701L733.989 70.4838C728.89 71.8501 724.544 75.1896 721.906 79.7679C719.269 84.3461 718.556 89.7882 719.925 94.8966C721.293 100.005 724.632 104.362 729.205 107.008C733.779 109.654 739.213 110.373 744.311 109.007L751.613 136.256L211.958 280.856L211.989 280.97L130.799 302.725L130.768 302.611L-10.5028 340.465L-17.8064 313.208C-12.7074 311.841 -8.36126 308.501 -5.72361 303.923C-3.08599 299.344 -2.37325 293.902 -3.74206 288.794C-5.11089 283.685 -8.44907 279.329 -13.0225 276.683C-17.5959 274.037 -23.0297 273.318 -28.1287 274.684L-31.0798 263.67C-25.9787 262.304 -21.6307 258.963 -18.9919 254.382C-16.3531 249.802 -15.6395 244.357 -17.0089 239.247C-18.3783 234.136 -21.7186 229.778 -26.294 227.131C-30.8693 224.484 -36.3053 223.764 -41.4064 225.131L-44.3575 214.118C-39.2564 212.751 -34.9084 209.41 -32.2696 204.83C-29.6308 200.249 -28.9172 194.804 -30.2866 189.694C-31.656 184.583 -34.9963 180.225 -39.5716 177.578C-44.147 174.931 -49.5829 174.211 -54.684 175.578L-57.6351 164.565C-52.5341 163.198 -48.186 159.857 -45.5472 155.277C-42.9085 150.696 -42.1948 145.251 -43.5642 140.141C-44.9336 135.03 -48.274 130.672 -52.8493 128.025C-57.4247 125.378 -62.8606 124.658 -67.9617 126.025L-70.9128 115.012C-66.7562 113.902 -63.0715 111.473 -60.411 108.088C-57.7506 104.703 -56.2572 100.545 -56.1552 96.2365C-56.0959 94.3318 -56.313 92.4277 -56.7993 90.5849C-57.4776 88.0538 -58.6472 85.6812 -60.2408 83.6019C-61.8345 81.5226 -63.8213 79.7772 -66.0876 78.4666C-68.354 77.1559 -70.856 76.3051 -73.4499 75.9627C-76.0436 75.6204 -78.6787 75.7935 -81.2047 76.4715L-84.1558 65.4579C-79.0548 64.0911 -74.7067 60.75 -72.068 56.1699C-69.4292 51.5896 -68.7155 46.1447 -70.0849 41.034C-71.4544 35.9235 -74.7947 31.5655 -79.37 28.9183C-83.9454 26.2711 -89.3813 25.5517 -94.4824 26.9186L-97.4335 15.905C-92.3325 14.5381 -87.9844 11.197 -85.3456 6.61698C-82.7069 2.03669 -81.9932 -3.40827 -83.3626 -8.51892C-84.732 -13.6295 -88.0723 -17.9874 -92.6477 -20.6347C-97.223 -23.2819 -102.659 -24.0012 -107.76 -22.6344L-113.967 -45.8007L648.075 -249.989Z" fill="white"/>
<path d="M728.684 72.7764C725.906 74.4936 723.567 76.8848 721.906 79.7679C719.269 84.3461 718.556 89.7882 719.925 94.8966C721.293 100.005 724.632 104.362 729.205 107.008C733.779 109.654 739.213 110.373 744.311 109.007L751.613 136.256L211.958 280.856L211.989 280.97L130.798 302.724L130.768 302.611L-10.5028 340.465L-17.8064 313.208C-12.7074 311.841 -8.36126 308.501 -5.72361 303.923C-3.08599 299.344 -2.37325 293.902 -3.74206 288.794C-5.11089 283.685 -8.44907 279.329 -13.0225 276.683C-15.8939 275.021 -19.1045 274.12 -22.3585 274.018L728.684 72.7764Z" fill="#56AFDF"/>
<path d="M654.283 -226.823L654.323 -226.834C649.222 -225.467 644.874 -222.126 642.235 -217.546C639.596 -212.966 638.883 -207.522 640.253 -202.411C641.622 -197.3 644.962 -192.942 649.537 -190.294C654.112 -187.647 659.549 -186.928 664.65 -188.295L665.293 -185.893L-96.7906 18.3061L-97.4335 15.905C-92.3325 14.5381 -87.9844 11.197 -85.3456 6.61698C-82.7069 2.03669 -81.9932 -3.40827 -83.3626 -8.51892C-84.732 -13.6295 -88.0723 -17.9874 -92.6477 -20.6347C-97.223 -23.2819 -102.659 -24.0012 -107.76 -22.6344L-113.967 -45.8007L648.075 -249.989L654.283 -226.823Z" fill="#56AFDF"/>
</g>
<path d="M48.7544 41.0343C50.6064 47.9459 46.4083 55.0759 39.3778 56.9597C32.3472 58.8436 25.1466 54.7678 23.2946 47.8563C21.4427 40.9447 25.6408 33.8147 32.6713 31.9309C39.7018 30.047 46.9025 34.1228 48.7544 41.0343Z" fill="#EBF0F4"/>
<path d="M40.4382 35.4574C42.2901 42.3689 38.092 49.4989 31.0615 51.3828C24.031 53.2666 16.8303 49.1908 14.9784 42.2793C13.1264 35.3678 17.3245 28.2377 24.355 26.3539C31.3856 24.4701 38.5862 28.5458 40.4382 35.4574Z" fill="#EBF0F4"/>
<path fill-rule="evenodd" clip-rule="evenodd" d="M4.13406 27.9775C5.22377 26.6113 7.09205 26.1106 8.71889 26.7488L34.6377 36.9163C35.7887 37.3679 36.6524 38.3287 36.9689 39.51L40.4867 52.6387C41.0423 54.7122 39.7829 56.8512 37.6737 57.4164L7.12197 65.6027C5.01281 66.1678 2.85261 64.9451 2.29703 62.8716L-3.73705 40.3521C-4.05355 39.1709 -3.78615 37.9071 -3.01519 36.9405L4.13406 27.9775ZM12.3402 52.842C10.2311 53.4071 8.97164 55.5461 9.52722 57.6196L11.3619 64.4665L19.2154 62.3622L17.3807 55.5153C16.8251 53.4418 14.6649 52.2191 12.5558 52.7842L12.3402 52.842Z" fill="#56AFDF"/>
<path d="M68.5161 41.9598L62.3521 18.9555L71.3759 16.5376C76.6186 15.1328 80.4652 17.5416 81.6827 22.0853C82.9172 26.6925 80.7097 30.6555 75.4035 32.0773L71.2729 33.1841L73.2822 40.6827L68.5161 41.9598ZM70.2427 29.3394L73.6108 28.437C76.4386 27.6792 77.3792 25.7244 76.7577 23.4049C76.1447 21.1172 74.3613 19.9264 71.5334 20.6841L68.1654 21.5866L70.2427 29.3394ZM88.3671 36.6407L83.7441 19.3875L88.2878 18.17L89.0881 21.1567L89.2787 21.1057C89.3438 18.8065 90.6345 17.2688 92.5727 16.7494C93.0493 16.6217 93.6701 16.5235 94.1087 16.5081L95.2325 20.7023C94.7536 20.6944 93.8299 20.8057 93.1626 20.9845C91.0338 21.5549 89.877 23.4654 90.4389 25.5625L93.0697 35.3806L88.3671 36.6407ZM108.026 31.7477C102.815 33.144 98.6119 30.422 97.1816 25.084C95.7513 19.7459 98.0387 15.3189 103.25 13.9226C108.461 12.5263 112.687 15.2081 114.117 20.5461C115.547 25.8841 113.237 30.3515 108.026 31.7477ZM107.079 28.0852C109.493 27.4382 110.128 24.8502 109.319 21.8317C108.502 18.7814 106.658 16.8575 104.243 17.5045C101.797 18.1601 101.13 20.7566 101.948 23.8069C102.757 26.8254 104.632 28.7408 107.079 28.0852ZM114.422 11.1672L119.125 9.9072L123.978 28.0183C125.042 31.99 123.038 34.2978 119.003 35.3791L118.041 35.6027L117.054 31.917C117.308 31.8489 117.475 31.8381 117.698 31.7785C119.223 31.3698 119.607 30.5175 119.258 29.2148L114.422 11.1672ZM116.137 8.28979C114.708 8.67291 113.274 7.89909 112.925 6.59636C112.568 5.26186 113.422 3.87505 114.852 3.49193C116.25 3.11732 117.683 3.89114 118.041 5.22564C118.39 6.52837 117.536 7.91518 116.137 8.28979ZM134.987 24.5236C129.712 25.9369 125.552 23.3737 124.087 17.9086C122.657 12.5706 124.968 8.10326 130.02 6.74957C134.563 5.5321 138.888 7.4382 140.463 13.3164L140.821 14.6509L129.033 17.8095C129.731 20.4149 131.722 21.6182 134.137 20.9712C135.726 20.5455 136.682 19.54 136.878 18.3637L141.358 17.1633C141.542 20.5195 139.244 23.3828 134.987 24.5236ZM128.241 14.8545L135.581 12.8878C135.019 10.7908 133.157 9.68902 131.06 10.2509C128.899 10.8299 127.788 12.8474 128.241 14.8545ZM153.281 19.6217C148.006 21.035 143.85 18.2324 142.437 12.9579C141.023 7.68348 143.262 3.20136 148.505 1.79659C152.953 0.604659 156.67 2.40131 157.916 6.29019L153.499 7.4736C152.754 5.83444 151.326 4.95679 149.547 5.43356C147.291 6.03804 146.309 8.34462 147.186 11.6173C148.08 14.9536 150.052 16.4684 152.34 15.8554C153.992 15.4127 154.959 14.0639 154.751 12.1444L159.167 10.9609C159.992 14.9287 157.856 18.3957 153.281 19.6217ZM167.907 -3.16385L168.852 0.363054L165.611 1.23146L167.867 9.65154C168.233 11.0178 168.994 11.1885 169.956 10.9649C170.432 10.8372 171.25 10.5841 171.805 10.3673L172.801 14.0848C172.318 14.3163 171.509 14.6013 170.333 14.9163C166.934 15.8272 164.205 14.9236 163.343 11.5788L160.908 2.4915L158.525 3.13003L157.58 -0.396866L159.963 -1.0354L158.857 -5.166L163.559 -6.42604L164.666 -2.29544L167.907 -3.16385ZM182.428 11.4372L176.264 -11.5671L181.03 -12.8442L183.584 -3.31204L193.561 -5.98537L191.007 -15.5175L195.805 -16.8031L201.969 6.20118L197.171 7.48676L194.617 -2.0454L184.64 0.627924L187.194 10.1601L182.428 11.4372Z" fill="#56AFDF"/>
<path d="M208.266 4.82048C206.772 5.22063 205.241 4.33675 204.881 2.86663C204.458 1.41355 205.35 -0.0856075 206.844 -0.485755C208.242 -0.860362 209.796 -0.0167661 210.188 1.44483C210.579 2.90643 209.664 4.44588 208.266 4.82048Z" fill="#EBF0F4"/>
<path d="M19.5503 102.17L21.3995 109.072L20.4367 109.33L15.5873 105.224L15.5301 105.24L16.8812 110.282L15.8327 110.563L13.9835 103.662L14.9558 103.401L19.8078 107.516L19.8745 107.498L18.5208 102.446L19.5503 102.17ZM22.2906 107.27C21.9739 106.088 22.893 105.515 23.8093 105.197C24.1461 105.082 24.9114 104.831 25.1519 104.756L25.0326 104.349C24.8768 103.767 24.4321 103.519 23.7363 103.705C23.1358 103.866 22.8476 104.239 22.8449 104.649L21.8345 104.92C21.7 104.036 22.3347 103.202 23.5548 102.875C24.3745 102.655 25.6669 102.636 26.0679 104.133L26.9899 107.574L25.9986 107.839L25.8095 107.134L25.7714 107.144C25.676 107.589 25.3143 108.145 24.4564 108.375C23.4746 108.638 22.5613 108.28 22.2906 107.27ZM23.2845 107.014C23.4173 107.509 23.8961 107.657 24.4681 107.504C25.2974 107.281 25.6449 106.596 25.4789 105.976L25.3512 105.499L24.154 105.912C23.4996 106.139 23.1466 106.499 23.2845 107.014ZM28.4148 107.192L27.0279 102.016L28.0097 101.753L28.237 102.601L28.2942 102.586C28.3576 101.946 28.7734 101.477 29.4598 101.293C30.1461 101.109 30.7242 101.322 31.0966 101.835L31.1538 101.82C31.251 101.191 31.7093 100.69 32.4624 100.488C33.3965 100.238 34.2221 100.65 34.5389 101.832L35.4686 105.302L34.4486 105.575L33.5445 102.201C33.358 101.505 32.8404 101.327 32.3065 101.47C31.6488 101.646 31.3971 102.194 31.5631 102.813L32.4469 106.111L31.4365 106.382L30.517 102.951C30.3663 102.388 29.8758 102.121 29.323 102.269C28.7511 102.423 28.3926 103.029 28.5791 103.725L29.4347 106.919L28.4148 107.192ZM39.1521 104.427C37.6269 104.836 36.4118 104.038 35.9802 102.427C35.5536 100.835 36.2131 99.4832 37.6525 99.0975C38.8344 98.7808 40.1464 99.216 40.647 101.084L40.744 101.447L37.0646 102.432C37.3563 103.407 38.0837 103.814 38.9368 103.586C39.5183 103.43 39.8236 103.083 39.9109 102.722L40.9404 102.446C40.9364 103.346 40.2864 104.123 39.1521 104.427ZM36.8698 101.667L39.5388 100.952C39.3268 100.161 38.6684 99.7244 37.8868 99.9338C37.0718 100.152 36.7113 100.923 36.8698 101.667Z" fill="#40424D"/>
<path d="M43.2452 103.29C42.8735 103.389 42.4772 103.168 42.3871 102.794C42.278 102.425 42.5108 102.036 42.8826 101.936C43.2448 101.839 43.6411 102.06 43.7407 102.431C43.8403 102.803 43.6075 103.193 43.2452 103.29Z" fill="#56AFDF"/>
<path d="M20.7803 131.85L134.658 101.336" stroke="#56AFDF" stroke-width="1.68421"/>
<path d="M37.0347 180.731L34.7946 181.331L32.9454 174.43L35.2522 173.811C37.2825 173.267 38.85 174.237 39.4247 176.382C40.0019 178.536 39.1317 180.169 37.0347 180.731ZM35.5979 180.135L36.7323 179.831C38.2955 179.412 38.8225 178.29 38.3857 176.66C37.9515 175.04 36.9367 174.341 35.4307 174.744L34.2391 175.064L35.5979 180.135ZM41.0142 178.101C40.6975 176.919 41.6166 176.346 42.5329 176.029C42.8697 175.913 43.635 175.662 43.8756 175.587L43.7562 175.18C43.6004 174.599 43.1558 174.35 42.4599 174.536C41.8594 174.697 41.5712 175.071 41.5685 175.48L40.5581 175.751C40.4236 174.868 41.0583 174.033 42.2784 173.706C43.0981 173.487 44.3905 173.467 44.7915 174.964L45.7135 178.405L44.7222 178.671L44.5332 177.965L44.495 177.976C44.3996 178.42 44.0379 178.977 43.18 179.207C42.1982 179.47 41.2849 179.112 41.0142 178.101ZM42.0081 177.845C42.1409 178.341 42.6197 178.488 43.1917 178.335C44.021 178.113 44.3685 177.427 44.2025 176.808L44.0748 176.331L42.8777 176.744C42.2232 176.97 41.8702 177.33 42.0081 177.845ZM48.1726 172.199L48.3898 173.009L47.3317 173.292L48.0928 176.133C48.2486 176.714 48.5722 176.74 48.8989 176.663C49.0418 176.624 49.2655 176.544 49.4059 176.496L49.6435 177.383C49.5056 177.44 49.2915 177.518 49.015 177.592C48.2143 177.807 47.3819 177.56 47.1386 176.613L46.3213 173.563L45.5587 173.767L45.3416 172.957L46.1042 172.753L45.7721 171.514L46.7825 171.243L47.1146 172.482L48.1726 172.199ZM52.9475 176.579C51.4224 176.988 50.2073 176.19 49.7756 174.579C49.3491 172.987 50.0086 171.635 51.4479 171.249C52.6299 170.933 53.9419 171.368 54.4425 173.236L54.5395 173.598L50.8601 174.584C51.1518 175.558 51.8792 175.966 52.7323 175.738C53.3138 175.582 53.6191 175.234 53.7064 174.874L54.7359 174.598C54.7319 175.498 54.0819 176.275 52.9475 176.579ZM50.6653 173.819L53.3343 173.104C53.1223 172.313 52.4639 171.876 51.6822 172.086C50.8672 172.304 50.5068 173.075 50.6653 173.819Z" fill="#40424D"/>
<path d="M57.0407 175.442C56.669 175.541 56.2727 175.32 56.1826 174.946C56.0735 174.577 56.3063 174.188 56.678 174.088C57.0403 173.991 57.4366 174.212 57.5362 174.583C57.6358 174.955 57.4029 175.344 57.0407 175.442Z" fill="#56AFDF"/>
<path d="M45.953 198.801L49.6513 212.603L47.1539 213.273L44.1043 201.891L44.028 201.912L41.3578 204.834L40.75 202.565L43.5699 199.439L45.953 198.801ZM55.3036 196.295L59.002 210.098L56.5046 210.767L53.455 199.386L53.3787 199.406L50.7085 202.328L50.1006 200.06L52.9206 196.934L55.3036 196.295ZM64.5187 193.131L64.5056 210.85L62.3704 211.423L62.4026 193.698L64.5187 193.131ZM70.1348 207.115L69.6546 205.323L73.2734 199.306C74.2922 197.542 74.7969 196.528 74.4853 195.365C74.1431 194.087 72.913 193.538 71.5595 193.901C70.1296 194.284 69.4546 195.425 69.8466 196.812L67.4826 197.446C66.7637 194.839 68.2727 192.616 71.037 191.875C73.8586 191.119 76.2145 192.286 76.8377 194.612C77.2566 196.175 76.8312 197.638 74.8086 200.918L73.0031 204.017L73.0287 204.112L79.1674 202.467L79.7242 204.545L70.1348 207.115ZM84.1945 188.554L87.8929 202.357L85.3954 203.026L82.3458 191.644L82.2695 191.665L79.5994 194.587L78.9915 192.318L81.8114 189.193L84.1945 188.554ZM90.3378 193.753C90.783 192.898 91.4867 192.321 92.3636 192.086C93.8888 191.678 95.4903 192.393 97.0154 191.984C97.8924 191.749 98.5579 191.183 98.9739 190.295L99.5307 192.373C99.0905 193.247 98.3818 193.804 97.5048 194.039C95.9797 194.448 94.3591 193.738 92.853 194.142C91.9761 194.377 91.3106 194.943 90.8946 195.831L90.3378 193.753ZM106.518 182.572L110.216 196.375L107.719 197.044L104.669 185.663L104.593 185.683L101.923 188.605L101.315 186.337L104.135 183.211L106.518 182.572ZM115.869 180.067L119.567 193.87L117.07 194.539L114.02 183.157L113.944 183.178L111.274 186.1L110.666 183.831L113.486 180.705L115.869 180.067ZM125.084 176.903L125.071 194.622L122.935 195.194L122.968 177.47L125.084 176.903ZM130.7 190.886L130.22 189.094L133.838 183.078C134.857 181.313 135.362 180.299 135.05 179.136C134.708 177.859 133.478 177.31 132.125 177.673C130.695 178.056 130.02 179.197 130.412 180.584L128.048 181.217C127.329 178.61 128.838 176.388 131.602 175.647C134.424 174.891 136.78 176.058 137.403 178.384C137.822 179.947 137.396 181.409 135.374 184.689L133.568 187.789L133.594 187.884L139.732 186.239L140.289 188.317L130.7 190.886ZM147.918 186.477C144.963 187.269 142.437 186.23 141.756 183.919L144.254 183.25C144.626 184.335 145.926 184.763 147.356 184.38C148.881 183.972 149.743 182.841 149.416 181.621C149.084 180.382 147.777 179.772 145.984 180.252L144.745 180.584L144.234 178.678L145.474 178.346C146.942 177.953 147.751 176.857 147.411 175.661C147.118 174.493 146.032 173.946 144.678 174.309C143.382 174.656 142.451 175.682 142.724 176.855L140.341 177.494C139.775 175.153 141.448 173.009 144.156 172.283C146.958 171.532 149.229 172.763 149.777 174.884C150.21 176.423 149.482 177.824 148.057 178.532L148.088 178.647C150.104 178.393 151.542 179.335 151.988 181.075C152.63 183.396 150.911 185.675 147.918 186.477Z" fill="#56AFDF"/>
<path d="M197.477 137.741L195.628 130.84L198.087 130.181C199.688 129.752 200.737 130.502 201.08 131.78C201.419 133.047 200.889 134.232 199.287 134.661L197.877 135.039L198.525 137.46L197.477 137.741ZM197.636 134.143L198.942 133.793C199.962 133.52 200.228 132.835 200.022 132.063C199.812 131.282 199.242 130.832 198.222 131.105L196.916 131.455L197.636 134.143ZM202.715 128.941L204.564 135.842L203.544 136.115L201.695 129.214L202.715 128.941ZM205.369 134.063C205.052 132.881 205.971 132.308 206.888 131.991C207.224 131.875 207.99 131.624 208.23 131.549L208.111 131.142C207.955 130.561 207.511 130.312 206.815 130.498C206.214 130.659 205.926 131.033 205.923 131.442L204.913 131.713C204.778 130.829 205.413 129.995 206.633 129.668C207.453 129.449 208.745 129.429 209.146 130.926L210.068 134.367L209.077 134.633L208.888 133.927L208.85 133.938C208.754 134.382 208.393 134.939 207.535 135.169C206.553 135.432 205.64 135.074 205.369 134.063ZM206.363 133.807C206.496 134.303 206.975 134.45 207.547 134.297C208.376 134.075 208.723 133.389 208.557 132.769L208.43 132.293L207.232 132.706C206.578 132.932 206.225 133.292 206.363 133.807ZM213.714 133.503C212.208 133.906 210.994 133.036 210.577 131.482C210.153 129.9 210.803 128.551 212.262 128.16C213.444 127.844 214.488 128.309 214.874 129.33L213.883 129.596C213.647 129.138 213.147 128.832 212.508 129.003C211.669 129.228 211.293 130.075 211.59 131.181C211.894 132.315 212.633 132.863 213.481 132.635C214.053 132.482 214.407 132.05 214.381 131.454L215.372 131.189C215.526 132.22 214.934 133.176 213.714 133.503ZM219.228 132.025C217.703 132.434 216.488 131.636 216.056 130.025C215.629 128.433 216.289 127.081 217.728 126.695C218.91 126.379 220.222 126.814 220.723 128.682L220.82 129.044L217.14 130.03C217.432 131.004 218.16 131.412 219.013 131.184C219.594 131.028 219.899 130.681 219.987 130.32L221.016 130.044C221.012 130.944 220.362 131.721 219.228 132.025ZM216.946 129.265L219.615 128.55C219.403 127.759 218.744 127.322 217.963 127.532C217.148 127.75 216.787 128.521 216.946 129.265Z" fill="#40424D"/>
<path d="M223.321 130.888C222.949 130.987 222.553 130.766 222.463 130.392C222.354 130.023 222.587 129.634 222.958 129.534C223.321 129.437 223.717 129.658 223.816 130.029C223.916 130.401 223.683 130.79 223.321 130.888Z" fill="#56AFDF"/>
<path d="M211.946 169.322C209.253 170.023 206.117 169.147 204.772 164.052C203.505 159.324 204.924 156.001 208.298 155.097C210.967 154.382 213.247 155.569 214.149 157.718L211.69 158.377C211.161 157.395 210.134 156.914 208.875 157.251C206.874 157.788 206.224 159.862 207 162.76L207.134 162.724C207.522 161.353 208.668 160.29 210.174 159.886C212.652 159.222 215.059 160.58 215.759 163.192C216.495 165.937 215.001 168.523 211.946 169.322ZM211.41 167.32C212.954 166.906 213.776 165.399 213.372 163.893C212.979 162.425 211.538 161.544 210.012 161.953C208.468 162.366 207.613 163.903 207.982 165.357C208.39 166.801 209.846 167.739 211.41 167.32ZM224.69 165.907C221.997 166.608 218.861 165.732 217.516 160.637C216.249 155.909 217.668 152.586 221.042 151.682C223.711 150.967 225.991 152.154 226.894 154.303L224.434 154.962C223.905 153.98 222.878 153.499 221.619 153.836C219.618 154.373 218.968 156.447 219.744 159.345L219.878 159.309C220.266 157.938 221.412 156.875 222.918 156.472C225.396 155.808 227.803 157.165 228.503 159.777C229.239 162.522 227.746 165.109 224.69 165.907ZM224.154 163.905C225.698 163.491 226.52 161.984 226.117 160.478C225.723 159.01 224.282 158.129 222.757 158.538C221.212 158.952 220.357 160.488 220.726 161.942C221.134 163.386 222.591 164.324 224.154 163.905ZM244.101 150.428C243.269 149.077 241.885 148.488 240.208 148.937C237.977 149.535 236.841 151.699 237.673 154.807C238.516 157.952 240.563 159.263 242.87 158.645C244.948 158.088 245.945 156.472 245.457 154.498L242.255 155.357L241.729 153.393L247.333 151.891L247.778 153.55C248.728 157.096 246.88 159.961 243.468 160.875C239.655 161.897 236.356 159.88 235.181 155.495C233.996 151.072 235.969 147.683 239.591 146.712C242.641 145.895 245.492 147.154 246.637 149.749L244.101 150.428ZM254.305 161.936C253.829 162.063 253.347 162.172 253.032 162.216L252.511 160.271C252.821 160.208 253.226 160.12 253.55 160.033C254.141 159.875 254.622 159.685 254.745 158.467L254.806 157.858L248.202 148.308L250.775 147.618L255.272 154.791L255.386 154.76L255.694 146.3L258.268 145.61L257.222 158.334C257.076 160.151 256.25 161.415 254.305 161.936ZM267.245 154.525C264.119 155.362 261.656 153.795 260.787 150.554C259.929 147.352 261.291 144.657 264.246 143.865C266.782 143.186 269.398 144.181 270.374 147.822L270.578 148.585L263.353 150.521C263.854 152.277 265.171 153.037 266.754 152.613C267.821 152.327 268.423 151.675 268.565 150.984L270.948 150.345C270.989 152.255 269.647 153.881 267.245 154.525ZM262.927 148.857L267.808 147.549C267.411 146.144 266.201 145.365 264.79 145.743C263.322 146.136 262.649 147.512 262.927 148.857ZM276.159 151.912L270.449 142.346L272.927 141.682L276.709 148.475L276.804 148.449L276.702 140.671L279.161 140.012L282.971 146.756L283.066 146.73L282.936 139L285.414 138.336L285.252 149.475L282.717 150.154L278.892 143.66L278.759 143.696L278.694 151.232L276.159 151.912ZM294.411 147.246C291.399 148.053 288.882 146.439 288.024 143.236C287.161 140.014 288.533 137.358 291.546 136.551C294.577 135.738 297.074 137.358 297.938 140.579C298.796 143.782 297.442 146.433 294.411 147.246ZM293.909 145.296C295.568 144.852 295.984 143.126 295.473 141.219C294.968 139.332 293.739 138.027 292.081 138.471C290.384 138.926 289.973 140.67 290.478 142.558C290.989 144.464 292.213 145.751 293.909 145.296ZM302.405 138.381L304.03 144.444L301.59 145.097L298.816 134.746L301.142 134.122L301.612 135.876L301.745 135.84C301.91 134.55 302.764 133.544 304.309 133.131C306.463 132.553 308.252 133.586 308.897 136.07L310.664 142.666L308.243 143.315L306.578 137.1C306.205 135.708 305.242 135.087 303.964 135.43C302.668 135.777 302.002 136.875 302.405 138.381ZM317.283 141.097C314.842 141.751 312.491 140.297 311.577 136.884C310.652 133.433 312.039 131.059 314.441 130.416C316.271 129.925 317.325 130.808 317.886 131.454L317.982 131.429L316.602 126.281L319.024 125.632L322.722 139.435L320.339 140.074L319.9 138.434L319.766 138.47C319.589 139.335 319.075 140.617 317.283 141.097ZM317.413 138.916C318.977 138.497 319.51 136.904 318.969 134.883C318.432 132.881 317.203 131.801 315.62 132.225C314 132.659 313.534 134.275 314.05 136.201C314.576 138.165 315.812 139.345 317.413 138.916ZM330.222 137.65C327.096 138.488 324.633 136.921 323.764 133.68C322.906 130.477 324.268 127.783 327.223 126.991C329.759 126.311 332.375 127.306 333.351 130.947L333.555 131.71L326.33 133.646C326.831 135.402 328.148 136.162 329.731 135.739C330.798 135.452 331.4 134.801 331.542 134.109L333.925 133.47C333.966 135.38 332.625 137.006 330.222 137.65ZM325.904 131.982L330.785 130.675C330.388 129.269 329.178 128.49 327.767 128.868C326.299 129.261 325.626 130.637 325.904 131.982ZM335.78 132.81C335.157 130.484 336.899 129.282 338.794 128.651C339.496 128.412 340.96 127.928 341.403 127.789L341.183 126.969C340.907 125.94 340.082 125.527 338.881 125.849C337.794 126.14 337.259 126.815 337.268 127.609L334.923 128.238C334.625 126.438 335.849 124.679 338.442 123.985C340.406 123.458 342.889 123.651 343.63 126.416L345.484 133.336L343.158 133.959L342.775 132.529L342.699 132.55C342.476 133.549 341.708 134.572 340.088 135.007C338.105 135.538 336.327 134.85 335.78 132.81ZM338.12 132.162C338.36 133.058 339.207 133.322 340.237 133.046C341.705 132.653 342.397 131.425 342.086 130.262L341.856 129.404L339.609 130.17C338.472 130.577 337.875 131.247 338.12 132.162ZM348.978 125.902L350.602 131.964L348.162 132.618L344.464 118.816L346.847 118.177L348.241 123.382L348.375 123.346C348.54 122.055 349.337 121.065 350.939 120.636C353.093 120.059 354.876 121.073 355.546 123.57L357.313 130.166L354.892 130.815L353.227 124.6C352.849 123.189 351.871 122.593 350.594 122.935C349.279 123.288 348.574 124.396 348.978 125.902ZM358.752 126.655C358.129 124.329 359.871 123.126 361.765 122.496C362.468 122.257 363.932 121.773 364.374 121.634L364.155 120.814C363.879 119.784 363.053 119.372 361.852 119.694C360.766 119.985 360.231 120.66 360.24 121.454L357.895 122.082C357.596 120.283 358.821 118.524 361.414 117.829C363.378 117.303 365.861 117.496 366.602 120.26L368.456 127.181L366.13 127.804L365.747 126.374L365.671 126.395C365.448 127.394 364.68 128.417 363.06 128.851C361.077 129.383 359.299 128.694 358.752 126.655ZM361.092 126.007C361.332 126.903 362.179 127.167 363.209 126.891C364.676 126.497 365.369 125.27 365.058 124.107L364.828 123.249L362.581 124.014C361.443 124.421 360.847 125.092 361.092 126.007ZM371.134 126.463L367.436 112.661L369.876 112.007L371.914 119.613L372.086 119.567L374.69 114.415L377.53 113.654L374.722 119.188L380.552 123.94L377.654 124.716L373.28 121.127L372.639 122.32L373.574 125.809L371.134 126.463ZM383.69 123.262C382.87 123.482 382.024 122.993 381.805 122.174C381.59 121.373 382.079 120.527 382.898 120.307C383.68 120.098 384.545 120.581 384.76 121.382C384.979 122.202 384.472 123.053 383.69 123.262ZM387.853 121.983L385.079 111.631L387.443 110.998L387.903 112.714L388.017 112.683C388.062 111.404 388.889 110.447 390.071 110.13C390.338 110.059 390.724 109.976 390.963 109.953L391.566 112.202C391.336 112.182 390.801 112.244 390.4 112.351C389.047 112.714 388.306 113.913 388.658 115.229L390.293 121.329L387.853 121.983ZM399.833 118.998C396.821 119.805 394.304 118.191 393.446 114.988C392.583 111.766 393.955 109.11 396.967 108.303C399.999 107.491 402.496 109.11 403.36 112.332C404.218 115.535 402.864 118.186 399.833 118.998ZM399.331 117.048C400.99 116.604 401.406 114.878 400.895 112.972C400.389 111.084 399.161 109.779 397.502 110.223C395.806 110.678 395.395 112.423 395.9 114.31C396.411 116.216 397.634 117.503 399.331 117.048Z" fill="#56AFDF"/>
<defs>
<filter id="filter0_d_4723_3720" x="-163.968" y="-289.989" width="945.58" height="670.454" filterUnits="userSpaceOnUse" color-interpolation-filters="sRGB">
<feFlood flood-opacity="0" result="BackgroundImageFix"/>
<feColorMatrix in="SourceAlpha" type="matrix" values="0 0 0 0 0 0 0 0 0 0 0 0 0 0 0 0 0 0 127 0" result="hardAlpha"/>
<feOffset dx="-10"/>
<feGaussianBlur stdDeviation="20"/>
<feComposite in2="hardAlpha" operator="out"/>
<feColorMatrix type="matrix" values="0 0 0 0 0.0392157 0 0 0 0 0.0588235 0 0 0 0 0.0823529 0 0 0 0.1 0"/>
<feBlend mode="normal" in2="BackgroundImageFix" result="effect1_dropShadow_4723_3720"/>
<feBlend mode="normal" in="SourceGraphic" in2="effect1_dropShadow_4723_3720" result="shape"/>
</filter>
</defs>
</svg>
