<svg width="632" height="640" viewBox="0 0 632 640" fill="none" xmlns="http://www.w3.org/2000/svg">
<g filter="url(#filter0_d_4723_3705)">
<path d="M733.229 -73.9792L745.22 -53.2088L745.257 -53.2297C740.683 -50.5892 737.348 -46.2367 735.985 -41.1297C734.621 -36.0225 735.341 -30.5794 737.987 -25.9974C740.632 -21.4153 744.986 -18.0694 750.091 -16.6965C755.196 -15.3238 760.633 -16.0359 765.206 -18.6763L770.915 -8.78752C766.342 -6.14698 763.007 -1.79445 761.643 3.31254C760.28 8.41972 761.001 13.8635 763.646 18.4455C766.291 23.0275 770.645 26.3729 775.75 27.7457C780.854 29.1186 786.291 28.4063 790.865 25.7659L796.566 35.6404C791.993 38.281 788.657 42.6335 787.294 47.7405C785.93 52.8477 786.651 58.2914 789.297 62.8735C791.942 67.4555 796.296 70.8008 801.4 72.1737C806.505 73.5465 811.942 72.8343 816.515 70.1938L822.216 80.0684C817.643 82.709 814.308 87.0621 812.945 92.1692C811.581 97.2763 812.302 102.719 814.947 107.301C817.592 111.883 821.946 115.229 827.051 116.602C832.155 117.974 837.592 117.262 842.166 114.622L847.867 124.496C843.293 127.137 839.959 131.49 838.595 136.597C837.232 141.704 837.952 147.147 840.597 151.729C843.243 156.311 847.597 159.657 852.701 161.03C857.806 162.402 863.243 161.691 867.817 159.05L873.509 168.91C868.936 171.551 865.6 175.903 864.237 181.01C862.874 186.117 863.594 191.561 866.24 196.143C868.885 200.725 873.239 204.07 878.344 205.443C883.448 206.816 888.885 206.104 893.459 203.463L899.16 213.338C894.588 215.977 891.254 220.328 889.891 225.433C888.529 230.538 889.249 235.979 891.893 240.559C894.537 245.139 898.89 248.484 903.992 249.856C909.094 251.228 914.529 250.516 919.101 247.877L933.206 272.308L449.365 551.654L449.424 551.756L376.631 593.783L376.572 593.681L249.912 666.808L235.803 642.37C240.374 639.731 243.708 635.379 245.07 630.274C246.433 625.169 245.713 619.728 243.069 615.148C240.425 610.568 236.073 607.224 230.97 605.852C225.868 604.48 220.433 605.192 215.861 607.831L210.16 597.956C214.734 595.316 218.069 590.963 219.432 585.856C220.796 580.749 220.076 575.305 217.43 570.723C214.785 566.141 210.43 562.796 205.326 561.423C200.221 560.05 194.784 560.762 190.211 563.403L184.51 553.528C189.083 550.888 192.418 546.535 193.782 541.428C195.145 536.321 194.425 530.877 191.78 526.295C189.134 521.713 184.78 518.368 179.675 516.995C174.571 515.622 169.134 516.335 164.56 518.975L158.859 509.101C163.433 506.46 166.768 502.107 168.131 497C169.495 491.893 168.775 486.449 166.129 481.867C163.484 477.285 159.129 473.94 154.025 472.567C148.92 471.194 143.483 471.907 138.91 474.547L133.209 464.673C136.937 462.525 139.867 459.225 141.561 455.267C143.255 451.309 143.621 446.906 142.604 442.718C142.168 440.862 141.466 439.079 140.519 437.425C139.209 435.156 137.465 433.167 135.388 431.571C133.31 429.975 130.939 428.803 128.411 428.124C125.883 427.445 123.246 427.27 120.652 427.611C118.058 427.952 115.557 428.801 113.293 430.109L107.592 420.235C112.165 417.594 115.5 413.242 116.864 408.135C118.227 403.028 117.507 397.584 114.862 393.001C112.216 388.419 107.862 385.075 102.757 383.702C97.6526 382.329 92.2156 383.041 87.6421 385.681L81.941 375.807C86.5145 373.166 89.8497 368.814 91.2131 363.707C92.5765 358.6 91.8566 353.156 89.2111 348.573C86.5657 343.991 82.2112 340.647 77.1066 339.274C72.002 337.901 66.5652 338.613 61.9916 341.254L49.9998 320.483L733.229 -73.9792Z" fill="white"/>
<path d="M894.628 216.926C892.39 219.303 890.749 222.218 889.891 225.433C888.529 230.538 889.249 235.979 891.893 240.559C894.537 245.139 898.89 248.484 903.992 249.856C909.094 251.228 914.529 250.516 919.101 247.877L933.206 272.308L449.365 551.654L449.424 551.756L376.63 593.782L376.572 593.681L249.912 666.808L235.803 642.37C240.374 639.731 243.708 635.379 245.07 630.274C246.433 625.169 245.713 619.728 243.069 615.148C240.425 610.568 236.073 607.224 230.97 605.852C227.767 604.99 224.432 604.951 221.262 605.694L894.628 216.926Z" fill="#56AFDF"/>
<path d="M745.22 -53.2088L745.257 -53.2297C740.683 -50.5892 737.348 -46.2367 735.985 -41.1297C734.621 -36.0225 735.341 -30.5794 737.987 -25.9974C740.632 -21.4153 744.986 -18.0694 750.091 -16.6965C755.196 -15.3238 760.633 -16.0359 765.206 -18.6763L766.449 -16.5235L83.1835 377.96L81.941 375.807C86.5145 373.166 89.8497 368.814 91.2131 363.707C92.5765 358.6 91.8566 353.156 89.2111 348.573C86.5657 343.991 82.2112 340.647 77.1066 339.274C72.002 337.901 66.5652 338.613 61.9916 341.254L49.9998 320.483L733.229 -73.9792L745.22 -53.2088Z" fill="#56AFDF"/>
</g>
<path d="M229.652 362.243C233.229 368.439 231.02 376.413 224.716 380.052C218.413 383.692 210.403 381.618 206.825 375.422C203.247 369.225 205.457 361.251 211.761 357.612C218.064 353.973 226.074 356.046 229.652 362.243Z" fill="#EBF0F4"/>
<path d="M220.175 359.008C223.753 365.205 221.543 373.179 215.24 376.818C208.937 380.457 200.926 378.384 197.349 372.187C193.771 365.99 195.981 358.017 202.284 354.378C208.588 350.738 216.598 352.811 220.175 359.008Z" fill="#EBF0F4"/>
<path fill-rule="evenodd" clip-rule="evenodd" d="M183.172 361.179C183.871 359.578 185.546 358.61 187.283 358.806L214.95 361.919C216.179 362.057 217.262 362.762 217.873 363.821L224.669 375.592C225.743 377.451 225.08 379.843 223.189 380.934L195.797 396.749C193.906 397.841 191.503 397.219 190.429 395.36L178.772 375.17C178.161 374.111 178.092 372.821 178.587 371.687L183.172 361.179ZM197.534 383.073C195.643 384.164 194.98 386.557 196.054 388.416L199.598 394.554L206.639 390.489L203.095 384.35C202.022 382.491 199.619 381.869 197.728 382.961L197.534 383.073Z" fill="#56AFDF"/>
<path d="M248.979 358.022L237.072 337.396L245.162 332.725C249.863 330.012 254.202 331.343 256.554 335.417C258.938 339.547 257.832 343.946 253.074 346.693L249.371 348.831L253.253 355.554L248.979 358.022ZM247.381 345.384L250.401 343.641C252.936 342.177 253.339 340.045 252.138 337.966C250.954 335.915 248.923 335.226 246.387 336.69L243.368 338.433L247.381 345.384ZM266.777 347.746L257.846 332.277L261.92 329.925L263.466 332.603L263.637 332.504C263.105 330.267 263.954 328.447 265.691 327.444C266.119 327.197 266.693 326.942 267.113 326.813L269.284 330.574C268.819 330.69 267.956 331.037 267.357 331.382C265.449 332.484 264.826 334.629 265.911 336.509L270.994 345.312L266.777 347.746ZM284.5 337.932C279.828 340.629 275.064 339.088 272.3 334.302C269.537 329.516 270.601 324.647 275.273 321.95C279.945 319.253 284.721 320.749 287.484 325.535C290.248 330.321 289.172 335.234 284.5 337.932ZM282.637 334.639C284.802 333.389 284.745 330.725 283.183 328.019C281.604 325.284 279.325 323.903 277.16 325.153C274.966 326.419 274.995 329.1 276.574 331.834C278.136 334.541 280.443 335.906 282.637 334.639ZM285.352 316.397L289.568 313.963L298.943 330.201C300.999 333.762 299.661 336.509 296.043 338.598L295.172 339.063L293.264 335.759C293.492 335.627 293.651 335.573 293.85 335.458C295.217 334.669 295.368 333.746 294.694 332.578L285.352 316.397ZM286.264 313.174C284.982 313.914 283.397 313.537 282.723 312.369C282.032 311.173 282.498 309.612 283.78 308.872C285.034 308.148 286.618 308.525 287.309 309.721C287.984 310.889 287.517 312.45 286.264 313.174ZM308.672 323.976C303.943 326.706 299.261 325.307 296.432 320.407C293.669 315.621 294.745 310.708 299.274 308.093C303.348 305.741 308.019 306.463 311.062 311.733L311.753 312.929L301.184 319.031C302.532 321.367 304.767 322.014 306.932 320.764C308.356 319.942 309.02 318.723 308.905 317.536L312.921 315.217C313.968 318.411 312.49 321.772 308.672 323.976ZM299.654 316.382L306.235 312.583C305.149 310.702 303.066 310.12 301.185 311.206C299.248 312.324 298.697 314.56 299.654 316.382ZM325.074 314.506C320.345 317.236 315.605 315.605 312.875 310.876C310.145 306.147 311.147 301.238 315.847 298.524C319.836 296.222 323.891 296.995 326.101 300.429L322.141 302.715C320.997 301.325 319.391 300.847 317.796 301.768C315.773 302.935 315.421 305.418 317.115 308.352C318.842 311.343 321.139 312.296 323.191 311.112C324.672 310.256 325.257 308.703 324.559 306.903L328.519 304.617C330.342 308.236 329.177 312.138 325.074 314.506ZM333.305 288.711L335.13 291.873L332.225 293.551L336.583 301.1C337.29 302.325 338.07 302.293 338.941 301.828C339.368 301.582 340.092 301.125 340.572 300.772L342.496 304.106C342.09 304.454 341.382 304.939 340.328 305.547C337.28 307.307 334.411 307.14 332.712 304.133L328.008 295.985L325.872 297.219L324.046 294.057L326.183 292.823L324.045 289.12L328.261 286.686L330.399 290.389L333.305 288.711ZM351.11 299.056L339.202 278.431L343.475 275.964L348.41 284.511L357.355 279.346L352.42 270.8L356.722 268.316L368.63 288.941L364.328 291.425L359.394 282.879L350.449 288.043L355.383 296.589L351.11 299.056Z" fill="#56AFDF"/>
<path d="M374.355 285.978C373.016 286.751 371.308 286.293 370.58 284.967C369.795 283.673 370.269 281.994 371.608 281.22C372.862 280.497 374.581 280.909 375.338 282.22C376.094 283.53 375.608 285.254 374.355 285.978Z" fill="#EBF0F4"/>
<path d="M217.266 428.857L220.838 435.044L219.975 435.542L214.228 432.832L214.177 432.862L216.787 437.383L215.847 437.926L212.275 431.738L213.147 431.235L218.898 433.953L218.958 433.919L216.343 429.389L217.266 428.857ZM221.233 433.073C220.621 432.013 221.36 431.222 222.163 430.678C222.459 430.479 223.133 430.039 223.346 429.904L223.125 429.542C222.824 429.02 222.33 428.895 221.707 429.255C221.168 429.566 220.986 430.002 221.09 430.398L220.184 430.921C219.825 430.102 220.222 429.132 221.316 428.501C222.051 428.076 223.295 427.723 224.069 429.065L225.851 432.15L224.962 432.663L224.597 432.031L224.562 432.051C224.585 432.505 224.38 433.136 223.611 433.58C222.731 434.088 221.756 433.979 221.233 433.073ZM222.126 432.568C222.383 433.013 222.884 433.031 223.397 432.735C224.14 432.306 224.298 431.554 223.978 430.998L223.731 430.571L222.681 431.279C222.108 431.667 221.86 432.107 222.126 432.568ZM227.128 431.413L224.449 426.772L225.329 426.264L225.768 427.024L225.819 426.995C225.715 426.36 225.995 425.799 226.611 425.444C227.226 425.089 227.839 425.145 228.332 425.544L228.383 425.515C228.314 424.882 228.628 424.28 229.303 423.89C230.14 423.406 231.044 423.591 231.656 424.65L233.452 427.761L232.538 428.289L230.791 425.264C230.431 424.64 229.885 424.602 229.406 424.878C228.817 425.219 228.715 425.813 229.036 426.368L230.743 429.325L229.837 429.849L228.061 426.772C227.77 426.268 227.227 426.137 226.731 426.423C226.218 426.719 226.029 427.398 226.39 428.022L228.043 430.885L227.128 431.413ZM236.784 425.963C235.417 426.753 234.036 426.296 233.202 424.852C232.378 423.425 232.666 421.948 233.956 421.203C235.016 420.591 236.396 420.672 237.363 422.347L237.55 422.672L234.251 424.577C234.785 425.442 235.593 425.648 236.358 425.206C236.88 424.905 237.085 424.491 237.076 424.12L237.999 423.587C238.228 424.457 237.801 425.376 236.784 425.963ZM233.865 423.888L236.258 422.506C235.849 421.797 235.1 421.546 234.399 421.95C233.668 422.372 233.519 423.21 233.865 423.888Z" fill="#40424D"/>
<path d="M240.443 423.805C240.11 423.997 239.67 423.887 239.486 423.548C239.285 423.22 239.409 422.784 239.743 422.591C240.067 422.404 240.507 422.514 240.7 422.848C240.892 423.181 240.768 423.617 240.443 423.805Z" fill="#56AFDF"/>
<path d="M226.136 457.207L328.236 398.26" stroke="#56AFDF" stroke-width="1.68421"/>
<path d="M254.487 500.213L252.479 501.373L248.906 495.185L250.974 493.991C252.795 492.94 254.56 493.471 255.67 495.394C256.785 497.325 256.367 499.128 254.487 500.213ZM252.945 500.01L253.962 499.422C255.364 498.613 255.582 497.393 254.738 495.932C253.9 494.479 252.739 494.067 251.388 494.846L250.32 495.463L252.945 500.01ZM257.65 496.644C257.039 495.584 257.778 494.792 258.581 494.249C258.876 494.05 259.551 493.609 259.764 493.475L259.543 493.112C259.242 492.591 258.748 492.466 258.124 492.826C257.586 493.137 257.404 493.572 257.507 493.968L256.602 494.491C256.243 493.673 256.64 492.703 257.734 492.071C258.469 491.647 259.712 491.294 260.487 492.636L262.268 495.721L261.379 496.234L261.014 495.602L260.98 495.621C261.003 496.075 260.798 496.707 260.028 497.151C259.148 497.659 258.173 497.549 257.65 496.644ZM258.544 496.139C258.801 496.583 259.301 496.602 259.814 496.306C260.558 495.877 260.716 495.124 260.395 494.569L260.149 494.141L259.099 494.85C258.525 495.238 258.278 495.677 258.544 496.139ZM263.037 489.089L263.457 489.816L262.508 490.363L263.978 492.91C264.279 493.432 264.599 493.373 264.894 493.213C265.022 493.139 265.218 493.004 265.341 492.921L265.8 493.716C265.681 493.807 265.495 493.938 265.247 494.081C264.529 494.495 263.661 494.472 263.181 493.621L261.602 490.886L260.918 491.281L260.499 490.555L261.183 490.16L260.541 489.049L261.447 488.526L262.089 489.637L263.037 489.089ZM268.783 492.085C267.416 492.874 266.035 492.418 265.202 490.973C264.378 489.546 264.665 488.07 265.955 487.325C267.015 486.713 268.395 486.794 269.362 488.469L269.549 488.794L266.251 490.698C266.784 491.564 267.593 491.769 268.358 491.328C268.879 491.027 269.084 490.612 269.075 490.241L269.998 489.708C270.227 490.579 269.8 491.498 268.783 492.085ZM265.864 490.01L268.257 488.628C267.848 487.919 267.099 487.667 266.398 488.072C265.667 488.494 265.519 489.332 265.864 490.01Z" fill="#40424D"/>
<path d="M272.442 489.927C272.109 490.119 271.669 490.008 271.485 489.67C271.284 489.342 271.408 488.905 271.742 488.713C272.067 488.525 272.506 488.636 272.699 488.969C272.891 489.303 272.767 489.739 272.442 489.927Z" fill="#56AFDF"/>
<path d="M267.779 515.36L274.923 527.735L272.684 529.027L266.793 518.823L266.724 518.862L264.902 522.376L263.727 520.342L265.642 516.593L267.779 515.36ZM276.162 510.519L283.307 522.894L281.068 524.187L275.176 513.983L275.108 514.022L273.285 517.536L272.111 515.502L274.026 511.753L276.162 510.519ZM284.244 505.078L288.818 522.197L286.903 523.302L282.347 506.173L284.244 505.078ZM293.288 517.132L292.361 515.525L294.299 508.777C294.826 506.808 295.051 505.698 294.449 504.656C293.788 503.511 292.458 503.299 291.244 503.999C289.963 504.739 289.606 506.017 290.343 507.254L288.224 508.478C286.855 506.146 287.737 503.609 290.215 502.178C292.745 500.717 295.323 501.234 296.527 503.32C297.336 504.721 297.304 506.244 296.199 509.936L295.257 513.397L295.306 513.482L300.81 510.305L301.886 512.168L293.288 517.132ZM302.065 495.564L309.21 507.939L306.971 509.232L301.079 499.028L301.011 499.067L299.188 502.581L298.014 500.547L299.928 496.798L302.065 495.564ZM309.345 498.996C309.553 498.055 310.084 497.316 310.87 496.862C312.237 496.072 313.969 496.349 315.337 495.559C316.123 495.105 316.619 494.386 316.791 493.42L317.867 495.284C317.668 496.242 317.128 496.964 316.342 497.418C314.974 498.207 313.225 497.941 311.875 498.72C311.088 499.174 310.592 499.894 310.42 500.859L309.345 498.996ZM322.08 484.009L329.224 496.384L326.985 497.677L321.094 487.472L321.026 487.512L319.203 491.025L318.028 488.991L319.943 485.242L322.08 484.009ZM330.463 479.168L337.608 491.543L335.369 492.836L329.478 482.632L329.409 482.671L327.586 486.185L326.412 484.151L328.327 480.402L330.463 479.168ZM338.546 473.727L343.119 490.846L341.205 491.951L336.648 474.823L338.546 473.727ZM347.589 485.781L346.662 484.174L348.6 477.426C349.127 475.458 349.353 474.348 348.751 473.305C348.089 472.16 346.759 471.948 345.546 472.649C344.264 473.389 343.907 474.666 344.645 475.904L342.525 477.127C341.156 474.795 342.038 472.258 344.517 470.827C347.046 469.366 349.624 469.884 350.828 471.969C351.637 473.371 351.605 474.893 350.5 478.585L349.558 482.046L349.608 482.131L355.111 478.954L356.187 480.817L347.589 485.781ZM363.08 477.065C360.43 478.595 357.721 478.245 356.466 476.189L358.705 474.896C359.346 475.848 360.712 475.925 361.994 475.185C363.362 474.396 363.902 473.081 363.27 471.987C362.629 470.876 361.208 470.625 359.601 471.553L358.49 472.195L357.503 470.485L358.614 469.844C359.93 469.084 360.429 467.816 359.79 466.749C359.205 465.697 358.014 465.45 356.801 466.15C355.638 466.821 355.005 468.053 355.573 469.116L353.436 470.349C352.284 468.234 353.345 465.73 355.772 464.329C358.284 462.878 360.796 463.479 361.875 465.386C362.691 466.761 362.35 468.302 361.158 469.355L361.217 469.458C363.099 468.69 364.732 469.229 365.612 470.794C366.834 472.87 365.763 475.516 363.08 477.065Z" fill="#56AFDF"/>
<path d="M398.336 417.162L394.763 410.974L396.968 409.701C398.404 408.872 399.612 409.326 400.273 410.471C400.929 411.608 400.723 412.889 399.287 413.718L398.022 414.448L399.276 416.619L398.336 417.162ZM397.559 413.645L398.729 412.969C399.644 412.441 399.724 411.711 399.324 411.019C398.92 410.318 398.252 410.031 397.338 410.559L396.167 411.235L397.559 413.645ZM401.117 407.306L404.69 413.493L403.775 414.021L400.203 407.834L401.117 407.306ZM405.007 411.567C404.395 410.507 405.135 409.715 405.938 409.172C406.233 408.973 406.907 408.532 407.12 408.398L406.9 408.036C406.599 407.514 406.105 407.389 405.481 407.749C404.942 408.06 404.761 408.495 404.864 408.892L403.958 409.415C403.6 408.596 403.997 407.626 405.091 406.995C405.826 406.57 407.069 406.217 407.844 407.559L409.625 410.644L408.736 411.157L408.371 410.525L408.337 410.545C408.36 410.999 408.154 411.63 407.385 412.074C406.505 412.582 405.53 412.473 405.007 411.567ZM405.901 411.062C406.157 411.507 406.658 411.525 407.171 411.229C407.914 410.8 408.073 410.048 407.752 409.492L407.505 409.065L406.456 409.773C405.882 410.161 405.634 410.601 405.901 411.062ZM412.922 408.866C411.572 409.645 410.174 409.119 409.37 407.726C408.551 406.307 408.83 404.836 410.137 404.081C411.197 403.469 412.326 403.649 412.963 404.535L412.074 405.048C411.729 404.666 411.166 404.501 410.593 404.832C409.841 405.266 409.697 406.181 410.27 407.172C410.857 408.189 411.713 408.527 412.473 408.088C412.986 407.792 413.216 407.283 413.036 406.714L413.925 406.201C414.341 407.158 414.016 408.234 412.922 408.866ZM417.866 406.011C416.499 406.801 415.118 406.344 414.285 404.9C413.461 403.473 413.748 401.996 415.038 401.251C416.098 400.639 417.478 400.72 418.445 402.395L418.632 402.72L415.334 404.625C415.867 405.49 416.676 405.696 417.441 405.254C417.962 404.953 418.167 404.539 418.158 404.168L419.081 403.635C419.31 404.505 418.883 405.424 417.866 406.011ZM414.947 403.936L417.34 402.554C416.931 401.845 416.182 401.594 415.481 401.998C414.75 402.42 414.602 403.258 414.947 403.936Z" fill="#40424D"/>
<path d="M421.525 403.853C421.192 404.045 420.752 403.935 420.568 403.597C420.367 403.268 420.491 402.832 420.825 402.639C421.15 402.452 421.589 402.563 421.782 402.896C421.974 403.229 421.85 403.666 421.525 403.853Z" fill="#56AFDF"/>
<path d="M420.486 443.922C418.066 445.296 414.81 445.261 412.192 440.688C409.745 436.449 410.255 432.872 413.28 431.126C415.673 429.744 418.183 430.301 419.611 432.143L417.406 433.416C416.641 432.604 415.524 432.406 414.396 433.057C412.601 434.093 412.51 436.265 414.01 438.863L414.13 438.794C414.15 437.369 414.982 436.046 416.332 435.266C418.554 433.984 421.23 434.672 422.582 437.013C424.004 439.475 423.231 442.36 420.486 443.922ZM419.45 442.127C420.834 441.327 421.238 439.659 420.458 438.308C419.699 436.992 418.078 436.515 416.711 437.304C415.326 438.103 414.898 439.809 415.631 441.118C416.398 442.407 418.048 442.936 419.45 442.127ZM431.912 437.325C429.492 438.699 426.236 438.665 423.618 434.091C421.171 429.852 421.681 426.276 424.707 424.529C427.099 423.147 429.609 423.704 431.037 425.546L428.832 426.819C428.067 426.007 426.95 425.809 425.822 426.46C424.027 427.496 423.936 429.668 425.436 432.266L425.556 432.197C425.576 430.772 426.408 429.449 427.758 428.67C429.98 427.387 432.657 428.075 434.009 430.417C435.43 432.878 434.657 435.763 431.912 437.325ZM430.876 435.53C432.26 434.731 432.664 433.062 431.884 431.711C431.125 430.395 429.504 429.918 428.137 430.707C426.752 431.507 426.324 433.212 427.057 434.521C427.824 435.81 429.474 436.339 430.876 435.53ZM446.655 417.349C445.502 416.26 444.013 416.049 442.509 416.917C440.509 418.072 439.971 420.456 441.58 423.242C443.208 426.063 445.525 426.799 447.593 425.605C449.456 424.529 450.001 422.71 449.019 420.93L446.147 422.588L445.131 420.827L450.156 417.926L451.015 419.413C452.85 422.592 451.807 425.838 448.747 427.605C445.329 429.578 441.62 428.483 439.35 424.552C437.061 420.587 438.089 416.802 441.337 414.927C444.072 413.348 447.151 413.827 448.928 416.037L446.655 417.349ZM459.49 425.824C459.063 426.071 458.625 426.3 458.332 426.424L457.326 424.68C457.609 424.54 457.978 424.349 458.268 424.182C458.798 423.876 459.213 423.568 459.017 422.359L458.919 421.755L450.067 414.24L452.375 412.908L458.574 418.672L458.677 418.613L456.784 410.362L459.092 409.029L461.376 421.59C461.704 423.383 461.233 424.817 459.49 425.824ZM470.071 415.316C467.268 416.935 464.483 416.058 462.805 413.153C461.147 410.281 461.766 407.326 464.415 405.796C466.689 404.484 469.473 404.768 471.358 408.032L471.753 408.716L465.275 412.456C466.213 414.022 467.683 414.416 469.101 413.597C470.059 413.044 470.471 412.259 470.429 411.554L472.565 410.321C473.1 412.155 472.225 414.073 470.071 415.316ZM464.433 410.959L468.809 408.433C468.062 407.178 466.691 406.739 465.426 407.469C464.11 408.229 463.816 409.732 464.433 410.959ZM478.004 410.485L470.013 402.724L472.235 401.441L477.646 407.023L477.732 406.974L475.62 399.487L477.825 398.214L483.25 403.742L483.335 403.693L481.209 396.26L483.431 394.977L486.157 405.778L483.884 407.091L478.509 401.807L478.389 401.876L480.278 409.173L478.004 410.485ZM494.427 401.254C491.727 402.813 488.878 401.906 487.22 399.034C485.552 396.145 486.191 393.224 488.891 391.665C491.609 390.096 494.441 391.014 496.108 393.902C497.766 396.774 497.145 399.685 494.427 401.254ZM493.438 399.501C494.925 398.642 494.88 396.868 493.893 395.158C492.917 393.466 491.392 392.523 489.905 393.382C488.384 394.26 488.438 396.052 489.415 397.744C490.402 399.453 491.917 400.379 493.438 399.501ZM499.855 390.623L502.993 396.058L500.805 397.321L495.447 388.04L497.532 386.836L498.44 388.409L498.559 388.339C498.385 387.05 498.95 385.858 500.334 385.058C502.266 383.943 504.261 384.478 505.527 386.71L508.941 392.624L506.77 393.877L503.553 388.305C502.833 387.057 501.742 386.707 500.597 387.368C499.434 388.039 499.075 389.272 499.855 390.623ZM514.928 389.395C512.74 390.658 510.093 389.862 508.326 386.803C506.54 383.709 507.265 381.057 509.419 379.814C511.06 378.866 512.306 379.446 513.015 379.925L513.101 379.876L510.436 375.261L512.607 374.007L519.752 386.382L517.615 387.616L516.767 386.146L516.647 386.215C516.7 387.096 516.535 388.468 514.928 389.395ZM514.49 387.255C515.892 386.446 515.994 384.769 514.948 382.957C513.912 381.162 512.445 380.437 511.026 381.256C509.573 382.095 509.542 383.776 510.538 385.503C511.555 387.263 513.054 388.084 514.49 387.255ZM526.535 382.717C523.732 384.335 520.947 383.459 519.269 380.553C517.611 377.682 518.23 374.727 520.879 373.197C523.152 371.885 525.937 372.168 527.822 375.433L528.217 376.117L521.739 379.857C522.677 381.423 524.146 381.817 525.565 380.998C526.522 380.445 526.935 379.66 526.893 378.955L529.029 377.722C529.564 379.555 528.688 381.473 526.535 382.717ZM520.897 378.36L525.273 375.834C524.525 374.579 523.155 374.139 521.89 374.869C520.574 375.629 520.28 377.133 520.897 378.36ZM530.651 376.603C529.447 374.518 530.818 372.906 532.485 371.806C533.101 371.394 534.39 370.547 534.782 370.298L534.357 369.563C533.825 368.64 532.92 368.456 531.844 369.077C530.869 369.64 530.528 370.43 530.742 371.195L528.639 372.409C527.885 370.747 528.613 368.732 530.938 367.39C532.698 366.373 535.147 365.917 536.578 368.395L540.16 374.6L538.075 375.804L537.334 374.522L537.266 374.561C537.31 375.584 536.833 376.771 535.38 377.61C533.602 378.636 531.707 378.432 530.651 376.603ZM532.743 375.372C533.207 376.175 534.093 376.211 535.016 375.678C536.332 374.918 536.684 373.553 536.082 372.51L535.638 371.741L533.666 373.062C532.672 373.749 532.269 374.552 532.743 375.372ZM541.611 366.515L544.749 371.95L542.561 373.213L535.416 360.838L537.553 359.605L540.247 364.271L540.367 364.202C540.192 362.913 540.706 361.75 542.141 360.921C544.073 359.806 546.058 360.323 547.351 362.563L550.765 368.477L548.595 369.73L545.378 364.158C544.647 362.893 543.549 362.57 542.404 363.231C541.225 363.912 540.831 365.165 541.611 366.515ZM551.247 364.712C550.043 362.627 551.414 361.015 553.081 359.915C553.697 359.503 554.986 358.656 555.378 358.407L554.953 357.672C554.42 356.749 553.516 356.564 552.439 357.186C551.465 357.749 551.124 358.538 551.337 359.304L549.235 360.518C548.481 358.856 549.209 356.841 551.534 355.499C553.294 354.482 555.743 354.026 557.173 356.504L560.756 362.709L558.67 363.913L557.93 362.631L557.862 362.67C557.906 363.693 557.429 364.88 555.976 365.719C554.198 366.745 552.302 366.541 551.247 364.712ZM553.339 363.481C553.803 364.284 554.689 364.32 555.612 363.787C556.928 363.027 557.28 361.662 556.678 360.619L556.234 359.85L554.261 361.171C553.268 361.858 552.865 362.661 553.339 363.481ZM563.157 361.322L556.012 348.947L558.2 347.684L562.138 354.504L562.291 354.415L563.473 348.765L566.02 347.294L564.74 353.366L571.601 356.447L569.003 357.947L563.849 355.613L563.539 356.931L565.345 360.059L563.157 361.322ZM574.457 354.981C573.722 355.405 572.778 355.152 572.354 354.417C571.939 353.699 572.192 352.756 572.927 352.331C573.628 351.927 574.589 352.17 575.003 352.888C575.428 353.623 575.158 354.576 574.457 354.981ZM578.146 352.668L572.788 343.387L574.907 342.163L575.796 343.702L575.898 343.642C575.611 342.395 576.162 341.257 577.221 340.645C577.461 340.507 577.812 340.326 578.037 340.242L579.202 342.259C578.974 342.299 578.473 342.497 578.114 342.705C576.901 343.405 576.495 344.756 577.176 345.935L580.334 351.405L578.146 352.668ZM588.946 346.684C586.245 348.243 583.397 347.335 581.739 344.464C580.071 341.575 580.709 338.654 583.41 337.095C586.128 335.526 588.959 336.443 590.627 339.332C592.285 342.204 591.664 345.115 588.946 346.684ZM587.957 344.93C589.444 344.072 589.399 342.297 588.412 340.588C587.435 338.896 585.911 337.953 584.424 338.811C582.902 339.69 582.957 341.481 583.934 343.173C584.921 344.883 586.435 345.809 587.957 344.93Z" fill="#56AFDF"/>
<defs>
<filter id="filter0_d_4723_3705" x="0" y="-113.979" width="963.206" height="820.788" filterUnits="userSpaceOnUse" color-interpolation-filters="sRGB">
<feFlood flood-opacity="0" result="BackgroundImageFix"/>
<feColorMatrix in="SourceAlpha" type="matrix" values="0 0 0 0 0 0 0 0 0 0 0 0 0 0 0 0 0 0 127 0" result="hardAlpha"/>
<feOffset dx="-10"/>
<feGaussianBlur stdDeviation="20"/>
<feComposite in2="hardAlpha" operator="out"/>
<feColorMatrix type="matrix" values="0 0 0 0 0.0392157 0 0 0 0 0.0588235 0 0 0 0 0.0823529 0 0 0 0.1 0"/>
<feBlend mode="normal" in2="BackgroundImageFix" result="effect1_dropShadow_4723_3705"/>
<feBlend mode="normal" in="SourceGraphic" in2="effect1_dropShadow_4723_3705" result="shape"/>
</filter>
</defs>
</svg>
