<svg width="392" height="348" viewBox="0 0 392 348" fill="none" xmlns="http://www.w3.org/2000/svg">
<g filter="url(#filter0_d_4723_3735)">
<path d="M607.854 -532.97L624.813 -516.011L624.842 -516.04C621.108 -512.306 619.013 -507.239 619.018 -501.953C619.023 -496.667 621.127 -491.596 624.869 -487.854C628.61 -484.113 633.682 -482.008 638.968 -482.003C644.253 -481.998 649.321 -484.093 653.055 -487.828L661.129 -479.753C657.395 -476.019 655.3 -470.952 655.305 -465.666C655.31 -460.38 657.415 -455.308 661.156 -451.567C664.897 -447.826 669.969 -445.721 675.254 -445.716C680.54 -445.711 685.608 -447.806 689.342 -451.541L697.405 -443.478C693.67 -439.744 691.575 -434.676 691.58 -429.391C691.585 -424.105 693.69 -419.033 697.431 -415.292C701.173 -411.55 706.244 -409.446 711.53 -409.441C716.816 -409.436 721.883 -411.531 725.617 -415.265L733.68 -407.203C729.946 -403.469 727.851 -398.401 727.856 -393.115C727.861 -387.829 729.965 -382.757 733.707 -379.016C737.448 -375.275 742.519 -373.171 747.805 -373.166C753.091 -373.161 758.158 -375.256 761.893 -378.99L769.955 -370.928C766.221 -367.193 764.126 -362.125 764.131 -356.839C764.136 -351.553 766.241 -346.482 769.982 -342.741C773.723 -339 778.794 -336.895 784.08 -336.89C789.366 -336.885 794.434 -338.98 798.168 -342.714L806.219 -334.664C802.485 -330.93 800.389 -325.862 800.394 -320.576C800.399 -315.29 802.504 -310.219 806.246 -306.477C809.987 -302.736 815.058 -300.632 820.344 -300.627C825.63 -300.622 830.697 -302.717 834.432 -306.451L842.494 -298.389C838.761 -294.656 836.667 -289.591 836.672 -284.307C836.677 -279.023 838.781 -273.954 842.52 -270.214C846.26 -266.475 851.33 -264.37 856.613 -264.365C861.897 -264.361 866.962 -266.455 870.695 -270.188L890.643 -250.24L495.588 144.815L495.672 144.898L436.236 204.333L436.153 204.25L332.736 307.668L312.782 287.714C316.515 283.981 318.608 278.916 318.603 273.632C318.599 268.348 316.495 263.279 312.755 259.539C309.016 255.8 303.946 253.696 298.663 253.691C293.379 253.686 288.314 255.78 284.581 259.513L276.518 251.45C280.253 247.716 282.348 242.649 282.343 237.363C282.338 232.077 280.233 227.005 276.492 223.263C272.751 219.522 267.679 217.418 262.393 217.413C257.107 217.408 252.04 219.503 248.306 223.238L240.243 215.175C243.977 211.441 246.072 206.373 246.067 201.088C246.063 195.802 243.958 190.729 240.217 186.988C236.476 183.247 231.404 181.143 226.118 181.138C220.832 181.133 215.765 183.228 212.03 186.962L203.968 178.9C207.702 175.166 209.797 170.098 209.792 164.812C209.787 159.526 207.683 154.454 203.942 150.713C200.2 146.972 195.129 144.868 189.843 144.863C184.557 144.858 179.489 146.953 175.755 150.687L167.692 142.625C170.737 139.585 172.714 135.639 173.326 131.378C173.937 127.116 173.151 122.768 171.085 118.986C170.184 117.307 169.044 115.766 167.702 114.414C165.849 112.561 163.65 111.091 161.23 110.087C158.81 109.083 156.217 108.565 153.599 108.563C150.981 108.561 148.388 109.075 145.971 110.076C143.554 111.076 141.358 112.544 139.509 114.394L131.447 106.331C135.181 102.597 137.276 97.5296 137.271 92.2438C137.266 86.9578 135.162 81.8855 131.421 78.1442C127.679 74.403 122.608 72.2991 117.322 72.2942C112.036 72.2893 106.968 74.3843 103.234 78.1186L95.1716 70.0561C98.9057 66.3219 101.001 61.2543 100.996 55.9685C100.991 50.6825 98.8866 45.6102 95.1454 41.8689C91.4041 38.1277 86.3324 36.0238 81.0464 36.0189C75.7604 36.014 70.6931 38.1091 66.9588 41.8433L49.9999 24.8844L607.854 -532.97Z" fill="white"/>
<path d="M839.046 -293.75C837.499 -290.875 836.669 -287.634 836.672 -284.307C836.677 -279.023 838.781 -273.954 842.52 -270.214C846.26 -266.475 851.33 -264.37 856.613 -264.365C861.897 -264.361 866.962 -266.455 870.695 -270.188L890.643 -250.24L495.588 144.815L495.672 144.898L436.235 204.333L436.153 204.25L332.736 307.668L312.782 287.714C316.515 283.981 318.608 278.916 318.603 273.632C318.599 268.348 316.495 263.279 312.755 259.539C309.016 255.8 303.946 253.696 298.663 253.691C295.345 253.688 292.114 254.513 289.245 256.051L839.046 -293.75Z" fill="#56AFDF"/>
<path d="M624.813 -516.011L624.842 -516.04C621.108 -512.306 619.013 -507.239 619.018 -501.953C619.023 -496.667 621.127 -491.596 624.869 -487.854C628.61 -484.113 633.682 -482.008 638.968 -482.003C644.253 -481.998 649.321 -484.093 653.055 -487.828L654.813 -486.07L96.9289 71.8141L95.1716 70.0561C98.9057 66.3219 101.001 61.2543 100.996 55.9685C100.991 50.6825 98.8866 45.6102 95.1454 41.8689C91.4041 38.1277 86.3324 36.0238 81.0464 36.0189C75.7604 36.014 70.6931 38.1091 66.9588 41.8433L49.9999 24.8844L607.854 -532.97L624.813 -516.011Z" fill="#56AFDF"/>
</g>
<path d="M234.339 18.7253C239.399 23.7849 239.328 32.0587 234.181 37.2054C229.035 42.3521 220.761 42.4227 215.701 37.3631C210.642 32.3035 210.712 24.0297 215.859 18.883C221.006 13.7363 229.279 13.6657 234.339 18.7253Z" fill="#EBF0F4"/>
<path d="M224.348 18.0536C229.408 23.1132 229.337 31.387 224.191 36.5337C219.044 41.6804 210.77 41.7511 205.711 36.6915C200.651 31.6319 200.722 23.358 205.868 18.2113C211.015 13.0646 219.289 12.994 224.348 18.0536Z" fill="#EBF0F4"/>
<path fill-rule="evenodd" clip-rule="evenodd" d="M189.168 29.7279C189.429 27.9999 190.796 26.6321 192.524 26.3714L220.054 22.2174C221.277 22.0329 222.505 22.4332 223.37 23.2979L232.981 32.9088C234.499 34.4267 234.478 36.9089 232.934 38.4529L210.568 60.8183C209.024 62.3623 206.542 62.3835 205.024 60.8656L188.539 44.3802C187.674 43.5155 187.274 42.2873 187.458 41.0647L189.168 29.7279ZM208.707 47.1581C207.163 48.7021 207.142 51.1842 208.66 52.7021L213.672 57.7144L219.421 51.9653L214.409 46.953C212.891 45.4351 210.409 45.4563 208.865 47.0003L208.707 47.1581Z" fill="#56AFDF"/>
<path d="M251.916 9.64545L235.075 -7.19486L241.681 -13.8007C245.519 -17.6386 250.055 -17.4758 253.381 -14.1496C256.754 -10.7769 256.824 -6.2412 252.939 -2.35676L249.915 0.667051L255.405 6.15643L251.916 9.64545ZM247.101 -2.14742L249.567 -4.61299C251.637 -6.68314 251.474 -8.84633 249.776 -10.5443C248.101 -12.219 245.961 -12.3586 243.891 -10.2885L241.425 -7.82288L247.101 -2.14742ZM266.448 -4.88653L253.818 -17.5168L257.144 -20.843L259.33 -18.6565L259.47 -18.7961C258.377 -20.8197 258.725 -22.7968 260.144 -24.2157C260.493 -24.5646 260.982 -24.96 261.354 -25.1926L264.424 -22.1223C264.005 -21.8897 263.261 -21.3314 262.773 -20.843C261.214 -19.2845 261.168 -17.0516 262.703 -15.5164L269.89 -8.32902L266.448 -4.88653ZM281.026 -18.9533C277.212 -15.1386 272.211 -15.3945 268.303 -19.3022C264.395 -23.2099 264.163 -28.1876 267.977 -32.0022C271.792 -35.8169 276.793 -35.6075 280.701 -31.6998C284.608 -27.7921 284.841 -22.768 281.026 -18.9533ZM278.375 -21.6515C280.142 -23.4192 279.398 -25.9779 277.188 -28.1876C274.955 -30.4205 272.397 -31.1649 270.629 -29.3971C268.838 -27.6061 269.559 -25.0242 271.792 -22.7912C274.002 -20.5815 276.584 -19.8604 278.375 -21.6515ZM276.276 -39.9748L279.718 -43.4173L292.976 -30.1591C295.884 -27.2516 295.302 -24.251 292.348 -21.297L291.627 -20.6224L288.929 -23.3206C289.115 -23.5067 289.255 -23.5997 289.418 -23.7626C290.534 -24.879 290.441 -25.8095 289.487 -26.7631L276.276 -39.9748ZM276.322 -43.3243C275.275 -42.2776 273.647 -42.2311 272.694 -43.1847C271.717 -44.1617 271.763 -45.7899 272.81 -46.8366C273.833 -47.86 275.462 -47.9065 276.438 -46.9296C277.392 -45.976 277.346 -44.3477 276.322 -43.3243ZM300.763 -38.69C296.902 -34.8288 292.017 -34.9683 288.016 -38.9691C284.109 -42.8768 283.876 -47.901 287.574 -51.5993C290.901 -54.9255 295.599 -55.4372 299.902 -51.1341L300.879 -50.1572L292.25 -41.5277C294.157 -39.6204 296.483 -39.5738 298.251 -41.3416C299.414 -42.5046 299.739 -43.8537 299.321 -44.9702L302.6 -48.2499C304.438 -45.4354 303.88 -41.8068 300.763 -38.69ZM290.087 -43.6909L295.46 -49.064C293.924 -50.5991 291.761 -50.6224 290.226 -49.0872C288.644 -47.5055 288.691 -45.2028 290.087 -43.6909ZM314.155 -52.0822C310.294 -48.221 305.293 -48.5699 301.432 -52.4311C297.571 -56.2923 297.268 -61.2932 301.106 -65.1311C304.363 -68.3875 308.48 -68.6899 311.503 -65.9452L308.27 -62.7121C306.805 -63.7588 305.13 -63.8053 303.828 -62.5027C302.176 -60.8512 302.479 -58.3624 304.874 -55.9666C307.317 -53.5243 309.782 -53.1987 311.457 -54.8734C312.667 -56.0829 312.829 -57.7344 311.69 -59.2928L314.923 -62.526C317.621 -59.5022 317.505 -55.4316 314.155 -52.0822ZM315.429 -79.1281L318.011 -76.5462L315.638 -74.1737L321.802 -68.0098C322.802 -67.0096 323.547 -67.2422 324.268 -67.9167C324.617 -68.2656 325.198 -68.8937 325.57 -69.3589L328.292 -66.6374C327.989 -66.1955 327.431 -65.5442 326.57 -64.6836C324.082 -62.1947 321.267 -61.6132 318.848 -64.0788L312.196 -70.7312L310.451 -68.9867L307.869 -71.5686L309.614 -73.3131L306.59 -76.3369L310.033 -79.7794L313.056 -76.7556L315.429 -79.1281ZM335.305 -73.7439L318.465 -90.5842L321.954 -94.0732L328.932 -87.0951L336.235 -94.3988L329.257 -101.377L332.77 -104.889L349.61 -88.0488L346.098 -84.5365L339.12 -91.5146L331.816 -84.2109L338.794 -77.2329L335.305 -73.7439Z" fill="#56AFDF"/>
<path d="M354.373 -92.3929C353.28 -91.2996 351.512 -91.2996 350.465 -92.3929C349.372 -93.4396 349.395 -95.1841 350.488 -96.2773C351.512 -97.3007 353.28 -97.3473 354.35 -96.2773C355.419 -95.2073 355.396 -93.4163 354.373 -92.3929Z" fill="#EBF0F4"/>
<path d="M239.616 86.2733L244.668 91.3254L243.963 92.0302L237.711 90.8997L237.669 90.9416L241.36 94.633L240.592 95.4005L235.54 90.3485L236.252 89.6367L242.511 90.7741L242.56 90.7253L238.862 87.0269L239.616 86.2733ZM244.538 89.3193C243.673 88.4541 244.183 87.4981 244.818 86.7654C245.051 86.4967 245.589 85.8966 245.76 85.7117L245.453 85.4186C245.027 84.993 244.517 84.9999 244.008 85.5093C243.568 85.9489 243.506 86.4165 243.708 86.7724L242.968 87.512C242.41 86.8142 242.543 85.7745 243.436 84.8813C244.036 84.2812 245.145 83.6183 246.241 84.7138L248.76 87.2329L248.034 87.9586L247.518 87.4422L247.49 87.4702C247.63 87.9028 247.595 88.5657 246.967 89.1937C246.248 89.9125 245.278 90.059 244.538 89.3193ZM245.271 88.6006C245.634 88.9635 246.122 88.8518 246.541 88.4331C247.148 87.826 247.106 87.0585 246.653 86.6049L246.304 86.256L245.473 87.212C245.02 87.7353 244.894 88.2238 245.271 88.6006ZM249.803 86.1898L246.014 82.4008L246.733 81.682L247.354 82.3031L247.396 82.2612C247.131 81.675 247.256 81.061 247.759 80.5586C248.261 80.0561 248.868 79.9515 249.447 80.2097L249.489 80.1678C249.259 79.5747 249.405 78.9117 249.957 78.3605C250.641 77.6766 251.562 77.6208 252.427 78.4861L254.967 81.0261L254.22 81.7727L251.75 79.3025C251.241 78.7931 250.703 78.8978 250.313 79.2886C249.831 79.77 249.887 80.3702 250.341 80.8237L252.755 83.2381L252.015 83.9778L249.503 81.4657C249.091 81.054 248.533 81.068 248.128 81.4727C247.71 81.8914 247.703 82.5961 248.212 83.1055L250.55 85.4432L249.803 86.1898ZM257.72 78.4269C256.603 79.5434 255.152 79.4597 253.972 78.2804C252.807 77.115 252.702 75.6148 253.756 74.5611C254.621 73.6958 255.975 73.4167 257.343 74.7844L257.608 75.0495L254.914 77.7431C255.654 78.4409 256.488 78.4304 257.113 77.8059C257.538 77.3802 257.629 76.9266 257.524 76.5708L258.278 75.8171C258.724 76.5987 258.55 77.5965 257.72 78.4269ZM254.363 77.1778L256.317 75.224C255.738 74.6448 254.949 74.596 254.377 75.1682C253.781 75.7648 253.854 76.6126 254.363 77.1778Z" fill="#40424D"/>
<path d="M260.696 75.3951C260.423 75.6672 259.97 75.6742 259.705 75.3951C259.426 75.1299 259.433 74.6764 259.705 74.4042C259.97 74.1391 260.423 74.1321 260.696 74.4042C260.968 74.6764 260.961 75.1299 260.696 75.3951Z" fill="#56AFDF"/>
<path d="M255.521 111.361L338.885 27.9972" stroke="#56AFDF" stroke-width="1.68421"/>
<path d="M294.037 145.565L292.397 147.205L287.345 142.153L289.034 140.464C290.52 138.978 292.362 139.034 293.932 140.604C295.509 142.181 295.572 144.03 294.037 145.565ZM292.495 145.768L293.325 144.937C294.47 143.793 294.365 142.558 293.172 141.365C291.985 140.178 290.757 140.081 289.655 141.183L288.783 142.055L292.495 145.768ZM296.169 141.298C295.303 140.433 295.813 139.477 296.448 138.745C296.682 138.476 297.219 137.876 297.39 137.691L297.083 137.398C296.657 136.972 296.148 136.979 295.638 137.488C295.199 137.928 295.136 138.396 295.338 138.751L294.599 139.491C294.04 138.793 294.173 137.754 295.066 136.86C295.666 136.26 296.776 135.597 297.871 136.693L300.39 139.212L299.665 139.938L299.148 139.421L299.12 139.449C299.26 139.882 299.225 140.545 298.597 141.173C297.878 141.892 296.908 142.038 296.169 141.298ZM296.901 140.58C297.264 140.943 297.753 140.831 298.171 140.412C298.778 139.805 298.737 139.038 298.283 138.584L297.934 138.235L297.104 139.191C296.65 139.714 296.525 140.203 296.901 140.58ZM299.417 132.607L300.01 133.201L299.235 133.975L301.315 136.055C301.74 136.48 302.034 136.341 302.278 136.11C302.382 136.006 302.536 135.824 302.634 135.713L303.283 136.362C303.192 136.48 303.045 136.655 302.843 136.857C302.257 137.443 301.412 137.646 300.729 136.948L298.496 134.715L297.937 135.273L297.344 134.68L297.903 134.122L296.995 133.215L297.735 132.475L298.642 133.382L299.417 132.607ZM305.742 134.014C304.626 135.13 303.174 135.046 301.995 133.867C300.83 132.702 300.725 131.202 301.779 130.148C302.644 129.283 303.998 129.003 305.365 130.371L305.631 130.636L302.937 133.33C303.677 134.028 304.511 134.017 305.135 133.393C305.561 132.967 305.652 132.513 305.547 132.158L306.3 131.404C306.747 132.185 306.573 133.183 305.742 134.014ZM302.386 132.765L304.34 130.811C303.76 130.232 302.972 130.183 302.4 130.755C301.803 131.352 301.876 132.199 302.386 132.765Z" fill="#40424D"/>
<path d="M308.718 130.982C308.446 131.254 307.992 131.261 307.727 130.982C307.448 130.717 307.455 130.263 307.727 129.991C307.992 129.726 308.446 129.719 308.718 129.991C308.99 130.263 308.983 130.717 308.718 130.982Z" fill="#56AFDF"/>
<path d="M310.796 156.756L320.9 166.86L319.072 168.688L310.74 160.357L310.684 160.413L309.833 164.278L308.172 162.618L309.052 158.501L310.796 156.756ZM317.641 149.911L327.745 160.015L325.917 161.843L317.585 153.512L317.53 153.567L316.678 157.433L315.018 155.772L315.897 151.655L317.641 149.911ZM324.04 142.563L332.888 157.915L331.325 159.478L322.491 144.112L324.04 142.563ZM335.895 151.865L334.583 150.553L334.709 143.533C334.709 141.496 334.639 140.365 333.788 139.514C332.853 138.579 331.513 138.719 330.522 139.71C329.475 140.756 329.461 142.082 330.494 143.087L328.764 144.817C326.838 142.919 327.033 140.24 329.057 138.216C331.122 136.151 333.746 135.983 335.449 137.686C336.593 138.83 336.956 140.31 336.844 144.162L336.83 147.748L336.9 147.818L341.394 143.324L342.915 144.845L335.895 151.865ZM338.791 128.761L348.895 138.865L347.067 140.694L338.735 132.362L338.679 132.418L337.828 136.284L336.167 134.623L337.046 130.506L338.791 128.761ZM346.711 130.192C346.669 129.229 346.99 128.378 347.632 127.736C348.748 126.619 350.493 126.438 351.609 125.321C352.251 124.679 352.544 123.856 352.46 122.879L353.982 124.4C354.038 125.377 353.703 126.215 353.061 126.857C351.944 127.973 350.186 128.168 349.083 129.271C348.441 129.913 348.148 130.736 348.232 131.713L346.711 130.192ZM355.133 112.419L365.237 122.523L363.409 124.352L355.077 116.02L355.021 116.076L354.17 119.942L352.509 118.281L353.388 114.164L355.133 112.419ZM361.978 105.574L372.082 115.678L370.254 117.507L361.922 109.175L361.866 109.231L361.015 113.096L359.354 111.436L360.233 107.319L361.978 105.574ZM368.377 98.2266L377.225 113.578L375.662 115.141L366.827 99.7757L368.377 98.2266ZM380.232 107.529L378.92 106.217L379.046 99.1968C379.046 97.1592 378.976 96.0288 378.125 95.1774C377.189 94.2424 375.85 94.3819 374.859 95.3728C373.812 96.4195 373.798 97.7453 374.831 98.7502L373.1 100.481C371.174 98.5827 371.37 95.9031 373.393 93.8795C375.459 91.814 378.083 91.6466 379.785 93.3492C380.93 94.4936 381.293 95.9729 381.181 99.8248L381.167 103.412L381.237 103.481L385.731 98.9874L387.252 100.509L380.232 107.529ZM392.939 95.1009C390.775 97.2641 388.068 97.627 386.323 95.9662L388.152 94.138C389.017 94.8916 390.357 94.6125 391.403 93.5658C392.52 92.4493 392.701 91.0397 391.808 90.1465C390.901 89.2394 389.464 89.365 388.152 90.6769L387.245 91.584L385.849 90.1884L386.756 89.2813C387.831 88.2067 387.984 86.8529 387.091 85.9876C386.254 85.1224 385.04 85.1921 384.049 86.183C383.1 87.132 382.807 88.4858 383.63 89.365L381.885 91.1095C380.225 89.365 380.601 86.6715 382.583 84.6897C384.635 82.6382 387.217 82.5684 388.752 84.1315C389.896 85.248 389.966 86.825 389.087 88.1508L389.17 88.2346C390.789 87.0064 392.506 87.1041 393.762 88.3881C395.479 90.0768 395.13 92.9098 392.939 95.1009Z" fill="#56AFDF"/>
<defs>
<filter id="filter0_d_4723_3735" x="0" y="-572.97" width="920.643" height="920.638" filterUnits="userSpaceOnUse" color-interpolation-filters="sRGB">
<feFlood flood-opacity="0" result="BackgroundImageFix"/>
<feColorMatrix in="SourceAlpha" type="matrix" values="0 0 0 0 0 0 0 0 0 0 0 0 0 0 0 0 0 0 127 0" result="hardAlpha"/>
<feOffset dx="-10"/>
<feGaussianBlur stdDeviation="20"/>
<feComposite in2="hardAlpha" operator="out"/>
<feColorMatrix type="matrix" values="0 0 0 0 0.0392157 0 0 0 0 0.0588235 0 0 0 0 0.0823529 0 0 0 0.1 0"/>
<feBlend mode="normal" in2="BackgroundImageFix" result="effect1_dropShadow_4723_3735"/>
<feBlend mode="normal" in="SourceGraphic" in2="effect1_dropShadow_4723_3735" result="shape"/>
</filter>
</defs>
</svg>
