<svg width="542" height="250" viewBox="0 0 542 250" fill="none" xmlns="http://www.w3.org/2000/svg">
<g filter="url(#filter0_d_4723_2899)">
<rect x="16" y="12" width="510" height="218" rx="40" fill="white" fill-opacity="0.2" shape-rendering="crispEdges"/>
<rect x="17" y="13" width="508" height="216" rx="39" stroke="white" stroke-width="2" shape-rendering="crispEdges"/>
<circle cx="60" cy="68" r="12" fill="white"/>
<path d="M135.531 57.4062C135.531 61.7812 139.812 66.1562 145.719 67.1875L144.156 70.0938C139.422 69.0938 135.547 66.2344 133.719 62.4375C131.844 66.2031 127.969 69.0781 123.25 70.0938L121.719 67.1875C127.562 66.125 131.812 61.75 131.844 57.4062V55.3125H135.531V57.4062ZM146.75 75.3125V78.1875H120.938V75.3125H146.75ZM160.734 56.7812V59.5312H153.484V64.375H159.546V67.0625H153.484V72.5312C156.843 72.5 159.156 72.3438 161.921 71.875L162.234 74.6562C158.984 75.2812 156.296 75.3438 152.015 75.3438H150.171V56.7812H160.734ZM173.609 53.5312V81.7812H170.234V53.5312H173.609ZM167.671 54.0938V80.4062H164.421V66.7812H160.921V63.9688H164.421V54.0938H167.671ZM201.03 53.5312V81.8125H197.53V53.5312H201.03ZM185.811 55.5938C190.061 55.5938 193.155 59.4688 193.186 65.5625C193.155 71.7188 190.061 75.5625 185.811 75.5625C181.53 75.5625 178.436 71.7188 178.436 65.5625C178.436 59.4688 181.53 55.5938 185.811 55.5938ZM185.811 58.7188C183.405 58.7188 181.78 61.25 181.78 65.5625C181.78 69.9062 183.405 72.4375 185.811 72.4375C188.186 72.4375 189.811 69.9062 189.811 65.5625C189.811 61.25 188.186 58.7188 185.811 58.7188Z" fill="white"/>
<path d="M139.484 127.961V141.836H129.453V127.961H139.484ZM132.008 130V139.75H136.883V130H132.008ZM145.297 125.898V134.031H148.555V136.234H145.297V147.086H142.695V125.898H145.297ZM159.558 126.32C164.246 126.32 167.175 127.867 167.199 130.445C167.175 132.977 164.246 134.5 159.558 134.477C154.917 134.5 151.917 132.977 151.917 130.445C151.917 127.867 154.917 126.32 159.558 126.32ZM159.558 128.359C156.464 128.359 154.613 129.086 154.636 130.445C154.613 131.734 156.464 132.438 159.558 132.461C162.652 132.438 164.503 131.734 164.503 130.445C164.503 129.086 162.652 128.359 159.558 128.359ZM166.894 139.703V146.828H152.199V139.703H166.894ZM154.777 141.766V144.719H164.363V141.766H154.777ZM169.238 135.906V138.016H149.925V135.906H169.238ZM178.015 127.375C181.366 127.352 183.827 129.484 183.851 132.484C183.827 135.508 181.366 137.617 178.015 137.617C174.687 137.617 172.202 135.508 172.202 132.484C172.202 129.484 174.687 127.352 178.015 127.375ZM178.015 129.625C176.163 129.625 174.78 130.727 174.78 132.484C174.78 134.266 176.163 135.344 178.015 135.344C179.89 135.344 181.296 134.266 181.296 132.484C181.296 130.727 179.89 129.625 178.015 129.625ZM188.796 125.898V147.109H186.194V125.898H188.796ZM171.241 140.547C175.062 140.547 180.358 140.5 184.929 139.844L185.14 141.742C180.382 142.656 175.296 142.68 171.569 142.68L171.241 140.547ZM215.842 127.844V129.883C215.818 132.508 215.818 135.461 214.998 139.891L212.373 139.609C213.193 135.484 213.193 132.473 213.217 129.93H200.561V127.844H215.842ZM217.857 142.211V144.344H198.545V142.211H205.67V134.852H208.248V142.211H217.857ZM239.361 129.203V131.336H236.478V133.75H239.361V135.883H236.478V139.422H233.877V125.898H236.478V129.203H239.361ZM229.634 139.609C233.97 139.609 236.713 140.992 236.713 143.336C236.713 145.656 233.97 147.062 229.634 147.062C225.228 147.062 222.533 145.656 222.556 143.336C222.533 140.992 225.228 139.609 229.634 139.609ZM229.634 141.602C226.728 141.602 225.111 142.164 225.134 143.336C225.111 144.461 226.728 145.094 229.634 145.094C232.494 145.094 234.111 144.461 234.111 143.336C234.111 142.164 232.494 141.602 229.634 141.602ZM232.353 128.055V130.094H219.791V128.055H224.783V125.758H227.384V128.055H232.353ZM226.072 130.938C229.142 130.938 231.228 132.461 231.252 134.734C231.228 137.008 229.142 138.508 226.072 138.508C222.978 138.508 220.869 137.008 220.869 134.734C220.869 132.461 222.978 130.938 226.072 130.938ZM226.072 132.859C224.455 132.859 223.4 133.562 223.4 134.734C223.4 135.883 224.455 136.539 226.072 136.539C227.689 136.539 228.767 135.883 228.767 134.734C228.767 133.562 227.689 132.859 226.072 132.859ZM258.614 125.898V147.109H255.989V125.898H258.614ZM247.2 127.445C250.388 127.445 252.708 130.352 252.732 134.922C252.708 139.539 250.388 142.422 247.2 142.422C243.989 142.422 241.669 139.539 241.669 134.922C241.669 130.352 243.989 127.445 247.2 127.445ZM247.2 129.789C245.396 129.789 244.177 131.688 244.177 134.922C244.177 138.18 245.396 140.078 247.2 140.078C248.982 140.078 250.2 138.18 250.2 134.922C250.2 131.688 248.982 129.789 247.2 129.789ZM285.098 125.898V130.492H288.051V132.625H285.098V137.078H282.496V125.898H285.098ZM279.379 127.375C279.356 132.859 275.817 136.211 269.442 137.477L268.34 135.391C273.637 134.418 276.156 132.121 276.473 129.438H269.348V127.375H279.379ZM285.168 137.945V139.867H273.942V141.414H284.957V143.289H273.942V144.883H285.66V146.828H271.317V137.945H285.168ZM308.922 136.844V138.93H289.609V136.844H308.922ZM306.742 144.555V146.664H292V140.5H294.601V144.555H306.742ZM299.242 126.578C303.859 126.578 306.859 128.195 306.883 130.867C306.859 133.562 303.859 135.203 299.242 135.203C294.625 135.203 291.601 133.562 291.601 130.867C291.601 128.195 294.625 126.578 299.242 126.578ZM299.242 128.664C296.172 128.664 294.297 129.461 294.32 130.867C294.297 132.297 296.172 133.094 299.242 133.07C302.336 133.094 304.187 132.297 304.187 130.867C304.187 129.461 302.336 128.664 299.242 128.664ZM324.577 130.984C324.553 134.758 326.452 138.602 329.733 140.172L328.139 142.258C325.842 141.098 324.19 138.859 323.288 136.164C322.362 139.047 320.628 141.438 318.202 142.656L316.608 140.57C320.007 138.953 321.952 134.898 321.975 130.984V127.609H324.577V130.984ZM333.6 125.898V134.195H336.858V136.422H333.6V147.086H330.999V125.898H333.6ZM354.94 125.922V131.078H357.916V133.258H354.94V138.508H352.338V125.922H354.94ZM354.94 139.445V146.828H341.229V139.445H354.94ZM343.783 141.484V144.719H352.385V141.484H343.783ZM348.705 127V133.211H341.651V135.484C345.248 135.473 347.709 135.355 350.604 134.875L350.885 136.938C347.721 137.523 344.979 137.617 340.783 137.617H339.049V131.242H346.151V129.086H339.026V127H348.705ZM378.787 134.383V136.445H359.451V134.383H378.787ZM376.49 130.961V133.023H361.912V126.438H376.303V128.523H364.513V130.961H376.49ZM376.349 137.898V143.219H364.303V144.836H376.935V146.875H361.748V141.344H373.795V139.867H361.724V137.898H376.349ZM398.298 125.898V147.109H395.673V125.898H398.298ZM386.884 127.445C390.072 127.445 392.392 130.352 392.415 134.922C392.392 139.539 390.072 142.422 386.884 142.422C383.673 142.422 381.353 139.539 381.353 134.922C381.353 130.352 383.673 127.445 386.884 127.445ZM386.884 129.789C385.079 129.789 383.861 131.688 383.861 134.922C383.861 138.18 385.079 140.078 386.884 140.078C388.665 140.078 389.884 138.18 389.884 134.922C389.884 131.688 388.665 129.789 386.884 129.789ZM145.297 166.898V175.172H148.438V177.352H145.297V188.039H142.695V166.898H145.297ZM139.695 169.102C139.695 175.336 137.117 180.797 130.062 184.266L128.586 182.25C133.742 179.684 136.531 176.074 137.07 171.258H129.734V169.102H139.695ZM167.503 167.719V169.781H161.386C161.703 171.586 164.304 173.238 168.324 173.648L167.363 175.688C163.554 175.277 160.707 173.742 159.558 171.586C158.41 173.742 155.597 175.277 151.777 175.688L150.863 173.648C154.835 173.238 157.402 171.574 157.753 169.781H151.683V167.719H167.503ZM169.238 177.328V179.414H149.925V177.328H158.269V174.398H160.847V177.328H169.238ZM166.871 181.125V188.086H164.269V183.211H152.058V181.125H166.871ZM188.913 166.898V188.109H186.312V177.281H182.21V175.172H186.312V166.898H188.913ZM178.882 173.625C178.858 176.836 180.78 180.258 184.132 181.734L182.726 183.727C180.3 182.695 178.542 180.574 177.616 178.031C176.679 180.727 174.933 182.988 172.507 184.078L171.101 182.062C174.405 180.562 176.28 176.953 176.28 173.625V172.523H171.733V170.438H176.304V167.344H178.905V170.438H183.335V172.523H178.882V173.625ZM210.112 180.352V187.828H195.932V180.352H210.112ZM198.534 182.391V185.719H207.534V182.391H198.534ZM210.112 166.922V179.367H207.51V173.531H203.901V171.422H207.51V166.922H210.112ZM202.729 167.93V174.188H195.815V176.555C199.108 176.531 201.534 176.426 204.346 175.992L204.534 178.102C201.417 178.617 198.721 178.688 194.901 178.688H193.237V172.219H200.174V170.039H193.19V167.93H202.729ZM236.478 166.898V173.109H239.431V175.266H236.478V182.391H233.877V166.898H236.478ZM237.322 185.555V187.664H222.908V180.773H225.509V185.555H237.322ZM225.72 168.305C228.931 168.305 231.416 170.531 231.439 173.648C231.416 176.719 228.931 178.969 225.72 178.969C222.509 178.969 219.978 176.719 220.002 173.648C219.978 170.531 222.509 168.305 225.72 168.305ZM225.72 170.578C223.939 170.578 222.533 171.773 222.556 173.648C222.533 175.477 223.939 176.672 225.72 176.672C227.502 176.672 228.884 175.477 228.884 173.648C228.884 171.773 227.502 170.578 225.72 170.578ZM260.325 179.227V181.289H251.888V188.086H249.31V181.289H240.966V179.227H260.325ZM245.888 167.742V170.344H255.357V167.742H257.982V177.023H243.31V167.742H245.888ZM245.888 174.914H255.357V172.406H245.888V174.914ZM281.548 176.508V178.477H262.188V176.508H281.548ZM279.204 179.742V184.57H267.063V186.047H279.837V187.852H264.462V182.883H276.626V181.57H264.438V179.742H279.204ZM279.157 167.367V172.148H267.227V173.531H279.532V175.312H264.649V170.461H276.555V169.172H264.579V167.367H279.157ZM309.343 175.078V177.211H306.203V188.039H303.601V166.898H306.203V175.078H309.343ZM292.937 168.961V180.656C295.761 180.609 298.773 180.363 301.961 179.695L302.242 181.898C298.679 182.602 295.281 182.812 292.14 182.812H290.359V168.961H292.937ZM328.081 173.695V175.805H313.269V167.906H315.87V173.695H328.081ZM330.191 178.477V180.609H321.73V188.086H319.105V180.609H310.831V178.477H330.191ZM349.35 168.844V170.883C349.327 173.508 349.327 176.461 348.507 180.891L345.882 180.609C346.702 176.484 346.702 173.473 346.725 170.93H334.069V168.844H349.35ZM351.366 183.211V185.344H332.053V183.211H339.178V175.852H341.757V183.211H351.366ZM378.81 183.352V185.461H359.451V183.352H367.748V178.453H370.326V183.352H378.81ZM370.396 169.734C370.396 172.945 373.607 176.109 378.06 176.812L376.935 178.969C373.349 178.289 370.42 176.238 369.013 173.461C367.607 176.227 364.701 178.312 361.138 178.969L360.013 176.812C364.443 176.109 367.607 172.922 367.631 169.734V168.188H370.396V169.734ZM399.986 177.914V179.977H380.626V177.914H388.993V176.344H383.111V167.461H397.665V169.477H385.712V170.93H397.15V172.852H385.712V174.352H397.829V176.344H391.595V177.914H399.986ZM390.306 181.148C394.97 181.148 397.618 182.391 397.642 184.594C397.618 186.867 394.97 188.062 390.306 188.062C385.572 188.062 382.923 186.867 382.923 184.594C382.923 182.391 385.572 181.148 390.306 181.148ZM390.306 183.094C387.118 183.094 385.525 183.586 385.525 184.594C385.525 185.625 387.118 186.117 390.306 186.117C393.447 186.117 395.017 185.625 395.04 184.594C395.017 183.586 393.447 183.094 390.306 183.094ZM418.489 166.898V175.336H421.747V177.492H418.489V188.086H415.911V166.898H418.489ZM414.27 170.156V172.242H401.778V170.156H406.794V167.203H409.395V170.156H414.27ZM408.106 173.625C411.153 173.625 413.427 175.688 413.427 178.617C413.427 181.547 411.153 183.586 408.106 183.586C405.013 183.586 402.739 181.547 402.763 178.617C402.739 175.688 405.013 173.625 408.106 173.625ZM408.106 175.758C406.442 175.758 405.247 176.883 405.247 178.617C405.247 180.352 406.442 181.453 408.106 181.43C409.723 181.453 410.919 180.352 410.942 178.617C410.919 176.883 409.723 175.758 408.106 175.758ZM440.274 172.898V174.961H425.602V167.672H428.18V172.898H440.274ZM442.453 177.422V179.484H423.094V177.422H442.453ZM440.414 185.484V187.594H425.414V181.359H428.016V185.484H440.414ZM467.437 167.906V169.5C467.437 171.117 467.437 172.945 466.921 175.336L464.32 175.078C464.788 172.957 464.835 171.387 464.835 169.945H452.765V167.906H467.437ZM469.781 176.602V178.664H450.562V176.602H458.015V172.547H460.593V176.602H469.781ZM461.39 180.844C461.39 183.234 463.968 185.414 468.421 185.977L467.46 187.969C464.015 187.5 461.39 186.07 460.078 184.031C458.753 186.07 456.128 187.5 452.718 187.969L451.781 185.977C456.163 185.414 458.742 183.234 458.765 180.844V180.07H461.39V180.844ZM474.315 186.188C473.307 186.188 472.487 185.367 472.487 184.359C472.487 183.375 473.307 182.555 474.315 182.555C475.276 182.555 476.12 183.375 476.12 184.359C476.12 185.367 475.276 186.188 474.315 186.188Z" fill="white"/>
</g>
<defs>
<filter id="filter0_d_4723_2899" x="0" y="0" width="542" height="250" filterUnits="userSpaceOnUse" color-interpolation-filters="sRGB">
<feFlood flood-opacity="0" result="BackgroundImageFix"/>
<feColorMatrix in="SourceAlpha" type="matrix" values="0 0 0 0 0 0 0 0 0 0 0 0 0 0 0 0 0 0 127 0" result="hardAlpha"/>
<feOffset dy="4"/>
<feGaussianBlur stdDeviation="8"/>
<feComposite in2="hardAlpha" operator="out"/>
<feColorMatrix type="matrix" values="0 0 0 0 0 0 0 0 0 0 0 0 0 0 0 0 0 0 0.1 0"/>
<feBlend mode="normal" in2="BackgroundImageFix" result="effect1_dropShadow_4723_2899"/>
<feBlend mode="normal" in="SourceGraphic" in2="effect1_dropShadow_4723_2899" result="shape"/>
</filter>
</defs>
</svg>
