<svg width="542" height="250" viewBox="0 0 542 250" fill="none" xmlns="http://www.w3.org/2000/svg">
<g filter="url(#filter0_d_4723_2906)">
<rect x="16" y="12" width="510" height="218" rx="40" fill="white" fill-opacity="0.2" shape-rendering="crispEdges"/>
<rect x="17" y="13" width="508" height="216" rx="39" stroke="white" stroke-width="2" shape-rendering="crispEdges"/>
<circle cx="60" cy="68" r="12" fill="white"/>
<path d="M143.219 53.5312V59.6562H147.156V62.5H143.219V68.4375H139.75V53.5312H143.219ZM135.594 55.5C135.562 62.8125 130.844 67.2812 122.344 68.9688L120.875 66.1875C127.938 64.8906 131.297 61.8281 131.719 58.25H122.219V55.5H135.594ZM143.312 69.5938V72.1562H128.344V74.2188H143.031V76.7188H128.344V78.8438H143.969V81.4375H124.844V69.5938H143.312ZM174.984 68.125V70.9062H149.234V68.125H174.984ZM172.077 78.4062V81.2188H152.421V73H155.89V78.4062H172.077ZM162.077 54.4375C168.234 54.4375 172.234 56.5938 172.265 60.1562C172.234 63.75 168.234 65.9375 162.077 65.9375C155.921 65.9375 151.89 63.75 151.89 60.1562C151.89 56.5938 155.921 54.4375 162.077 54.4375ZM162.077 57.2188C157.984 57.2188 155.484 58.2812 155.515 60.1562C155.484 62.0625 157.984 63.125 162.077 63.0938C166.202 63.125 168.671 62.0625 168.671 60.1562C168.671 58.2812 166.202 57.2188 162.077 57.2188ZM208.826 56.125V58.8438C208.795 62.3438 208.795 66.2812 207.701 72.1875L204.201 71.8125C205.295 66.3125 205.295 62.2969 205.326 58.9062H188.451V56.125H208.826ZM211.514 75.2812V78.125H185.764V75.2812H195.264V65.4688H198.701V75.2812H211.514ZM240.185 57.9375V60.7812H236.341V64H240.185V66.8438H236.341V71.5625H232.872V53.5312H236.341V57.9375H240.185ZM227.216 71.8125C232.997 71.8125 236.654 73.6562 236.654 76.7812C236.654 79.875 232.997 81.75 227.216 81.75C221.341 81.75 217.747 79.875 217.779 76.7812C217.747 73.6562 221.341 71.8125 227.216 71.8125ZM227.216 74.4688C223.341 74.4688 221.185 75.2188 221.216 76.7812C221.185 78.2812 223.341 79.125 227.216 79.125C231.029 79.125 233.185 78.2812 233.185 76.7812C233.185 75.2188 231.029 74.4688 227.216 74.4688ZM230.841 56.4062V59.125H214.091V56.4062H220.747V53.3438H224.216V56.4062H230.841ZM222.466 60.25C226.56 60.25 229.341 62.2812 229.372 65.3125C229.341 68.3438 226.56 70.3438 222.466 70.3438C218.341 70.3438 215.529 68.3438 215.529 65.3125C215.529 62.2812 218.341 60.25 222.466 60.25ZM222.466 62.8125C220.31 62.8125 218.904 63.75 218.904 65.3125C218.904 66.8438 220.31 67.7188 222.466 67.7188C224.622 67.7188 226.06 66.8438 226.06 65.3125C226.06 63.75 224.622 62.8125 222.466 62.8125ZM265.027 56.3125C264.996 64.8438 262.496 72.1562 252.371 77.375L250.465 74.7188C255.152 72.2969 258.074 69.4844 259.746 66.125L251.09 66.9375L250.59 63.9688L260.84 63.3438C261.215 62.0156 261.449 60.6094 261.559 59.125H252.059V56.3125H265.027ZM274.246 53.5312V81.7812H270.777V67.4062H264.965V64.5625H270.777V53.5312H274.246ZM304.667 69.4688V72.2812H298.605V81.875H295.136V72.2812H288.542V81.875H285.042V72.2812H278.855V69.4688H304.667ZM301.511 54.9688V66.1875H282.011V54.9688H301.511ZM285.417 57.7188V63.4062H298.042V57.7188H285.417ZM330.745 53.5312V81.7812H327.307V53.5312H330.745ZM312.245 56.2812V71.7188C316.214 71.6562 320.432 71.2969 324.776 70.4375L325.214 73.3438C320.245 74.375 315.62 74.6875 311.245 74.6875H308.807V56.2812H312.245ZM351.26 55.9688V58.8125H340.541V63.8438H350.135V66.5938H340.541V72.4062C345.166 72.3906 348.697 72.2344 352.76 71.5625L353.104 74.375C348.666 75.0625 344.697 75.2188 339.479 75.2188H337.104V55.9688H351.26ZM359.072 53.5312V81.7812H355.572V53.5312H359.072Z" fill="white"/>
<path d="M159.039 136.047V138.133H139.703V136.047H148.094V134.031H142.07V126.859H156.695V128.898H144.672V131.969H156.812V134.031H150.648V136.047H159.039ZM149.336 139.352C153.906 139.352 156.648 140.734 156.672 143.219C156.648 145.68 153.906 147.086 149.336 147.086C144.719 147.086 141.953 145.68 141.953 143.219C141.953 140.734 144.719 139.352 149.336 139.352ZM149.336 141.344C146.242 141.344 144.578 142 144.602 143.219C144.578 144.438 146.242 145.07 149.336 145.07C152.359 145.07 154.047 144.438 154.07 143.219C154.047 142 152.359 141.344 149.336 141.344ZM179.042 125.898V139.211H176.558V133.445H174.496V138.508H172.058V126.32H174.496V131.336H176.558V125.898H179.042ZM171.355 128.195V130.234H160.808V128.195H164.816V126.086H167.394V128.195H171.355ZM166.105 131.102C168.8 131.102 170.699 132.555 170.722 134.758C170.699 136.961 168.8 138.414 166.105 138.414C163.457 138.414 161.535 136.961 161.558 134.758C161.535 132.555 163.457 131.102 166.105 131.102ZM166.105 132.977C164.792 132.977 163.878 133.656 163.878 134.758C163.878 135.859 164.769 136.539 166.105 136.539C167.441 136.539 168.355 135.859 168.355 134.758C168.355 133.656 167.441 132.977 166.105 132.977ZM171.894 139.469C176.417 139.469 179.136 140.852 179.16 143.289C179.136 145.68 176.417 147.062 171.894 147.062C167.371 147.062 164.628 145.68 164.628 143.289C164.628 140.852 167.371 139.469 171.894 139.469ZM171.894 141.461C168.871 141.438 167.23 142.047 167.23 143.289C167.23 144.461 168.871 145.07 171.894 145.07C174.894 145.07 176.535 144.461 176.535 143.289C176.535 142.047 174.894 141.438 171.894 141.461ZM198.858 125.852V130.633H201.835V132.742H198.858V137.406H196.257V125.852H198.858ZM198.858 138.344V143.453H187.608V144.953H199.515V146.898H185.03V141.648H196.257V140.242H185.007V138.344H198.858ZM194.733 127.609V129.602H182.171V127.609H187.163V125.734H189.765V127.609H194.733ZM188.452 130.258C191.593 130.281 193.608 131.617 193.632 133.727C193.608 135.906 191.593 137.195 188.452 137.195C185.312 137.195 183.249 135.906 183.249 133.727C183.249 131.617 185.312 130.281 188.452 130.258ZM188.452 132.133C186.812 132.133 185.78 132.719 185.78 133.727C185.78 134.758 186.812 135.32 188.452 135.32C190.093 135.32 191.147 134.758 191.147 133.727C191.147 132.719 190.093 132.133 188.452 132.133ZM226.842 127.844V129.883C226.818 132.508 226.818 135.461 225.998 139.891L223.373 139.609C224.193 135.484 224.193 132.473 224.217 129.93H211.561V127.844H226.842ZM228.857 142.211V144.344H209.545V142.211H216.67V134.852H219.248V142.211H228.857ZM250.361 129.203V131.336H247.478V133.75H250.361V135.883H247.478V139.422H244.877V125.898H247.478V129.203H250.361ZM240.634 139.609C244.97 139.609 247.713 140.992 247.713 143.336C247.713 145.656 244.97 147.062 240.634 147.062C236.228 147.062 233.533 145.656 233.556 143.336C233.533 140.992 236.228 139.609 240.634 139.609ZM240.634 141.602C237.728 141.602 236.111 142.164 236.134 143.336C236.111 144.461 237.728 145.094 240.634 145.094C243.494 145.094 245.111 144.461 245.111 143.336C245.111 142.164 243.494 141.602 240.634 141.602ZM243.353 128.055V130.094H230.791V128.055H235.783V125.758H238.384V128.055H243.353ZM237.072 130.938C240.142 130.938 242.228 132.461 242.252 134.734C242.228 137.008 240.142 138.508 237.072 138.508C233.978 138.508 231.869 137.008 231.869 134.734C231.869 132.461 233.978 130.938 237.072 130.938ZM237.072 132.859C235.455 132.859 234.4 133.562 234.4 134.734C234.4 135.883 235.455 136.539 237.072 136.539C238.689 136.539 239.767 135.883 239.767 134.734C239.767 133.562 238.689 132.859 237.072 132.859ZM274.758 125.898V134.172H277.899V136.352H274.758V147.039H272.157V125.898H274.758ZM269.157 128.102C269.157 134.336 266.579 139.797 259.524 143.266L258.048 141.25C263.204 138.684 265.993 135.074 266.532 130.258H259.196V128.102H269.157ZM296.965 126.719V128.781H290.848C291.164 130.586 293.766 132.238 297.785 132.648L296.824 134.688C293.016 134.277 290.168 132.742 289.02 130.586C287.871 132.742 285.059 134.277 281.238 134.688L280.324 132.648C284.297 132.238 286.863 130.574 287.215 128.781H281.145V126.719H296.965ZM298.699 136.328V138.414H279.387V136.328H287.731V133.398H290.309V136.328H298.699ZM296.332 140.125V147.086H293.731V142.211H281.52V140.125H296.332ZM310.242 126.227C315.07 126.227 317.859 127.516 317.883 129.859C317.859 132.227 315.07 133.492 310.242 133.516C305.414 133.492 302.601 132.227 302.601 129.859C302.601 127.516 305.414 126.227 310.242 126.227ZM310.242 128.148C307.008 128.148 305.32 128.758 305.343 129.859C305.32 131.031 307.008 131.57 310.242 131.57C313.523 131.57 315.187 131.031 315.187 129.859C315.187 128.758 313.523 128.148 310.242 128.148ZM319.922 134.641V136.727H300.609V134.641H319.922ZM317.508 138.156V143.336H305.461V144.906H318.093V146.898H302.906V141.484H314.953V140.078H302.883V138.156H317.508ZM335.624 130.234C335.624 132.508 337.335 134.734 340.663 135.625L339.491 137.617C337.03 136.973 335.296 135.566 334.358 133.75C333.409 135.742 331.628 137.289 329.132 138.016L327.889 135.953C331.241 135.062 333.022 132.719 333.022 130.234V130.164H328.592V128.102H333.022V125.805H335.647V128.102H340.053V130.164H335.624V130.234ZM344.717 125.898V130.82H347.671V132.977H344.717V138.039H342.116V125.898H344.717ZM345.022 139.023V141.109H339.421C339.913 142.867 342.292 144.508 345.913 145.023L344.975 147.016C341.659 146.547 339.151 145.129 337.921 143.195C336.702 145.117 334.217 146.5 330.936 146.969L329.975 145C333.608 144.496 335.964 142.914 336.467 141.109H330.842V139.023H345.022ZM354.924 127.445C358.112 127.445 360.408 130.352 360.432 134.922C360.408 139.539 358.112 142.422 354.924 142.422C351.713 142.422 349.393 139.539 349.416 134.922C349.393 130.352 351.713 127.445 354.924 127.445ZM354.924 129.789C353.143 129.789 351.924 131.688 351.924 134.922C351.924 138.18 353.143 140.078 354.924 140.078C356.729 140.078 357.924 138.18 357.924 134.922C357.924 131.688 356.729 129.789 354.924 129.789ZM365.822 125.898V134.031H369.08V136.234H365.822V147.086H363.221V125.898H365.822ZM395.939 138.203V140.266H376.626V138.203H384.97V136.844C381.29 136.656 379.228 135.531 379.228 133.633C379.228 131.523 381.783 130.422 386.259 130.422C390.736 130.422 393.314 131.523 393.314 133.633C393.314 135.531 391.24 136.645 387.572 136.844V138.203H395.939ZM393.759 144.602V146.664H379.017V141.367H381.618V144.602H393.759ZM394.884 127.727V129.695H377.587V127.727H384.97V125.758H387.572V127.727H394.884ZM386.259 132.25C383.306 132.25 381.876 132.695 381.9 133.633C381.876 134.57 383.306 135.016 386.259 135.016C389.189 135.016 390.642 134.57 390.642 133.633C390.642 132.695 389.189 132.25 386.259 132.25ZM405.442 131.922C405.442 135.203 407.388 138.93 410.739 140.477L409.286 142.539C406.895 141.414 405.126 139.141 404.177 136.492C403.216 139.398 401.364 141.883 398.927 143.055L397.403 141.016C400.778 139.422 402.817 135.438 402.841 131.922V130.141H398.223V127.984H409.872V130.141H405.442V131.922ZM414.442 125.898V134.148H417.7V136.328H414.442V147.086H411.841V125.898H414.442ZM441.84 125.898V134.172H444.98V136.352H441.84V147.039H439.238V125.898H441.84ZM436.238 128.102C436.238 134.336 433.66 139.797 426.605 143.266L425.129 141.25C430.285 138.684 433.074 135.074 433.613 130.258H426.277V128.102H436.238ZM463.671 135.531V137.594H457.39V142.445H465.828V144.578H446.468V142.445H454.812V137.594H448.812V127.469H463.507V129.555H451.413V135.531H463.671ZM150.719 168.188C150.695 173.648 147.109 177.469 140.922 179.203L139.891 177.164C144.66 175.863 147.449 173.391 147.906 170.297H141.016V168.188H150.719ZM157.445 180.117V188.016H154.844V182.203H143.008V180.117H157.445ZM157.445 166.922V179.273H154.844V174.352H150.883V172.195H154.844V166.922H157.445ZM178.667 166.898V179.484H176.066V174.305H172.457V172.172H176.066V166.898H178.667ZM171.496 180.023C175.996 180.023 178.738 181.5 178.738 184.055C178.738 186.609 175.996 188.086 171.496 188.086C167.019 188.086 164.277 186.609 164.3 184.055C164.277 181.5 167.019 180.023 171.496 180.023ZM171.496 182.016C168.542 182.016 166.878 182.719 166.878 184.055C166.878 185.367 168.542 186.07 171.496 186.07C174.449 186.07 176.136 185.367 176.136 184.055C176.136 182.719 174.449 182.016 171.496 182.016ZM168.707 170.531C168.707 173.109 170.417 175.711 173.699 176.812L172.386 178.875C170.031 178.078 168.355 176.461 167.441 174.469C166.503 176.73 164.734 178.535 162.214 179.438L160.855 177.375C164.253 176.203 166.058 173.344 166.058 170.555V170.391H161.652V168.281H173.089V170.391H168.707V170.531ZM193.127 179.297V181.57H195.917V179.297H198.331V186.023C200.815 184.98 201.963 182.836 201.963 180.82V179.133H204.565V180.82C204.565 183.023 205.69 185.156 208.315 186.047L206.979 187.992C205.116 187.324 203.909 186.035 203.252 184.43C202.538 185.988 201.331 187.277 199.573 187.992L198.331 186.141V187.828H190.69V179.297H193.127ZM193.127 185.836H195.917V183.516H193.127V185.836ZM194.206 167.766C196.936 167.766 199.092 169.289 199.643 171.586H203.463V166.898H206.065V178.125H203.463V173.742H199.643C199.127 176.098 196.948 177.656 194.206 177.656C190.948 177.656 188.604 175.617 188.604 172.688C188.604 169.781 190.948 167.766 194.206 167.766ZM194.206 169.922C192.377 169.922 191.088 171 191.088 172.688C191.088 174.398 192.377 175.523 194.206 175.523C195.987 175.523 197.252 174.398 197.276 172.688C197.252 171 195.987 169.922 194.206 169.922ZM226.701 172.898V174.961H212.029V167.672H214.607V172.898H226.701ZM228.881 177.422V179.484H209.522V177.422H228.881ZM226.842 185.484V187.594H211.842V181.359H214.443V185.484H226.842ZM244.958 171.984C244.935 175.875 246.974 179.766 250.419 181.242L248.872 183.328C246.435 182.203 244.642 179.953 243.669 177.188C242.696 180.176 240.88 182.613 238.302 183.82L236.708 181.641C240.247 180.117 242.31 176.062 242.31 171.984V168.609H244.958V171.984ZM254.567 166.898V188.109H251.942V166.898H254.567ZM274.876 166.898V172.992H277.829V175.172H274.876V182.18H272.227V166.898H274.876ZM269.11 168.516C269.11 174.141 265.454 178.148 259.173 179.977L258.094 177.914C262.934 176.52 265.817 173.883 266.274 170.648H258.985V168.516H269.11ZM275.673 185.555V187.664H261.258V180.609H263.907V185.555H275.673ZM289.02 167.227C293.848 167.227 296.637 168.516 296.66 170.859C296.637 173.227 293.848 174.492 289.02 174.516C284.192 174.492 281.379 173.227 281.379 170.859C281.379 168.516 284.192 167.227 289.02 167.227ZM289.02 169.148C285.785 169.148 284.098 169.758 284.121 170.859C284.098 172.031 285.785 172.57 289.02 172.57C292.301 172.57 293.965 172.031 293.965 170.859C293.965 169.758 292.301 169.148 289.02 169.148ZM298.699 175.641V177.727H279.387V175.641H298.699ZM296.285 179.156V184.336H284.238V185.906H296.871V187.898H281.684V182.484H293.731V181.078H281.66V179.156H296.285ZM326.144 183.398V185.531H306.784V183.398H315.128V179.273H308.917V168.305H311.519V171.773H321.339V168.305H323.941V179.273H317.706V183.398H326.144ZM311.519 177.164H321.339V173.859H311.519V177.164ZM346.124 166.922V177.703H343.639V173.344H341.366V177.656H338.952V167.32H341.366V171.258H343.639V166.922H346.124ZM331.522 168.07V174.68C333.514 174.656 335.401 174.527 337.569 174.094L337.827 176.203C335.132 176.719 332.882 176.812 330.327 176.789H328.921V168.07H331.522ZM346.124 178.5V184.055H334.428V185.766H346.874V187.828H331.803V182.133H343.522V180.586H331.78V178.5H346.124ZM366.443 168.656C366.443 171.328 369.42 174.023 373.943 174.609L372.912 176.719C369.314 176.18 366.455 174.41 365.084 172.008C363.689 174.41 360.842 176.18 357.279 176.719L356.248 174.609C360.724 174.023 363.701 171.328 363.701 168.656V167.578H366.443V168.656ZM374.717 178.547V180.703H366.303V188.086H363.724V180.703H355.404V178.547H374.717ZM390.325 180.68C390.325 182.438 391.134 184.289 392.95 185.438C394.79 184.207 395.645 182.285 395.669 180.68V179.812H398.223V180.68C398.2 182.906 399.512 184.969 402.302 185.859L401.036 187.758C398.973 187.066 397.602 185.719 396.864 184.031C396.184 185.695 394.93 187.184 393.02 187.945C391.005 187.219 389.739 185.789 389.083 184.102C388.321 185.73 386.973 187.055 385.005 187.758L383.716 185.859C386.458 184.898 387.77 182.742 387.794 180.68V179.812H390.325V180.68ZM400.45 166.922V178.922H397.825V166.922H400.45ZM388.895 168.047C392.153 168.047 394.591 170.109 394.591 173.086C394.591 176.039 392.153 178.102 388.895 178.102C385.614 178.102 383.177 176.039 383.177 173.086C383.177 170.109 385.614 168.047 388.895 168.047ZM388.895 170.25C387.044 170.25 385.708 171.352 385.731 173.086C385.708 174.82 387.044 175.945 388.895 175.945C390.723 175.945 392.036 174.82 392.036 173.086C392.036 171.352 390.723 170.25 388.895 170.25ZM421.227 176.531V178.594H414.946V183.445H423.383V185.578H404.024V183.445H412.367V178.594H406.367V168.469H421.063V170.555H408.969V176.531H421.227ZM444.582 178.359V180.469H425.223V178.359H433.613V176.602H427.683V170.977H439.59V169.406H427.613V167.367H442.191V172.875H430.262V174.562H442.613V176.602H436.191V178.359H444.582ZM442.308 181.805V187.945H439.683V183.867H427.379V181.805H442.308Z" fill="white"/>
</g>
<defs>
<filter id="filter0_d_4723_2906" x="0" y="0" width="542" height="250" filterUnits="userSpaceOnUse" color-interpolation-filters="sRGB">
<feFlood flood-opacity="0" result="BackgroundImageFix"/>
<feColorMatrix in="SourceAlpha" type="matrix" values="0 0 0 0 0 0 0 0 0 0 0 0 0 0 0 0 0 0 127 0" result="hardAlpha"/>
<feOffset dy="4"/>
<feGaussianBlur stdDeviation="8"/>
<feComposite in2="hardAlpha" operator="out"/>
<feColorMatrix type="matrix" values="0 0 0 0 0 0 0 0 0 0 0 0 0 0 0 0 0 0 0.1 0"/>
<feBlend mode="normal" in2="BackgroundImageFix" result="effect1_dropShadow_4723_2906"/>
<feBlend mode="normal" in="SourceGraphic" in2="effect1_dropShadow_4723_2906" result="shape"/>
</filter>
</defs>
</svg>
