<svg width="542" height="250" viewBox="0 0 542 250" fill="none" xmlns="http://www.w3.org/2000/svg">
<g filter="url(#filter0_d_4723_2893)">
<rect x="16" y="12" width="510" height="218" rx="40" fill="white" fill-opacity="0.2" shape-rendering="crispEdges"/>
<rect x="17" y="13" width="508" height="216" rx="39" stroke="white" stroke-width="2" shape-rendering="crispEdges"/>
<circle cx="60" cy="68" r="12" fill="white"/>
<path d="M143.312 53.5312V60.4062H147.125V63.3125H143.312V70.1562H139.844V53.5312H143.312ZM143.312 71.2812V77.375H127.969V79.1875H144.312V81.5312H124.5V75.2188H139.844V73.625H124.438V71.2812H143.312ZM120.688 67.3125C122.812 67.3125 125.25 67.3125 127.812 67.2188V65.8125C124.641 65.5 122.688 64.2188 122.688 62.125C122.688 59.8438 125.344 58.5 129.5 58.5C133.656 58.5 136.312 59.8438 136.312 62.125C136.312 64.1875 134.406 65.4688 131.281 65.8125V67.0938C133.688 67 136.109 66.7969 138.375 66.5L138.656 68.6875C132.625 69.7188 126 69.75 121.062 69.75L120.688 67.3125ZM137.625 55.4375V57.8125H121.406V55.4375H127.812V53.3125H131.281V55.4375H137.625ZM129.5 60.6875C127.312 60.7188 126 61.1875 126.031 62.125C126 63.125 127.312 63.6875 129.5 63.6875C131.688 63.6875 133 63.125 133 62.125C133 61.1875 131.688 60.7188 129.5 60.6875ZM175.015 67.0625V69.8438H149.234V67.0625H160.421V64.375H152.39V54.8125H171.89V57.5312H155.859V61.625H172.046V64.375H163.827V67.0625H175.015ZM162.077 71.4688C168.171 71.4688 171.827 73.3125 171.859 76.625C171.827 79.9062 168.171 81.7812 162.077 81.7812C155.921 81.7812 152.234 79.9062 152.234 76.625C152.234 73.3125 155.921 71.4688 162.077 71.4688ZM162.077 74.125C157.952 74.125 155.734 75 155.765 76.625C155.734 78.25 157.952 79.0938 162.077 79.0938C166.109 79.0938 168.359 78.25 168.39 76.625C168.359 75 166.109 74.125 162.077 74.125Z" fill="white"/>
<path d="M145.914 125.898V130.492H148.867V132.625H145.914V137.078H143.312V125.898H145.914ZM140.195 127.375C140.172 132.859 136.633 136.211 130.258 137.477L129.156 135.391C134.453 134.418 136.973 132.121 137.289 129.438H130.164V127.375H140.195ZM145.984 137.945V139.867H134.758V141.414H145.773V143.289H134.758V144.883H146.477V146.828H132.133V137.945H145.984ZM169.738 136.844V138.93H150.425V136.844H169.738ZM167.558 144.555V146.664H152.816V140.5H155.417V144.555H167.558ZM160.058 126.578C164.675 126.578 167.675 128.195 167.699 130.867C167.675 133.562 164.675 135.203 160.058 135.203C155.441 135.203 152.417 133.562 152.417 130.867C152.417 128.195 155.441 126.578 160.058 126.578ZM160.058 128.664C156.988 128.664 155.113 129.461 155.136 130.867C155.113 132.297 156.988 133.094 160.058 133.07C163.152 133.094 165.003 132.297 165.003 130.867C165.003 129.461 163.152 128.664 160.058 128.664ZM197.182 142.469V144.625H177.823V142.469H186.167V139.023H180.12V132.086H192.307V129.461H180.073V127.352H194.885V134.148H182.721V136.891H195.377V139.023H188.745V142.469H197.182ZM210.107 126.859C210.084 132.438 207.178 135.859 200.451 137.5L199.514 135.508C202.69 134.77 204.717 133.668 205.936 132.273L199.936 132.719L199.537 130.727L206.99 130.445C207.166 129.953 207.272 129.438 207.342 128.898H200.615V126.859H210.107ZM216.787 125.898V136.703H214.186V132.766H210.154V130.633H214.186V125.898H216.787ZM216.787 137.547V143.055H205.42V144.766H217.35V146.828H202.865V141.156H214.209V139.586H202.842V137.547H216.787ZM245.802 142.352V144.531H226.442V142.352H245.802ZM244.114 127.867V129.953H241.021V136.703H244.044V138.766H228.107V136.703H231.083V129.953H228.036V127.867H244.114ZM233.685 136.703H238.442V129.953H233.685V136.703ZM267.024 142.469V144.625H247.665V142.469H256.008V139.023H249.962V132.086H262.149V129.461H249.915V127.352H264.727V134.148H252.563V136.891H265.219V139.023H258.587V142.469H267.024ZM285.738 127.961V130.352C285.738 133.188 285.738 136.117 284.965 140.57L282.317 140.336C283.137 136.164 283.137 133.094 283.137 130.352V130.07H270.926V127.961H285.738ZM288.199 142.047V144.18H268.887V142.047H288.199ZM308.226 125.922V138.461H305.742V133.141H303.539V138.25H301.101V126.32H303.539V131.031H305.742V125.922H308.226ZM308.226 139.352V146.828H293.929V139.352H308.226ZM296.531 141.438V144.719H305.648V141.438H296.531ZM299.039 127.211V133.328H293.531V135.625C295.992 135.602 297.867 135.496 300.023 135.062L300.258 137.125C297.703 137.594 295.547 137.664 292.453 137.641H291V131.383H296.531V129.273H290.976V127.211H299.039ZM329.613 125.898V147.086H327.105V125.898H329.613ZM325.253 126.273V146.055H322.769V135.977H320.753C320.507 140.102 318.738 142.656 316.113 142.633C313.347 142.656 311.542 139.727 311.542 135.062C311.542 130.398 313.347 127.516 316.113 127.516C318.679 127.516 320.425 129.906 320.73 133.867H322.769V126.273H325.253ZM316.113 129.977C314.777 129.953 313.933 131.758 313.956 135.062C313.933 138.367 314.777 140.172 316.113 140.148C317.519 140.172 318.363 138.367 318.363 135.062C318.363 131.758 317.519 129.953 316.113 129.977ZM346.346 130.258C346.346 132.555 348.057 134.805 351.385 135.719L350.19 137.734C347.752 137.078 346.018 135.648 345.08 133.82C344.143 135.836 342.373 137.395 339.854 138.109L338.612 136.094C341.963 135.156 343.744 132.789 343.744 130.258V130.211H339.315V128.148H343.744V125.805H346.369V128.148H350.776V130.211H346.346V130.258ZM355.44 125.898V131.008H358.393V133.164H355.44V138.367H352.838V125.898H355.44ZM355.44 139.258V146.828H341.752V139.258H355.44ZM344.33 141.32V144.719H352.862V141.32H344.33ZM365.74 127.445C367.662 127.445 369.244 128.512 370.193 130.375H375.138V125.898H377.717V147.109H375.138V139.094H370.381C369.467 141.203 367.791 142.422 365.74 142.422C362.553 142.422 360.303 139.539 360.303 134.922C360.303 130.352 362.553 127.445 365.74 127.445ZM365.74 129.789C363.982 129.789 362.787 131.688 362.81 134.922C362.787 138.18 363.982 140.078 365.74 140.078C367.498 140.078 368.67 138.18 368.693 134.922C368.67 131.688 367.498 129.789 365.74 129.789ZM370.92 132.508C371.072 133.246 371.154 134.055 371.154 134.922C371.154 135.66 371.095 136.34 370.99 136.984H375.138V132.508H370.92ZM397.767 125.898V134.336H401.025V136.492H397.767V147.086H395.189V125.898H397.767ZM393.548 129.156V131.242H381.056V129.156H386.072V126.203H388.673V129.156H393.548ZM387.384 132.625C390.431 132.625 392.704 134.688 392.704 137.617C392.704 140.547 390.431 142.586 387.384 142.586C384.29 142.586 382.017 140.547 382.04 137.617C382.017 134.688 384.29 132.625 387.384 132.625ZM387.384 134.758C385.72 134.758 384.525 135.883 384.525 137.617C384.525 139.352 385.72 140.453 387.384 140.43C389.001 140.453 390.197 139.352 390.22 137.617C390.197 135.883 389.001 134.758 387.384 134.758ZM413.177 127.867V130.797H417.583V125.898H420.161V147.109H417.583V138.648H413.177V141.859H403.192V127.867H413.177ZM405.794 129.906V139.797H410.622V129.906H405.794ZM413.177 136.562H417.583V132.906H413.177V136.562ZM139.961 168.727V178.734H129.93V168.727H139.961ZM132.484 170.812V176.672H137.406V170.812H132.484ZM145.914 166.898V173.109H148.867V175.289H145.914V182.367H143.312V166.898H145.914ZM146.758 185.555V187.664H132.344V180.867H134.945V185.555H146.758ZM153.964 168.375V176.391C156.683 176.355 159.566 176.156 162.683 175.523L162.964 177.656C159.472 178.383 156.214 178.57 153.097 178.57H151.339V168.375H153.964ZM167.136 166.922V172.992H170.089V175.172H167.136V182.156H164.535V166.922H167.136ZM167.839 185.555V187.664H153.589V180.703H156.214V185.555H167.839ZM195.471 166.922V182.227H192.846V166.922H195.471ZM196.057 185.555V187.664H181.456V180.68H184.081V185.555H196.057ZM183.917 168.305C187.127 168.305 189.612 170.531 189.612 173.602C189.612 176.742 187.127 178.922 183.917 178.922C180.682 178.922 178.198 176.742 178.198 173.602C178.198 170.531 180.682 168.305 183.917 168.305ZM183.917 170.578C182.112 170.578 180.729 171.773 180.752 173.602C180.729 175.477 182.112 176.648 183.917 176.648C185.674 176.648 187.057 175.477 187.057 173.602C187.057 171.773 185.674 170.578 183.917 170.578ZM216.787 166.922V182.461H214.186V177.211H209.147C208.127 178.348 206.627 179.039 204.928 179.039C201.74 179.039 199.326 176.742 199.326 173.625C199.326 170.461 201.74 168.188 204.928 168.188C206.615 168.188 208.104 168.867 209.123 169.992H214.186V166.922H216.787ZM217.326 185.555V187.664H202.889V180.867H205.49V185.555H217.326ZM204.928 170.508C203.1 170.508 201.811 171.727 201.811 173.625C201.811 175.5 203.1 176.719 204.928 176.719C206.662 176.719 207.975 175.5 207.998 173.625C207.975 171.727 206.662 170.508 204.928 170.508ZM210.272 172.102C210.4 172.582 210.482 173.086 210.482 173.625C210.482 174.141 210.412 174.633 210.295 175.102H214.186V172.102H210.272ZM229.9 167.227C234.728 167.227 237.517 168.516 237.541 170.859C237.517 173.227 234.728 174.492 229.9 174.516C225.072 174.492 222.259 173.227 222.259 170.859C222.259 168.516 225.072 167.227 229.9 167.227ZM229.9 169.148C226.666 169.148 224.978 169.758 225.002 170.859C224.978 172.031 226.666 172.57 229.9 172.57C233.181 172.57 234.845 172.031 234.845 170.859C234.845 169.758 233.181 169.148 229.9 169.148ZM239.58 175.641V177.727H220.267V175.641H239.58ZM237.166 179.156V184.336H225.119V185.906H237.752V187.898H222.564V182.484H234.611V181.078H222.541V179.156H237.166ZM254.133 173.344C254.133 176.578 255.469 179.906 258.469 181.477L256.993 183.398C255.012 182.367 253.688 180.516 252.938 178.289C252.188 180.68 250.852 182.73 248.86 183.867L247.36 181.945C250.313 180.211 251.673 176.695 251.673 173.344V172.758H247.969V170.625H251.673V167.648H254.133V170.625H257.79V172.758H254.133V173.344ZM266.04 166.898V188.086H263.555V177.352H261.376V187.055H258.915V167.273H261.376V175.195H263.555V166.898H266.04ZM280.301 168.422V170.484H272.707V172.5H279.692V174.539H272.707V176.578C276.668 176.602 279.082 176.543 281.871 176.062L282.129 178.125C279.082 178.617 276.434 178.711 271.863 178.688H270.059V168.422H280.301ZM286.535 166.922V179.836H283.91V166.922H286.535ZM279.387 180.141C283.84 180.141 286.629 181.594 286.629 184.102C286.629 186.609 283.84 188.062 279.387 188.062C274.863 188.062 272.121 186.609 272.145 184.102C272.121 181.594 274.863 180.141 279.387 180.141ZM279.387 182.156C276.387 182.156 274.723 182.859 274.746 184.102C274.723 185.367 276.387 186.047 279.387 186.047C282.317 186.047 284.027 185.367 284.027 184.102C284.027 182.859 282.317 182.156 279.387 182.156ZM299.742 167.227C304.57 167.227 307.359 168.516 307.383 170.859C307.359 173.227 304.57 174.492 299.742 174.516C294.914 174.492 292.101 173.227 292.101 170.859C292.101 168.516 294.914 167.227 299.742 167.227ZM299.742 169.148C296.508 169.148 294.82 169.758 294.843 170.859C294.82 172.031 296.508 172.57 299.742 172.57C303.023 172.57 304.687 172.031 304.687 170.859C304.687 169.758 303.023 169.148 299.742 169.148ZM309.422 175.641V177.727H290.109V175.641H309.422ZM307.008 179.156V184.336H294.961V185.906H307.593V187.898H292.406V182.484H304.453V181.078H292.383V179.156H307.008ZM336.819 177.914V179.977H317.46V177.914H325.827V176.344H319.944V167.461H334.499V169.477H322.546V170.93H333.983V172.852H322.546V174.352H334.663V176.344H328.428V177.914H336.819ZM327.139 181.148C331.803 181.148 334.452 182.391 334.475 184.594C334.452 186.867 331.803 188.062 327.139 188.062C322.405 188.062 319.757 186.867 319.757 184.594C319.757 182.391 322.405 181.148 327.139 181.148ZM327.139 183.094C323.952 183.094 322.358 183.586 322.358 184.594C322.358 185.625 323.952 186.117 327.139 186.117C330.28 186.117 331.85 185.625 331.874 184.594C331.85 183.586 330.28 183.094 327.139 183.094ZM349.065 170.273V172.359H338.682V170.273H342.619V167.508H345.197V170.273H349.065ZM343.908 173.484C346.604 173.484 348.526 175.523 348.526 178.406C348.526 181.336 346.604 183.398 343.908 183.398C341.237 183.398 339.268 181.336 339.291 178.406C339.268 175.523 341.237 173.484 343.908 173.484ZM343.908 175.641C342.526 175.641 341.565 176.742 341.588 178.406C341.565 180.117 342.526 181.195 343.908 181.172C345.268 181.195 346.229 180.117 346.229 178.406C346.229 176.742 345.268 175.641 343.908 175.641ZM356.94 166.898V188.086H354.455V177.727H352.393V187.125H349.955V167.344H352.393V175.617H354.455V166.898H356.94ZM374.118 172.922C374.118 176.391 376.158 180.047 379.579 181.477L378.15 183.539C375.642 182.461 373.814 180.234 372.853 177.539C371.868 180.445 370.017 182.883 367.533 184.055L366.033 182.016C369.384 180.469 371.47 176.531 371.47 172.922V171.141H366.806V168.984H378.759V171.141H374.118V172.922ZM383.751 166.898V188.086H381.126V166.898H383.751ZM406.661 177.305V179.414H387.348V177.305H395.692V174.352H398.27V177.305H406.661ZM398.294 168.047C398.294 170.625 401.13 172.969 405.559 173.531L404.552 175.57C401.071 175.031 398.305 173.461 396.958 171.234C395.598 173.461 392.833 175.031 389.341 175.57L388.403 173.531C392.763 172.969 395.645 170.578 395.645 168.047V167.25H398.294V168.047ZM404.294 181.102V188.086H401.692V183.141H389.481V181.102H404.294ZM425.164 166.898V175.336H428.422V177.492H425.164V188.086H422.586V166.898H425.164ZM420.946 170.156V172.242H408.453V170.156H413.469V167.203H416.071V170.156H420.946ZM414.782 173.625C417.828 173.625 420.102 175.688 420.102 178.617C420.102 181.547 417.828 183.586 414.782 183.586C411.688 183.586 409.414 181.547 409.438 178.617C409.414 175.688 411.688 173.625 414.782 173.625ZM414.782 175.758C413.117 175.758 411.922 176.883 411.922 178.617C411.922 180.352 413.117 181.453 414.782 181.43C416.399 181.453 417.594 180.352 417.617 178.617C417.594 176.883 416.399 175.758 414.782 175.758ZM446.949 172.898V174.961H432.277V167.672H434.855V172.898H446.949ZM449.129 177.422V179.484H429.769V177.422H449.129ZM447.09 185.484V187.594H432.09V181.359H434.691V185.484H447.09ZM474.112 167.906V169.5C474.112 171.117 474.112 172.945 473.597 175.336L470.995 175.078C471.464 172.957 471.511 171.387 471.511 169.945H459.44V167.906H474.112ZM476.456 176.602V178.664H457.237V176.602H464.69V172.547H467.268V176.602H476.456ZM468.065 180.844C468.065 183.234 470.643 185.414 475.097 185.977L474.136 187.969C470.69 187.5 468.065 186.07 466.753 184.031C465.429 186.07 462.804 187.5 459.393 187.969L458.456 185.977C462.839 185.414 465.417 183.234 465.44 180.844V180.07H468.065V180.844Z" fill="white"/>
</g>
<defs>
<filter id="filter0_d_4723_2893" x="0" y="0" width="542" height="250" filterUnits="userSpaceOnUse" color-interpolation-filters="sRGB">
<feFlood flood-opacity="0" result="BackgroundImageFix"/>
<feColorMatrix in="SourceAlpha" type="matrix" values="0 0 0 0 0 0 0 0 0 0 0 0 0 0 0 0 0 0 127 0" result="hardAlpha"/>
<feOffset dy="4"/>
<feGaussianBlur stdDeviation="8"/>
<feComposite in2="hardAlpha" operator="out"/>
<feColorMatrix type="matrix" values="0 0 0 0 0 0 0 0 0 0 0 0 0 0 0 0 0 0 0.1 0"/>
<feBlend mode="normal" in2="BackgroundImageFix" result="effect1_dropShadow_4723_2893"/>
<feBlend mode="normal" in="SourceGraphic" in2="effect1_dropShadow_4723_2893" result="shape"/>
</filter>
</defs>
</svg>
