<svg width="546" height="250" viewBox="0 0 546 250" fill="none" xmlns="http://www.w3.org/2000/svg">
<g filter="url(#filter0_d_4723_2887)">
<rect x="16" y="12" width="514" height="218" rx="40" fill="white" fill-opacity="0.2" shape-rendering="crispEdges"/>
<rect x="17" y="13" width="512" height="216" rx="39" stroke="white" stroke-width="2" shape-rendering="crispEdges"/>
<circle cx="60" cy="68" r="12" fill="white"/>
<path d="M144.594 53.5625V74.1875H141.125V63.8438H136.125V61.0312H141.125V53.5625H144.594ZM145.312 78.4062V81.2188H126.062V72.375H129.531V78.4062H145.312ZM131.312 59.1875C131.312 62.5938 133.594 66.0938 137.969 67.5312L136.219 70.3125C133.062 69.2344 130.828 67.0938 129.594 64.4062C128.344 67.3906 125.984 69.75 122.656 70.9062L120.875 68.0938C125.375 66.625 127.781 62.9062 127.781 59.1562V58.4062H121.906V55.5938H137.156V58.4062H131.312V59.1875ZM157.859 62.1562C157.859 66.5312 159.671 70.9375 163.609 73.0625L161.671 75.625C159.046 74.2344 157.265 71.75 156.265 68.7812C155.265 71.9844 153.484 74.7188 150.827 76.2812L148.796 73.6562C152.796 71.3438 154.577 66.625 154.577 62.1562V61.2812H149.765V58.4688H154.577V54.5312H157.859V58.4688H162.577V61.2812H157.859V62.1562ZM173.546 53.5312V81.7812H170.234V53.5312H173.546ZM167.796 54.0625V80.4062H164.515V67.25H160.827V64.375H164.515V54.0625H167.796Z" fill="white"/>
<path d="M129.57 145V128.031H135.945C139.836 128.031 141.922 130.398 141.922 133.656C141.922 136.914 139.812 139.258 135.898 139.258H132.617V145H129.57ZM132.617 136.75H135.477C137.773 136.75 138.805 135.461 138.805 133.656C138.805 131.828 137.773 130.586 135.477 130.586H132.617V136.75ZM144.722 145V132.273H147.628V134.383H147.769C148.214 132.93 149.457 132.086 150.91 132.086C151.238 132.086 151.707 132.109 151.988 132.156V134.922C151.73 134.828 151.097 134.734 150.605 134.734C148.941 134.734 147.722 135.883 147.722 137.5V145H144.722ZM159.382 145.258C155.679 145.258 153.288 142.633 153.288 138.695C153.288 134.734 155.679 132.109 159.382 132.109C163.108 132.109 165.476 134.734 165.476 138.695C165.476 142.633 163.108 145.258 159.382 145.258ZM159.405 142.867C161.444 142.867 162.452 141.016 162.452 138.672C162.452 136.352 161.444 134.477 159.405 134.477C157.319 134.477 156.312 136.352 156.312 138.672C156.312 141.016 157.319 142.867 159.405 142.867ZM168.276 132.273H171.276V145.727C171.276 148.469 169.659 149.781 166.846 149.781C166.659 149.781 166.471 149.781 166.237 149.758V147.32C166.401 147.344 166.542 147.344 166.682 147.344C167.831 147.344 168.276 146.758 168.276 145.703V132.273ZM169.776 130.469C168.838 130.469 168.042 129.742 168.042 128.828C168.042 127.938 168.838 127.211 169.776 127.211C170.737 127.211 171.51 127.938 171.51 128.828C171.51 129.742 170.737 130.469 169.776 130.469ZM180.264 145.258C176.42 145.258 174.076 142.703 174.076 138.719C174.076 134.781 176.467 132.109 180.1 132.109C183.217 132.109 185.912 134.055 185.912 138.531V139.469H177.029C177.065 141.637 178.342 142.914 180.287 142.914C181.6 142.914 182.49 142.352 182.865 141.602H185.795C185.256 143.805 183.217 145.258 180.264 145.258ZM177.053 137.43H183.053C183.029 135.695 181.881 134.43 180.147 134.43C178.342 134.43 177.147 135.801 177.053 137.43ZM194.267 145.258C190.47 145.258 188.173 142.539 188.173 138.695C188.173 134.805 190.541 132.109 194.267 132.109C197.361 132.109 199.517 133.914 199.728 136.656H196.869C196.634 135.438 195.744 134.5 194.291 134.5C192.439 134.5 191.197 136.07 191.197 138.625C191.197 141.25 192.416 142.82 194.291 142.82C195.627 142.82 196.611 142.047 196.869 140.664H199.728C199.494 143.359 197.455 145.258 194.267 145.258ZM208.81 132.273V134.57H206.302V141.18C206.302 142.398 206.911 142.656 207.661 142.656C208.013 142.656 208.599 142.633 208.974 142.609V145.047C208.622 145.117 208.036 145.164 207.286 145.164C205.036 145.164 203.302 144.062 203.325 141.672V134.57H201.497V132.273H203.325V129.227H206.302V132.273H208.81ZM217.902 145V128.031H220.949V135.227H228.848V128.031H231.918V145H228.848V137.781H220.949V145H217.902ZM237.25 145.188C236.242 145.188 235.422 144.367 235.422 143.359C235.422 142.375 236.242 141.555 237.25 141.555C238.211 141.555 239.054 142.375 239.054 143.359C239.054 144.367 238.211 145.188 237.25 145.188ZM248.558 127.375C251.909 127.352 254.37 129.484 254.394 132.484C254.37 135.508 251.909 137.617 248.558 137.617C245.23 137.617 242.745 135.508 242.745 132.484C242.745 129.484 245.23 127.352 248.558 127.375ZM248.558 129.625C246.706 129.625 245.323 130.727 245.323 132.484C245.323 134.266 246.706 135.344 248.558 135.344C250.433 135.344 251.839 134.266 251.839 132.484C251.839 130.727 250.433 129.625 248.558 129.625ZM259.339 125.898V147.109H256.738V125.898H259.339ZM241.784 140.547C245.605 140.547 250.902 140.5 255.472 139.844L255.683 141.742C250.925 142.656 245.839 142.68 242.113 142.68L241.784 140.547ZM285.682 125.898V133.938H288.94V136.07H285.682V147.109H283.08V125.898H285.682ZM279.869 127.914V130.023H272.557V139.75C275.85 139.75 278.451 139.586 281.369 139.07L281.674 141.273C278.393 141.836 275.533 141.93 271.713 141.93H269.955V127.914H279.869ZM309.904 128.734V130.867H307.021V133.281H309.904V135.438H307.021V138.344H304.42V125.898H307.021V128.734H309.904ZM296.263 127.117C299.521 127.094 301.959 129.18 301.982 132.18C301.959 135.156 299.521 137.242 296.263 137.266C292.982 137.242 290.521 135.156 290.545 132.18C290.521 129.18 292.982 127.094 296.263 127.117ZM296.263 129.297C294.435 129.297 293.076 130.445 293.099 132.18C293.076 133.938 294.435 135.039 296.263 135.062C298.068 135.039 299.428 133.938 299.428 132.18C299.428 130.445 298.068 129.297 296.263 129.297ZM300.131 138.836C304.467 138.836 307.209 140.383 307.232 142.961C307.209 145.539 304.467 147.062 300.131 147.062C295.748 147.062 292.959 145.539 292.959 142.961C292.959 140.383 295.748 138.836 300.131 138.836ZM300.131 140.922C297.224 140.922 295.56 141.625 295.56 142.961C295.56 144.297 297.224 144.977 300.131 144.977C303.037 144.977 304.654 144.297 304.654 142.961C304.654 141.625 303.037 140.922 300.131 140.922ZM328.243 125.922V132.578H331.197V134.734H328.243V141.742H325.642V125.922H328.243ZM324.118 128.266V130.352H311.556V128.266H316.548V125.898H319.15V128.266H324.118ZM317.837 131.219C320.884 131.219 322.993 132.836 323.017 135.273C322.993 137.688 320.884 139.281 317.837 139.281C314.767 139.281 312.634 137.688 312.634 135.273C312.634 132.836 314.767 131.219 317.837 131.219ZM317.837 133.234C316.22 133.234 315.165 133.984 315.165 135.273C315.165 136.539 316.22 137.289 317.837 137.266C319.454 137.289 320.533 136.539 320.533 135.273C320.533 133.984 319.454 133.234 317.837 133.234ZM329.087 144.555V146.664H314.673V140.5H317.275V144.555H329.087ZM356.672 125.922V141.461H354.071V136.211H349.032C348.012 137.348 346.512 138.039 344.813 138.039C341.625 138.039 339.211 135.742 339.211 132.625C339.211 129.461 341.625 127.188 344.813 127.188C346.5 127.188 347.989 127.867 349.008 128.992H354.071V125.922H356.672ZM357.211 144.555V146.664H342.774V139.867H345.375V144.555H357.211ZM344.813 129.508C342.985 129.508 341.696 130.727 341.696 132.625C341.696 134.5 342.985 135.719 344.813 135.719C346.547 135.719 347.86 134.5 347.883 132.625C347.86 130.727 346.547 129.508 344.813 129.508ZM350.157 131.102C350.285 131.582 350.367 132.086 350.367 132.625C350.367 133.141 350.297 133.633 350.18 134.102H354.071V131.102H350.157ZM377.894 125.898V136.633H375.293V134.781H370.183V132.789H375.293V130.703H370.465C369.129 133.938 366.035 136.047 361.348 137.102L360.433 134.969C365.414 133.938 367.898 131.746 368.262 128.922H361.605V126.812H371.168C371.168 127.48 371.109 128.113 371.027 128.711H375.293V125.898H377.894ZM377.894 137.453V143.031H366.574V144.789H378.457V146.875H363.973V141.086H375.293V139.516H363.949V137.453H377.894ZM385.499 143.336L383.531 149.898H381.304L382.523 143.336H385.499ZM399.936 127.445C401.858 127.445 403.44 128.512 404.389 130.375H409.334V125.898H411.913V147.109H409.334V139.094H404.577C403.663 141.203 401.987 142.422 399.936 142.422C396.748 142.422 394.498 139.539 394.498 134.922C394.498 130.352 396.748 127.445 399.936 127.445ZM399.936 129.789C398.178 129.789 396.983 131.688 397.006 134.922C396.983 138.18 398.178 140.078 399.936 140.078C401.694 140.078 402.866 138.18 402.889 134.922C402.866 131.688 401.694 129.789 399.936 129.789ZM405.116 132.508C405.268 133.246 405.35 134.055 405.35 134.922C405.35 135.66 405.291 136.34 405.186 136.984H409.334V132.508H405.116ZM433.111 125.898V138.484H430.51V133.305H426.9V131.172H430.51V125.898H433.111ZM425.939 139.023C430.439 139.023 433.182 140.5 433.182 143.055C433.182 145.609 430.439 147.086 425.939 147.086C421.463 147.086 418.721 145.609 418.744 143.055C418.721 140.5 421.463 139.023 425.939 139.023ZM425.939 141.016C422.986 141.016 421.322 141.719 421.322 143.055C421.322 144.367 422.986 145.07 425.939 145.07C428.892 145.07 430.58 144.367 430.58 143.055C430.58 141.719 428.892 141.016 425.939 141.016ZM423.15 129.531C423.15 132.109 424.861 134.711 428.142 135.812L426.83 137.875C424.475 137.078 422.799 135.461 421.885 133.469C420.947 135.73 419.178 137.535 416.658 138.438L415.299 136.375C418.697 135.203 420.502 132.344 420.502 129.555V129.391H416.096V127.281H427.533V129.391H423.15V129.531ZM446.224 126.227C451.052 126.227 453.841 127.516 453.865 129.859C453.841 132.227 451.052 133.492 446.224 133.516C441.396 133.492 438.583 132.227 438.583 129.859C438.583 127.516 441.396 126.227 446.224 126.227ZM446.224 128.148C442.99 128.148 441.302 128.758 441.326 129.859C441.302 131.031 442.99 131.57 446.224 131.57C449.505 131.57 451.169 131.031 451.169 129.859C451.169 128.758 449.505 128.148 446.224 128.148ZM455.904 134.641V136.727H436.591V134.641H455.904ZM453.49 138.156V143.336H441.443V144.906H454.076V146.898H438.888V141.484H450.935V140.078H438.865V138.156H453.49ZM148.016 177.914V179.977H128.656V177.914H137.023V176.344H131.141V167.461H145.695V169.477H133.742V170.93H145.18V172.852H133.742V174.352H145.859V176.344H139.625V177.914H148.016ZM138.336 181.148C143 181.148 145.648 182.391 145.672 184.594C145.648 186.867 143 188.062 138.336 188.062C133.602 188.062 130.953 186.867 130.953 184.594C130.953 182.391 133.602 181.148 138.336 181.148ZM138.336 183.094C135.148 183.094 133.555 183.586 133.555 184.594C133.555 185.625 135.148 186.117 138.336 186.117C141.477 186.117 143.047 185.625 143.07 184.594C143.047 183.586 141.477 183.094 138.336 183.094ZM160.261 170.273V172.359H149.878V170.273H153.816V167.508H156.394V170.273H160.261ZM155.105 173.484C157.8 173.484 159.722 175.523 159.722 178.406C159.722 181.336 157.8 183.398 155.105 183.398C152.433 183.398 150.464 181.336 150.488 178.406C150.464 175.523 152.433 173.484 155.105 173.484ZM155.105 175.641C153.722 175.641 152.761 176.742 152.785 178.406C152.761 180.117 153.722 181.195 155.105 181.172C156.464 181.195 157.425 180.117 157.425 178.406C157.425 176.742 156.464 175.641 155.105 175.641ZM168.136 166.898V188.086H165.652V177.727H163.589V187.125H161.152V167.344H163.589V175.617H165.652V166.898H168.136ZM188.081 168.727V178.734H178.049V168.727H188.081ZM180.604 170.812V176.672H185.526V170.812H180.604ZM194.034 166.898V173.109H196.987V175.289H194.034V182.367H191.432V166.898H194.034ZM194.877 185.555V187.664H180.463V180.867H183.065V185.555H194.877ZM202.084 168.375V176.391C204.803 176.355 207.686 176.156 210.803 175.523L211.084 177.656C207.592 178.383 204.334 178.57 201.217 178.57H199.459V168.375H202.084ZM215.256 166.922V172.992H218.209V175.172H215.256V182.156H212.654V166.922H215.256ZM215.959 185.555V187.664H201.709V180.703H204.334V185.555H215.959ZM233.513 171.984C233.489 175.758 235.388 179.602 238.669 181.172L237.075 183.258C234.778 182.098 233.126 179.859 232.224 177.164C231.298 180.047 229.564 182.438 227.138 183.656L225.544 181.57C228.942 179.953 230.888 175.898 230.911 171.984V168.609H233.513V171.984ZM242.536 166.898V175.195H245.794V177.422H242.536V188.086H239.935V166.898H242.536ZM263.876 166.922V172.078H266.852V174.258H263.876V179.508H261.274V166.922H263.876ZM263.876 180.445V187.828H250.165V180.445H263.876ZM252.719 182.484V185.719H261.321V182.484H252.719ZM257.641 168V174.211H250.587V176.484C254.184 176.473 256.645 176.355 259.54 175.875L259.821 177.938C256.657 178.523 253.915 178.617 249.719 178.617H247.985V172.242H255.087V170.086H247.962V168H257.641ZM287.723 175.383V177.445H268.387V175.383H287.723ZM285.426 171.961V174.023H270.848V167.438H285.238V169.523H273.449V171.961H285.426ZM285.285 178.898V184.219H273.238V185.836H285.871V187.875H270.684V182.344H282.731V180.867H270.66V178.898H285.285ZM301.445 169.102V170.602C301.445 172.5 301.445 175.148 300.859 178.805L298.281 178.594C298.785 175.383 298.843 173.016 298.867 171.188H290.547V169.102H301.445ZM296.101 175.148V181.406C298.258 181.324 300.472 181.172 302.5 180.914L302.64 182.859C298.258 183.562 293.406 183.656 289.679 183.633L289.422 181.547C290.675 181.535 292.07 181.523 293.523 181.477V175.148H296.101ZM306.226 166.898V175.523H309.297V177.727H306.226V188.086H303.601V166.898H306.226ZM334.655 166.922V182.227H332.03V166.922H334.655ZM335.241 185.555V187.664H320.639V180.68H323.264V185.555H335.241ZM323.1 168.305C326.311 168.305 328.796 170.531 328.796 173.602C328.796 176.742 326.311 178.922 323.1 178.922C319.866 178.922 317.382 176.742 317.382 173.602C317.382 170.531 319.866 168.305 323.1 168.305ZM323.1 170.578C321.296 170.578 319.913 171.773 319.936 173.602C319.913 175.477 321.296 176.648 323.1 176.648C324.858 176.648 326.241 175.477 326.241 173.602C326.241 171.773 324.858 170.578 323.1 170.578ZM355.971 166.922V182.461H353.369V177.211H348.33C347.311 178.348 345.811 179.039 344.112 179.039C340.924 179.039 338.51 176.742 338.51 173.625C338.51 170.461 340.924 168.188 344.112 168.188C345.799 168.188 347.287 168.867 348.307 169.992H353.369V166.922H355.971ZM356.51 185.555V187.664H342.072V180.867H344.674V185.555H356.51ZM344.112 170.508C342.283 170.508 340.994 171.727 340.994 173.625C340.994 175.5 342.283 176.719 344.112 176.719C345.846 176.719 347.158 175.5 347.182 173.625C347.158 171.727 345.846 170.508 344.112 170.508ZM349.455 172.102C349.584 172.582 349.666 173.086 349.666 173.625C349.666 174.141 349.596 174.633 349.479 175.102H353.369V172.102H349.455ZM369.084 167.227C373.912 167.227 376.701 168.516 376.724 170.859C376.701 173.227 373.912 174.492 369.084 174.516C364.256 174.492 361.443 173.227 361.443 170.859C361.443 168.516 364.256 167.227 369.084 167.227ZM369.084 169.148C365.849 169.148 364.162 169.758 364.185 170.859C364.162 172.031 365.849 172.57 369.084 172.57C372.365 172.57 374.029 172.031 374.029 170.859C374.029 169.758 372.365 169.148 369.084 169.148ZM378.763 175.641V177.727H359.451V175.641H378.763ZM376.349 179.156V184.336H364.303V185.906H376.935V187.898H361.748V182.484H373.795V181.078H361.724V179.156H376.349ZM404.473 166.898V188.109H401.848V166.898H404.473ZM393.059 168.445C396.247 168.445 398.567 171.352 398.591 175.922C398.567 180.539 396.247 183.422 393.059 183.422C389.848 183.422 387.528 180.539 387.528 175.922C387.528 171.352 389.848 168.445 393.059 168.445ZM393.059 170.789C391.255 170.789 390.036 172.688 390.036 175.922C390.036 179.18 391.255 181.078 393.059 181.078C394.841 181.078 396.059 179.18 396.059 175.922C396.059 172.688 394.841 170.789 393.059 170.789ZM413.86 168.445C416.731 168.445 418.852 170.836 419.227 174.703H423.258V166.898H425.836V188.109H423.258V176.812H419.25C418.969 180.902 416.813 183.422 413.86 183.422C410.672 183.422 408.422 180.539 408.422 175.922C408.422 171.352 410.672 168.445 413.86 168.445ZM413.86 170.789C412.102 170.789 410.907 172.688 410.93 175.922C410.907 179.18 412.102 181.078 413.86 181.078C415.617 181.078 416.789 179.18 416.813 175.922C416.789 172.688 415.617 170.789 413.86 170.789ZM445.887 166.898V175.172H449.027V177.352H445.887V188.039H443.285V166.898H445.887ZM440.285 169.102C440.285 175.336 437.707 180.797 430.652 184.266L429.176 182.25C434.332 179.684 437.121 176.074 437.66 171.258H430.324V169.102H440.285ZM467.671 172.898V174.961H452.999V167.672H455.578V172.898H467.671ZM469.851 177.422V179.484H450.492V177.422H469.851ZM467.812 185.484V187.594H452.812V181.359H455.413V185.484H467.812ZM494.834 167.906V169.5C494.834 171.117 494.834 172.945 494.319 175.336L491.717 175.078C492.186 172.957 492.233 171.387 492.233 169.945H480.163V167.906H494.834ZM497.178 176.602V178.664H477.959V176.602H485.413V172.547H487.991V176.602H497.178ZM488.788 180.844C488.788 183.234 491.366 185.414 495.819 185.977L494.858 187.969C491.413 187.5 488.788 186.07 487.475 184.031C486.151 186.07 483.526 187.5 480.116 187.969L479.178 185.977C483.561 185.414 486.139 183.234 486.163 180.844V180.07H488.788V180.844Z" fill="white"/>
</g>
<defs>
<filter id="filter0_d_4723_2887" x="0" y="0" width="546" height="250" filterUnits="userSpaceOnUse" color-interpolation-filters="sRGB">
<feFlood flood-opacity="0" result="BackgroundImageFix"/>
<feColorMatrix in="SourceAlpha" type="matrix" values="0 0 0 0 0 0 0 0 0 0 0 0 0 0 0 0 0 0 127 0" result="hardAlpha"/>
<feOffset dy="4"/>
<feGaussianBlur stdDeviation="8"/>
<feComposite in2="hardAlpha" operator="out"/>
<feColorMatrix type="matrix" values="0 0 0 0 0 0 0 0 0 0 0 0 0 0 0 0 0 0 0.1 0"/>
<feBlend mode="normal" in2="BackgroundImageFix" result="effect1_dropShadow_4723_2887"/>
<feBlend mode="normal" in="SourceGraphic" in2="effect1_dropShadow_4723_2887" result="shape"/>
</filter>
</defs>
</svg>
