<svg width="635" height="124" viewBox="0 0 635 124" fill="none" xmlns="http://www.w3.org/2000/svg">
<path d="M17.8125 16.7422V18.8516H3.09375V10.9062H5.69531V16.7422H17.8125ZM20.0156 21.4531V23.5625H15.375V31.0859H12.75V23.5625H7.96875V31.0859H5.36719V23.5625H0.703125V21.4531H20.0156ZM32.8706 12.8047C32.8706 16.0859 36.0816 19.3672 40.5112 20.1406L39.3394 22.3203C35.7886 21.5703 32.8823 19.4258 31.5112 16.5781C30.105 19.4023 27.1987 21.5586 23.6597 22.3203L22.5112 20.1406C26.8941 19.3438 30.0816 16.0625 30.105 12.8047V11.2344H32.8706V12.8047ZM41.2847 26.2344V28.3906H21.9253V26.2344H41.2847ZM51.3037 12.1016V19.8828H46.2881V23.8672C48.4795 23.8438 50.5537 23.75 52.9444 23.3047L53.1553 25.4375C50.3194 25.9531 47.9287 26.0234 45.2569 26.0234H43.7803V17.8203H48.7959V14.1875H43.7569V12.1016H51.3037ZM61.3819 9.89844V31.0859H58.8975V9.89844H61.3819ZM57.0225 10.3438V30.0078H54.5616V19.3906H52.2412V17.2578H54.5616V10.3438H57.0225ZM82.1353 9.89844V31.1094H79.5572V19.6719H75.5728V17.5625H79.5572V9.89844H82.1353ZM75.2447 11.7266V13.8594H67.9556V17.6562H74.4009V19.7188H67.9556V24.0781C71.1783 24.0664 73.5923 23.9609 76.3228 23.5156L76.5806 25.625C73.4869 26.0938 70.7916 26.2109 66.9947 26.2344H65.3306V11.7266H75.2447ZM92.4591 11.375C95.8106 11.3516 98.2716 13.4844 98.295 16.4844C98.2716 19.5078 95.8106 21.6172 92.4591 21.6172C89.1309 21.6172 86.6466 19.5078 86.6466 16.4844C86.6466 13.4844 89.1309 11.3516 92.4591 11.375ZM92.4591 13.625C90.6075 13.625 89.2247 14.7266 89.2247 16.4844C89.2247 18.2656 90.6075 19.3438 92.4591 19.3438C94.3341 19.3438 95.7403 18.2656 95.7403 16.4844C95.7403 14.7266 94.3341 13.625 92.4591 13.625ZM103.24 9.89844V31.1094H100.639V9.89844H103.24ZM85.6856 24.5469C89.5059 24.5469 94.8028 24.5 99.3731 23.8438L99.5841 25.7422C94.8262 26.6562 89.7403 26.6797 86.0137 26.6797L85.6856 24.5469ZM120.607 14.2578C120.607 16.5547 122.317 18.8047 125.646 19.7188L124.45 21.7344C122.013 21.0781 120.278 19.6484 119.341 17.8203C118.403 19.8359 116.634 21.3945 114.114 22.1094L112.872 20.0938C116.224 19.1562 118.005 16.7891 118.005 14.2578V14.2109H113.575V12.1484H118.005V9.80469H120.63V12.1484H125.036V14.2109H120.607V14.2578ZM129.7 9.89844V15.0078H132.653V17.1641H129.7V22.3672H127.099V9.89844H129.7ZM129.7 23.2578V30.8281H116.013V23.2578H129.7ZM118.591 25.3203V28.7188H127.122V25.3203H118.591ZM151.508 11.8438V13.8828C151.485 16.5078 151.485 19.4609 150.665 23.8906L148.04 23.6094C148.86 19.4844 148.86 16.4727 148.883 13.9297H136.227V11.8438H151.508ZM153.524 26.2109V28.3438H134.212V26.2109H141.337V18.8516H143.915V26.2109H153.524ZM169.179 14.9844C169.156 18.7578 171.054 22.6016 174.336 24.1719L172.742 26.2578C170.445 25.0977 168.793 22.8594 167.89 20.1641C166.965 23.0469 165.23 25.4375 162.804 26.6562L161.211 24.5703C164.609 22.9531 166.554 18.8984 166.578 14.9844V11.6094H169.179V14.9844ZM178.203 9.89844V18.1953H181.461V20.4219H178.203V31.0859H175.601V9.89844H178.203ZM190.87 14.2109C190.87 16.8359 192.675 19.4141 196.05 20.4688L194.714 22.5078C192.312 21.7227 190.566 20.1406 189.605 18.125C188.644 20.3164 186.851 22.0625 184.331 22.9297L182.995 20.8672C186.394 19.7422 188.222 17 188.245 14.2109V13.6016H183.675V11.5156H195.323V13.6016H190.87V14.2109ZM200.48 9.92188V25.2969H197.855V9.92188H200.48ZM201.066 28.5547V30.6641H186.464V23.8906H189.089V28.5547H201.066ZM217.846 14.4219C217.846 16.7656 219.651 18.9453 222.979 19.8594L221.783 21.875C219.311 21.207 217.541 19.7891 216.58 17.9609C215.643 19.9531 213.873 21.5117 211.354 22.2734L210.112 20.2344C213.463 19.2969 215.244 16.9297 215.244 14.4219V14.2109H210.815V12.1484H215.244V9.80469H217.869V12.1484H222.276V14.2109H217.846V14.4219ZM227.971 9.89844V22.3672H225.369V17.7031H221.713V15.5938H225.369V9.89844H227.971ZM227.971 23.3281V30.8281H213.885V23.3281H227.971ZM216.487 25.4141V28.7188H225.416V25.4141H216.487ZM250.787 22.2266V24.2891H242.349V31.0859H239.771V24.2891H231.428V22.2266H250.787ZM236.349 10.7422V13.3438H245.818V10.7422H248.443V20.0234H233.771V10.7422H236.349ZM236.349 17.9141H245.818V15.4062H236.349V17.9141Z" fill="#40424D"/>
<path d="M14.8633 64.9219V65.7812C14.8633 66.8945 14.8633 68.6719 14.3555 71.0156L12.5391 70.8008C12.959 68.8867 13.0273 67.4609 13.0664 66.4062H8.82812V64.9219H14.8633ZM16.582 72.3633V73.8672H0.664062V72.3633H8.04688V68.9844H9.88281V72.3633H16.582ZM14.6094 75.5859V81.5625H12.7148V77.0898H2.40234V75.5859H14.6094ZM7.40234 64.9219V65.5664C7.38281 66.6211 7.38281 68.4961 6.54297 71.0352L4.76562 70.7812C5.39062 68.8477 5.53711 67.4121 5.58594 66.4062H2.01172V64.9219H7.40234ZM37.5969 64.9023V66.0547C37.5969 67.2168 37.5969 68.6816 37.2258 70.5859H39.6281V72.0703H23.6125V70.5859H35.3703C35.7219 68.8086 35.7609 67.4707 35.7609 66.3867H25.6242V64.9023H37.5969ZM37.6164 73.6328V78.2227H27.3625V80H38.0656V81.4844H25.507V76.7969H35.7805V75.1172H25.4875V73.6328H37.6164ZM56.3266 65.4883V66.4648C56.307 67.6367 56.307 69.375 55.8773 71.6406L54.0414 71.4648C54.4223 69.5215 54.4809 68.1152 54.5102 67.0117H47.4984V65.4883H56.3266ZM51.8539 69.4141V73.0273C53.7289 72.9688 55.6625 72.832 57.4203 72.5781L57.5375 73.9258C53.8852 74.5703 49.7055 74.6289 46.6195 74.6484L46.4437 73.1445C47.518 73.1348 48.7387 73.125 50.018 73.0859V69.4141H51.8539ZM60.4281 64.1602V69.7266H62.8305V71.2891H60.4281V77.3047H58.5336V64.1602H60.4281ZM60.9945 79.7852V81.2891H49.1V76.1133H50.9555V79.7852H60.9945ZM72.6055 65.3906V70.6641H66.8242V73.2617C69.7344 73.252 71.4629 73.1641 73.5234 72.8125L73.7188 74.3164C71.4531 74.707 69.5781 74.7656 66.2578 74.7656H64.9688V69.2383H70.7305V66.875H64.9297V65.3906H72.6055ZM78.8555 64.1797V77.0508H77V72.4609H73.7383V70.9375H77V68.5156H73.7383V67.0312H77V64.1797H78.8555ZM79.3633 79.707V81.2305H67.3516V76.0938H69.207V79.707H79.3633ZM101.726 64.1602V81.6992H99.8703V64.1602H101.726ZM92.3703 65.4688C94.968 65.4688 96.882 67.8516 96.882 71.6016C96.882 75.3711 94.968 77.7539 92.3703 77.7539C89.7336 77.7539 87.8391 75.3711 87.8391 71.6016C87.8391 67.8516 89.7336 65.4688 92.3703 65.4688ZM92.3703 67.1289C90.7492 67.1289 89.6359 68.8477 89.6359 71.6016C89.6359 74.375 90.7492 76.0938 92.3703 76.0938C93.9719 76.0938 95.0852 74.375 95.0852 71.6016C95.0852 68.8477 93.9719 67.1289 92.3703 67.1289ZM114.098 65.8398V77.3438H105.895V65.8398H114.098ZM107.731 67.3047V75.8398H112.302V67.3047H107.731ZM119.411 64.1602V81.6992H117.555V64.1602H119.411ZM129.049 69.3164C129.049 72.2461 130.963 75.2734 133.659 76.4258L132.643 77.8711C130.582 76.9629 128.942 75.0391 128.131 72.6953C127.321 75.1953 125.67 77.3242 123.639 78.3203L122.565 76.8555C125.202 75.625 127.155 72.3242 127.174 69.3164V67.4609H123.17V65.918H133.034V67.4609H129.049V69.3164ZM137.096 64.1602V81.6602H135.241V64.1602H137.096ZM153.922 64.1602V71.1328H156.637V72.6758H153.922V81.6406H152.066V64.1602H153.922ZM149.352 65.9961C149.332 71.0547 147.105 75.5664 141.344 78.418L140.309 76.9727C144.693 74.7852 147.076 71.6211 147.457 67.5391H141.188V65.9961H149.352ZM169.39 67.8711C169.39 69.9414 171.089 71.7773 173.745 72.5195L172.886 73.9844C170.835 73.3984 169.292 72.1582 168.491 70.5469C167.73 72.3047 166.206 73.6621 164.116 74.3164L163.218 72.8516C165.894 72.0703 167.554 70.0781 167.554 67.8711V67.5977H163.745V66.1133H167.554V64.082H169.409V66.1133H173.198V67.5977H169.39V67.8711ZM177.847 64.1602V74.4922H175.991V70.4883H172.71V68.9648H175.991V64.1602H177.847ZM177.847 75.332V81.4453H166.304V75.332H177.847ZM168.14 76.8359V79.9414H176.03V76.8359H168.14ZM196.938 74.4531V75.918H189.79V81.6602H187.973V75.918H180.923V74.4531H196.938ZM184.751 64.8633V67.1484H193.071V64.8633H194.927V72.4609H182.915V64.8633H184.751ZM184.751 70.9766H193.071V68.6328H184.751V70.9766ZM209.057 71.5625V73.0859H205.366V76.3281C206.987 76.25 208.618 76.1426 210.151 75.9766L210.288 77.3438C206.44 77.9297 202.28 77.9688 198.959 77.9883L198.725 76.4453C200.2 76.4453 201.83 76.4355 203.51 76.3867V73.0859H199.995V65.7812H208.979V67.2852H201.83V71.5625H209.057ZM213.1 64.1602V81.6992H211.245V64.1602H213.1ZM221.059 65.4688C223.432 65.4688 225.17 67.4805 225.453 70.7227H229.066V64.1602H230.902V81.6992H229.066V72.2266H225.473C225.268 75.6348 223.49 77.7539 221.059 77.7539C218.441 77.7539 216.605 75.3711 216.625 71.6016C216.605 67.8516 218.441 65.4688 221.059 65.4688ZM221.059 67.1289C219.477 67.1289 218.383 68.8477 218.383 71.6016C218.383 74.375 219.477 76.0938 221.059 76.0938C222.641 76.0938 223.734 74.375 223.734 71.6016C223.734 68.8477 222.641 67.1289 221.059 67.1289ZM16.6602 111.949V113.492H0.644531V111.949H7.69531V108.355H2.48047V99.3516H4.33594V102.359H12.9297V99.3516H14.7656V108.355H9.53125V111.949H16.6602ZM4.33594 106.852H12.9297V103.863H4.33594V106.852ZM32.4898 103.277V104.762H20.4391V98.7852H22.275V103.277H32.4898ZM34.3258 106.969V108.453H18.3102V106.969H34.3258ZM32.607 113.727V115.25H20.3023V110.113H22.1578V113.727H32.607ZM55.7898 98.1602V115.699H53.9344V98.1602H55.7898ZM46.4344 99.4688C49.032 99.4688 50.9461 101.852 50.9461 105.602C50.9461 109.371 49.032 111.754 46.4344 111.754C43.7977 111.754 41.9031 109.371 41.9031 105.602C41.9031 101.852 43.7977 99.4688 46.4344 99.4688ZM46.4344 101.129C44.8133 101.129 43.7 102.848 43.7 105.602C43.7 108.375 44.8133 110.094 46.4344 110.094C48.0359 110.094 49.1492 108.375 49.1492 105.602C49.1492 102.848 48.0359 101.129 46.4344 101.129ZM74.9984 112.008V113.57H58.9828V112.008H66.0336V108.941H60.9359V103.375H71.2094V100.914H60.8969V99.3906H73.0453V104.859H62.7719V107.418H73.4555V108.941H67.8695V112.008H74.9984ZM95.5836 98.1602V105.25H98.3961V106.793H95.5836V115.66H93.7477V98.1602H95.5836ZM92.2242 100.895V102.418H81.8531V100.895H86.1695V98.3945H88.025V100.895H92.2242ZM87.107 103.707C89.607 103.707 91.443 105.387 91.4625 107.77C91.443 110.172 89.607 111.832 87.107 111.852C84.5875 111.832 82.7516 110.172 82.7516 107.77C82.7516 105.387 84.5875 103.707 87.107 103.707ZM87.107 105.23C85.6227 105.23 84.5094 106.266 84.5289 107.77C84.5094 109.293 85.6227 110.309 87.107 110.289C88.5914 110.309 89.6852 109.293 89.6852 107.77C89.6852 106.266 88.5914 105.23 87.107 105.23ZM104.382 99.4688C105.974 99.4688 107.292 100.387 108.073 101.969H112.39V98.1602H114.226V115.699H112.39V108.98H108.191C107.439 110.738 106.062 111.754 104.382 111.754C101.765 111.754 99.9289 109.371 99.9484 105.602C99.9289 101.852 101.765 99.4688 104.382 99.4688ZM104.382 101.129C102.8 101.129 101.706 102.848 101.706 105.602C101.706 108.375 102.8 110.094 104.382 110.094C105.964 110.094 107.058 108.375 107.058 105.602C107.058 102.848 105.964 101.129 104.382 101.129ZM108.601 103.492C108.728 104.137 108.816 104.84 108.816 105.602C108.816 106.266 108.757 106.881 108.64 107.457H112.39V103.492H108.601ZM131.305 99.0391V100.367C131.305 101.744 131.305 103.307 130.856 105.426H133.337V106.949H117.321V105.426H128.981C129.45 103.385 129.47 101.891 129.47 100.562H119.333V99.0391H131.305ZM131.325 109.176V115.445H119.274V109.176H131.325ZM121.091 110.641V113.941H129.489V110.641H121.091ZM154.781 98.1602V115.699H152.926V98.1602H154.781ZM145.426 99.4688C148.023 99.4688 149.938 101.852 149.938 105.602C149.938 109.371 148.023 111.754 145.426 111.754C142.789 111.754 140.895 109.371 140.895 105.602C140.895 101.852 142.789 99.4688 145.426 99.4688ZM145.426 101.129C143.805 101.129 142.691 102.848 142.691 105.602C142.691 108.375 143.805 110.094 145.426 110.094C147.027 110.094 148.141 108.375 148.141 105.602C148.141 102.848 147.027 101.129 145.426 101.129ZM166.627 101.051V102.555H157.935V101.051H161.373V98.668H163.209V101.051H166.627ZM162.291 103.609C164.517 103.609 166.08 105.27 166.099 107.633C166.08 110.016 164.517 111.695 162.291 111.695C160.103 111.695 158.482 110.016 158.502 107.633C158.482 105.27 160.103 103.609 162.291 103.609ZM162.291 105.152C161.021 105.152 160.142 106.188 160.142 107.633C160.142 109.117 161.021 110.113 162.291 110.113C163.541 110.113 164.459 109.117 164.459 107.633C164.459 106.188 163.541 105.152 162.291 105.152ZM172.955 98.1602V115.66H171.197V106.969H169.185V114.84H167.427V98.5508H169.185V105.445H171.197V98.1602H172.955ZM189.292 98.1602V105.133H192.007V106.676H189.292V115.641H187.437V98.1602H189.292ZM184.722 99.9961C184.702 105.055 182.476 109.566 176.714 112.418L175.679 110.973C180.064 108.785 182.446 105.621 182.827 101.539H176.558V99.9961H184.722ZM205.346 99.918C205.327 101.891 206.928 103.57 209.663 104.195L208.803 105.66C206.723 105.123 205.19 104.01 204.409 102.477C203.618 104.176 202.045 105.465 199.916 106.051L198.998 104.605C201.772 103.883 203.432 102.027 203.432 99.918V98.9023H205.346V99.918ZM213.178 98.1797V115.66H211.342V98.1797H213.178ZM198.608 107.457C201.87 107.477 206.303 107.418 210.131 106.891L210.268 108.219C208.666 108.521 207.016 108.707 205.405 108.805V115.113H203.549V108.922C201.86 108.99 200.258 109 198.862 109L198.608 107.457ZM230.941 98.1797V115.66H229.066V111.48H225.199V110.074H229.066V98.1797H230.941ZM216.234 107.281C219.555 107.262 223.969 107.242 227.797 106.715L227.895 108.082C226.234 108.375 224.506 108.551 222.816 108.648V115.113H220.961V108.746C219.359 108.814 217.836 108.824 216.488 108.824L216.234 107.281ZM221.996 98.9805C224.574 98.9805 226.43 100.406 226.43 102.477C226.43 104.586 224.574 105.953 221.996 105.953C219.359 105.953 217.523 104.586 217.523 102.477C217.523 100.406 219.359 98.9805 221.996 98.9805ZM221.996 100.406C220.375 100.406 219.262 101.246 219.281 102.477C219.262 103.727 220.375 104.527 221.996 104.527C223.559 104.527 224.672 103.727 224.672 102.477C224.672 101.246 223.559 100.406 221.996 100.406ZM240.482 101.148C240.482 103.414 242.162 105.484 244.857 106.363L243.9 107.789C241.888 107.154 240.365 105.777 239.584 104.02C238.793 105.914 237.24 107.408 235.15 108.141L234.193 106.676C236.908 105.758 238.587 103.531 238.607 101.148V100.816H234.681V99.3125H244.33V100.816H240.482V101.148ZM248.509 98.1797V108.336H246.654V98.1797H248.509ZM248.509 109.195V115.445H237.005V109.195H248.509ZM238.841 110.68V113.941H246.693V110.68H238.841Z" fill="#8D92A2"/>
<path d="M447.989 61C447.989 63.9455 450.377 66.3333 453.322 66.3333C456.268 66.3333 458.656 63.9455 458.656 61C458.656 58.0545 456.268 55.6667 453.322 55.6667C450.377 55.6667 447.989 58.0545 447.989 61ZM453.322 61L453.322 62L635 62L635 61L635 60L453.322 60L453.322 61Z" fill="url(#paint0_linear_4795_1096)"/>
<defs>
<linearGradient id="paint0_linear_4795_1096" x1="453.322" y1="61.5" x2="635" y2="61.5" gradientUnits="userSpaceOnUse">
<stop stop-color="#56AFDF"/>
<stop offset="1" stop-color="#56AFDF" stop-opacity="0"/>
</linearGradient>
</defs>
</svg>
