<svg width="635" height="124" viewBox="0 0 635 124" fill="none" xmlns="http://www.w3.org/2000/svg">
<path d="M17.8125 16.7422V18.8516H3.09375V10.9062H5.69531V16.7422H17.8125ZM20.0156 21.4531V23.5625H15.375V31.0859H12.75V23.5625H7.96875V31.0859H5.36719V23.5625H0.703125V21.4531H20.0156ZM32.8706 12.8047C32.8706 16.0859 36.0816 19.3672 40.5112 20.1406L39.3394 22.3203C35.7886 21.5703 32.8823 19.4258 31.5112 16.5781C30.105 19.4023 27.1987 21.5586 23.6597 22.3203L22.5112 20.1406C26.8941 19.3438 30.0816 16.0625 30.105 12.8047V11.2344H32.8706V12.8047ZM41.2847 26.2344V28.3906H21.9253V26.2344H41.2847ZM51.3037 12.1016V19.8828H46.2881V23.8672C48.4795 23.8438 50.5537 23.75 52.9444 23.3047L53.1553 25.4375C50.3194 25.9531 47.9287 26.0234 45.2569 26.0234H43.7803V17.8203H48.7959V14.1875H43.7569V12.1016H51.3037ZM61.3819 9.89844V31.0859H58.8975V9.89844H61.3819ZM57.0225 10.3438V30.0078H54.5616V19.3906H52.2412V17.2578H54.5616V10.3438H57.0225ZM82.1353 9.89844V31.1094H79.5572V19.6719H75.5728V17.5625H79.5572V9.89844H82.1353ZM75.2447 11.7266V13.8594H67.9556V17.6562H74.4009V19.7188H67.9556V24.0781C71.1783 24.0664 73.5923 23.9609 76.3228 23.5156L76.5806 25.625C73.4869 26.0938 70.7916 26.2109 66.9947 26.2344H65.3306V11.7266H75.2447ZM109.955 9.89844V31.0859H107.447V20.375H105.103V30.0078H102.666V10.2969H105.103V18.2422H107.447V9.89844H109.955ZM95.3063 12.3359V23.5156C97.1344 23.4805 99.1383 23.3281 101.353 22.8828L101.611 25.1562C98.7516 25.6719 96.3375 25.8125 94.0875 25.8125H92.6813V12.3359H95.3063ZM132.302 20.0938V22.1797H112.989V20.0938H117.489V17.3984C115.896 16.7305 114.982 15.6641 114.982 14.2812C114.982 11.75 117.958 10.25 122.622 10.25C127.286 10.25 130.239 11.75 130.263 14.2812C130.251 15.6758 129.337 16.7422 127.732 17.3984V20.0938H132.302ZM122.622 23.4688C127.192 23.4453 129.935 24.8047 129.958 27.2422C129.935 29.7031 127.192 31.0391 122.622 31.0391C118.005 31.0391 115.239 29.7031 115.239 27.2422C115.239 24.8047 118.005 23.4453 122.622 23.4688ZM122.622 25.4375C119.528 25.4375 117.864 26.0469 117.888 27.2422C117.864 28.4375 119.528 29.0703 122.622 29.0703C125.646 29.0703 127.333 28.4375 127.357 27.2422C127.333 26.0469 125.646 25.4375 122.622 25.4375ZM122.622 12.2656C119.482 12.2656 117.677 12.9688 117.7 14.2812C117.677 15.5703 119.482 16.25 122.622 16.25C125.739 16.25 127.567 15.5703 127.567 14.2812C127.567 12.9688 125.739 12.2656 122.622 12.2656ZM120.114 20.0938H125.13V18.0781C124.368 18.1836 123.525 18.2422 122.622 18.2422C121.72 18.2422 120.876 18.1836 120.114 18.0781V20.0938Z" fill="#40424D"/>
<path d="M10.5078 65.9961V67.4805H0.664062V65.9961H4.76562V64.0039H6.60156V65.9961H10.5078ZM5.66406 68.2812C8.02734 68.2812 9.6875 69.5898 9.70703 71.543C9.6875 73.4961 8.02734 74.7852 5.66406 74.7852C3.28125 74.7852 1.64062 73.4961 1.64062 71.543C1.64062 69.5898 3.28125 68.2812 5.66406 68.2812ZM5.66406 69.6875C4.27734 69.6875 3.37891 70.4102 3.37891 71.543C3.37891 72.6758 4.27734 73.3789 5.66406 73.3789C7.03125 73.3789 7.96875 72.6758 7.98828 71.543C7.96875 70.4102 7.03125 69.6875 5.66406 69.6875ZM15.2344 64.1602V75.4297H13.3789V73.1836H10.5469V71.6797H13.3789V69.7461H10.5664V68.2422H13.3789V64.1602H15.2344ZM9.41406 75.6055C13.0859 75.6055 15.332 76.6992 15.332 78.6133C15.332 80.5078 13.0859 81.6406 9.41406 81.6211C5.72266 81.6406 3.47656 80.5078 3.47656 78.6133C3.47656 76.6992 5.72266 75.6055 9.41406 75.6055ZM9.41406 77.0312C6.89453 77.0312 5.41016 77.5781 5.41016 78.6133C5.41016 79.6289 6.89453 80.2148 9.41406 80.1953C11.875 80.2148 13.3594 79.6289 13.3594 78.6133C13.3594 77.5781 11.875 77.0312 9.41406 77.0312ZM24.6969 66.6797C24.6773 69.1016 26.3375 71.3086 29.0328 72.207L28.0953 73.6719C26.0738 72.959 24.5504 71.5332 23.7594 69.707C22.9781 71.6699 21.4449 73.2227 19.3648 73.9648L18.4273 72.5195C21.1617 71.543 22.8023 69.1797 22.8023 66.6797V65H24.6969V66.6797ZM32.8414 75.5078V81.6602H30.9859V77.0117H20.9859V75.5078H32.8414ZM32.8414 64.1602V74.668H30.9859V64.1602H32.8414ZM51.9719 73.3008V74.7852H36.0148V73.3008H51.9719ZM50.175 79.7852V81.2891H38.0266V76.2109H39.9016V79.7852H50.175ZM43.9836 64.7461C47.7727 64.7266 50.2336 66.0547 50.2336 68.2422C50.2336 70.4492 47.7727 71.7773 43.9836 71.7969C40.175 71.7773 37.7336 70.4492 37.7336 68.2422C37.7336 66.0547 40.175 64.7266 43.9836 64.7461ZM43.9836 66.2305C41.3078 66.2305 39.6281 66.9922 39.6477 68.2422C39.6281 69.5312 41.3078 70.2734 43.9836 70.2734C46.6594 70.2734 48.3195 69.5312 48.3195 68.2422C48.3195 66.9922 46.6594 66.2305 43.9836 66.2305ZM65.0766 69.3164C65.0766 72.0898 66.893 75.1758 69.5492 76.4258L68.4945 77.8711C66.5316 76.9238 64.9789 74.9512 64.1977 72.6562C63.3871 75.166 61.7465 77.3242 59.7445 78.3203L58.6508 76.8555C61.307 75.5859 63.2406 72.2852 63.2406 69.3164V67.4609H59.2953V65.918H68.8852V67.4609H65.0766V69.3164ZM72.6156 64.1602V71.0938H75.4281V72.6562H72.6156V81.6602H70.7602V64.1602H72.6156ZM92.6641 74.043V75.5664H88.6016V81.6602H86.7266V75.5664H82.5469V81.6602H80.6328V75.5664H76.6484V74.043H92.6641ZM84.6172 64.8242C88.3086 64.8242 90.8477 66.3281 90.8477 68.6914C90.8477 71.0156 88.3086 72.5 84.6172 72.4805C80.9062 72.5 78.3867 71.0156 78.3867 68.6914C78.3867 66.3281 80.9062 64.8242 84.6172 64.8242ZM84.6172 66.3086C82.0195 66.3281 80.2812 67.2266 80.3008 68.6914C80.2812 70.1172 82.0195 71.0156 84.6172 71.0156C87.2148 71.0156 88.9531 70.1172 88.9531 68.6914C88.9531 67.2266 87.2148 66.3281 84.6172 66.3086ZM110.369 78.0078V79.5703H94.3531V78.0078H101.404V74.9414H96.3063V69.375H106.58V66.9141H96.2672V65.3906H108.416V70.8594H98.1422V73.418H108.826V74.9414H103.24V78.0078H110.369ZM126.667 64.1797V81.6602H124.792V77.4805H120.925V76.0742H124.792V64.1797H126.667ZM111.96 73.2812C115.28 73.2617 119.695 73.2422 123.523 72.7148L123.62 74.082C121.96 74.375 120.232 74.5508 118.542 74.6484V81.1133H116.687V74.7461C115.085 74.8145 113.562 74.8242 112.214 74.8242L111.96 73.2812ZM117.722 64.9805C120.3 64.9805 122.155 66.4062 122.155 68.4766C122.155 70.5859 120.3 71.9531 117.722 71.9531C115.085 71.9531 113.249 70.5859 113.249 68.4766C113.249 66.4062 115.085 64.9805 117.722 64.9805ZM117.722 66.4062C116.101 66.4062 114.988 67.2461 115.007 68.4766C114.988 69.7266 116.101 70.5273 117.722 70.5273C119.284 70.5273 120.398 69.7266 120.398 68.4766C120.398 67.2461 119.284 66.4062 117.722 66.4062ZM151.022 77.9102V79.4336H135.006V77.9102H142.018V73.75H143.854V77.9102H151.022ZM143.893 66.6016C143.893 69.375 146.94 71.9727 150.319 72.5391L149.518 74.0625C146.686 73.4961 144.079 71.748 142.916 69.3359C141.764 71.7383 139.186 73.5156 136.373 74.0625L135.553 72.5391C138.913 71.9727 141.94 69.375 141.94 66.6016V65.2734H143.893V66.6016ZM167.281 64.1602V73.1641H165.426V68.6719H161.734V67.168H165.426V64.1602H167.281ZM167.281 73.9844V78.3398H157.691V79.9609H167.887V81.4453H155.875V76.9336H165.445V75.4492H155.836V73.9844H167.281ZM158.844 66.25C158.844 68.4766 160.445 70.5469 163.082 71.3867L162.105 72.832C160.182 72.168 158.727 70.8496 157.965 69.1797C157.193 71.0547 155.689 72.5293 153.629 73.2422L152.633 71.7578C155.367 70.8789 156.988 68.7109 157.008 66.25V64.7266H158.844V66.25ZM173.521 78.6523L171.959 84.043H170.298L171.334 78.6523H173.521ZM196.235 64.1602V81.6602H194.458V64.1602H196.235ZM192.68 64.4922V80.8008H190.903V72.3633H188.93C188.774 75.7812 187.309 77.9102 185.141 77.8906C182.856 77.9102 181.372 75.5078 181.372 71.7188C181.372 67.9297 182.856 65.5469 185.141 65.5664C187.27 65.5469 188.716 67.5684 188.93 70.8594H190.903V64.4922H192.68ZM185.141 67.3047C183.872 67.3047 183.091 68.9258 183.091 71.7188C183.091 74.5117 183.872 76.1328 185.141 76.1328C186.43 76.1328 187.231 74.5117 187.231 71.7188C187.231 68.9258 186.43 67.3047 185.141 67.3047ZM204.194 68.9453C204.194 71.7383 205.366 74.7266 207.709 76.1523L206.674 77.5781C205.034 76.5918 203.92 74.8438 203.334 72.8125C202.68 75.0391 201.479 76.9336 199.78 77.9688L198.627 76.582C201.108 75.0977 202.397 72.0117 202.397 69.0234V65.7617H204.194V68.9453ZM213.92 64.1602V81.6602H212.143V64.1602H213.92ZM210.288 64.4922V80.8008H208.53V71.8555H205.815V70.3125H208.53V64.4922H210.288ZM231.039 64.1602V81.6992H229.184V64.1602H231.039ZM221.684 65.4688C224.281 65.4688 226.195 67.8516 226.195 71.6016C226.195 75.3711 224.281 77.7539 221.684 77.7539C219.047 77.7539 217.152 75.3711 217.152 71.6016C217.152 67.8516 219.047 65.4688 221.684 65.4688ZM221.684 67.1289C220.062 67.1289 218.949 68.8477 218.949 71.6016C218.949 74.375 220.062 76.0938 221.684 76.0938C223.285 76.0938 224.398 74.375 224.398 71.6016C224.398 68.8477 223.285 67.1289 221.684 67.1289ZM237.377 78.6523L235.814 84.043H234.154L235.189 78.6523H237.377ZM15.2344 98.1602V108.57H13.3789V104.137H10.1172V102.613H13.3789V98.1602H15.2344ZM9.375 109.059C13.0469 109.059 15.293 110.27 15.293 112.359C15.293 114.449 13.0469 115.641 9.375 115.66C5.70312 115.641 3.4375 114.449 3.45703 112.359C3.4375 110.27 5.70312 109.059 9.375 109.059ZM9.375 110.504C6.81641 110.504 5.29297 111.168 5.29297 112.359C5.29297 113.531 6.81641 114.215 9.375 114.195C11.9336 114.215 13.457 113.531 13.457 112.359C13.457 111.168 11.9336 110.504 9.375 110.504ZM6.91406 101.246C6.91406 103.473 8.49609 105.621 11.1328 106.52L10.1758 107.984C8.21289 107.301 6.76758 105.904 6.01562 104.176C5.24414 106.139 3.71094 107.711 1.62109 108.473L0.644531 106.988C3.35938 106.051 5.01953 103.688 5.01953 101.266V100.875H1.23047V99.3711H10.6641V100.875H6.91406V101.246ZM34.3453 111.949V113.492H18.3297V111.949H25.3805V108.355H20.1656V99.3516H22.0211V102.359H30.6148V99.3516H32.4508V108.355H27.2164V111.949H34.3453ZM22.0211 106.852H30.6148V103.863H22.0211V106.852ZM49.1883 109.156C52.9773 109.156 55.3602 110.348 55.3797 112.398C55.3602 114.43 52.9773 115.641 49.1883 115.621C45.4383 115.641 43.0359 114.43 43.0359 112.398C43.0359 110.348 45.4383 109.156 49.1883 109.156ZM49.1883 110.562C46.532 110.562 44.8719 111.246 44.8914 112.398C44.8719 113.531 46.532 114.195 49.1883 114.195C51.8641 114.195 53.5242 113.531 53.5438 112.398C53.5242 111.246 51.8641 110.562 49.1883 110.562ZM55.243 99.0195V100.484C55.243 101.891 55.243 103.336 54.7547 105.133L52.9383 104.938C53.407 103.15 53.407 101.861 53.407 100.504H43.1727V99.0195H55.243ZM57.2352 106.207V107.711H41.3172V106.207H47.7039V102.926H49.5203V106.207H57.2352ZM74.9789 108.043V109.566H70.9164V115.66H69.0414V109.566H64.8617V115.66H62.9477V109.566H58.9633V108.043H74.9789ZM66.932 98.8242C70.6234 98.8242 73.1625 100.328 73.1625 102.691C73.1625 105.016 70.6234 106.5 66.932 106.48C63.2211 106.5 60.7016 105.016 60.7016 102.691C60.7016 100.328 63.2211 98.8242 66.932 98.8242ZM66.932 100.309C64.3344 100.328 62.5961 101.227 62.6156 102.691C62.5961 104.117 64.3344 105.016 66.932 105.016C69.5297 105.016 71.268 104.117 71.268 102.691C71.268 101.227 69.5297 100.328 66.932 100.309ZM86.5312 99.9961V101.48H76.6875V99.9961H80.7891V98.0039H82.625V99.9961H86.5312ZM81.6875 102.281C84.0508 102.281 85.7109 103.59 85.7305 105.543C85.7109 107.496 84.0508 108.785 81.6875 108.785C79.3047 108.785 77.6641 107.496 77.6641 105.543C77.6641 103.59 79.3047 102.281 81.6875 102.281ZM81.6875 103.688C80.3008 103.688 79.4023 104.41 79.4023 105.543C79.4023 106.676 80.3008 107.379 81.6875 107.379C83.0547 107.379 83.9922 106.676 84.0117 105.543C83.9922 104.41 83.0547 103.688 81.6875 103.688ZM91.2578 98.1602V109.43H89.4023V107.184H86.5703V105.68H89.4023V103.746H86.5898V102.242H89.4023V98.1602H91.2578ZM85.4375 109.605C89.1094 109.605 91.3555 110.699 91.3555 112.613C91.3555 114.508 89.1094 115.641 85.4375 115.621C81.7461 115.641 79.5 114.508 79.5 112.613C79.5 110.699 81.7461 109.605 85.4375 109.605ZM85.4375 111.031C82.918 111.031 81.4336 111.578 81.4336 112.613C81.4336 113.629 82.918 114.215 85.4375 114.195C87.8984 114.215 89.3828 113.629 89.3828 112.613C89.3828 111.578 87.8984 111.031 85.4375 111.031ZM113.62 98.9023V100.055C113.62 101.217 113.62 102.682 113.249 104.586H115.652V106.07H99.6359V104.586H111.394C111.745 102.809 111.784 101.471 111.784 100.387H101.648V98.9023H113.62ZM113.64 107.633V112.223H103.386V114H114.089V115.484H101.53V110.797H111.804V109.117H101.511V107.633H113.64ZM136.373 98.1797V103.375H138.873V104.898H136.373V109.957H134.518V98.1797H136.373ZM122.487 108.004C123.844 108.004 125.416 108.004 127.057 107.945V106.773C125.065 106.568 123.795 105.631 123.815 104.215C123.795 102.613 125.455 101.617 127.975 101.637C130.475 101.617 132.135 102.613 132.135 104.215C132.135 105.621 130.885 106.559 128.912 106.773V107.887C130.475 107.809 132.057 107.682 133.522 107.477L133.678 108.805C129.909 109.469 125.768 109.488 122.682 109.488L122.487 108.004ZM136.373 110.777V115.66H134.518V112.223H124.674V110.777H136.373ZM133.034 99.6641V101.051H122.936V99.6641H127.057V98.0234H128.912V99.6641H133.034ZM127.975 102.906C126.471 102.887 125.573 103.375 125.573 104.215C125.573 105.035 126.471 105.562 127.975 105.562C129.459 105.562 130.358 105.035 130.358 104.215C130.358 103.375 129.459 102.887 127.975 102.906ZM154.801 98.1797V110.895H152.945V98.1797H154.801ZM155.328 113.785V115.289H143.355V109.605H145.23V113.785H155.328ZM145.309 99.3516C147.945 99.3516 149.957 101.148 149.957 103.688C149.957 106.266 147.945 108.043 145.309 108.043C142.672 108.043 140.641 106.266 140.641 103.688C140.641 101.148 142.672 99.3516 145.309 99.3516ZM145.309 100.973C143.668 100.973 142.457 102.086 142.457 103.688C142.457 105.328 143.668 106.422 145.309 106.422C146.91 106.422 148.141 105.328 148.141 103.688C148.141 102.086 146.91 100.973 145.309 100.973ZM179.273 111.93V113.473H163.257V111.93H170.308V107.887H165.093V99.5664H177.359V107.887H172.144V111.93H179.273ZM166.89 101.051V106.422H175.542V101.051H166.89ZM194.966 104.605V106.07H183.091V99.1562H194.751V100.66H184.966V104.605H194.966ZM196.938 108.199V109.703H189.79V115.621H187.973V109.703H180.923V108.199H196.938ZM217.543 98.1602V105.133H220.258V106.676H217.543V115.641H215.688V98.1602H217.543ZM212.973 99.9961C212.953 105.055 210.727 109.566 204.965 112.418L203.93 110.973C208.314 108.785 210.697 105.621 211.078 101.539H204.809V99.9961H212.973ZM235.736 102.887V104.391H223.724V98.4727H225.56V102.887H235.736ZM237.572 106.246V107.77H221.595V106.246H237.572ZM229.564 109.195C233.334 109.195 235.599 110.348 235.599 112.379C235.599 114.43 233.334 115.582 229.564 115.582C225.775 115.582 223.49 114.43 223.49 112.379C223.49 110.348 225.775 109.195 229.564 109.195ZM229.564 110.641C226.888 110.66 225.365 111.246 225.365 112.379C225.365 113.492 226.888 114.156 229.564 114.156C232.201 114.156 233.744 113.492 233.744 112.379C233.744 111.246 232.201 110.66 229.564 110.641ZM253.03 98.1602V102.691H255.57V104.273H253.03V108.707H251.175V98.1602H253.03ZM253.03 109.625V115.445H241.859V109.625H253.03ZM243.675 111.09V113.941H251.195V111.09H243.675ZM249.73 99.9375V101.422H239.3V99.9375H243.597V98.0234H245.452V99.9375H249.73ZM244.515 102.184C247.034 102.184 248.753 103.434 248.753 105.309C248.753 107.203 247.034 108.434 244.515 108.453C241.956 108.434 240.257 107.203 240.257 105.309C240.257 103.434 241.956 102.184 244.515 102.184ZM244.515 103.609C243.03 103.59 242.034 104.254 242.054 105.309C242.034 106.402 243.03 107.047 244.515 107.047C245.999 107.047 246.995 106.402 247.015 105.309C246.995 104.254 245.999 103.59 244.515 103.609Z" fill="#8D92A2"/>
<path d="M447.989 61C447.989 63.9455 450.377 66.3333 453.322 66.3333C456.268 66.3333 458.656 63.9455 458.656 61C458.656 58.0545 456.268 55.6667 453.322 55.6667C450.377 55.6667 447.989 58.0545 447.989 61ZM453.322 61L453.322 62L635 62L635 61L635 60L453.322 60L453.322 61Z" fill="url(#paint0_linear_4795_1095)"/>
<defs>
<linearGradient id="paint0_linear_4795_1095" x1="453.322" y1="61.5" x2="635" y2="61.5" gradientUnits="userSpaceOnUse">
<stop stop-color="#56AFDF"/>
<stop offset="1" stop-color="#56AFDF" stop-opacity="0"/>
</linearGradient>
</defs>
</svg>
