<svg width="635" height="129" viewBox="0 0 635 129" fill="none" xmlns="http://www.w3.org/2000/svg">
<path d="M17.8125 16.7422V18.8516H3.09375V10.9062H5.69531V16.7422H17.8125ZM20.0156 21.4531V23.5625H15.375V31.0859H12.75V23.5625H7.96875V31.0859H5.36719V23.5625H0.703125V21.4531H20.0156ZM32.8706 12.8047C32.8706 16.0859 36.0816 19.3672 40.5112 20.1406L39.3394 22.3203C35.7886 21.5703 32.8823 19.4258 31.5112 16.5781C30.105 19.4023 27.1987 21.5586 23.6597 22.3203L22.5112 20.1406C26.8941 19.3438 30.0816 16.0625 30.105 12.8047V11.2344H32.8706V12.8047ZM41.2847 26.2344V28.3906H21.9253V26.2344H41.2847ZM51.3037 12.1016V19.8828H46.2881V23.8672C48.4795 23.8438 50.5537 23.75 52.9444 23.3047L53.1553 25.4375C50.3194 25.9531 47.9287 26.0234 45.2569 26.0234H43.7803V17.8203H48.7959V14.1875H43.7569V12.1016H51.3037ZM61.3819 9.89844V31.0859H58.8975V9.89844H61.3819ZM57.0225 10.3438V30.0078H54.5616V19.3906H52.2412V17.2578H54.5616V10.3438H57.0225ZM82.1353 9.89844V31.1094H79.5572V19.6719H75.5728V17.5625H79.5572V9.89844H82.1353ZM75.2447 11.7266V13.8594H67.9556V17.6562H74.4009V19.7188H67.9556V24.0781C71.1783 24.0664 73.5923 23.9609 76.3228 23.5156L76.5806 25.625C73.4869 26.0938 70.7916 26.2109 66.9947 26.2344H65.3306V11.7266H75.2447ZM109.861 9.89844V22.0859H107.259V16.2969H104.517V14.1875H107.259V9.89844H109.861ZM109.861 23.0703V30.7812H95.2828V23.0703H109.861ZM97.8375 25.1094V28.7188H107.283V25.1094H97.8375ZM97.0875 12.6406C97.0641 14.4219 97.3805 16.707 98.7516 18.4062C100.088 16.7422 100.369 14.4688 100.369 12.6406V11.1172H102.806V12.6406C102.806 15.1484 103.556 17.9375 106.041 19.3906L104.564 21.2422C103.076 20.3633 102.15 18.9453 101.611 17.3047C101.107 18.9922 100.228 20.5156 98.7281 21.4531C97.2047 20.5039 96.3258 18.9219 95.8453 17.2109C95.2828 18.8633 94.357 20.3398 92.8688 21.2422L91.4391 19.3906C93.8766 17.8906 94.6031 14.9844 94.6266 12.6406V11.1172H97.0875V12.6406ZM116.482 12.0078V23.6562C118.556 23.6328 120.466 23.4805 122.622 23.0234L122.997 25.2266C120.302 25.8125 117.982 25.9062 115.31 25.9062H113.88V12.0078H116.482ZM131.271 9.89844V31.0859H128.786V9.89844H131.271ZM126.724 10.3438V30.0781H124.263V18.8516H119.833V16.7422H124.263V10.3438H126.724ZM140.212 10.5781C143.423 10.5781 145.813 12.5703 145.837 15.3594C145.813 18.1719 143.423 20.1406 140.212 20.1406C136.977 20.1406 134.587 18.1719 134.587 15.3594C134.587 12.5703 136.977 10.5781 140.212 10.5781ZM140.212 12.7344C138.43 12.7344 137.118 13.7422 137.118 15.3594C137.118 17 138.43 18.0312 140.212 18.0312C141.993 18.0312 143.305 17 143.305 15.3594C143.305 13.7422 141.993 12.7344 140.212 12.7344ZM151.86 9.89844V20.6094H149.235V9.89844H151.86ZM151.86 21.5234V27.0547H140.399V28.7656H152.493V30.8281H137.844V25.1328H149.258V23.5625H137.798V21.5234H151.86Z" fill="#40424D"/>
<path d="M9.29688 72.0508V73.5547H0.605469V72.0508H4.04297V69.668H5.87891V72.0508H9.29688ZM4.96094 74.6094C7.1875 74.6094 8.75 76.2695 8.76953 78.6328C8.75 81.0156 7.1875 82.6953 4.96094 82.6953C2.77344 82.6953 1.15234 81.0156 1.17188 78.6328C1.15234 76.2695 2.77344 74.6094 4.96094 74.6094ZM4.96094 76.1523C3.69141 76.1523 2.8125 77.1875 2.8125 78.6328C2.8125 80.1172 3.69141 81.1133 4.96094 81.1133C6.21094 81.1133 7.12891 80.1172 7.12891 78.6328C7.12891 77.1875 6.21094 76.1523 4.96094 76.1523ZM15.625 69.1602V86.6602H13.8672V77.9688H11.8555V85.8398H10.0977V69.5508H11.8555V76.4453H13.8672V69.1602H15.625ZM32.0992 69.1602V73.5938H34.6187V75.1172H32.0992V79.4922H30.2242V69.1602H32.0992ZM26.4352 79.8242C30.0094 79.8242 32.2359 81.0742 32.2359 83.2227C32.2359 85.3711 30.0094 86.6406 26.4352 86.6211C22.8219 86.6406 20.5562 85.3711 20.5562 83.2227C20.5562 81.0742 22.8219 79.8242 26.4352 79.8242ZM26.4352 81.3281C23.8961 81.3086 22.3727 82.0117 22.3922 83.2227C22.3727 84.4336 23.8961 85.1367 26.4352 85.1367C28.9156 85.1367 30.4391 84.4336 30.4586 83.2227C30.4391 82.0117 28.9156 81.3086 26.4352 81.3281ZM26.8844 70.4492V71.9531H20.9078V76.7188C24.3551 76.709 26.2984 76.6016 28.5055 76.1523L28.6812 77.6562C26.3375 78.1445 24.2477 78.2227 20.4586 78.2227H19.0719V70.4492H26.8844ZM55.4188 74.9414V76.4453H43.2898V70.0195H45.1648V74.9414H55.4188ZM57.2547 78.8086V80.3125H53.2703V86.6602H51.3953V80.3125H47.157V86.6602H45.3016V80.3125H41.2977V78.8086H57.2547ZM67.8695 71.6406C67.8695 74.4922 70.9164 77.1875 74.2758 77.793L73.4164 79.3359C70.6234 78.7305 68.0453 76.8945 66.9125 74.4336C65.7602 76.875 63.1918 78.7109 60.3891 79.3359L59.5687 77.793C62.8891 77.168 65.9164 74.4922 65.9164 71.6406V70.3125H67.8695V71.6406ZM74.9984 82.8125V84.3555H58.9828V82.8125H74.9984ZM83.4453 71.0352V77.2656H79.0117V80.8594C80.916 80.8496 82.7324 80.7812 84.8906 80.3906L85.0469 81.9141C82.625 82.3438 80.6328 82.4023 78.4258 82.4219H77.2148V75.7812H81.668V72.5391H77.1953V71.0352H83.4453ZM91.6875 69.1602V86.6602H89.9102V69.1602H91.6875ZM88.0938 69.5508V85.7617H86.3359V76.8555H84.2656V75.3516H86.3359V69.5508H88.0938ZM108.943 69.1602V86.6992H107.107V77.1484H103.63V75.625H107.107V69.1602H108.943ZM103.338 70.7227V72.2266H97.0289V75.625H102.595V77.1094H97.0289V81.0156C99.9586 81.0059 101.99 80.9375 104.314 80.5273L104.509 82.0312C101.97 82.4414 99.7633 82.5391 96.5211 82.5586H95.1539V70.7227H103.338ZM117.741 70.4102C120.515 70.3906 122.488 72.1094 122.507 74.5703C122.488 77.0312 120.515 78.75 117.741 78.75C114.988 78.75 112.956 77.0312 112.976 74.5703C112.956 72.1094 114.988 70.3906 117.741 70.4102ZM117.741 72.0117C116.042 72.0117 114.792 73.0273 114.812 74.5703C114.792 76.1133 116.042 77.1289 117.741 77.1289C119.441 77.1289 120.691 76.1133 120.691 74.5703C120.691 73.0273 119.441 72.0117 117.741 72.0117ZM126.511 69.1602V86.6992H124.655V69.1602H126.511ZM112.136 81.3867C115.32 81.3867 119.734 81.3477 123.562 80.8008L123.698 82.1484C119.734 82.9102 115.495 82.9297 112.37 82.9297L112.136 81.3867ZM151.022 82.9297V84.4727H135.006V82.9297H142.057V78.8867H136.842V70.5664H149.108V78.8867H143.893V82.9297H151.022ZM138.639 72.0508V77.4219H147.291V72.0508H138.639ZM168.668 77.9297V79.4141H152.691V77.9297H168.668ZM166.871 74.6484V76.1719H154.684V69.8828H166.695V71.3672H156.539V74.6484H166.871ZM166.988 84.7656V86.2891H154.703V81.1328H156.539V84.7656H166.988ZM190.64 69.1602V86.6602H188.863V77.6953H186.616V85.7617H184.878V69.5117H186.616V76.1719H188.863V69.1602H190.64ZM178.335 71.2305V80.5664C179.956 80.5566 181.724 80.4297 183.706 80.0391L183.902 81.6602C181.499 82.0898 179.488 82.207 177.613 82.207H176.48V71.2305H178.335ZM209.302 77.6953V79.1992H193.345V77.6953H197.173V75.332C195.825 74.7852 195.063 73.9062 195.063 72.7539C195.063 70.6836 197.466 69.4727 201.313 69.4727C205.141 69.4727 207.563 70.6836 207.563 72.7539C207.563 73.9062 206.792 74.7949 205.434 75.332V77.6953H209.302ZM201.313 80.3906C205.083 80.3906 207.348 81.5039 207.348 83.4961C207.348 85.5273 205.083 86.6211 201.313 86.6211C197.505 86.6211 195.239 85.5273 195.239 83.4961C195.239 81.5039 197.505 80.3906 201.313 80.3906ZM201.313 81.8164C198.637 81.8164 197.114 82.4219 197.114 83.4961C197.114 84.5898 198.637 85.2148 201.313 85.1953C203.95 85.2148 205.493 84.5898 205.493 83.4961C205.493 82.4219 203.95 81.8164 201.313 81.8164ZM201.313 70.8984C198.598 70.8984 196.958 71.582 196.977 72.7539C196.958 73.9258 198.598 74.5898 201.313 74.5898C204.028 74.5898 205.649 73.9258 205.649 72.7539C205.649 71.582 204.028 70.8984 201.313 70.8984ZM199.048 77.6953H203.598V75.8203C202.915 75.9375 202.143 75.9961 201.313 75.9961C200.493 75.9961 199.731 75.9375 199.048 75.8398V77.6953ZM225.522 69.1602V86.6992H223.666V69.1602H225.522ZM216.166 70.4688C218.764 70.4688 220.678 72.8516 220.678 76.6016C220.678 80.3711 218.764 82.7539 216.166 82.7539C213.53 82.7539 211.635 80.3711 211.635 76.6016C211.635 72.8516 213.53 70.4688 216.166 70.4688ZM216.166 72.1289C214.545 72.1289 213.432 73.8477 213.432 76.6016C213.432 79.375 214.545 81.0938 216.166 81.0938C217.768 81.0938 218.881 79.375 218.881 76.6016C218.881 73.8477 217.768 72.1289 216.166 72.1289ZM247.748 69.1602V73.6914H250.287V75.2734H247.748V79.707H245.892V69.1602H247.748ZM247.748 80.625V86.4453H236.576V80.625H247.748ZM238.392 82.0898V84.9414H245.912V82.0898H238.392ZM244.447 70.9375V72.4219H234.017V70.9375H238.314V69.0234H240.17V70.9375H244.447ZM239.232 73.1836C241.752 73.1836 243.47 74.4336 243.47 76.3086C243.47 78.2031 241.752 79.4336 239.232 79.4531C236.673 79.4336 234.974 78.2031 234.974 76.3086C234.974 74.4336 236.673 73.1836 239.232 73.1836ZM239.232 74.6094C237.748 74.5898 236.752 75.2539 236.771 76.3086C236.752 77.4023 237.748 78.0469 239.232 78.0469C240.716 78.0469 241.712 77.4023 241.732 76.3086C241.712 75.2539 240.716 74.5898 239.232 74.6094ZM267.64 77.9102V79.3945H260.57V81.2305H265.687V86.6211H263.812V82.7344H253.46V81.2305H258.734V79.3945H251.683V77.9102H267.64ZM260.57 69.1016V70.8398H266.038V72.3047H260.687C260.863 74.043 263.265 75.3223 266.761 75.6445L266.175 77.0312C263.167 76.7578 260.726 75.752 259.652 74.1016C258.568 75.752 256.126 76.7578 253.128 77.0312L252.542 75.6445C256.019 75.3223 258.421 74.043 258.636 72.3047H253.284V70.8398H258.734V69.1016H260.57ZM275.638 72.2656C275.638 74.4727 277.22 76.6406 279.856 77.5391L278.899 78.9844C276.936 78.3008 275.481 76.9043 274.72 75.1758C273.958 77.0996 272.425 78.6426 270.345 79.375L269.388 77.9102C272.083 76.9922 273.743 74.6484 273.743 72.2852V71.7969H269.954V70.293H279.388V71.7969H275.638V72.2656ZM283.958 80.5078V86.6602H282.102V82.0117H272.102V80.5078H283.958ZM283.958 69.1602V79.6289H282.102V75.1367H278.86V73.6133H282.102V69.1602H283.958ZM295.022 70.2148C298.694 70.2148 301.487 72.1484 301.487 75.0977C301.487 78.0469 298.694 80 295.022 79.9805C291.35 80 288.577 78.0469 288.577 75.0977C288.577 72.1484 291.35 70.2148 295.022 70.2148ZM295.022 71.7188C292.346 71.6992 290.334 73.0664 290.354 75.0977C290.334 77.1484 292.346 78.457 295.022 78.457C297.698 78.457 299.69 77.1484 299.69 75.0977C299.69 73.0664 297.698 71.6992 295.022 71.7188ZM303.069 82.8516V84.3945H287.053V82.8516H303.069ZM320.754 83.0078V84.5703H304.738V83.0078H311.789V79.9414H306.691V74.375H316.965V71.9141H306.652V70.3906H318.801V75.8594H308.527V78.418H319.211V79.9414H313.625V83.0078H320.754ZM16.6602 116.949V118.492H0.644531V116.949H7.69531V113.355H2.48047V104.352H4.33594V107.359H12.9297V104.352H14.7656V113.355H9.53125V116.949H16.6602ZM4.33594 111.852H12.9297V108.863H4.33594V111.852ZM23.0758 104.469C24.6676 104.469 25.9859 105.387 26.7672 106.969H31.0836V103.16H32.9195V120.699H31.0836V113.98H26.8844C26.1324 115.738 24.7555 116.754 23.0758 116.754C20.4586 116.754 18.6227 114.371 18.6422 110.602C18.6227 106.852 20.4586 104.469 23.0758 104.469ZM23.0758 106.129C21.4937 106.129 20.4 107.848 20.4 110.602C20.4 113.375 21.4937 115.094 23.0758 115.094C24.6578 115.094 25.7516 113.375 25.7516 110.602C25.7516 107.848 24.6578 106.129 23.0758 106.129ZM27.2945 108.492C27.4215 109.137 27.5094 109.84 27.5094 110.602C27.5094 111.266 27.4508 111.881 27.3336 112.457H31.0836V108.492H27.2945ZM42.4602 108.316C42.4602 111.246 44.3742 114.273 47.0695 115.426L46.0539 116.871C43.9934 115.963 42.3527 114.039 41.5422 111.695C40.7316 114.195 39.0812 116.324 37.05 117.32L35.9758 115.855C38.6125 114.625 40.5656 111.324 40.5852 108.316V106.461H36.5812V104.918H46.4445V106.461H42.4602V108.316ZM50.507 103.16V120.66H48.6516V103.16H50.507ZM67.8602 108.277V109.762H55.8094V103.785H57.6453V108.277H67.8602ZM69.6961 111.969V113.453H53.6805V111.969H69.6961ZM67.9773 118.727V120.25H55.6727V115.113H57.5281V118.727H67.9773ZM83.0938 107.613C83.0742 110.816 85.0078 114.02 87.7227 115.23L86.6094 116.695C84.5977 115.738 83.0059 113.775 82.1953 111.383C81.375 113.941 79.7637 116.061 77.6641 117.086L76.5312 115.523C79.2852 114.293 81.2188 110.953 81.2188 107.613V104.625H83.0938V107.613ZM91.1602 103.16V120.699H89.3047V103.16H91.1602ZM108.103 103.16V107.477H110.642V109.039H108.103V113.395H106.248V103.16H108.103ZM103.259 104.234C103.259 108.746 100.213 111.891 95.0172 113.238L94.2555 111.812C98.4547 110.719 100.945 108.502 101.267 105.738H95.0953V104.234H103.259ZM108.103 114.156V120.66H106.248V115.66H96.5406V114.156H108.103ZM131.813 103.16V120.699H129.958V103.16H131.813ZM122.458 104.469C125.055 104.469 126.97 106.852 126.97 110.602C126.97 114.371 125.055 116.754 122.458 116.754C119.821 116.754 117.927 114.371 117.927 110.602C117.927 106.852 119.821 104.469 122.458 104.469ZM122.458 106.129C120.837 106.129 119.723 107.848 119.723 110.602C119.723 113.375 120.837 115.094 122.458 115.094C124.059 115.094 125.173 113.375 125.173 110.602C125.173 107.848 124.059 106.129 122.458 106.129ZM144.186 104.84V116.344H135.983V104.84H144.186ZM137.819 106.305V114.84H142.389V106.305H137.819ZM149.498 103.16V120.699H147.643V103.16H149.498ZM159.137 108.316C159.137 111.246 161.051 114.273 163.746 115.426L162.73 116.871C160.67 115.963 159.029 114.039 158.219 111.695C157.408 114.195 155.758 116.324 153.727 117.32L152.652 115.855C155.289 114.625 157.242 111.324 157.262 108.316V106.461H153.258V104.918H163.121V106.461H159.137V108.316ZM167.184 103.16V120.66H165.328V103.16H167.184ZM185.435 103.16V120.66H183.658V103.16H185.435ZM181.92 103.492V119.801H180.162V114.156H177.623C176.998 115.895 175.836 116.9 174.341 116.891C172.056 116.91 170.572 114.508 170.572 110.719C170.572 106.93 172.056 104.547 174.341 104.566C175.836 104.557 176.988 105.553 177.623 107.281H180.162V103.492H181.92ZM174.341 106.305C173.052 106.305 172.271 107.926 172.271 110.719C172.271 113.512 173.052 115.133 174.341 115.133C175.63 115.133 176.451 113.512 176.451 110.719C176.451 107.926 175.63 106.305 174.341 106.305ZM178.013 108.785C178.101 109.381 178.15 110.025 178.15 110.719C178.15 111.402 178.101 112.047 178.013 112.633H180.162V108.785H178.013ZM204.077 116.93V118.473H188.062V116.93H191.89V112.359C190.454 111.568 189.585 110.309 189.585 108.746C189.585 105.992 192.28 104.176 196.03 104.176C199.8 104.176 202.495 105.992 202.495 108.746C202.495 110.289 201.655 111.529 200.249 112.32V116.93H204.077ZM196.03 105.66C193.277 105.66 191.382 106.852 191.382 108.746C191.382 110.621 193.277 111.852 196.03 111.852C198.765 111.852 200.698 110.621 200.698 108.746C200.698 106.852 198.765 105.66 196.03 105.66ZM193.726 116.93H198.374V113.023C197.661 113.209 196.87 113.297 196.03 113.297C195.21 113.297 194.429 113.209 193.726 113.043V116.93ZM207.739 119.137C206.977 119.137 206.333 118.512 206.352 117.75C206.333 116.988 206.977 116.363 207.739 116.363C208.481 116.363 209.126 116.988 209.126 117.75C209.126 118.512 208.481 119.137 207.739 119.137Z" fill="#8D92A2"/>
<path d="M447.989 63.5C447.989 66.4455 450.377 68.8333 453.322 68.8333C456.268 68.8333 458.656 66.4455 458.656 63.5C458.656 60.5545 456.268 58.1667 453.322 58.1667C450.377 58.1667 447.989 60.5545 447.989 63.5ZM453.322 63.5L453.322 64.5L635 64.5L635 63.5L635 62.5L453.322 62.5L453.322 63.5Z" fill="url(#paint0_linear_4795_1092)"/>
<defs>
<linearGradient id="paint0_linear_4795_1092" x1="453.322" y1="64" x2="635" y2="64" gradientUnits="userSpaceOnUse">
<stop stop-color="#56AFDF"/>
<stop offset="1" stop-color="#56AFDF" stop-opacity="0"/>
</linearGradient>
</defs>
</svg>
