<svg width="635" height="124" viewBox="0 0 635 124" fill="none" xmlns="http://www.w3.org/2000/svg">
<path d="M9.77344 11.6562V13.7656H4.10156V19.25C6.5625 19.2383 8.4375 19.1211 10.5234 18.7109L10.7578 20.8203C8.25 21.2891 6.11719 21.3828 2.97656 21.3828H1.52344V11.6562H9.77344ZM18.8203 9.89844V23.8672H16.3359V17.2812H14.1328V21.9688H11.6953V10.2734H14.1328V15.1484H16.3359V9.89844H18.8203ZM12.8672 23.5391C12.8672 26 15.5859 28.3672 19.875 28.9766L18.7734 30.9922C15.457 30.4414 12.8672 28.8945 11.5781 26.7734C10.2656 28.8945 7.65234 30.4414 4.35938 30.9922L3.28125 28.9766C7.52344 28.3672 10.2422 26 10.2656 23.5391V22.8359H12.8672V23.5391ZM38.9175 10.7891V12.1953C38.9175 13.5898 38.9175 15.3242 38.4956 17.5391H41.2847V19.6016H21.9253V17.5391H35.8706C36.2456 15.6172 36.3042 14.1055 36.3159 12.8516H24.3159V10.7891H38.9175ZM38.8941 21.2891V27.0312H26.7769V28.8359H39.4331V30.875H24.1753V25.0391H36.2925V23.3281H24.1519V21.2891H38.8941ZM68.6822 26.3516V28.4609H49.3228V26.3516H57.6197V21.4531H60.1978V26.3516H68.6822ZM60.2681 12.7344C60.2681 15.9453 63.4791 19.1094 67.9322 19.8125L66.8072 21.9688C63.2212 21.2891 60.2916 19.2383 58.8853 16.4609C57.4791 19.2266 54.5728 21.3125 51.0103 21.9688L49.8853 19.8125C54.315 19.1094 57.4791 15.9219 57.5025 12.7344V11.1875H60.2681V12.7344ZM89.8575 20.9141V22.9766H70.4981V20.9141H78.8653V19.3438H72.9825V10.4609H87.5372V12.4766H75.5841V13.9297H87.0216V15.8516H75.5841V17.3516H87.7012V19.3438H81.4669V20.9141H89.8575ZM80.1778 24.1484C84.8419 24.1484 87.4903 25.3906 87.5137 27.5938C87.4903 29.8672 84.8419 31.0625 80.1778 31.0625C75.4434 31.0625 72.795 29.8672 72.795 27.5938C72.795 25.3906 75.4434 24.1484 80.1778 24.1484ZM80.1778 26.0938C76.9903 26.0938 75.3966 26.5859 75.3966 27.5938C75.3966 28.625 76.9903 29.1172 80.1778 29.1172C83.3184 29.1172 84.8887 28.625 84.9122 27.5938C84.8887 26.5859 83.3184 26.0938 80.1778 26.0938Z" fill="#40424D"/>
<path d="M15.7031 64.1602V81.6602H13.9258V64.1602H15.7031ZM12.1484 64.4922V80.8008H10.3711V72.3633H8.39844C8.24219 75.7812 6.77734 77.9102 4.60938 77.8906C2.32422 77.9102 0.839844 75.5078 0.839844 71.7188C0.839844 67.9297 2.32422 65.5469 4.60938 65.5664C6.73828 65.5469 8.18359 67.5684 8.39844 70.8594H10.3711V64.4922H12.1484ZM4.60938 67.3047C3.33984 67.3047 2.55859 68.9258 2.55859 71.7188C2.55859 74.5117 3.33984 76.1328 4.60938 76.1328C5.89844 76.1328 6.69922 74.5117 6.69922 71.7188C6.69922 68.9258 5.89844 67.3047 4.60938 67.3047ZM32.8219 64.1602V81.6992H30.9664V64.1602H32.8219ZM27.8219 65.7812V67.3242H21.318V75.8203C24.6383 75.8105 26.7574 75.7227 29.2281 75.2734L29.4234 76.8164C26.8062 77.2852 24.5211 77.4023 20.8883 77.4023H19.443V65.7812H27.8219ZM50.6047 64.1602V81.6992H48.7687V72.1484H45.2922V70.625H48.7687V64.1602H50.6047ZM44.9992 65.7227V67.2266H38.6906V70.625H44.257V72.1094H38.6906V76.0156C41.6203 76.0059 43.6516 75.9375 45.9758 75.5273L46.1711 77.0312C43.632 77.4414 41.425 77.5391 38.1828 77.5586H36.8156V65.7227H44.9992ZM67.3328 64.1602V71.1328H70.0477V72.6758H67.3328V81.6406H65.4773V64.1602H67.3328ZM62.7625 65.9961C62.743 71.0547 60.5164 75.5664 54.7547 78.418L53.7195 76.9727C58.1043 74.7852 60.4871 71.6211 60.868 67.5391H54.5984V65.9961H62.7625ZM92.6641 73.125V74.6484H76.668V73.125H92.6641ZM82.1562 66.2695C82.1562 67.5586 82.9863 69.1992 84.6562 70.1758C86.2773 69.2285 87.0781 67.627 87.0781 66.2695V64.7461H88.9531V66.2695C88.9531 67.9102 90.0273 69.6875 92.2734 70.4297L91.3945 71.7773C89.7246 71.1816 88.6113 70.0684 88.0352 68.7305C87.4492 70.1172 86.3457 71.3574 84.6367 71.9727C82.918 71.3477 81.8145 70.0684 81.2578 68.6719C80.6523 69.9902 79.5488 71.1426 77.918 71.7383L77.0195 70.4297C79.2266 69.6094 80.3203 67.7734 80.3203 66.2695V64.7461H82.1562V66.2695ZM90.9453 79.7852V81.2891H78.6406V76.0938H80.4961V79.7852H90.9453ZM113.62 64.9023V66.0547C113.62 67.2168 113.62 68.6816 113.249 70.5859H115.652V72.0703H99.6359V70.5859H111.394C111.745 68.8086 111.784 67.4707 111.784 66.3867H101.648V64.9023H113.62ZM113.64 73.6328V78.2227H103.386V80H114.089V81.4844H101.53V76.7969H111.804V75.1172H101.511V73.6328H113.64ZM132.38 64.1602V81.6602H130.602V64.1602H132.38ZM128.825 64.4922V80.8008H127.048V72.3633H125.075C124.919 75.7812 123.454 77.9102 121.286 77.8906C119.001 77.9102 117.516 75.5078 117.516 71.7188C117.516 67.9297 119.001 65.5469 121.286 65.5664C123.415 65.5469 124.86 67.5684 125.075 70.8594H127.048V64.4922H128.825ZM121.286 67.3047C120.016 67.3047 119.235 68.9258 119.235 71.7188C119.235 74.5117 120.016 76.1328 121.286 76.1328C122.575 76.1328 123.376 74.5117 123.376 71.7188C123.376 68.9258 122.575 67.3047 121.286 67.3047ZM149.273 65.7031V67.2266H142.906V70.6055H148.922V72.0898H142.906V76.0156C145.826 76.0059 147.984 75.8789 150.523 75.4688L150.699 76.9727C148.004 77.4219 145.66 77.5195 142.438 77.5195H141.031V65.7031H149.273ZM153.922 64.1602V71.0547H156.734V72.6172H153.922V81.6602H152.066V64.1602H153.922ZM169.331 68.6133C169.312 71.7188 171.109 74.8828 173.726 76.1523L172.573 77.6367C170.669 76.6504 169.195 74.6875 168.433 72.3438C167.642 74.8438 166.109 76.9336 164.116 77.9688L162.964 76.4648C165.659 75.1758 167.476 71.8164 167.476 68.6133V65.625H169.331V68.6133ZM176.89 64.1602V71.1328H179.702V72.7148H176.89V81.6602H175.034V64.1602H176.89ZM196.899 72.6953V74.1992H180.942V72.6953H184.77V70.332C183.423 69.7852 182.661 68.9062 182.661 67.7539C182.661 65.6836 185.063 64.4727 188.911 64.4727C192.739 64.4727 195.161 65.6836 195.161 67.7539C195.161 68.9062 194.389 69.7949 193.032 70.332V72.6953H196.899ZM188.911 75.3906C192.68 75.3906 194.946 76.5039 194.946 78.4961C194.946 80.5273 192.68 81.6211 188.911 81.6211C185.102 81.6211 182.837 80.5273 182.837 78.4961C182.837 76.5039 185.102 75.3906 188.911 75.3906ZM188.911 76.8164C186.235 76.8164 184.712 77.4219 184.712 78.4961C184.712 79.5898 186.235 80.2148 188.911 80.1953C191.548 80.2148 193.091 79.5898 193.091 78.4961C193.091 77.4219 191.548 76.8164 188.911 76.8164ZM188.911 65.8984C186.196 65.8984 184.555 66.582 184.575 67.7539C184.555 68.9258 186.196 69.5898 188.911 69.5898C191.626 69.5898 193.247 68.9258 193.247 67.7539C193.247 66.582 191.626 65.8984 188.911 65.8984ZM186.645 72.6953H191.196V70.8203C190.512 70.9375 189.741 70.9961 188.911 70.9961C188.091 70.9961 187.329 70.9375 186.645 70.8398V72.6953ZM204.721 69.3164C204.721 72.0898 206.538 75.1758 209.194 76.4258L208.139 77.8711C206.176 76.9238 204.623 74.9512 203.842 72.6562C203.032 75.166 201.391 77.3242 199.389 78.3203L198.295 76.8555C200.952 75.5859 202.885 72.2852 202.885 69.3164V67.4609H198.94V65.918H208.53V67.4609H204.721V69.3164ZM212.26 64.1602V71.0938H215.073V72.6562H212.26V81.6602H210.405V64.1602H212.26ZM232.289 71.3281V72.8125H216.312V71.3281H232.289ZM230.395 68.5742V70.0586H218.402V64.668H230.219V66.1719H220.258V68.5742H230.395ZM230.258 74.1992V78.4375H220.062V80H230.746V81.4648H218.246V77.0703H228.422V75.625H218.227V74.1992H230.258ZM248.49 64.1602V81.6992H246.634V64.1602H248.49ZM239.134 65.4688C241.732 65.4688 243.646 67.8516 243.646 71.6016C243.646 75.3711 241.732 77.7539 239.134 77.7539C236.498 77.7539 234.603 75.3711 234.603 71.6016C234.603 67.8516 236.498 65.4688 239.134 65.4688ZM239.134 67.1289C237.513 67.1289 236.4 68.8477 236.4 71.6016C236.4 74.375 237.513 76.0938 239.134 76.0938C240.736 76.0938 241.849 74.375 241.849 71.6016C241.849 68.8477 240.736 67.1289 239.134 67.1289ZM263.274 68.6133C263.274 71.8164 265.071 75 267.747 76.2109L266.614 77.6953C264.622 76.6992 263.128 74.7168 262.356 72.3242C261.585 74.8438 260.052 76.9727 258.04 78.0273L256.868 76.5234C259.583 75.2344 261.399 71.8555 261.399 68.6133V65.625H263.274V68.6133ZM271.555 64.1602V81.6992H269.72V71.4844H265.813V69.9805H269.72V64.1602H271.555ZM290.666 78.0078V79.5703H274.651V78.0078H281.702V74.9414H276.604V69.375H286.877V66.9141H276.565V65.3906H288.713V70.8594H278.44V73.418H289.123V74.9414H283.538V78.0078H290.666ZM305.119 65.6445V67.1484H300.197V72.0508C302.384 72.0312 304.015 71.9336 305.861 71.5625L306.037 73.0859C303.908 73.4766 302.111 73.5742 299.513 73.5742H298.361V65.6445H305.119ZM312.541 64.1602V75.7031H310.783V70.1367H308.634V74.1797H306.896V64.4727H308.634V68.6133H310.783V64.1602H312.541ZM307.541 75.5273C307.541 77.6953 310.138 79.6484 313.439 80.1367L312.658 81.582C309.992 81.1133 307.687 79.7852 306.623 77.9102C305.539 79.7852 303.234 81.1133 300.568 81.582L299.787 80.1367C303.087 79.6484 305.685 77.6953 305.685 75.5273V74.8828H307.541V75.5273ZM329.288 64.9023V66.0547C329.288 67.2168 329.288 68.6816 328.917 70.5859H331.32V72.0703H315.304V70.5859H327.062C327.413 68.8086 327.452 67.4707 327.452 66.3867H317.316V64.9023H329.288ZM329.308 73.6328V78.2227H319.054V80H329.757V81.4844H317.198V76.7969H327.472V75.1172H317.179V73.6328H329.308ZM340.958 64.4531C344.903 64.4531 347.208 65.5078 347.208 67.4609C347.208 69.4141 344.903 70.4883 340.958 70.4883C337.013 70.4883 334.708 69.4141 334.708 67.4609C334.708 65.5078 337.013 64.4531 340.958 64.4531ZM340.958 65.8203C338.165 65.8203 336.622 66.4258 336.641 67.4609C336.622 68.5352 338.165 69.1016 340.958 69.1016C343.751 69.1016 345.294 68.5352 345.294 67.4609C345.294 66.4258 343.751 65.8203 340.958 65.8203ZM348.946 71.5625V73.0469H332.989V71.5625H348.946ZM346.934 74.3945V78.4961H336.739V80.0586H347.423V81.4844H334.923V77.1484H345.098V75.7812H334.903V74.3945H346.934ZM14.3945 98.1797V102.066H16.9531V103.609H14.3945V108.043H12.5391V98.1797H14.3945ZM14.3945 108.961V115.426H3.18359V108.961H14.3945ZM5 110.406V113.941H12.5977V110.406H5ZM3.30078 99.0391V105.309C5.67383 105.289 8.1543 105.084 10.8398 104.547L11.0742 106.07C8.125 106.676 5.44922 106.832 2.87109 106.852H1.44531V99.0391H3.30078ZM32.8805 98.1602V115.66H31.0055V98.1602H32.8805ZM27.6656 100.035C27.6656 105.152 25.4781 109.605 19.482 112.477L18.5055 110.973C23.1637 108.756 25.4293 105.602 25.7906 101.52H19.3453V100.035H27.6656ZM44.8234 99.8398V102.281H48.7687V98.1602H50.6047V115.699H48.7687V108.59H44.8234V111.285H36.6984V99.8398H44.8234ZM38.5344 101.285V109.801H43.007V101.285H38.5344ZM44.8234 107.086H48.7687V103.805H44.8234V107.086ZM73.5727 98.1602V108.57H71.7172V104.137H68.4555V102.613H71.7172V98.1602H73.5727ZM67.7133 109.059C71.3852 109.059 73.6312 110.27 73.6312 112.359C73.6312 114.449 71.3852 115.641 67.7133 115.66C64.0414 115.641 61.7758 114.449 61.7953 112.359C61.7758 110.27 64.0414 109.059 67.7133 109.059ZM67.7133 110.504C65.1547 110.504 63.6312 111.168 63.6312 112.359C63.6312 113.531 65.1547 114.215 67.7133 114.195C70.2719 114.215 71.7953 113.531 71.7953 112.359C71.7953 111.168 70.2719 110.504 67.7133 110.504ZM65.2523 101.246C65.2523 103.473 66.8344 105.621 69.4711 106.52L68.5141 107.984C66.5512 107.301 65.1059 105.904 64.3539 104.176C63.5824 106.139 62.0492 107.711 59.9594 108.473L58.9828 106.988C61.6977 106.051 63.3578 103.688 63.3578 101.266V100.875H59.5687V99.3711H69.0023V100.875H65.2523V101.246ZM92.6836 111.949V113.492H76.668V111.949H83.7188V108.355H78.5039V99.3516H80.3594V102.359H88.9531V99.3516H90.7891V108.355H85.5547V111.949H92.6836ZM80.3594 106.852H88.9531V103.863H80.3594V106.852ZM107.527 109.156C111.316 109.156 113.698 110.348 113.718 112.398C113.698 114.43 111.316 115.641 107.527 115.621C103.777 115.641 101.374 114.43 101.374 112.398C101.374 110.348 103.777 109.156 107.527 109.156ZM107.527 110.562C104.87 110.562 103.21 111.246 103.23 112.398C103.21 113.531 104.87 114.195 107.527 114.195C110.202 114.195 111.863 113.531 111.882 112.398C111.863 111.246 110.202 110.562 107.527 110.562ZM113.581 99.0195V100.484C113.581 101.891 113.581 103.336 113.093 105.133L111.277 104.938C111.745 103.15 111.745 101.861 111.745 100.504H101.511V99.0195H113.581ZM115.573 106.207V107.711H99.6555V106.207H106.042V102.926H107.859V106.207H115.573ZM133.317 108.043V109.566H129.255V115.66H127.38V109.566H123.2V115.66H121.286V109.566H117.302V108.043H133.317ZM125.27 98.8242C128.962 98.8242 131.501 100.328 131.501 102.691C131.501 105.016 128.962 106.5 125.27 106.48C121.559 106.5 119.04 105.016 119.04 102.691C119.04 100.328 121.559 98.8242 125.27 98.8242ZM125.27 100.309C122.673 100.328 120.934 101.227 120.954 102.691C120.934 104.117 122.673 105.016 125.27 105.016C127.868 105.016 129.606 104.117 129.606 102.691C129.606 101.227 127.868 100.328 125.27 100.309ZM149.527 99.2734V106.461H141.207V99.2734H149.527ZM143.023 100.758V105.016H147.691V100.758H143.023ZM154.781 98.1602V108.16H152.945V98.1602H154.781ZM155.191 109.293V110.699H150.074C150.201 112.223 152.633 113.814 155.816 114.176L155.191 115.602C152.447 115.279 150.191 114.098 149.137 112.555C148.062 114.117 145.758 115.26 143.004 115.602L142.359 114.176C145.543 113.873 148.033 112.262 148.16 110.699H143.062V109.293H148.199V107.652H150.035V109.293H155.191ZM179.273 111.91V113.434H163.257V111.91H170.269V107.75H172.105V111.91H179.273ZM172.144 100.602C172.144 103.375 175.191 105.973 178.57 106.539L177.769 108.062C174.937 107.496 172.329 105.748 171.167 103.336C170.015 105.738 167.437 107.516 164.624 108.062L163.804 106.539C167.163 105.973 170.191 103.375 170.191 100.602V99.2734H172.144V100.602ZM196.899 107.359V108.824H180.903V107.359H187.973V105.836H182.993V98.6289H194.946V100.094H184.868V101.52H194.497V102.906H184.868V104.391H195.063V105.836H189.829V107.359H196.899ZM188.911 109.977C192.759 109.957 194.946 110.973 194.946 112.809C194.946 114.664 192.759 115.641 188.911 115.621C185.024 115.641 182.837 114.664 182.837 112.809C182.837 110.973 185.024 109.957 188.911 109.977ZM188.911 111.363C186.157 111.363 184.673 111.871 184.692 112.809C184.673 113.746 186.157 114.234 188.911 114.215C191.626 114.234 193.091 113.746 193.091 112.809C193.091 111.871 191.626 111.363 188.911 111.363ZM217.543 98.1602V105.133H220.258V106.676H217.543V115.641H215.688V98.1602H217.543ZM212.973 99.9961C212.953 105.055 210.727 109.566 204.965 112.418L203.93 110.973C208.314 108.785 210.697 105.621 211.078 101.539H204.809V99.9961H212.973ZM235.736 102.887V104.391H223.724V98.4727H225.56V102.887H235.736ZM237.572 106.246V107.77H221.595V106.246H237.572ZM229.564 109.195C233.334 109.195 235.599 110.348 235.599 112.379C235.599 114.43 233.334 115.582 229.564 115.582C225.775 115.582 223.49 114.43 223.49 112.379C223.49 110.348 225.775 109.195 229.564 109.195ZM229.564 110.641C226.888 110.66 225.365 111.246 225.365 112.379C225.365 113.492 226.888 114.156 229.564 114.156C232.201 114.156 233.744 113.492 233.744 112.379C233.744 111.246 232.201 110.66 229.564 110.641Z" fill="#8D92A2"/>
<path d="M447.989 58.7656C447.989 61.7111 450.377 64.099 453.322 64.099C456.268 64.099 458.656 61.7111 458.656 58.7656C458.656 55.8201 456.268 53.4323 453.322 53.4323C450.377 53.4323 447.989 55.8201 447.989 58.7656ZM453.322 58.7656L453.322 59.7656L635 59.7656L635 58.7656L635 57.7656L453.322 57.7656L453.322 58.7656Z" fill="url(#paint0_linear_4795_1097)"/>
<defs>
<linearGradient id="paint0_linear_4795_1097" x1="453.322" y1="59.2656" x2="635" y2="59.2656" gradientUnits="userSpaceOnUse">
<stop stop-color="#56AFDF"/>
<stop offset="1" stop-color="#56AFDF" stop-opacity="0"/>
</linearGradient>
</defs>
</svg>
