<svg width="635" height="95" viewBox="0 0 635 95" fill="none" xmlns="http://www.w3.org/2000/svg">
<path d="M17.8125 16.7422V18.8516H3.09375V10.9062H5.69531V16.7422H17.8125ZM20.0156 21.4531V23.5625H15.375V31.0859H12.75V23.5625H7.96875V31.0859H5.36719V23.5625H0.703125V21.4531H20.0156ZM32.8706 12.8047C32.8706 16.0859 36.0816 19.3672 40.5112 20.1406L39.3394 22.3203C35.7886 21.5703 32.8823 19.4258 31.5112 16.5781C30.105 19.4023 27.1987 21.5586 23.6597 22.3203L22.5112 20.1406C26.8941 19.3438 30.0816 16.0625 30.105 12.8047V11.2344H32.8706V12.8047ZM41.2847 26.2344V28.3906H21.9253V26.2344H41.2847ZM51.3037 12.1016V19.8828H46.2881V23.8672C48.4795 23.8438 50.5537 23.75 52.9444 23.3047L53.1553 25.4375C50.3194 25.9531 47.9287 26.0234 45.2569 26.0234H43.7803V17.8203H48.7959V14.1875H43.7569V12.1016H51.3037ZM61.3819 9.89844V31.0859H58.8975V9.89844H61.3819ZM57.0225 10.3438V30.0078H54.5616V19.3906H52.2412V17.2578H54.5616V10.3438H57.0225ZM82.1353 9.89844V31.1094H79.5572V19.6719H75.5728V17.5625H79.5572V9.89844H82.1353ZM75.2447 11.7266V13.8594H67.9556V17.6562H74.4009V19.7188H67.9556V24.0781C71.1783 24.0664 73.5923 23.9609 76.3228 23.5156L76.5806 25.625C73.4869 26.0938 70.7916 26.2109 66.9947 26.2344H65.3306V11.7266H75.2447ZM110.002 9.89844V31.0859H107.517V9.89844H110.002ZM105.689 10.2969V30.0547H103.228V19.3906H100.181V17.2812H103.228V10.2969H105.689ZM98.3063 15.6875C98.3063 19.2734 99.5953 22.8594 102.619 24.5938L101.072 26.5156C99.1148 25.3438 97.8141 23.3281 97.0875 20.9141C96.3375 23.5273 94.9898 25.7539 92.9859 27.0078L91.3922 25.0625C94.4625 23.2109 95.7984 19.3672 95.7984 15.6875V14.2812H92.1188V12.1719H101.728V14.2812H98.3063V15.6875ZM129.841 10.7656V18.125H123.935V20.3516H132.302V22.4609H112.989V20.3516H121.31V18.125H115.427V10.7656H129.841ZM117.958 12.8047V16.0625H127.263V12.8047H117.958ZM129.935 24.2422V31.0859H127.333V26.3047H115.122V24.2422H129.935Z" fill="#40424D"/>
<path d="M8.53516 80.1562C12.3242 80.1562 14.707 81.3477 14.7266 83.3984C14.707 85.4297 12.3242 86.6406 8.53516 86.6211C4.78516 86.6406 2.38281 85.4297 2.38281 83.3984C2.38281 81.3477 4.78516 80.1562 8.53516 80.1562ZM8.53516 81.5625C5.87891 81.5625 4.21875 82.2461 4.23828 83.3984C4.21875 84.5312 5.87891 85.1953 8.53516 85.1953C11.2109 85.1953 12.8711 84.5312 12.8906 83.3984C12.8711 82.2461 11.2109 81.5625 8.53516 81.5625ZM14.5898 70.0195V71.4844C14.5898 72.8906 14.5898 74.3359 14.1016 76.1328L12.2852 75.9375C12.7539 74.1504 12.7539 72.8613 12.7539 71.5039H2.51953V70.0195H14.5898ZM16.582 77.207V78.7109H0.664062V77.207H7.05078V73.9258H8.86719V77.207H16.582ZM32.0797 69.1602V73.2812H34.6187V74.8242H32.0797V79.043H30.2242V69.1602H32.0797ZM27.2555 70.2539C27.2359 74.7461 24.2086 77.8906 18.9937 79.2969L18.2516 77.8125C22.4312 76.709 24.902 74.5117 25.2437 71.7773H19.0719V70.2539H27.2555ZM32.0797 79.7852V86.4258H20.8687V79.7852H32.0797ZM22.7242 81.3281V84.9414H30.2437V81.3281H22.7242ZM45.8781 70.9961V72.4805H36.0344V70.9961H40.1359V69.0039H41.9719V70.9961H45.8781ZM41.0344 73.2812C43.3977 73.2812 45.0578 74.5898 45.0773 76.543C45.0578 78.4961 43.3977 79.7852 41.0344 79.7852C38.6516 79.7852 37.0109 78.4961 37.0109 76.543C37.0109 74.5898 38.6516 73.2812 41.0344 73.2812ZM41.0344 74.6875C39.6477 74.6875 38.7492 75.4102 38.7492 76.543C38.7492 77.6758 39.6477 78.3789 41.0344 78.3789C42.4016 78.3789 43.3391 77.6758 43.3586 76.543C43.3391 75.4102 42.4016 74.6875 41.0344 74.6875ZM50.6047 69.1602V80.4297H48.7492V78.1836H45.9172V76.6797H48.7492V74.7461H45.9367V73.2422H48.7492V69.1602H50.6047ZM44.7844 80.6055C48.4562 80.6055 50.7023 81.6992 50.7023 83.6133C50.7023 85.5078 48.4562 86.6406 44.7844 86.6211C41.093 86.6406 38.8469 85.5078 38.8469 83.6133C38.8469 81.6992 41.093 80.6055 44.7844 80.6055ZM44.7844 82.0312C42.2648 82.0312 40.7805 82.5781 40.7805 83.6133C40.7805 84.6289 42.2648 85.2148 44.7844 85.1953C47.2453 85.2148 48.7297 84.6289 48.7297 83.6133C48.7297 82.5781 47.2453 82.0312 44.7844 82.0312ZM74.9789 78.0078V79.5117H68.0258V82.9102H66.1898V79.5117H58.9633V78.0078H74.9789ZM72.9086 69.9805V76.1914H61.0141V69.9805H72.9086ZM62.8305 71.4453V74.7266H71.0727V71.4453H62.8305ZM73.2016 84.7852V86.2891H60.9555V81.25H62.8109V84.7852H73.2016ZM90.5938 70.2539V71.7969C90.5938 73.457 90.5938 75.2539 90.1055 77.7539H92.625V79.2773H85.5352V86.6797H83.6602V79.2773H76.668V77.7539H88.2305C88.7578 75.2637 88.7578 73.4277 88.7578 71.7969V71.7773H78.6211V70.2539H90.5938ZM97.4977 83.6523L95.9352 89.043H94.275L95.3102 83.6523H97.4977ZM121.11 78.3008V79.7852H105.153V78.3008H121.11ZM119.313 84.7852V86.2891H107.165V81.2109H109.04V84.7852H119.313ZM113.122 69.7461C116.911 69.7266 119.372 71.0547 119.372 73.2422C119.372 75.4492 116.911 76.7773 113.122 76.7969C109.313 76.7773 106.872 75.4492 106.872 73.2422C106.872 71.0547 109.313 69.7266 113.122 69.7461ZM113.122 71.2305C110.446 71.2305 108.766 71.9922 108.786 73.2422C108.766 74.5312 110.446 75.2734 113.122 75.2734C115.798 75.2734 117.458 74.5312 117.458 73.2422C117.458 71.9922 115.798 71.2305 113.122 71.2305ZM138.834 79.043V80.5664H134.772V86.6602H132.897V80.5664H128.717V86.6602H126.803V80.5664H122.819V79.043H138.834ZM130.787 69.8242C134.479 69.8242 137.018 71.3281 137.018 73.6914C137.018 76.0156 134.479 77.5 130.787 77.4805C127.077 77.5 124.557 76.0156 124.557 73.6914C124.557 71.3281 127.077 69.8242 130.787 69.8242ZM130.787 71.3086C128.19 71.3281 126.452 72.2266 126.471 73.6914C126.452 75.1172 128.19 76.0156 130.787 76.0156C133.385 76.0156 135.123 75.1172 135.123 73.6914C135.123 72.2266 133.385 71.3281 130.787 71.3086ZM146.539 70.1953L141.988 87.1289H140.133L144.684 70.1953H146.539ZM162.349 69.1602V86.6992H160.494V69.1602H162.349ZM150.689 70.625V75.1172H155.396V70.625H157.232V82.5H148.834V70.625H150.689ZM150.689 80.9766H155.396V76.582H150.689V80.9766ZM181.538 79.043V80.5664H177.476V86.6602H175.601V80.5664H171.421V86.6602H169.507V80.5664H165.523V79.043H181.538ZM173.491 69.8242C177.183 69.8242 179.722 71.3281 179.722 73.6914C179.722 76.0156 177.183 77.5 173.491 77.4805C169.78 77.5 167.261 76.0156 167.261 73.6914C167.261 71.3281 169.78 69.8242 173.491 69.8242ZM173.491 71.3086C170.894 71.3281 169.155 72.2266 169.175 73.6914C169.155 75.1172 170.894 76.0156 173.491 76.0156C176.089 76.0156 177.827 75.1172 177.827 73.6914C177.827 72.2266 176.089 71.3281 173.491 71.3086ZM199.223 77.1875V78.6133H183.208V77.1875H199.223ZM197.251 79.8438V83.6914H186.977V85.1367H197.798V86.4453H185.122V82.4609H195.415V81.1719H185.102V79.8438H197.251ZM197.212 69.6094V73.3984H187.095V74.7266H197.505V76.0352H185.259V72.168H195.356V70.918H185.22V69.6094H197.212ZM219.965 69.1602V73.5156H222.465V75.0977H219.965V79.4727H218.109V69.1602H219.965ZM219.965 80.2148V83.8672H210.297V85.1953H220.609V86.4844H208.441V82.6758H218.129V81.5039H208.402V80.2148H219.965ZM206.078 77.8125C207.436 77.8125 209.008 77.8125 210.648 77.7539V76.7773C208.637 76.5918 207.387 75.791 207.406 74.4727C207.387 73.0469 209.027 72.207 211.566 72.207C214.086 72.207 215.727 73.0469 215.727 74.4727C215.727 75.7812 214.486 76.582 212.504 76.7773V77.6953C214.066 77.6172 215.648 77.4902 217.113 77.2852L217.27 78.4961C213.5 79.1211 209.359 79.1406 206.273 79.1406L206.078 77.8125ZM216.625 70.4102V71.6992H206.527V70.4102H210.648V69.0039H212.504V70.4102H216.625ZM211.566 73.418C210.062 73.418 209.164 73.8086 209.164 74.4727C209.164 75.1758 210.062 75.6055 211.566 75.6055C213.051 75.6055 213.949 75.1758 213.949 74.4727C213.949 73.8086 213.051 73.418 211.566 73.418ZM239.837 77.6953V79.1992H223.88V77.6953H227.709V75.332C226.361 74.7852 225.599 73.9062 225.599 72.7539C225.599 70.6836 228.002 69.4727 231.849 69.4727C235.677 69.4727 238.099 70.6836 238.099 72.7539C238.099 73.9062 237.328 74.7949 235.97 75.332V77.6953H239.837ZM231.849 80.3906C235.619 80.3906 237.884 81.5039 237.884 83.4961C237.884 85.5273 235.619 86.6211 231.849 86.6211C228.041 86.6211 225.775 85.5273 225.775 83.4961C225.775 81.5039 228.041 80.3906 231.849 80.3906ZM231.849 81.8164C229.173 81.8164 227.65 82.4219 227.65 83.4961C227.65 84.5898 229.173 85.2148 231.849 85.1953C234.486 85.2148 236.029 84.5898 236.029 83.4961C236.029 82.4219 234.486 81.8164 231.849 81.8164ZM231.849 70.8984C229.134 70.8984 227.494 71.582 227.513 72.7539C227.494 73.9258 229.134 74.5898 231.849 74.5898C234.564 74.5898 236.185 73.9258 236.185 72.7539C236.185 71.582 234.564 70.8984 231.849 70.8984ZM229.584 77.6953H234.134V75.8203C233.451 75.9375 232.679 75.9961 231.849 75.9961C231.029 75.9961 230.267 75.9375 229.584 75.8398V77.6953ZM255.316 69.1797V74.8047H257.855V76.3477H255.316V82.2656H253.46V69.1797H255.316ZM252.015 71.2109V72.7148H241.585V71.2109H245.882V69.1602H247.738V71.2109H252.015ZM246.8 73.5547C249.32 73.5547 251.038 74.8633 251.038 76.8555C251.038 78.8477 249.32 80.1367 246.8 80.1367C244.261 80.1367 242.542 78.8477 242.542 76.8555C242.542 74.8633 244.261 73.5547 246.8 73.5547ZM246.8 74.9805C245.316 74.9805 244.32 75.7031 244.339 76.8555C244.32 77.9883 245.316 78.6914 246.8 78.6914C248.284 78.6914 249.28 77.9883 249.3 76.8555C249.28 75.7031 248.284 74.9805 246.8 74.9805ZM256.058 84.7852V86.2891H244.222V81.2305H246.077V84.7852H256.058ZM278.284 69.1602V73.2812H280.823V74.8242H278.284V79.043H276.428V69.1602H278.284ZM273.459 70.2539C273.44 74.7461 270.413 77.8906 265.198 79.2969L264.455 77.8125C268.635 76.709 271.106 74.5117 271.448 71.7773H265.276V70.2539H273.459ZM278.284 79.7852V86.4258H267.073V79.7852H278.284ZM268.928 81.3281V84.9414H276.448V81.3281H268.928ZM288.43 71.7773C288.43 74.2383 290.012 76.4258 292.668 77.2852L291.652 78.7305C289.729 78.0371 288.312 76.6895 287.551 74.9414C286.789 76.9434 285.266 78.4961 283.156 79.2578L282.16 77.7734C284.953 76.8164 286.574 74.4922 286.594 71.8555V70.1367H288.43V71.7773ZM296.809 69.1602V79.4922H294.953V74.2383H291.262V72.7148H294.953V69.1602H296.809ZM290.949 79.9805C294.621 79.9805 296.867 81.1914 296.867 83.3203C296.867 85.4297 294.621 86.6406 290.949 86.6211C287.277 86.6406 285.012 85.4297 285.031 83.3203C285.012 81.1914 287.277 79.9805 290.949 79.9805ZM290.949 81.4258C288.391 81.4258 286.867 82.1094 286.867 83.3203C286.867 84.4922 288.391 85.1562 290.949 85.1562C293.508 85.1562 295.031 84.4922 295.031 83.3203C295.031 82.1094 293.508 81.4258 290.949 81.4258ZM311.28 74.3164C311.28 77.0898 313.097 80.1758 315.753 81.4258L314.698 82.8711C312.736 81.9238 311.183 79.9512 310.402 77.6562C309.591 80.166 307.95 82.3242 305.948 83.3203L304.855 81.8555C307.511 80.5859 309.445 77.2852 309.445 74.3164V72.4609H305.499V70.918H315.089V72.4609H311.28V74.3164ZM318.82 69.1602V76.0938H321.632V77.6562H318.82V86.6602H316.964V69.1602H318.82ZM336.856 69.9805V71.1914C336.856 72.5098 336.856 74.1895 336.446 76.4453H338.888V77.9688H322.872V76.4453H334.571C334.991 74.3066 335.02 72.7441 335.02 71.4844H324.884V69.9805H336.856ZM336.954 80.3906V86.6992H335.098V81.8555H324.571V80.3906H336.954Z" fill="#8D92A2"/>
<path d="M447.989 46.5C447.989 49.4455 450.377 51.8333 453.322 51.8333C456.268 51.8333 458.656 49.4455 458.656 46.5C458.656 43.5545 456.268 41.1667 453.322 41.1667C450.377 41.1667 447.989 43.5545 447.989 46.5ZM453.322 46.5L453.322 47.5L635 47.5L635 46.5L635 45.5L453.322 45.5L453.322 46.5Z" fill="url(#paint0_linear_4795_1093)"/>
<defs>
<linearGradient id="paint0_linear_4795_1093" x1="453.322" y1="47" x2="635" y2="47" gradientUnits="userSpaceOnUse">
<stop stop-color="#56AFDF"/>
<stop offset="1" stop-color="#56AFDF" stop-opacity="0"/>
</linearGradient>
</defs>
</svg>
