<svg width="635" height="129" viewBox="0 0 635 129" fill="none" xmlns="http://www.w3.org/2000/svg">
<path d="M4.00781 10.8359V13.5312H8.95312V10.8359H11.5312V20.0703H1.42969V10.8359H4.00781ZM4.00781 18.0078H8.95312V15.5H4.00781V18.0078ZM17.4141 9.89844V14.1875H20.3672V16.2969H17.4141V20.75H14.8125V9.89844H17.4141ZM17.4141 21.5938V27.1484H6.16406V28.8359H18.0703V30.8984H3.58594V25.25H14.8125V23.6328H3.5625V21.5938H17.4141ZM40.0425 9.89844V23.2109H37.5581V17.4453H35.4956V22.5078H33.0581V10.3203H35.4956V15.3359H37.5581V9.89844H40.0425ZM32.355 12.1953V14.2344H21.8081V12.1953H25.8159V10.0859H28.3941V12.1953H32.355ZM27.105 15.1016C29.8003 15.1016 31.6987 16.5547 31.7222 18.7578C31.6987 20.9609 29.8003 22.4141 27.105 22.4141C24.4566 22.4141 22.5347 20.9609 22.5581 18.7578C22.5347 16.5547 24.4566 15.1016 27.105 15.1016ZM27.105 16.9766C25.7925 16.9766 24.8784 17.6562 24.8784 18.7578C24.8784 19.8594 25.7691 20.5391 27.105 20.5391C28.4409 20.5391 29.355 19.8594 29.355 18.7578C29.355 17.6562 28.4409 16.9766 27.105 16.9766ZM32.8941 23.4688C37.4175 23.4688 40.1362 24.8516 40.1597 27.2891C40.1362 29.6797 37.4175 31.0625 32.8941 31.0625C28.3706 31.0625 25.6284 29.6797 25.6284 27.2891C25.6284 24.8516 28.3706 23.4688 32.8941 23.4688ZM32.8941 25.4609C29.8706 25.4375 28.23 26.0469 28.23 27.2891C28.23 28.4609 29.8706 29.0703 32.8941 29.0703C35.8941 29.0703 37.5347 28.4609 37.5347 27.2891C37.5347 26.0469 35.8941 25.4375 32.8941 25.4609ZM60.7959 9.92188V25.2266H58.1709V9.92188H60.7959ZM61.3819 28.5547V30.6641H46.7803V23.6797H49.4053V28.5547H61.3819ZM49.2412 11.3047C52.4522 11.3047 54.9366 13.5312 54.9366 16.6016C54.9366 19.7422 52.4522 21.9219 49.2412 21.9219C46.0069 21.9219 43.5225 19.7422 43.5225 16.6016C43.5225 13.5312 46.0069 11.3047 49.2412 11.3047ZM49.2412 13.5781C47.4366 13.5781 46.0537 14.7734 46.0772 16.6016C46.0537 18.4766 47.4366 19.6484 49.2412 19.6484C50.9991 19.6484 52.3819 18.4766 52.3819 16.6016C52.3819 14.7734 50.9991 13.5781 49.2412 13.5781Z" fill="#40424D"/>
<path d="M1.44531 85V70.8594H6.48438C9.76562 70.8594 11.3867 72.832 11.3867 75.4492C11.3867 78.0469 9.76562 80.0391 6.48438 80.0391H3.59375V85H1.44531ZM3.59375 78.2031H6.26953C8.35938 78.2031 9.21875 77.0312 9.21875 75.4492C9.21875 73.8477 8.35938 72.6953 6.26953 72.6953H3.59375V78.2031ZM13.8766 85V74.3945H15.8883V76.0742H16.0055C16.3961 74.9414 17.4508 74.2383 18.7008 74.2383C18.9547 74.2383 19.3648 74.2578 19.5797 74.2773V76.2695C19.4039 76.2305 18.9156 76.1523 18.4859 76.1523C17.0406 76.1523 15.9664 77.1484 15.9664 78.5352V85H13.8766ZM25.6828 85.2148C22.675 85.2148 20.7219 83.0273 20.7219 79.7461C20.7219 76.4453 22.675 74.2578 25.6828 74.2578C28.6711 74.2578 30.6242 76.4453 30.6242 79.7461C30.6242 83.0273 28.6711 85.2148 25.6828 85.2148ZM25.6828 83.4766C27.5969 83.4766 28.5148 81.7773 28.5148 79.7461C28.5148 77.7148 27.5969 75.9766 25.6828 75.9766C23.7297 75.9766 22.8117 77.7148 22.8117 79.7461C22.8117 81.7773 23.7297 83.4766 25.6828 83.4766ZM33.075 74.3945H35.1648V85.6836C35.1648 87.832 33.9734 88.9844 31.7859 88.9844C31.6492 88.9844 31.5125 88.9844 31.3563 88.9648V87.1875H31.6883C32.6648 87.1875 33.075 86.6406 33.075 85.6641V74.3945ZM34.1102 72.7539C33.3875 72.7539 32.782 72.207 32.782 71.5234C32.782 70.8398 33.3875 70.293 34.1102 70.293C34.8133 70.293 35.4188 70.8398 35.4188 71.5234C35.4188 72.207 34.8133 72.7539 34.1102 72.7539ZM42.6742 85.2148C39.5492 85.2148 37.6352 83.0664 37.6352 79.7656C37.6352 76.5039 39.5883 74.2578 42.5375 74.2578C44.9594 74.2578 47.2445 75.7617 47.2445 79.5898V80.332H39.7055C39.7641 82.3438 40.9457 83.4961 42.6937 83.4961C43.8852 83.4961 44.6469 82.9883 44.9984 82.3438H47.1078C46.6391 84.0625 44.9984 85.2148 42.6742 85.2148ZM39.725 78.7695H45.1937C45.1937 77.1484 44.1586 75.9766 42.557 75.9766C40.8871 75.9766 39.8031 77.2656 39.725 78.7695ZM54.207 85.2148C51.1211 85.2148 49.2461 82.9297 49.2461 79.7461C49.2461 76.5039 51.1797 74.2578 54.168 74.2578C56.5898 74.2578 58.3477 75.6836 58.5625 77.832H56.5312C56.3164 76.8359 55.5156 75.9961 54.207 75.9961C52.4883 75.9961 51.3359 77.4219 51.3359 79.6875C51.3359 82.0117 52.4688 83.4375 54.207 83.4375C55.3789 83.4375 56.2773 82.793 56.5312 81.6406H58.5625C58.3281 83.6914 56.707 85.2148 54.207 85.2148ZM65.8961 74.3945V76.0547H63.7281V81.875C63.7281 83.0664 64.3336 83.2812 64.9977 83.3008C65.2906 83.3008 65.7594 83.2617 66.0523 83.2422V85.0586C65.7594 85.0977 65.3102 85.1367 64.7438 85.1367C63.1031 85.1367 61.6383 84.2383 61.6578 82.3047V76.0547H60.0953V74.3945H61.6578V71.8555H63.7281V74.3945H65.8961ZM73.7859 85V70.8594H75.9344V76.9922H82.9656V70.8594H85.1141V85H82.9656V78.8281H75.9344V85H73.7859ZM89.5961 85.1367C88.8344 85.1367 88.1898 84.5117 88.2094 83.75C88.1898 82.9883 88.8344 82.3633 89.5961 82.3633C90.3383 82.3633 90.9828 82.9883 90.9828 83.75C90.9828 84.5117 90.3383 85.1367 89.5961 85.1367ZM106.216 80.1562C110.005 80.1562 112.388 81.3477 112.408 83.3984C112.388 85.4297 110.005 86.6406 106.216 86.6211C102.466 86.6406 100.064 85.4297 100.064 83.3984C100.064 81.3477 102.466 80.1562 106.216 80.1562ZM106.216 81.5625C103.56 81.5625 101.9 82.2461 101.92 83.3984C101.9 84.5312 103.56 85.1953 106.216 85.1953C108.892 85.1953 110.552 84.5312 110.572 83.3984C110.552 82.2461 108.892 81.5625 106.216 81.5625ZM112.271 70.0195V71.4844C112.271 72.8906 112.271 74.3359 111.783 76.1328L109.966 75.9375C110.435 74.1504 110.435 72.8613 110.435 71.5039H100.201V70.0195H112.271ZM114.263 77.207V78.7109H98.3453V77.207H104.732V73.9258H106.548V77.207H114.263ZM122.378 71.6797C122.359 74.1016 124.019 76.3086 126.714 77.207L125.777 78.6719C123.755 77.959 122.232 76.5332 121.441 74.707C120.659 76.6699 119.126 78.2227 117.046 78.9648L116.109 77.5195C118.843 76.543 120.484 74.1797 120.484 71.6797V70H122.378V71.6797ZM130.523 80.5078V86.6602H128.667V82.0117H118.667V80.5078H130.523ZM130.523 69.1602V79.668H128.667V69.1602H130.523ZM154.038 69.1602V86.6602H152.26V69.1602H154.038ZM150.483 69.4922V85.8008H148.705V77.3633H146.733C146.577 80.7812 145.112 82.9102 142.944 82.8906C140.659 82.9102 139.174 80.5078 139.174 76.7188C139.174 72.9297 140.659 70.5469 142.944 70.5664C145.073 70.5469 146.518 72.5684 146.733 75.8594H148.705V69.4922H150.483ZM142.944 72.3047C141.674 72.3047 140.893 73.9258 140.893 76.7188C140.893 79.5117 141.674 81.1328 142.944 81.1328C144.233 81.1328 145.034 79.5117 145.034 76.7188C145.034 73.9258 144.233 72.3047 142.944 72.3047ZM171.156 69.1602V86.6992H169.301V69.1602H171.156ZM166.156 70.7812V72.3242H159.652V80.8203C162.973 80.8105 165.092 80.7227 167.562 80.2734L167.758 81.8164C165.141 82.2852 162.855 82.4023 159.223 82.4023H157.777V70.7812H166.156ZM188.939 69.1602V86.6992H187.103V77.1484H183.627V75.625H187.103V69.1602H188.939ZM183.334 70.7227V72.2266H177.025V75.625H182.591V77.1094H177.025V81.0156C179.955 81.0059 181.986 80.9375 184.31 80.5273L184.505 82.0312C181.966 82.4414 179.759 82.5391 176.517 82.5586H175.15V70.7227H183.334ZM208.05 83.0078V84.5703H192.034V83.0078H199.085V79.9414H193.988V74.375H204.261V71.9141H193.948V70.3906H206.097V75.8594H195.823V78.418H206.507V79.9414H200.921V83.0078H208.05ZM230.979 77.3828V78.9062H215.002V77.3828H230.979ZM229.123 74.3555V75.8594H216.995V69.7852H229.006V71.3086H218.83V74.3555H229.123ZM222.971 80.2734C226.741 80.2734 229.006 81.4258 229.006 83.457C229.006 85.4883 226.741 86.6406 222.971 86.6211C219.182 86.6406 216.897 85.4883 216.897 83.457C216.897 81.4258 219.182 80.2734 222.971 80.2734ZM222.971 81.6992C220.295 81.7188 218.772 82.3438 218.772 83.457C218.772 84.5703 220.295 85.1953 222.971 85.1953C225.608 85.1953 227.151 84.5703 227.151 83.457C227.151 82.3438 225.608 81.7188 222.971 81.6992ZM248.684 78.7109V80.2148H232.668V78.7109H239.758V77.0508H234.719V72.5977H244.816V71.0352H234.68V69.5703H246.672V73.9648H236.555V75.6055H247.023V77.0508H241.594V78.7109H248.684ZM246.77 81.4453V86.5234H244.895V82.9297H234.465V81.4453H246.77ZM260.568 74.7656V76.2695H257.15V78.4766C258.703 78.4082 260.246 78.3008 261.681 78.1445L261.818 79.5117C258.087 80.0195 253.986 80.1172 250.705 80.1172L250.451 78.6328C251.945 78.623 253.615 78.6035 255.314 78.5547V76.2695H252.013V70.2734H260.412V71.7773H253.869V74.7656H260.568ZM264.884 69.1602V82.2852H263.029V69.1602H264.884ZM265.431 84.7852V86.2891H253.341V81.3477H255.197V84.7852H265.431ZM279.415 73.6133C279.395 76.7188 281.192 79.8828 283.809 81.1523L282.657 82.6367C280.753 81.6504 279.278 79.6875 278.516 77.3438C277.725 79.8438 276.192 81.9336 274.2 82.9688L273.048 81.4648C275.743 80.1758 277.559 76.8164 277.559 73.6133V70.625H279.415V73.6133ZM286.973 69.1602V76.1328H289.786V77.7148H286.973V86.6602H285.118V69.1602H286.973ZM306.983 77.6953V79.1992H291.026V77.6953H294.854V75.332C293.506 74.7852 292.745 73.9062 292.745 72.7539C292.745 70.6836 295.147 69.4727 298.995 69.4727C302.823 69.4727 305.245 70.6836 305.245 72.7539C305.245 73.9062 304.473 74.7949 303.116 75.332V77.6953H306.983ZM298.995 80.3906C302.764 80.3906 305.03 81.5039 305.03 83.4961C305.03 85.5273 302.764 86.6211 298.995 86.6211C295.186 86.6211 292.92 85.5273 292.92 83.4961C292.92 81.5039 295.186 80.3906 298.995 80.3906ZM298.995 81.8164C296.319 81.8164 294.795 82.4219 294.795 83.4961C294.795 84.5898 296.319 85.2148 298.995 85.1953C301.631 85.2148 303.174 84.5898 303.174 83.4961C303.174 82.4219 301.631 81.8164 298.995 81.8164ZM298.995 70.8984C296.28 70.8984 294.639 71.582 294.659 72.7539C294.639 73.9258 296.28 74.5898 298.995 74.5898C301.709 74.5898 303.33 73.9258 303.33 72.7539C303.33 71.582 301.709 70.8984 298.995 70.8984ZM296.729 77.6953H301.28V75.8203C300.596 75.9375 299.825 75.9961 298.995 75.9961C298.174 75.9961 297.413 75.9375 296.729 75.8398V77.6953ZM314.805 74.3164C314.805 77.0898 316.621 80.1758 319.277 81.4258L318.223 82.8711C316.26 81.9238 314.707 79.9512 313.926 77.6562C313.115 80.166 311.475 82.3242 309.473 83.3203L308.379 81.8555C311.035 80.5859 312.969 77.2852 312.969 74.3164V72.4609H309.023V70.918H318.613V72.4609H314.805V74.3164ZM322.344 69.1602V76.0938H325.156V77.6562H322.344V86.6602H320.488V69.1602H322.344ZM332.099 70.4102C334.873 70.3906 336.845 72.1094 336.865 74.5703C336.845 77.0312 334.873 78.75 332.099 78.75C329.345 78.75 327.314 77.0312 327.334 74.5703C327.314 72.1094 329.345 70.3906 332.099 70.4102ZM332.099 72.0117C330.4 72.0117 329.15 73.0273 329.17 74.5703C329.15 76.1133 330.4 77.1289 332.099 77.1289C333.798 77.1289 335.048 76.1133 335.048 74.5703C335.048 73.0273 333.798 72.0117 332.099 72.0117ZM340.869 69.1602V86.6992H339.013V69.1602H340.869ZM326.494 81.3867C329.677 81.3867 334.091 81.3477 337.92 80.8008L338.056 82.1484C334.091 82.9102 329.853 82.9297 326.728 82.9297L326.494 81.3867ZM16.6602 116.91V118.473H0.644531V116.91H16.6602ZM15.1953 104.84V106.363H12.5195V112.203H15.1367V113.688H2.05078V112.203H4.66797V106.363H2.01172V104.84H15.1953ZM6.50391 112.203H10.7031V106.363H6.50391V112.203ZM34.3453 117.008V118.57H18.3297V117.008H25.3805V113.941H20.2828V108.375H30.5562V105.914H20.2437V104.391H32.3922V109.859H22.1187V112.418H32.8023V113.941H27.2164V117.008H34.3453ZM50.5656 103.16V112.203H48.6906V103.16H50.5656ZM50.5656 113.004V117.34H40.8195V119H51.1711V120.484H39.0031V115.992H48.7297V114.469H38.9445V113.004H50.5656ZM46.2883 104.312V105.777H44.6086V109.918C45.4582 109.859 46.298 109.781 47.0891 109.684L47.1672 111.031C43.6711 111.559 39.5891 111.676 36.5227 111.676L36.3078 110.191L38.4367 110.172V105.777H36.7766V104.312H46.2883ZM40.2141 110.133C41.0734 110.104 41.9523 110.074 42.8312 110.016V105.777H40.2141V110.133ZM72.6156 103.16V109.938H75.4281V111.5H72.6156V120.66H70.7602V103.16H72.6156ZM61.4828 104.625V109.117H66.1117V104.625H67.9477V116.5H59.6469V104.625H61.4828ZM61.4828 114.977H66.1117V110.582H61.4828V114.977ZM92.6836 117.008V118.57H76.668V117.008H83.7188V113.941H78.6211V108.375H88.8945V105.914H78.582V104.391H90.7305V109.859H80.457V112.418H91.1406V113.941H85.5547V117.008H92.6836ZM107.986 103.16V110.133H110.701V111.676H107.986V120.641H106.13V103.16H107.986ZM103.416 104.996C103.396 110.055 101.17 114.566 95.4078 117.418L94.3727 115.973C98.7574 113.785 101.14 110.621 101.521 106.539H95.2516V104.996H103.416ZM126.589 103.16V120.66H124.714V103.16H126.589ZM121.374 105.035C121.374 110.152 119.187 114.605 113.191 117.477L112.214 115.973C116.872 113.756 119.138 110.602 119.499 106.52H113.054V105.035H121.374ZM131.716 119.137C130.954 119.137 130.309 118.512 130.329 117.75C130.309 116.988 130.954 116.363 131.716 116.363C132.458 116.363 133.102 116.988 133.102 117.75C133.102 118.512 132.458 119.137 131.716 119.137ZM155.504 103.16V120.66H153.727V103.16H155.504ZM151.949 103.492V119.801H150.172V111.363H148.199C148.043 114.781 146.578 116.91 144.41 116.891C142.125 116.91 140.641 114.508 140.641 110.719C140.641 106.93 142.125 104.547 144.41 104.566C146.539 104.547 147.984 106.568 148.199 109.859H150.172V103.492H151.949ZM144.41 106.305C143.141 106.305 142.359 107.926 142.359 110.719C142.359 113.512 143.141 115.133 144.41 115.133C145.699 115.133 146.5 113.512 146.5 110.719C146.5 107.926 145.699 106.305 144.41 106.305ZM172.623 103.16V120.699H170.767V103.16H172.623ZM167.623 104.781V106.324H161.119V114.82C164.439 114.811 166.558 114.723 169.029 114.273L169.224 115.816C166.607 116.285 164.322 116.402 160.689 116.402H159.244V104.781H167.623ZM190.405 103.16V120.699H188.57V111.148H185.093V109.625H188.57V103.16H190.405ZM184.8 104.723V106.227H178.491V109.625H184.058V111.109H178.491V115.016C181.421 115.006 183.452 114.938 185.777 114.527L185.972 116.031C183.433 116.441 181.226 116.539 177.984 116.559H176.616V104.723H184.8ZM199.204 104.41C201.977 104.391 203.95 106.109 203.97 108.57C203.95 111.031 201.977 112.75 199.204 112.75C196.45 112.75 194.419 111.031 194.438 108.57C194.419 106.109 196.45 104.391 199.204 104.41ZM199.204 106.012C197.505 106.012 196.255 107.027 196.274 108.57C196.255 110.113 197.505 111.129 199.204 111.129C200.903 111.129 202.153 110.113 202.153 108.57C202.153 107.027 200.903 106.012 199.204 106.012ZM207.973 103.16V120.699H206.118V103.16H207.973ZM193.598 115.387C196.782 115.387 201.196 115.348 205.024 114.801L205.161 116.148C201.196 116.91 196.958 116.93 193.833 116.93L193.598 115.387ZM230.102 103.16V109.938H232.914V111.461H230.102V120.699H228.246V103.16H230.102ZM225.395 104.84V106.344H219.066V114.801C222.006 114.791 224.213 114.664 226.703 114.215L226.938 115.777C224.203 116.266 221.879 116.363 218.617 116.344H217.211V104.84H225.395ZM250.15 112.77V114.273H234.134V112.77H250.15ZM248.509 118.785V120.289H236.224V115.523H238.08V118.785H248.509ZM248.138 103.688V108.18H238.021V109.898H248.49V111.324H236.185V106.832H246.283V105.152H236.146V103.688H248.138ZM271.106 103.902V105.055C271.106 106.217 271.106 107.682 270.735 109.586H273.138V111.07H257.122V109.586H268.88C269.231 107.809 269.27 106.471 269.27 105.387H259.134V103.902H271.106ZM271.126 112.633V117.223H260.872V119H271.575V120.484H259.016V115.797H269.29V114.117H258.997V112.633H271.126ZM277.952 117.652L276.389 123.043H274.729L275.764 117.652H277.952ZM290.353 104.469C291.945 104.469 293.263 105.387 294.045 106.969H298.361V103.16H300.197V120.699H298.361V113.98H294.162C293.41 115.738 292.033 116.754 290.353 116.754C287.736 116.754 285.9 114.371 285.92 110.602C285.9 106.852 287.736 104.469 290.353 104.469ZM290.353 106.129C288.771 106.129 287.677 107.848 287.677 110.602C287.677 113.375 288.771 115.094 290.353 115.094C291.935 115.094 293.029 113.375 293.029 110.602C293.029 107.848 291.935 106.129 290.353 106.129ZM294.572 108.492C294.699 109.137 294.787 109.84 294.787 110.602C294.787 111.266 294.728 111.881 294.611 112.457H298.361V108.492H294.572ZM317.882 103.16V113.57H316.027V109.137H312.765V107.613H316.027V103.16H317.882ZM312.023 114.059C315.695 114.059 317.941 115.27 317.941 117.359C317.941 119.449 315.695 120.641 312.023 120.66C308.351 120.641 306.085 119.449 306.105 117.359C306.085 115.27 308.351 114.059 312.023 114.059ZM312.023 115.504C309.464 115.504 307.941 116.168 307.941 117.359C307.941 118.531 309.464 119.215 312.023 119.195C314.581 119.215 316.105 118.531 316.105 117.359C316.105 116.168 314.581 115.504 312.023 115.504ZM309.562 106.246C309.562 108.473 311.144 110.621 313.78 111.52L312.823 112.984C310.861 112.301 309.415 110.904 308.663 109.176C307.892 111.139 306.359 112.711 304.269 113.473L303.292 111.988C306.007 111.051 307.667 108.688 307.667 106.266V105.875H303.878V104.371H313.312V105.875H309.562V106.246ZM340.811 103.16V120.66H338.936V103.16H340.811ZM335.596 105.035C335.596 110.152 333.409 114.605 327.413 117.477L326.436 115.973C331.094 113.756 333.36 110.602 333.721 106.52H327.276V105.035H335.596ZM359.941 112.711V114.215H343.926V112.711H351.016V111.051H345.977V106.598H356.074V105.035H345.938V103.57H357.93V107.965H347.812V109.605H358.281V111.051H352.852V112.711H359.941ZM358.027 115.445V120.523H356.152V116.93H345.723V115.445H358.027ZM369.599 103.453C373.545 103.453 375.849 104.508 375.849 106.461C375.849 108.414 373.545 109.488 369.599 109.488C365.654 109.488 363.349 108.414 363.349 106.461C363.349 104.508 365.654 103.453 369.599 103.453ZM369.599 104.82C366.806 104.82 365.263 105.426 365.283 106.461C365.263 107.535 366.806 108.102 369.599 108.102C372.392 108.102 373.935 107.535 373.935 106.461C373.935 105.426 372.392 104.82 369.599 104.82ZM377.587 110.562V112.047H361.63V110.562H377.587ZM375.576 113.395V117.496H365.38V119.059H376.064V120.484H363.564V116.148H373.74V114.781H363.545V113.395H375.576ZM388.524 103.434V104.957H396.63V103.434H398.485V109.234H393.446V110.758H400.555V112.242H384.598V110.758H391.63V109.234H386.688V103.434H388.524ZM388.524 107.828H396.63V106.324H388.524V107.828ZM398.544 113.512V117.594H388.348V119.059H399.032V120.484H386.532V116.266H396.708V114.898H386.513V113.512H398.544ZM416.531 104.703C416.512 107.027 419.363 109.215 422.801 109.664L422.078 111.188C419.217 110.729 416.697 109.244 415.574 107.184C414.422 109.254 411.912 110.729 409.07 111.188L408.328 109.664C411.766 109.215 414.578 107.047 414.598 104.703V103.746H416.531V104.703ZM423.523 112.906V114.43H416.414V120.66H414.598V114.43H407.566V112.906H423.523ZM436.609 114.723C436.609 116.227 437.351 117.818 438.933 118.766C440.544 117.74 441.335 116.061 441.335 114.723V113.883H443.152V114.723C443.152 116.539 444.343 118.297 446.628 119.039L445.71 120.406C443.982 119.811 442.81 118.648 442.195 117.203C441.638 118.619 440.593 119.898 438.991 120.562C437.312 119.928 436.247 118.688 435.71 117.262C435.075 118.639 433.923 119.801 432.273 120.406L431.335 119.039C433.581 118.238 434.792 116.422 434.812 114.723V113.883H436.609V114.723ZM445.046 103.18V113.141H443.191V103.18H445.046ZM435.554 104.137C438.23 104.137 440.202 105.836 440.202 108.277C440.202 110.699 438.23 112.379 435.554 112.379C432.878 112.379 430.886 110.699 430.886 108.277C430.886 105.836 432.878 104.137 435.554 104.137ZM435.554 105.719C433.894 105.699 432.702 106.734 432.702 108.277C432.702 109.801 433.894 110.836 435.554 110.836C437.195 110.836 438.386 109.801 438.386 108.277C438.386 106.734 437.195 105.699 435.554 105.719ZM456.188 103.531C460.036 103.531 462.438 104.781 462.438 106.891C462.438 108.961 460.036 110.191 456.188 110.191C452.36 110.191 449.938 108.961 449.938 106.891C449.938 104.781 452.36 103.531 456.188 103.531ZM456.188 104.996C453.493 104.996 451.833 105.68 451.852 106.891C451.833 108.062 453.493 108.727 456.188 108.746C458.864 108.727 460.524 108.062 460.524 106.891C460.524 105.68 458.864 104.996 456.188 104.996ZM462.223 114.605V120.445H450.134V114.605H462.223ZM451.97 116.09V118.941H460.427V116.09H451.97ZM464.177 111.539V113.043H448.22V111.539H464.177Z" fill="#8D92A2"/>
<path d="M447.989 63.5C447.989 66.4455 450.377 68.8333 453.322 68.8333C456.268 68.8333 458.656 66.4455 458.656 63.5C458.656 60.5545 456.268 58.1667 453.322 58.1667C450.377 58.1667 447.989 60.5545 447.989 63.5ZM453.322 63.5L453.322 64.5L635 64.5L635 63.5L635 62.5L453.322 62.5L453.322 63.5Z" fill="url(#paint0_linear_4795_1094)"/>
<defs>
<linearGradient id="paint0_linear_4795_1094" x1="453.322" y1="64" x2="635" y2="64" gradientUnits="userSpaceOnUse">
<stop stop-color="#56AFDF"/>
<stop offset="1" stop-color="#56AFDF" stop-opacity="0"/>
</linearGradient>
</defs>
</svg>
