<svg width="1920" height="866" viewBox="0 0 1920 866" fill="none" xmlns="http://www.w3.org/2000/svg">
<rect width="1920" height="866" fill="white"/>
<path d="M779.531 381.531V409.781H776.031V381.531H779.531ZM771.094 384.531C771.094 392.938 767.844 400.094 757.938 404.781L756.125 402C763.516 398.484 766.953 393.703 767.562 387.281H757.562V384.531H771.094ZM801.952 383.781V386.344H785.234V383.781H791.827V381.375H795.296V383.781H801.952ZM793.609 387.156C797.734 387.125 800.546 388.781 800.546 391.406C800.546 393.625 798.484 395.109 795.296 395.5V397C797.687 396.891 800.077 396.688 802.327 396.406L802.577 398.781C796.515 399.812 789.827 399.906 784.827 399.906L784.359 397.219C786.609 397.234 789.171 397.219 791.827 397.125V395.469C788.624 395.094 786.609 393.609 786.64 391.406C786.609 388.781 789.39 387.125 793.609 387.156ZM793.609 389.5C791.39 389.469 789.952 390.156 789.984 391.406C789.952 392.562 791.39 393.25 793.609 393.219C795.765 393.25 797.202 392.562 797.234 391.406C797.202 390.156 795.765 389.469 793.609 389.5ZM807.796 381.594V400.594H804.296V381.594H807.796ZM807.796 401.75V409.781H804.296V404.469H788.359V401.75H807.796ZM827.107 381.188V410.188H823.389V381.188H827.107ZM841.637 407V384.375H850.137C855.325 384.375 858.106 387.531 858.106 391.875C858.106 396.219 855.294 399.344 850.075 399.344H845.7V407H841.637ZM845.7 396H849.512C852.575 396 853.95 394.281 853.95 391.875C853.95 389.438 852.575 387.781 849.512 387.781H845.7V396ZM865.84 384.375V407H861.84V384.375H865.84ZM869.511 402.219C869.511 398.406 872.668 397.281 875.824 397.094C876.996 397.016 879.433 396.875 880.168 396.844V395.5C880.168 393.812 879.074 392.844 877.105 392.844C875.324 392.844 874.23 393.656 873.918 394.875H870.074C870.355 392 872.949 389.812 877.199 389.812C880.418 389.812 884.136 391.125 884.136 395.656V407H880.324V404.656H880.199C879.449 406.094 877.855 407.344 875.199 407.344C871.949 407.344 869.511 405.562 869.511 402.219ZM873.355 402.188C873.355 403.656 874.543 404.406 876.23 404.406C878.636 404.406 880.199 402.812 880.199 400.906V399.5L876.449 399.75C874.543 399.906 873.355 400.688 873.355 402.188ZM892.526 397.062V407H888.526V390.031H892.339V392.906H892.557C893.339 391 895.057 389.812 897.589 389.812C901.12 389.812 903.432 392.125 903.401 396.188V407H899.432V396.812C899.432 394.531 898.214 393.188 896.12 393.188C893.995 393.188 892.526 394.594 892.526 397.062ZM911.854 397.062V407H907.854V390.031H911.666V392.906H911.885C912.666 391 914.385 389.812 916.916 389.812C920.447 389.812 922.76 392.125 922.729 396.188V407H918.76V396.812C918.76 394.531 917.541 393.188 915.447 393.188C913.322 393.188 911.854 394.594 911.854 397.062ZM934.712 407.344C929.587 407.344 926.462 403.938 926.462 398.625C926.462 393.375 929.65 389.812 934.494 389.812C938.65 389.812 942.244 392.406 942.244 398.375V399.625H930.4C930.447 402.516 932.15 404.219 934.744 404.219C936.494 404.219 937.681 403.469 938.181 402.469H942.087C941.369 405.406 938.65 407.344 934.712 407.344ZM930.431 396.906H938.431C938.4 394.594 936.869 392.906 934.556 392.906C932.15 392.906 930.556 394.734 930.431 396.906ZM945.977 407V390.031H949.852V392.844H950.04C950.634 390.906 952.29 389.781 954.227 389.781C954.665 389.781 955.29 389.812 955.665 389.875V393.562C955.321 393.438 954.477 393.312 953.821 393.312C951.602 393.312 949.977 394.844 949.977 397V407H945.977Z" fill="#40424D"/>
<path d="M772.414 509.898V515.195H775.367V517.328H772.414V522.648H769.812V509.898H772.414ZM772.414 523.633V531.086H769.812V525.719H758.305V523.633H772.414ZM759.008 511.234V514.234H763.953V511.234H766.531V521.406H756.43V511.234H759.008ZM759.008 519.344H763.953V516.273H759.008V519.344ZM793.519 509.898V517.938H796.777V520.07H793.519V531.109H790.917V509.898H793.519ZM787.707 511.914V514.023H780.394V523.75C783.687 523.75 786.289 523.586 789.207 523.07L789.511 525.273C786.23 525.836 783.371 525.93 779.55 525.93H777.792V511.914H787.707ZM801.804 511.422V514.633H806.843V511.422H809.444V522.039H799.226V511.422H801.804ZM801.804 519.977H806.843V516.648H801.804V519.977ZM815.796 509.922V525.508H813.171V509.922H815.796ZM816.288 528.555V530.664H801.687V523.914H804.312V528.555H816.288ZM760.234 563.215C757.676 563.215 755.801 561.145 755.801 557.727C755.801 554.27 757.695 552.258 760.254 552.258C762.227 552.258 762.949 553.449 763.32 554.113H763.418V548.859H765.508V563H763.477V561.34H763.32C762.93 562.043 762.168 563.215 760.234 563.215ZM760.703 561.438C762.48 561.438 763.477 559.914 763.477 557.688C763.477 555.48 762.5 554.035 760.703 554.035C758.848 554.035 757.93 555.598 757.93 557.688C757.93 559.816 758.887 561.438 760.703 561.438ZM768.134 560.012C768.134 557.59 770.185 556.965 772.099 556.828C772.802 556.779 774.394 556.691 774.892 556.672L774.873 555.832C774.873 554.641 774.15 553.938 772.724 553.938C771.494 553.938 770.752 554.504 770.537 555.285H768.466C768.662 553.527 770.302 552.258 772.802 552.258C774.482 552.258 776.962 552.883 776.962 555.949V563H774.931V561.555H774.853C774.443 562.355 773.466 563.234 771.709 563.234C769.697 563.234 768.134 562.082 768.134 560.012ZM770.166 560.031C770.166 561.047 771.005 561.574 772.177 561.574C773.877 561.574 774.892 560.441 774.892 559.172V558.195L772.392 558.371C771.025 558.469 770.166 558.977 770.166 560.031ZM788.593 552.395L784.745 563H782.499L778.652 552.395H780.898L783.573 560.539H783.671L786.347 552.395H788.593ZM790.692 563V552.395H792.782V563H790.692ZM791.747 550.754C791.024 550.754 790.419 550.207 790.419 549.523C790.419 548.84 791.024 548.293 791.747 548.293C792.45 548.293 793.055 548.84 793.055 549.523C793.055 550.207 792.45 550.754 791.747 550.754ZM797.811 556.711V563H795.721V552.395H797.733V554.133H797.85C798.358 553 799.393 552.258 800.975 552.258C803.162 552.258 804.588 553.625 804.588 556.262V563H802.518V556.516C802.518 554.973 801.678 554.055 800.272 554.055C798.846 554.055 797.811 555.012 797.811 556.711ZM812.02 563.215C808.934 563.215 807.059 560.93 807.059 557.746C807.059 554.504 808.992 552.258 811.98 552.258C814.402 552.258 816.16 553.684 816.375 555.832H814.344C814.129 554.836 813.328 553.996 812.02 553.996C810.301 553.996 809.148 555.422 809.148 557.688C809.148 560.012 810.281 561.438 812.02 561.438C813.191 561.438 814.09 560.793 814.344 559.641H816.375C816.141 561.691 814.52 563.215 812.02 563.215ZM818.748 563V552.395H820.838V563H818.748ZM819.802 550.754C819.08 550.754 818.474 550.207 818.474 549.523C818.474 548.84 819.08 548.293 819.802 548.293C820.505 548.293 821.111 548.84 821.111 549.523C821.111 550.207 820.505 550.754 819.802 550.754ZM828.698 563.195C825.632 563.195 823.484 561.535 823.503 559.23C823.484 557.414 824.792 555.93 826.452 555.676V555.598C825.007 555.266 824.03 553.977 824.03 552.434C824.03 550.266 826.003 548.664 828.698 548.664C831.374 548.664 833.327 550.266 833.347 552.434C833.327 553.977 832.351 555.266 830.925 555.598V555.676C832.566 555.93 833.874 557.414 833.894 559.23C833.874 561.535 831.726 563.195 828.698 563.195ZM828.698 561.418C830.534 561.418 831.706 560.461 831.706 559.074C831.706 557.609 830.437 556.555 828.698 556.555C826.941 556.555 825.652 557.609 825.691 559.074C825.652 560.461 826.823 561.418 828.698 561.418ZM828.698 554.855C830.183 554.855 831.238 553.957 831.238 552.629C831.238 551.32 830.202 550.422 828.698 550.422C827.136 550.422 826.12 551.301 826.12 552.629C826.12 553.957 827.195 554.855 828.698 554.855ZM841.442 563.195C838.161 563.195 836.247 560.559 836.247 555.93C836.247 551.34 838.2 548.664 841.442 548.664C844.684 548.664 846.637 551.34 846.637 555.93C846.637 560.559 844.704 563.195 841.442 563.195ZM841.442 561.34C843.356 561.34 844.489 559.465 844.489 555.93C844.489 552.414 843.337 550.48 841.442 550.48C839.548 550.48 838.395 552.414 838.395 555.93C838.395 559.465 839.528 561.34 841.442 561.34ZM854.635 548.859V563H852.467V551.008H852.389L849.01 553.215V551.164L852.526 548.859H854.635ZM858.629 563V561.438L863.531 556.496C865.074 554.875 865.855 553.977 865.855 552.746C865.855 551.359 864.723 550.461 863.238 550.461C861.676 550.461 860.66 551.457 860.66 552.961H858.629C858.609 550.383 860.582 548.664 863.277 548.664C866.012 548.664 867.887 550.383 867.906 552.688C867.887 554.27 867.145 555.52 864.488 558.137L861.617 561.047V561.164H868.141V563H858.629ZM877.896 561.086C876.021 561.086 874.595 559.582 874.595 557.023C874.595 554.465 876.06 552.98 877.896 552.98C879.244 552.98 879.849 553.82 880.084 554.309H880.181V553.137H881.88V558.605C881.9 559.328 882.193 559.66 882.779 559.66C883.873 559.66 884.615 558.391 884.615 556.496C884.634 552.961 882.095 550.637 878.463 550.637C874.693 550.656 872.291 553.449 872.291 557.023C872.291 560.91 874.38 563.469 878.384 563.43C879.771 563.41 880.728 563.312 881.88 563V564.562C880.845 564.855 879.673 565.031 878.384 565.031C873.541 565.031 870.65 561.945 870.65 557.023C870.65 552.395 873.892 549.035 878.463 549.035C883.091 549.035 886.255 552.199 886.255 556.438C886.255 559.445 884.732 561.184 882.642 561.164C881.382 561.164 880.425 560.52 880.279 559.621H880.181C879.927 560.109 879.322 561.086 877.896 561.086ZM878.326 559.484C879.556 559.484 880.201 558.488 880.22 557.004C880.201 555.539 879.576 554.582 878.326 554.582C877.095 554.582 876.431 555.617 876.431 557.004C876.431 558.41 877.115 559.484 878.326 559.484ZM890.991 556.711V563H888.902V552.395H890.913V554.133H891.03C891.538 553 892.573 552.258 894.155 552.258C896.343 552.258 897.769 553.625 897.769 556.262V563H895.698V556.516C895.698 554.973 894.859 554.055 893.452 554.055C892.027 554.055 890.991 555.012 890.991 556.711ZM900.22 560.012C900.22 557.59 902.27 556.965 904.184 556.828C904.887 556.779 906.479 556.691 906.977 556.672L906.958 555.832C906.958 554.641 906.235 553.938 904.809 553.938C903.579 553.938 902.837 554.504 902.622 555.285H900.552C900.747 553.527 902.387 552.258 904.887 552.258C906.567 552.258 909.048 552.883 909.048 555.949V563H907.016V561.555H906.938C906.528 562.355 905.552 563.234 903.794 563.234C901.782 563.234 900.22 562.082 900.22 560.012ZM902.251 560.031C902.251 561.047 903.091 561.574 904.262 561.574C905.962 561.574 906.977 560.441 906.977 559.172V558.195L904.477 558.371C903.11 558.469 902.251 558.977 902.251 560.031ZM920.678 552.395L916.83 563H914.584L910.737 552.395H912.983L915.659 560.539H915.756L918.432 552.395H920.678ZM926.977 563.215C923.852 563.215 921.938 561.066 921.938 557.766C921.938 554.504 923.891 552.258 926.84 552.258C929.262 552.258 931.547 553.762 931.547 557.59V558.332H924.008C924.066 560.344 925.248 561.496 926.996 561.496C928.188 561.496 928.949 560.988 929.301 560.344H931.41C930.941 562.062 929.301 563.215 926.977 563.215ZM924.027 556.77H929.496C929.496 555.148 928.461 553.977 926.859 553.977C925.189 553.977 924.105 555.266 924.027 556.77ZM934.017 563V552.395H936.029V554.074H936.146C936.537 552.941 937.591 552.238 938.841 552.238C939.095 552.238 939.505 552.258 939.72 552.277V554.27C939.545 554.23 939.056 554.152 938.627 554.152C937.181 554.152 936.107 555.148 936.107 556.535V563H934.017ZM941.839 563.137C941.077 563.137 940.433 562.512 940.452 561.75C940.433 560.988 941.077 560.363 941.839 560.363C942.581 560.363 943.226 560.988 943.226 561.75C943.226 562.512 942.581 563.137 941.839 563.137ZM950.637 563.215C947.552 563.215 945.677 560.93 945.677 557.746C945.677 554.504 947.61 552.258 950.598 552.258C953.02 552.258 954.778 553.684 954.993 555.832H952.962C952.747 554.836 951.946 553.996 950.637 553.996C948.919 553.996 947.766 555.422 947.766 557.688C947.766 560.012 948.899 561.438 950.637 561.438C951.809 561.438 952.708 560.793 952.962 559.641H954.993C954.759 561.691 953.137 563.215 950.637 563.215ZM961.858 563.215C958.85 563.215 956.897 561.027 956.897 557.746C956.897 554.445 958.85 552.258 961.858 552.258C964.846 552.258 966.799 554.445 966.799 557.746C966.799 561.027 964.846 563.215 961.858 563.215ZM961.858 561.477C963.772 561.477 964.69 559.777 964.69 557.746C964.69 555.715 963.772 553.977 961.858 553.977C959.905 553.977 958.987 555.715 958.987 557.746C958.987 559.777 959.905 561.477 961.858 561.477ZM969.25 563V552.395H971.262V554.133H971.379C971.828 552.941 972.863 552.258 974.27 552.258C975.676 552.258 976.672 552.961 977.121 554.133H977.238C977.746 552.98 978.879 552.258 980.422 552.258C982.336 552.258 983.703 553.469 983.703 555.891V563H981.613V556.086C981.613 554.66 980.715 554.055 979.621 554.055C978.273 554.055 977.512 554.973 977.512 556.242V563H975.441V555.969C975.441 554.816 974.641 554.055 973.508 554.055C972.336 554.055 971.34 555.031 971.34 556.457V563H969.25Z" fill="#40424D"/>
<path d="M831.838 514.586V512.031H845.361V514.586H840.134V529H837.088V514.586H831.838ZM851.888 529.258C848.044 529.258 845.7 526.703 845.7 522.719C845.7 518.781 848.091 516.109 851.724 516.109C854.841 516.109 857.536 518.055 857.536 522.531V523.469H848.653C848.689 525.637 849.966 526.914 851.911 526.914C853.224 526.914 854.114 526.352 854.489 525.602H857.419C856.88 527.805 854.841 529.258 851.888 529.258ZM848.677 521.43H854.677C854.653 519.695 853.505 518.43 851.771 518.43C849.966 518.43 848.771 519.801 848.677 521.43ZM859.751 525.414C859.751 522.555 862.118 521.711 864.485 521.57C865.364 521.512 867.192 521.406 867.743 521.383V520.375C867.743 519.109 866.923 518.383 865.446 518.383C864.11 518.383 863.29 518.992 863.055 519.906H860.173C860.383 517.75 862.329 516.109 865.516 516.109C867.93 516.109 870.719 517.094 870.719 520.492V529H867.86V527.242H867.766C867.204 528.32 866.008 529.258 864.016 529.258C861.579 529.258 859.751 527.922 859.751 525.414ZM862.633 525.391C862.633 526.492 863.524 527.055 864.79 527.055C866.594 527.055 867.766 525.859 867.766 524.43V523.375L864.954 523.562C863.524 523.68 862.633 524.266 862.633 525.391ZM874.012 529V516.273H876.871V518.43H877.035C877.551 516.977 878.84 516.109 880.527 516.109C882.262 516.109 883.481 516.977 883.973 518.43H884.113C884.676 517.023 886.082 516.109 887.934 516.109C890.254 516.109 891.895 517.609 891.895 520.445V529H888.918V520.914C888.918 519.32 887.957 518.617 886.738 518.617C885.262 518.617 884.418 519.625 884.418 521.055V529H881.512V520.797C881.512 519.484 880.621 518.617 879.356 518.617C878.067 518.617 877.012 519.672 877.012 521.266V529H874.012ZM904.409 512.031V529H901.409V512.031H904.409ZM913.397 529.258C909.553 529.258 907.21 526.703 907.21 522.719C907.21 518.781 909.6 516.109 913.233 516.109C916.35 516.109 919.046 518.055 919.046 522.531V523.469H910.163C910.198 525.637 911.475 526.914 913.421 526.914C914.733 526.914 915.624 526.352 915.999 525.602H918.928C918.389 527.805 916.35 529.258 913.397 529.258ZM910.186 521.43H916.186C916.163 519.695 915.014 518.43 913.28 518.43C911.475 518.43 910.28 519.801 910.186 521.43ZM921.26 525.414C921.26 522.555 923.627 521.711 925.994 521.57C926.873 521.512 928.701 521.406 929.252 521.383V520.375C929.252 519.109 928.432 518.383 926.955 518.383C925.619 518.383 924.799 518.992 924.565 519.906H921.682C921.893 517.75 923.838 516.109 927.026 516.109C929.44 516.109 932.229 517.094 932.229 520.492V529H929.369V527.242H929.276C928.713 528.32 927.518 529.258 925.526 529.258C923.088 529.258 921.26 527.922 921.26 525.414ZM924.143 525.391C924.143 526.492 925.033 527.055 926.299 527.055C928.104 527.055 929.276 525.859 929.276 524.43V523.375L926.463 523.562C925.033 523.68 924.143 524.266 924.143 525.391ZM940.256 529.234C937.256 529.234 935.006 526.844 935.006 522.648C935.006 518.406 937.326 516.109 940.279 516.109C942.529 516.109 943.467 517.445 943.912 518.359H944.029V512.031H947.006V529H944.076V526.984H943.912C943.443 527.922 942.459 529.234 940.256 529.234ZM941.076 526.773C942.998 526.773 944.099 525.109 944.099 522.625C944.099 520.164 943.021 518.547 941.076 518.547C939.084 518.547 938.053 520.258 938.053 522.625C938.053 525.039 939.107 526.773 941.076 526.773ZM956.158 529.258C952.314 529.258 949.97 526.703 949.97 522.719C949.97 518.781 952.361 516.109 955.993 516.109C959.111 516.109 961.806 518.055 961.806 522.531V523.469H952.923C952.958 525.637 954.236 526.914 956.181 526.914C957.493 526.914 958.384 526.352 958.759 525.602H961.689C961.15 527.805 959.111 529.258 956.158 529.258ZM952.947 521.43H958.947C958.923 519.695 957.775 518.43 956.04 518.43C954.236 518.43 953.04 519.801 952.947 521.43ZM964.606 529V516.273H967.512V518.383H967.653C968.098 516.93 969.341 516.086 970.794 516.086C971.122 516.086 971.591 516.109 971.872 516.156V518.922C971.614 518.828 970.981 518.734 970.489 518.734C968.825 518.734 967.606 519.883 967.606 521.5V529H964.606Z" fill="#56AFDF"/>
<path d="M772.93 612.203V614.312H766.672V619.445H775.062V621.555H755.703V619.445H764.047V614.312H757.93V604.586H760.602V612.203H772.93ZM794.832 602.922V618.883H792.183V616.328H787.871V614.266H792.183V602.922H794.832ZM795.324 621.555V623.664H779.808V617.195H782.41V621.555H795.324ZM776.785 611.055C779.363 611.043 782.562 611.008 785.761 610.82C786.066 608.852 786.16 607.281 786.207 606.133H778.707V604.047H788.808V604.844C788.808 605.945 788.808 607.926 788.386 610.609C789.113 610.539 789.839 610.445 790.542 610.352L790.73 612.203C788.902 612.52 787.015 612.742 785.152 612.883V617.523H782.574V613.023C780.605 613.117 778.742 613.141 777.113 613.141L776.785 611.055ZM816.405 605.172V607.281H799.108V605.172H806.491V602.852H809.069V605.172H816.405ZM817.507 616.586V618.719H809.069V624.109H806.491V618.719H798.147V616.586H817.507ZM807.78 608.242C812.257 608.242 814.952 609.508 814.952 611.828C814.952 614.148 812.257 615.414 807.78 615.414C803.304 615.414 800.608 614.148 800.608 611.828C800.608 609.508 803.304 608.242 807.78 608.242ZM807.78 610.188C804.851 610.188 803.304 610.75 803.327 611.828C803.304 612.906 804.851 613.469 807.78 613.469C810.71 613.469 812.257 612.906 812.257 611.828C812.257 610.75 810.71 610.188 807.78 610.188ZM758.359 649.711V656H756.27V641.859H758.32V647.133H758.457C758.965 645.98 759.941 645.258 761.602 645.258C763.789 645.258 765.234 646.605 765.234 649.262V656H763.145V649.516C763.145 647.953 762.305 647.055 760.898 647.055C759.434 647.055 758.359 648.012 758.359 649.711ZM772.724 656.215C769.599 656.215 767.685 654.066 767.685 650.766C767.685 647.504 769.638 645.258 772.587 645.258C775.009 645.258 777.295 646.762 777.295 650.59V651.332H769.755C769.814 653.344 770.996 654.496 772.744 654.496C773.935 654.496 774.697 653.988 775.048 653.344H777.158C776.689 655.062 775.048 656.215 772.724 656.215ZM769.775 649.77H775.244C775.244 648.148 774.209 646.977 772.607 646.977C770.937 646.977 769.853 648.266 769.775 649.77ZM781.855 641.859V656H779.765V641.859H781.855ZM786.884 641.859V656H784.794V641.859H786.884ZM794.315 656.215C791.307 656.215 789.354 654.027 789.354 650.746C789.354 647.445 791.307 645.258 794.315 645.258C797.303 645.258 799.256 647.445 799.256 650.746C799.256 654.027 797.303 656.215 794.315 656.215ZM794.315 654.477C796.229 654.477 797.147 652.777 797.147 650.746C797.147 648.715 796.229 646.977 794.315 646.977C792.362 646.977 791.444 648.715 791.444 650.746C791.444 652.777 792.362 654.477 794.315 654.477ZM808.66 654.086C806.785 654.086 805.359 652.582 805.359 650.023C805.359 647.465 806.824 645.98 808.66 645.98C810.008 645.98 810.613 646.82 810.848 647.309H810.945V646.137H812.645V651.605C812.664 652.328 812.957 652.66 813.543 652.66C814.637 652.66 815.379 651.391 815.379 649.496C815.398 645.961 812.859 643.637 809.227 643.637C805.457 643.656 803.055 646.449 803.055 650.023C803.055 653.91 805.145 656.469 809.148 656.43C810.535 656.41 811.492 656.312 812.645 656V657.562C811.609 657.855 810.438 658.031 809.148 658.031C804.305 658.031 801.414 654.945 801.414 650.023C801.414 645.395 804.656 642.035 809.227 642.035C813.855 642.035 817.02 645.199 817.02 649.438C817.02 652.445 815.496 654.184 813.406 654.164C812.146 654.164 811.189 653.52 811.043 652.621H810.945C810.691 653.109 810.086 654.086 808.66 654.086ZM809.09 652.484C810.32 652.484 810.965 651.488 810.984 650.004C810.965 648.539 810.34 647.582 809.09 647.582C807.859 647.582 807.195 648.617 807.195 650.004C807.195 651.41 807.879 652.484 809.09 652.484ZM825.623 648.285C825.427 647.445 824.763 646.898 823.611 646.898C822.42 646.898 821.56 647.523 821.58 648.324C821.56 648.949 822.068 649.398 823.24 649.672L824.92 650.062C826.873 650.492 827.81 651.43 827.83 652.934C827.81 654.848 826.209 656.215 823.494 656.215C820.955 656.215 819.431 655.082 819.177 653.109H821.306C821.482 654.066 822.224 654.535 823.474 654.535C824.822 654.535 825.681 653.988 825.701 653.09C825.681 652.406 825.173 651.957 824.06 651.703L822.4 651.352C820.486 650.922 819.49 649.906 819.49 648.441C819.49 646.547 821.13 645.258 823.591 645.258C825.955 645.258 827.42 646.469 827.634 648.285H825.623ZM835.222 645.395V647.055H833.054V652.875C833.054 654.066 833.659 654.281 834.323 654.301C834.616 654.301 835.085 654.262 835.378 654.242V656.059C835.085 656.098 834.636 656.137 834.07 656.137C832.429 656.137 830.964 655.238 830.984 653.305V647.055H829.421V645.395H830.984V642.855H833.054V645.395H835.222ZM837.653 656V645.395H839.743V656H837.653ZM838.708 643.754C837.985 643.754 837.38 643.207 837.38 642.523C837.38 641.84 837.985 641.293 838.708 641.293C839.411 641.293 840.016 641.84 840.016 642.523C840.016 643.207 839.411 643.754 838.708 643.754ZM844.772 641.859V656H842.682V641.859H844.772ZM852.281 656.215C849.156 656.215 847.242 654.066 847.242 650.766C847.242 647.504 849.195 645.258 852.145 645.258C854.566 645.258 856.852 646.762 856.852 650.59V651.332H849.312C849.371 653.344 850.553 654.496 852.301 654.496C853.492 654.496 854.254 653.988 854.605 653.344H856.715C856.246 655.062 854.605 656.215 852.281 656.215ZM849.332 649.77H854.801C854.801 648.148 853.766 646.977 852.164 646.977C850.494 646.977 849.41 648.266 849.332 649.77ZM860.689 656.137C859.927 656.137 859.283 655.512 859.302 654.75C859.283 653.988 859.927 653.363 860.689 653.363C861.431 653.363 862.076 653.988 862.076 654.75C862.076 655.512 861.431 656.137 860.689 656.137ZM864.995 656V645.395H867.085V656H864.995ZM866.05 643.754C865.327 643.754 864.722 643.207 864.722 642.523C864.722 641.84 865.327 641.293 866.05 641.293C866.753 641.293 867.359 641.84 867.359 642.523C867.359 643.207 866.753 643.754 866.05 643.754ZM870.024 656V645.395H872.036V647.133H872.153C872.602 645.941 873.637 645.258 875.044 645.258C876.45 645.258 877.446 645.961 877.895 647.133H878.012C878.52 645.98 879.653 645.258 881.196 645.258C883.11 645.258 884.477 646.469 884.477 648.891V656H882.387V649.086C882.387 647.66 881.489 647.055 880.395 647.055C879.048 647.055 878.286 647.973 878.286 649.242V656H876.216V648.969C876.216 647.816 875.415 647.055 874.282 647.055C873.11 647.055 872.114 648.031 872.114 649.457V656H870.024Z" fill="#40424D"/>
<path d="M1141.1 381.531V409.812H1137.6V381.531H1141.1ZM1132.98 384.094V386.938H1122.85V400.062C1128.06 400.047 1131.32 399.891 1135.07 399.219L1135.42 402.094C1131.39 402.844 1127.73 403 1121.76 403H1119.35V384.094H1132.98ZM1156.03 389.562C1156.03 393.938 1158.62 398.906 1163.09 400.969L1161.15 403.719C1157.96 402.219 1155.6 399.188 1154.34 395.656C1153.06 399.531 1150.59 402.844 1147.34 404.406L1145.31 401.688C1149.81 399.562 1152.53 394.25 1152.56 389.562V387.188H1146.4V384.312H1161.93V387.188H1156.03V389.562ZM1168.03 381.531V392.531H1172.37V395.438H1168.03V409.781H1164.56V381.531H1168.03ZM1197.73 381.562V401.969H1194.23V381.562H1197.73ZM1198.51 406.406V409.219H1179.04V399.906H1182.54V406.406H1198.51ZM1182.32 383.406C1186.6 383.406 1189.92 386.375 1189.92 390.469C1189.92 394.656 1186.6 397.562 1182.32 397.562C1178.01 397.562 1174.7 394.656 1174.7 390.469C1174.7 386.375 1178.01 383.406 1182.32 383.406ZM1182.32 386.438C1179.92 386.438 1178.07 388.031 1178.1 390.469C1178.07 392.969 1179.92 394.531 1182.32 394.531C1184.67 394.531 1186.51 392.969 1186.51 390.469C1186.51 388.031 1184.67 386.438 1182.32 386.438ZM1217.07 381.188V410.188H1213.35V381.188H1217.07ZM1239.29 407H1231.6V384.375H1239.41C1246.16 384.375 1250.26 388.625 1250.26 395.656C1250.26 402.719 1246.16 407 1239.29 407ZM1235.66 403.469H1239.07C1243.79 403.469 1246.19 400.875 1246.19 395.656C1246.19 390.469 1243.79 387.906 1239.19 387.906H1235.66V403.469ZM1261.83 407.344C1256.71 407.344 1253.58 403.938 1253.58 398.625C1253.58 393.375 1256.77 389.812 1261.62 389.812C1265.77 389.812 1269.37 392.406 1269.37 398.375V399.625H1257.52C1257.57 402.516 1259.27 404.219 1261.87 404.219C1263.62 404.219 1264.8 403.469 1265.3 402.469H1269.21C1268.49 405.406 1265.77 407.344 1261.83 407.344ZM1257.55 396.906H1265.55C1265.52 394.594 1263.99 392.906 1261.68 392.906C1259.27 392.906 1257.68 394.734 1257.55 396.906ZM1282.72 394.875C1282.47 393.594 1281.41 392.781 1279.72 392.781C1278.01 392.781 1276.76 393.625 1276.79 394.781C1276.76 395.656 1277.47 396.312 1279.19 396.719L1282.07 397.312C1285.29 398.031 1286.82 399.5 1286.85 401.938C1286.82 405.125 1284.04 407.344 1279.6 407.344C1275.29 407.344 1272.72 405.406 1272.32 402.156H1276.38C1276.63 403.594 1277.76 404.312 1279.6 404.312C1281.51 404.312 1282.79 403.531 1282.79 402.281C1282.79 401.312 1282.01 400.688 1280.32 400.312L1277.6 399.719C1274.44 399.094 1272.82 397.438 1272.82 395C1272.82 391.875 1275.51 389.812 1279.66 389.812C1283.72 389.812 1286.22 391.781 1286.51 394.875H1282.72ZM1290.52 407V390.031H1294.52V407H1290.52ZM1292.55 387.625C1291.3 387.625 1290.24 386.656 1290.24 385.438C1290.24 384.25 1291.3 383.281 1292.55 383.281C1293.83 383.281 1294.86 384.25 1294.86 385.438C1294.86 386.656 1293.83 387.625 1292.55 387.625ZM1306.38 413.719C1301.88 413.719 1299.04 411.719 1298.75 408.531H1302.72C1303 410 1304.41 410.719 1306.44 410.719C1308.82 410.719 1310.38 409.688 1310.38 407.188V403.938H1310.19C1309.57 405.188 1308.22 406.75 1305.29 406.75C1301.38 406.75 1298.29 403.906 1298.29 398.375C1298.29 392.781 1301.38 389.812 1305.32 389.812C1308.32 389.812 1309.57 391.594 1310.19 392.812H1310.38V390.031H1314.32V407.281C1314.32 411.625 1310.97 413.719 1306.38 413.719ZM1306.38 403.625C1308.94 403.625 1310.41 401.688 1310.41 398.438C1310.41 395.219 1308.97 393.062 1306.38 393.062C1303.72 393.062 1302.35 395.344 1302.35 398.438C1302.35 401.562 1303.75 403.625 1306.38 403.625ZM1322.77 397.062V407H1318.77V390.031H1322.58V392.906H1322.8C1323.58 391 1325.3 389.812 1327.83 389.812C1331.36 389.812 1333.68 392.125 1333.64 396.188V407H1329.68V396.812C1329.68 394.531 1328.46 393.188 1326.36 393.188C1324.24 393.188 1322.77 394.594 1322.77 397.062ZM1345.63 407.344C1340.5 407.344 1337.38 403.938 1337.38 398.625C1337.38 393.375 1340.57 389.812 1345.41 389.812C1349.57 389.812 1353.16 392.406 1353.16 398.375V399.625H1341.32C1341.36 402.516 1343.07 404.219 1345.66 404.219C1347.41 404.219 1348.6 403.469 1349.1 402.469H1353C1352.28 405.406 1349.57 407.344 1345.63 407.344ZM1341.35 396.906H1349.35C1349.32 394.594 1347.78 392.906 1345.47 392.906C1343.07 392.906 1341.47 394.734 1341.35 396.906ZM1356.89 407V390.031H1360.77V392.844H1360.96C1361.55 390.906 1363.21 389.781 1365.14 389.781C1365.58 389.781 1366.21 389.812 1366.58 389.875V393.562C1366.24 393.438 1365.39 393.312 1364.74 393.312C1362.52 393.312 1360.89 394.844 1360.89 397V407H1356.89Z" fill="#40424D"/>
<path d="M1135.02 509.922V521.898H1132.39V509.922H1135.02ZM1135.02 522.953V530.828H1120.96V522.953H1135.02ZM1123.53 525.016V528.719H1132.46V525.016H1123.53ZM1125.27 512.781C1125.27 515.477 1127.07 518.008 1130.38 519.062L1129.11 521.055C1126.66 520.293 1124.91 518.734 1123.96 516.695C1122.98 518.887 1121.2 520.633 1118.66 521.477L1117.37 519.414C1120.82 518.312 1122.57 515.57 1122.57 512.781V510.719H1125.27V512.781ZM1156.33 509.898V522.484H1153.73V517.305H1150.12V515.172H1153.73V509.898H1156.33ZM1149.16 523.023C1153.66 523.023 1156.4 524.5 1156.4 527.055C1156.4 529.609 1153.66 531.086 1149.16 531.086C1144.69 531.086 1141.94 529.609 1141.97 527.055C1141.94 524.5 1144.69 523.023 1149.16 523.023ZM1149.16 525.016C1146.21 525.016 1144.55 525.719 1144.55 527.055C1144.55 528.367 1146.21 529.07 1149.16 529.07C1152.12 529.07 1153.8 528.367 1153.8 527.055C1153.8 525.719 1152.12 525.016 1149.16 525.016ZM1146.37 513.531C1146.37 516.109 1148.08 518.711 1151.37 519.812L1150.05 521.875C1147.7 521.078 1146.02 519.461 1145.11 517.469C1144.17 519.73 1142.4 521.535 1139.88 522.438L1138.52 520.375C1141.92 519.203 1143.73 516.344 1143.73 513.555V513.391H1139.32V511.281H1150.76V513.391H1146.37V513.531ZM1163.47 511.422V514.633H1168.51V511.422H1171.11V522.039H1160.89V511.422H1163.47ZM1163.47 519.977H1168.51V516.648H1163.47V519.977ZM1177.46 509.922V525.508H1174.84V509.922H1177.46ZM1177.96 528.555V530.664H1163.35V523.914H1165.98V528.555H1177.96ZM1123.89 555.285C1123.7 554.445 1123.03 553.898 1121.88 553.898C1120.69 553.898 1119.83 554.523 1119.85 555.324C1119.83 555.949 1120.34 556.398 1121.51 556.672L1123.19 557.062C1125.14 557.492 1126.08 558.43 1126.1 559.934C1126.08 561.848 1124.48 563.215 1121.76 563.215C1119.23 563.215 1117.7 562.082 1117.45 560.109H1119.58C1119.75 561.066 1120.5 561.535 1121.75 561.535C1123.09 561.535 1123.95 560.988 1123.97 560.09C1123.95 559.406 1123.44 558.957 1122.33 558.703L1120.67 558.352C1118.76 557.922 1117.76 556.906 1117.76 555.441C1117.76 553.547 1119.4 552.258 1121.86 552.258C1124.23 552.258 1125.69 553.469 1125.91 555.285H1123.89ZM1128.53 563V552.395H1130.62V563H1128.53ZM1129.59 550.754C1128.86 550.754 1128.26 550.207 1128.26 549.523C1128.26 548.84 1128.86 548.293 1129.59 548.293C1130.29 548.293 1130.9 548.84 1130.9 549.523C1130.9 550.207 1130.29 550.754 1129.59 550.754ZM1133.56 563V552.395H1135.57V554.133H1135.69C1136.14 552.941 1137.17 552.258 1138.58 552.258C1139.99 552.258 1140.98 552.961 1141.43 554.133H1141.55C1142.06 552.98 1143.19 552.258 1144.73 552.258C1146.65 552.258 1148.01 553.469 1148.01 555.891V563H1145.92V556.086C1145.92 554.66 1145.03 554.055 1143.93 554.055C1142.58 554.055 1141.82 554.973 1141.82 556.242V563H1139.75V555.969C1139.75 554.816 1138.95 554.055 1137.82 554.055C1136.65 554.055 1135.65 555.031 1135.65 556.457V563H1133.56ZM1150.93 552.395H1153.02V563.684C1153.02 565.832 1151.83 566.984 1149.64 566.984C1149.51 566.984 1149.37 566.984 1149.21 566.965V565.188H1149.55C1150.52 565.188 1150.93 564.641 1150.93 563.664V552.395ZM1151.97 550.754C1151.25 550.754 1150.64 550.207 1150.64 549.523C1150.64 548.84 1151.25 548.293 1151.97 548.293C1152.67 548.293 1153.28 548.84 1153.28 549.523C1153.28 550.207 1152.67 550.754 1151.97 550.754ZM1156.14 563V548.859H1158.21V554.113H1158.33C1158.72 553.449 1159.42 552.258 1161.37 552.258C1163.93 552.258 1165.85 554.27 1165.85 557.727C1165.85 561.145 1163.97 563.215 1161.39 563.215C1159.46 563.215 1158.72 562.043 1158.33 561.34H1158.17V563H1156.14ZM1158.17 557.688C1158.17 559.914 1159.17 561.438 1160.92 561.438C1162.76 561.438 1163.72 559.816 1163.72 557.688C1163.72 555.598 1162.78 554.035 1160.92 554.035C1159.15 554.035 1158.17 555.48 1158.17 557.688ZM1173.22 563.195C1169.94 563.195 1168.02 560.559 1168.02 555.93C1168.02 551.34 1169.98 548.664 1173.22 548.664C1176.46 548.664 1178.41 551.34 1178.41 555.93C1178.41 560.559 1176.48 563.195 1173.22 563.195ZM1173.22 561.34C1175.13 561.34 1176.26 559.465 1176.26 555.93C1176.26 552.414 1175.11 550.48 1173.22 550.48C1171.32 550.48 1170.17 552.414 1170.17 555.93C1170.17 559.465 1171.3 561.34 1173.22 561.34ZM1185.84 563.195C1183.17 563.195 1181.16 561.555 1181.06 559.309H1183.15C1183.27 560.52 1184.42 561.398 1185.84 561.398C1187.56 561.398 1188.79 560.148 1188.79 558.469C1188.79 556.75 1187.52 555.5 1185.75 555.48C1184.61 555.48 1183.75 555.852 1183.27 556.73H1181.23L1182.15 548.859H1190.16V550.695H1183.93L1183.46 554.66H1183.6C1184.18 554.094 1185.18 553.703 1186.25 553.703C1188.91 553.703 1190.88 555.676 1190.88 558.41C1190.88 561.203 1188.79 563.195 1185.84 563.195ZM1200.54 561.086C1198.67 561.086 1197.24 559.582 1197.24 557.023C1197.24 554.465 1198.71 552.98 1200.54 552.98C1201.89 552.98 1202.49 553.82 1202.73 554.309H1202.83V553.137H1204.53V558.605C1204.55 559.328 1204.84 559.66 1205.42 559.66C1206.52 559.66 1207.26 558.391 1207.26 556.496C1207.28 552.961 1204.74 550.637 1201.11 550.637C1197.34 550.656 1194.94 553.449 1194.94 557.023C1194.94 560.91 1197.03 563.469 1201.03 563.43C1202.42 563.41 1203.37 563.312 1204.53 563V564.562C1203.49 564.855 1202.32 565.031 1201.03 565.031C1196.19 565.031 1193.3 561.945 1193.3 557.023C1193.3 552.395 1196.54 549.035 1201.11 549.035C1205.74 549.035 1208.9 552.199 1208.9 556.438C1208.9 559.445 1207.38 561.184 1205.29 561.164C1204.03 561.164 1203.07 560.52 1202.92 559.621H1202.83C1202.57 560.109 1201.97 561.086 1200.54 561.086ZM1200.97 559.484C1202.2 559.484 1202.85 558.488 1202.87 557.004C1202.85 555.539 1202.22 554.582 1200.97 554.582C1199.74 554.582 1199.08 555.617 1199.08 557.004C1199.08 558.41 1199.76 559.484 1200.97 559.484ZM1216 567.199C1213.32 567.199 1211.57 566.008 1211.37 564.035H1213.5C1213.7 565.031 1214.63 565.52 1216.02 565.52C1217.68 565.52 1218.73 564.816 1218.73 563.156V561.066H1218.6C1218.23 561.75 1217.46 562.844 1215.51 562.844C1213.01 562.844 1211.08 560.969 1211.08 557.59C1211.08 554.211 1212.97 552.258 1215.53 552.258C1217.5 552.258 1218.23 553.449 1218.62 554.113H1218.75V552.395H1220.78V563.234C1220.78 565.949 1218.73 567.199 1216 567.199ZM1215.98 561.125C1217.76 561.125 1218.75 559.816 1218.75 557.629C1218.75 555.48 1217.78 554.035 1215.98 554.035C1214.12 554.035 1213.21 555.598 1213.21 557.629C1213.21 559.699 1214.16 561.125 1215.98 561.125ZM1223.72 563V552.395H1225.74V554.133H1225.85C1226.3 552.941 1227.34 552.258 1228.74 552.258C1230.15 552.258 1231.15 552.961 1231.6 554.133H1231.71C1232.22 552.98 1233.35 552.258 1234.9 552.258C1236.81 552.258 1238.18 553.469 1238.18 555.891V563H1236.09V556.086C1236.09 554.66 1235.19 554.055 1234.1 554.055C1232.75 554.055 1231.99 554.973 1231.99 556.242V563H1229.92V555.969C1229.92 554.816 1229.11 554.055 1227.98 554.055C1226.81 554.055 1225.81 555.031 1225.81 556.457V563H1223.72ZM1240.61 560.012C1240.61 557.59 1242.66 556.965 1244.57 556.828C1245.28 556.779 1246.87 556.691 1247.37 556.672L1247.35 555.832C1247.35 554.641 1246.62 553.938 1245.2 553.938C1243.97 553.938 1243.23 554.504 1243.01 555.285H1240.94C1241.14 553.527 1242.78 552.258 1245.28 552.258C1246.96 552.258 1249.44 552.883 1249.44 555.949V563H1247.41V561.555H1247.33C1246.92 562.355 1245.94 563.234 1244.18 563.234C1242.17 563.234 1240.61 562.082 1240.61 560.012ZM1242.64 560.031C1242.64 561.047 1243.48 561.574 1244.65 561.574C1246.35 561.574 1247.37 560.441 1247.37 559.172V558.195L1244.87 558.371C1243.5 558.469 1242.64 558.977 1242.64 560.031ZM1252.36 563V552.395H1254.45V563H1252.36ZM1253.41 550.754C1252.69 550.754 1252.08 550.207 1252.08 549.523C1252.08 548.84 1252.69 548.293 1253.41 548.293C1254.11 548.293 1254.72 548.84 1254.72 549.523C1254.72 550.207 1254.11 550.754 1253.41 550.754ZM1259.47 548.859V563H1257.38V548.859H1259.47ZM1263.78 563.137C1263.02 563.137 1262.37 562.512 1262.39 561.75C1262.37 560.988 1263.02 560.363 1263.78 560.363C1264.52 560.363 1265.17 560.988 1265.17 561.75C1265.17 562.512 1264.52 563.137 1263.78 563.137ZM1272.58 563.215C1269.49 563.215 1267.62 560.93 1267.62 557.746C1267.62 554.504 1269.55 552.258 1272.54 552.258C1274.96 552.258 1276.72 553.684 1276.93 555.832H1274.9C1274.69 554.836 1273.89 553.996 1272.58 553.996C1270.86 553.996 1269.71 555.422 1269.71 557.688C1269.71 560.012 1270.84 561.438 1272.58 561.438C1273.75 561.438 1274.65 560.793 1274.9 559.641H1276.93C1276.7 561.691 1275.08 563.215 1272.58 563.215ZM1283.8 563.215C1280.79 563.215 1278.84 561.027 1278.84 557.746C1278.84 554.445 1280.79 552.258 1283.8 552.258C1286.79 552.258 1288.74 554.445 1288.74 557.746C1288.74 561.027 1286.79 563.215 1283.8 563.215ZM1283.8 561.477C1285.71 561.477 1286.63 559.777 1286.63 557.746C1286.63 555.715 1285.71 553.977 1283.8 553.977C1281.85 553.977 1280.93 555.715 1280.93 557.746C1280.93 559.777 1281.85 561.477 1283.8 561.477ZM1291.19 563V552.395H1293.2V554.133H1293.32C1293.77 552.941 1294.81 552.258 1296.21 552.258C1297.62 552.258 1298.61 552.961 1299.06 554.133H1299.18C1299.69 552.98 1300.82 552.258 1302.36 552.258C1304.28 552.258 1305.65 553.469 1305.65 555.891V563H1303.56V556.086C1303.56 554.66 1302.66 554.055 1301.56 554.055C1300.22 554.055 1299.45 554.973 1299.45 556.242V563H1297.38V555.969C1297.38 554.816 1296.58 554.055 1295.45 554.055C1294.28 554.055 1293.28 555.031 1293.28 556.457V563H1291.19Z" fill="#40424D"/>
<path d="M1127 604.094C1131.55 604.094 1134.9 606.367 1134.9 609.812C1134.9 612.988 1132.17 615.109 1128.29 615.484V619.375H1136.73V621.508H1117.37V619.375H1125.71V615.484C1121.86 615.109 1119.13 612.988 1119.15 609.812C1119.13 606.367 1122.48 604.094 1127 604.094ZM1127 606.203C1123.91 606.18 1121.68 607.586 1121.71 609.812C1121.68 612.109 1123.91 613.469 1127 613.469C1130.14 613.469 1132.35 612.109 1132.35 609.812C1132.35 607.586 1130.14 606.18 1127 606.203ZM1156.33 602.898V615.484H1153.73V610.305H1150.12V608.172H1153.73V602.898H1156.33ZM1149.16 616.023C1153.66 616.023 1156.4 617.5 1156.4 620.055C1156.4 622.609 1153.66 624.086 1149.16 624.086C1144.69 624.086 1141.94 622.609 1141.97 620.055C1141.94 617.5 1144.69 616.023 1149.16 616.023ZM1149.16 618.016C1146.21 618.016 1144.55 618.719 1144.55 620.055C1144.55 621.367 1146.21 622.07 1149.16 622.07C1152.12 622.07 1153.8 621.367 1153.8 620.055C1153.8 618.719 1152.12 618.016 1149.16 618.016ZM1146.37 606.531C1146.37 609.109 1148.08 611.711 1151.37 612.812L1150.05 614.875C1147.7 614.078 1146.02 612.461 1145.11 610.469C1144.17 612.73 1142.4 614.535 1139.88 615.438L1138.52 613.375C1141.92 612.203 1143.73 609.344 1143.73 606.555V606.391H1139.32V604.281H1150.76V606.391H1146.37V606.531ZM1179.13 613.844V615.93H1159.81V613.844H1179.13ZM1176.95 621.555V623.664H1162.21V617.5H1164.81V621.555H1176.95ZM1169.45 603.578C1174.06 603.578 1177.06 605.195 1177.09 607.867C1177.06 610.562 1174.06 612.203 1169.45 612.203C1164.83 612.203 1161.81 610.562 1161.81 607.867C1161.81 605.195 1164.83 603.578 1169.45 603.578ZM1169.45 605.664C1166.38 605.664 1164.5 606.461 1164.53 607.867C1164.5 609.297 1166.38 610.094 1169.45 610.07C1172.54 610.094 1174.39 609.297 1174.39 607.867C1174.39 606.461 1172.54 605.664 1169.45 605.664ZM1117.94 656V641.859H1120.03V649.867H1120.2L1124.4 645.395H1126.9L1122.62 649.945L1127.19 656H1124.64L1121.04 651.234L1120.03 652.23V656H1117.94ZM1128.94 656V645.395H1131.03V656H1128.94ZM1130 643.754C1129.27 643.754 1128.67 643.207 1128.67 642.523C1128.67 641.84 1129.27 641.293 1130 641.293C1130.7 641.293 1131.31 641.84 1131.31 642.523C1131.31 643.207 1130.7 643.754 1130 643.754ZM1133.97 656V645.395H1136.06V656H1133.97ZM1135.03 643.754C1134.3 643.754 1133.7 643.207 1133.7 642.523C1133.7 641.84 1134.3 641.293 1135.03 641.293C1135.73 641.293 1136.33 641.84 1136.33 642.523C1136.33 643.207 1135.73 643.754 1135.03 643.754ZM1139 656V645.395H1141.09V656H1139ZM1140.05 643.754C1139.33 643.754 1138.73 643.207 1138.73 642.523C1138.73 641.84 1139.33 641.293 1140.05 641.293C1140.76 641.293 1141.36 641.84 1141.36 642.523C1141.36 643.207 1140.76 643.754 1140.05 643.754ZM1144.03 656V645.395H1146.12V656H1144.03ZM1145.08 643.754C1144.36 643.754 1143.76 643.207 1143.76 642.523C1143.76 641.84 1144.36 641.293 1145.08 641.293C1145.79 641.293 1146.39 641.84 1146.39 642.523C1146.39 643.207 1145.79 643.754 1145.08 643.754ZM1149.06 656V641.859H1151.15V649.867H1151.32L1155.52 645.395H1158.02L1153.75 649.945L1158.32 656H1155.76L1152.16 651.234L1151.15 652.23V656H1149.06ZM1160.06 656V645.395H1162.15V656H1160.06ZM1161.12 643.754C1160.4 643.754 1159.79 643.207 1159.79 642.523C1159.79 641.84 1160.4 641.293 1161.12 641.293C1161.82 641.293 1162.43 641.84 1162.43 642.523C1162.43 643.207 1161.82 643.754 1161.12 643.754ZM1165.09 656V641.859H1167.18V649.867H1167.36L1171.56 645.395H1174.06L1169.78 649.945L1174.35 656H1171.79L1168.2 651.234L1167.18 652.23V656H1165.09ZM1176.1 656V645.395H1178.19V656H1176.1ZM1177.15 643.754C1176.43 643.754 1175.82 643.207 1175.82 642.523C1175.82 641.84 1176.43 641.293 1177.15 641.293C1177.86 641.293 1178.46 641.84 1178.46 642.523C1178.46 643.207 1177.86 643.754 1177.15 643.754ZM1186.22 656.195C1183.61 656.176 1180.87 654.633 1180.87 649.398C1180.87 644.477 1183 641.664 1186.4 641.664C1189 641.664 1190.81 643.285 1191.15 645.531H1189.02C1188.74 644.379 1187.83 643.539 1186.4 643.539C1184.21 643.539 1182.94 645.453 1182.94 648.637H1183.1C1183.86 647.445 1185.19 646.723 1186.73 646.723C1189.25 646.723 1191.28 648.656 1191.28 651.371C1191.28 654.105 1189.27 656.215 1186.22 656.195ZM1186.2 654.398C1187.92 654.398 1189.19 653.07 1189.19 651.41C1189.19 649.789 1187.96 648.48 1186.26 648.48C1184.52 648.48 1183.22 649.848 1183.2 651.43C1183.22 652.992 1184.47 654.398 1186.2 654.398ZM1199.08 656.195C1196.47 656.176 1193.73 654.633 1193.73 649.398C1193.73 644.477 1195.86 641.664 1199.26 641.664C1201.86 641.664 1203.67 643.285 1204.01 645.531H1201.88C1201.6 644.379 1200.69 643.539 1199.26 643.539C1197.07 643.539 1195.8 645.453 1195.8 648.637H1195.96C1196.72 647.445 1198.05 646.723 1199.59 646.723C1202.11 646.723 1204.14 648.656 1204.14 651.371C1204.14 654.105 1202.13 656.215 1199.08 656.195ZM1199.07 654.398C1200.78 654.398 1202.05 653.07 1202.05 651.41C1202.05 649.789 1200.82 648.48 1199.12 648.48C1197.39 648.48 1196.08 649.848 1196.06 651.43C1196.08 652.992 1197.33 654.398 1199.07 654.398ZM1211.95 656.195C1209.33 656.176 1206.59 654.633 1206.59 649.398C1206.59 644.477 1208.72 641.664 1212.12 641.664C1214.72 641.664 1216.54 643.285 1216.87 645.531H1214.74C1214.47 644.379 1213.55 643.539 1212.12 643.539C1209.93 643.539 1208.66 645.453 1208.66 648.637H1208.82C1209.58 647.445 1210.91 646.723 1212.45 646.723C1214.97 646.723 1217 648.656 1217 651.371C1217 654.105 1214.99 656.215 1211.95 656.195ZM1211.93 654.398C1213.65 654.398 1214.91 653.07 1214.91 651.41C1214.91 649.789 1213.68 648.48 1211.98 648.48C1210.25 648.48 1208.94 649.848 1208.92 651.43C1208.94 652.992 1210.19 654.398 1211.93 654.398ZM1226.66 654.086C1224.79 654.086 1223.36 652.582 1223.36 650.023C1223.36 647.465 1224.83 645.98 1226.66 645.98C1228.01 645.98 1228.62 646.82 1228.85 647.309H1228.95V646.137H1230.65V651.605C1230.67 652.328 1230.96 652.66 1231.55 652.66C1232.64 652.66 1233.38 651.391 1233.38 649.496C1233.4 645.961 1230.86 643.637 1227.23 643.637C1223.46 643.656 1221.06 646.449 1221.06 650.023C1221.06 653.91 1223.15 656.469 1227.15 656.43C1228.54 656.41 1229.49 656.312 1230.65 656V657.562C1229.61 657.855 1228.44 658.031 1227.15 658.031C1222.31 658.031 1219.42 654.945 1219.42 650.023C1219.42 645.395 1222.66 642.035 1227.23 642.035C1231.86 642.035 1235.02 645.199 1235.02 649.438C1235.02 652.445 1233.5 654.184 1231.41 654.164C1230.15 654.164 1229.19 653.52 1229.05 652.621H1228.95C1228.69 653.109 1228.09 654.086 1226.66 654.086ZM1227.09 652.484C1228.32 652.484 1228.97 651.488 1228.99 650.004C1228.97 648.539 1228.34 647.582 1227.09 647.582C1225.86 647.582 1225.2 648.617 1225.2 650.004C1225.2 651.41 1225.88 652.484 1227.09 652.484ZM1242.12 660.199C1239.45 660.199 1237.69 659.008 1237.49 657.035H1239.62C1239.82 658.031 1240.75 658.52 1242.14 658.52C1243.8 658.52 1244.86 657.816 1244.86 656.156V654.066H1244.72C1244.35 654.75 1243.59 655.844 1241.63 655.844C1239.13 655.844 1237.2 653.969 1237.2 650.59C1237.2 647.211 1239.09 645.258 1241.65 645.258C1243.62 645.258 1244.35 646.449 1244.74 647.113H1244.87V645.395H1246.91V656.234C1246.91 658.949 1244.86 660.199 1242.12 660.199ZM1242.1 654.125C1243.88 654.125 1244.87 652.816 1244.87 650.629C1244.87 648.48 1243.9 647.035 1242.1 647.035C1240.25 647.035 1239.33 648.598 1239.33 650.629C1239.33 652.699 1240.28 654.125 1242.1 654.125ZM1249.85 656V645.395H1251.86V647.133H1251.97C1252.42 645.941 1253.46 645.258 1254.86 645.258C1256.27 645.258 1257.27 645.961 1257.72 647.133H1257.83C1258.34 645.98 1259.47 645.258 1261.02 645.258C1262.93 645.258 1264.3 646.469 1264.3 648.891V656H1262.21V649.086C1262.21 647.66 1261.31 647.055 1260.22 647.055C1258.87 647.055 1258.11 647.973 1258.11 649.242V656H1256.04V648.969C1256.04 647.816 1255.24 647.055 1254.1 647.055C1252.93 647.055 1251.93 648.031 1251.93 649.457V656H1249.85ZM1266.73 653.012C1266.73 650.59 1268.78 649.965 1270.69 649.828C1271.4 649.779 1272.99 649.691 1273.49 649.672L1273.47 648.832C1273.47 647.641 1272.75 646.938 1271.32 646.938C1270.09 646.938 1269.35 647.504 1269.13 648.285H1267.06C1267.26 646.527 1268.9 645.258 1271.4 645.258C1273.08 645.258 1275.56 645.883 1275.56 648.949V656H1273.53V654.555H1273.45C1273.04 655.355 1272.06 656.234 1270.3 656.234C1268.29 656.234 1266.73 655.082 1266.73 653.012ZM1268.76 653.031C1268.76 654.047 1269.6 654.574 1270.77 654.574C1272.47 654.574 1273.49 653.441 1273.49 652.172V651.195L1270.99 651.371C1269.62 651.469 1268.76 651.977 1268.76 653.031ZM1278.48 656V645.395H1280.57V656H1278.48ZM1279.53 643.754C1278.81 643.754 1278.2 643.207 1278.2 642.523C1278.2 641.84 1278.81 641.293 1279.53 641.293C1280.23 641.293 1280.84 641.84 1280.84 642.523C1280.84 643.207 1280.23 643.754 1279.53 643.754ZM1285.6 641.859V656H1283.51V641.859H1285.6ZM1289.9 656.137C1289.14 656.137 1288.5 655.512 1288.52 654.75C1288.5 653.988 1289.14 653.363 1289.9 653.363C1290.64 653.363 1291.29 653.988 1291.29 654.75C1291.29 655.512 1290.64 656.137 1289.9 656.137ZM1298.7 656.215C1295.61 656.215 1293.74 653.93 1293.74 650.746C1293.74 647.504 1295.67 645.258 1298.66 645.258C1301.08 645.258 1302.84 646.684 1303.06 648.832H1301.02C1300.81 647.836 1300.01 646.996 1298.7 646.996C1296.98 646.996 1295.83 648.422 1295.83 650.688C1295.83 653.012 1296.96 654.438 1298.7 654.438C1299.87 654.438 1300.77 653.793 1301.02 652.641H1303.06C1302.82 654.691 1301.2 656.215 1298.7 656.215ZM1309.92 656.215C1306.91 656.215 1304.96 654.027 1304.96 650.746C1304.96 647.445 1306.91 645.258 1309.92 645.258C1312.91 645.258 1314.86 647.445 1314.86 650.746C1314.86 654.027 1312.91 656.215 1309.92 656.215ZM1309.92 654.477C1311.83 654.477 1312.75 652.777 1312.75 650.746C1312.75 648.715 1311.83 646.977 1309.92 646.977C1307.97 646.977 1307.05 648.715 1307.05 650.746C1307.05 652.777 1307.97 654.477 1309.92 654.477ZM1317.31 656V645.395H1319.32V647.133H1319.44C1319.89 645.941 1320.93 645.258 1322.33 645.258C1323.74 645.258 1324.73 645.961 1325.18 647.133H1325.3C1325.81 645.98 1326.94 645.258 1328.48 645.258C1330.4 645.258 1331.77 646.469 1331.77 648.891V656H1329.68V649.086C1329.68 647.66 1328.78 647.055 1327.68 647.055C1326.34 647.055 1325.57 647.973 1325.57 649.242V656H1323.5V648.969C1323.5 647.816 1322.7 647.055 1321.57 647.055C1320.4 647.055 1319.4 648.031 1319.4 649.457V656H1317.31Z" fill="#40424D"/>
<path d="M1505.08 403.469V406.375H1479.27V403.469H1505.08ZM1502.83 384.156V386.938H1498.71V395.938H1502.74V398.688H1481.49V395.938H1485.46V386.938H1481.4V384.156H1502.83ZM1488.93 395.938H1495.27V386.938H1488.93V395.938ZM1533.38 403.625V406.5H1507.57V403.625H1518.69V399.031H1510.63V389.781H1526.88V386.281H1510.57V383.469H1530.32V392.531H1514.1V396.188H1530.97V399.031H1522.13V403.625H1533.38ZM1558.33 384.281V387.469C1558.33 391.25 1558.33 395.156 1557.3 401.094L1553.77 400.781C1554.86 395.219 1554.86 391.125 1554.86 387.469V387.094H1538.58V384.281H1558.33ZM1561.61 403.062V405.906H1535.86V403.062H1561.61ZM1575.66 384.406V394.938H1568.35V400.438C1571.22 400.406 1573.96 400.297 1577.1 399.781L1577.35 402.594C1573.53 403.219 1570.44 403.344 1566.94 403.344H1565V392.125H1572.32V387.219H1564.97V384.406H1575.66ZM1588.47 381.531V409.781H1585.16V395.188H1581.97V408.344H1578.78V382.062H1581.97V392.375H1585.16V381.531H1588.47ZM1607.52 383.562V396.125H1593.89V383.562H1607.52ZM1597.33 386.312V393.312H1604.08V386.312H1597.33ZM1615.99 381.562V398.25H1612.49V381.562H1615.99ZM1606.49 398.75C1612.36 398.75 1616.08 400.781 1616.08 404.25C1616.08 407.719 1612.36 409.75 1606.49 409.75C1600.49 409.75 1596.77 407.719 1596.77 404.25C1596.77 400.781 1600.49 398.75 1606.49 398.75ZM1606.49 401.469C1602.46 401.469 1600.27 402.406 1600.27 404.25C1600.27 406.031 1602.46 407.031 1606.49 407.031C1610.36 407.031 1612.61 406.031 1612.61 404.25C1612.61 402.406 1610.36 401.469 1606.49 401.469ZM1635.33 381.188V410.188H1631.61V381.188H1635.33ZM1649.86 407V384.375H1658.36C1663.55 384.375 1666.33 387.531 1666.33 391.875C1666.33 396.219 1663.52 399.344 1658.3 399.344H1653.92V407H1649.86ZM1653.92 396H1657.73C1660.8 396 1662.17 394.281 1662.17 391.875C1662.17 389.438 1660.8 387.781 1657.73 387.781H1653.92V396ZM1670.06 407V390.031H1673.94V392.844H1674.12C1674.72 390.906 1676.37 389.781 1678.31 389.781C1678.75 389.781 1679.37 389.812 1679.75 389.875V393.562C1679.41 393.438 1678.56 393.312 1677.91 393.312C1675.69 393.312 1674.06 394.844 1674.06 397V407H1670.06ZM1689.61 407.344C1684.67 407.344 1681.48 403.844 1681.48 398.594C1681.48 393.312 1684.67 389.812 1689.61 389.812C1694.58 389.812 1697.73 393.312 1697.73 398.594C1697.73 403.844 1694.58 407.344 1689.61 407.344ZM1689.64 404.156C1692.36 404.156 1693.7 401.688 1693.7 398.562C1693.7 395.469 1692.36 392.969 1689.64 392.969C1686.86 392.969 1685.51 395.469 1685.51 398.562C1685.51 401.688 1686.86 404.156 1689.64 404.156ZM1708.87 413.719C1704.37 413.719 1701.53 411.719 1701.25 408.531H1705.22C1705.5 410 1706.9 410.719 1708.94 410.719C1711.31 410.719 1712.87 409.688 1712.87 407.188V403.938H1712.69C1712.06 405.188 1710.72 406.75 1707.78 406.75C1703.87 406.75 1700.78 403.906 1700.78 398.375C1700.78 392.781 1703.87 389.812 1707.81 389.812C1710.81 389.812 1712.06 391.594 1712.69 392.812H1712.87V390.031H1716.81V407.281C1716.81 411.625 1713.47 413.719 1708.87 413.719ZM1708.87 403.625C1711.44 403.625 1712.9 401.688 1712.9 398.438C1712.9 395.219 1711.47 393.062 1708.87 393.062C1706.22 393.062 1704.84 395.344 1704.84 398.438C1704.84 401.562 1706.25 403.625 1708.87 403.625ZM1721.26 407V390.031H1725.14V392.844H1725.33C1725.92 390.906 1727.58 389.781 1729.51 389.781C1729.95 389.781 1730.58 389.812 1730.95 389.875V393.562C1730.61 393.438 1729.76 393.312 1729.11 393.312C1726.89 393.312 1725.26 394.844 1725.26 397V407H1721.26ZM1732.87 402.219C1732.87 398.406 1736.03 397.281 1739.18 397.094C1740.36 397.016 1742.79 396.875 1743.53 396.844V395.5C1743.53 393.812 1742.43 392.844 1740.47 392.844C1738.68 392.844 1737.59 393.656 1737.28 394.875H1733.43C1733.72 392 1736.31 389.812 1740.56 389.812C1743.78 389.812 1747.5 391.125 1747.5 395.656V407H1743.68V404.656H1743.56C1742.81 406.094 1741.22 407.344 1738.56 407.344C1735.31 407.344 1732.87 405.562 1732.87 402.219ZM1736.72 402.188C1736.72 403.656 1737.9 404.406 1739.59 404.406C1742 404.406 1743.56 402.812 1743.56 400.906V399.5L1739.81 399.75C1737.9 399.906 1736.72 400.688 1736.72 402.188ZM1751.89 407V390.031H1755.7V392.906H1755.92C1756.61 390.969 1758.32 389.812 1760.57 389.812C1762.89 389.812 1764.51 390.969 1765.17 392.906H1765.36C1766.11 391.031 1767.98 389.812 1770.45 389.812C1773.54 389.812 1775.73 391.812 1775.73 395.594V407H1771.76V396.219C1771.76 394.094 1770.48 393.156 1768.86 393.156C1766.89 393.156 1765.76 394.5 1765.76 396.406V407H1761.89V396.062C1761.89 394.312 1760.7 393.156 1759.01 393.156C1757.29 393.156 1755.89 394.562 1755.89 396.688V407H1751.89ZM1780.18 407V390.031H1784V392.906H1784.21C1784.9 390.969 1786.62 389.812 1788.87 389.812C1791.18 389.812 1792.81 390.969 1793.46 392.906H1793.65C1794.4 391.031 1796.28 389.812 1798.75 389.812C1801.84 389.812 1804.03 391.812 1804.03 395.594V407H1800.06V396.219C1800.06 394.094 1798.78 393.156 1797.15 393.156C1795.18 393.156 1794.06 394.5 1794.06 396.406V407H1790.18V396.062C1790.18 394.312 1789 393.156 1787.31 393.156C1785.59 393.156 1784.18 394.562 1784.18 396.688V407H1780.18ZM1816.01 407.344C1810.89 407.344 1807.76 403.938 1807.76 398.625C1807.76 393.375 1810.95 389.812 1815.79 389.812C1819.95 389.812 1823.54 392.406 1823.54 398.375V399.625H1811.7C1811.74 402.516 1813.45 404.219 1816.04 404.219C1817.79 404.219 1818.98 403.469 1819.48 402.469H1823.39C1822.67 405.406 1819.95 407.344 1816.01 407.344ZM1811.73 396.906H1819.73C1819.7 394.594 1818.17 392.906 1815.85 392.906C1813.45 392.906 1811.85 394.734 1811.73 396.906ZM1827.28 407V390.031H1831.15V392.844H1831.34C1831.93 390.906 1833.59 389.781 1835.53 389.781C1835.96 389.781 1836.59 389.812 1836.96 389.875V393.562C1836.62 393.438 1835.78 393.312 1835.12 393.312C1832.9 393.312 1831.28 394.844 1831.28 397V407H1827.28Z" fill="#40424D"/>
<path d="M1482.15 511.844V516.742H1485.6V511.844H1488.01V525.953H1479.69V511.844H1482.15ZM1482.15 523.844H1485.6V518.805H1482.15V523.844ZM1497.32 509.898V531.086H1494.81V520.234H1492.56V530.055H1490.1V510.273H1492.56V518.078H1494.81V509.898H1497.32ZM1517.84 510.859V512.945H1511.7C1511.93 514.938 1514.52 516.836 1518.61 517.328L1517.63 519.391C1513.83 518.934 1511.03 517.258 1509.89 514.961C1508.75 517.246 1505.98 518.934 1502.18 519.391L1501.22 517.328C1505.31 516.836 1507.86 514.938 1508.11 512.945H1502.02V510.859H1517.84ZM1519.59 520.562V522.672H1511.41V526.539H1508.84V522.672H1500.23V520.562H1519.59ZM1517.46 528.555V530.664H1502.58V524.594H1505.18V528.555H1517.46ZM1527.48 510.578C1530.69 510.578 1533.08 512.57 1533.11 515.359C1533.08 518.172 1530.69 520.141 1527.48 520.141C1524.25 520.141 1521.86 518.172 1521.86 515.359C1521.86 512.57 1524.25 510.578 1527.48 510.578ZM1527.48 512.734C1525.7 512.734 1524.39 513.742 1524.39 515.359C1524.39 517 1525.7 518.031 1527.48 518.031C1529.26 518.031 1530.57 517 1530.57 515.359C1530.57 513.742 1529.26 512.734 1527.48 512.734ZM1539.13 509.898V520.609H1536.5V509.898H1539.13ZM1539.13 521.523V527.055H1527.67V528.766H1539.76V530.828H1525.11V525.133H1536.53V523.562H1525.07V521.523H1539.13ZM1479.6 552.395H1481.69V563.684C1481.69 565.832 1480.5 566.984 1478.31 566.984C1478.18 566.984 1478.04 566.984 1477.88 566.965V565.188H1478.22C1479.19 565.188 1479.6 564.641 1479.6 563.664V552.395ZM1480.64 550.754C1479.92 550.754 1479.31 550.207 1479.31 549.523C1479.31 548.84 1479.92 548.293 1480.64 548.293C1481.34 548.293 1481.95 548.84 1481.95 549.523C1481.95 550.207 1481.34 550.754 1480.64 550.754ZM1484.63 563V552.395H1486.72V563H1484.63ZM1485.69 550.754C1484.96 550.754 1484.36 550.207 1484.36 549.523C1484.36 548.84 1484.96 548.293 1485.69 548.293C1486.39 548.293 1486.99 548.84 1486.99 549.523C1486.99 550.207 1486.39 550.754 1485.69 550.754ZM1494.56 563.195C1491.28 563.195 1489.37 560.559 1489.37 555.93C1489.37 551.34 1491.32 548.664 1494.56 548.664C1497.8 548.664 1499.76 551.34 1499.76 555.93C1499.76 560.559 1497.82 563.195 1494.56 563.195ZM1494.56 561.34C1496.48 561.34 1497.61 559.465 1497.61 555.93C1497.61 552.414 1496.46 550.48 1494.56 550.48C1492.67 550.48 1491.52 552.414 1491.52 555.93C1491.52 559.465 1492.65 561.34 1494.56 561.34ZM1507.31 563.195C1504.03 563.195 1502.11 560.559 1502.11 555.93C1502.11 551.34 1504.06 548.664 1507.31 548.664C1510.55 548.664 1512.5 551.34 1512.5 555.93C1512.5 560.559 1510.57 563.195 1507.31 563.195ZM1507.31 561.34C1509.22 561.34 1510.35 559.465 1510.35 555.93C1510.35 552.414 1509.2 550.48 1507.31 550.48C1505.41 550.48 1504.26 552.414 1504.26 555.93C1504.26 559.465 1505.39 561.34 1507.31 561.34ZM1519.99 548.664C1522.59 548.684 1525.32 550.246 1525.32 555.422C1525.32 560.383 1523.19 563.195 1519.8 563.195C1517.2 563.195 1515.36 561.594 1515.03 559.289H1517.16C1517.45 560.48 1518.37 561.32 1519.8 561.32C1521.98 561.32 1523.25 559.406 1523.27 556.184H1523.1C1522.34 557.375 1521.01 558.098 1519.48 558.098C1516.94 558.098 1514.91 556.164 1514.91 553.449C1514.91 550.754 1516.93 548.645 1519.99 548.664ZM1519.99 550.461C1518.27 550.461 1517 551.789 1517 553.41C1517 555.051 1518.23 556.34 1519.95 556.34C1521.65 556.34 1522.98 554.953 1522.98 553.391C1522.98 551.867 1521.73 550.461 1519.99 550.461ZM1532.93 563.195C1529.86 563.195 1527.72 561.535 1527.74 559.23C1527.72 557.414 1529.02 555.93 1530.68 555.676V555.598C1529.24 555.266 1528.26 553.977 1528.26 552.434C1528.26 550.266 1530.24 548.664 1532.93 548.664C1535.61 548.664 1537.56 550.266 1537.58 552.434C1537.56 553.977 1536.58 555.266 1535.16 555.598V555.676C1536.8 555.93 1538.11 557.414 1538.13 559.23C1538.11 561.535 1535.96 563.195 1532.93 563.195ZM1532.93 561.418C1534.77 561.418 1535.94 560.461 1535.94 559.074C1535.94 557.609 1534.67 556.555 1532.93 556.555C1531.17 556.555 1529.88 557.609 1529.92 559.074C1529.88 560.461 1531.06 561.418 1532.93 561.418ZM1532.93 554.855C1534.42 554.855 1535.47 553.957 1535.47 552.629C1535.47 551.32 1534.43 550.422 1532.93 550.422C1531.37 550.422 1530.35 551.301 1530.35 552.629C1530.35 553.957 1531.43 554.855 1532.93 554.855ZM1545.87 563.195C1543.25 563.176 1540.52 561.633 1540.52 556.398C1540.52 551.477 1542.65 548.664 1546.05 548.664C1548.64 548.664 1550.46 550.285 1550.79 552.531H1548.66C1548.39 551.379 1547.47 550.539 1546.05 550.539C1543.86 550.539 1542.59 552.453 1542.59 555.637H1542.74C1543.51 554.445 1544.83 553.723 1546.38 553.723C1548.9 553.723 1550.93 555.656 1550.93 558.371C1550.93 561.105 1548.92 563.215 1545.87 563.195ZM1545.85 561.398C1547.57 561.398 1548.84 560.07 1548.84 558.41C1548.84 556.789 1547.61 555.48 1545.91 555.48C1544.17 555.48 1542.86 556.848 1542.84 558.43C1542.86 559.992 1544.11 561.398 1545.85 561.398ZM1558.55 563.195C1555.49 563.195 1553.34 561.535 1553.36 559.23C1553.34 557.414 1554.65 555.93 1556.31 555.676V555.598C1554.86 555.266 1553.89 553.977 1553.89 552.434C1553.89 550.266 1555.86 548.664 1558.55 548.664C1561.23 548.664 1563.18 550.266 1563.2 552.434C1563.18 553.977 1562.21 555.266 1560.78 555.598V555.676C1562.42 555.93 1563.73 557.414 1563.75 559.23C1563.73 561.535 1561.58 563.195 1558.55 563.195ZM1558.55 561.418C1560.39 561.418 1561.56 560.461 1561.56 559.074C1561.56 557.609 1560.29 556.555 1558.55 556.555C1556.8 556.555 1555.51 557.609 1555.55 559.074C1555.51 560.461 1556.68 561.418 1558.55 561.418ZM1558.55 554.855C1560.04 554.855 1561.09 553.957 1561.09 552.629C1561.09 551.32 1560.06 550.422 1558.55 550.422C1556.99 550.422 1555.98 551.301 1555.98 552.629C1555.98 553.957 1557.05 554.855 1558.55 554.855ZM1573.35 561.086C1571.47 561.086 1570.05 559.582 1570.05 557.023C1570.05 554.465 1571.51 552.98 1573.35 552.98C1574.7 552.98 1575.3 553.82 1575.54 554.309H1575.63V553.137H1577.33V558.605C1577.35 559.328 1577.65 559.66 1578.23 559.66C1579.33 559.66 1580.07 558.391 1580.07 556.496C1580.09 552.961 1577.55 550.637 1573.92 550.637C1570.15 550.656 1567.74 553.449 1567.74 557.023C1567.74 560.91 1569.83 563.469 1573.84 563.43C1575.22 563.41 1576.18 563.312 1577.33 563V564.562C1576.3 564.855 1575.13 565.031 1573.84 565.031C1568.99 565.031 1566.1 561.945 1566.1 557.023C1566.1 552.395 1569.35 549.035 1573.92 549.035C1578.54 549.035 1581.71 552.199 1581.71 556.438C1581.71 559.445 1580.19 561.184 1578.1 561.164C1576.84 561.164 1575.88 560.52 1575.73 559.621H1575.63C1575.38 560.109 1574.78 561.086 1573.35 561.086ZM1573.78 559.484C1575.01 559.484 1575.65 558.488 1575.67 557.004C1575.65 555.539 1575.03 554.582 1573.78 554.582C1572.55 554.582 1571.88 555.617 1571.88 557.004C1571.88 558.41 1572.57 559.484 1573.78 559.484ZM1586.44 556.711V563H1584.35V552.395H1586.37V554.133H1586.48C1586.99 553 1588.03 552.258 1589.61 552.258C1591.8 552.258 1593.22 553.625 1593.22 556.262V563H1591.15V556.516C1591.15 554.973 1590.31 554.055 1588.91 554.055C1587.48 554.055 1586.44 555.012 1586.44 556.711ZM1595.67 560.012C1595.67 557.59 1597.72 556.965 1599.64 556.828C1600.34 556.779 1601.93 556.691 1602.43 556.672L1602.41 555.832C1602.41 554.641 1601.69 553.938 1600.26 553.938C1599.03 553.938 1598.29 554.504 1598.08 555.285H1596C1596.2 553.527 1597.84 552.258 1600.34 552.258C1602.02 552.258 1604.5 552.883 1604.5 555.949V563H1602.47V561.555H1602.39C1601.98 562.355 1601 563.234 1599.25 563.234C1597.24 563.234 1595.67 562.082 1595.67 560.012ZM1597.7 560.031C1597.7 561.047 1598.54 561.574 1599.72 561.574C1601.42 561.574 1602.43 560.441 1602.43 559.172V558.195L1599.93 558.371C1598.56 558.469 1597.7 558.977 1597.7 560.031ZM1616.13 552.395L1612.28 563H1610.04L1606.19 552.395H1608.44L1611.11 560.539H1611.21L1613.89 552.395H1616.13ZM1622.43 563.215C1619.3 563.215 1617.39 561.066 1617.39 557.766C1617.39 554.504 1619.34 552.258 1622.29 552.258C1624.72 552.258 1627 553.762 1627 557.59V558.332H1619.46C1619.52 560.344 1620.7 561.496 1622.45 561.496C1623.64 561.496 1624.4 560.988 1624.75 560.344H1626.86C1626.39 562.062 1624.75 563.215 1622.43 563.215ZM1619.48 556.77H1624.95C1624.95 555.148 1623.91 553.977 1622.31 553.977C1620.64 553.977 1619.56 555.266 1619.48 556.77ZM1629.47 563V552.395H1631.48V554.074H1631.6C1631.99 552.941 1633.04 552.238 1634.29 552.238C1634.55 552.238 1634.96 552.258 1635.17 552.277V554.27C1635 554.23 1634.51 554.152 1634.08 554.152C1632.63 554.152 1631.56 555.148 1631.56 556.535V563H1629.47ZM1637.29 563.137C1636.53 563.137 1635.89 562.512 1635.91 561.75C1635.89 560.988 1636.53 560.363 1637.29 560.363C1638.03 560.363 1638.68 560.988 1638.68 561.75C1638.68 562.512 1638.03 563.137 1637.29 563.137ZM1646.09 563.215C1643 563.215 1641.13 560.93 1641.13 557.746C1641.13 554.504 1643.06 552.258 1646.05 552.258C1648.47 552.258 1650.23 553.684 1650.45 555.832H1648.42C1648.2 554.836 1647.4 553.996 1646.09 553.996C1644.37 553.996 1643.22 555.422 1643.22 557.688C1643.22 560.012 1644.35 561.438 1646.09 561.438C1647.26 561.438 1648.16 560.793 1648.42 559.641H1650.45C1650.21 561.691 1648.59 563.215 1646.09 563.215ZM1657.31 563.215C1654.3 563.215 1652.35 561.027 1652.35 557.746C1652.35 554.445 1654.3 552.258 1657.31 552.258C1660.3 552.258 1662.25 554.445 1662.25 557.746C1662.25 561.027 1660.3 563.215 1657.31 563.215ZM1657.31 561.477C1659.23 561.477 1660.14 559.777 1660.14 557.746C1660.14 555.715 1659.23 553.977 1657.31 553.977C1655.36 553.977 1654.44 555.715 1654.44 557.746C1654.44 559.777 1655.36 561.477 1657.31 561.477ZM1664.7 563V552.395H1666.72V554.133H1666.83C1667.28 552.941 1668.32 552.258 1669.72 552.258C1671.13 552.258 1672.13 552.961 1672.57 554.133H1672.69C1673.2 552.98 1674.33 552.258 1675.88 552.258C1677.79 552.258 1679.16 553.469 1679.16 555.891V563H1677.07V556.086C1677.07 554.66 1676.17 554.055 1675.07 554.055C1673.73 554.055 1672.97 554.973 1672.97 556.242V563H1670.89V555.969C1670.89 554.816 1670.09 554.055 1668.96 554.055C1667.79 554.055 1666.79 555.031 1666.79 556.457V563H1664.7Z" fill="#40424D"/>
<path d="M1490.24 604.188C1490.24 609.695 1486.51 613.516 1480.21 615.133L1479.18 613.117C1484.11 611.84 1487 609.344 1487.45 606.25H1480.4V604.188H1490.24ZM1496.68 602.922V614.781H1494.06V602.922H1496.68ZM1496.68 615.695V623.805H1482.69V615.695H1496.68ZM1485.27 617.758V621.742H1494.13V617.758H1485.27ZM1508.25 608.922C1508.25 612.391 1510.29 616.047 1513.71 617.477L1512.28 619.539C1509.77 618.461 1507.95 616.234 1506.98 613.539C1506 616.445 1504.15 618.883 1501.66 620.055L1500.16 618.016C1503.52 616.469 1505.6 612.531 1505.6 608.922V607.141H1500.94V604.984H1512.89V607.141H1508.25V608.922ZM1517.88 602.898V624.086H1515.26V602.898H1517.88ZM1539.22 602.922V619.047H1536.62V614.875H1533.48V612.789H1536.62V610.422H1533.48V608.312H1536.62V602.922H1539.22ZM1533.36 605.266V607.352H1521.53V605.266H1526.26V602.898H1528.86V605.266H1533.36ZM1527.53 608.219C1530.41 608.219 1532.47 609.906 1532.5 612.344C1532.47 614.781 1530.41 616.469 1527.53 616.469C1524.67 616.469 1522.61 614.781 1522.63 612.344C1522.61 609.906 1524.67 608.219 1527.53 608.219ZM1527.53 610.258C1526.07 610.281 1525.04 611.055 1525.07 612.344C1525.04 613.68 1526.07 614.453 1527.53 614.453C1528.98 614.453 1530.04 613.68 1530.04 612.344C1530.04 611.055 1528.98 610.281 1527.53 610.258ZM1539.69 621.555V623.664H1525.25V617.664H1527.9V621.555H1539.69ZM1483.57 656.215C1481.01 656.215 1479.13 654.145 1479.13 650.727C1479.13 647.27 1481.03 645.258 1483.59 645.258C1485.56 645.258 1486.28 646.449 1486.65 647.113H1486.75V641.859H1488.84V656H1486.81V654.34H1486.65C1486.26 655.043 1485.5 656.215 1483.57 656.215ZM1484.04 654.438C1485.81 654.438 1486.81 652.914 1486.81 650.688C1486.81 648.48 1485.83 647.035 1484.04 647.035C1482.18 647.035 1481.26 648.598 1481.26 650.688C1481.26 652.816 1482.22 654.438 1484.04 654.438ZM1491.96 656V645.395H1493.97V647.133H1494.08C1494.53 645.941 1495.57 645.258 1496.98 645.258C1498.38 645.258 1499.38 645.961 1499.83 647.133H1499.94C1500.45 645.98 1501.58 645.258 1503.13 645.258C1505.04 645.258 1506.41 646.469 1506.41 648.891V656H1504.32V649.086C1504.32 647.66 1503.42 647.055 1502.33 647.055C1500.98 647.055 1500.22 647.973 1500.22 649.242V656H1498.15V648.969C1498.15 647.816 1497.35 647.055 1496.21 647.055C1495.04 647.055 1494.05 648.031 1494.05 649.457V656H1491.96ZM1513.29 656.215C1510.73 656.215 1508.86 654.145 1508.86 650.727C1508.86 647.27 1510.75 645.258 1513.31 645.258C1515.29 645.258 1516.01 646.449 1516.38 647.113H1516.48V641.859H1518.57V656H1516.54V654.34H1516.38C1515.99 655.043 1515.23 656.215 1513.29 656.215ZM1513.76 654.438C1515.54 654.438 1516.54 652.914 1516.54 650.688C1516.54 648.48 1515.56 647.035 1513.76 647.035C1511.91 647.035 1510.99 648.598 1510.99 650.688C1510.99 652.816 1511.95 654.438 1513.76 654.438ZM1523.77 649.711V656H1521.68V641.859H1523.73V647.133H1523.87C1524.38 645.98 1525.35 645.258 1527.01 645.258C1529.2 645.258 1530.65 646.605 1530.65 649.262V656H1528.56V649.516C1528.56 647.953 1527.72 647.055 1526.31 647.055C1524.85 647.055 1523.77 648.012 1523.77 649.711ZM1534.46 659.984C1534.03 659.984 1533.62 659.965 1533.35 659.926V658.188C1533.59 658.207 1534 658.227 1534.29 658.227C1534.93 658.227 1535.48 658.168 1535.97 656.84L1536.22 656.137L1532.34 645.395H1534.56L1537.24 653.617H1537.35L1540.03 645.395H1542.28L1537.9 657.406C1537.3 659.086 1536.2 659.984 1534.46 659.984ZM1551.11 651.586V645.395H1553.18V656H1551.15V654.164H1551.04C1550.55 655.297 1549.45 656.137 1547.87 656.137C1545.82 656.137 1544.38 654.77 1544.38 652.133V645.395H1546.47V651.879C1546.47 653.324 1547.34 654.242 1548.61 654.242C1549.77 654.242 1551.11 653.402 1551.11 651.586ZM1558.21 649.711V656H1556.12V645.395H1558.14V647.133H1558.25C1558.76 646 1559.8 645.258 1561.38 645.258C1563.57 645.258 1564.99 646.625 1564.99 649.262V656H1562.92V649.516C1562.92 647.973 1562.08 647.055 1560.67 647.055C1559.25 647.055 1558.21 648.012 1558.21 649.711ZM1572.5 641.859V656H1570.33V644.008H1570.25L1566.88 646.215V644.164L1570.39 641.859H1572.5ZM1576.18 653.246V651.508L1582.43 641.859H1585.09V651.43H1587.02V653.246H1585.09V656H1583.06V653.246H1576.18ZM1578.45 651.43H1583.06V644.418H1582.9L1578.45 651.312V651.43ZM1594.71 656.195C1592.09 656.176 1589.35 654.633 1589.35 649.398C1589.35 644.477 1591.48 641.664 1594.88 641.664C1597.48 641.664 1599.3 643.285 1599.63 645.531H1597.5C1597.23 644.379 1596.31 643.539 1594.88 643.539C1592.69 643.539 1591.43 645.453 1591.43 648.637H1591.58C1592.34 647.445 1593.67 646.723 1595.21 646.723C1597.73 646.723 1599.77 648.656 1599.77 651.371C1599.77 654.105 1597.75 656.215 1594.71 656.195ZM1594.69 654.398C1596.41 654.398 1597.68 653.07 1597.68 651.41C1597.68 649.789 1596.44 648.48 1594.75 648.48C1593.01 648.48 1591.7 649.848 1591.68 651.43C1591.7 652.992 1592.95 654.398 1594.69 654.398ZM1609.42 654.086C1607.55 654.086 1606.12 652.582 1606.12 650.023C1606.12 647.465 1607.59 645.98 1609.42 645.98C1610.77 645.98 1611.38 646.82 1611.61 647.309H1611.71V646.137H1613.41V651.605C1613.43 652.328 1613.72 652.66 1614.31 652.66C1615.4 652.66 1616.14 651.391 1616.14 649.496C1616.16 645.961 1613.62 643.637 1609.99 643.637C1606.22 643.656 1603.82 646.449 1603.82 650.023C1603.82 653.91 1605.91 656.469 1609.91 656.43C1611.3 656.41 1612.25 656.312 1613.41 656V657.562C1612.37 657.855 1611.2 658.031 1609.91 658.031C1605.07 658.031 1602.18 654.945 1602.18 650.023C1602.18 645.395 1605.42 642.035 1609.99 642.035C1614.62 642.035 1617.78 645.199 1617.78 649.438C1617.78 652.445 1616.26 654.184 1614.17 654.164C1612.91 654.164 1611.95 653.52 1611.81 652.621H1611.71C1611.45 653.109 1610.85 654.086 1609.42 654.086ZM1609.85 652.484C1611.08 652.484 1611.73 651.488 1611.75 650.004C1611.73 648.539 1611.1 647.582 1609.85 647.582C1608.62 647.582 1607.96 648.617 1607.96 650.004C1607.96 651.41 1608.64 652.484 1609.85 652.484ZM1624.88 660.199C1622.21 660.199 1620.45 659.008 1620.25 657.035H1622.38C1622.58 658.031 1623.51 658.52 1624.9 658.52C1626.56 658.52 1627.62 657.816 1627.62 656.156V654.066H1627.48C1627.11 654.75 1626.35 655.844 1624.39 655.844C1621.89 655.844 1619.96 653.969 1619.96 650.59C1619.96 647.211 1621.85 645.258 1624.41 645.258C1626.39 645.258 1627.11 646.449 1627.5 647.113H1627.64V645.395H1629.67V656.234C1629.67 658.949 1627.62 660.199 1624.88 660.199ZM1624.86 654.125C1626.64 654.125 1627.64 652.816 1627.64 650.629C1627.64 648.48 1626.66 647.035 1624.86 647.035C1623.01 647.035 1622.09 648.598 1622.09 650.629C1622.09 652.699 1623.05 654.125 1624.86 654.125ZM1632.61 656V645.395H1634.62V647.133H1634.73C1635.18 645.941 1636.22 645.258 1637.63 645.258C1639.03 645.258 1640.03 645.961 1640.48 647.133H1640.59C1641.1 645.98 1642.23 645.258 1643.78 645.258C1645.69 645.258 1647.06 646.469 1647.06 648.891V656H1644.97V649.086C1644.97 647.66 1644.07 647.055 1642.98 647.055C1641.63 647.055 1640.87 647.973 1640.87 649.242V656H1638.8V648.969C1638.8 647.816 1638 647.055 1636.86 647.055C1635.69 647.055 1634.7 648.031 1634.7 649.457V656H1632.61ZM1649.49 653.012C1649.49 650.59 1651.54 649.965 1653.45 649.828C1654.16 649.779 1655.75 649.691 1656.25 649.672L1656.23 648.832C1656.23 647.641 1655.51 646.938 1654.08 646.938C1652.85 646.938 1652.11 647.504 1651.89 648.285H1649.82C1650.02 646.527 1651.66 645.258 1654.16 645.258C1655.84 645.258 1658.32 645.883 1658.32 648.949V656H1656.29V654.555H1656.21C1655.8 655.355 1654.82 656.234 1653.06 656.234C1651.05 656.234 1649.49 655.082 1649.49 653.012ZM1651.52 653.031C1651.52 654.047 1652.36 654.574 1653.53 654.574C1655.23 654.574 1656.25 653.441 1656.25 652.172V651.195L1653.75 651.371C1652.38 651.469 1651.52 651.977 1651.52 653.031ZM1661.24 656V645.395H1663.33V656H1661.24ZM1662.29 643.754C1661.57 643.754 1660.96 643.207 1660.96 642.523C1660.96 641.84 1661.57 641.293 1662.29 641.293C1663 641.293 1663.6 641.84 1663.6 642.523C1663.6 643.207 1663 643.754 1662.29 643.754ZM1668.36 641.859V656H1666.27V641.859H1668.36ZM1672.66 656.137C1671.9 656.137 1671.26 655.512 1671.28 654.75C1671.26 653.988 1671.9 653.363 1672.66 653.363C1673.4 653.363 1674.05 653.988 1674.05 654.75C1674.05 655.512 1673.4 656.137 1672.66 656.137ZM1681.46 656.215C1678.38 656.215 1676.5 653.93 1676.5 650.746C1676.5 647.504 1678.43 645.258 1681.42 645.258C1683.84 645.258 1685.6 646.684 1685.82 648.832H1683.79C1683.57 647.836 1682.77 646.996 1681.46 646.996C1679.74 646.996 1678.59 648.422 1678.59 650.688C1678.59 653.012 1679.72 654.438 1681.46 654.438C1682.63 654.438 1683.53 653.793 1683.79 652.641H1685.82C1685.58 654.691 1683.96 656.215 1681.46 656.215ZM1692.68 656.215C1689.67 656.215 1687.72 654.027 1687.72 650.746C1687.72 647.445 1689.67 645.258 1692.68 645.258C1695.67 645.258 1697.62 647.445 1697.62 650.746C1697.62 654.027 1695.67 656.215 1692.68 656.215ZM1692.68 654.477C1694.6 654.477 1695.51 652.777 1695.51 650.746C1695.51 648.715 1694.6 646.977 1692.68 646.977C1690.73 646.977 1689.81 648.715 1689.81 650.746C1689.81 652.777 1690.73 654.477 1692.68 654.477ZM1700.07 656V645.395H1702.09V647.133H1702.2C1702.65 645.941 1703.69 645.258 1705.09 645.258C1706.5 645.258 1707.5 645.961 1707.94 647.133H1708.06C1708.57 645.98 1709.7 645.258 1711.25 645.258C1713.16 645.258 1714.53 646.469 1714.53 648.891V656H1712.44V649.086C1712.44 647.66 1711.54 647.055 1710.44 647.055C1709.1 647.055 1708.34 647.973 1708.34 649.242V656H1706.27V648.969C1706.27 647.816 1705.46 647.055 1704.33 647.055C1703.16 647.055 1702.16 648.031 1702.16 649.457V656H1700.07Z" fill="#40424D"/>
<path d="M81.5469 384.875V379.062H109.344V384.875H98.9375V413H91.9531V384.875H81.5469ZM122.351 413.516C114.569 413.516 109.788 408.453 109.788 400.391C109.788 392.516 114.616 387.219 122.069 387.219C128.772 387.219 134.022 391.438 134.022 400.109V402.078H116.632C116.632 405.922 118.929 408.312 122.491 408.312C124.835 408.312 126.522 407.281 127.226 405.734H133.835C132.851 410.422 128.632 413.516 122.351 413.516ZM116.632 397.719H127.46C127.46 394.625 125.304 392.422 122.21 392.422C119.022 392.422 116.749 394.789 116.632 397.719ZM138.123 405.875C138.123 400.203 142.717 398.328 147.592 398.047C149.42 397.93 152.842 397.766 153.92 397.719V395.656C153.873 393.547 152.42 392.281 149.842 392.281C147.498 392.281 145.998 393.359 145.623 395.094H139.014C139.436 390.688 143.279 387.219 150.029 387.219C155.561 387.219 160.811 389.703 160.811 395.844V413H154.248V409.484H154.061C152.795 411.828 150.404 413.469 146.607 413.469C141.732 413.469 138.123 410.938 138.123 405.875ZM144.779 405.688C144.779 407.656 146.373 408.688 148.576 408.688C151.717 408.688 153.967 406.578 153.92 403.906V402.031C152.865 402.078 149.912 402.242 148.717 402.359C146.326 402.594 144.779 403.719 144.779 405.688ZM167.067 413V387.547H173.677V392H173.958C175.036 389.047 177.614 387.219 181.036 387.219C184.552 387.219 187.13 389.047 187.974 392H188.208C189.286 389.094 192.146 387.219 195.896 387.219C200.63 387.219 203.911 390.359 203.911 395.891V413H196.974V397.25C196.974 394.344 195.286 392.938 192.989 392.938C190.364 392.938 188.864 394.766 188.864 397.438V413H182.114V397.062C182.114 394.531 180.521 392.938 178.177 392.938C175.833 392.938 174.005 394.812 174.005 397.719V413H167.067ZM214.293 413.422C212.09 413.422 210.309 411.641 210.356 409.484C210.309 407.328 212.09 405.594 214.293 405.594C216.356 405.594 218.184 407.328 218.184 409.484C218.184 411.641 216.356 413.422 214.293 413.422Z" fill="#40424D"/>
<path d="M235.338 413V379.062H248.651C256.385 379.062 260.791 383.797 260.791 390.5C260.791 397.297 256.291 401.938 248.463 401.938H242.369V413H235.338ZM242.369 396.266H247.338C251.51 396.266 253.526 393.922 253.526 390.5C253.526 387.125 251.51 384.828 247.338 384.828H242.369V396.266ZM264.624 413V387.547H271.327V391.953H271.608C272.546 388.812 274.889 387.172 277.749 387.172C278.452 387.172 279.342 387.266 279.952 387.406V393.594C279.296 393.406 277.983 393.219 276.999 393.219C273.858 393.219 271.561 395.422 271.561 398.516V413H264.624ZM293.488 413.516C285.8 413.516 281.019 408.219 281.019 400.344C281.019 392.469 285.8 387.219 293.488 387.219C301.175 387.219 306.003 392.469 306.003 400.344C306.003 408.219 301.175 413.516 293.488 413.516ZM293.534 408.125C297.097 408.125 298.925 404.797 298.925 400.344C298.925 395.844 297.097 392.516 293.534 392.516C289.925 392.516 288.05 395.844 288.05 400.344C288.05 404.797 289.925 408.125 293.534 408.125ZM309.883 387.547H316.82V414.266C316.82 420.125 313.211 422.562 307.258 422.562L305.851 422.516V417.078C306.226 417.078 306.461 417.125 306.789 417.125C309.039 417.125 309.883 416.094 309.883 414.172V387.547ZM313.304 384.219C311.195 384.219 309.508 382.625 309.508 380.703C309.508 378.734 311.195 377.141 313.304 377.141C315.367 377.141 317.054 378.734 317.054 380.703C317.054 382.625 315.367 384.219 313.304 384.219ZM333.262 413.516C325.481 413.516 320.699 408.453 320.699 400.391C320.699 392.516 325.527 387.219 332.981 387.219C339.684 387.219 344.934 391.438 344.934 400.109V402.078H327.543C327.543 405.922 329.84 408.312 333.402 408.312C335.746 408.312 337.434 407.281 338.137 405.734H344.746C343.762 410.422 339.543 413.516 333.262 413.516ZM327.543 397.719H338.371C338.371 394.625 336.215 392.422 333.121 392.422C329.934 392.422 327.66 394.789 327.543 397.719ZM360.251 413.516C352.469 413.516 347.782 408.125 347.782 400.344C347.782 392.562 352.516 387.219 360.251 387.219C366.813 387.219 371.266 391.062 371.547 396.875H365.032C364.61 394.344 362.969 392.609 360.344 392.609C357.016 392.609 354.813 395.422 354.813 400.25C354.813 405.172 356.969 407.984 360.344 407.984C362.782 407.984 364.61 406.484 365.032 403.766H371.547C371.219 409.531 367.001 413.516 360.251 413.516ZM388.786 387.547V392.75H384.005V405.172C384.005 407.188 384.989 407.703 386.396 407.75C387.099 407.75 388.318 407.703 389.161 407.609V413.094C388.411 413.234 387.193 413.328 385.458 413.328C380.443 413.328 377.021 411.078 377.068 406.156V392.75H373.552V387.547H377.068V381.453H384.005V387.547H388.786ZM393.369 413V379.062H400.4V393.125H415.119V379.062H422.197V413H415.119V398.938H400.4V413H393.369ZM431.373 413.422C429.17 413.422 427.389 411.641 427.436 409.484C427.389 407.328 429.17 405.594 431.373 405.594C433.436 405.594 435.264 407.328 435.264 409.484C435.264 411.641 433.436 413.422 431.373 413.422Z" fill="#56AFDF"/>
</svg>
