<svg width="326" height="734" viewBox="0 0 326 734" fill="none" xmlns="http://www.w3.org/2000/svg">
<g clip-path="url(#clip0_4723_3045)">
<rect width="326" height="734" rx="44" fill="white"/>
<rect width="326.4" height="408" fill="url(#paint0_linear_4723_3045)" fill-opacity="0.6"/>
<path d="M28.8417 74.385C28.8417 78.2769 26.1942 80.9831 21.7212 82.1454L21.005 80.7013C24.4978 79.7973 26.5465 78.0245 26.8576 75.8349H21.8562V74.385H28.8417ZM23.4822 88.2738V82.5387H33.3911V88.2738H23.4822ZM25.3078 86.818H31.5831V83.9945H25.3078V86.818ZM31.542 81.893V73.4869H33.3911V81.893H31.542ZM48.8755 73.4751V88.4675H47.1027V73.4751H48.8755ZM36.0844 79.9558C36.0785 76.6568 37.3582 74.6081 39.3247 74.6139C41.1386 74.6081 42.3772 76.3163 42.5885 79.1222H44.0384V73.7334H45.7936V87.7514H44.0384V80.6074H42.6002C42.43 83.5425 41.1738 85.3329 39.3247 85.3329C37.3582 85.3329 36.0785 83.2724 36.0844 79.9558ZM37.7926 79.9558C37.7808 82.3039 38.362 83.5718 39.3247 83.566C40.3109 83.5718 40.9096 82.3039 40.9096 79.9558C40.9096 77.6195 40.3109 76.3456 39.3247 76.3515C38.362 76.3456 37.7808 77.6195 37.7926 79.9558ZM63.45 73.4751V88.5028H61.5891V73.4751H63.45ZM51.4455 79.8619C51.4396 76.6215 53.0891 74.567 55.3667 74.5611C57.615 74.567 59.2704 76.6215 59.2704 79.8619C59.2704 83.1257 57.615 85.1802 55.3667 85.1744C53.0891 85.1802 51.4396 83.1257 51.4455 79.8619ZM53.2241 79.8619C53.2241 82.1689 54.087 83.5073 55.3667 83.5073C56.623 83.5073 57.4859 82.1689 57.4859 79.8619C57.4859 77.5725 56.623 76.2282 55.3667 76.2282C54.087 76.2282 53.2241 77.5725 53.2241 79.8619ZM78.4647 73.4751V88.4675H76.6215V73.4751H78.4647ZM66.1433 84.2117C68.5383 83.155 69.9178 80.6309 69.9178 78.2358V77.4492H66.6187V75.9758H69.906V73.7921H71.7434V75.9758H74.9837V77.4492H71.7493V78.2358C71.7493 80.5193 73.1522 82.9613 75.5707 83.971L74.5669 85.3916C72.8411 84.6637 71.5497 83.1609 70.8629 81.3588C70.1878 83.2724 68.8964 84.875 67.1471 85.6381L66.1433 84.2117ZM93.4971 73.4751V81.9164H91.6715V73.4751H93.4971ZM81.9153 81.0535V74.3439H83.7703V79.5038C86.1183 79.4803 88.1377 79.316 90.2627 78.8581L90.4975 80.3667C88.0966 80.8657 85.8424 81.0418 83.1891 81.0535H81.9153ZM83.5824 88.2738V82.5622H93.4971V88.2738H83.5824ZM85.4022 86.818H91.695V84.018H85.4022V86.818Z" fill="white"/>
<path fill-rule="evenodd" clip-rule="evenodd" d="M33.9004 300.7C34.4527 300.7 34.9004 301.148 34.9004 301.7V302.7H35.9004C37.005 302.7 37.9004 303.596 37.9004 304.7V311.056C38.5224 311.761 38.9004 312.686 38.9004 313.7C38.9004 315.909 37.1095 317.7 34.9004 317.7C33.8863 317.7 32.9609 317.322 32.2559 316.7H23.9004C22.8647 316.7 22.0134 315.913 21.9111 314.904L21.9004 314.7V304.7C21.9004 303.596 22.7958 302.7 23.9004 302.7H24.9004V301.7C24.9004 301.148 25.3481 300.7 25.9004 300.7C26.4527 300.7 26.9004 301.148 26.9004 301.7V302.7H32.9004V301.7C32.9004 301.148 33.3481 300.7 33.9004 300.7ZM36.7549 312.352C36.5632 312.151 36.2523 312.152 36.0605 312.352L34.4316 314.052L33.7295 313.365C33.5316 313.172 33.2204 313.183 33.0352 313.39C32.85 313.596 32.8597 313.922 33.0576 314.115L33.9697 315.006C34.2405 315.27 34.6628 315.262 34.9248 314.988L36.7549 313.077C36.9465 312.877 36.9466 312.552 36.7549 312.352ZM23.9004 314.7H31.0264C30.9441 314.381 30.9004 314.045 30.9004 313.7C30.9004 311.491 32.6913 309.7 34.9004 309.7C35.2457 309.7 35.5808 309.744 35.9004 309.826V308.7H23.9004V314.7Z" fill="#56AFDF"/>
<path d="M64.5129 308.063V308.975H62.898V314.374H61.7927V303.974H62.898V308.063H64.5129ZM55.1811 311.765V304.989H56.2783V310.849C57.7329 310.836 59.245 310.713 60.8928 310.376L61.0202 311.309C59.2409 311.662 57.6014 311.765 56.0358 311.765H55.1811ZM68.6993 304.714C70.3471 304.714 71.5264 305.733 71.5346 307.196C71.5264 308.663 70.3471 309.678 68.6993 309.678C67.0598 309.678 65.8558 308.663 65.864 307.196C65.8558 305.733 67.0598 304.714 68.6993 304.714ZM65.3627 311.247C67.2611 311.251 69.8869 311.231 72.1633 310.902L72.2496 311.707C69.891 312.155 67.3598 312.168 65.4983 312.168L65.3627 311.247ZM66.953 307.196C66.9447 308.116 67.6885 308.72 68.6993 308.72C69.7102 308.72 70.4539 308.116 70.458 307.196C70.4539 306.279 69.7102 305.671 68.6993 305.671C67.6885 305.671 66.9447 306.279 66.953 307.196ZM72.8167 314.407V303.974H73.9179V314.407H72.8167ZM87.3989 304.977V305.996C87.3948 307.286 87.3948 308.724 87.0004 310.861L85.8909 310.738C86.2895 308.724 86.2895 307.249 86.2977 305.996V305.872H79.9738V304.977H87.3989ZM78.9753 312.981V312.069H82.5831V308.395H83.6761V312.069H88.4673V312.981H78.9753ZM99.1544 305.696V306.6H97.6792V307.915H99.1544V308.823H97.6792V310.656H96.5738V303.974H97.6792V305.696H99.1544ZM89.5103 305.967V305.096H92.0661V303.9H93.1633V305.096H95.7068V305.967H89.5103ZM90.0773 308.293C90.0732 307.179 91.0923 306.444 92.6126 306.444C94.1125 306.444 95.1315 307.179 95.1356 308.293C95.1315 309.415 94.1125 310.142 92.6126 310.138C91.0923 310.142 90.0732 309.415 90.0773 308.293ZM90.8991 312.562C90.8909 311.412 92.2017 310.738 94.3508 310.738C96.4752 310.738 97.7942 311.412 97.7942 312.562C97.7942 313.696 96.4752 314.37 94.3508 314.37C92.2017 314.37 90.8909 313.696 90.8991 312.562ZM91.1416 308.293C91.1334 308.917 91.7251 309.299 92.6126 309.299C93.492 309.299 94.0837 308.917 94.0919 308.293C94.0837 307.664 93.492 307.265 92.6126 307.257C91.7251 307.265 91.1334 307.664 91.1416 308.293ZM91.9922 312.562C91.9839 313.17 92.8551 313.532 94.3508 313.524C95.826 313.532 96.693 313.17 96.693 312.562C96.693 311.929 95.826 311.592 94.3508 311.592C92.8551 311.592 91.9839 311.929 91.9922 312.562ZM107.98 310.462C110.129 310.462 111.44 311.177 111.44 312.414C111.44 313.659 110.129 314.378 107.98 314.387C105.814 314.378 104.487 313.659 104.487 312.414C104.487 311.177 105.814 310.462 107.98 310.462ZM103.562 309.456V304.623H104.651V306.127H107.38V304.623H108.473V309.456H103.562ZM104.651 308.576H107.38V306.99H104.651V308.576ZM105.592 312.414C105.584 313.109 106.476 313.507 107.98 313.507C109.48 313.507 110.359 313.109 110.359 312.414C110.359 311.72 109.48 311.334 107.98 311.325C106.476 311.334 105.584 311.72 105.592 312.414ZM110.24 310.195V303.974H111.345V306.526H112.853V307.459H111.345V310.195H110.24ZM123.199 309.238V310.138H119.069V312.155H117.976V310.138H113.67V309.238H123.199ZM114.858 314.173V311.169H115.959V313.269H122.143V314.173H114.858ZM114.895 308.161V304.463H121.966V308.161H114.895ZM115.975 307.29H120.877V305.334H115.975V307.29ZM136.306 303.974V314.387H135.246V303.974H136.306ZM127.468 308.469C127.468 306.218 128.351 304.808 129.707 304.808C130.595 304.808 131.281 305.4 131.659 306.427H133.171V304.175H134.215V313.873H133.171V310.52H131.659C131.285 311.555 130.595 312.151 129.707 312.147C128.351 312.151 127.468 310.734 127.468 308.469ZM128.482 308.469C128.474 310.13 128.939 311.103 129.707 311.095C130.48 311.103 130.964 310.13 130.964 308.469C130.964 306.813 130.475 305.844 129.707 305.844C128.939 305.844 128.474 306.813 128.482 308.469ZM131.889 307.327C131.946 307.676 131.979 308.059 131.979 308.469C131.979 308.876 131.946 309.258 131.893 309.608H133.171V307.327H131.889ZM147.532 305.503V306.403H146.056V307.73H147.532V308.654H146.056V310.146H144.951V303.974H146.056V305.503H147.532ZM138.031 307.064C138.023 305.605 139.207 304.578 140.805 304.582C142.395 304.578 143.566 305.605 143.574 307.064C143.566 308.535 142.395 309.554 140.805 309.554C139.207 309.554 138.023 308.535 138.031 307.064ZM139.112 307.064C139.104 308.005 139.827 308.621 140.805 308.613C141.775 308.621 142.494 308.005 142.502 307.064C142.494 306.135 141.779 305.527 140.805 305.527C139.827 305.527 139.104 306.135 139.112 307.064ZM139.174 311.51V310.61H146.056V314.387H144.951V311.51H139.174ZM159.731 303.982V307.072H161.214V307.989H159.731V310.992H158.629V303.982H159.731ZM151.467 309.838C152.277 309.838 153.214 309.834 154.191 309.809V309.102C153.004 308.975 152.248 308.42 152.256 307.578C152.248 306.624 153.238 306.033 154.73 306.041C156.225 306.033 157.203 306.624 157.212 307.578C157.203 308.412 156.468 308.971 155.293 309.102V309.768C156.225 309.719 157.162 309.645 158.038 309.521L158.124 310.306C155.889 310.701 153.423 310.717 151.59 310.721L151.467 309.838ZM151.734 305.692V304.866H154.191V303.892H155.293V304.866H157.742V305.692H151.734ZM152.766 312.348V311.477H159.731V314.387H158.629V312.348H152.766ZM153.308 307.578C153.304 308.063 153.846 308.387 154.73 308.379C155.613 308.387 156.156 308.063 156.156 307.578C156.156 307.076 155.613 306.789 154.73 306.797C153.846 306.789 153.304 307.076 153.308 307.578ZM170.701 303.982V311.551H169.596V303.982H170.701ZM162.273 307.265C162.273 305.757 163.477 304.689 165.047 304.689C166.617 304.689 167.812 305.757 167.812 307.265C167.812 308.794 166.617 309.858 165.047 309.854C163.477 309.858 162.273 308.794 162.273 307.265ZM163.354 307.265C163.346 308.243 164.077 308.893 165.047 308.893C166 308.893 166.732 308.243 166.732 307.265C166.732 306.304 166 305.651 165.047 305.651C164.077 305.651 163.346 306.304 163.354 307.265ZM163.888 314.173V310.783H164.998V313.269H171.005V314.173H163.888ZM180.698 303.974V308.194H182.366V309.11H180.698V314.387H179.605V303.974H180.698ZM172.529 306.505V305.605H175.097V304.11H176.198V305.605H178.697V306.505H172.529ZM173.063 309.698C173.059 308.276 174.152 307.274 175.656 307.274C177.143 307.274 178.236 308.276 178.241 309.698C178.236 311.124 177.143 312.114 175.656 312.118C174.152 312.114 173.059 311.124 173.063 309.698ZM174.119 309.698C174.111 310.598 174.764 311.202 175.656 311.198C176.535 311.202 177.18 310.598 177.189 309.698C177.18 308.802 176.535 308.186 175.656 308.186C174.764 308.186 174.111 308.802 174.119 309.698ZM191.763 303.974V314.387H190.653V303.974H191.763ZM183.208 311.596C185.977 310.282 187.325 308.404 187.543 305.975H183.713V305.096H188.669C188.661 308.141 187.366 310.783 183.791 312.488L183.208 311.596Z" fill="#0A0F15"/>
<path fill-rule="evenodd" clip-rule="evenodd" d="M34.6504 344.9C35.2372 344.9 35.7129 345.376 35.7129 345.963V347.025H36.7754C37.949 347.025 38.9004 347.977 38.9004 349.15V359.775C38.9004 360.949 37.949 361.9 36.7754 361.9H24.0254C22.925 361.9 22.0205 361.064 21.9118 359.992L21.9004 359.775V349.15C21.9004 347.977 22.8518 347.025 24.0254 347.025H25.0879V345.963C25.0879 345.376 25.5636 344.9 26.1504 344.9C26.7372 344.9 27.2129 345.376 27.2129 345.963V347.025H33.5879V345.963C33.5879 345.376 34.0636 344.9 34.6504 344.9ZM24.0254 359.775H36.7754V353.4H24.0254V359.775Z" fill="#56AFDF"/>
<path d="M59.4258 348.762C59.4258 351.256 58.1767 353.035 55.3701 354.083L54.8853 353.307C56.2331 352.818 57.1535 352.168 57.7041 351.371L55.0168 351.667L54.8565 350.767L58.1274 350.57C58.2342 350.278 58.3041 349.974 58.341 349.658H55.3332V348.762H59.4258ZM56.6768 354.926V354.054H63.6582V356.606H57.7904V357.584H64.0568V358.455H56.6974V355.788H62.5775V354.926H56.6768ZM60.3093 353.549V348.376H61.3571V350.492H62.6145V348.182H63.6582V353.619H62.6145V351.392H61.3571V353.549H60.3093ZM73.9302 348.182V355.846H72.8413V348.182H73.9302ZM65.8353 349.793V348.902H70.6183V352.012H66.9324V353.508C68.8514 353.504 70.154 353.446 71.6949 353.167L71.814 354.067C70.1745 354.354 68.7897 354.412 66.7229 354.416H65.8558V351.17H69.5253V349.793H65.8353ZM67.0434 358.373V355.238H68.1528V357.469H74.2261V358.373H67.0434ZM81.1122 349.144V350.056H77.4551V355.131C79.2097 355.123 80.3972 355.061 81.7697 354.802L81.8929 355.706C80.3972 355.99 79.1316 356.051 77.1592 356.051H76.3415V349.144H81.1122ZM80.5287 352.809V351.897H83.4215V348.174H84.5228V358.607H83.4215V352.809H80.5287ZM98.1764 348.182V355.85H97.0751V353.155H94.4823C93.9933 353.738 93.2372 354.091 92.3743 354.091C90.8087 354.091 89.6417 352.994 89.65 351.462C89.6417 349.925 90.8087 348.828 92.3743 348.819C93.2331 348.824 93.9851 349.177 94.4782 349.756H97.0751V348.182H98.1764ZM90.6978 351.462C90.6978 352.448 91.3963 353.118 92.3743 353.118C93.3153 353.118 94.0303 352.448 94.0303 351.462C94.0303 350.479 93.3153 349.81 92.3743 349.801C91.3963 349.81 90.6978 350.479 90.6978 351.462ZM91.4169 358.373V355.061H92.5181V357.469H98.4517V358.373H91.4169ZM94.9672 350.656C95.0411 350.907 95.0863 351.178 95.0863 351.462C95.0863 351.741 95.0452 352.004 94.9713 352.251H97.0751V350.656H94.9672ZM108.699 348.174V353.475H107.598V352.477H104.952V351.618H107.598V350.484H105.091C104.442 352.098 102.872 353.171 100.563 353.705L100.177 352.801C102.679 352.246 104.027 351.092 104.204 349.559H100.727V348.659H105.424C105.424 348.996 105.395 349.317 105.338 349.621H107.598V348.174H108.699ZM101.89 354.794V353.911H108.699V356.553H103.008V357.596H109.011V358.488H101.911V355.723H107.594V354.794H101.89ZM118.655 348.174V352.394H120.323V353.311H118.655V358.587H117.562V348.174H118.655ZM110.486 350.705V349.806H113.054V348.31H114.155V349.806H116.654V350.705H110.486ZM111.02 353.898C111.016 352.477 112.109 351.474 113.613 351.474C115.1 351.474 116.193 352.477 116.197 353.898C116.193 355.324 115.1 356.314 113.613 356.319C112.109 356.314 111.016 355.324 111.02 353.898ZM112.076 353.898C112.068 354.798 112.721 355.402 113.613 355.398C114.492 355.402 115.137 354.798 115.145 353.898C115.137 353.002 114.492 352.386 113.613 352.386C112.721 352.386 112.068 353.002 112.076 353.898ZM129.49 349.177V350.196C129.486 351.486 129.486 352.924 129.091 355.061L127.982 354.938C128.38 352.924 128.38 351.449 128.388 350.196V350.073H122.064V349.177H129.49ZM121.066 357.181V356.269H124.674V352.596H125.767V356.269H130.558V357.181H121.066ZM143.156 349.177V350.196C143.151 351.486 143.151 352.924 142.757 355.061L141.648 354.938C142.046 352.924 142.046 351.449 142.054 350.196V350.073H135.73V349.177H143.156ZM134.732 357.181V356.269H138.34V352.596H139.433V356.269H144.224V357.181H134.732ZM154.911 349.896V350.8H153.436V352.115H154.911V353.023H153.436V354.856H152.33V348.174H153.436V349.896H154.911ZM145.267 350.167V349.296H147.823V348.1H148.92V349.296H151.463V350.167H145.267ZM145.834 352.493C145.83 351.379 146.849 350.644 148.369 350.644C149.869 350.644 150.888 351.379 150.892 352.493C150.888 353.615 149.869 354.342 148.369 354.338C146.849 354.342 145.83 353.615 145.834 352.493ZM146.656 356.762C146.648 355.612 147.958 354.938 150.107 354.938C152.232 354.938 153.551 355.612 153.551 356.762C153.551 357.896 152.232 358.57 150.107 358.57C147.958 358.57 146.648 357.896 146.656 356.762ZM146.898 352.493C146.89 353.118 147.482 353.5 148.369 353.5C149.249 353.5 149.84 353.118 149.849 352.493C149.84 351.864 149.249 351.466 148.369 351.457C147.482 351.466 146.89 351.864 146.898 352.493ZM147.749 356.762C147.741 357.37 148.612 357.732 150.107 357.724C151.583 357.732 152.45 357.37 152.45 356.762C152.45 356.13 151.583 355.793 150.107 355.793C148.612 355.793 147.741 356.13 147.749 356.762ZM168.45 356.401V357.313H158.92V356.401H163.128V354.132H164.213V356.401H168.45ZM159.377 353.635C161.522 353.323 163.058 352.111 163.116 350.652H159.783V349.752H163.128V348.367H164.213V349.752H167.562V350.652H164.234C164.283 352.111 165.816 353.323 167.956 353.635L167.541 354.494C165.799 354.223 164.349 353.401 163.671 352.185C162.993 353.401 161.546 354.223 159.804 354.494L159.377 353.635ZM178.372 348.174V358.587H177.324V353.204H175.977V358.053H174.958V348.388H175.977V352.304H177.324V348.174H178.372ZM169.792 356.084V349.428H173.688V350.323H170.898V355.152C172.176 355.139 173.137 355.082 174.247 354.868L174.337 355.78C173.08 356.039 172.003 356.076 170.483 356.084H169.792ZM188.147 348.174V350.64H189.655V351.556H188.147V354.256H187.042V348.174H188.147ZM180.364 353.652V348.77H181.453V350.278H184.182V348.77H185.275V353.652H180.364ZM181.453 352.772H184.182V351.149H181.453V352.772ZM181.511 358.443V354.798H188.221V355.678H182.616V357.559H188.418V358.443H181.511ZM199.142 348.174V358.587H198.033V348.174H199.142ZM190.587 355.797C193.357 354.482 194.704 352.604 194.922 350.175H191.093V349.296H196.048C196.04 352.341 194.746 354.983 191.171 356.688L190.587 355.797Z" fill="#0A0F15"/>
<path d="M24.0477 393.309C24.514 392.536 25.5469 392.271 26.3546 392.717L27.817 393.524C28.6247 393.971 28.9019 394.959 28.4356 395.732L28.036 396.392C27.7901 396.8 27.9383 397.322 28.3663 397.559L32.6657 399.933C33.0937 400.17 33.6402 400.031 33.8863 399.624L34.2858 398.962C34.7522 398.19 35.785 397.925 36.5928 398.371L38.0551 399.179C38.8628 399.625 39.1398 400.613 38.6737 401.385L37.8291 402.785C36.8963 404.33 34.8306 404.859 33.2151 403.967L24.4393 399.121C22.8239 398.229 22.2704 396.253 23.203 394.707L24.0477 393.309Z" fill="#56AFDF"/>
<path fill-rule="evenodd" clip-rule="evenodd" d="M38.0025 390.8C38.498 390.8 38.8997 391.181 38.8997 391.65V394.2C38.8997 394.67 38.498 395.05 38.0025 395.05H31.722L30.8248 395.9V391.65C30.8248 391.181 31.2265 390.8 31.722 390.8H38.0025ZM33.0679 392.5C32.8201 392.5 32.6193 392.691 32.6193 392.925C32.6193 393.16 32.8201 393.35 33.0679 393.35C33.3156 393.35 33.5165 393.16 33.5165 392.925C33.5165 392.691 33.3156 392.5 33.0679 392.5ZM34.8623 392.5C34.6145 392.5 34.4137 392.691 34.4137 392.925C34.4137 393.16 34.6145 393.35 34.8623 393.35C35.11 393.35 35.3109 393.16 35.3109 392.925C35.3109 392.691 35.11 392.5 34.8623 392.5ZM36.6567 392.5C36.4089 392.5 36.2081 392.691 36.2081 392.925C36.2081 393.16 36.4089 393.35 36.6567 393.35C36.9044 393.35 37.1053 393.16 37.1053 392.925C37.1053 392.691 36.9044 392.5 36.6567 392.5Z" fill="#56AFDF"/>
<path d="M58.3369 393.385V401.8H57.0549V394.667H57.0056L54.9962 395.978V394.757L57.0878 393.385H58.3369ZM63.6994 401.915C61.9613 401.915 60.7203 400.978 60.6751 399.602H61.9695C62.0147 400.342 62.7502 400.814 63.6871 400.814C64.7062 400.814 65.4458 400.259 65.4417 399.446C65.4458 398.612 64.7555 398.016 63.5474 398.016H62.8324V396.972H63.5474C64.5089 396.972 65.1787 396.438 65.1787 395.633C65.1787 394.86 64.6034 394.342 63.7159 394.342C62.8694 394.342 62.1174 394.811 62.0846 395.571H60.8518C60.8929 394.203 62.1544 393.27 63.7282 393.27C65.3801 393.27 66.4238 394.318 66.4156 395.567C66.4238 396.516 65.8321 397.206 64.9281 397.424V397.49C66.0704 397.65 66.7402 398.423 66.732 399.491C66.7402 400.892 65.4458 401.915 63.6994 401.915ZM71.4208 401.915C69.8676 401.903 68.2404 400.983 68.2445 397.872C68.2445 394.942 69.5142 393.27 71.5277 393.27C73.0809 393.27 74.1575 394.235 74.3548 395.571H73.0933C72.9207 394.885 72.3783 394.387 71.5277 394.387C70.2292 394.387 69.4731 395.522 69.4731 397.424H69.5676C70.0196 396.705 70.8127 396.286 71.729 396.286C73.2289 396.286 74.4369 397.436 74.4369 399.047C74.4369 400.674 73.233 401.928 71.4208 401.915ZM69.6293 399.084C69.6293 400.013 70.3771 400.843 71.4167 400.843C72.4317 400.843 73.1919 400.054 73.196 399.068C73.1919 398.106 72.4563 397.321 71.4414 397.321C70.4182 397.321 69.6375 398.143 69.6293 399.084ZM78.8964 401.915C77.298 401.915 76.1022 400.946 76.0488 399.602H77.2939C77.3555 400.321 78.0417 400.843 78.8964 400.843C79.9155 400.843 80.6469 400.107 80.6469 399.105C80.6469 398.082 79.8908 397.338 78.8389 397.33C78.1568 397.325 77.6431 397.551 77.3514 398.069H76.1474L76.698 393.385H81.4646V394.482H77.7582L77.4706 396.832H77.5527C77.9061 396.504 78.4937 396.274 79.1347 396.274C80.7209 396.274 81.892 397.445 81.8879 399.076C81.892 400.728 80.6428 401.915 78.8964 401.915ZM86.2566 393.031C87.855 393.04 89.0467 394.05 89.0549 395.513C89.0467 396.804 88.1221 397.74 86.8113 397.946V399.594C87.7318 399.553 88.6563 399.483 89.5192 399.368L89.5973 400.194C87.3989 400.58 84.9787 400.596 83.1665 400.576L82.9981 399.668C83.8076 399.664 84.7403 399.659 85.7101 399.635V397.946C84.3623 397.749 83.4419 396.812 83.4501 395.513C83.4419 394.05 84.6171 393.04 86.2566 393.031ZM84.5267 395.513C84.5184 396.438 85.254 397.054 86.2566 397.046C87.2387 397.054 87.966 396.438 87.9742 395.513C87.966 394.585 87.2387 393.981 86.2566 393.972C85.254 393.981 84.5184 394.585 84.5267 395.513ZM90.1479 402.786V392.374H91.2492V396.602H92.8517V397.535H91.2492V402.786H90.1479ZM106.288 397.531V398.427H96.7955V397.531H100.987V396.516H98.0365V392.653H99.1336V393.738H103.958V392.653H105.055V396.516H102.084V397.531H106.288ZM97.9255 400.941C97.9255 399.766 99.2651 399.105 101.529 399.105C103.773 399.105 105.125 399.766 105.133 400.941C105.125 402.121 103.773 402.77 101.529 402.77C99.2651 402.77 97.9255 402.121 97.9255 400.941ZM99.035 400.941C99.035 401.578 99.939 401.928 101.529 401.919C103.103 401.928 104.011 401.578 104.011 400.941C104.011 400.296 103.103 399.959 101.529 399.955C99.939 399.959 99.035 400.296 99.035 400.941ZM99.1336 395.645H103.958V394.589H99.1336V395.645ZM110.926 395.024C110.918 396.865 111.994 398.751 113.539 399.507L112.861 400.391C111.723 399.803 110.844 398.636 110.388 397.247C109.923 398.727 109.011 399.972 107.828 400.588L107.141 399.701C108.74 398.928 109.821 396.935 109.829 395.024V393.241H110.926V395.024ZM114.324 402.786V392.374H115.43V396.528H117.098V397.469H115.43V402.786H114.324ZM129.663 392.374V398.571H128.561V395.937H126.618V395.028H128.561V392.374H129.663ZM120.988 397.634C122.599 397.067 123.589 395.661 123.589 394.223V393.993H121.329V393.093H126.951V393.993H124.707V394.215C124.707 395.534 125.648 396.816 127.218 397.346L126.655 398.225C125.484 397.819 124.625 396.984 124.173 395.957C123.717 397.12 122.804 398.053 121.559 398.509L120.988 397.634ZM122.657 400.826C122.648 399.585 123.988 398.862 126.174 398.862C128.356 398.862 129.691 399.585 129.695 400.826C129.691 402.063 128.356 402.778 126.174 402.786C123.988 402.778 122.648 402.063 122.657 400.826ZM123.75 400.826C123.741 401.525 124.649 401.928 126.174 401.919C127.694 401.928 128.598 401.525 128.602 400.826C128.598 400.12 127.694 399.717 126.174 399.717C124.649 399.717 123.741 400.12 123.75 400.826ZM141.036 400.584V401.496H131.507V400.584H135.698V398.447H132.592V393.085H133.697V394.881H138.809V393.085H139.906V398.447H136.791V400.584H141.036ZM133.697 397.551H138.809V395.768H133.697V397.551ZM153.851 392.382V400.05H152.75V397.354H150.157C149.668 397.938 148.912 398.291 148.049 398.291C146.484 398.291 145.317 397.194 145.325 395.661C145.317 394.124 146.484 393.027 148.049 393.019C148.908 393.023 149.66 393.377 150.153 393.956H152.75V392.382H153.851ZM146.373 395.661C146.373 396.647 147.071 397.317 148.049 397.317C148.99 397.317 149.705 396.647 149.705 395.661C149.705 394.679 148.99 394.009 148.049 394.001C147.071 394.009 146.373 394.679 146.373 395.661ZM147.092 402.573V399.261H148.193V401.669H154.126V402.573H147.092ZM150.642 394.856C150.716 395.107 150.761 395.378 150.761 395.661C150.761 395.941 150.72 396.204 150.646 396.45H152.75V394.856H150.642ZM164.374 392.374V397.675H163.273V396.676H160.626V395.817H163.273V394.683H160.766C160.117 396.298 158.547 397.371 156.238 397.905L155.852 397.001C158.354 396.446 159.702 395.291 159.878 393.759H156.402V392.859H161.099C161.099 393.196 161.07 393.516 161.013 393.82H163.273V392.374H164.374ZM157.565 398.994V398.11H164.374V400.752H158.683V401.796H164.686V402.688H157.586V399.922H163.269V398.994H157.565ZM174.329 392.374V396.594H175.998V397.51H174.329V402.786H173.236V392.374H174.329ZM166.161 394.905V394.005H168.729V392.51H169.83V394.005H172.328V394.905H166.161ZM166.695 398.098C166.691 396.676 167.784 395.674 169.288 395.674C170.775 395.674 171.868 396.676 171.872 398.098C171.868 399.524 170.775 400.514 169.288 400.518C167.784 400.514 166.691 399.524 166.695 398.098ZM167.751 398.098C167.743 398.998 168.396 399.602 169.288 399.598C170.167 399.602 170.812 398.998 170.82 398.098C170.812 397.202 170.167 396.586 169.288 396.586C168.396 396.586 167.743 397.202 167.751 398.098ZM185.395 392.374V402.786H184.285V392.374H185.395ZM176.839 399.996C179.609 398.681 180.957 396.804 181.174 394.375H177.345V393.496H182.3C182.292 396.541 180.998 399.183 177.423 400.888L176.839 399.996Z" fill="#0A0F15"/>
<path d="M22.9266 444.874C27.6313 442.193 33.1695 442.193 37.8742 444.874C38.5029 445.232 38.9003 445.964 38.9004 446.765V450.3H21.9004V446.765C21.9005 445.964 22.2979 445.232 22.9266 444.874Z" fill="#56AFDF"/>
<path d="M30.4004 433.3C32.7476 433.3 34.6504 435.203 34.6504 437.55C34.6504 439.898 32.7476 441.8 30.4004 441.8C28.0532 441.8 26.1504 439.898 26.1504 437.55C26.1504 435.203 28.0532 433.3 30.4004 433.3Z" fill="#56AFDF"/>
<path d="M63.7034 436.574V446.987H62.6351V441.587H61.353V446.485H60.3216V436.854H61.353V440.687H62.6351V436.574H63.7034ZM54.7456 444.008C57.0672 442.693 58.037 440.922 58.2054 438.801H55.1893V437.901H59.282C59.2738 440.638 58.3657 443.099 55.3866 444.784L54.7456 444.008ZM73.9467 436.582V444.151H72.8413V436.582H73.9467ZM65.5189 439.866C65.5189 438.358 66.7229 437.289 68.2925 437.289C69.8622 437.289 71.058 438.358 71.058 439.866C71.058 441.394 69.8622 442.458 68.2925 442.454C66.7229 442.458 65.5189 441.394 65.5189 439.866ZM66.5996 439.866C66.5914 440.844 67.3228 441.493 68.2925 441.493C69.2458 441.493 69.9773 440.844 69.9773 439.866C69.9773 438.904 69.2458 438.251 68.2925 438.251C67.3228 438.251 66.5914 438.904 66.5996 439.866ZM67.1338 446.773V443.383H68.2432V445.869H74.2508V446.773H67.1338ZM87.6537 436.574V442.771H86.5525V440.137H84.6089V439.229H86.5525V436.574H87.6537ZM78.9794 441.834C80.5901 441.267 81.5804 439.861 81.5804 438.423V438.193H79.3204V437.293H84.9417V438.193H82.6981V438.415C82.6981 439.734 83.6391 441.016 85.2088 441.546L84.6458 442.426C83.4747 442.019 82.6159 441.185 82.1639 440.157C81.7078 441.32 80.7956 442.253 79.5505 442.709L78.9794 441.834ZM80.6477 445.027C80.6395 443.786 81.979 443.062 84.1651 443.062C86.347 443.062 87.6825 443.786 87.6866 445.027C87.6825 446.263 86.347 446.978 84.1651 446.987C81.979 446.978 80.6395 446.263 80.6477 445.027ZM81.7407 445.027C81.7325 445.725 82.6406 446.128 84.1651 446.12C85.6854 446.128 86.5895 445.725 86.5936 445.027C86.5895 444.32 85.6854 443.917 84.1651 443.917C82.6406 443.917 81.7325 444.32 81.7407 445.027ZM99.027 444.784V445.696H89.4979V444.784H93.6892V442.647H90.5827V437.285H91.6881V439.081H96.7998V437.285H97.897V442.647H94.7823V444.784H99.027ZM91.6881 441.752H96.7998V439.968H91.6881V441.752ZM111.842 436.582V444.279H110.741V441.571H108.465V442.545H103.657V437.269H104.762V439.036H107.372V437.269H108.465V438.44H110.741V436.582H111.842ZM104.762 441.657H107.372V439.89H104.762V441.657ZM105.042 446.773V443.523H106.155V445.869H112.077V446.773H105.042ZM108.465 440.671H110.741V439.34H108.465V440.671ZM122.365 436.582V442.754H121.264V441.476H118.638V440.572H121.264V439.307H118.745C118.071 440.979 116.51 442.163 114.254 442.812L113.81 441.941C116.283 441.238 117.718 439.911 117.911 438.234H114.348V437.33H119.111C119.111 437.717 119.074 438.082 119.004 438.431H121.264V436.582H122.365ZM115.425 444.895C115.425 443.634 116.801 442.865 118.938 442.865C121.046 442.865 122.427 443.634 122.431 444.895C122.427 446.161 121.046 446.937 118.938 446.937C116.801 446.937 115.425 446.161 115.425 444.895ZM116.522 444.895C116.522 445.631 117.45 446.054 118.938 446.054C120.397 446.054 121.325 445.631 121.329 444.895C121.325 444.155 120.397 443.732 118.938 443.736C117.45 443.732 116.522 444.155 116.522 444.895Z" fill="#0A0F15"/>
<path d="M30.6006 478.55C31.4688 478.55 32.3284 478.725 33.1305 479.063C33.9326 479.402 34.6619 479.898 35.2758 480.524C35.8897 481.151 36.3759 481.895 36.7081 482.713C36.7951 482.927 36.8703 483.145 36.935 483.366H37.2117C38.2549 483.366 39.1006 484.229 39.1006 485.293V487.22C39.1006 488.284 38.2549 489.146 37.2117 489.146H36.0441C35.7556 489.712 35.3855 490.232 34.9419 490.685C34.3718 491.266 33.6945 491.726 32.9497 492.041C32.2049 492.356 31.4068 492.518 30.6006 492.518C30.5597 492.518 30.5204 492.511 30.4825 492.501C30.3217 492.798 30.0123 493 29.6561 493H28.7117C28.1901 493 27.7673 492.569 27.7673 492.036C27.7673 491.504 28.1901 491.073 28.7117 491.073H29.6561C30.0121 491.073 30.3215 491.274 30.4825 491.571C30.5203 491.561 30.5598 491.555 30.6006 491.555C31.2827 491.555 31.958 491.417 32.5882 491.151C33.2184 490.885 33.7909 490.495 34.2732 490.003C34.711 489.556 35.0656 489.033 35.3228 488.46V485.293C35.3228 484.661 35.2004 484.035 34.9631 483.45C34.7258 482.866 34.3778 482.335 33.9393 481.888C33.5008 481.44 32.9803 481.085 32.4074 480.843C31.8345 480.601 31.2207 480.476 30.6006 480.476C29.9805 480.476 29.3667 480.601 28.7938 480.843C28.2209 481.085 27.7003 481.44 27.2618 481.888C26.8233 482.335 26.4754 482.866 26.2381 483.45C26.0008 484.035 25.8784 484.661 25.8784 485.293V489.146H23.9895C22.9463 489.146 22.1006 488.284 22.1006 487.22V485.293C22.1006 484.229 22.9463 483.366 23.9895 483.366H24.2662C24.3309 483.145 24.4061 482.927 24.4931 482.713C24.8253 481.895 25.3115 481.151 25.9254 480.524C26.5393 479.898 27.2686 479.402 28.0707 479.063C28.8728 478.725 29.7324 478.55 30.6006 478.55Z" fill="#56AFDF"/>
<path d="M63.2103 481.777V482.796C63.2062 484.086 63.2062 485.524 62.8118 487.661L61.7023 487.537C62.1009 485.524 62.1009 484.049 62.1091 482.796V482.672H55.7852V481.777H63.2103ZM54.7866 489.781V488.869H58.3945V485.195H59.4875V488.869H64.2787V489.781H54.7866ZM74.1809 480.782V486.905H73.1372V484.238H71.8798V486.847H70.832V480.975H71.8798V483.326H73.1372V480.782H74.1809ZM65.3052 486.181C67.405 485.356 68.5473 484.065 68.7363 482.426H65.7572V481.526H69.8622C69.8622 484.061 68.5062 485.902 65.8394 487.007L65.3052 486.181ZM67.0762 488.257V487.361H74.1809V491.186H73.092V488.257H67.0762ZM87.8468 480.774V488.581H86.8031V480.774H87.8468ZM78.9506 486.284C80.3189 485.631 81.0545 484.217 81.0586 482.98V481.497H82.1228V482.98C82.1228 484.201 82.8008 485.434 84.1281 486.013L83.5117 486.872C82.5913 486.449 81.9544 485.697 81.601 484.801C81.2271 485.799 80.5408 486.666 79.5711 487.131L78.9506 486.284ZM80.9435 490.973V487.632H82.0448V490.069H88.1509V490.973H80.9435ZM83.2076 484.238V483.33H84.728V480.967H85.78V488.277H84.728V484.238H83.2076ZM98.1805 480.774V491.207H97.0875V485.524H95.0124V484.624H97.0875V480.774H98.1805ZM89.9746 488.746V481.698H94.8398V482.602H91.084V484.624H94.4042V485.503H91.084V487.833C92.8263 487.829 94.0344 487.776 95.4192 487.537L95.5383 488.437C94.0221 488.68 92.7154 488.741 90.78 488.746H89.9746Z" fill="#0A0F15"/>
<path d="M20.4004 120.7C20.4004 115.067 24.9671 110.5 30.6004 110.5H295.8C301.434 110.5 306 115.067 306 120.7V178.1C306 183.733 301.434 188.3 295.8 188.3H30.6004C24.9671 188.3 20.4004 183.733 20.4004 178.1V120.7Z" fill="white"/>
<path d="M45.374 137.668V138.889H34.3992V137.668H39.1282V135.709H35.7V131.784H42.6127V130.29H35.6812V129.097H44.0732V132.953H37.1746V134.503H44.3503V135.709H40.5934V137.668H45.374ZM52.6897 128.82C52.6803 131.981 51.0367 133.92 47.2187 134.85L46.6881 133.718C48.482 133.305 49.6325 132.676 50.3182 131.887L46.9229 132.136L46.7021 131.009L50.9287 130.849C51.0273 130.572 51.093 130.276 51.1212 129.971H47.3126V128.82H52.6897ZM48.5712 136.024V134.878H56.4795V138.001H50.0411V138.964H56.7894V140.133H48.59V136.926H55.0143V136.024H48.5712ZM52.7226 132.164V130.962H55.0049V128.28H56.4795V134.404H55.0049V132.164H52.7226ZM72.9252 137.649V138.889H61.9503V137.649H66.6652V135.287H62.8849V134.127H64.5849V130.53H62.8473V129.342H71.9672V130.53H70.2061V134.127H71.9202V135.287H68.1257V137.649H72.9252ZM66.0547 134.127H68.7503V130.53H66.0547V134.127ZM83.9696 128.29V136.963H82.4903V128.29H83.9696ZM74.1923 132.075C74.1876 130.328 75.6011 129.079 77.4279 129.079C79.2547 129.079 80.6588 130.328 80.6588 132.075C80.6588 133.85 79.2547 135.09 77.4279 135.085C75.6011 135.09 74.1876 133.85 74.1923 132.075ZM75.634 132.075C75.6293 133.141 76.3994 133.798 77.4279 133.798C78.4282 133.798 79.2077 133.141 79.2077 132.075C79.2077 131.037 78.4282 130.365 77.4279 130.365C76.3994 130.365 75.6293 131.037 75.634 132.075ZM76.0284 140.049V136.08H77.5171V138.851H84.3077V140.049H76.0284ZM95.7607 134.573V135.742H87.3405V129.219H95.6527V130.417H88.8386V131.854H95.3803V133.023H88.8386V134.573H95.7607ZM86.0021 138.823V137.616H96.977V138.823H86.0021Z" fill="#0A0F15"/>
<path d="M38.2124 159.751C40.0909 159.76 41.9599 160.887 41.9646 164.395C41.9646 167.715 40.4666 169.631 38.1091 169.631C36.2494 169.631 34.9674 168.476 34.7561 166.889H36.4655C36.6439 167.645 37.2309 168.133 38.1091 168.133C39.4992 168.133 40.2787 166.903 40.2881 164.841H40.1848C39.7011 165.673 38.776 166.17 37.724 166.17C36.0006 166.17 34.6715 164.865 34.6669 163.048C34.6622 161.164 36.0804 159.741 38.2124 159.751ZM36.3481 163.005C36.3528 164.038 37.1182 164.851 38.1983 164.851C39.2644 164.851 40.0909 163.987 40.0862 162.996C40.0815 162.014 39.2972 161.15 38.2218 161.15C37.1417 161.15 36.3387 161.977 36.3481 163.005ZM47.1658 169.631C45.0244 169.631 43.5075 168.49 43.5169 166.922C43.5075 165.706 44.4186 164.705 45.5738 164.527V164.466C44.5642 164.254 43.8785 163.381 43.8785 162.329C43.8785 160.84 45.2686 159.751 47.1658 159.751C49.0584 159.751 50.4484 160.84 50.4531 162.329C50.4484 163.381 49.744 164.254 48.7531 164.466V164.527C49.899 164.705 50.8147 165.706 50.8194 166.922C50.8147 168.49 49.2932 169.631 47.1658 169.631ZM45.3015 166.8C45.2874 167.683 46.0247 168.298 47.1658 168.298C48.3023 168.298 49.0349 167.683 49.0349 166.8C49.0349 165.889 48.2459 165.217 47.1658 165.217C46.081 165.217 45.2874 165.884 45.3015 166.8ZM45.5691 162.493C45.5691 163.329 46.2313 163.907 47.1658 163.907C48.091 163.907 48.7625 163.329 48.7625 162.493C48.7625 161.672 48.1097 161.103 47.1658 161.103C46.2078 161.103 45.5691 161.672 45.5691 162.493ZM54.1803 168.542L53.072 172.266H51.8087L52.4897 168.542H54.1803ZM59.51 169.631C57.6269 169.622 55.7531 168.504 55.7578 164.964C55.7578 161.667 57.2559 159.751 59.6133 159.751C61.4636 159.751 62.741 160.915 62.957 162.47H61.2476C61.0691 161.737 60.4868 161.249 59.6133 161.249C58.2139 161.249 57.439 162.484 57.4343 164.513H57.533C58.0167 163.677 58.9418 163.184 59.9984 163.184C61.7219 163.184 63.0556 164.494 63.0509 166.316C63.0556 168.227 61.6327 169.641 59.51 169.631ZM57.6269 166.368C57.6316 167.373 58.4158 168.232 59.5053 168.232C60.576 168.232 61.3744 167.406 61.3744 166.358C61.3744 165.33 60.5995 164.508 59.5288 164.508C58.4487 164.508 57.6363 165.363 57.6269 166.368ZM68.3319 169.683C66.012 169.678 64.6314 167.852 64.6361 164.701C64.6361 161.559 66.0261 159.751 68.3319 159.751C70.633 159.751 72.0278 161.564 72.0278 164.701C72.0231 167.861 70.6471 169.683 68.3319 169.683ZM66.3783 164.701C66.3783 167.011 67.125 168.218 68.3319 168.218C69.5341 168.218 70.2808 167.011 70.2808 164.701C70.2761 162.404 69.5294 161.193 68.3319 161.193C67.1297 161.193 66.383 162.404 66.3783 164.701ZM77.2899 169.683C74.97 169.678 73.5893 167.852 73.594 164.701C73.594 161.559 74.9841 159.751 77.2899 159.751C79.591 159.751 80.9857 161.564 80.9857 164.701C80.981 167.861 79.6051 169.683 77.2899 169.683ZM75.3363 164.701C75.3363 167.011 76.083 168.218 77.2899 168.218C78.4921 168.218 79.2388 167.011 79.2388 164.701C79.2341 162.404 78.4874 161.193 77.2899 161.193C76.0877 161.193 75.341 162.404 75.3363 164.701ZM92.3716 158.69V167.772H90.8876V166.72H88.5348V165.696H90.8876V158.69H92.3716ZM82.2514 164.085C84.4633 164.071 87.4406 164.048 89.9859 163.724L90.0751 164.785C89.089 164.949 88.0605 165.057 87.0461 165.133V167.438H85.5622V165.212C84.4445 165.259 83.3738 165.264 82.4298 165.264L82.2514 164.085ZM83.1624 161.254C83.1624 159.986 84.3834 159.122 86.1633 159.126C87.9149 159.122 89.1453 159.986 89.1547 161.254C89.1453 162.54 87.9149 163.357 86.1633 163.357C84.3881 163.357 83.1624 162.54 83.1624 161.254ZM83.8434 170.449V166.894H85.3227V169.251H92.6486V170.449H83.8434ZM84.5666 161.254C84.5572 161.906 85.2053 162.282 86.1633 162.282C87.0837 162.282 87.7365 161.906 87.7459 161.254C87.7365 160.601 87.0837 160.211 86.1633 160.216C85.2053 160.211 84.5572 160.601 84.5666 161.254Z" fill="#56AFDF"/>
<path d="M279.55 156.138C279.097 155.687 278.361 155.687 277.908 156.138C277.455 156.588 277.455 157.319 277.908 157.77L284.479 164.3L277.908 170.83C277.455 171.281 277.454 172.011 277.908 172.462C278.361 172.913 279.097 172.912 279.55 172.462L286.942 165.116C287.396 164.665 287.396 163.935 286.942 163.484L279.55 156.138Z" fill="#56AFDF"/>
<path d="M246.3 72.0469C246.887 72.0469 247.362 72.5226 247.362 73.1094C247.362 73.6962 246.887 74.1719 246.3 74.1719H240.987C240.4 74.1719 239.925 74.6476 239.925 75.2344V85.8594C239.925 86.4462 240.4 86.9219 240.987 86.9219H246.3C246.887 86.9219 247.362 87.3976 247.362 87.9844C247.362 88.5712 246.887 89.0469 246.3 89.0469H240.987C239.227 89.0469 237.8 87.6198 237.8 85.8594V75.2344C237.8 73.474 239.227 72.0469 240.987 72.0469H246.3Z" fill="white"/>
<path d="M249.323 76.7223C249.655 76.2529 250.284 76.1576 250.726 76.5096L254.199 79.2717C255 79.9092 255 81.1845 254.199 81.8221L250.726 84.5842C250.284 84.9359 249.655 84.8407 249.323 84.3715C248.992 83.9021 249.082 83.2366 249.525 82.8846L251.127 81.6094H244.115L244.012 81.6042C243.507 81.5497 243.112 81.0968 243.112 80.5469C243.112 79.9968 243.507 79.5441 244.012 79.4896L244.115 79.4844H251.127L249.525 78.2092C249.082 77.8572 248.992 77.1917 249.323 76.7223Z" fill="white"/>
<path d="M273.415 83.5678V84.4841H263.886V83.5678H268.078V81.7351H265.045V78.4231H271.159V76.9603H265.024V76.0604H272.248V79.3107H266.142V80.8311H272.491V81.7351H269.171V83.5678H273.415ZM282.656 76.3809V77.4904C282.656 78.8423 282.656 80.301 282.274 82.5281L281.152 82.4295C281.563 80.338 281.563 78.8053 281.567 77.4904V77.2808H275.424V76.3809H282.656ZM274.409 84.2581V83.3459H283.901V84.2581H274.409ZM287.718 76.1015C289.275 76.1056 290.384 77.5232 290.393 79.7545C290.384 81.9981 289.275 83.4157 287.718 83.4157C286.16 83.4157 285.051 81.9981 285.059 79.7545C285.051 77.5232 286.16 76.1056 287.718 76.1015ZM286.111 79.7545C286.111 81.4064 286.768 82.4254 287.718 82.4254C288.687 82.4254 289.328 81.4064 289.332 79.7545C289.328 78.115 288.687 77.0959 287.718 77.0877C286.768 77.0959 286.111 78.115 286.111 79.7545ZM291.938 85.7333V75.3208H293.043V79.4011H294.711V80.3339H293.043V85.7333H291.938ZM304.963 80.0134V80.9379H300.722V82.0268H299.633V80.9379H295.454V80.0134H304.963ZM296.112 84.8498C298.109 84.6567 299.604 83.7938 299.604 82.7706V82.4747H300.739V82.7706C300.739 83.8184 302.21 84.6567 304.231 84.8498L303.886 85.6839C302.189 85.5114 300.8 84.895 300.172 83.954C299.539 84.8786 298.162 85.5114 296.482 85.6839L296.112 84.8498ZM296.469 77.3959C296.469 76.1631 297.903 75.4728 300.192 75.4728C302.493 75.4728 303.907 76.1631 303.907 77.3959C303.907 78.6163 302.493 79.323 300.192 79.3189C297.903 79.323 296.469 78.6163 296.469 77.3959ZM297.616 77.3959C297.607 78.0739 298.573 78.4724 300.192 78.4724C301.803 78.4724 302.777 78.0739 302.777 77.3959C302.777 76.7014 301.803 76.2987 300.192 76.3069C298.573 76.2987 297.607 76.7014 297.616 77.3959Z" fill="white"/>
<g filter="url(#filter0_d_4723_3045)">
<path d="M0 686.798C0 675.532 9.13339 666.398 20.4 666.398H306C317.267 666.398 326.4 675.532 326.4 686.798V734.398H0V686.798Z" fill="white"/>
<path d="M55.4502 685.918C56.5755 685.082 57.8955 685.118 59.2217 685.414C60.9364 685.871 63.1002 686.663 63.1002 688.592V697.722C63.1002 698.475 62.4472 699.062 61.6957 698.986L58.0388 698.614C56.4144 698.312 54.7596 698.905 53.595 700.203C53.2114 700.629 52.589 700.629 52.2054 700.203C51.0408 698.905 49.386 698.312 47.7616 698.614L44.1047 698.986C43.3532 699.062 42.7002 698.475 42.7002 697.722V688.592C42.7002 686.663 44.864 685.871 46.5787 685.414C47.9049 685.118 49.2249 685.082 50.3502 685.918L51.6252 686.8V695.443C51.6252 696.144 52.196 696.713 52.9002 696.713C53.6044 696.713 54.1752 696.144 54.1752 695.443V686.8L55.4502 685.918Z" fill="#CDD3E7"/>
<path d="M46.5535 711.094V711.88C46.5535 712.727 46.5535 713.624 46.3045 714.839L45.3682 714.759C45.4678 714.276 45.5325 713.848 45.5674 713.444L40.2582 713.693L40.1287 712.896L45.6072 712.747C45.6172 712.443 45.6172 712.159 45.6172 711.88V711.861H40.3578V711.094H46.5535ZM47.5297 715.387V716.144H39.4115V715.387H42.6289V714.132H43.5852V715.387H47.5297ZM46.7428 718.714V719.481H40.4176V716.831H41.3639V718.714H46.7428ZM56.0312 710.705V717.379H55.1347V710.705H56.0312ZM54.278 710.874V717.16H53.3815V713.962H52.2759V713.195H53.3815V710.874H54.278ZM56.2901 718.664V719.431H50.1542V716.642H51.1104V718.664H56.2901ZM52.2161 711.412V712.179H49.7259V713.295H51.8675V714.032H49.7259V715.197C50.9013 715.192 51.6832 715.163 52.5946 714.978L52.6843 715.735C51.6583 715.935 50.8116 715.974 49.3972 715.974H48.8194V711.412H52.2161ZM65.6084 717.728V718.504H57.4404V717.728H65.6084ZM64.8514 712.07V712.837H61.9926C62.0324 714.176 63.3423 715.282 65.1701 715.576L64.7916 716.333C63.3124 716.069 62.0872 715.312 61.5145 714.221C60.9317 715.312 59.7065 716.069 58.2373 716.333L57.8687 715.576C59.6767 715.282 60.9865 714.176 61.0363 712.837H58.1775V712.07H61.0463V710.884H61.9826V712.07H64.8514Z" fill="#696E82"/>
<path d="M111.177 687.596C111.469 688.128 111.974 688.509 112.563 688.644L114.997 689.202C116.551 689.558 117.175 691.443 116.144 692.663L114.373 694.76C114.002 695.2 113.823 695.771 113.878 696.345L114.135 699.031C114.292 700.673 112.617 701.865 111.128 701.171L109.044 700.2C108.478 699.936 107.824 699.936 107.257 700.2L105.173 701.172C103.684 701.865 102.008 700.673 102.166 699.031L102.423 696.345C102.478 695.771 102.299 695.2 101.928 694.76L100.157 692.663C99.1254 691.443 99.7498 689.558 101.303 689.202L103.738 688.644C104.327 688.509 104.831 688.128 105.124 687.596L106.293 685.474C107.101 684.006 109.201 684.006 110.009 685.474L111.177 687.596Z" fill="#CDD3E7"/>
<path d="M106.184 710.695V712.916H107.459V713.723H106.184V715.954H105.237V710.695H106.184ZM106.184 716.333V718.196H101.253V718.873H106.512V719.53H100.307V717.588H105.247V716.99H100.287V716.333H106.184ZM99.1015 715.108C99.7938 715.108 100.596 715.108 101.432 715.078V714.58C100.406 714.485 99.7689 714.077 99.7789 713.404C99.7689 712.677 100.606 712.249 101.901 712.249C103.185 712.249 104.022 712.677 104.022 713.404C104.022 714.072 103.39 714.48 102.379 714.58V715.048C103.176 715.008 103.982 714.943 104.729 714.839L104.809 715.456C102.887 715.775 100.775 715.785 99.2011 715.785L99.1015 715.108ZM104.48 711.333V711.99H99.3306V711.333H101.432V710.615H102.379V711.333H104.48ZM101.901 712.867C101.134 712.867 100.675 713.066 100.675 713.404C100.675 713.763 101.134 713.982 101.901 713.982C102.658 713.982 103.116 713.763 103.116 713.404C103.116 713.066 102.658 712.867 101.901 712.867ZM116.329 715.038V715.795H108.181V715.038H111.797V714.092H109.197V711.104H115.323V711.851H110.133V713.335H115.382V714.092H112.713V715.038H116.329ZM112.245 716.373C114.167 716.373 115.323 716.961 115.323 717.996C115.323 719.032 114.167 719.61 112.245 719.62C110.312 719.61 109.147 719.032 109.147 717.996C109.147 716.961 110.312 716.373 112.245 716.373ZM112.245 717.11C110.88 717.11 110.103 717.429 110.103 717.996C110.103 718.564 110.88 718.883 112.245 718.873C113.59 718.883 114.376 718.564 114.376 717.996C114.376 717.429 113.59 717.11 112.245 717.11Z" fill="#696E82"/>
<path d="M161.994 682.603C162.593 682.163 163.407 682.163 164.006 682.603L172.506 688.84C172.942 689.16 173.2 689.67 173.2 690.211V701.823H165.547C165.547 701.805 165.55 701.787 165.55 701.769V698.137C165.55 696.728 164.408 695.587 163 695.587C161.592 695.587 160.45 696.728 160.45 698.137V701.769C160.45 701.787 160.453 701.805 160.453 701.823H152.8V690.211C152.8 689.67 153.058 689.16 153.494 688.84L161.994 682.603Z" fill="#CDD3E7"/>
<path d="M166.063 716.931V719.511H159.897V716.931H166.063ZM160.833 717.658V718.783H165.147V717.658H160.833ZM166.601 711.402V712.129H159.339V711.402H162.517V710.576H163.463V711.402H166.601ZM162.985 712.448C164.868 712.448 165.914 712.877 165.914 713.713C165.914 714.475 165.042 714.899 163.463 714.968V715.576H167.059V716.323H158.921V715.576H162.517V714.968C160.938 714.899 160.047 714.475 160.057 713.713C160.047 712.877 161.112 712.448 162.985 712.448ZM162.985 713.096C161.74 713.106 161.063 713.305 161.063 713.713C161.063 714.112 161.74 714.331 162.985 714.331C164.24 714.331 164.908 714.112 164.908 713.713C164.908 713.305 164.24 713.106 162.985 713.096Z" fill="#696E82"/>
<path d="M224.65 684.373C225.755 684.373 226.65 685.269 226.65 686.373V692.773C226.65 693.878 225.755 694.773 224.65 694.773H211.222L208.65 697.373V686.373C208.65 685.268 209.546 684.373 210.65 684.373H224.65ZM213.793 688.273C213.083 688.274 212.508 688.855 212.508 689.573C212.508 690.291 213.083 690.873 213.793 690.873C214.503 690.873 215.079 690.291 215.079 689.573C215.079 688.855 214.503 688.273 213.793 688.273ZM217.65 688.273C216.94 688.273 216.364 688.855 216.364 689.573C216.364 690.291 216.94 690.873 217.65 690.873C218.36 690.873 218.935 690.291 218.936 689.573C218.936 688.855 218.36 688.273 217.65 688.273ZM221.508 688.273C220.798 688.273 220.222 688.855 220.222 689.573C220.222 690.291 220.798 690.873 221.508 690.873C222.218 690.873 222.793 690.291 222.793 689.573C222.793 688.855 222.218 688.274 221.508 688.273Z" fill="#CDD3E7"/>
<path d="M227.537 693.582C228.196 693.909 228.65 694.587 228.65 695.373V701.373L226.937 699.773H218.65C217.546 699.773 216.651 698.878 216.65 697.773V695.773H224.65L224.805 695.77C226.113 695.703 227.197 694.798 227.537 693.582Z" fill="#CDD3E7"/>
<path d="M226.559 693.373C226.304 694.184 225.546 694.773 224.65 694.773H216.742C216.997 693.962 217.755 693.373 218.65 693.373H226.559Z" fill="#CDD3E7"/>
<path d="M217.829 717.708V718.485H209.661V717.708H213.237V715.586H214.174V717.708H217.829ZM214.194 711.94C214.194 713.355 215.747 714.679 217.471 714.968L217.062 715.745C215.618 715.456 214.288 714.565 213.695 713.335C213.108 714.56 211.793 715.466 210.359 715.745L209.94 714.968C211.653 714.679 213.197 713.355 213.197 711.94V711.263H214.194V711.94ZM226.819 715.387V716.134H218.661V715.387H222.267V714.61H219.727V710.934H225.823V711.681H220.683V712.408H225.594V713.116H220.683V713.873H225.882V714.61H223.213V715.387H226.819ZM222.745 716.721C224.707 716.712 225.823 717.229 225.823 718.166C225.823 719.112 224.707 719.61 222.745 719.6C220.763 719.61 219.647 719.112 219.647 718.166C219.647 717.229 220.763 716.712 222.745 716.721ZM222.745 717.429C221.34 717.429 220.583 717.688 220.593 718.166C220.583 718.644 221.34 718.893 222.745 718.883C224.129 718.893 224.876 718.644 224.876 718.166C224.876 717.688 224.129 717.429 222.745 717.429Z" fill="#696E82"/>
<path d="M264.932 696.561C270.577 693.344 277.223 693.344 282.869 696.561C283.623 696.991 284.1 697.869 284.1 698.831V703.073H263.7V698.831C263.7 697.869 264.177 696.991 264.932 696.561Z" fill="#56AFDF"/>
<path d="M273.9 682.673C276.717 682.673 279 684.956 279 687.773C279 690.59 276.717 692.873 273.9 692.873C271.084 692.873 268.8 690.59 268.8 687.773C268.8 684.956 271.084 682.673 273.9 682.673Z" fill="#56AFDF"/>
<path d="M266.4 711.562H267.735L270.016 717.15H270.106L272.387 711.562H273.722V718.773H272.676V713.564H272.606L270.494 718.763H269.628L267.506 713.554H267.446V718.773H266.4V711.562ZM274.842 711.562H276.087L277.96 714.829H278.04L279.922 711.562H281.167L278.548 715.945V718.773H277.452V715.945L274.842 711.562Z" fill="#0A0F15"/>
</g>
</g>
<defs>
<filter id="filter0_d_4723_3045" x="-8.5" y="654.498" width="343.4" height="85" filterUnits="userSpaceOnUse" color-interpolation-filters="sRGB">
<feFlood flood-opacity="0" result="BackgroundImageFix"/>
<feColorMatrix in="SourceAlpha" type="matrix" values="0 0 0 0 0 0 0 0 0 0 0 0 0 0 0 0 0 0 127 0" result="hardAlpha"/>
<feOffset dy="-3.4"/>
<feGaussianBlur stdDeviation="4.25"/>
<feComposite in2="hardAlpha" operator="out"/>
<feColorMatrix type="matrix" values="0 0 0 0 0.0392157 0 0 0 0 0.0588235 0 0 0 0 0.0823529 0 0 0 0.04 0"/>
<feBlend mode="normal" in2="BackgroundImageFix" result="effect1_dropShadow_4723_3045"/>
<feBlend mode="normal" in="SourceGraphic" in2="effect1_dropShadow_4723_3045" result="shape"/>
</filter>
<linearGradient id="paint0_linear_4723_3045" x1="163.2" y1="89.76" x2="163.2" y2="408" gradientUnits="userSpaceOnUse">
<stop offset="0.2" stop-color="#56AFDF"/>
<stop offset="0.6" stop-color="#8C9BAC" stop-opacity="0.2"/>
<stop offset="0.7" stop-color="#FDB666" stop-opacity="0.1"/>
<stop offset="1" stop-color="#FDB666" stop-opacity="0"/>
</linearGradient>
<clipPath id="clip0_4723_3045">
<rect width="326" height="734" rx="44" fill="white"/>
</clipPath>
</defs>
</svg>
