<svg width="326" height="735" viewBox="0 0 326 735" fill="none" xmlns="http://www.w3.org/2000/svg">
<g clip-path="url(#clip0_4723_2912)">
<rect width="326" height="735" rx="44" fill="white"/>
<rect width="326.4" height="408" fill="url(#paint0_linear_4723_2912)" fill-opacity="0.6"/>
<mask id="path-3-inside-1_4723_2912" fill="white">
<path d="M20.3994 144.5C20.3994 135.111 28.0106 127.5 37.3994 127.5H288.999C298.388 127.5 305.999 135.111 305.999 144.5V210.9H20.3994V144.5Z"/>
</mask>
<path d="M20.3994 144.5C20.3994 135.111 28.0106 127.5 37.3994 127.5H288.999C298.388 127.5 305.999 135.111 305.999 144.5V210.9H20.3994V144.5Z" fill="white"/>
<path d="M20.3994 127.5H305.999H20.3994ZM305.999 212.6H20.3994V209.2H305.999V212.6ZM20.3994 210.9V127.5V210.9ZM305.999 127.5V210.9V127.5Z" fill="#EBF0F4" mask="url(#path-3-inside-1_4723_2912)"/>
<path d="M45.5797 149.911V151.122H43.7999V157.255H42.3206V145.28H43.7999V149.911H45.5797ZM34.8162 154.287V146.44H36.286V153.066C37.8874 153.048 39.5874 152.902 41.4001 152.531L41.5598 153.771C39.5311 154.179 37.615 154.292 35.8258 154.287H34.8162ZM50.3172 146.107C52.2191 146.107 53.6092 147.304 53.6139 149.009C53.6092 150.718 52.2191 151.911 50.3172 151.911C48.4294 151.911 47.0158 150.718 47.0205 149.009C47.0158 147.304 48.4294 146.107 50.3172 146.107ZM46.4805 153.569C48.6454 153.574 51.6368 153.55 54.2338 153.179L54.3465 154.25C51.6603 154.766 48.7816 154.785 46.6589 154.785L46.4805 153.569ZM48.4857 149.009C48.4763 150.014 49.2653 150.629 50.3172 150.629C51.3785 150.629 52.1722 150.014 52.1722 149.009C52.1722 148.013 51.3832 147.389 50.3172 147.389C49.2653 147.389 48.4763 148.013 48.4857 149.009ZM54.9476 157.302V145.28H56.4222V157.302H54.9476ZM72.9242 154.668V155.889H61.9494V154.668H66.6784V152.709H63.2502V148.784H70.1629V147.29H63.2314V146.097H71.6234V149.953H64.7248V151.503H71.9005V152.709H68.1436V154.668H72.9242ZM80.2399 145.82C80.2305 148.981 78.5869 150.92 74.7689 151.85L74.2382 150.718C76.0322 150.305 77.1827 149.676 77.8684 148.887L74.473 149.136L74.2523 148.009L78.4789 147.849C78.5775 147.572 78.6432 147.276 78.6714 146.971H74.8628V145.82H80.2399ZM76.1214 153.024V151.878H84.0297V155.001H77.5913V155.964H84.3396V157.133H76.1402V153.926H82.5645V153.024H76.1214ZM80.2728 149.164V147.962H82.5551V145.28H84.0297V151.404H82.5551V149.164H80.2728ZM100.475 154.649V155.889H89.5005V154.649H94.2154V152.287H90.435V151.127H92.135V147.53H90.3975V146.342H99.5174V147.53H97.7563V151.127H99.4704V152.287H95.6759V154.649H100.475ZM93.6049 151.127H96.3005V147.53H93.6049V151.127ZM111.52 145.29V153.963H110.041V145.29H111.52ZM101.742 149.075C101.738 147.328 103.151 146.079 104.978 146.079C106.805 146.079 108.209 147.328 108.209 149.075C108.209 150.85 106.805 152.09 104.978 152.085C103.151 152.09 101.738 150.85 101.742 149.075ZM103.184 149.075C103.179 150.141 103.95 150.798 104.978 150.798C105.978 150.798 106.758 150.141 106.758 149.075C106.758 148.037 105.978 147.365 104.978 147.365C103.95 147.365 103.179 148.037 103.184 149.075ZM103.579 157.049V153.08H105.067V155.851H111.858V157.049H103.579ZM123.311 151.573V152.742H114.891V146.219H123.203V147.417H116.389V148.854H122.931V150.023H116.389V151.573H123.311ZM113.552 155.823V154.616H124.527V155.823H113.552Z" fill="#0A0F15"/>
<path d="M39.2646 178.113C41.6126 178.125 43.949 179.534 43.9548 183.919C43.9548 188.069 42.0822 190.464 39.1354 190.464C36.8108 190.464 35.2083 189.02 34.9441 187.036H37.0809C37.3039 187.981 38.0377 188.592 39.1354 188.592C40.873 188.592 41.8474 187.054 41.8592 184.477H41.73C41.1254 185.516 39.969 186.138 38.6541 186.138C36.4997 186.138 34.8385 184.506 34.8326 182.234C34.8267 179.88 36.5995 178.102 39.2646 178.113ZM36.9341 182.181C36.94 183.473 37.8968 184.488 39.247 184.488C40.5795 184.488 41.6126 183.408 41.6068 182.17C41.6009 180.943 40.6206 179.863 39.2763 179.863C37.9262 179.863 36.9224 180.896 36.9341 182.181ZM50.4563 190.464C47.7795 190.464 45.8834 189.038 45.8952 187.077C45.8834 185.557 47.0223 184.306 48.4663 184.083V184.007C47.2042 183.743 46.3472 182.651 46.3472 181.336C46.3472 179.475 48.0848 178.113 50.4563 178.113C52.822 178.113 54.5595 179.475 54.5654 181.336C54.5595 182.651 53.679 183.743 52.4404 184.007V184.083C53.8727 184.306 55.0174 185.557 55.0233 187.077C55.0174 189.038 53.1155 190.464 50.4563 190.464ZM48.1258 186.924C48.1082 188.028 49.0298 188.797 50.4563 188.797C51.8769 188.797 52.7926 188.028 52.7926 186.924C52.7926 185.786 51.8064 184.946 50.4563 184.946C49.1003 184.946 48.1082 185.78 48.1258 186.924ZM48.4604 181.542C48.4604 182.586 49.2881 183.308 50.4563 183.308C51.6127 183.308 52.4522 182.586 52.4522 181.542C52.4522 180.514 51.6362 179.804 50.4563 179.804C49.2588 179.804 48.4604 180.514 48.4604 181.542ZM59.2244 189.102L57.839 193.757H56.26L57.1111 189.102H59.2244ZM65.8866 190.464C63.5326 190.452 61.1904 189.055 61.1963 184.629C61.1963 180.508 63.0689 178.113 66.0157 178.113C68.3285 178.113 69.9252 179.569 70.1953 181.512H68.0585C67.8355 180.596 67.1076 179.986 66.0157 179.986C64.2664 179.986 63.2978 181.53 63.2919 184.066H63.4152C64.0198 183.021 65.1763 182.404 66.4971 182.404C68.6514 182.404 70.3185 184.042 70.3127 186.32C70.3185 188.709 68.5399 190.476 65.8866 190.464ZM63.5326 186.384C63.5385 187.641 64.5188 188.715 65.8807 188.715C67.2191 188.715 68.217 187.682 68.217 186.373C68.217 185.087 67.2484 184.06 65.91 184.06C64.5599 184.06 63.5444 185.128 63.5326 186.384ZM76.9139 190.529C74.0141 190.523 72.2882 188.239 72.2941 184.3C72.2941 180.373 74.0317 178.113 76.9139 178.113C79.7903 178.113 81.5337 180.379 81.5337 184.3C81.5279 188.251 79.8079 190.529 76.9139 190.529ZM74.4719 184.3C74.4719 187.189 75.4053 188.697 76.9139 188.697C78.4167 188.697 79.35 187.189 79.35 184.3C79.3442 181.43 78.4108 179.915 76.9139 179.915C75.4112 179.915 74.4778 181.43 74.4719 184.3ZM88.1113 190.529C85.2115 190.523 83.4857 188.239 83.4915 184.3C83.4915 180.373 85.2291 178.113 88.1113 178.113C90.9877 178.113 92.7312 180.379 92.7312 184.3C92.7253 188.251 91.0053 190.529 88.1113 190.529ZM85.6694 184.3C85.6694 187.189 86.6027 188.697 88.1113 188.697C89.6141 188.697 90.5475 187.189 90.5475 184.3C90.5416 181.43 89.6082 179.915 88.1113 179.915C86.6086 179.915 85.6752 181.43 85.6694 184.3ZM106.963 176.787V188.14H105.108V186.825H102.168V185.545H105.108V176.787H106.963ZM94.3133 183.532C97.0781 183.514 100.8 183.485 103.981 183.08L104.093 184.406C102.86 184.612 101.575 184.747 100.307 184.841V187.723H98.4517V184.94C97.0546 184.999 95.7162 185.005 94.5363 185.005L94.3133 183.532ZM95.4521 179.992C95.4521 178.407 96.9783 177.327 99.2031 177.333C101.393 177.327 102.931 178.407 102.942 179.992C102.931 181.6 101.393 182.622 99.2031 182.622C96.9842 182.622 95.4521 181.6 95.4521 179.992ZM96.3032 191.486V187.042H98.1523V189.989H107.31V191.486H96.3032ZM97.2073 179.992C97.1955 180.808 98.0056 181.277 99.2031 181.277C100.354 181.277 101.17 180.808 101.181 179.992C101.17 179.176 100.354 178.689 99.2031 178.694C98.0056 178.689 97.1955 179.176 97.2073 179.992Z" fill="#56AFDF"/>
<path d="M20.3994 210.9H163.199V251.7H37.3994C28.0106 251.7 20.3994 244.089 20.3994 234.7V210.9Z" fill="white"/>
<path d="M43.1459 225.832V231.145H41.8557V230.237H39.3244V229.247H41.8557V228.216H39.4518C38.7985 229.818 37.2576 230.858 34.9359 231.38L34.4921 230.324C36.9576 229.81 38.1903 228.725 38.3711 227.324H35.0633V226.28H39.8052C39.8052 226.609 39.7806 226.921 39.7312 227.221H41.8557V225.832H43.1459ZM36.2262 232.58V231.556H43.1459V234.326H37.5329V235.193H43.4171V236.228H36.2426V233.36H41.8474V232.58H36.2262ZM53.9069 225.832V236.327H52.6824V225.832H53.9069ZM44.6861 233.352C46.2023 232.423 46.868 230.529 46.868 228.701V228.002H45.0436V226.958H49.8101V228.002H48.1131V228.701C48.109 230.472 48.7459 232.251 50.2498 233.114L49.4896 234.063C48.5158 233.488 47.8665 232.489 47.5049 231.293C47.1351 232.588 46.4653 233.693 45.475 234.305L44.6861 233.352ZM49.0458 230.537V229.494H50.558V226.03H51.7702V235.822H50.558V230.537H49.0458Z" fill="#0A0F15"/>
<g clip-path="url(#clip1_4723_2912)">
<path fill-rule="evenodd" clip-rule="evenodd" d="M137.985 239.6H130.699V232.314H137.985V239.6ZM133.128 237.171H135.556V234.743H133.128V237.171Z" fill="#CDD3E7"/>
<path d="M143.449 239.6H140.262V236.413H143.449V239.6Z" fill="#CDD3E7"/>
<path d="M147.699 239.6H144.512V236.413H147.699V239.6Z" fill="#CDD3E7"/>
<path d="M143.449 235.35H140.262V232.163H143.449V235.35Z" fill="#CDD3E7"/>
<path d="M147.699 235.35H144.512V232.163H147.699V235.35Z" fill="#CDD3E7"/>
<path fill-rule="evenodd" clip-rule="evenodd" d="M137.985 229.886H130.699V222.6H137.985V229.886ZM133.128 227.457H135.556V225.029H133.128V227.457Z" fill="#CDD3E7"/>
<path fill-rule="evenodd" clip-rule="evenodd" d="M147.699 229.886H140.413V222.6H147.699V229.886ZM142.842 227.457H145.27V225.029H142.842V227.457Z" fill="#CDD3E7"/>
</g>
<path d="M163.199 210.9H305.999V234.7C305.999 244.089 298.388 251.7 288.999 251.7H163.199V210.9Z" fill="white"/>
<path d="M163.199 210.9H305.999H163.199ZM305.999 251.7H163.199H305.999ZM162.349 251.7V210.9H164.049V251.7H162.349ZM305.999 210.9V251.7V210.9Z" fill="#EBF0F4"/>
<path d="M186.718 230.924V231.947H182.568V232.797C184.466 232.908 185.555 233.521 185.559 234.552C185.555 235.698 184.216 236.323 181.919 236.319C179.622 236.323 178.262 235.698 178.262 234.552C178.262 233.521 179.371 232.908 181.282 232.797V231.947H177.148V230.924H186.718ZM177.6 229.531C179.749 229.374 180.982 228.68 181.175 227.825H178.089V226.802H181.282V225.845H182.564V226.802H185.777V227.825H182.667C182.856 228.68 184.093 229.374 186.246 229.531L185.855 230.517C183.973 230.369 182.576 229.785 181.923 228.873C181.265 229.785 179.868 230.369 177.999 230.517L177.6 229.531ZM179.577 234.552C179.568 235.09 180.378 235.357 181.919 235.353C183.439 235.357 184.261 235.09 184.269 234.552C184.261 234.014 183.439 233.742 181.919 233.742C180.378 233.742 179.568 234.014 179.577 234.552ZM196.468 225.841V233.516H195.178V229.666H193.317V228.622H195.178V225.841H196.468ZM187.646 231.24C189.319 230.693 190.214 229.321 190.214 227.924V227.64H188.024V226.597H193.703V227.64H191.529V227.932C191.529 229.194 192.376 230.5 193.999 231.039L193.354 232.062C192.178 231.667 191.348 230.862 190.892 229.872C190.428 230.973 189.557 231.86 188.312 232.288L187.646 231.24ZM189.577 236.13V232.838H190.868V235.082H196.731V236.13H189.577Z" fill="#0A0F15"/>
<path d="M281.999 222.6C282.586 222.6 283.062 223.076 283.062 223.663V230.038H289.437C290.023 230.038 290.499 230.513 290.499 231.1C290.499 231.687 290.023 232.163 289.437 232.163H283.062V238.538C283.062 239.124 282.586 239.6 281.999 239.6C281.412 239.6 280.937 239.124 280.937 238.538V232.163H274.562C273.975 232.163 273.499 231.687 273.499 231.1C273.499 230.513 273.975 230.038 274.562 230.038H280.937V223.663C280.937 223.076 281.412 222.6 281.999 222.6Z" fill="#CDD3E7"/>
<path d="M33.6988 72.6377C34.1524 72.1873 34.8877 72.1871 35.3412 72.6377C35.7944 73.0884 35.7943 73.8192 35.3412 74.2699L28.7705 80.7999L35.3412 87.3298C35.7942 87.7806 35.7946 88.5114 35.3412 88.962C34.8877 89.4125 34.1524 89.4123 33.6988 88.962L26.3069 81.616C25.8534 81.1652 25.8534 80.4345 26.3069 79.9838L33.6988 72.6377Z" fill="white"/>
<path d="M68.617 85.2096V86.7358H54.8984V85.2096H60.8096V82.7617H56.5244V77.8543H65.1653V75.9876H56.5009V74.4965H66.9909V79.316H58.3676V81.2531H67.3373V82.7617H62.6411V85.2096H68.617ZM77.7616 74.1502C77.7498 78.1008 75.6953 80.5252 70.9228 81.6875L70.2595 80.2728C72.5019 79.7562 73.9401 78.9696 74.7971 77.9834L70.553 78.2945L70.2771 76.8857L75.5603 76.6861C75.6835 76.3398 75.7657 75.97 75.8009 75.5884H71.0402V74.1502H77.7616ZM72.6134 83.155V81.7227H82.4988V85.6264H74.4508V86.8298H82.8862V88.2914H72.6369V84.2821H80.6673V83.155H72.6134ZM77.8027 78.3298V76.827H80.6556V73.4751H82.4988V81.1298H80.6556V78.3298H77.8027ZM103.056 85.1861V86.7358H89.3373V85.1861H95.231V82.2334H90.5055V80.7835H92.6305V76.2869H90.4585V74.8018H101.858V76.2869H99.6571V80.7835H101.8V82.2334H97.0566V85.1861H103.056ZM94.4678 80.7835H97.8373V76.2869H94.4678V80.7835ZM116.861 73.4869V84.3291H115.012V73.4869H116.861ZM104.64 78.2182C104.634 76.0345 106.401 74.4731 108.684 74.4731C110.968 74.4731 112.723 76.0345 112.723 78.2182C112.723 80.4372 110.968 81.9869 108.684 81.981C106.401 81.9869 104.634 80.4372 104.64 78.2182ZM106.442 78.2182C106.436 79.5508 107.399 80.3726 108.684 80.3726C109.935 80.3726 110.909 79.5508 110.909 78.2182C110.909 76.9209 109.935 76.0815 108.684 76.0815C107.399 76.0815 106.436 76.9209 106.442 78.2182ZM106.935 88.1858V83.2255H108.796V86.6889H117.284V88.1858H106.935ZM131.6 81.3412V82.8028H121.075V74.6492H131.465V76.1461H122.948V77.9423H131.125V79.404H122.948V81.3412H131.6ZM119.402 86.6537V85.145H133.121V86.6537H119.402Z" fill="white"/>
<path d="M234.8 87.0469C235.904 87.0469 236.8 87.9423 236.8 89.0469H228.8C228.8 87.9423 229.695 87.0469 230.8 87.0469H234.8Z" fill="white"/>
<path fill-rule="evenodd" clip-rule="evenodd" d="M232.8 72.0469C235.561 72.0469 237.8 74.208 237.8 76.874C237.8 79.5402 232.8 86.0469 232.8 86.0469C232.8 86.0469 227.8 79.5402 227.8 76.874C227.8 74.208 230.039 72.0469 232.8 72.0469ZM232.8 75.0469C231.695 75.0469 230.8 75.9423 230.8 77.0469C230.8 78.1514 231.695 79.0469 232.8 79.0469C233.904 79.0469 234.8 78.1514 234.8 77.0469C234.8 75.9423 233.904 75.0469 232.8 75.0469Z" fill="white"/>
<path d="M253.994 77.9711C253.986 79.812 255.062 81.6981 256.607 82.4542L255.929 83.3376C254.791 82.75 253.912 81.5831 253.456 80.1942C252.991 81.6735 252.079 82.9185 250.896 83.5349L250.21 82.6473C251.808 81.8748 252.889 79.8819 252.897 77.9711V76.1878H253.994V77.9711ZM257.392 85.7333V75.3208H258.498V79.4751H260.166V80.4161H258.498V85.7333H257.392ZM270.401 80.3996V81.2954H260.909V80.3996H263.185V79.0025C262.38 78.6779 261.924 78.1519 261.924 77.4616C261.924 76.2248 263.358 75.5057 265.647 75.5016C267.927 75.5057 269.361 76.2248 269.361 77.4616C269.361 78.1519 268.905 78.6779 268.1 79.0066V80.3996H270.401ZM262.031 83.8554C262.031 82.6637 263.383 82.0022 265.643 82.0104C267.886 82.0022 269.234 82.6637 269.242 83.8554C269.234 85.0553 267.886 85.7127 265.643 85.7127C263.383 85.7127 262.031 85.0553 262.031 83.8554ZM263.07 77.4616C263.062 78.1602 264.028 78.5464 265.647 78.5464C267.258 78.5464 268.231 78.1602 268.231 77.4616C268.231 76.7631 267.258 76.3604 265.647 76.3604C264.028 76.3604 263.062 76.7631 263.07 77.4616ZM263.153 83.8554C263.144 84.5046 264.052 84.8745 265.643 84.8662C267.216 84.8745 268.133 84.5046 268.141 83.8554C268.133 83.2103 267.216 82.8569 265.643 82.8487C264.052 82.8569 263.144 83.2103 263.153 83.8554ZM264.295 80.3996H267.003V79.2943C266.596 79.36 266.14 79.3929 265.647 79.3929C265.154 79.3929 264.702 79.36 264.295 79.2984V80.3996ZM280.118 75.3208V85.7538H279.013V80.3421H276.864V79.4422H279.013V75.3208H280.118ZM271.427 82.8897C273.005 82.1624 274.037 80.3832 274.037 78.6656V77.9835H271.723V77.0959H274.041V75.5262H275.142V77.0959H277.406V77.9835H275.126V78.6656C275.126 80.3174 276.186 82.0022 277.78 82.7089L277.172 83.5636C275.98 83.0377 275.06 81.9447 274.596 80.638C274.144 82.0227 273.231 83.1856 272.036 83.7403L271.427 82.8897ZM288.746 77.4739C288.746 78.6533 289.687 79.7709 291.278 80.2188L290.776 81.0612C289.568 80.7201 288.677 79.9887 288.212 79.0559C287.752 80.0832 286.836 80.8845 285.603 81.2666L285.069 80.3955C286.663 79.9394 287.649 78.7683 287.649 77.4739V77.3548H285.385V76.4672H287.649V75.2756H288.763V76.4672H291.006V77.3548H288.746V77.4739ZM286.104 84.8457C287.847 84.5909 289.174 83.7362 289.375 82.7418H286.523V81.8543H293.443V82.7418H290.587C290.789 83.7157 292.128 84.595 293.866 84.8498L293.46 85.7045C291.878 85.4579 290.579 84.7306 289.979 83.7362C289.379 84.7265 288.085 85.4374 286.511 85.6839L286.104 84.8457ZM292.173 81.3365V75.3208H293.279V77.815H294.787V78.7313H293.279V81.3365H292.173ZM304.274 75.3208V85.7333H303.165V75.3208H304.274ZM295.719 82.9432C298.488 81.6283 299.836 79.7504 300.054 77.3219H296.224V76.4425H301.18C301.172 79.4874 299.877 82.1296 296.302 83.8348L295.719 82.9432Z" fill="white"/>
<rect x="-6.7998" y="321.297" width="340" height="425" fill="white"/>
<mask id="path-19-inside-2_4723_2912" fill="white">
<path d="M0 408.699H326.4V468.499H0V408.699Z"/>
</mask>
<path d="M326.4 468.499V466.799H0V468.499V470.199H326.4V468.499Z" fill="#EBF0F4" mask="url(#path-19-inside-2_4723_2912)"/>
<path d="M28.1131 441.363C28.4954 441.476 28.6713 441.619 28.6779 441.855C28.6713 442.114 28.4655 442.307 28.1131 442.36V441.363Z" fill="#56AFDF"/>
<path d="M27.7267 440.265C27.414 440.168 27.2144 440.025 27.2211 439.779C27.2277 439.546 27.3941 439.369 27.7267 439.319V440.265Z" fill="#56AFDF"/>
<path fill-rule="evenodd" clip-rule="evenodd" d="M27.8766 434.787C28.3181 434.787 28.7483 434.835 29.1629 434.925C29.1781 434.928 29.1941 434.932 29.2093 434.936C29.5102 435.003 29.8024 435.093 30.0846 435.204C30.1141 435.216 30.1439 435.226 30.1733 435.238C30.234 435.263 30.294 435.29 30.3537 435.316C30.3725 435.325 30.3912 435.333 30.4099 435.342C30.4645 435.367 30.5187 435.393 30.5725 435.42C30.6082 435.438 30.6437 435.456 30.679 435.474C30.7273 435.499 30.7753 435.525 30.8229 435.552C30.8399 435.561 30.8563 435.572 30.8731 435.582C31.1045 435.714 31.3265 435.86 31.5375 436.02C31.5916 436.061 31.6456 436.102 31.6982 436.145C31.7336 436.174 31.7679 436.204 31.8027 436.234C31.836 436.262 31.8695 436.291 31.9022 436.32C31.9359 436.35 31.9688 436.381 32.0018 436.411C32.0416 436.449 32.0813 436.486 32.1201 436.524C32.1425 436.546 32.1641 436.569 32.1861 436.591C32.2217 436.627 32.2569 436.663 32.2916 436.7C32.3236 436.734 32.356 436.768 32.3872 436.803C32.4193 436.839 32.4496 436.876 32.4808 436.912C32.5079 436.944 32.5362 436.975 32.5627 437.007C32.6775 437.147 32.7858 437.292 32.8879 437.443C32.9113 437.477 32.9333 437.512 32.956 437.547C32.9773 437.58 32.9993 437.612 33.02 437.646C33.0524 437.697 33.0829 437.75 33.1137 437.803C33.1303 437.832 33.1468 437.86 33.163 437.889C33.1882 437.934 33.2128 437.979 33.2369 438.025C33.2565 438.062 33.2752 438.1 33.2941 438.137C33.3146 438.178 33.3356 438.219 33.3552 438.261C33.376 438.305 33.3956 438.349 33.4153 438.394C33.4307 438.429 33.4469 438.463 33.4616 438.498C33.4831 438.549 33.5026 438.601 33.5228 438.653C33.5378 438.692 33.5538 438.73 33.5681 438.769C33.5944 438.842 33.6184 438.915 33.642 438.988C33.6506 439.015 33.6595 439.041 33.6677 439.068C33.6912 439.145 33.7132 439.222 33.7337 439.301C33.7406 439.327 33.7469 439.353 33.7534 439.379C33.7685 439.44 33.7826 439.501 33.7958 439.563C33.8038 439.6 33.8111 439.638 33.8185 439.675C33.8304 439.736 33.8419 439.797 33.852 439.859C33.8585 439.898 33.864 439.938 33.8697 439.978C33.8773 440.031 33.8842 440.084 33.8904 440.137C33.8945 440.173 33.8988 440.208 33.9023 440.243C33.9086 440.307 33.9137 440.371 33.918 440.436C33.9205 440.473 33.9231 440.51 33.9249 440.548C33.9296 440.646 33.9328 440.744 33.9328 440.843C33.9328 440.936 33.9301 441.029 33.9259 441.121C33.9249 441.144 33.9232 441.167 33.922 441.189C33.9174 441.27 33.9119 441.35 33.9042 441.43C33.9018 441.455 33.8981 441.48 33.8954 441.506C33.8878 441.575 33.8797 441.645 33.8697 441.714C33.8653 441.744 33.8608 441.775 33.8559 441.805C33.8473 441.859 33.8373 441.913 33.8273 441.966C33.8187 442.012 33.8094 442.057 33.7997 442.103C33.7883 442.157 33.7761 442.21 33.7633 442.264C33.7544 442.301 33.7462 442.337 33.7367 442.374C33.7242 442.422 33.7108 442.47 33.6972 442.517C33.6744 442.597 33.6493 442.675 33.6233 442.754C33.6087 442.797 33.5945 442.841 33.5789 442.885C33.5642 442.926 33.5482 442.966 33.5326 443.007C33.5136 443.056 33.4947 443.106 33.4745 443.155C33.4587 443.193 33.4426 443.231 33.4262 443.268C33.4076 443.31 33.3885 443.352 33.369 443.394C33.3505 443.434 33.3321 443.473 33.3128 443.513C33.2878 443.563 33.2622 443.614 33.2359 443.663C33.2201 443.693 33.2039 443.723 33.1876 443.753C33.1685 443.788 33.1483 443.822 33.1285 443.857C33.0378 444.014 32.9407 444.168 32.8367 444.316C32.8092 444.355 32.7813 444.394 32.7529 444.432C32.7284 444.465 32.7032 444.498 32.678 444.531C32.6484 444.569 32.6187 444.608 32.5883 444.645C32.5622 444.678 32.5362 444.71 32.5094 444.742C32.4824 444.774 32.4543 444.805 32.4266 444.836C32.3907 444.877 32.3542 444.918 32.3172 444.958C32.2913 444.986 32.2648 445.013 32.2384 445.04C32.043 445.243 31.8343 445.433 31.6124 445.607C31.5914 445.624 31.5706 445.64 31.5493 445.657C31.5083 445.688 31.467 445.719 31.4251 445.749C31.4001 445.767 31.3746 445.785 31.3492 445.802C30.9539 446.08 30.5246 446.311 30.0678 446.488C30.0609 446.491 30.054 446.494 30.0471 446.496C29.373 446.755 28.6418 446.9 27.8766 446.9C24.5318 446.9 21.8203 444.188 21.8203 440.843C21.8203 437.498 24.5318 434.787 27.8766 434.787ZM27.7267 438.375C26.7387 438.445 26.0434 439.024 26.05 439.859C26.05 440.584 26.5559 440.996 27.3876 441.189L27.7267 441.269V442.36C27.3076 442.314 27.0383 442.077 27.015 441.668H25.9239C25.9438 442.713 26.6389 443.258 27.7267 443.311V443.858H28.1131V443.311C29.1941 443.255 29.8226 442.716 29.8293 441.855C29.8226 441.083 29.2834 440.624 28.3586 440.417L28.1131 440.357V439.319C28.4589 439.369 28.6488 439.566 28.672 439.865H29.7632C29.7499 439.024 29.1176 438.438 28.1131 438.375V437.829H27.7267V438.375Z" fill="#56AFDF"/>
<path d="M36.9609 430.75C38.0759 430.75 38.9797 431.653 38.9797 432.768C38.9797 433.883 38.0759 434.787 36.9609 434.787C38.0759 434.787 38.9797 435.691 38.9797 436.806C38.9797 437.921 38.0759 438.825 36.9609 438.825C38.0759 438.825 38.9797 439.728 38.9797 440.843C38.9797 441.958 38.0759 442.862 36.9609 442.862L37.167 442.873C38.1851 442.976 38.9797 443.835 38.9797 444.881C38.9797 445.996 38.0759 446.9 36.9609 446.9H31.5168C33.5692 445.663 34.9422 443.414 34.9422 440.843C34.9422 437.033 31.9269 433.929 28.1526 433.784C27.9783 433.485 27.8766 433.139 27.8766 432.768C27.8766 431.653 28.7804 430.75 29.8953 430.75H36.9609Z" fill="#56AFDF"/>
<path d="M58.6163 425.547C58.6163 427.285 59.7587 429.085 61.3612 429.767L60.7572 430.638C59.5286 430.096 58.5588 428.945 58.0739 427.564C57.5891 429.044 56.6111 430.309 55.403 430.897L54.7579 430.026C56.3276 429.294 57.4904 427.334 57.4987 425.547V424.433H55.1236V423.521H60.9914V424.433H58.6163V425.547ZM62.3022 432.886V422.473H63.4117V432.886H62.3022ZM73.9878 429.155V432.886H72.8865V430.03H66.9283V429.155H73.9878ZM65.4614 425.563C65.4531 424.096 66.6201 423.048 68.1857 423.057C69.0692 423.052 69.8293 423.394 70.3142 423.961H72.8865V422.473H73.9878V428.612H72.8865V427.178H70.3183C69.8293 427.749 69.0733 428.094 68.1857 428.09C66.6201 428.094 65.4531 427.051 65.4614 425.563ZM66.5092 425.563C66.5092 426.521 67.2077 427.153 68.1857 427.153C69.1267 427.153 69.8417 426.521 69.8417 425.563C69.8417 424.634 69.1267 423.989 68.1857 423.989C67.2077 423.989 66.5092 424.634 66.5092 425.563ZM70.7991 426.278H72.8865V424.865H70.7991C70.8607 425.082 70.8977 425.317 70.8977 425.563C70.8977 425.814 70.8607 426.056 70.7991 426.278ZM82.5584 424.141C82.5584 425.506 83.5199 426.775 85.0732 427.285L84.4856 428.152C83.3433 427.749 82.4886 426.94 82.0324 425.912C81.5845 427.079 80.7011 427.996 79.4889 428.444L78.8931 427.568C80.5162 426.989 81.4572 425.596 81.4654 424.047V423.016H82.5584V424.141ZM80.2984 430.93C80.2984 429.717 81.6297 429.002 83.7911 429.002C85.9361 429.002 87.251 429.717 87.251 430.93C87.251 432.167 85.9361 432.869 83.7911 432.869C81.6297 432.869 80.2984 432.167 80.2984 430.93ZM81.4037 430.93C81.3955 431.62 82.2872 431.994 83.7911 432.002C85.291 431.994 86.1703 431.62 86.1703 430.93C86.1703 430.268 85.291 429.878 83.7911 429.878C82.2872 429.878 81.3955 430.268 81.4037 430.93ZM86.0512 428.756V422.473H87.1565V425.095H88.6646V426.015H87.1565V428.756H86.0512ZM98.1764 422.473V428.546H97.0751V425.925H95.1192V425.013H97.0751V422.473H98.1764ZM89.502 427.614C91.1046 427.063 92.1031 425.678 92.1031 424.248V424.002H89.8431V423.098H95.4644V424.002H93.2208V424.252C93.2208 425.551 94.1618 426.845 95.7315 427.388L95.1685 428.259C93.9933 427.852 93.1304 427.018 92.6784 425.986C92.2223 427.129 91.3142 428.045 90.0732 428.477L89.502 427.614ZM91.3018 432.754V429.027H98.1764V432.754H91.3018ZM92.4072 431.858H97.0957V429.906H92.4072V431.858ZM106.772 425.123C106.763 426.964 107.84 428.85 109.385 429.607L108.707 430.49C107.569 429.902 106.689 428.735 106.233 427.347C105.769 428.826 104.857 430.071 103.673 430.687L102.987 429.8C104.586 429.027 105.666 427.034 105.675 425.123V423.34H106.772V425.123ZM110.17 432.886V422.473H111.275V426.627H112.944V427.568H111.275V432.886H110.17ZM123.179 427.552V428.448H113.687V427.552H115.963V426.155C115.158 425.83 114.701 425.304 114.701 424.614C114.701 423.377 116.136 422.658 118.424 422.654C120.705 422.658 122.139 423.377 122.139 424.614C122.139 425.304 121.683 425.83 120.877 426.159V427.552H123.179ZM114.808 431.008C114.808 429.816 116.16 429.155 118.42 429.163C120.664 429.155 122.012 429.816 122.02 431.008C122.012 432.208 120.664 432.865 118.42 432.865C116.16 432.865 114.808 432.208 114.808 431.008ZM115.848 424.614C115.84 425.313 116.805 425.699 118.424 425.699C120.035 425.699 121.009 425.313 121.009 424.614C121.009 423.915 120.035 423.513 118.424 423.513C116.805 423.513 115.84 423.915 115.848 424.614ZM115.93 431.008C115.922 431.657 116.83 432.027 118.42 432.019C119.994 432.027 120.91 431.657 120.919 431.008C120.91 430.363 119.994 430.009 118.42 430.001C116.83 430.009 115.922 430.363 115.93 431.008ZM117.072 427.552H119.78V426.447C119.374 426.512 118.917 426.545 118.424 426.545C117.931 426.545 117.479 426.512 117.072 426.451V427.552Z" fill="#0A0F15"/>
<path d="M58.8793 449.211V450.28H55.14V449.211H58.8793ZM63.4641 453.415C61.8656 453.415 60.6699 452.445 60.6164 451.101H61.8615C61.9231 451.821 62.6094 452.342 63.4641 452.342C64.4831 452.342 65.2145 451.607 65.2145 450.604C65.2145 449.581 64.4585 448.837 63.4065 448.829C62.7244 448.825 62.2108 449.051 61.919 449.569H60.7151L61.2657 444.884H66.0323V445.981H62.3258L62.0382 448.332H62.1204C62.4738 448.003 63.0614 447.773 63.7024 447.773C65.2885 447.773 66.4596 448.944 66.4555 450.575C66.4596 452.227 65.2104 453.415 63.4641 453.415ZM69.2763 452.486L68.3436 455.7H67.3574L67.9779 452.486H69.2763ZM73.9133 453.415C72.3601 453.403 70.7329 452.482 70.737 449.371C70.737 446.442 72.0067 444.769 74.0202 444.769C75.5734 444.769 76.65 445.735 76.8472 447.07H75.5858C75.4132 446.384 74.8708 445.887 74.0202 445.887C72.7217 445.887 71.9656 447.021 71.9656 448.924H72.0601C72.5121 448.205 73.3052 447.785 74.2215 447.785C75.7214 447.785 76.9294 448.936 76.9294 450.547C76.9294 452.174 75.7255 453.427 73.9133 453.415ZM72.1218 450.584C72.1218 451.512 72.8696 452.342 73.9092 452.342C74.9242 452.342 75.6844 451.553 75.6885 450.567C75.6844 449.606 74.9488 448.821 73.9339 448.821C72.9107 448.821 72.13 449.643 72.1218 450.584ZM81.4505 453.435C79.5069 453.435 78.3605 451.853 78.3646 449.096C78.3646 446.355 79.5193 444.769 81.4505 444.769C83.3859 444.769 84.5406 446.36 84.5406 449.096C84.5406 451.853 83.3983 453.435 81.4505 453.435ZM79.6384 449.096C79.6343 451.196 80.3164 452.334 81.4505 452.334C82.5888 452.334 83.2668 451.196 83.2668 449.096C83.2668 447.001 82.5806 445.858 81.4505 445.858C80.3246 445.858 79.6384 447.001 79.6384 449.096ZM89.0331 453.435C87.0895 453.435 85.943 451.853 85.9471 449.096C85.9471 446.355 87.1018 444.769 89.0331 444.769C90.9685 444.769 92.1231 446.36 92.1231 449.096C92.1231 451.853 90.9808 453.435 89.0331 453.435ZM87.221 449.096C87.2168 451.196 87.899 452.334 89.0331 452.334C90.1713 452.334 90.8493 451.196 90.8493 449.096C90.8493 447.001 90.1631 445.858 89.0331 445.858C87.9072 445.858 87.221 447.001 87.221 449.096ZM101.994 443.882V451.779H100.885V450.781H98.7893V450H100.885V443.882H101.994ZM93.279 448.636C95.2062 448.624 97.8031 448.603 100.022 448.324L100.096 449.121C99.2002 449.269 98.2675 449.363 97.347 449.421V451.455H96.2458V449.482C95.2349 449.519 94.2652 449.528 93.4187 449.524L93.279 448.636ZM94.0926 446.113C94.0926 445.016 95.1445 444.28 96.6896 444.28C98.2099 444.28 99.266 445.016 99.2742 446.113C99.266 447.227 98.2099 447.929 96.6896 447.929C95.1445 447.929 94.0926 447.227 94.0926 446.113ZM94.7213 454.072V451.007H95.8225V453.168H102.241V454.072H94.7213ZM95.1404 446.113C95.1363 446.733 95.765 447.12 96.6896 447.12C97.5771 447.12 98.2141 446.733 98.2223 446.113C98.2141 445.497 97.5771 445.098 96.6896 445.102C95.765 445.098 95.1363 445.497 95.1404 446.113Z" fill="#0A0F15"/>
<mask id="path-24-inside-3_4723_2912" fill="white">
<path d="M0 527.699H326.4V587.499H0V527.699Z"/>
</mask>
<path d="M326.4 587.499V585.799H0V587.499V589.199H326.4V587.499Z" fill="#EBF0F4" mask="url(#path-24-inside-3_4723_2912)"/>
<path d="M28.1131 560.362C28.4954 560.475 28.6713 560.618 28.6779 560.854C28.6713 561.114 28.4655 561.306 28.1131 561.36V560.362Z" fill="#56AFDF"/>
<path d="M27.7267 559.264C27.414 559.168 27.2144 559.024 27.2211 558.778C27.2277 558.545 27.3941 558.369 27.7267 558.319V559.264Z" fill="#56AFDF"/>
<path fill-rule="evenodd" clip-rule="evenodd" d="M27.8766 553.787C28.3181 553.787 28.7483 553.835 29.1629 553.925C29.1781 553.928 29.1941 553.932 29.2093 553.935C29.5102 554.003 29.8024 554.093 30.0846 554.203C30.1141 554.215 30.1439 554.226 30.1733 554.238C30.234 554.263 30.294 554.289 30.3537 554.316C30.3725 554.324 30.3912 554.333 30.4099 554.341C30.4645 554.367 30.5187 554.393 30.5725 554.419C30.6082 554.437 30.6437 554.455 30.679 554.474C30.7273 554.499 30.7753 554.525 30.8229 554.551C30.8399 554.561 30.8563 554.571 30.8731 554.581C31.1045 554.713 31.3265 554.859 31.5375 555.02C31.5916 555.061 31.6456 555.102 31.6982 555.145C31.7336 555.174 31.7679 555.204 31.8027 555.234C31.836 555.262 31.8695 555.29 31.9022 555.319C31.9359 555.349 31.9688 555.38 32.0018 555.411C32.0416 555.448 32.0813 555.485 32.1201 555.523C32.1425 555.545 32.1641 555.568 32.1861 555.59C32.2217 555.626 32.2569 555.663 32.2916 555.7C32.3236 555.734 32.356 555.768 32.3872 555.802C32.4193 555.838 32.4496 555.875 32.4808 555.912C32.5079 555.943 32.5362 555.974 32.5627 556.006C32.6775 556.146 32.7858 556.292 32.8879 556.442C32.9113 556.476 32.9333 556.512 32.956 556.547C32.9773 556.579 32.9993 556.612 33.02 556.645C33.0524 556.697 33.0829 556.75 33.1137 556.803C33.1303 556.831 33.1468 556.86 33.163 556.889C33.1882 556.934 33.2128 556.979 33.2369 557.025C33.2565 557.062 33.2752 557.099 33.2941 557.137C33.3146 557.178 33.3356 557.219 33.3552 557.26C33.376 557.304 33.3956 557.349 33.4153 557.393C33.4307 557.428 33.4469 557.463 33.4616 557.498C33.4831 557.549 33.5026 557.601 33.5228 557.653C33.5378 557.691 33.5538 557.73 33.5681 557.769C33.5944 557.841 33.6184 557.914 33.642 557.988C33.6506 558.014 33.6595 558.041 33.6677 558.067C33.6912 558.144 33.7132 558.222 33.7337 558.3C33.7406 558.326 33.7469 558.353 33.7534 558.379C33.7685 558.44 33.7826 558.501 33.7958 558.562C33.8038 558.6 33.8111 558.637 33.8185 558.675C33.8304 558.736 33.8419 558.797 33.852 558.858C33.8585 558.898 33.864 558.937 33.8697 558.977C33.8773 559.03 33.8842 559.084 33.8904 559.137C33.8945 559.172 33.8988 559.207 33.9023 559.242C33.9086 559.307 33.9137 559.371 33.918 559.436C33.9205 559.473 33.9231 559.51 33.9249 559.547C33.9296 559.645 33.9328 559.744 33.9328 559.843C33.9328 559.936 33.9301 560.029 33.9259 560.121C33.9249 560.143 33.9232 560.166 33.922 560.189C33.9174 560.269 33.9119 560.35 33.9042 560.429C33.9018 560.455 33.8981 560.48 33.8954 560.505C33.8878 560.575 33.8797 560.644 33.8697 560.713C33.8653 560.744 33.8608 560.774 33.8559 560.805C33.8473 560.859 33.8373 560.912 33.8273 560.966C33.8187 561.011 33.8094 561.057 33.7997 561.103C33.7883 561.156 33.7761 561.21 33.7633 561.263C33.7544 561.3 33.7462 561.337 33.7367 561.374C33.7242 561.422 33.7108 561.469 33.6972 561.517C33.6744 561.596 33.6493 561.675 33.6233 561.753C33.6087 561.797 33.5945 561.841 33.5789 561.884C33.5642 561.925 33.5482 561.966 33.5326 562.006C33.5136 562.056 33.4947 562.105 33.4745 562.154C33.4587 562.192 33.4426 562.23 33.4262 562.268C33.4076 562.31 33.3885 562.352 33.369 562.394C33.3505 562.433 33.3321 562.473 33.3128 562.512C33.2878 562.563 33.2622 562.613 33.2359 562.663C33.2201 562.693 33.2039 562.723 33.1876 562.753C33.1685 562.787 33.1483 562.822 33.1285 562.856C33.0378 563.014 32.9407 563.167 32.8367 563.315C32.8092 563.355 32.7813 563.393 32.7529 563.432C32.7284 563.465 32.7032 563.498 32.678 563.53C32.6484 563.569 32.6187 563.607 32.5883 563.645C32.5622 563.677 32.5362 563.709 32.5094 563.741C32.4824 563.773 32.4543 563.804 32.4266 563.836C32.3907 563.877 32.3542 563.917 32.3172 563.957C32.2913 563.985 32.2648 564.012 32.2384 564.04C32.043 564.243 31.8343 564.433 31.6124 564.607C31.5914 564.623 31.5706 564.64 31.5493 564.656C31.5083 564.687 31.467 564.718 31.4251 564.749C31.4001 564.767 31.3746 564.784 31.3492 564.802C30.9539 565.079 30.5246 565.311 30.0678 565.488C30.0609 565.491 30.054 565.493 30.0471 565.496C29.373 565.755 28.6418 565.899 27.8766 565.899C24.5318 565.899 21.8203 563.188 21.8203 559.843C21.8203 556.498 24.5318 553.787 27.8766 553.787ZM27.7267 557.375C26.7387 557.444 26.0434 558.023 26.05 558.858C26.05 559.583 26.5559 559.996 27.3876 560.189L27.7267 560.269V561.36C27.3076 561.313 27.0383 561.077 27.015 560.668H25.9239C25.9438 561.712 26.6389 562.258 27.7267 562.311V562.857H28.1131V562.311C29.1941 562.254 29.8226 561.716 29.8293 560.854C29.8226 560.082 29.2834 559.623 28.3586 559.417L28.1131 559.357V558.319C28.4589 558.369 28.6488 558.566 28.672 558.865H29.7632C29.7499 558.023 29.1176 557.438 28.1131 557.375V556.828H27.7267V557.375Z" fill="#56AFDF"/>
<path d="M36.9609 549.749C38.0759 549.749 38.9797 550.653 38.9797 551.768C38.9797 552.883 38.0759 553.787 36.9609 553.787C38.0759 553.787 38.9797 554.69 38.9797 555.805C38.9797 556.92 38.0759 557.824 36.9609 557.824C38.0759 557.824 38.9797 558.728 38.9797 559.843C38.9797 560.958 38.0759 561.862 36.9609 561.862L37.167 561.872C38.1851 561.976 38.9797 562.835 38.9797 563.88C38.9797 564.995 38.0759 565.899 36.9609 565.899H31.5168C33.5692 564.663 34.9422 562.413 34.9422 559.843C34.9422 556.033 31.9269 552.928 28.1526 552.783C27.9783 552.485 27.8766 552.138 27.8766 551.768C27.8766 550.653 28.7804 549.749 29.8953 549.749H36.9609Z" fill="#56AFDF"/>
<path d="M58.6163 544.547C58.6163 546.285 59.7587 548.085 61.3612 548.767L60.7572 549.638C59.5286 549.096 58.5588 547.945 58.0739 546.564C57.5891 548.044 56.6111 549.309 55.403 549.897L54.7579 549.026C56.3276 548.294 57.4904 546.334 57.4987 544.547V543.433H55.1236V542.521H60.9914V543.433H58.6163V544.547ZM62.3022 551.886V541.473H63.4117V551.886H62.3022ZM73.9878 548.155V551.886H72.8865V549.03H66.9283V548.155H73.9878ZM65.4614 544.563C65.4531 543.096 66.6201 542.048 68.1857 542.057C69.0692 542.052 69.8293 542.394 70.3142 542.961H72.8865V541.473H73.9878V547.612H72.8865V546.178H70.3183C69.8293 546.749 69.0733 547.094 68.1857 547.09C66.6201 547.094 65.4531 546.051 65.4614 544.563ZM66.5092 544.563C66.5092 545.521 67.2077 546.153 68.1857 546.153C69.1267 546.153 69.8417 545.521 69.8417 544.563C69.8417 543.634 69.1267 542.989 68.1857 542.989C67.2077 542.989 66.5092 543.634 66.5092 544.563ZM70.7991 545.278H72.8865V543.865H70.7991C70.8607 544.082 70.8977 544.317 70.8977 544.563C70.8977 544.814 70.8607 545.056 70.7991 545.278ZM82.5584 543.141C82.5584 544.506 83.5199 545.775 85.0732 546.285L84.4856 547.152C83.3433 546.749 82.4886 545.94 82.0324 544.912C81.5845 546.079 80.7011 546.996 79.4889 547.444L78.8931 546.568C80.5162 545.989 81.4572 544.596 81.4654 543.047V542.016H82.5584V543.141ZM80.2984 549.93C80.2984 548.717 81.6297 548.002 83.7911 548.002C85.9361 548.002 87.251 548.717 87.251 549.93C87.251 551.167 85.9361 551.869 83.7911 551.869C81.6297 551.869 80.2984 551.167 80.2984 549.93ZM81.4037 549.93C81.3955 550.62 82.2872 550.994 83.7911 551.002C85.291 550.994 86.1703 550.62 86.1703 549.93C86.1703 549.268 85.291 548.878 83.7911 548.878C82.2872 548.878 81.3955 549.268 81.4037 549.93ZM86.0512 547.756V541.473H87.1565V544.095H88.6646V545.015H87.1565V547.756H86.0512ZM98.1764 541.473V547.546H97.0751V544.925H95.1192V544.013H97.0751V541.473H98.1764ZM89.502 546.614C91.1046 546.063 92.1031 544.678 92.1031 543.248V543.002H89.8431V542.098H95.4644V543.002H93.2208V543.252C93.2208 544.551 94.1618 545.845 95.7315 546.388L95.1685 547.259C93.9933 546.852 93.1304 546.018 92.6784 544.986C92.2223 546.129 91.3142 547.045 90.0732 547.477L89.502 546.614ZM91.3018 551.754V548.027H98.1764V551.754H91.3018ZM92.4072 550.858H97.0957V548.906H92.4072V550.858ZM106.772 544.123C106.763 545.964 107.84 547.85 109.385 548.607L108.707 549.49C107.569 548.902 106.689 547.735 106.233 546.347C105.769 547.826 104.857 549.071 103.673 549.687L102.987 548.8C104.586 548.027 105.666 546.034 105.675 544.123V542.34H106.772V544.123ZM110.17 551.886V541.473H111.275V545.627H112.944V546.568H111.275V551.886H110.17ZM123.179 546.552V547.448H113.687V546.552H115.963V545.155C115.158 544.83 114.701 544.304 114.701 543.614C114.701 542.377 116.136 541.658 118.424 541.654C120.705 541.658 122.139 542.377 122.139 543.614C122.139 544.304 121.683 544.83 120.877 545.159V546.552H123.179ZM114.808 550.008C114.808 548.816 116.16 548.155 118.42 548.163C120.664 548.155 122.012 548.816 122.02 550.008C122.012 551.208 120.664 551.865 118.42 551.865C116.16 551.865 114.808 551.208 114.808 550.008ZM115.848 543.614C115.84 544.313 116.805 544.699 118.424 544.699C120.035 544.699 121.009 544.313 121.009 543.614C121.009 542.915 120.035 542.513 118.424 542.513C116.805 542.513 115.84 542.915 115.848 543.614ZM115.93 550.008C115.922 550.657 116.83 551.027 118.42 551.019C119.994 551.027 120.91 550.657 120.919 550.008C120.91 549.363 119.994 549.009 118.42 549.001C116.83 549.009 115.922 549.363 115.93 550.008ZM117.072 546.552H119.78V545.447C119.374 545.512 118.917 545.545 118.424 545.545C117.931 545.545 117.479 545.512 117.072 545.451V546.552Z" fill="#0A0F15"/>
<path d="M58.8793 568.211V569.28H55.14V568.211H58.8793ZM63.4641 572.415C61.8656 572.415 60.6699 571.445 60.6164 570.101H61.8615C61.9231 570.821 62.6094 571.342 63.4641 571.342C64.4831 571.342 65.2145 570.607 65.2145 569.604C65.2145 568.581 64.4585 567.837 63.4065 567.829C62.7244 567.825 62.2108 568.051 61.919 568.569H60.7151L61.2657 563.884H66.0323V564.981H62.3258L62.0382 567.332H62.1204C62.4738 567.003 63.0614 566.773 63.7024 566.773C65.2885 566.773 66.4596 567.944 66.4555 569.575C66.4596 571.227 65.2104 572.415 63.4641 572.415ZM69.2763 571.486L68.3436 574.7H67.3574L67.9779 571.486H69.2763ZM73.9133 572.415C72.3601 572.403 70.7329 571.482 70.737 568.371C70.737 565.442 72.0067 563.769 74.0202 563.769C75.5734 563.769 76.65 564.735 76.8472 566.07H75.5858C75.4132 565.384 74.8708 564.887 74.0202 564.887C72.7217 564.887 71.9656 566.021 71.9656 567.924H72.0601C72.5121 567.205 73.3052 566.785 74.2215 566.785C75.7214 566.785 76.9294 567.936 76.9294 569.547C76.9294 571.174 75.7255 572.427 73.9133 572.415ZM72.1218 569.584C72.1218 570.512 72.8696 571.342 73.9092 571.342C74.9242 571.342 75.6844 570.553 75.6885 569.567C75.6844 568.606 74.9488 567.821 73.9339 567.821C72.9107 567.821 72.13 568.643 72.1218 569.584ZM81.4505 572.435C79.5069 572.435 78.3605 570.853 78.3646 568.096C78.3646 565.355 79.5193 563.769 81.4505 563.769C83.3859 563.769 84.5406 565.36 84.5406 568.096C84.5406 570.853 83.3983 572.435 81.4505 572.435ZM79.6384 568.096C79.6343 570.196 80.3164 571.334 81.4505 571.334C82.5888 571.334 83.2668 570.196 83.2668 568.096C83.2668 566.001 82.5806 564.858 81.4505 564.858C80.3246 564.858 79.6384 566.001 79.6384 568.096ZM89.0331 572.435C87.0895 572.435 85.943 570.853 85.9471 568.096C85.9471 565.355 87.1018 563.769 89.0331 563.769C90.9685 563.769 92.1231 565.36 92.1231 568.096C92.1231 570.853 90.9808 572.435 89.0331 572.435ZM87.221 568.096C87.2168 570.196 87.899 571.334 89.0331 571.334C90.1713 571.334 90.8493 570.196 90.8493 568.096C90.8493 566.001 90.1631 564.858 89.0331 564.858C87.9072 564.858 87.221 566.001 87.221 568.096ZM101.994 562.882V570.779H100.885V569.781H98.7893V569H100.885V562.882H101.994ZM93.279 567.636C95.2062 567.624 97.8031 567.603 100.022 567.324L100.096 568.121C99.2002 568.269 98.2675 568.363 97.347 568.421V570.455H96.2458V568.482C95.2349 568.519 94.2652 568.528 93.4187 568.524L93.279 567.636ZM94.0926 565.113C94.0926 564.016 95.1445 563.28 96.6896 563.28C98.2099 563.28 99.266 564.016 99.2742 565.113C99.266 566.227 98.2099 566.929 96.6896 566.929C95.1445 566.929 94.0926 566.227 94.0926 565.113ZM94.7213 573.072V570.007H95.8225V572.168H102.241V573.072H94.7213ZM95.1404 565.113C95.1363 565.733 95.765 566.12 96.6896 566.12C97.5771 566.12 98.2141 565.733 98.2223 565.113C98.2141 564.497 97.5771 564.098 96.6896 564.102C95.765 564.098 95.1363 564.497 95.1404 565.113Z" fill="#0A0F15"/>
<mask id="path-29-inside-4_4723_2912" fill="white">
<path d="M0 468.199H326.4V527.999H0V468.199Z"/>
</mask>
<path d="M326.4 527.999V526.299H0V527.999V529.699H326.4V527.999Z" fill="#EBF0F4" mask="url(#path-29-inside-4_4723_2912)"/>
<path d="M28.1131 500.862C28.4954 500.975 28.6713 501.118 28.6779 501.354C28.6713 501.614 28.4655 501.806 28.1131 501.86V500.862Z" fill="#56AFDF"/>
<path d="M27.7267 499.764C27.414 499.668 27.2144 499.524 27.2211 499.278C27.2277 499.045 27.3941 498.869 27.7267 498.819V499.764Z" fill="#56AFDF"/>
<path fill-rule="evenodd" clip-rule="evenodd" d="M27.8766 494.287C28.3181 494.287 28.7483 494.335 29.1629 494.425C29.1781 494.428 29.1941 494.432 29.2093 494.435C29.5102 494.503 29.8024 494.593 30.0846 494.703C30.1141 494.715 30.1439 494.726 30.1733 494.738C30.234 494.763 30.294 494.789 30.3537 494.816C30.3725 494.824 30.3912 494.833 30.4099 494.841C30.4645 494.867 30.5187 494.893 30.5725 494.919C30.6082 494.937 30.6437 494.955 30.679 494.974C30.7273 494.999 30.7753 495.025 30.8229 495.051C30.8399 495.061 30.8563 495.071 30.8731 495.081C31.1045 495.213 31.3265 495.359 31.5375 495.52C31.5916 495.561 31.6456 495.602 31.6982 495.645C31.7336 495.674 31.7679 495.704 31.8027 495.734C31.836 495.762 31.8695 495.79 31.9022 495.819C31.9359 495.849 31.9688 495.88 32.0018 495.911C32.0416 495.948 32.0813 495.985 32.1201 496.023C32.1425 496.045 32.1641 496.068 32.1861 496.09C32.2217 496.126 32.2569 496.163 32.2916 496.2C32.3236 496.234 32.356 496.268 32.3872 496.302C32.4193 496.338 32.4496 496.375 32.4808 496.412C32.5079 496.443 32.5362 496.474 32.5627 496.506C32.6775 496.646 32.7858 496.792 32.8879 496.942C32.9113 496.976 32.9333 497.012 32.956 497.047C32.9773 497.079 32.9993 497.112 33.02 497.145C33.0524 497.197 33.0829 497.25 33.1137 497.303C33.1303 497.331 33.1468 497.36 33.163 497.389C33.1882 497.434 33.2128 497.479 33.2369 497.525C33.2565 497.562 33.2752 497.599 33.2941 497.637C33.3146 497.678 33.3356 497.719 33.3552 497.76C33.376 497.804 33.3956 497.849 33.4153 497.893C33.4307 497.928 33.4469 497.963 33.4616 497.998C33.4831 498.049 33.5026 498.101 33.5228 498.153C33.5378 498.191 33.5538 498.23 33.5681 498.269C33.5944 498.341 33.6184 498.414 33.642 498.488C33.6506 498.514 33.6595 498.541 33.6677 498.567C33.6912 498.644 33.7132 498.722 33.7337 498.8C33.7406 498.826 33.7469 498.853 33.7534 498.879C33.7685 498.94 33.7826 499.001 33.7958 499.062C33.8038 499.1 33.8111 499.137 33.8185 499.175C33.8304 499.236 33.8419 499.297 33.852 499.358C33.8585 499.398 33.864 499.437 33.8697 499.477C33.8773 499.53 33.8842 499.584 33.8904 499.637C33.8945 499.672 33.8988 499.707 33.9023 499.742C33.9086 499.807 33.9137 499.871 33.918 499.936C33.9205 499.973 33.9231 500.01 33.9249 500.047C33.9296 500.145 33.9328 500.244 33.9328 500.343C33.9328 500.436 33.9301 500.529 33.9259 500.621C33.9249 500.643 33.9232 500.666 33.922 500.689C33.9174 500.769 33.9119 500.85 33.9042 500.929C33.9018 500.955 33.8981 500.98 33.8954 501.005C33.8878 501.075 33.8797 501.144 33.8697 501.213C33.8653 501.244 33.8608 501.274 33.8559 501.305C33.8473 501.359 33.8373 501.412 33.8273 501.466C33.8187 501.511 33.8094 501.557 33.7997 501.603C33.7883 501.656 33.7761 501.71 33.7633 501.763C33.7544 501.8 33.7462 501.837 33.7367 501.874C33.7242 501.922 33.7108 501.969 33.6972 502.017C33.6744 502.096 33.6493 502.175 33.6233 502.253C33.6087 502.297 33.5945 502.341 33.5789 502.384C33.5642 502.425 33.5482 502.466 33.5326 502.506C33.5136 502.556 33.4947 502.605 33.4745 502.654C33.4587 502.692 33.4426 502.73 33.4262 502.768C33.4076 502.81 33.3885 502.852 33.369 502.894C33.3505 502.933 33.3321 502.973 33.3128 503.012C33.2878 503.063 33.2622 503.113 33.2359 503.163C33.2201 503.193 33.2039 503.223 33.1876 503.253C33.1685 503.287 33.1483 503.322 33.1285 503.356C33.0378 503.514 32.9407 503.667 32.8367 503.815C32.8092 503.855 32.7813 503.893 32.7529 503.932C32.7284 503.965 32.7032 503.998 32.678 504.03C32.6484 504.069 32.6187 504.107 32.5883 504.145C32.5622 504.177 32.5362 504.209 32.5094 504.241C32.4824 504.273 32.4543 504.304 32.4266 504.336C32.3907 504.377 32.3542 504.417 32.3172 504.457C32.2913 504.485 32.2648 504.512 32.2384 504.54C32.043 504.743 31.8343 504.933 31.6124 505.107C31.5914 505.123 31.5706 505.14 31.5493 505.156C31.5083 505.187 31.467 505.218 31.4251 505.249C31.4001 505.267 31.3746 505.284 31.3492 505.302C30.9539 505.579 30.5246 505.811 30.0678 505.988C30.0609 505.991 30.054 505.993 30.0471 505.996C29.373 506.255 28.6418 506.399 27.8766 506.399C24.5318 506.399 21.8203 503.688 21.8203 500.343C21.8203 496.998 24.5318 494.287 27.8766 494.287ZM27.7267 497.875C26.7387 497.944 26.0434 498.523 26.05 499.358C26.05 500.083 26.5559 500.496 27.3876 500.689L27.7267 500.769V501.86C27.3076 501.813 27.0383 501.577 27.015 501.168H25.9239C25.9438 502.212 26.6389 502.758 27.7267 502.811V503.357H28.1131V502.811C29.1941 502.754 29.8226 502.216 29.8293 501.354C29.8226 500.582 29.2834 500.123 28.3586 499.917L28.1131 499.857V498.819C28.4589 498.869 28.6488 499.066 28.672 499.365H29.7632C29.7499 498.523 29.1176 497.938 28.1131 497.875V497.328H27.7267V497.875Z" fill="#56AFDF"/>
<path d="M36.9609 490.249C38.0759 490.249 38.9797 491.153 38.9797 492.268C38.9797 493.383 38.0759 494.287 36.9609 494.287C38.0759 494.287 38.9797 495.19 38.9797 496.305C38.9797 497.42 38.0759 498.324 36.9609 498.324C38.0759 498.324 38.9797 499.228 38.9797 500.343C38.9797 501.458 38.0759 502.362 36.9609 502.362L37.167 502.372C38.1851 502.476 38.9797 503.335 38.9797 504.38C38.9797 505.495 38.0759 506.399 36.9609 506.399H31.5168C33.5692 505.163 34.9422 502.913 34.9422 500.343C34.9422 496.533 31.9269 493.428 28.1526 493.283C27.9783 492.985 27.8766 492.638 27.8766 492.268C27.8766 491.153 28.7804 490.249 29.8953 490.249H36.9609Z" fill="#56AFDF"/>
<path d="M58.6163 485.047C58.6163 486.785 59.7587 488.585 61.3612 489.267L60.7572 490.138C59.5286 489.596 58.5588 488.445 58.0739 487.064C57.5891 488.544 56.6111 489.809 55.403 490.397L54.7579 489.526C56.3276 488.794 57.4904 486.834 57.4987 485.047V483.933H55.1236V483.021H60.9914V483.933H58.6163V485.047ZM62.3022 492.386V481.973H63.4117V492.386H62.3022ZM73.9878 488.655V492.386H72.8865V489.53H66.9283V488.655H73.9878ZM65.4614 485.063C65.4531 483.596 66.6201 482.548 68.1857 482.557C69.0692 482.552 69.8293 482.894 70.3142 483.461H72.8865V481.973H73.9878V488.112H72.8865V486.678H70.3183C69.8293 487.249 69.0733 487.594 68.1857 487.59C66.6201 487.594 65.4531 486.551 65.4614 485.063ZM66.5092 485.063C66.5092 486.021 67.2077 486.653 68.1857 486.653C69.1267 486.653 69.8417 486.021 69.8417 485.063C69.8417 484.134 69.1267 483.489 68.1857 483.489C67.2077 483.489 66.5092 484.134 66.5092 485.063ZM70.7991 485.778H72.8865V484.365H70.7991C70.8607 484.582 70.8977 484.817 70.8977 485.063C70.8977 485.314 70.8607 485.556 70.7991 485.778ZM87.1647 481.973V484.57H88.6481V485.503H87.1647V488.112H86.0635V481.973H87.1647ZM78.9013 487.118C79.7108 487.118 80.6477 487.118 81.6256 487.089V486.505C80.4299 486.399 79.682 485.914 79.6902 485.137C79.682 484.287 80.66 483.789 82.1639 483.789C83.6679 483.789 84.6376 484.287 84.6458 485.137C84.6376 485.91 83.9062 486.39 82.7269 486.505V487.052C83.6597 487.007 84.5965 486.933 85.4718 486.814L85.5581 487.525C83.3227 487.898 80.849 487.911 79.0246 487.911L78.9013 487.118ZM79.1684 483.489V482.721H81.6256V481.879H82.7269V482.721H85.1759V483.489H79.1684ZM80.2902 489.312V488.552H87.1647V490.721H81.4079V491.519H87.5469V492.287H80.3107V490.019H86.0717V489.312H80.2902ZM80.7422 485.137C80.7381 485.556 81.2805 485.807 82.1639 485.807C83.0474 485.807 83.5898 485.556 83.5898 485.137C83.5898 484.734 83.0474 484.508 82.1639 484.504C81.2805 484.508 80.7381 484.734 80.7422 485.137ZM99.0023 487.04V487.923H89.4979V487.04H93.7098V485.934H90.6814V482.454H97.8312V483.325H91.7744V485.051H97.8929V485.934H94.7864V487.04H99.0023ZM90.6197 490.495C90.6197 489.287 91.9757 488.605 94.2316 488.605C96.4752 488.605 97.823 489.287 97.8312 490.495C97.823 491.699 96.4752 492.377 94.2316 492.386C91.9757 492.377 90.6197 491.699 90.6197 490.495ZM91.7415 490.495C91.7333 491.161 92.6414 491.527 94.2316 491.519C95.8054 491.527 96.7218 491.161 96.73 490.495C96.7218 489.834 95.8054 489.456 94.2316 489.456C92.6414 489.456 91.7333 489.834 91.7415 490.495ZM112.693 490.183V491.095H103.164V490.183H107.355V488.046H104.249V482.684H105.354V484.48H110.466V482.684H111.563V488.046H108.448V490.183H112.693ZM105.354 487.151H110.466V485.367H105.354V487.151ZM117.27 483.641C117.27 485.006 118.231 486.275 119.784 486.785L119.197 487.652C118.055 487.249 117.2 486.44 116.744 485.412C116.296 486.579 115.412 487.496 114.2 487.944L113.604 487.068C115.227 486.489 116.168 485.096 116.177 483.547V482.516H117.27V483.641ZM115.01 490.43C115.01 489.217 116.341 488.502 118.502 488.502C120.647 488.502 121.962 489.217 121.962 490.43C121.962 491.667 120.647 492.369 118.502 492.369C116.341 492.369 115.01 491.667 115.01 490.43ZM116.115 490.43C116.107 491.12 116.998 491.494 118.502 491.502C120.002 491.494 120.882 491.12 120.882 490.43C120.882 489.768 120.002 489.378 118.502 489.378C116.998 489.378 116.107 489.768 116.115 490.43ZM120.762 488.256V481.973H121.868V484.595H123.376V485.515H121.868V488.256H120.762Z" fill="#0A0F15"/>
<path d="M57.6219 512.27V510.043H55.403V508.929H57.6219V506.706H58.7396V508.929H60.9668V510.043H58.7396V512.27H57.6219ZM62.6105 512.8L62.6064 511.871L65.5238 508.925C66.4484 507.967 66.9086 507.437 66.9127 506.698C66.9086 505.868 66.2347 505.342 65.3512 505.342C64.4185 505.342 63.8227 505.929 63.8227 506.829H62.6064C62.6022 505.288 63.7733 504.269 65.3759 504.269C66.999 504.269 68.1208 505.297 68.129 506.661C68.1208 507.602 67.677 508.354 66.0991 509.903L64.3897 511.641V511.703H68.2646V512.8H62.6105ZM72.7898 512.915C71.1913 512.915 69.9956 511.945 69.9421 510.601H71.1872C71.2488 511.321 71.9351 511.842 72.7898 511.842C73.8088 511.842 74.5402 511.107 74.5402 510.104C74.5402 509.081 73.7842 508.337 72.7322 508.329C72.0501 508.325 71.5365 508.551 71.2447 509.069H70.0408L70.5914 504.384H75.358V505.481H71.6515L71.3639 507.832H71.4461C71.7995 507.503 72.3871 507.273 73.0281 507.273C74.6142 507.273 75.7853 508.444 75.7812 510.075C75.7853 511.727 74.5361 512.915 72.7898 512.915ZM78.602 511.986L77.6693 515.2H76.6831L77.3036 511.986H78.602ZM83.124 512.935C81.1804 512.935 80.0339 511.353 80.038 508.596C80.038 505.855 81.1927 504.269 83.124 504.269C85.0594 504.269 86.214 505.86 86.214 508.596C86.214 511.353 85.0717 512.935 83.124 512.935ZM81.3119 508.596C81.3078 510.696 81.9899 511.834 83.124 511.834C84.2622 511.834 84.9402 510.696 84.9402 508.596C84.9402 506.501 84.254 505.358 83.124 505.358C81.9981 505.358 81.3119 506.501 81.3119 508.596ZM90.7065 512.935C88.7629 512.935 87.6165 511.353 87.6206 508.596C87.6206 505.855 88.7752 504.269 90.7065 504.269C92.6419 504.269 93.7966 505.86 93.7966 508.596C93.7966 511.353 92.6542 512.935 90.7065 512.935ZM88.8944 508.596C88.8903 510.696 89.5724 511.834 90.7065 511.834C91.8447 511.834 92.5227 510.696 92.5227 508.596C92.5227 506.501 91.8365 505.358 90.7065 505.358C89.5806 505.358 88.8944 506.501 88.8944 508.596ZM98.289 512.935C96.3454 512.935 95.199 511.353 95.2031 508.596C95.2031 505.855 96.3578 504.269 98.289 504.269C100.224 504.269 101.379 505.86 101.379 508.596C101.379 511.353 100.237 512.935 98.289 512.935ZM96.4769 508.596C96.4728 510.696 97.1549 511.834 98.289 511.834C99.4273 511.834 100.105 510.696 100.105 508.596C100.105 506.501 99.419 505.358 98.289 505.358C97.1631 505.358 96.4769 506.501 96.4769 508.596ZM111.25 503.382V511.279H110.141V510.281H108.045V509.5H110.141V503.382H111.25ZM102.535 508.136C104.462 508.124 107.059 508.103 109.278 507.824L109.352 508.621C108.456 508.769 107.523 508.863 106.603 508.921V510.955H105.502V508.982C104.491 509.019 103.521 509.028 102.675 509.024L102.535 508.136ZM103.349 505.613C103.349 504.516 104.401 503.78 105.946 503.78C107.466 503.78 108.522 504.516 108.53 505.613C108.522 506.727 107.466 507.429 105.946 507.429C104.401 507.429 103.349 506.727 103.349 505.613ZM103.977 513.572V510.507H105.079V512.668H111.497V513.572H103.977ZM104.396 505.613C104.392 506.233 105.021 506.62 105.946 506.62C106.833 506.62 107.47 506.233 107.478 505.613C107.47 504.997 106.833 504.598 105.946 504.602C105.021 504.598 104.392 504.997 104.396 505.613Z" fill="#0A0F15"/>
<mask id="path-34-inside-5_4723_2912" fill="white">
<path d="M0 587.199H326.4V646.999H0V587.199Z"/>
</mask>
<path d="M326.4 646.999V645.299H0V646.999V648.699H326.4V646.999Z" fill="#EBF0F4" mask="url(#path-34-inside-5_4723_2912)"/>
<path d="M28.1131 619.862C28.4954 619.975 28.6713 620.118 28.6779 620.354C28.6713 620.614 28.4655 620.806 28.1131 620.86V619.862Z" fill="#56AFDF"/>
<path d="M27.7267 618.764C27.414 618.668 27.2144 618.524 27.2211 618.278C27.2277 618.045 27.3941 617.869 27.7267 617.819V618.764Z" fill="#56AFDF"/>
<path fill-rule="evenodd" clip-rule="evenodd" d="M27.8766 613.287C28.3181 613.287 28.7483 613.335 29.1629 613.425C29.1781 613.428 29.1941 613.432 29.2093 613.435C29.5102 613.503 29.8024 613.593 30.0846 613.703C30.1141 613.715 30.1439 613.726 30.1733 613.738C30.234 613.763 30.294 613.789 30.3537 613.816C30.3725 613.824 30.3912 613.833 30.4099 613.841C30.4645 613.867 30.5187 613.893 30.5725 613.919C30.6082 613.937 30.6437 613.955 30.679 613.974C30.7273 613.999 30.7753 614.025 30.8229 614.051C30.8399 614.061 30.8563 614.071 30.8731 614.081C31.1045 614.213 31.3265 614.359 31.5375 614.52C31.5916 614.561 31.6456 614.602 31.6982 614.645C31.7336 614.674 31.7679 614.704 31.8027 614.734C31.836 614.762 31.8695 614.79 31.9022 614.819C31.9359 614.849 31.9688 614.88 32.0018 614.911C32.0416 614.948 32.0813 614.985 32.1201 615.023C32.1425 615.045 32.1641 615.068 32.1861 615.09C32.2217 615.126 32.2569 615.163 32.2916 615.2C32.3236 615.234 32.356 615.268 32.3872 615.302C32.4193 615.338 32.4496 615.375 32.4808 615.412C32.5079 615.443 32.5362 615.474 32.5627 615.506C32.6775 615.646 32.7858 615.792 32.8879 615.942C32.9113 615.976 32.9333 616.012 32.956 616.047C32.9773 616.079 32.9993 616.112 33.02 616.145C33.0524 616.197 33.0829 616.25 33.1137 616.303C33.1303 616.331 33.1468 616.36 33.163 616.389C33.1882 616.434 33.2128 616.479 33.2369 616.525C33.2565 616.562 33.2752 616.599 33.2941 616.637C33.3146 616.678 33.3356 616.719 33.3552 616.76C33.376 616.804 33.3956 616.849 33.4153 616.893C33.4307 616.928 33.4469 616.963 33.4616 616.998C33.4831 617.049 33.5026 617.101 33.5228 617.153C33.5378 617.191 33.5538 617.23 33.5681 617.269C33.5944 617.341 33.6184 617.414 33.642 617.488C33.6506 617.514 33.6595 617.541 33.6677 617.567C33.6912 617.644 33.7132 617.722 33.7337 617.8C33.7406 617.826 33.7469 617.853 33.7534 617.879C33.7685 617.94 33.7826 618.001 33.7958 618.062C33.8038 618.1 33.8111 618.137 33.8185 618.175C33.8304 618.236 33.8419 618.297 33.852 618.358C33.8585 618.398 33.864 618.437 33.8697 618.477C33.8773 618.53 33.8842 618.584 33.8904 618.637C33.8945 618.672 33.8988 618.707 33.9023 618.742C33.9086 618.807 33.9137 618.871 33.918 618.936C33.9205 618.973 33.9231 619.01 33.9249 619.047C33.9296 619.145 33.9328 619.244 33.9328 619.343C33.9328 619.436 33.9301 619.529 33.9259 619.621C33.9249 619.643 33.9232 619.666 33.922 619.689C33.9174 619.769 33.9119 619.85 33.9042 619.929C33.9018 619.955 33.8981 619.98 33.8954 620.005C33.8878 620.075 33.8797 620.144 33.8697 620.213C33.8653 620.244 33.8608 620.274 33.8559 620.305C33.8473 620.359 33.8373 620.412 33.8273 620.466C33.8187 620.511 33.8094 620.557 33.7997 620.603C33.7883 620.656 33.7761 620.71 33.7633 620.763C33.7544 620.8 33.7462 620.837 33.7367 620.874C33.7242 620.922 33.7108 620.969 33.6972 621.017C33.6744 621.096 33.6493 621.175 33.6233 621.253C33.6087 621.297 33.5945 621.341 33.5789 621.384C33.5642 621.425 33.5482 621.466 33.5326 621.506C33.5136 621.556 33.4947 621.605 33.4745 621.654C33.4587 621.692 33.4426 621.73 33.4262 621.768C33.4076 621.81 33.3885 621.852 33.369 621.894C33.3505 621.933 33.3321 621.973 33.3128 622.012C33.2878 622.063 33.2622 622.113 33.2359 622.163C33.2201 622.193 33.2039 622.223 33.1876 622.253C33.1685 622.287 33.1483 622.322 33.1285 622.356C33.0378 622.514 32.9407 622.667 32.8367 622.815C32.8092 622.855 32.7813 622.893 32.7529 622.932C32.7284 622.965 32.7032 622.998 32.678 623.03C32.6484 623.069 32.6187 623.107 32.5883 623.145C32.5622 623.177 32.5362 623.209 32.5094 623.241C32.4824 623.273 32.4543 623.304 32.4266 623.336C32.3907 623.377 32.3542 623.417 32.3172 623.457C32.2913 623.485 32.2648 623.512 32.2384 623.54C32.043 623.743 31.8343 623.933 31.6124 624.107C31.5914 624.123 31.5706 624.14 31.5493 624.156C31.5083 624.187 31.467 624.218 31.4251 624.249C31.4001 624.267 31.3746 624.284 31.3492 624.302C30.9539 624.579 30.5246 624.811 30.0678 624.988C30.0609 624.991 30.054 624.993 30.0471 624.996C29.373 625.255 28.6418 625.399 27.8766 625.399C24.5318 625.399 21.8203 622.688 21.8203 619.343C21.8203 615.998 24.5318 613.287 27.8766 613.287ZM27.7267 616.875C26.7387 616.944 26.0434 617.523 26.05 618.358C26.05 619.083 26.5559 619.496 27.3876 619.689L27.7267 619.769V620.86C27.3076 620.813 27.0383 620.577 27.015 620.168H25.9239C25.9438 621.212 26.6389 621.758 27.7267 621.811V622.357H28.1131V621.811C29.1941 621.754 29.8226 621.216 29.8293 620.354C29.8226 619.582 29.2834 619.123 28.3586 618.917L28.1131 618.857V617.819C28.4589 617.869 28.6488 618.066 28.672 618.365H29.7632C29.7499 617.523 29.1176 616.938 28.1131 616.875V616.328H27.7267V616.875Z" fill="#56AFDF"/>
<path d="M36.9609 609.249C38.0759 609.249 38.9797 610.153 38.9797 611.268C38.9797 612.383 38.0759 613.287 36.9609 613.287C38.0759 613.287 38.9797 614.19 38.9797 615.305C38.9797 616.42 38.0759 617.324 36.9609 617.324C38.0759 617.324 38.9797 618.228 38.9797 619.343C38.9797 620.458 38.0759 621.362 36.9609 621.362L37.167 621.372C38.1851 621.476 38.9797 622.335 38.9797 623.38C38.9797 624.495 38.0759 625.399 36.9609 625.399H31.5168C33.5692 624.163 34.9422 621.913 34.9422 619.343C34.9422 615.533 31.9269 612.428 28.1526 612.283C27.9783 611.985 27.8766 611.638 27.8766 611.268C27.8766 610.153 28.7804 609.249 29.8953 609.249H36.9609Z" fill="#56AFDF"/>
<path d="M58.6163 604.047C58.6163 605.785 59.7587 607.585 61.3612 608.267L60.7572 609.138C59.5286 608.596 58.5588 607.445 58.0739 606.064C57.5891 607.544 56.6111 608.809 55.403 609.397L54.7579 608.526C56.3276 607.794 57.4904 605.834 57.4987 604.047V602.933H55.1236V602.021H60.9914V602.933H58.6163V604.047ZM62.3022 611.386V600.973H63.4117V611.386H62.3022ZM73.9878 607.655V611.386H72.8865V608.53H66.9283V607.655H73.9878ZM65.4614 604.063C65.4531 602.596 66.6201 601.548 68.1857 601.557C69.0692 601.552 69.8293 601.894 70.3142 602.461H72.8865V600.973H73.9878V607.112H72.8865V605.678H70.3183C69.8293 606.249 69.0733 606.594 68.1857 606.59C66.6201 606.594 65.4531 605.551 65.4614 604.063ZM66.5092 604.063C66.5092 605.021 67.2077 605.653 68.1857 605.653C69.1267 605.653 69.8417 605.021 69.8417 604.063C69.8417 603.134 69.1267 602.489 68.1857 602.489C67.2077 602.489 66.5092 603.134 66.5092 604.063ZM70.7991 604.778H72.8865V603.365H70.7991C70.8607 603.582 70.8977 603.817 70.8977 604.063C70.8977 604.314 70.8607 604.556 70.7991 604.778ZM87.1647 600.973V603.57H88.6481V604.503H87.1647V607.112H86.0635V600.973H87.1647ZM78.9013 606.118C79.7108 606.118 80.6477 606.118 81.6256 606.089V605.505C80.4299 605.399 79.682 604.914 79.6902 604.137C79.682 603.287 80.66 602.789 82.1639 602.789C83.6679 602.789 84.6376 603.287 84.6458 604.137C84.6376 604.91 83.9062 605.39 82.7269 605.505V606.052C83.6597 606.007 84.5965 605.933 85.4718 605.814L85.5581 606.525C83.3227 606.898 80.849 606.911 79.0246 606.911L78.9013 606.118ZM79.1684 602.489V601.721H81.6256V600.879H82.7269V601.721H85.1759V602.489H79.1684ZM80.2902 608.312V607.552H87.1647V609.721H81.4079V610.519H87.5469V611.287H80.3107V609.019H86.0717V608.312H80.2902ZM80.7422 604.137C80.7381 604.556 81.2805 604.807 82.1639 604.807C83.0474 604.807 83.5898 604.556 83.5898 604.137C83.5898 603.734 83.0474 603.508 82.1639 603.504C81.2805 603.508 80.7381 603.734 80.7422 604.137ZM99.0023 606.04V606.923H89.4979V606.04H93.7098V604.934H90.6814V601.454H97.8312V602.325H91.7744V604.051H97.8929V604.934H94.7864V606.04H99.0023ZM90.6197 609.495C90.6197 608.287 91.9757 607.605 94.2316 607.605C96.4752 607.605 97.823 608.287 97.8312 609.495C97.823 610.699 96.4752 611.377 94.2316 611.386C91.9757 611.377 90.6197 610.699 90.6197 609.495ZM91.7415 609.495C91.7333 610.161 92.6414 610.527 94.2316 610.519C95.8054 610.527 96.7218 610.161 96.73 609.495C96.7218 608.834 95.8054 608.456 94.2316 608.456C92.6414 608.456 91.7333 608.834 91.7415 609.495ZM112.693 609.183V610.095H103.164V609.183H107.355V607.046H104.249V601.684H105.354V603.48H110.466V601.684H111.563V607.046H108.448V609.183H112.693ZM105.354 606.151H110.466V604.367H105.354V606.151ZM117.27 602.641C117.27 604.006 118.231 605.275 119.784 605.785L119.197 606.652C118.055 606.249 117.2 605.44 116.744 604.412C116.296 605.579 115.412 606.496 114.2 606.944L113.604 606.068C115.227 605.489 116.168 604.096 116.177 602.547V601.516H117.27V602.641ZM115.01 609.43C115.01 608.217 116.341 607.502 118.502 607.502C120.647 607.502 121.962 608.217 121.962 609.43C121.962 610.667 120.647 611.369 118.502 611.369C116.341 611.369 115.01 610.667 115.01 609.43ZM116.115 609.43C116.107 610.12 116.998 610.494 118.502 610.502C120.002 610.494 120.882 610.12 120.882 609.43C120.882 608.768 120.002 608.378 118.502 608.378C116.998 608.378 116.107 608.768 116.115 609.43ZM120.762 607.256V600.973H121.868V603.595H123.376V604.515H121.868V607.256H120.762Z" fill="#0A0F15"/>
<path d="M57.6219 631.27V629.043H55.403V627.929H57.6219V625.706H58.7396V627.929H60.9668V629.043H58.7396V631.27H57.6219ZM62.6105 631.8L62.6064 630.871L65.5238 627.925C66.4484 626.967 66.9086 626.437 66.9127 625.698C66.9086 624.868 66.2347 624.342 65.3512 624.342C64.4185 624.342 63.8227 624.929 63.8227 625.829H62.6064C62.6022 624.288 63.7733 623.269 65.3759 623.269C66.999 623.269 68.1208 624.297 68.129 625.661C68.1208 626.602 67.677 627.354 66.0991 628.903L64.3897 630.641V630.703H68.2646V631.8H62.6105ZM72.7898 631.915C71.1913 631.915 69.9956 630.945 69.9421 629.601H71.1872C71.2488 630.321 71.9351 630.842 72.7898 630.842C73.8088 630.842 74.5402 630.107 74.5402 629.104C74.5402 628.081 73.7842 627.337 72.7322 627.329C72.0501 627.325 71.5365 627.551 71.2447 628.069H70.0408L70.5914 623.384H75.358V624.481H71.6515L71.3639 626.832H71.4461C71.7995 626.503 72.3871 626.273 73.0281 626.273C74.6142 626.273 75.7853 627.444 75.7812 629.075C75.7853 630.727 74.5361 631.915 72.7898 631.915ZM78.602 630.986L77.6693 634.2H76.6831L77.3036 630.986H78.602ZM83.124 631.935C81.1804 631.935 80.0339 630.353 80.038 627.596C80.038 624.855 81.1927 623.269 83.124 623.269C85.0594 623.269 86.214 624.86 86.214 627.596C86.214 630.353 85.0717 631.935 83.124 631.935ZM81.3119 627.596C81.3078 629.696 81.9899 630.834 83.124 630.834C84.2622 630.834 84.9402 629.696 84.9402 627.596C84.9402 625.501 84.254 624.358 83.124 624.358C81.9981 624.358 81.3119 625.501 81.3119 627.596ZM90.7065 631.935C88.7629 631.935 87.6165 630.353 87.6206 627.596C87.6206 624.855 88.7752 623.269 90.7065 623.269C92.6419 623.269 93.7966 624.86 93.7966 627.596C93.7966 630.353 92.6542 631.935 90.7065 631.935ZM88.8944 627.596C88.8903 629.696 89.5724 630.834 90.7065 630.834C91.8447 630.834 92.5227 629.696 92.5227 627.596C92.5227 625.501 91.8365 624.358 90.7065 624.358C89.5806 624.358 88.8944 625.501 88.8944 627.596ZM98.289 631.935C96.3454 631.935 95.199 630.353 95.2031 627.596C95.2031 624.855 96.3578 623.269 98.289 623.269C100.224 623.269 101.379 624.86 101.379 627.596C101.379 630.353 100.237 631.935 98.289 631.935ZM96.4769 627.596C96.4728 629.696 97.1549 630.834 98.289 630.834C99.4273 630.834 100.105 629.696 100.105 627.596C100.105 625.501 99.419 624.358 98.289 624.358C97.1631 624.358 96.4769 625.501 96.4769 627.596ZM111.25 622.382V630.279H110.141V629.281H108.045V628.5H110.141V622.382H111.25ZM102.535 627.136C104.462 627.124 107.059 627.103 109.278 626.824L109.352 627.621C108.456 627.769 107.523 627.863 106.603 627.921V629.955H105.502V627.982C104.491 628.019 103.521 628.028 102.675 628.024L102.535 627.136ZM103.349 624.613C103.349 623.516 104.401 622.78 105.946 622.78C107.466 622.78 108.522 623.516 108.53 624.613C108.522 625.727 107.466 626.429 105.946 626.429C104.401 626.429 103.349 625.727 103.349 624.613ZM103.977 632.572V629.507H105.079V631.668H111.497V632.572H103.977ZM104.396 624.613C104.392 625.233 105.021 625.62 105.946 625.62C106.833 625.62 107.47 625.233 107.478 624.613C107.47 623.997 106.833 623.598 105.946 623.602C105.021 623.598 104.392 623.997 104.396 624.613Z" fill="#0A0F15"/>
<path d="M26.2578 357.579C26.2461 360.25 27.5904 362.962 29.9091 364.084L28.7879 365.563C27.156 364.741 25.9937 363.156 25.3538 361.248C24.6905 363.285 23.4636 364.982 21.7496 365.845L20.6107 364.354C23.0292 363.215 24.4029 360.344 24.4146 357.579V355.179H26.2578V357.579ZM30.8013 368.968V353.975H32.6505V359.857H34.9633V361.424H32.6505V368.968H30.8013ZM49.6024 361.19V362.669H35.9308V361.19H39.1124V359.282C37.9853 358.8 37.3455 358.049 37.3513 357.069C37.3455 355.278 39.4411 354.222 42.7578 354.216C46.0627 354.222 48.1583 355.278 48.1583 357.069C48.1583 358.055 47.5126 358.812 46.3679 359.294V361.19H49.6024ZM37.5216 366.25C37.5216 364.524 39.4763 363.567 42.746 363.573C45.9805 363.567 47.9411 364.524 47.947 366.25C47.9411 367.999 45.9805 368.95 42.746 368.944C39.4763 368.95 37.5216 367.999 37.5216 366.25ZM39.265 357.069C39.2533 357.99 40.5388 358.478 42.7578 358.478C44.9649 358.478 46.2623 357.99 46.2623 357.069C46.2623 356.153 44.9649 355.642 42.7578 355.642C40.5388 355.642 39.2533 356.153 39.265 357.069ZM39.4 366.25C39.3883 367.101 40.5682 367.559 42.746 367.547C44.9004 367.559 46.092 367.101 46.1038 366.25C46.092 365.416 44.9004 364.982 42.746 364.97C40.5682 364.982 39.3883 365.416 39.4 366.25ZM40.9732 361.19H44.5306V359.763C43.9905 359.834 43.3976 359.875 42.7578 359.875C42.112 359.875 41.5192 359.834 40.9732 359.763V361.19ZM67.2714 354.58V359.792H63.0859V361.377H69.0089V362.868H55.3373V361.377H61.2368V359.792H57.0573V354.58H67.2714ZM56.8518 365.586V364.131H67.3418V368.968H65.4868V365.586H56.8518ZM58.8594 358.331H65.4516V356.03H58.8594V358.331ZM84.0707 362.088V363.579H70.3521V362.088H76.2986V360.837H72.0897V356.863H80.531V355.742H72.0544V354.298H82.3742V358.208H73.9212V359.405H82.6677V360.837H78.1242V362.088H84.0707ZM71.8842 365.991V364.524H82.4564V368.879H80.6014V365.991H71.8842Z" fill="#0A0F15"/>
<rect x="254" y="349.352" width="52" height="25.2" rx="12.6" fill="#EBF0F4"/>
<path d="M273.21 357.902C273.665 357.902 273.915 358.423 273.627 358.77L270.577 362.447V365.339C270.577 365.926 270.095 366.402 269.5 366.402C268.905 366.402 268.423 365.926 268.423 365.339V362.447L265.373 358.77C265.085 358.423 265.335 357.902 265.79 357.902H273.21Z" fill="#A8B1CE"/>
<path d="M287.985 362.046V362.807H284.445V364.448H283.508V362.807H279.817V362.046H287.985ZM280.835 366.114V363.666H281.772V365.339H287.08V366.114H280.835ZM280.895 361.257V357.657H281.835V358.731H285.97V357.657H286.91V361.257H280.895ZM281.835 360.5H285.97V359.446H281.835V360.5ZM297.004 362.669V363.419H294.951V366.297H294V363.419H291.844V366.297H290.9V363.419H288.836V362.669H297.004ZM289.809 358.467V357.692H296.036V360.084H290.784V361.067H296.233V361.838H289.83V359.373H295.071V358.467H289.809Z" fill="#696E82"/>
<g filter="url(#filter0_d_4723_2912)">
<path d="M0 687.806C0 676.54 9.13339 667.406 20.4 667.406H306C317.267 667.406 326.4 676.54 326.4 687.806V735.406H0V687.806Z" fill="white"/>
<path d="M55.4502 686.926C56.5755 686.09 57.8955 686.126 59.2217 686.421C60.9364 686.879 63.1002 687.671 63.1002 689.6V698.73C63.1002 699.482 62.4472 700.07 61.6957 699.994L58.0388 699.622C56.4144 699.32 54.7596 699.913 53.595 701.21C53.2114 701.637 52.589 701.637 52.2054 701.21C51.0408 699.913 49.386 699.32 47.7616 699.622L44.1047 699.994C43.3532 700.07 42.7002 699.482 42.7002 698.73V689.6C42.7002 687.671 44.864 686.879 46.5787 686.421C47.9049 686.126 49.2249 686.09 50.3502 686.926L51.6252 687.808V696.451C51.6252 697.152 52.196 697.721 52.9002 697.721C53.6044 697.721 54.1752 697.152 54.1752 696.451V687.808L55.4502 686.926Z" fill="#CDD3E7"/>
<path d="M46.5535 712.101V712.888C46.5535 713.735 46.5535 714.631 46.3045 715.847L45.3682 715.767C45.4678 715.284 45.5325 714.856 45.5674 714.452L40.2582 714.701L40.1287 713.904L45.6072 713.755C45.6172 713.451 45.6172 713.167 45.6172 712.888V712.868H40.3578V712.101H46.5535ZM47.5297 716.395V717.152H39.4115V716.395H42.6289V715.139H43.5852V716.395H47.5297ZM46.7428 719.721V720.488H40.4176V717.839H41.3639V719.721H46.7428ZM56.0312 711.713V718.387H55.1347V711.713H56.0312ZM54.278 711.882V718.168H53.3815V714.97H52.2759V714.203H53.3815V711.882H54.278ZM56.2901 719.672V720.439H50.1542V717.65H51.1104V719.672H56.2901ZM52.2161 712.42V713.187H49.7259V714.303H51.8675V715.04H49.7259V716.205C50.9013 716.2 51.6832 716.17 52.5946 715.986L52.6843 716.743C51.6583 716.942 50.8116 716.982 49.3972 716.982H48.8194V712.42H52.2161ZM65.6084 718.735V719.512H57.4404V718.735H65.6084ZM64.8514 713.078V713.845H61.9926C62.0324 715.184 63.3423 716.29 65.1701 716.584L64.7916 717.341C63.3124 717.077 62.0872 716.32 61.5145 715.229C60.9317 716.32 59.7065 717.077 58.2373 717.341L57.8687 716.584C59.6767 716.29 60.9865 715.184 61.0363 713.845H58.1775V713.078H61.0463V711.892H61.9826V713.078H64.8514Z" fill="#696E82"/>
<path d="M111.177 688.604C111.469 689.136 111.974 689.517 112.563 689.652L114.997 690.209C116.551 690.565 117.175 692.45 116.144 693.671L114.373 695.768C114.002 696.207 113.823 696.779 113.878 697.353L114.135 700.039C114.292 701.68 112.617 702.873 111.128 702.179L109.044 701.208C108.478 700.944 107.824 700.944 107.257 701.208L105.173 702.179C103.684 702.873 102.008 701.681 102.166 700.039L102.423 697.353C102.478 696.779 102.299 696.207 101.928 695.768L100.157 693.671C99.1254 692.45 99.7498 690.565 101.303 690.209L103.738 689.652C104.327 689.517 104.831 689.136 105.124 688.604L106.293 686.482C107.101 685.014 109.201 685.014 110.009 686.482L111.177 688.604Z" fill="#CDD3E7"/>
<path d="M106.184 711.703V713.924H107.459V714.731H106.184V716.962H105.237V711.703H106.184ZM106.184 717.341V719.204H101.253V719.881H106.512V720.538H100.307V718.596H105.247V717.998H100.287V717.341H106.184ZM99.1015 716.116C99.7938 716.116 100.596 716.116 101.432 716.086V715.588C100.406 715.493 99.7689 715.085 99.7789 714.412C99.7689 713.685 100.606 713.257 101.901 713.257C103.185 713.257 104.022 713.685 104.022 714.412C104.022 715.08 103.39 715.488 102.379 715.588V716.056C103.176 716.016 103.982 715.951 104.729 715.847L104.809 716.464C102.887 716.783 100.775 716.793 99.2011 716.793L99.1015 716.116ZM104.48 712.34V712.998H99.3306V712.34H101.432V711.623H102.379V712.34H104.48ZM101.901 713.874C101.134 713.874 100.675 714.074 100.675 714.412C100.675 714.771 101.134 714.99 101.901 714.99C102.658 714.99 103.116 714.771 103.116 714.412C103.116 714.074 102.658 713.874 101.901 713.874ZM116.329 716.046V716.803H108.181V716.046H111.797V715.1H109.197V712.111H115.323V712.858H110.133V714.343H115.382V715.1H112.713V716.046H116.329ZM112.245 717.381C114.167 717.381 115.323 717.968 115.323 719.004C115.323 720.04 114.167 720.618 112.245 720.628C110.312 720.618 109.147 720.04 109.147 719.004C109.147 717.968 110.312 717.381 112.245 717.381ZM112.245 718.118C110.88 718.118 110.103 718.437 110.103 719.004C110.103 719.572 110.88 719.891 112.245 719.881C113.59 719.891 114.376 719.572 114.376 719.004C114.376 718.437 113.59 718.118 112.245 718.118Z" fill="#696E82"/>
<path d="M161.994 683.61C162.593 683.171 163.407 683.171 164.006 683.61L172.506 689.848C172.942 690.168 173.2 690.677 173.2 691.219V702.831H165.547C165.547 702.813 165.55 702.795 165.55 702.776V699.145C165.55 697.736 164.408 696.595 163 696.595C161.592 696.595 160.45 697.736 160.45 699.145V702.776C160.45 702.795 160.453 702.813 160.453 702.831H152.8V691.219C152.8 690.677 153.058 690.168 153.494 689.848L161.994 683.61Z" fill="#CDD3E7"/>
<path d="M166.063 717.938V720.518H159.897V717.938H166.063ZM160.833 718.666V719.791H165.147V718.666H160.833ZM166.601 712.41V713.137H159.339V712.41H162.517V711.583H163.463V712.41H166.601ZM162.985 713.456C164.868 713.456 165.914 713.884 165.914 714.721C165.914 715.483 165.042 715.906 163.463 715.976V716.584H167.059V717.331H158.921V716.584H162.517V715.976C160.938 715.906 160.047 715.483 160.057 714.721C160.047 713.884 161.112 713.456 162.985 713.456ZM162.985 714.104C161.74 714.113 161.063 714.313 161.063 714.721C161.063 715.12 161.74 715.339 162.985 715.339C164.24 715.339 164.908 715.12 164.908 714.721C164.908 714.313 164.24 714.113 162.985 714.104Z" fill="#696E82"/>
<path d="M224.65 685.381C225.755 685.381 226.65 686.276 226.65 687.381V693.781C226.65 694.886 225.755 695.781 224.65 695.781H211.222L208.65 698.381V687.381C208.65 686.276 209.546 685.381 210.65 685.381H224.65ZM213.793 689.281C213.083 689.281 212.508 689.863 212.508 690.581C212.508 691.299 213.083 691.881 213.793 691.881C214.503 691.881 215.079 691.299 215.079 690.581C215.079 689.863 214.503 689.281 213.793 689.281ZM217.65 689.281C216.94 689.281 216.364 689.863 216.364 690.581C216.364 691.299 216.94 691.881 217.65 691.881C218.36 691.881 218.935 691.299 218.936 690.581C218.936 689.863 218.36 689.281 217.65 689.281ZM221.508 689.281C220.798 689.281 220.222 689.863 220.222 690.581C220.222 691.299 220.798 691.881 221.508 691.881C222.218 691.881 222.793 691.299 222.793 690.581C222.793 689.863 222.218 689.281 221.508 689.281Z" fill="#CDD3E7"/>
<path d="M227.537 694.59C228.196 694.917 228.65 695.595 228.65 696.381V702.381L226.937 700.781H218.65C217.546 700.781 216.651 699.886 216.65 698.781V696.781H224.65L224.805 696.777C226.113 696.711 227.197 695.806 227.537 694.59Z" fill="#CDD3E7"/>
<path d="M226.559 694.381C226.304 695.192 225.546 695.781 224.65 695.781H216.742C216.997 694.97 217.755 694.381 218.65 694.381H226.559Z" fill="#CDD3E7"/>
<path d="M217.829 718.715V719.492H209.661V718.715H213.237V716.594H214.174V718.715H217.829ZM214.194 712.948C214.194 714.362 215.747 715.687 217.471 715.976L217.062 716.753C215.618 716.464 214.288 715.573 213.695 714.343C213.108 715.568 211.793 716.474 210.359 716.753L209.94 715.976C211.653 715.687 213.197 714.362 213.197 712.948V712.271H214.194V712.948ZM226.819 716.395V717.142H218.661V716.395H222.267V715.618H219.727V711.942H225.823V712.689H220.683V713.416H225.594V714.123H220.683V714.88H225.882V715.618H223.213V716.395H226.819ZM222.745 717.729C224.707 717.719 225.823 718.237 225.823 719.174C225.823 720.12 224.707 720.618 222.745 720.608C220.763 720.618 219.647 720.12 219.647 719.174C219.647 718.237 220.763 717.719 222.745 717.729ZM222.745 718.437C221.34 718.437 220.583 718.696 220.593 719.174C220.583 719.652 221.34 719.901 222.745 719.891C224.129 719.901 224.876 719.652 224.876 719.174C224.876 718.696 224.129 718.437 222.745 718.437Z" fill="#696E82"/>
<path d="M264.932 697.569C270.577 694.352 277.223 694.352 282.869 697.569C283.623 697.999 284.1 698.877 284.1 699.839V704.081H263.7V699.839C263.7 698.877 264.177 697.999 264.932 697.569Z" fill="#56AFDF"/>
<path d="M273.9 683.681C276.717 683.681 279 685.964 279 688.781C279 691.597 276.717 693.881 273.9 693.881C271.084 693.881 268.8 691.597 268.8 688.781C268.8 685.964 271.084 683.681 273.9 683.681Z" fill="#56AFDF"/>
<path d="M266.4 712.57H267.735L270.016 718.158H270.106L272.387 712.57H273.722V719.781H272.676V714.572H272.606L270.494 719.771H269.628L267.506 714.562H267.446V719.781H266.4V712.57ZM274.842 712.57H276.087L277.96 715.837H278.04L279.922 712.57H281.167L278.548 716.952V719.781H277.452V716.952L274.842 712.57Z" fill="#0A0F15"/>
</g>
<rect x="20.4004" y="268.602" width="285.6" height="54.4" rx="10.2" fill="#56AFDF"/>
<rect x="39.9502" y="285.602" width="20.4" height="20.4" rx="10.2" fill="url(#paint1_linear_4723_2912)" fill-opacity="0.4"/>
<rect x="40.3752" y="286.027" width="19.55" height="19.55" rx="9.775" stroke="url(#paint2_linear_4723_2912)" stroke-opacity="0.6" stroke-width="0.85"/>
<path d="M47.6006 300.008V291.595H51.0404C52.9347 291.595 54.0968 292.78 54.0968 294.488C54.0968 296.232 52.9114 297.37 50.9823 297.37H49.5762V300.008H47.6006ZM49.5762 295.802H50.6221C51.5518 295.802 52.0515 295.279 52.0515 294.488C52.0515 293.698 51.5518 293.198 50.6221 293.198H49.5762V295.802Z" fill="white"/>
<path d="M73.3139 284.357C73.3139 285.846 74.293 287.389 75.6666 287.974L75.1489 288.72C74.0958 288.256 73.2646 287.269 72.849 286.086C72.4333 287.354 71.5951 288.439 70.5596 288.942L70.0066 288.196C71.3521 287.569 72.3488 285.889 72.3559 284.357V283.402H70.3201V282.62H75.3496V283.402H73.3139V284.357ZM76.4732 290.647V281.722H77.4242V290.647H76.4732ZM86.4894 287.449V290.647H85.5455V288.199H80.4384V287.449H86.4894ZM79.181 284.371C79.174 283.113 80.1743 282.215 81.5162 282.222C82.2734 282.219 82.925 282.511 83.3406 282.997H85.5455V281.722H86.4894V286.984H85.5455V285.755H83.3441C82.925 286.244 82.2769 286.54 81.5162 286.537C80.1743 286.54 79.174 285.646 79.181 284.371ZM80.0792 284.371C80.0792 285.191 80.6779 285.734 81.5162 285.734C82.3227 285.734 82.9356 285.191 82.9356 284.371C82.9356 283.575 82.3227 283.022 81.5162 283.022C80.6779 283.022 80.0792 283.575 80.0792 284.371ZM83.7562 284.984H85.5455V283.772H83.7562C83.8091 283.959 83.8408 284.159 83.8408 284.371C83.8408 284.586 83.8091 284.793 83.7562 284.984ZM95.7448 281.722V290.647H94.8361V281.722H95.7448ZM88.1688 285.575C88.1688 283.645 88.926 282.437 90.0883 282.437C91.1731 282.437 91.9092 283.466 92.0219 285.142H93.0293V281.895H93.9309V290.207H93.0293V285.91H92.0255C91.9374 287.653 91.1942 288.731 90.0883 288.728C88.926 288.731 88.1688 287.516 88.1688 285.575ZM89.0493 285.575C89.0422 286.998 89.4473 287.833 90.0883 287.826C90.7469 287.833 91.1555 286.998 91.1555 285.575C91.1555 284.156 90.7469 283.325 90.0883 283.325C89.4473 283.325 89.0422 284.156 89.0493 285.575ZM100.309 283.994C100.305 285.628 101.221 287.255 102.584 287.868L102.013 288.629C100.996 288.118 100.228 287.111 99.8368 285.889C99.4423 287.174 98.6639 288.259 97.639 288.791L97.0403 288.03C98.4209 287.368 99.3437 285.646 99.3508 283.994V282.465H100.309V283.994ZM101.605 285.455V284.688H103.595V281.722H104.532V290.665H103.595V285.455H101.605ZM115.823 281.722V283.948H117.094V284.748H115.823V286.984H114.879V281.722H115.823ZM108.74 286.132C109.434 286.132 110.237 286.132 111.075 286.107V285.607C110.05 285.515 109.409 285.1 109.416 284.434C109.409 283.705 110.247 283.279 111.536 283.279C112.825 283.279 113.657 283.705 113.664 284.434C113.657 285.096 113.03 285.508 112.019 285.607V286.075C112.818 286.037 113.621 285.973 114.372 285.871L114.446 286.48C112.53 286.801 110.409 286.811 108.845 286.811L108.74 286.132ZM108.969 283.022V282.363H111.075V281.641H112.019V282.363H114.118V283.022H108.969ZM109.93 288.013V287.361H115.823V289.221H110.888V289.904H116.15V290.563H109.948V288.618H114.886V288.013H109.93ZM110.318 284.434C110.314 284.793 110.779 285.008 111.536 285.008C112.294 285.008 112.759 284.793 112.759 284.434C112.759 284.089 112.294 283.895 111.536 283.892C110.779 283.895 110.314 284.089 110.318 284.434ZM125.969 286.065V286.822H117.823V286.065H121.433V285.117H118.837V282.134H124.965V282.881H119.774V284.36H125.018V285.117H122.356V286.065H125.969ZM118.784 289.027C118.784 287.991 119.946 287.407 121.88 287.407C123.803 287.407 124.958 287.991 124.965 289.027C124.958 290.059 123.803 290.64 121.88 290.647C119.946 290.64 118.784 290.059 118.784 289.027ZM119.746 289.027C119.739 289.597 120.517 289.911 121.88 289.904C123.229 289.911 124.015 289.597 124.022 289.027C124.015 288.46 123.229 288.136 121.88 288.136C120.517 288.136 119.739 288.46 119.746 289.027ZM133.795 281.722V285.339H135.225V286.125H133.795V290.647H132.858V281.722H133.795ZM126.793 283.892V283.12H128.994V281.838H129.938V283.12H132.079V283.892H126.793ZM127.251 286.628C127.247 285.41 128.184 284.55 129.473 284.55C130.748 284.55 131.685 285.41 131.689 286.628C131.685 287.851 130.748 288.699 129.473 288.703C128.184 288.699 127.247 287.851 127.251 286.628ZM128.156 286.628C128.149 287.4 128.709 287.917 129.473 287.914C130.227 287.917 130.78 287.4 130.787 286.628C130.78 285.861 130.227 285.332 129.473 285.332C128.709 285.332 128.149 285.861 128.156 286.628ZM143.082 282.581V283.455C143.078 284.561 143.078 285.794 142.74 287.625L141.789 287.519C142.131 285.794 142.131 284.529 142.138 283.455V283.349H136.717V282.581H143.082ZM135.862 289.443V288.661H138.954V285.512H139.891V288.661H143.998V289.443H135.862ZM146.484 289.104L145.684 291.859H144.839L145.371 289.104H146.484ZM158.557 288.791V289.576H150.389V288.791H153.981V287.22H151.382V284.381H156.623V283.127H151.365V282.356H157.556V285.142H152.323V286.445H157.764V287.22H154.918V288.791H158.557ZM164.051 282.145C164.043 284.438 162.786 285.91 159.979 286.621L159.63 285.892C161.053 285.547 161.969 285.012 162.49 284.332L159.771 284.533L159.62 283.797L162.871 283.659C162.962 283.416 163.022 283.159 163.047 282.888H160.071V282.145H164.051ZM161.011 287.435V286.692H166.847V288.921H161.958V289.777H167.115V290.534H161.029V288.22H165.91V287.435H161.011ZM164.075 284.568V283.793H165.903V281.722H166.847V286.315H165.903V284.568H164.075ZM179.29 288.78V289.576H171.122V288.78H174.708V286.875H171.837V286.121H173.168V283.318H171.816V282.55H178.543V283.318H177.177V286.121H178.515V286.875H175.637V288.78H179.29ZM174.109 286.121H176.247V283.318H174.109V286.121ZM187.545 281.729V288.217H186.597V281.729H187.545ZM180.321 284.543C180.321 283.251 181.353 282.335 182.699 282.335C184.044 282.335 185.069 283.251 185.069 284.543C185.069 285.853 184.044 286.766 182.699 286.762C181.353 286.766 180.321 285.853 180.321 284.543ZM181.247 284.543C181.24 285.382 181.867 285.938 182.699 285.938C183.516 285.938 184.143 285.382 184.143 284.543C184.143 283.719 183.516 283.159 182.699 283.159C181.867 283.159 181.24 283.719 181.247 284.543ZM181.705 290.464V287.558H182.656V289.689H187.806V290.464H181.705ZM196.402 286.473V287.234H190.186V282.458H196.314V283.233H191.14V284.431H196.117V285.184H191.14V286.473H196.402ZM189.161 289.527V288.745H197.329V289.527H189.161ZM208.306 281.722V286.343H207.369V284.427H205.418V286.019H201.297V282.127H202.245V283.321H204.481V282.127H205.418V283.649H207.369V281.722H208.306ZM202.245 285.265H204.481V284.064H202.245V285.265ZM202.47 287.498V286.741H208.306V288.949H203.428V289.777H208.623V290.534H202.488V288.249H207.369V287.498H202.47ZM212.314 282.391C213.522 282.395 214.409 283.42 214.55 285.068H216.399V281.722H217.336V290.665H216.399V285.839H214.557C214.459 287.579 213.557 288.661 212.314 288.661C210.979 288.661 210.042 287.445 210.049 285.522C210.042 283.61 210.979 282.395 212.314 282.391ZM210.951 285.522C210.951 286.938 211.504 287.812 212.314 287.812C213.117 287.812 213.673 286.938 213.673 285.522C213.673 284.117 213.117 283.244 212.314 283.237C211.504 283.244 210.951 284.117 210.951 285.522ZM227.081 288.752V289.534H218.913V288.752H220.868V286.417C220.132 286.016 219.685 285.374 219.685 284.575C219.685 283.17 221.062 282.247 222.974 282.24C224.894 282.247 226.275 283.17 226.275 284.575C226.275 285.364 225.841 285.994 225.123 286.399V288.752H227.081ZM220.604 284.575C220.604 285.529 221.576 286.153 222.974 286.153C224.366 286.153 225.352 285.529 225.352 284.575C225.352 283.61 224.366 282.997 222.974 283.004C221.576 282.997 220.604 283.61 220.604 284.575ZM221.798 288.752H224.168V286.762C223.802 286.847 223.401 286.893 222.974 286.893C222.552 286.893 222.157 286.847 221.798 286.766V288.752ZM228.947 289.869C228.556 289.869 228.232 289.552 228.239 289.164C228.232 288.777 228.556 288.46 228.947 288.46C229.328 288.46 229.652 288.777 229.652 289.164C229.652 289.552 229.328 289.869 228.947 289.869ZM79.6525 306.511V307.568H70.0495V306.511H74.1874V304.465H71.1055V299.029H72.3999V300.746H77.2651V299.029H78.5512V304.465H75.4694V306.511H79.6525ZM72.3999 303.426H77.2651V301.782H72.3999V303.426ZM84.2909 300.003C84.2909 301.326 85.1456 302.575 86.7605 303.089L86.0701 304.095C84.936 303.713 84.1183 302.945 83.6663 301.971C83.2102 303.084 82.3637 303.96 81.1515 304.391L80.453 303.372C82.1459 302.785 82.9924 301.387 83.0006 299.883V298.889H84.2909V300.003ZM81.8871 306.828C81.8829 305.579 83.2472 304.843 85.4414 304.847C87.6111 304.843 88.9547 305.579 88.9547 306.828C88.9547 308.098 87.6111 308.825 85.4414 308.821C83.2472 308.825 81.8829 308.098 81.8871 306.828ZM83.1773 306.828C83.1732 307.473 83.9991 307.802 85.4414 307.806C86.8796 307.802 87.685 307.473 87.685 306.828C87.685 306.212 86.8796 305.858 85.4414 305.858C83.9991 305.858 83.1732 306.212 83.1773 306.828ZM87.5617 304.613V298.334H88.8602V300.882H90.3272V301.959H88.8602V304.613H87.5617ZM96.9791 299.374V300.397H91.1154V299.374H93.4658V298.244H94.7519V299.374H96.9791ZM91.666 302.776C91.6578 301.605 92.6604 300.816 94.0986 300.816C95.5244 300.816 96.5476 301.605 96.5558 302.776C96.5476 303.947 95.5244 304.724 94.0986 304.724C92.6604 304.724 91.6578 303.947 91.666 302.776ZM92.7672 307C92.7672 305.846 94.1356 305.172 96.3627 305.172C98.5775 305.172 99.9458 305.846 99.9458 307C99.9458 308.143 98.5775 308.825 96.3627 308.821C94.1356 308.825 92.7672 308.143 92.7672 307ZM92.8699 302.776C92.8658 303.397 93.3507 303.758 94.0986 303.758C94.8341 303.758 95.3477 303.397 95.3519 302.776C95.3477 302.156 94.8341 301.786 94.0986 301.782C93.3507 301.786 92.8658 302.156 92.8699 302.776ZM94.1273 307C94.1232 307.543 94.9409 307.843 96.3627 307.835C97.7639 307.843 98.5652 307.543 98.5693 307C98.5652 306.442 97.7639 306.162 96.3627 306.158C94.9409 306.162 94.1232 306.442 94.1273 307ZM97.0407 303.832V302.793H98.6022V301.753H97.0571V300.709H98.6022V298.334H99.8924V305.057H98.6022V303.832H97.0407ZM113.004 298.334V300.882H114.422V301.967H113.004V304.519H111.71V298.334H113.004ZM104.585 303.454C105.374 303.454 106.282 303.454 107.231 303.43V302.904C106.056 302.78 105.325 302.296 105.333 301.531C105.325 300.677 106.323 300.175 107.864 300.175C109.405 300.175 110.395 300.677 110.403 301.531C110.395 302.291 109.68 302.776 108.521 302.904V303.384C109.421 303.339 110.325 303.269 111.168 303.154L111.262 303.972C109.023 304.346 106.557 304.362 104.725 304.362L104.585 303.454ZM104.856 299.92V299.041H107.231V298.244H108.521V299.041H110.888V299.92H104.856ZM105.986 305.801V304.925H113.004V307.198H107.293V307.868H113.37V308.743H105.998V306.392H111.714V305.801H105.986ZM106.57 301.531C106.561 301.901 107.046 302.111 107.864 302.111C108.678 302.111 109.162 301.901 109.162 301.531C109.162 301.178 108.678 300.997 107.864 300.993C107.046 300.997 106.561 301.178 106.57 301.531ZM124.789 303.364V304.391H115.202V303.364H119.365V302.357H116.381V298.807H123.626V299.822H117.663V301.338H123.683V302.357H120.63V303.364H124.789ZM116.316 306.918C116.316 305.69 117.692 304.995 119.973 304.995C122.245 304.995 123.609 305.69 123.613 306.918C123.609 308.139 122.245 308.833 119.973 308.837C117.692 308.833 116.316 308.139 116.316 306.918ZM117.631 306.918C117.622 307.526 118.448 307.843 119.973 307.835C121.481 307.843 122.315 307.526 122.323 306.918C122.315 306.314 121.481 305.99 119.973 305.99C118.448 305.99 117.622 306.314 117.631 306.918ZM137.141 298.758V302.406H134.211V303.516H138.357V304.56H128.787V303.516H132.916V302.406H129.991V298.758H137.141ZM129.847 306.462V305.443H137.19V308.829H135.891V306.462H129.847ZM131.252 301.383H135.867V299.773H131.252V301.383ZM148.9 304.013V305.057H139.297V304.013H143.46V303.138H140.513V300.356H146.422V299.571H140.489V298.56H147.712V301.297H141.795V302.135H147.918V303.138H144.737V304.013H148.9ZM140.369 306.746V305.718H147.77V308.767H146.472V306.746H140.369ZM162.497 306.511V307.568H152.894V306.511H157.032V304.465H153.95V299.029H155.244V300.746H160.11V299.029H161.396V304.465H158.314V306.511H162.497ZM155.244 303.426H160.11V301.782H155.244V303.426ZM172.185 298.334V308.829H170.883V298.334H172.185ZM163.486 305.94C166.235 304.634 167.509 302.863 167.739 300.471H164.021V299.448H169.054C169.05 302.575 167.838 305.229 164.164 306.976L163.486 305.94ZM182.52 308.102L181.673 307.268L184.213 304.728H178.041V303.512H184.213L181.673 300.977L182.52 300.138L186.497 304.12L182.52 308.102Z" fill="white"/>
</g>
<defs>
<filter id="filter0_d_4723_2912" x="-8.5" y="655.506" width="343.4" height="85" filterUnits="userSpaceOnUse" color-interpolation-filters="sRGB">
<feFlood flood-opacity="0" result="BackgroundImageFix"/>
<feColorMatrix in="SourceAlpha" type="matrix" values="0 0 0 0 0 0 0 0 0 0 0 0 0 0 0 0 0 0 127 0" result="hardAlpha"/>
<feOffset dy="-3.4"/>
<feGaussianBlur stdDeviation="4.25"/>
<feComposite in2="hardAlpha" operator="out"/>
<feColorMatrix type="matrix" values="0 0 0 0 0.0392157 0 0 0 0 0.0588235 0 0 0 0 0.0823529 0 0 0 0.04 0"/>
<feBlend mode="normal" in2="BackgroundImageFix" result="effect1_dropShadow_4723_2912"/>
<feBlend mode="normal" in="SourceGraphic" in2="effect1_dropShadow_4723_2912" result="shape"/>
</filter>
<linearGradient id="paint0_linear_4723_2912" x1="163.2" y1="89.76" x2="163.2" y2="408" gradientUnits="userSpaceOnUse">
<stop offset="0.2" stop-color="#56AFDF"/>
<stop offset="0.6" stop-color="#8C9BAC" stop-opacity="0.2"/>
<stop offset="0.7" stop-color="#FDB666" stop-opacity="0.1"/>
<stop offset="1" stop-color="#FDB666" stop-opacity="0"/>
</linearGradient>
<linearGradient id="paint1_linear_4723_2912" x1="50.1502" y1="285.602" x2="50.1502" y2="306.002" gradientUnits="userSpaceOnUse">
<stop stop-color="white" stop-opacity="0.4"/>
<stop offset="1" stop-color="white"/>
</linearGradient>
<linearGradient id="paint2_linear_4723_2912" x1="50.1502" y1="285.602" x2="50.1502" y2="306.002" gradientUnits="userSpaceOnUse">
<stop stop-color="white"/>
<stop offset="1" stop-color="white" stop-opacity="0.4"/>
</linearGradient>
<clipPath id="clip0_4723_2912">
<rect width="326" height="735" rx="44" fill="white"/>
</clipPath>
<clipPath id="clip1_4723_2912">
<rect width="20.4" height="20.4" fill="white" transform="translate(129.199 221.1)"/>
</clipPath>
</defs>
</svg>
