<svg width="1920" height="960" viewBox="0 0 1920 960" fill="none" xmlns="http://www.w3.org/2000/svg">
<path d="M1920 480C1920 416.966 1895.17 354.548 1846.92 296.312C1798.68 238.076 1727.97 185.161 1638.82 140.589C1549.68 96.0166 1443.85 60.6601 1327.38 36.5378C1210.9 12.4156 1086.07 -2.75533e-06 960 0C833.931 2.75533e-06 709.096 12.4156 592.624 36.5378C476.151 60.6601 370.322 96.0166 281.177 140.589C192.033 185.161 121.32 238.076 73.0756 296.312C24.8311 354.548 -1.10213e-05 416.966 0 480L960 480L1920 480Z" fill="url(#paint0_linear_4881_4039)" fill-opacity="0.2"/>
<rect x="879.5" y="168" width="161" height="54" rx="27" fill="#56AFDF"/>
<path d="M917.575 194.93C917.575 199.5 914.802 202.195 911.091 202.195C907.38 202.195 904.606 199.48 904.606 194.93C904.606 190.359 907.38 187.664 911.091 187.664C914.802 187.664 917.575 190.359 917.575 194.93ZM915.016 194.93C915.016 191.707 913.395 189.949 911.091 189.949C908.786 189.949 907.165 191.707 907.165 194.93C907.165 198.152 908.786 199.91 911.091 199.91C913.395 199.91 915.016 198.152 915.016 194.93ZM922.623 195.789V202H920.123V191.395H922.506V193.191H922.643C923.131 192 924.205 191.258 925.788 191.258C927.995 191.258 929.44 192.703 929.42 195.242V202H926.94V195.633C926.94 194.207 926.178 193.367 924.87 193.367C923.541 193.367 922.623 194.246 922.623 195.789ZM932.32 202V187.859H934.82V193.133H934.918C935.309 192.371 936.07 191.258 937.945 191.258C940.406 191.258 942.34 193.172 942.34 196.707C942.34 200.203 940.445 202.195 937.965 202.195C936.129 202.195 935.309 201.102 934.918 200.32H934.762V202H932.32ZM934.762 196.688C934.762 198.758 935.66 200.145 937.262 200.145C938.922 200.145 939.801 198.699 939.801 196.688C939.801 194.715 938.941 193.289 937.262 193.289C935.66 193.289 934.762 194.637 934.762 196.688ZM949.322 202.215C946.236 202.215 944.244 200.027 944.244 196.746C944.244 193.445 946.236 191.258 949.322 191.258C952.427 191.258 954.4 193.445 954.4 196.746C954.4 200.027 952.427 202.215 949.322 202.215ZM949.341 200.223C951.041 200.223 951.88 198.68 951.88 196.727C951.88 194.793 951.041 193.23 949.341 193.23C947.603 193.23 946.763 194.793 946.763 196.727C946.763 198.68 947.603 200.223 949.341 200.223ZM956.245 199.012C956.245 196.629 958.218 195.926 960.191 195.809C960.923 195.76 962.446 195.672 962.905 195.652V194.812C962.905 193.758 962.222 193.152 960.991 193.152C959.878 193.152 959.195 193.66 958.999 194.422H956.597C956.773 192.625 958.394 191.258 961.05 191.258C963.062 191.258 965.386 192.078 965.386 194.91V202H963.003V200.535H962.925C962.456 201.434 961.46 202.215 959.8 202.215C957.769 202.215 956.245 201.102 956.245 199.012ZM958.648 198.992C958.648 199.91 959.39 200.379 960.445 200.379C961.948 200.379 962.925 199.383 962.925 198.191V197.312L960.581 197.469C959.39 197.566 958.648 198.055 958.648 198.992ZM968.13 202V191.395H970.552V193.152H970.669C971.04 191.941 972.075 191.238 973.286 191.238C973.559 191.238 973.95 191.258 974.184 191.297V193.602C973.97 193.523 973.442 193.445 973.032 193.445C971.645 193.445 970.63 194.402 970.63 195.75V202H968.13ZM979.663 202.195C977.163 202.195 975.288 200.203 975.288 196.707C975.288 193.172 977.221 191.258 979.682 191.258C981.557 191.258 982.338 192.371 982.709 193.133H982.807V187.859H985.288V202H982.846V200.32H982.709C982.319 201.102 981.498 202.195 979.663 202.195ZM980.346 200.145C981.948 200.145 982.866 198.758 982.866 196.688C982.866 194.637 981.967 193.289 980.346 193.289C978.686 193.289 977.827 194.715 977.827 196.688C977.827 198.699 978.705 200.145 980.346 200.145ZM988.207 202V191.395H990.707V202H988.207ZM989.477 189.891C988.695 189.891 988.031 189.285 988.031 188.523C988.031 187.781 988.695 187.176 989.477 187.176C990.277 187.176 990.922 187.781 990.922 188.523C990.922 189.285 990.277 189.891 989.477 189.891ZM995.99 195.789V202H993.49V191.395H995.873V193.191H996.009C996.498 192 997.572 191.258 999.154 191.258C1001.36 191.258 1002.81 192.703 1002.79 195.242V202H1000.31V195.633C1000.31 194.207 999.545 193.367 998.236 193.367C996.908 193.367 995.99 194.246 995.99 195.789ZM1010.2 206.199C1007.39 206.199 1005.61 204.949 1005.43 202.957H1007.91C1008.09 203.875 1008.97 204.324 1010.24 204.324C1011.72 204.324 1012.7 203.68 1012.7 202.117V200.086H1012.58C1012.19 200.867 1011.35 201.844 1009.51 201.844C1007.07 201.844 1005.14 200.066 1005.14 196.609C1005.14 193.113 1007.07 191.258 1009.53 191.258C1011.41 191.258 1012.19 192.371 1012.58 193.133H1012.7V191.395H1015.16V202.176C1015.16 204.891 1013.07 206.199 1010.2 206.199ZM1010.2 199.891C1011.8 199.891 1012.72 198.68 1012.72 196.648C1012.72 194.637 1011.82 193.289 1010.2 193.289C1008.54 193.289 1007.68 194.715 1007.68 196.648C1007.68 198.602 1008.56 199.891 1010.2 199.891Z" fill="white"/>
<path d="M756.139 287.523V291.586H751.1V309.516H746.1V274.047H751.1V287.523H756.139ZM729.147 277.445V296.703C733.698 296.645 738.58 296.215 743.717 295.18L744.225 299.32C738.288 300.531 732.506 300.844 727.272 300.844H724.186V277.445H729.147ZM769.947 276.43C775.572 276.391 779.791 280.062 779.791 285.141C779.791 290.258 775.572 293.891 769.947 293.891C764.322 293.891 760.064 290.258 760.064 285.141C760.064 280.062 764.322 276.391 769.947 276.43ZM769.947 280.727C767.134 280.727 764.986 282.367 765.025 285.141C764.986 287.953 767.134 289.555 769.947 289.555C772.759 289.555 774.908 287.953 774.947 285.141C774.908 282.367 772.798 280.727 769.947 280.727ZM788.306 274.047V309.672H783.345V274.047H788.306ZM758.58 298.344C764.908 298.383 773.697 298.266 781.314 297.211L781.705 300.805C773.814 302.328 765.377 302.406 759.166 302.406L758.58 298.344ZM822.016 277.406V300.922H804.945V277.406H822.016ZM809.867 281.312V296.977H817.055V281.312H809.867ZM831.859 274.047V287.445H837.094V291.586H831.859V309.594H826.859V274.047H831.859ZM855.394 274.711C863.284 274.711 868.284 277.328 868.323 281.664C868.284 285.961 863.284 288.578 855.394 288.539C847.542 288.578 842.425 285.961 842.425 281.664C842.425 277.328 847.542 274.711 855.394 274.711ZM855.394 278.578C850.433 278.578 847.581 279.633 847.62 281.664C847.581 283.656 850.433 284.672 855.394 284.672C860.316 284.672 863.167 283.656 863.167 281.664C863.167 279.633 860.316 278.578 855.394 278.578ZM867.737 297.094V309.203H842.933V297.094H867.737ZM847.855 301.039V305.219H862.855V301.039H847.855ZM871.605 290.609V294.594H839.183V290.609H871.605ZM886.077 276.43C891.702 276.391 895.92 280.062 895.92 285.141C895.92 290.258 891.702 293.891 886.077 293.891C880.452 293.891 876.194 290.258 876.194 285.141C876.194 280.062 880.452 276.391 886.077 276.43ZM886.077 280.727C883.264 280.727 881.116 282.367 881.155 285.141C881.116 287.953 883.264 289.555 886.077 289.555C888.889 289.555 891.038 287.953 891.077 285.141C891.038 282.367 888.928 280.727 886.077 280.727ZM904.436 274.047V309.672H899.475V274.047H904.436ZM874.709 298.344C881.038 298.383 889.827 298.266 897.444 297.211L897.834 300.805C889.944 302.328 881.506 302.406 875.295 302.406L874.709 298.344ZM949.239 277.133V280.492C949.239 284.945 949.239 289.945 947.794 297.484L942.794 296.977C944.141 290.258 944.2 285.258 944.239 281.078H923.302V277.133H949.239ZM952.364 301.195V305.258H919.942V301.195H931.544V288.969H936.505V301.195H952.364ZM988.125 279.242V283.266H983.516V286.898H988.125V290.961H983.516V296.625H978.516V274.047H983.516V279.242H988.125ZM971.914 296.938C979.219 296.938 983.906 299.32 983.906 303.305C983.906 307.211 979.219 309.594 971.914 309.594C964.453 309.594 959.844 307.211 959.883 303.305C959.844 299.32 964.453 296.938 971.914 296.938ZM971.914 300.727C967.266 300.727 964.766 301.547 964.805 303.305C964.766 304.984 967.266 305.883 971.914 305.883C976.445 305.883 978.906 304.984 978.906 303.305C978.906 301.547 976.445 300.727 971.914 300.727ZM976.406 277.445V281.312H955.312V277.445H963.398V273.852H968.359V277.445H976.406ZM965.859 282.523C971.016 282.523 974.609 285.141 974.609 288.93C974.609 292.758 971.016 295.297 965.859 295.297C960.625 295.297 957.031 292.758 957.031 288.93C957.031 285.141 960.625 282.523 965.859 282.523ZM965.859 286.156C963.477 286.156 961.875 287.133 961.914 288.93C961.875 290.688 963.477 291.625 965.859 291.586C968.242 291.625 969.883 290.688 969.883 288.93C969.883 287.133 968.242 286.156 965.859 286.156ZM1006.89 274.555C1015.06 274.555 1019.78 276.703 1019.82 280.609C1019.78 284.555 1015.06 286.703 1006.89 286.703C998.691 286.703 993.925 284.555 993.925 280.609C993.925 276.703 998.691 274.555 1006.89 274.555ZM1006.89 278.188C1001.66 278.188 999.12 279.047 999.159 280.609C999.12 282.367 1001.66 283.031 1006.89 283.031C1012.17 283.031 1014.67 282.367 1014.67 280.609C1014.67 279.047 1012.17 278.188 1006.89 278.188ZM1023.1 288.383V292.328H990.683V288.383H1023.1ZM1019.16 294.398V303.461H999.355V305.609H1020.1V309.359H994.472V299.984H1014.24V298.031H994.433V294.398H1019.16ZM1056.35 277.484V281.43H1049.16C1049.24 284.926 1051.81 288.52 1057.48 289.945L1055.29 293.773C1051.19 292.738 1048.34 290.512 1046.74 287.68C1045.15 290.805 1042.3 293.285 1038.14 294.438L1035.8 290.492C1041.46 289.027 1044.12 285.277 1044.2 281.43H1037.05V277.484H1044.2V273.891H1049.24V277.484H1056.35ZM1064.28 274.047V282.016H1069.08V286.117H1064.28V294.32H1059.28V274.047H1064.28ZM1064.7 295.844V299.75H1055.68C1056.58 302.367 1060.08 304.906 1066.27 305.727L1064.51 309.516C1058.79 308.754 1054.76 306.469 1052.71 303.422C1050.68 306.449 1046.68 308.676 1041.03 309.438L1039.24 305.648C1045.49 304.887 1048.94 302.426 1049.86 299.75H1040.76V295.844H1064.7ZM1100.31 283.734V287.641H1075.47V275.297H1080.43V283.734H1100.31ZM1103.94 291.469V295.375H1071.4V291.469H1103.94ZM1100.54 304.828V308.812H1075.15V298.266H1080.15V304.828H1100.54ZM1136.83 277.602V280.453C1136.79 283.812 1136.79 288.188 1135.85 294.086L1130.93 293.695C1131.73 288.539 1131.81 284.73 1131.87 281.586H1118.39V277.602H1136.83ZM1127.96 287.797V298.109C1131.46 297.973 1135.01 297.719 1138.28 297.289L1138.59 301C1131.28 302.25 1123.2 302.367 1116.99 302.328L1116.52 298.344C1118.51 298.324 1120.74 298.324 1123.04 298.266V287.797H1127.96ZM1145 274.047V288.344H1149.84V292.484H1145V309.594H1139.96V274.047H1145ZM1182.16 274.047V295.141H1177.2V286.742H1171.65V282.719H1177.2V274.047H1182.16ZM1170.01 295.922C1177.59 295.961 1182.24 298.461 1182.28 302.797C1182.24 307.094 1177.59 309.633 1170.01 309.633C1162.44 309.633 1157.79 307.094 1157.79 302.797C1157.79 298.461 1162.44 295.961 1170.01 295.922ZM1170.01 299.75C1165.29 299.75 1162.75 300.727 1162.75 302.797C1162.75 304.828 1165.29 305.844 1170.01 305.844C1174.74 305.844 1177.32 304.828 1177.32 302.797C1177.32 300.727 1174.74 299.75 1170.01 299.75ZM1172.71 276.195V280.18H1165.64C1165.76 284.32 1168.26 288.5 1173.8 290.336L1171.34 294.242C1167.42 292.973 1164.72 290.395 1163.18 287.172C1161.6 290.805 1158.76 293.734 1154.55 295.18L1151.97 291.234C1157.81 289.281 1160.42 284.633 1160.56 280.18H1153.41V276.195H1172.71ZM1195.07 303.109L1191.71 314.242H1187.57L1189.53 303.109H1195.07ZM743.561 347.523V351.586H738.522V369.516H733.522V334.047H738.522V347.523H743.561ZM716.569 337.445V356.703C721.12 356.645 726.002 356.215 731.139 355.18L731.647 359.32C725.709 360.531 719.928 360.844 714.694 360.844H711.608V337.445H716.569ZM778.345 349.984V353.695H745.806V349.984H778.345ZM774.439 355.453V363.852H754.517V365.883H775.494V369.281H749.556V360.688H769.517V358.891H749.517V355.453H774.439ZM774.4 334.672V343.031H754.83V344.945H775.025V348.305H749.869V339.867H769.4V338.07H749.791V334.672H774.4ZM800.805 336.547C806.234 336.547 810.141 341.469 810.18 349.203C810.141 357.016 806.234 361.898 800.805 361.898C795.375 361.898 791.391 357.016 791.43 349.203C791.391 341.469 795.375 336.547 800.805 336.547ZM800.805 341.039C798.07 341.039 796.234 343.93 796.234 349.203C796.234 354.516 798.07 357.367 800.805 357.367C803.578 357.367 805.375 354.516 805.414 349.203C805.375 343.93 803.578 341.039 800.805 341.039ZM819.281 334.047V347.445H824.516V351.586H819.281V369.594H814.281V334.047H819.281ZM855.472 343.734V347.641H830.628V335.297H835.589V343.734H855.472ZM859.105 351.469V355.375H826.566V351.469H859.105ZM855.706 364.828V368.812H830.316V358.266H835.316V364.828H855.706ZM901.955 334.086V357.68H896.994V347.523H890.705V343.461H896.994V334.086H901.955ZM890.431 336.781C890.431 346.391 885.314 352.758 874.533 356.117L872.384 352.211C880.431 349.828 884.318 345.883 885.08 340.727H874.298V336.781H890.431ZM892.384 356.234C892.384 360.297 896.134 364.359 903.634 365.492L901.642 369.438C896.056 368.52 892.033 366 889.923 362.562C887.736 366.02 883.673 368.539 878.088 369.477L876.134 365.531C883.673 364.438 887.423 360.297 887.463 356.234V354.984H892.384V356.234ZM938.184 334.047V369.594H933.419V334.047H938.184ZM930.763 334.555V367.953H926.075V351.156H923.223C922.755 358.148 919.786 362.367 915.411 362.367C910.723 362.367 907.677 357.445 907.677 349.438C907.677 341.469 910.723 336.586 915.411 336.586C919.688 336.586 922.618 340.57 923.184 347.211H926.075V334.555H930.763ZM915.411 341.273C913.419 341.273 912.247 344.008 912.286 349.438C912.247 354.906 913.419 357.602 915.411 357.562C917.442 357.602 918.653 354.906 918.653 349.438C918.653 344.008 917.442 341.273 915.411 341.273ZM956.172 342.094C956.172 348.773 958.867 355.258 964.805 357.836L961.758 361.82C957.812 359.887 955.176 356.352 953.711 351.977C952.148 356.625 949.414 360.434 945.352 362.445L942.227 358.383C948.32 355.648 951.094 348.773 951.133 342.094V336.781H956.172V342.094ZM972.734 334.047V369.672H967.812V349.242H960.82V345.219H967.812V334.047H972.734ZM1010.6 354.555V358.461H996.698V369.594H991.777V358.461H978.066V354.555H1010.6ZM986.816 335.414V339.516H1001.74V335.414H1006.74V351.117H981.894V335.414H986.816ZM986.816 347.133H1001.74V343.422H986.816V347.133ZM1043.47 334.047V369.672H1038.55V350.609H1032.3V346.586H1038.55V334.047H1043.47ZM1031.72 337.016V341.039H1020.08V346.938H1030.43V350.844H1020.08V357.562C1025 357.523 1028.94 357.348 1033.36 356.664L1033.87 360.648C1028.67 361.43 1024.02 361.625 1017.93 361.625H1015.12V337.016H1031.72ZM1072.69 342.094C1072.69 348.617 1075.66 355.18 1081.68 357.719L1078.75 361.703C1074.68 359.867 1071.87 356.332 1070.27 351.938C1068.65 356.723 1065.74 360.59 1061.4 362.562L1058.4 358.422C1064.61 355.805 1067.61 349.008 1067.65 342.094V336.781H1072.69V342.094ZM1088.63 334.047V369.672H1083.59V334.047H1088.63ZM1114.43 336.117V340.102H1107.36C1107.4 344.262 1109.86 348.52 1115.64 350.375L1113.1 354.242C1109.16 352.973 1106.44 350.434 1104.9 347.25C1103.32 350.727 1100.48 353.48 1096.34 354.828L1093.69 351C1099.57 349.105 1102.24 344.555 1102.32 340.102H1095.05V336.117H1114.43ZM1122.44 334.047V342.68H1127.24V346.82H1122.44V355.492H1117.44V334.047H1122.44ZM1122.44 357.016V369.594H1117.44V360.961H1098.49V357.016H1122.44ZM1146.75 339.477V343.422H1129.57V339.477H1135.74V335.023H1140.66V339.477H1146.75ZM1138.24 345.023C1142.77 345.023 1146.01 348.539 1146.05 353.461C1146.01 358.422 1142.77 361.938 1138.24 361.938C1133.71 361.938 1130.39 358.422 1130.39 353.461C1130.39 348.539 1133.71 345.023 1138.24 345.023ZM1138.24 349.164C1136.17 349.164 1134.76 350.766 1134.76 353.461C1134.76 356.156 1136.17 357.719 1138.24 357.719C1140.23 357.719 1141.64 356.156 1141.68 353.461C1141.64 350.766 1140.23 349.164 1138.24 349.164ZM1160.35 334.047V369.594H1155.62V352.484H1152.73V368.07H1148.08V334.75H1152.73V348.5H1155.62V334.047H1160.35ZM1197.51 361.352V365.453H1164.97V361.352H1172.24V352.641C1169.49 351 1167.83 348.48 1167.83 345.336C1167.83 339.594 1173.45 335.766 1181.19 335.766C1188.88 335.766 1194.55 339.594 1194.58 345.336C1194.56 348.402 1192.94 350.902 1190.29 352.562V361.352H1197.51ZM1181.19 339.711C1176.11 339.711 1172.75 341.742 1172.75 345.336C1172.75 348.812 1176.11 350.961 1181.19 350.961C1186.22 350.961 1189.62 348.812 1189.66 345.336C1189.62 341.742 1186.22 339.711 1181.19 339.711ZM1177.16 361.352H1185.25V354.438C1183.98 354.691 1182.61 354.828 1181.19 354.828C1179.76 354.828 1178.41 354.711 1177.16 354.438V361.352ZM1204.95 366.352C1203.12 366.352 1201.63 364.867 1201.67 363.07C1201.63 361.273 1203.12 359.828 1204.95 359.828C1206.67 359.828 1208.2 361.273 1208.2 363.07C1208.2 364.867 1206.67 366.352 1204.95 366.352Z" fill="#40424D"/>
<defs>
<linearGradient id="paint0_linear_4881_4039" x1="960" y1="960" x2="960" y2="0" gradientUnits="userSpaceOnUse">
<stop offset="0.6" stop-color="#56AFDF" stop-opacity="0"/>
<stop offset="0.8" stop-color="#56AFDF" stop-opacity="0.4"/>
<stop offset="1" stop-color="#56AFDF"/>
</linearGradient>
</defs>
</svg>
