<svg width="1920" height="960" viewBox="0 0 1920 960" fill="none" xmlns="http://www.w3.org/2000/svg">
<path d="M1920 480C1920 416.966 1895.17 354.548 1846.92 296.312C1798.68 238.076 1727.97 185.161 1638.82 140.589C1549.68 96.0166 1443.85 60.6601 1327.38 36.5378C1210.9 12.4156 1086.07 -2.75533e-06 960 0C833.931 2.75533e-06 709.096 12.4156 592.624 36.5378C476.151 60.6601 370.322 96.0166 281.177 140.589C192.033 185.161 121.32 238.076 73.0756 296.312C24.8311 354.548 -1.10213e-05 416.966 0 480L960 480L1920 480Z" fill="url(#paint0_linear_4715_2045)" fill-opacity="0.2"/>
<rect x="879.5" y="168" width="161" height="54" rx="27" fill="#56AFDF"/>
<path d="M917.575 194.93C917.575 199.5 914.802 202.195 911.091 202.195C907.38 202.195 904.606 199.48 904.606 194.93C904.606 190.359 907.38 187.664 911.091 187.664C914.802 187.664 917.575 190.359 917.575 194.93ZM915.016 194.93C915.016 191.707 913.395 189.949 911.091 189.949C908.786 189.949 907.165 191.707 907.165 194.93C907.165 198.152 908.786 199.91 911.091 199.91C913.395 199.91 915.016 198.152 915.016 194.93ZM922.623 195.789V202H920.123V191.395H922.506V193.191H922.643C923.131 192 924.205 191.258 925.788 191.258C927.995 191.258 929.44 192.703 929.42 195.242V202H926.94V195.633C926.94 194.207 926.178 193.367 924.87 193.367C923.541 193.367 922.623 194.246 922.623 195.789ZM932.32 202V187.859H934.82V193.133H934.918C935.309 192.371 936.07 191.258 937.945 191.258C940.406 191.258 942.34 193.172 942.34 196.707C942.34 200.203 940.445 202.195 937.965 202.195C936.129 202.195 935.309 201.102 934.918 200.32H934.762V202H932.32ZM934.762 196.688C934.762 198.758 935.66 200.145 937.262 200.145C938.922 200.145 939.801 198.699 939.801 196.688C939.801 194.715 938.941 193.289 937.262 193.289C935.66 193.289 934.762 194.637 934.762 196.688ZM949.322 202.215C946.236 202.215 944.244 200.027 944.244 196.746C944.244 193.445 946.236 191.258 949.322 191.258C952.427 191.258 954.4 193.445 954.4 196.746C954.4 200.027 952.427 202.215 949.322 202.215ZM949.341 200.223C951.041 200.223 951.88 198.68 951.88 196.727C951.88 194.793 951.041 193.23 949.341 193.23C947.603 193.23 946.763 194.793 946.763 196.727C946.763 198.68 947.603 200.223 949.341 200.223ZM956.245 199.012C956.245 196.629 958.218 195.926 960.191 195.809C960.923 195.76 962.446 195.672 962.905 195.652V194.812C962.905 193.758 962.222 193.152 960.991 193.152C959.878 193.152 959.195 193.66 958.999 194.422H956.597C956.773 192.625 958.394 191.258 961.05 191.258C963.062 191.258 965.386 192.078 965.386 194.91V202H963.003V200.535H962.925C962.456 201.434 961.46 202.215 959.8 202.215C957.769 202.215 956.245 201.102 956.245 199.012ZM958.648 198.992C958.648 199.91 959.39 200.379 960.445 200.379C961.948 200.379 962.925 199.383 962.925 198.191V197.312L960.581 197.469C959.39 197.566 958.648 198.055 958.648 198.992ZM968.13 202V191.395H970.552V193.152H970.669C971.04 191.941 972.075 191.238 973.286 191.238C973.559 191.238 973.95 191.258 974.184 191.297V193.602C973.97 193.523 973.442 193.445 973.032 193.445C971.645 193.445 970.63 194.402 970.63 195.75V202H968.13ZM979.663 202.195C977.163 202.195 975.288 200.203 975.288 196.707C975.288 193.172 977.221 191.258 979.682 191.258C981.557 191.258 982.338 192.371 982.709 193.133H982.807V187.859H985.288V202H982.846V200.32H982.709C982.319 201.102 981.498 202.195 979.663 202.195ZM980.346 200.145C981.948 200.145 982.866 198.758 982.866 196.688C982.866 194.637 981.967 193.289 980.346 193.289C978.686 193.289 977.827 194.715 977.827 196.688C977.827 198.699 978.705 200.145 980.346 200.145ZM988.207 202V191.395H990.707V202H988.207ZM989.477 189.891C988.695 189.891 988.031 189.285 988.031 188.523C988.031 187.781 988.695 187.176 989.477 187.176C990.277 187.176 990.922 187.781 990.922 188.523C990.922 189.285 990.277 189.891 989.477 189.891ZM995.99 195.789V202H993.49V191.395H995.873V193.191H996.009C996.498 192 997.572 191.258 999.154 191.258C1001.36 191.258 1002.81 192.703 1002.79 195.242V202H1000.31V195.633C1000.31 194.207 999.545 193.367 998.236 193.367C996.908 193.367 995.99 194.246 995.99 195.789ZM1010.2 206.199C1007.39 206.199 1005.61 204.949 1005.43 202.957H1007.91C1008.09 203.875 1008.97 204.324 1010.24 204.324C1011.72 204.324 1012.7 203.68 1012.7 202.117V200.086H1012.58C1012.19 200.867 1011.35 201.844 1009.51 201.844C1007.07 201.844 1005.14 200.066 1005.14 196.609C1005.14 193.113 1007.07 191.258 1009.53 191.258C1011.41 191.258 1012.19 192.371 1012.58 193.133H1012.7V191.395H1015.16V202.176C1015.16 204.891 1013.07 206.199 1010.2 206.199ZM1010.2 199.891C1011.8 199.891 1012.72 198.68 1012.72 196.648C1012.72 194.637 1011.82 193.289 1010.2 193.289C1008.54 193.289 1007.68 194.715 1007.68 196.648C1007.68 198.602 1008.56 199.891 1010.2 199.891Z" fill="white"/>
<path d="M814.194 287.523V291.586H809.155V309.516H804.155V274.047H809.155V287.523H814.194ZM787.202 277.445V296.703C791.752 296.645 796.635 296.215 801.772 295.18L802.28 299.32C796.342 300.531 790.561 300.844 785.327 300.844H782.241V277.445H787.202ZM845.345 283.734V287.641H820.502V275.297H825.462V283.734H845.345ZM848.978 291.469V295.375H816.439V291.469H848.978ZM845.58 304.828V308.812H820.189V298.266H825.189V304.828H845.58ZM871.672 276.547C876.477 276.547 880.051 280.512 880.773 286.898H886.945V274.047H891.867V309.672H886.945V290.883H880.812C880.285 297.719 876.633 301.898 871.672 301.898C866.281 301.898 862.414 297.016 862.453 289.203C862.414 281.469 866.281 276.547 871.672 276.547ZM871.672 281.039C869.016 281.039 867.18 283.93 867.219 289.203C867.18 294.516 869.016 297.367 871.672 297.367C874.367 297.367 876.125 294.516 876.125 289.203C876.125 283.93 874.367 281.039 871.672 281.039ZM928.448 304.984V308.969H902.784V297.602H907.784V304.984H928.448ZM927.511 274.086V299.789H922.628V287.445H917.706V283.461H922.628V274.086H927.511ZM907.12 276.703V280.727H902.667V290.766C904.249 290.668 905.714 290.512 907.355 290.141L907.745 294.164C904.933 294.789 902.706 294.75 899.542 294.75H897.823V276.703H907.12ZM918.839 276.703V280.727H913.8V290.766C916.32 290.707 917.882 290.531 919.659 290.102L920.089 294.125C917.55 294.711 915.441 294.75 910.792 294.75H908.839V276.703H918.839ZM975.127 293.812V297.836H967.509V309.594H962.431V297.836H955.166V309.594H950.048V297.836H942.588V293.812H975.127ZM958.759 275.219C966.377 275.219 971.728 278.383 971.728 283.266C971.728 288.07 966.377 291.078 958.759 291.078C951.142 291.078 945.83 288.07 945.869 283.266C945.83 278.383 951.142 275.219 958.759 275.219ZM958.759 279.203C953.994 279.203 950.947 280.648 950.986 283.266C950.947 285.766 953.994 287.172 958.759 287.172C963.564 287.172 966.572 285.766 966.572 283.266C966.572 280.648 963.564 279.203 958.759 279.203ZM997.841 277.328V281.273H978.075V277.328H985.731V273.734H990.692V277.328H997.841ZM988.153 282.445C993.036 282.484 996.552 285.18 996.591 289.125C996.552 293.109 993.036 295.766 988.153 295.727C983.231 295.766 979.794 293.109 979.833 289.125C979.794 285.18 983.231 282.484 988.153 282.445ZM988.153 286.156C985.888 286.156 984.442 287.211 984.481 289.125C984.442 291.039 985.888 292.055 988.153 292.055C990.38 292.055 991.942 291.039 991.942 289.125C991.942 287.211 990.38 286.156 988.153 286.156ZM1007.96 274.047V296.703H1003V292.953H998.153V288.969H1003V285.844H998.231V281.859H1003V274.047H1007.96ZM995.888 297.133C1003.43 297.133 1008.15 299.438 1008.15 303.383C1008.15 307.25 1003.43 309.594 995.888 309.594C988.309 309.594 983.622 307.25 983.622 303.383C983.622 299.438 988.309 297.133 995.888 297.133ZM995.888 300.883C991.356 300.922 988.856 301.703 988.856 303.383C988.856 304.984 991.356 305.844 995.888 305.844C1000.34 305.844 1002.8 304.984 1002.8 303.383C1002.8 301.703 1000.34 300.922 995.888 300.883ZM1023.48 275.102C1028.88 275.102 1032.98 278.461 1032.98 283.227C1032.98 287.914 1028.88 291.312 1023.48 291.312C1017.98 291.312 1013.91 287.914 1013.91 283.227C1013.91 278.461 1017.98 275.102 1023.48 275.102ZM1023.48 279.164C1020.75 279.164 1018.72 280.648 1018.76 283.227C1018.72 285.766 1020.75 287.289 1023.48 287.289C1026.18 287.289 1028.17 285.766 1028.17 283.227C1028.17 280.648 1026.18 279.164 1023.48 279.164ZM1043.13 274.047V291.859H1038.13V274.047H1043.13ZM1043.13 293.344V302.992H1024.23V305.297H1044.11V309.203H1019.34V299.359H1038.17V297.172H1019.27V293.344H1043.13ZM1077.21 274.047V287.992H1081.94V292.094H1077.21V309.594H1072.21V274.047H1077.21ZM1059.36 277.68C1059.32 287.445 1058.31 295.062 1051.94 302.055L1048.03 299.281C1052.88 294.047 1054.28 288.832 1054.6 281.742H1049.6V277.68H1059.36ZM1069.21 277.68C1069.21 287.836 1068.31 296.625 1062.02 304.359L1058.07 301.586C1062.9 295.648 1064.21 289.555 1064.52 281.742H1060.53V277.68H1069.21ZM1116.65 301.352V305.453H1084.11V301.352H1091.37V292.641C1088.62 291 1086.96 288.48 1086.96 285.336C1086.96 279.594 1092.58 275.766 1100.32 275.766C1108.01 275.766 1113.68 279.594 1113.72 285.336C1113.7 288.402 1112.08 290.902 1109.42 292.562V301.352H1116.65ZM1100.32 279.711C1095.24 279.711 1091.88 281.742 1091.88 285.336C1091.88 288.812 1095.24 290.961 1100.32 290.961C1105.36 290.961 1108.76 288.812 1108.8 285.336C1108.76 281.742 1105.36 279.711 1100.32 279.711ZM1096.3 301.352H1104.38V294.438C1103.11 294.691 1101.74 294.828 1100.32 294.828C1098.89 294.828 1097.55 294.711 1096.3 294.438V301.352ZM1125.69 297.094C1125.73 292.25 1127.02 290.727 1129.36 289.281C1131.04 288.188 1132.33 286.977 1132.33 285.18C1132.33 283.227 1130.81 281.938 1128.93 281.938C1127.1 281.938 1125.42 283.148 1125.34 285.453H1119.79C1119.91 279.945 1123.97 277.328 1128.97 277.328C1134.4 277.328 1138.27 280.18 1138.27 284.984C1138.27 288.188 1136.63 290.258 1134.05 291.781C1131.86 293.109 1130.88 294.359 1130.85 297.094V297.523H1125.69V297.094ZM1128.38 306.352C1126.55 306.352 1125.06 304.867 1125.1 303.07C1125.06 301.273 1126.55 299.828 1128.38 299.828C1130.1 299.828 1131.63 301.273 1131.63 303.07C1131.63 304.867 1130.1 306.352 1128.38 306.352Z" fill="#40424D"/>
<defs>
<linearGradient id="paint0_linear_4715_2045" x1="960" y1="960" x2="960" y2="0" gradientUnits="userSpaceOnUse">
<stop offset="0.6" stop-color="#56AFDF" stop-opacity="0"/>
<stop offset="0.8" stop-color="#56AFDF" stop-opacity="0.4"/>
<stop offset="1" stop-color="#56AFDF"/>
</linearGradient>
</defs>
</svg>
