<svg width="444" height="115" viewBox="0 0 444 115" fill="none" xmlns="http://www.w3.org/2000/svg">
<path d="M33.6091 0.234375V42.9844H27.5623V0.234375H33.6091ZM5.99977 3.60938V14.0156H15.1873V3.60938H21.0935V33H-0.000228882V3.60938H5.99977ZM5.99977 28.1719H15.1873V18.6562H5.99977V28.1719ZM79.241 20.2031V25.0312H40.3348V20.2031H79.241ZM62.7879 28.125C62.7879 32.625 67.241 36.9844 76.616 38.1094L74.4129 42.7031C67.4051 41.7422 62.3895 39.0234 59.741 35.1562C57.0926 39.0234 52.077 41.7422 45.0691 42.7031L42.9598 38.1094C52.241 36.9844 56.6941 32.625 56.741 28.125V27.2344H62.7879V28.125ZM62.8816 2.39062C62.8816 6.9375 67.8035 12 77.3191 13.125L75.0223 17.9062C67.8035 16.8516 62.5066 13.6406 59.7879 9.375C57.0457 13.6641 51.7254 16.8516 44.5066 17.9062L42.3035 13.125C51.7254 12 56.6941 7.03125 56.741 2.39062V0.9375H62.8816V2.39062ZM116.623 0.28125V13.3594H122.389V18.2344H116.623V32.1094H110.623V0.28125H116.623ZM108.092 4.73438V9.46875H82.7791V4.73438H92.4823V0.1875H98.4354V4.73438H108.092ZM95.4354 10.9688C101.623 10.9688 105.935 14.2969 105.935 19.2188C105.935 24.1406 101.623 27.375 95.4354 27.375C89.201 27.375 84.8416 24.1406 84.8416 19.2188C84.8416 14.2969 89.201 10.9688 95.4354 10.9688ZM95.4354 15.5156C92.576 15.5625 90.6541 16.875 90.701 19.2188C90.6541 21.5625 92.576 22.8281 95.4354 22.8281C98.2948 22.8281 100.264 21.5625 100.264 19.2188C100.264 16.875 98.2948 15.5625 95.4354 15.5156ZM118.17 37.3594V42.1406H88.9666V29.6719H94.9198V37.3594H118.17ZM162.887 4.5V9.14062H154.449C154.566 12.4922 157.59 15.5859 163.918 16.7344L161.574 21.3281C156.746 20.3906 153.418 18.2578 151.543 15.375C149.644 18.5391 146.246 20.9297 141.23 21.9375L138.793 17.2969C145.238 16.1016 148.238 12.75 148.402 9.14062H139.918V4.5H148.449V0.328125H154.449V4.5H162.887ZM173.199 0.28125V42.8906H167.293V0.28125H173.199ZM137.34 23.7656C145.215 23.7656 155.715 23.7188 164.715 22.5469L165.09 26.8594C161.574 27.4688 157.965 27.8906 154.402 28.125V41.5781H148.449V28.4531C144.746 28.5938 141.207 28.6172 138.09 28.5938L137.34 23.7656ZM219.065 6.46875V11.2969H213.534V15.6562H219.065V20.5312H213.534V27.3281H207.534V0.234375H213.534V6.46875H219.065ZM199.612 27.7031C208.378 27.7031 214.003 30.5625 214.003 35.3438C214.003 40.0312 208.378 42.8906 199.612 42.8906C190.659 42.8906 185.128 40.0312 185.175 35.3438C185.128 30.5625 190.659 27.7031 199.612 27.7031ZM199.612 32.25C194.034 32.25 191.034 33.2344 191.081 35.3438C191.034 37.3594 194.034 38.4375 199.612 38.4375C205.05 38.4375 208.003 37.3594 208.003 35.3438C208.003 33.2344 205.05 32.25 199.612 32.25ZM205.003 4.3125V8.95312H179.69V4.3125H189.394V0H195.347V4.3125H205.003ZM192.347 10.4062C198.534 10.4062 202.847 13.5469 202.847 18.0938C202.847 22.6875 198.534 25.7344 192.347 25.7344C186.065 25.7344 181.753 22.6875 181.753 18.0938C181.753 13.5469 186.065 10.4062 192.347 10.4062ZM192.347 14.7656C189.487 14.7656 187.565 15.9375 187.612 18.0938C187.565 20.2031 189.487 21.3281 192.347 21.2812C195.206 21.3281 197.175 20.2031 197.175 18.0938C197.175 15.9375 195.206 14.7656 192.347 14.7656ZM235.963 3.09375C242.713 3.04688 247.775 7.45312 247.775 13.5469C247.775 19.6875 242.713 24.0469 235.963 24.0469C229.213 24.0469 224.104 19.6875 224.104 13.5469C224.104 7.45312 229.213 3.04688 235.963 3.09375ZM235.963 8.25C232.588 8.25 230.01 10.2188 230.057 13.5469C230.01 16.9219 232.588 18.8438 235.963 18.8438C239.338 18.8438 241.916 16.9219 241.963 13.5469C241.916 10.2188 239.385 8.25 235.963 8.25ZM257.994 0.234375V42.9844H252.041V0.234375H257.994ZM222.322 29.3906C229.916 29.4375 240.463 29.2969 249.604 28.0312L250.072 32.3438C240.604 34.1719 230.479 34.2656 223.025 34.2656L222.322 29.3906ZM292.305 9.89062C292.258 17.5312 295.539 25.2656 302.383 28.5469L298.773 33.3281C294.203 31.0781 291.133 26.8594 289.352 21.7031C287.5 27.2344 284.195 31.7578 279.367 34.125L275.664 29.2969C282.883 25.9688 286.305 17.8125 286.305 9.89062V3.51562H292.305V9.89062ZM310.258 0.234375V16.6875H316.539V21.75H310.258V42.8906H304.258V0.234375H310.258ZM352.89 0.28125V10.3594H358.655V15.3281H352.89V25.5938H346.89V0.28125H352.89ZM352.89 27.375V42.4219H324.952V27.375H352.89ZM330.812 32.0625V37.6406H347.03V32.0625H330.812ZM340.14 2.34375V15.3281H326.546V19.1719C333.601 19.125 338.382 18.8906 343.796 17.9531L344.452 22.6406C338.312 23.8594 332.827 24.0469 324.202 24.0469H320.593V10.8281H334.327V7.125H320.546V2.34375H340.14ZM400.49 16.875V21.5625H361.49V16.875H400.49ZM395.85 9.84375V14.5312H366.365V1.07812H395.522V5.85938H372.319V9.84375H395.85ZM395.662 24.0938V35.25H371.897V37.875H396.787V42.5156H366.037V30.9844H389.756V28.5938H365.99V24.0938H395.662ZM427.935 4.5V7.92188C427.888 11.9531 427.888 17.2031 426.763 24.2812L420.857 23.8125C421.818 17.625 421.911 13.0547 421.982 9.28125H405.81V4.5H427.935ZM417.294 16.7344V29.1094C421.489 28.9453 425.755 28.6406 429.669 28.125L430.044 32.5781C421.279 34.0781 411.575 34.2188 404.122 34.1719L403.56 29.3906C405.95 29.3672 408.622 29.3672 411.388 29.2969V16.7344H417.294ZM437.732 0.234375V17.3906H443.544V22.3594H437.732V42.8906H431.685V0.234375H437.732ZM46.8851 83.8594C46.8382 90.375 50.3069 97.875 57.3382 101.109L54.0101 105.797C49.2523 103.617 45.8538 99.2578 43.9788 94.125C42.0569 99.7734 38.5648 104.555 33.6194 106.875L30.1507 102.141C37.2757 98.8125 40.8382 90.8906 40.8851 83.8594V81.2344H31.8382V76.3594H55.4632V81.2344H46.8851V83.8594ZM64.7913 72.2344V88.5H71.0726V93.5156H64.7913V114.891H58.7913V72.2344H64.7913ZM109.533 72.2812V103.453H103.579V93.3281H93.8294C91.7669 95.5078 88.7904 96.8438 85.4857 96.8438C79.0169 96.8438 74.0951 92.1562 74.1419 85.8281C74.0951 79.4062 79.0169 74.7656 85.4857 74.7188C88.7904 74.7422 91.7435 76.0547 93.8294 78.2344H103.579V72.2812H109.533ZM110.564 109.359V114.141H81.2201V100.312H87.2201V109.359H110.564ZM85.4857 80.0625C82.1576 80.0625 79.7669 82.2188 79.8138 85.8281C79.7669 89.3906 82.1576 91.5469 85.4857 91.5469C88.6263 91.5469 91.0638 89.3906 91.0638 85.8281C91.0638 82.2188 88.6263 80.0625 85.4857 80.0625ZM96.4076 83.0156C96.6185 83.9062 96.7357 84.8438 96.7357 85.8281C96.7357 86.7656 96.6185 87.6797 96.4076 88.5469H103.579V83.0156H96.4076ZM138.477 77.8594C138.477 84.0938 144.008 90.7969 153.664 92.4375L151.039 97.4062C143.61 95.9297 138.079 91.7578 135.336 86.25C132.5 91.7109 126.969 95.9062 119.586 97.4062L117.008 92.4375C126.477 90.75 132.055 84.0469 132.102 77.8594V74.7656H138.477V77.8594ZM155.071 104.719V109.641H116.024V104.719H155.071ZM194.421 72.2812V95.8594H188.468V85.3125H181.578V80.4375H188.468V72.2812H194.421ZM171.687 97.5938V101.484H188.515V97.5938H194.421V114.422H165.781V97.5938H171.687ZM171.687 109.641H188.515V106.031H171.687V109.641ZM179.421 73.8281V86.5781H166.062V90.2812C172.531 90.2344 177.171 90.0469 182.515 89.2031L182.937 93.9844C176.843 94.9219 171.499 95.1094 163.624 95.0625H160.156V82.1719H173.562V78.5625H160.062V73.8281H179.421ZM237.897 72.2344V114.891H232.272V72.2344H237.897ZM228.803 73.1719V113.016H223.225V93.4219H216.241C213.803 98.2969 209.842 102.516 203.772 106.031L200.397 101.812C208.999 96.7031 212.795 90.4922 213.616 82.125H202.741V77.2969H219.569C219.545 81.3516 219.124 85.1719 218.116 88.6875H223.225V73.1719H228.803ZM291.333 72.2812V103.453H285.379V93.3281H275.629C273.567 95.5078 270.59 96.8438 267.286 96.8438C260.817 96.8438 255.895 92.1562 255.942 85.8281C255.895 79.4062 260.817 74.7656 267.286 74.7188C270.59 74.7422 273.544 76.0547 275.629 78.2344H285.379V72.2812H291.333ZM292.364 109.359V114.141H263.02V100.312H269.02V109.359H292.364ZM267.286 80.0625C263.958 80.0625 261.567 82.2188 261.614 85.8281C261.567 89.3906 263.958 91.5469 267.286 91.5469C270.426 91.5469 272.864 89.3906 272.864 85.8281C272.864 82.2188 270.426 80.0625 267.286 80.0625ZM278.208 83.0156C278.419 83.9062 278.536 84.8438 278.536 85.8281C278.536 86.7656 278.419 87.6797 278.208 88.5469H285.379V83.0156H278.208ZM333.777 72.2344V93.7031H327.824V90.4219H318.074V85.875H327.824V82.125H318.543C315.894 88.5469 309.8 92.6484 300.355 94.6875L298.339 89.8125C308.113 87.8672 312.636 83.8359 313.433 78.7031H300.73V73.875H320.043C320.043 75.1641 319.949 76.4062 319.761 77.5781H327.824V72.2344H333.777ZM333.777 95.25V106.922H311.464V109.734H334.714V114.469H305.464V102.516H327.777V99.9375H305.418V95.25H333.777ZM365.674 89.5781V94.3594H357.378V101.344C360.893 101.227 364.409 100.992 367.737 100.641L368.206 105C358.878 106.453 349.174 106.5 341.159 106.5L340.456 101.625C343.854 101.648 347.557 101.648 351.378 101.531V94.3594H343.268V76.0312H365.44V80.7656H349.221V89.5781H365.674ZM376.128 72.2344V114.984H370.174V72.2344H376.128ZM417.869 75.9375V79.9688C417.869 85.3125 417.869 91.3125 416.134 100.359L410.134 99.75C411.752 91.6875 411.822 85.6875 411.869 80.6719H386.744V75.9375H417.869ZM421.619 104.812V109.688H382.713V104.812H396.634V90.1406H402.588V104.812H421.619Z" fill="#40424D"/>
</svg>
