<svg width="347" height="187" viewBox="0 0 347 187" fill="none" xmlns="http://www.w3.org/2000/svg">
<path d="M16.7342 11.625C16.6873 18.1406 20.1561 25.6406 27.1873 28.875L23.8592 33.5625C19.1014 31.3828 15.703 27.0234 13.828 21.8906C11.9061 27.5391 8.41391 32.3203 3.4686 34.6406L-0.000152588 29.9062C7.12485 26.5781 10.6873 18.6562 10.7342 11.625V9H1.68735V4.125H25.3123V9H16.7342V11.625ZM34.6405 0V16.2656H40.9217V21.2812H34.6405V42.6562H28.6405V0H34.6405ZM82.4286 23.7188V28.5469H73.288V42.6562H67.1942V28.5469H58.4755V42.6562H52.3348V28.5469H43.3817V23.7188H82.4286ZM62.788 1.40625C71.9286 1.40625 78.3505 5.20312 78.3505 11.0625C78.3505 16.8281 71.9286 20.4375 62.788 20.4375C53.6473 20.4375 47.2723 16.8281 47.3192 11.0625C47.2723 5.20312 53.6473 1.40625 62.788 1.40625ZM62.788 6.1875C57.0692 6.1875 53.413 7.92188 53.4598 11.0625C53.413 14.0625 57.0692 15.75 62.788 15.75C68.5536 15.75 72.163 14.0625 72.163 11.0625C72.163 7.92188 68.5536 6.1875 62.788 6.1875ZM124.873 21.1875V25.9219H85.8261V21.1875H102.373V18.6094H90.7011V7.40625H114.139V5.20312H90.6073V0.609375H120.139V11.6719H96.6542V14.0625H120.935V18.6094H108.326V21.1875H124.873ZM96.7011 27.4688V30.2812H114.373V27.4688H120.279V42.1875H90.748V27.4688H96.7011ZM96.7011 37.5938H114.373V34.7344H96.7011V37.5938ZM165.302 0V42.6562H159.677V0H165.302ZM156.208 0.9375V40.7812H150.63V21.1875H143.645C141.208 26.0625 137.247 30.2812 131.177 33.7969L127.802 29.5781C136.403 24.4688 140.2 18.2578 141.02 9.89062H130.145V5.0625H146.974C146.95 9.11719 146.528 12.9375 145.52 16.4531H150.63V0.9375H156.208ZM218.503 0V42.75H212.456V0H218.503ZM195.347 3C201.769 3 206.55 8.90625 206.55 18.1875C206.55 27.5625 201.769 33.4219 195.347 33.4219C188.784 33.4219 184.003 27.5625 184.05 18.1875C184.003 8.90625 188.784 3 195.347 3ZM195.347 8.39062C192.019 8.39062 189.815 11.8594 189.815 18.1875C189.815 24.5625 192.019 27.9844 195.347 27.9844C198.581 27.9844 200.784 24.5625 200.784 18.1875C200.784 11.8594 198.581 8.39062 195.347 8.39062ZM264.229 20.1562V24.8438H225.229V20.1562H241.822V16.5H229.963V1.875H259.541V6.51562H235.916V11.8125H259.775V16.5H247.682V20.1562H264.229ZM244.635 27C253.869 27 259.447 29.8125 259.494 34.875C259.447 39.8438 253.869 42.7031 244.635 42.7031C235.307 42.7031 229.682 39.8438 229.682 34.875C229.682 29.8125 235.307 27 244.635 27ZM244.635 31.5469C238.729 31.5469 235.729 32.6719 235.775 34.875C235.729 37.125 238.729 38.1562 244.635 38.1562C250.4 38.1562 253.447 37.125 253.494 34.875C253.447 32.6719 250.4 31.5469 244.635 31.5469ZM301.329 0V16.6875H307.61V21.6094H301.329V42.6562H295.423V0H301.329ZM292.517 6.375V11.1562H267.439V6.375H277.095V0.65625H283.095V6.375H292.517ZM280.095 13.5469C286.329 13.5469 290.97 17.7656 290.97 23.7188C290.97 29.6719 286.329 33.8906 280.095 33.8906C273.814 33.8906 269.173 29.6719 269.173 23.7188C269.173 17.7656 273.814 13.5469 280.095 13.5469ZM280.095 18.375C277.095 18.4219 274.892 20.4375 274.892 23.7188C274.892 27.0469 277.095 29.0156 280.095 28.9688C283.095 29.0156 285.251 27.0469 285.251 23.7188C285.251 20.4375 283.095 18.4219 280.095 18.375ZM332.149 3.79688V9.65625H340.211V0H346.117V42.75H340.211V25.9688H332.149V32.25H311.711V3.79688H332.149ZM317.664 8.4375V27.6094H326.289V8.4375H317.664ZM332.149 21.2344H340.211V14.4844H332.149V21.2344ZM28.3358 73.2656C34.8045 73.2656 39.7264 77.2969 39.7264 83.0156C39.7264 88.6406 34.8045 92.7188 28.3358 92.7188C21.7264 92.7188 16.8514 88.6406 16.8514 83.0156C16.8514 77.2969 21.7264 73.2656 28.3358 73.2656ZM28.3358 78.1406C25.0545 78.1406 22.617 79.9219 22.6639 83.0156C22.617 86.0625 25.0545 87.8906 28.3358 87.8906C31.5702 87.8906 33.9608 86.0625 33.9608 83.0156C33.9608 79.9219 31.5702 78.1406 28.3358 78.1406ZM51.9139 72V93.375H45.9139V72H51.9139ZM51.9139 95.1562V106.734H29.2264V109.5H53.0858V114.188H23.367V102.375H45.9608V99.75H23.2733V95.1562H51.9139ZM82.6395 76.2656V79.6875C82.5927 83.7188 82.5927 88.9688 81.4677 96.0469L75.5614 95.5781C76.5223 89.3906 76.6161 84.8203 76.6864 81.0469H60.5145V76.2656H82.6395ZM71.9989 88.5V100.875C76.1942 100.711 80.4598 100.406 84.3739 99.8906L84.7489 104.344C75.9833 105.844 66.2802 105.984 58.827 105.938L58.2645 101.156C60.6552 101.133 63.327 101.133 66.0927 101.062V88.5H71.9989ZM92.4364 72V89.1562H98.2489V94.125H92.4364V114.656H86.3895V72H92.4364ZM128.763 76.3594C128.716 81.7969 131.716 86.6719 138.653 88.7344L135.466 93.375C130.872 91.9219 127.685 89.0391 125.856 85.3125C123.958 89.5781 120.513 92.9531 115.45 94.5938L112.403 89.8125C119.575 87.6094 122.716 82.1719 122.763 76.5V73.6406H128.763V76.3594ZM146.95 72V80.4844H152.716V85.3125H146.95V94.6406H140.95V72H146.95ZM130.497 96.375V107.203H122.341V109.875C125.927 109.875 128.294 109.711 131.153 109.172L131.669 113.625C127.919 114.375 124.872 114.469 119.06 114.422H116.481V103.031H124.731V100.734H116.435V96.375H130.497ZM146.95 96.375V114.422H132.747V96.375H146.95ZM137.903 100.734V110.109H141.794V100.734H137.903ZM169.379 74.8594C176.129 74.8125 181.191 79.2188 181.191 85.3125C181.191 91.4531 176.129 95.8125 169.379 95.8125C162.629 95.8125 157.52 91.4531 157.52 85.3125C157.52 79.2188 162.629 74.8125 169.379 74.8594ZM169.379 80.0156C166.004 80.0156 163.426 81.9844 163.473 85.3125C163.426 88.6875 166.004 90.6094 169.379 90.6094C172.754 90.6094 175.332 88.6875 175.379 85.3125C175.332 81.9844 172.801 80.0156 169.379 80.0156ZM191.41 72V114.75H185.457V72H191.41ZM155.738 101.156C163.332 101.203 173.879 101.062 183.02 99.7969L183.488 104.109C174.02 105.938 163.895 106.031 156.441 106.031L155.738 101.156ZM221.924 74.2969C225.322 74.2969 228.299 75.5391 230.361 77.625H240.018V72H245.971V96.9844H240.018V91.875H230.315C228.252 93.9375 225.299 95.1797 221.924 95.1562C215.455 95.2031 210.533 90.75 210.58 84.75C210.533 78.6562 215.455 74.2969 221.924 74.2969ZM221.924 79.4062C218.596 79.4062 216.205 81.375 216.252 84.75C216.205 88.0312 218.596 90.1406 221.924 90.0938C225.158 90.1406 227.502 88.0312 227.502 84.75C227.502 81.375 225.158 79.4062 221.924 79.4062ZM231.393 97.875C240.44 97.875 246.065 100.969 246.111 106.266C246.065 111.562 240.44 114.656 231.393 114.656C222.393 114.656 216.721 111.562 216.721 106.266C216.721 100.969 222.393 97.875 231.393 97.875ZM231.393 102.422C225.721 102.422 222.58 103.688 222.58 106.266C222.58 108.75 225.721 110.016 231.393 110.016C237.158 110.016 240.252 108.75 240.252 106.266C240.252 103.688 237.158 102.422 231.393 102.422ZM232.94 82.3594C233.08 83.1094 233.174 83.9297 233.174 84.75C233.174 85.5703 233.08 86.3438 232.94 87.0938H240.018V82.3594H232.94ZM286.306 72V81.3281H292.071V86.25H286.306V95.8594H280.306V72H286.306ZM274.353 74.4844C274.306 85.7812 267.181 93.4219 254.384 96.7969L251.993 92.0625C261.556 89.6953 266.829 84.9609 267.837 79.2656H254.103V74.4844H274.353ZM286.306 97.4531V114.141H258.415V97.4531H286.306ZM264.368 102.281V109.453H280.4V102.281H264.368ZM314.36 72.6094C324.156 72.6094 329.828 75.1875 329.875 79.875C329.828 84.6094 324.156 87.1875 314.36 87.1875C304.516 87.1875 298.797 84.6094 298.797 79.875C298.797 75.1875 304.516 72.6094 314.36 72.6094ZM314.36 76.9688C308.078 76.9688 305.031 78 305.078 79.875C305.031 81.9844 308.078 82.7812 314.36 82.7812C320.688 82.7812 323.688 81.9844 323.688 79.875C323.688 78 320.688 76.9688 314.36 76.9688ZM333.813 89.2031V93.9375H294.906V89.2031H333.813ZM329.078 96.4219V107.297H305.313V109.875H330.203V114.375H299.453V103.125H323.172V100.781H299.406V96.4219H329.078ZM143.33 170.156V174.938H120.314V181.406H143.892V186.188H114.314V170.156H143.33ZM143.048 144V168.188H137.095V158.859H130.017C128.986 163.664 124.556 167.016 119.001 167.016C112.533 167.016 107.611 162.609 107.658 156.656C107.611 150.516 112.533 146.156 119.001 146.156C124.415 146.156 128.728 149.297 129.923 153.984H137.095V144H143.048ZM119.001 151.172C115.673 151.172 113.283 153.188 113.33 156.656C113.283 159.891 115.673 161.953 119.001 161.953C122.142 161.953 124.58 159.891 124.58 156.656C124.58 153.188 122.142 151.172 119.001 151.172ZM184.18 155.625V160.312H154.368V145.5H160.321V155.625H184.18ZM188.54 164.906V169.594H149.493V164.906H188.54ZM184.461 180.938V185.719H153.993V173.062H159.993V180.938H184.461ZM219.663 148.359C219.616 153.797 222.616 158.672 229.553 160.734L226.366 165.375C221.772 163.922 218.585 161.039 216.756 157.312C214.858 161.578 211.413 164.953 206.35 166.594L203.303 161.812C210.475 159.609 213.616 154.172 213.663 148.5V145.641H219.663V148.359ZM237.85 144V152.484H243.616V157.312H237.85V166.641H231.85V144H237.85ZM221.397 168.375V179.203H213.241V181.875C216.827 181.875 219.194 181.711 222.053 181.172L222.569 185.625C218.819 186.375 215.772 186.469 209.96 186.422H207.381V175.031H215.631V172.734H207.335V168.375H221.397ZM237.85 168.375V186.422H223.647V168.375H237.85ZM228.803 172.734V182.109H232.694V172.734H228.803Z" fill="#40424D"/>
</svg>
