<svg width="1920" height="4874" viewBox="0 0 1920 4874" fill="none" xmlns="http://www.w3.org/2000/svg">
<rect width="1920" height="4874" fill="white"/>
<g filter="url(#filter0_f_4712_2042)">
<circle cx="198.664" cy="454.113" r="741.336" fill="url(#paint0_radial_4712_2042)" fill-opacity="0.4"/>
</g>
<g filter="url(#filter1_f_4712_2042)">
<circle cx="1650.45" cy="1560.72" r="893.449" fill="url(#paint1_radial_4712_2042)" fill-opacity="0.4"/>
</g>
<path d="M597.255 470.039V497.695H620.927V459.961H631.942V565.195H620.927V506.719H597.255V538.711H548.505V470.039H597.255ZM559.52 478.711V529.805H586.356V478.711H559.52ZM746.256 503.438V512.344H703.834V521.484H734.186V546.094H673.014V555.352H737.116V563.906H662.116V538.008H723.17V530.039H661.998V521.484H692.702V512.344H650.514V503.438H746.256ZM733.952 463.359V495.703H662.819V463.359H733.952ZM673.717 472.148V486.914H722.819V472.148H673.717ZM841.586 470.039V480.352C841.586 493.359 841.586 507.891 837.602 529.336L826.352 528.164C830.453 507.891 830.453 493.008 830.453 480.352V479.062H766.703V470.039H841.586ZM852.367 541.523V550.781H756.625V541.523H793.07V504.492H804.086V541.523H852.367ZM981.503 460.078V518.32H970.37V460.078H981.503ZM932.636 474.023C932.519 487.969 942.714 500.742 958.769 505.664L953.378 514.453C941.015 510.469 931.816 502.207 927.011 491.484C922.265 503.027 912.89 512.109 900.292 516.328L894.784 507.539C911.191 502.148 921.269 488.555 921.269 474.023V463.828H932.636V474.023ZM982.206 524.062V532.969H968.378V554.648H983.261V563.672H910.136V554.648H925.136V532.969H911.073V524.062H982.206ZM936.152 554.648H957.363V532.969H936.152V554.648ZM1096.29 514.805V523.711H1000.54V514.805H1096.29ZM1085.5 553.711V562.734H1012.61V532.266H1023.86V553.711H1085.5ZM1048.36 463.477C1071.09 463.359 1085.86 471.328 1085.86 484.453C1085.86 497.695 1071.09 505.664 1048.36 505.781C1025.5 505.664 1010.86 497.695 1010.86 484.453C1010.86 471.328 1025.5 463.359 1048.36 463.477ZM1048.36 472.383C1032.3 472.383 1022.22 476.953 1022.34 484.453C1022.22 492.188 1032.3 496.641 1048.36 496.641C1064.41 496.641 1074.37 492.188 1074.37 484.453C1074.37 476.953 1064.41 472.383 1048.36 472.383ZM1368.85 547.148L1359.71 579.023H1351.04L1357.49 547.148H1368.85ZM475.441 616.031C475.441 630.211 484.933 642.398 501.105 647.438L495.011 656.109C483.409 652.125 474.796 644.273 470.284 634.078C465.655 645.855 456.456 654.879 443.8 659.391L438.058 650.484C454.581 644.977 464.425 631.5 464.425 616.266V608.062H475.441V616.031ZM521.612 603.961V626.344H536.847V635.484H521.612V659.859H510.48V603.961H521.612ZM481.769 664.898V689.742H458.917V699.586C469.23 699.527 475.734 699.234 483.761 697.711L484.816 706.148C475.206 708.023 467.706 708.141 453.878 708.141H448.136V681.656H470.987V673.219H447.902V664.898H481.769ZM521.612 664.898V708.141H487.862V664.898H521.612ZM497.706 673.219V699.938H511.886V673.219H497.706ZM579.442 611.461C596.083 611.344 607.919 621.656 608.036 636.422C607.919 651.188 596.083 661.5 579.442 661.5C562.919 661.5 550.731 651.188 550.848 636.422C550.731 621.656 562.919 611.344 579.442 611.461ZM579.442 621.07C569.247 621.07 561.747 627.164 561.864 636.422C561.747 645.68 569.247 651.773 579.442 651.773C589.637 651.773 597.137 645.68 597.137 636.422C597.137 627.164 589.637 621.07 579.442 621.07ZM632.059 603.961V709.195H620.927V603.961H632.059ZM545.809 677.32C564.911 677.32 591.395 677.086 614.364 673.805L615.184 681.891C591.395 686.461 565.966 686.578 547.216 686.578L545.809 677.32ZM769.75 672.867V707.672H699.672V672.867H712.914V659.391C702.719 659.742 693.051 659.801 684.555 659.859L683.148 650.602C702.953 650.602 729.086 650.602 751.937 647.789L752.641 655.641C743.324 657.223 733.656 658.219 724.164 658.805V672.867H769.75ZM710.57 681.773V698.648H758.734V681.773H710.57ZM769.75 604.078V667.477H758.617V604.078H769.75ZM724.281 611.812C724.281 622.359 733.891 631.266 749.359 634.664L744.555 642.984C732.367 640.23 723.344 633.902 718.773 625.406C714.262 634.605 705.062 641.578 692.641 644.742L687.484 636.188C703.422 632.555 712.914 622.828 712.914 611.812V606.773H724.281V611.812ZM885.236 687.398V696.539H789.142V687.398H814.923V664.078H797.58V655.055H813.283V622.359H797.345V613.219H876.447V622.359H860.392V655.055H876.095V664.078H858.869V687.398H885.236ZM824.298 655.055H849.494V622.359H824.298V655.055ZM826.056 687.398H847.736V664.078H826.056V687.398ZM977.05 603.961V645.797H993.339V655.055H977.05V708.844H965.917V603.961H977.05ZM949.628 614.977C949.511 645.328 936.152 672.398 901.581 689.508L895.37 680.836C921.679 667.711 935.976 648.727 938.261 624.234H900.644V614.977H949.628ZM1095.64 648.375V657.516H1073.49V676.969C1083.22 676.5 1093 675.855 1102.2 674.859L1103.02 683.062C1079.94 686.578 1054.97 686.812 1035.05 686.93L1033.65 677.672C1042.49 677.672 1052.28 677.613 1062.36 677.32V657.516H1041.26V613.688H1095.17V622.711H1052.28V648.375H1095.64ZM1119.9 603.961V709.195H1108.76V603.961H1119.9ZM1224.13 634.664V643.57H1151.83V607.711H1162.84V634.664H1224.13ZM1235.15 656.812V665.719H1139.05V656.812H1235.15ZM1224.84 697.359V706.5H1151.01V675.68H1162.14V697.359H1224.84Z" fill="#8D92A2"/>
<path d="M1194.84 465.352C1194.84 477.188 1207.38 490.43 1230.81 493.594L1225.19 505.43C1207.2 502.793 1193.96 494.531 1187.22 483.516C1180.3 494.648 1167 502.969 1149.02 505.664L1143.51 493.945C1166.83 490.664 1179.37 477.656 1179.48 465.352V461.836H1194.84V465.352ZM1235.97 511.523V523.477H1195.77V541.875H1181.01V523.477H1138.35V511.523H1235.97ZM1225.19 551.953V563.906H1149.84V532.617H1164.72V551.953H1225.19ZM1329.19 459.141V489.023H1343.6V501.328H1329.19V535.547H1314.07V459.141H1329.19ZM1300.13 467.109C1300.13 495.938 1282.08 516.094 1250.09 525.117L1243.88 513.281C1267.72 506.602 1281.26 494.238 1283.72 479.297H1248.56V467.109H1300.13ZM1332.82 551.953V563.906H1259.81V527.695H1274.93V551.953H1332.82ZM1325.14 669.586C1348.46 669.586 1363.11 676.969 1363.23 689.742C1363.11 702.281 1348.46 709.781 1325.14 709.781C1302.06 709.781 1287.17 702.281 1287.17 689.742C1287.17 676.969 1302.06 669.586 1325.14 669.586ZM1325.14 680.719C1310.5 680.719 1302.06 683.766 1302.06 689.742C1302.06 695.484 1310.5 698.414 1325.14 698.414C1339.79 698.414 1348.35 695.484 1348.35 689.742C1348.35 683.766 1339.79 680.719 1325.14 680.719ZM1362.64 607.945V616.617C1362.64 625.055 1362.64 634.195 1359.6 645.211L1344.95 643.805C1347.29 634.137 1347.59 626.93 1347.76 619.664H1288.23V607.945H1362.64ZM1374.13 650.719V662.789H1277.33V650.719H1313.66V632.086H1328.42V650.719H1374.13ZM1467.82 603.141V633.023H1482.23V645.328H1467.82V679.547H1452.7V603.141H1467.82ZM1438.75 611.109C1438.75 639.938 1420.71 660.094 1388.72 669.117L1382.5 657.281C1406.35 650.602 1419.89 638.238 1422.35 623.297H1387.19V611.109H1438.75ZM1471.45 695.953V707.906H1398.44V671.695H1413.56V695.953H1471.45Z" fill="#40424D"/>
<line x1="244.027" y1="3171.18" x2="244.027" y2="3603.18" stroke="#56AFDF" stroke-width="2"/>
<line x1="265.027" y1="3172.18" x2="222.027" y2="3172.18" stroke="#56AFDF" stroke-width="2"/>
<line x1="265.027" y1="3604.18" x2="222.027" y2="3604.18" stroke="#56AFDF" stroke-width="2"/>
<line x1="1677" y1="4253.61" x2="1677" y2="4685.61" stroke="#56AFDF" stroke-width="2"/>
<line x1="1698" y1="4254.61" x2="1655" y2="4254.61" stroke="#56AFDF" stroke-width="2"/>
<line x1="1698" y1="4686.61" x2="1655" y2="4686.61" stroke="#56AFDF" stroke-width="2"/>
<g filter="url(#filter2_f_4712_2042)">
<circle cx="1522" cy="3518" r="1032" fill="url(#paint2_radial_4712_2042)" fill-opacity="0.4"/>
</g>
<path d="M987 2781.98C987 2789.72 980.694 2796 972.915 2796C965.136 2796 958.83 2789.72 958.83 2781.98C958.83 2774.24 965.136 2767.96 972.915 2767.96C980.694 2767.96 987 2774.24 987 2781.98Z" fill="#56AFDF" fill-opacity="0.32"/>
<path d="M979.957 2773.83C979.957 2781.57 973.651 2787.84 965.872 2787.84C958.094 2787.84 951.787 2781.57 951.787 2773.83C951.787 2766.08 958.094 2759.81 965.872 2759.81C973.651 2759.81 979.957 2766.08 979.957 2773.83Z" fill="#56AFDF" fill-opacity="0.32"/>
<path fill-rule="evenodd" clip-rule="evenodd" d="M944.549 2755.84C946.051 2754.72 948.119 2754.72 949.622 2755.84L973.566 2773.73C974.629 2774.52 975.255 2775.77 975.255 2777.09V2791.79C975.255 2794.12 973.363 2796 971.03 2796H937.226C934.892 2796 933 2794.12 933 2791.79V2766.57C933 2765.25 933.626 2764 934.689 2763.21L944.549 2755.84ZM946.142 2784.13C943.809 2784.13 941.917 2786.01 941.917 2788.33V2796H950.606V2788.33C950.606 2786.01 948.714 2784.13 946.381 2784.13H946.142Z" fill="#56AFDF"/>
<path d="M760.25 2845.53V2852.47H764.156V2855.31H760.25V2862.03H756.75V2845.53H760.25ZM751.031 2862.56C756.812 2862.56 760.469 2864.62 760.5 2868.12C760.469 2871.69 756.812 2873.75 751.031 2873.75C745.188 2873.75 741.469 2871.69 741.469 2868.12C741.469 2864.62 745.188 2862.56 751.031 2862.56ZM751.031 2865.34C747.156 2865.34 744.875 2866.31 744.906 2868.12C744.875 2869.97 747.156 2870.97 751.031 2870.97C754.844 2870.97 757.125 2869.97 757.125 2868.12C757.125 2866.31 754.844 2865.34 751.031 2865.34ZM751.688 2847.53V2850.34H742.469V2857.44C747.875 2857.42 750.891 2857.27 754.219 2856.56L754.562 2859.34C750.906 2860.12 747.562 2860.25 741.312 2860.25H739.031V2847.53H751.688ZM789.765 2845.56V2866.19H786.265V2845.56H789.765ZM790.546 2870.41V2873.22H771.077V2864.22H774.577V2870.41H790.546ZM776.765 2849.88C776.765 2853.81 779.077 2857.53 783.546 2859.03L781.765 2861.78C778.546 2860.66 776.249 2858.41 775.015 2855.53C773.734 2858.61 771.406 2861.08 768.077 2862.28L766.265 2859.53C770.859 2857.91 773.171 2853.94 773.171 2849.88V2847.12H776.765V2849.88ZM803.686 2847.5C808.155 2847.47 811.436 2850.31 811.467 2854.31C811.436 2858.34 808.155 2861.16 803.686 2861.16C799.249 2861.16 795.936 2858.34 795.936 2854.31C795.936 2850.31 799.249 2847.47 803.686 2847.5ZM803.686 2850.5C801.217 2850.5 799.374 2851.97 799.374 2854.31C799.374 2856.69 801.217 2858.12 803.686 2858.12C806.186 2858.12 808.061 2856.69 808.061 2854.31C808.061 2851.97 806.186 2850.5 803.686 2850.5ZM818.061 2845.53V2873.81H814.592V2845.53H818.061ZM794.655 2865.06C799.749 2865.06 806.811 2865 812.905 2864.12L813.186 2866.66C806.842 2867.88 800.061 2867.91 795.092 2867.91L794.655 2865.06ZM845.435 2848.28V2866.78H832.06V2848.28H845.435ZM835.466 2851V2864H841.966V2851H835.466ZM853.185 2845.53V2856.38H857.529V2859.31H853.185V2873.78H849.716V2845.53H853.185ZM872.2 2846.09C878.45 2846.09 882.356 2848.16 882.387 2851.59C882.356 2854.97 878.45 2857 872.2 2856.97C866.012 2857 862.012 2854.97 862.012 2851.59C862.012 2848.16 866.012 2846.09 872.2 2846.09ZM872.2 2848.81C868.075 2848.81 865.606 2849.78 865.637 2851.59C865.606 2853.31 868.075 2854.25 872.2 2854.28C876.325 2854.25 878.794 2853.31 878.794 2851.59C878.794 2849.78 876.325 2848.81 872.2 2848.81ZM881.981 2863.94V2873.44H862.387V2863.94H881.981ZM865.825 2866.69V2870.62H878.606V2866.69H865.825ZM885.106 2858.88V2861.69H859.356V2858.88H885.106ZM921.636 2859.41V2862.22H895.886V2859.41H907.011V2855.47H910.449V2859.41H921.636ZM910.48 2847.06C910.48 2850.5 914.261 2853.62 920.167 2854.38L918.824 2857.09C914.183 2856.38 910.496 2854.28 908.699 2851.31C906.886 2854.28 903.199 2856.38 898.542 2857.09L897.292 2854.38C903.105 2853.62 906.949 2850.44 906.949 2847.06V2846H910.48V2847.06ZM918.48 2864.47V2873.78H915.011V2867.19H898.73V2864.47H918.48ZM955.479 2848.12V2850.84C955.447 2854.34 955.447 2858.28 954.354 2864.19L950.854 2863.81C951.947 2858.31 951.947 2854.3 951.979 2850.91H935.104V2848.12H955.479ZM958.166 2867.28V2870.12H932.416V2867.28H941.916V2857.47H945.354V2867.28H958.166ZM986.837 2849.94V2852.78H982.994V2856H986.837V2858.84H982.994V2863.56H979.525V2845.53H982.994V2849.94H986.837ZM973.869 2863.81C979.65 2863.81 983.306 2865.66 983.306 2868.78C983.306 2871.88 979.65 2873.75 973.869 2873.75C967.994 2873.75 964.4 2871.88 964.431 2868.78C964.4 2865.66 967.994 2863.81 973.869 2863.81ZM973.869 2866.47C969.994 2866.47 967.837 2867.22 967.869 2868.78C967.837 2870.28 969.994 2871.12 973.869 2871.12C977.681 2871.12 979.837 2870.28 979.837 2868.78C979.837 2867.22 977.681 2866.47 973.869 2866.47ZM977.494 2848.41V2851.12H960.744V2848.41H967.4V2845.34H970.869V2848.41H977.494ZM969.119 2852.25C973.212 2852.25 975.994 2854.28 976.025 2857.31C975.994 2860.34 973.212 2862.34 969.119 2862.34C964.994 2862.34 962.181 2860.34 962.181 2857.31C962.181 2854.28 964.994 2852.25 969.119 2852.25ZM969.119 2854.81C966.962 2854.81 965.556 2855.75 965.556 2857.31C965.556 2858.84 966.962 2859.72 969.119 2859.72C971.275 2859.72 972.712 2858.84 972.712 2857.31C972.712 2855.75 971.275 2854.81 969.119 2854.81ZM1014.76 2860.12V2862.91H989.009V2860.12H1014.76ZM1011.85 2870.41V2873.22H992.196V2865H995.665V2870.41H1011.85ZM1001.85 2846.44C1008.01 2846.44 1012.01 2848.59 1012.04 2852.16C1012.01 2855.75 1008.01 2857.94 1001.85 2857.94C995.696 2857.94 991.665 2855.75 991.665 2852.16C991.665 2848.59 995.696 2846.44 1001.85 2846.44ZM1001.85 2849.22C997.759 2849.22 995.259 2850.28 995.29 2852.16C995.259 2854.06 997.759 2855.12 1001.85 2855.09C1005.98 2855.12 1008.45 2854.06 1008.45 2852.16C1008.45 2850.28 1005.98 2849.22 1001.85 2849.22ZM1033.26 2847.59C1037.09 2847.59 1039.91 2850.78 1040.41 2855.94H1045.79V2845.53H1049.23V2873.81H1045.79V2858.75H1040.45C1040.07 2864.2 1037.2 2867.56 1033.26 2867.56C1029.01 2867.56 1026.01 2863.72 1026.01 2857.56C1026.01 2851.47 1029.01 2847.59 1033.26 2847.59ZM1033.26 2850.72C1030.91 2850.72 1029.32 2853.25 1029.35 2857.56C1029.32 2861.91 1030.91 2864.44 1033.26 2864.44C1035.6 2864.44 1037.16 2861.91 1037.2 2857.56C1037.16 2853.25 1035.6 2850.72 1033.26 2850.72ZM1077.33 2845.53V2873.81H1073.83V2845.53H1077.33ZM1069.21 2848.09V2850.94H1059.08V2864.06C1064.29 2864.05 1067.55 2863.89 1071.3 2863.22L1071.65 2866.09C1067.62 2866.84 1063.96 2867 1057.99 2867H1055.58V2848.09H1069.21ZM1105.66 2845.56V2865.97H1102.16V2845.56H1105.66ZM1106.44 2870.41V2873.22H1086.98V2863.91H1090.48V2870.41H1106.44ZM1090.26 2847.41C1094.54 2847.41 1097.85 2850.38 1097.85 2854.47C1097.85 2858.66 1094.54 2861.56 1090.26 2861.56C1085.94 2861.56 1082.63 2858.66 1082.63 2854.47C1082.63 2850.38 1085.94 2847.41 1090.26 2847.41ZM1090.26 2850.44C1087.85 2850.44 1086.01 2852.03 1086.04 2854.47C1086.01 2856.97 1087.85 2858.53 1090.26 2858.53C1092.6 2858.53 1094.44 2856.97 1094.44 2854.47C1094.44 2852.03 1092.6 2850.44 1090.26 2850.44ZM1132.55 2845.53V2856.56H1136.74V2859.47H1132.55V2873.72H1129.08V2845.53H1132.55ZM1125.08 2848.47C1125.08 2856.78 1121.65 2864.06 1112.24 2868.69L1110.27 2866C1117.15 2862.58 1120.86 2857.77 1121.58 2851.34H1111.8V2848.47H1125.08ZM1164.54 2867.5V2870.34H1138.72V2867.5H1144.69V2860.34C1142.44 2859.06 1141.08 2857.05 1141.1 2854.53C1141.07 2850.03 1145.51 2847.06 1151.57 2847.06C1157.66 2847.06 1162.1 2850.03 1162.1 2854.53C1162.1 2857 1160.79 2858.98 1158.6 2860.28V2867.5H1164.54ZM1151.57 2849.81C1147.35 2849.81 1144.47 2851.59 1144.51 2854.53C1144.47 2857.44 1147.35 2859.25 1151.57 2859.25C1155.79 2859.25 1158.69 2857.44 1158.69 2854.53C1158.69 2851.59 1155.79 2849.81 1151.57 2849.81ZM1148.13 2867.5H1155.07V2861.59C1153.99 2861.84 1152.82 2861.97 1151.57 2861.97C1150.35 2861.97 1149.19 2861.84 1148.13 2861.62V2867.5ZM1171.8 2864.06C1171.83 2860.09 1172.96 2858.88 1174.93 2857.66C1176.27 2856.81 1177.27 2855.75 1177.27 2854.19C1177.27 2852.44 1175.93 2851.31 1174.21 2851.31C1172.64 2851.31 1171.14 2852.31 1171.05 2854.41H1167.14C1167.24 2850.22 1170.39 2848.06 1174.24 2848.06C1178.46 2848.06 1181.36 2850.41 1181.36 2854.12C1181.36 2856.66 1180.08 2858.31 1178.05 2859.53C1176.24 2860.62 1175.49 2861.72 1175.46 2864.06V2864.34H1171.8V2864.06ZM1173.74 2871.25C1172.39 2871.25 1171.3 2870.16 1171.3 2868.81C1171.3 2867.5 1172.39 2866.41 1173.74 2866.41C1175.02 2866.41 1176.14 2867.5 1176.14 2868.81C1176.14 2870.16 1175.02 2871.25 1173.74 2871.25Z" fill="#40424D"/>
<path d="M941.5 3709.68C942.252 3709.68 943.002 3709.68 943.75 3709.7C943.576 3710.36 943.411 3711.02 943.257 3711.69C942.672 3711.68 942.087 3711.68 941.5 3711.68C887.376 3711.68 843.5 3755.55 843.5 3809.68C843.5 3863.8 887.376 3907.68 941.5 3907.68C995.624 3907.68 1039.5 3863.8 1039.5 3809.68C1039.5 3802.91 1038.81 3796.31 1037.51 3789.93C1038.14 3789.65 1038.76 3789.37 1039.37 3789.07C1040.77 3795.72 1041.5 3802.61 1041.5 3809.68C1041.5 3864.9 996.728 3909.68 941.5 3909.68C886.272 3909.68 841.5 3864.9 841.5 3809.68C841.5 3754.45 886.272 3709.68 941.5 3709.68ZM943.257 3711.69C989.833 3712.51 1028.48 3745.82 1037.51 3789.93C1029.09 3793.62 1019.78 3795.68 1010 3795.68C972.168 3795.68 941.5 3765.01 941.5 3727.18C941.5 3721.85 942.107 3716.67 943.257 3711.69ZM1010 3658.68C1047.83 3658.68 1078.5 3689.34 1078.5 3727.18C1078.5 3754.49 1062.51 3778.08 1039.37 3789.07C1030.02 3744.44 990.914 3710.74 943.75 3709.7C951.475 3680.33 978.208 3658.68 1010 3658.68Z" fill="#56AFDF"/>
<rect x="1000" y="2964" width="80" height="80" rx="40" transform="rotate(90 1000 2964)" fill="#56AFDF"/>
<path d="M960 3020L968.66 3005L951.34 3005L960 3020ZM960 2988L958.5 2988L958.5 3006.5L960 3006.5L961.5 3006.5L961.5 2988L960 2988Z" fill="white"/>
<defs>
<filter id="filter0_f_4712_2042" x="-642.672" y="-387.223" width="1682.67" height="1682.67" filterUnits="userSpaceOnUse" color-interpolation-filters="sRGB">
<feFlood flood-opacity="0" result="BackgroundImageFix"/>
<feBlend mode="normal" in="SourceGraphic" in2="BackgroundImageFix" result="shape"/>
<feGaussianBlur stdDeviation="50" result="effect1_foregroundBlur_4712_2042"/>
</filter>
<filter id="filter1_f_4712_2042" x="657" y="567.273" width="1986.9" height="1986.9" filterUnits="userSpaceOnUse" color-interpolation-filters="sRGB">
<feFlood flood-opacity="0" result="BackgroundImageFix"/>
<feBlend mode="normal" in="SourceGraphic" in2="BackgroundImageFix" result="shape"/>
<feGaussianBlur stdDeviation="50" result="effect1_foregroundBlur_4712_2042"/>
</filter>
<filter id="filter2_f_4712_2042" x="390" y="2386" width="2264" height="2264" filterUnits="userSpaceOnUse" color-interpolation-filters="sRGB">
<feFlood flood-opacity="0" result="BackgroundImageFix"/>
<feBlend mode="normal" in="SourceGraphic" in2="BackgroundImageFix" result="shape"/>
<feGaussianBlur stdDeviation="50" result="effect1_foregroundBlur_4712_2042"/>
</filter>
<radialGradient id="paint0_radial_4712_2042" cx="0" cy="0" r="1" gradientUnits="userSpaceOnUse" gradientTransform="translate(198.664 454.113) rotate(90) scale(741.336)">
<stop stop-color="#56AFDF" stop-opacity="0.39"/>
<stop offset="1" stop-color="#56AFDF" stop-opacity="0"/>
</radialGradient>
<radialGradient id="paint1_radial_4712_2042" cx="0" cy="0" r="1" gradientUnits="userSpaceOnUse" gradientTransform="translate(1650.45 1560.72) rotate(90) scale(893.449)">
<stop stop-color="#56AFDF" stop-opacity="0.39"/>
<stop offset="1" stop-color="#56AFDF" stop-opacity="0"/>
</radialGradient>
<radialGradient id="paint2_radial_4712_2042" cx="0" cy="0" r="1" gradientUnits="userSpaceOnUse" gradientTransform="translate(1522 3518) rotate(90) scale(1032)">
<stop stop-color="#56AFDF" stop-opacity="0.39"/>
<stop offset="1" stop-color="#56AFDF" stop-opacity="0"/>
</radialGradient>
</defs>
</svg>
