<svg width="263" height="115" viewBox="0 0 263 115" fill="none" xmlns="http://www.w3.org/2000/svg">
<path d="M36.6561 0.234375V42.9844H30.6093V0.234375H36.6561ZM9.04675 3.60938V14.0156H18.2343V3.60938H24.1405V33H3.04675V3.60938H9.04675ZM9.04675 28.1719H18.2343V18.6562H9.04675V28.1719ZM82.288 20.2031V25.0312H43.3818V20.2031H82.288ZM65.8349 28.125C65.8349 32.625 70.288 36.9844 79.663 38.1094L77.4599 42.7031C70.4521 41.7422 65.4364 39.0234 62.788 35.1562C60.1396 39.0234 55.1239 41.7422 48.1161 42.7031L46.0068 38.1094C55.288 36.9844 59.7411 32.625 59.788 28.125V27.2344H65.8349V28.125ZM65.9286 2.39062C65.9286 6.9375 70.8505 12 80.3661 13.125L78.0693 17.9062C70.8505 16.8516 65.5536 13.6406 62.8349 9.375C60.0927 13.6641 54.7724 16.8516 47.5536 17.9062L45.3505 13.125C54.7724 12 59.7411 7.03125 59.788 2.39062V0.9375H65.9286V2.39062ZM119.67 0.28125V13.3594H125.436V18.2344H119.67V32.1094H113.67V0.28125H119.67ZM111.139 4.73438V9.46875H85.8261V4.73438H95.5293V0.1875H101.482V4.73438H111.139ZM98.4824 10.9688C104.67 10.9688 108.982 14.2969 108.982 19.2188C108.982 24.1406 104.67 27.375 98.4824 27.375C92.248 27.375 87.8886 24.1406 87.8886 19.2188C87.8886 14.2969 92.248 10.9688 98.4824 10.9688ZM98.4824 15.5156C95.623 15.5625 93.7011 16.875 93.748 19.2188C93.7011 21.5625 95.623 22.8281 98.4824 22.8281C101.342 22.8281 103.311 21.5625 103.311 19.2188C103.311 16.875 101.342 15.5625 98.4824 15.5156ZM121.217 37.3594V42.1406H92.0136V29.6719H97.9668V37.3594H121.217ZM165.934 4.5V9.14062H157.496C157.613 12.4922 160.637 15.5859 166.965 16.7344L164.621 21.3281C159.793 20.3906 156.465 18.2578 154.59 15.375C152.691 18.5391 149.293 20.9297 144.277 21.9375L141.84 17.2969C148.285 16.1016 151.285 12.75 151.449 9.14062H142.965V4.5H151.496V0.328125H157.496V4.5H165.934ZM176.246 0.28125V42.8906H170.34V0.28125H176.246ZM140.387 23.7656C148.262 23.7656 158.762 23.7188 167.762 22.5469L168.137 26.8594C164.621 27.4688 161.012 27.8906 157.449 28.125V41.5781H151.496V28.4531C147.793 28.5938 144.254 28.6172 141.137 28.5938L140.387 23.7656ZM222.112 6.46875V11.2969H216.581V15.6562H222.112V20.5312H216.581V27.3281H210.581V0.234375H216.581V6.46875H222.112ZM202.659 27.7031C211.425 27.7031 217.05 30.5625 217.05 35.3438C217.05 40.0312 211.425 42.8906 202.659 42.8906C193.706 42.8906 188.175 40.0312 188.222 35.3438C188.175 30.5625 193.706 27.7031 202.659 27.7031ZM202.659 32.25C197.081 32.25 194.081 33.2344 194.128 35.3438C194.081 37.3594 197.081 38.4375 202.659 38.4375C208.097 38.4375 211.05 37.3594 211.05 35.3438C211.05 33.2344 208.097 32.25 202.659 32.25ZM208.05 4.3125V8.95312H182.737V4.3125H192.441V0H198.394V4.3125H208.05ZM195.394 10.4062C201.581 10.4062 205.894 13.5469 205.894 18.0938C205.894 22.6875 201.581 25.7344 195.394 25.7344C189.112 25.7344 184.8 22.6875 184.8 18.0938C184.8 13.5469 189.112 10.4062 195.394 10.4062ZM195.394 14.7656C192.534 14.7656 190.612 15.9375 190.659 18.0938C190.612 20.2031 192.534 21.3281 195.394 21.2812C198.253 21.3281 200.222 20.2031 200.222 18.0938C200.222 15.9375 198.253 14.7656 195.394 14.7656ZM239.01 3.09375C245.76 3.04688 250.822 7.45312 250.822 13.5469C250.822 19.6875 245.76 24.0469 239.01 24.0469C232.26 24.0469 227.15 19.6875 227.15 13.5469C227.15 7.45312 232.26 3.04688 239.01 3.09375ZM239.01 8.25C235.635 8.25 233.057 10.2188 233.104 13.5469C233.057 16.9219 235.635 18.8438 239.01 18.8438C242.385 18.8438 244.963 16.9219 245.01 13.5469C244.963 10.2188 242.432 8.25 239.01 8.25ZM261.041 0.234375V42.9844H255.088V0.234375H261.041ZM225.369 29.3906C232.963 29.4375 243.51 29.2969 252.65 28.0312L253.119 32.3438C243.65 34.1719 233.525 34.2656 226.072 34.2656L225.369 29.3906ZM16.6405 81.8906C16.5936 89.5312 19.8749 97.2656 26.7186 100.547L23.1093 105.328C18.5389 103.078 15.4686 98.8594 13.6874 93.7031C11.8358 99.2344 8.53113 103.758 3.703 106.125L-0.00012207 101.297C7.21863 97.9688 10.6405 89.8125 10.6405 81.8906V75.5156H16.6405V81.8906ZM34.5936 72.2344V88.6875H40.8749V93.75H34.5936V114.891H28.5936V72.2344H34.5936ZM77.2255 72.2812V82.3594H82.9911V87.3281H77.2255V97.5938H71.2255V72.2812H77.2255ZM77.2255 99.375V114.422H49.288V99.375H77.2255ZM55.1474 104.062V109.641H71.3661V104.062H55.1474ZM64.4755 74.3438V87.3281H50.8818V91.1719C57.9364 91.125 62.7177 90.8906 68.1318 89.9531L68.788 94.6406C62.6474 95.8594 57.163 96.0469 48.538 96.0469H44.9286V82.8281H58.663V79.125H44.8818V74.3438H64.4755ZM124.826 88.875V93.5625H85.8261V88.875H124.826ZM120.186 81.8438V86.5312H90.7011V73.0781H119.857V77.8594H96.6543V81.8438H120.186ZM119.998 96.0938V107.25H96.2324V109.875H121.123V114.516H90.373V102.984H114.092V100.594H90.3261V96.0938H119.998ZM152.271 76.5V79.9219C152.224 83.9531 152.224 89.2031 151.099 96.2812L145.192 95.8125C146.153 89.625 146.247 85.0547 146.317 81.2812H130.146V76.5H152.271ZM141.63 88.7344V101.109C145.825 100.945 150.091 100.641 154.005 100.125L154.38 104.578C145.614 106.078 135.911 106.219 128.458 106.172L127.896 101.391C130.286 101.367 132.958 101.367 135.724 101.297V88.7344H141.63ZM162.067 72.2344V89.3906H167.88V94.3594H162.067V114.891H156.021V72.2344H162.067ZM216.581 72.2344V82.7344H222.347V87.75H216.581V97.9688H210.581V72.2344H216.581ZM216.581 99.8438V114.422H188.691V99.8438H216.581ZM194.597 104.531V109.641H210.675V104.531H194.597ZM208.05 76.0781V80.8125H182.737V76.0781H192.441V72H198.394V76.0781H208.05ZM195.394 82.125C201.581 82.125 205.894 85.2656 205.894 89.7656C205.894 94.4062 201.581 97.5 195.394 97.5C189.112 97.5 184.8 94.4062 184.8 89.7656C184.8 85.2656 189.112 82.125 195.394 82.125ZM195.394 86.625C192.534 86.625 190.612 87.75 190.659 89.7656C190.612 91.9219 192.534 93.0938 195.394 93.0938C198.253 93.0938 200.222 91.9219 200.222 89.7656C200.222 87.75 198.253 86.625 195.394 86.625ZM235.682 77.1094C235.635 87.75 234.604 97.3125 229.166 105.75L224.525 103.312C228.908 96.6797 230.221 90.2109 230.525 81.9375H225.932V77.1094H235.682ZM245.244 77.1094C245.221 80.8594 245.15 84.5859 244.822 88.2188H248.479V73.1719H254.104V113.016H248.479V93.0469H244.213C243.299 98.2734 241.682 103.289 238.729 107.906L234.182 105.375C238.94 98.1094 239.924 90.5859 240.135 81.9375H236.9V77.1094H245.244ZM262.494 72.2344V114.891H256.775V72.2344H262.494Z" fill="#40424D"/>
</svg>
