<svg width="372" height="187" viewBox="0 0 372 187" fill="none" xmlns="http://www.w3.org/2000/svg">
<path d="M85.6273 17.4375V22.2656H46.7211V17.4375H63.1273V14.6719H51.5492V1.21875H80.7054V14.6719H69.0336V17.4375H85.6273ZM57.4086 5.85938V10.0781H74.7523V5.85938H57.4086ZM80.8929 24.375V35.2969H57.1273V37.875H82.0179V42.375H51.2679V31.0781H74.9867V28.875H51.2211V24.375H80.8929ZM124.884 0V22.9219H118.884V0H124.884ZM102.244 24.7969V28.7812H118.931V24.7969H124.884V42.1875H96.3373V24.7969H102.244ZM102.244 37.3594H118.931V33.4219H102.244V37.3594ZM101.494 1.78125C108.15 1.73438 113.165 5.90625 113.165 11.9062C113.165 17.7188 108.15 21.8906 101.494 21.8906C94.8373 21.8906 89.8217 17.7188 89.8217 11.9062C89.8217 5.90625 94.8373 1.73438 101.494 1.78125ZM101.494 6.75C98.0717 6.75 95.6342 8.67188 95.6811 11.9062C95.6342 15.0938 98.0717 16.9688 101.494 16.9688C104.822 16.9688 107.259 15.0938 107.259 11.9062C107.259 8.67188 104.822 6.75 101.494 6.75ZM165.266 0V16.6875H171.547V21.6094H165.266V42.6562H159.36V0H165.266ZM156.454 6.375V11.1562H131.375V6.375H141.032V0.65625H147.032V6.375H156.454ZM144.032 13.5469C150.266 13.5469 154.907 17.7656 154.907 23.7188C154.907 29.6719 150.266 33.8906 144.032 33.8906C137.75 33.8906 133.11 29.6719 133.11 23.7188C133.11 17.7656 137.75 13.5469 144.032 13.5469ZM144.032 18.375C141.032 18.4219 138.829 20.4375 138.829 23.7188C138.829 27.0469 141.032 29.0156 144.032 28.9688C147.032 29.0156 149.188 27.0469 149.188 23.7188C149.188 20.4375 147.032 18.4219 144.032 18.375ZM209.914 0V42.6562H203.867V0H209.914ZM197.117 4.45312C197.117 17.3906 192.57 28.125 177.335 35.3438L174.195 30.5625C185.21 25.3594 190.062 18.6094 191.023 9.14062H176.492V4.45312H197.117ZM250.88 12.7031V16.6406H267.521V21.4219H228.474V16.6406H244.974V12.7031H250.88ZM263.912 1.03125V5.57812H252.427C253.646 8.03906 257.935 10.2656 265.74 10.6875L263.865 15.1406C255.638 14.5781 250.154 11.9531 247.974 8.10938C245.771 11.9297 240.287 14.5781 232.084 15.1406L230.162 10.6875C237.826 10.2656 242.209 8.01562 243.474 5.57812H232.084V1.03125H263.912ZM263.818 25.7812V30.2344H232.037V25.7812H244.927V22.5938H250.927V25.7812H263.818ZM247.88 31.5C256.13 31.5 261.052 33.4688 261.052 37.125C261.052 40.8281 256.13 42.7969 247.88 42.7969C239.537 42.7969 234.802 40.8281 234.802 37.125C234.802 33.4688 239.537 31.5 247.88 31.5ZM247.88 35.4375C243.287 35.4844 240.943 35.9062 240.943 37.125C240.943 38.2969 243.287 38.8594 247.88 38.8594C252.521 38.8594 254.771 38.2969 254.818 37.125C254.771 35.9062 252.521 35.4844 247.88 35.4375ZM309.872 21.7969V26.5781H270.965V21.7969H309.872ZM305.465 37.125V41.9062H275.653V29.4375H281.653V37.125H305.465ZM290.419 1.3125C299.747 1.26562 305.887 4.59375 305.934 10.0312C305.887 15.4688 299.747 18.8438 290.419 18.8438C280.997 18.8438 274.856 15.4688 274.856 10.0312C274.856 4.59375 280.997 1.26562 290.419 1.3125ZM290.419 6C284.512 6.04688 281.044 7.45312 281.09 10.0312C281.044 12.7031 284.512 14.0156 290.419 14.0156C296.325 14.0156 299.747 12.7031 299.747 10.0312C299.747 7.45312 296.325 6.04688 290.419 6ZM65.202 88.1719V93.0469H59.1551V114.562H53.1551V72H59.1551V88.1719H65.202ZM32.8114 76.0781V99.1875C38.2723 99.1172 44.1317 98.6016 50.2957 97.3594L50.9051 102.328C43.7801 103.781 36.8426 104.156 30.5614 104.156H26.8582V76.0781H32.8114ZM89.6932 75.5156V96H69.2089V75.5156H89.6932ZM75.1151 80.2969V91.3125H83.787V80.2969H75.1151ZM101.787 72V84.2812H107.553V89.2031H101.787V103.125H95.787V72H101.787ZM103.334 109.125V113.906H74.1307V100.078H80.0839V109.125H103.334ZM124.216 74.8594C130.966 74.8125 136.028 79.2188 136.028 85.3125C136.028 91.4531 130.966 95.8125 124.216 95.8125C117.466 95.8125 112.356 91.4531 112.356 85.3125C112.356 79.2188 117.466 74.8125 124.216 74.8594ZM124.216 80.0156C120.841 80.0156 118.263 81.9844 118.309 85.3125C118.263 88.6875 120.841 90.6094 124.216 90.6094C127.591 90.6094 130.169 88.6875 130.216 85.3125C130.169 81.9844 127.638 80.0156 124.216 80.0156ZM146.247 72V114.75H140.294V72H146.247ZM110.575 101.156C118.169 101.203 128.716 101.062 137.856 99.7969L138.325 104.109C128.856 105.938 118.731 106.031 111.278 106.031L110.575 101.156ZM184.073 98.5781C193.401 98.5781 199.261 101.531 199.308 106.641C199.261 111.656 193.401 114.656 184.073 114.656C174.839 114.656 168.886 111.656 168.886 106.641C168.886 101.531 174.839 98.5781 184.073 98.5781ZM184.073 103.031C178.214 103.031 174.839 104.25 174.839 106.641C174.839 108.938 178.214 110.109 184.073 110.109C189.933 110.109 193.354 108.938 193.354 106.641C193.354 104.25 189.933 103.031 184.073 103.031ZM199.073 73.9219V77.3906C199.073 80.7656 199.073 84.4219 197.854 88.8281L191.995 88.2656C192.933 84.3984 193.05 81.5156 193.12 78.6094H169.308V73.9219H199.073ZM203.667 91.0312V95.8594H164.948V91.0312H179.479V83.5781H185.386V91.0312H203.667ZM241.143 72V83.9531H246.908V88.875H241.143V102.562H235.096V72H241.143ZM229.518 75.1875C229.518 86.7188 222.299 94.7812 209.502 98.3906L207.018 93.6562C216.557 90.9844 221.971 86.0391 222.955 80.0625H208.893V75.1875H229.518ZM242.596 109.125V113.906H213.393V99.4219H219.439V109.125H242.596ZM286.728 72V114.656H281.009V72H286.728ZM277.821 72.6094V112.688H272.196V92.5312H268.774C268.212 100.922 264.649 105.984 259.399 105.984C253.774 105.984 250.118 100.078 250.118 90.4688C250.118 80.9062 253.774 75.0469 259.399 75.0469C264.532 75.0469 268.048 79.8281 268.728 87.7969H272.196V72.6094H277.821ZM259.399 80.6719C257.009 80.6719 255.603 83.9531 255.649 90.4688C255.603 97.0312 257.009 100.266 259.399 100.219C261.837 100.266 263.29 97.0312 263.29 90.4688C263.29 83.9531 261.837 80.6719 259.399 80.6719ZM308.313 81.6562C308.313 89.6719 311.547 97.4531 318.672 100.547L315.016 105.328C310.281 103.008 307.117 98.7656 305.359 93.5156C303.484 99.0938 300.203 103.664 295.328 106.078L291.578 101.203C298.891 97.9219 302.219 89.6719 302.266 81.6562V75.2812H308.313V81.6562ZM328.188 72V114.75H322.281V90.2344H313.891V85.4062H322.281V72H328.188ZM35.0623 144V186.656H29.2967V165.328H25.3123V184.594H19.6873V144.703H25.3123V160.5H29.2967V144H35.0623ZM5.9998 148.734V171C9.42168 170.93 13.1717 170.625 17.2967 169.828L17.9061 174.984C12.1873 175.969 7.3123 176.25 2.90605 176.25H-0.000198364V148.734H5.9998ZM64.8729 145.266C71.3417 145.266 76.2635 149.297 76.2635 155.016C76.2635 160.641 71.3417 164.719 64.8729 164.719C58.2635 164.719 53.3885 160.641 53.3885 155.016C53.3885 149.297 58.2635 145.266 64.8729 145.266ZM64.8729 150.141C61.5917 150.141 59.1542 151.922 59.201 155.016C59.1542 158.062 61.5917 159.891 64.8729 159.891C68.1073 159.891 70.4979 158.062 70.4979 155.016C70.4979 151.922 68.1073 150.141 64.8729 150.141ZM88.451 144V165.375H82.451V144H88.451ZM88.451 167.156V178.734H65.7635V181.5H89.6229V186.188H59.9042V174.375H82.4979V171.75H59.8104V167.156H88.451ZM132.161 144V186.656H126.442V144H132.161ZM123.255 144.609V184.688H117.63V164.531H114.208C113.645 172.922 110.083 177.984 104.833 177.984C99.2079 177.984 95.5517 172.078 95.5517 162.469C95.5517 152.906 99.2079 147.047 104.833 147.047C109.966 147.047 113.481 151.828 114.161 159.797H117.63V144.609H123.255ZM104.833 152.672C102.442 152.672 101.036 155.953 101.083 162.469C101.036 169.031 102.442 172.266 104.833 172.219C107.27 172.266 108.724 169.031 108.724 162.469C108.724 155.953 107.27 152.672 104.833 152.672ZM174.862 146.344V151.125H166.331C166.612 155.625 169.823 160.125 176.503 161.953L173.503 166.594C168.628 165.211 165.206 162.281 163.284 158.531C161.339 162.586 157.847 165.797 152.784 167.344L149.784 162.656C156.581 160.688 159.886 155.953 160.19 151.125H151.425V146.344H174.862ZM185.362 144V167.156H179.362V144H185.362ZM162.722 168.938V172.922H179.409V168.938H185.362V186.188H156.815V168.938H162.722ZM162.722 181.406H179.409V177.562H162.722V181.406ZM230.994 163.359V168.188H214.494V171.328C221.924 171.891 226.307 174.562 226.354 178.969C226.307 183.891 220.729 186.656 211.494 186.656C202.119 186.656 196.541 183.891 196.541 178.969C196.541 174.539 200.971 171.867 208.541 171.328V168.188H192.088V163.359H230.994ZM211.494 175.734C205.588 175.781 202.588 176.812 202.635 178.969C202.588 181.031 205.588 182.156 211.494 182.156C217.26 182.156 220.307 181.031 220.354 178.969C220.307 176.812 217.26 175.781 211.494 175.734ZM227.479 145.828V150.516H215.9C216.908 153.516 221.244 156.398 229.354 157.078L227.244 161.766C219.205 160.992 213.768 157.945 211.494 153.797C209.244 157.945 203.9 160.992 195.791 161.766L193.822 157.078C201.721 156.398 206.08 153.492 207.182 150.516H195.65V145.828H227.479ZM268.189 144V160.688H274.47V165.609H268.189V186.656H262.282V144H268.189ZM259.376 150.375V155.156H234.298V150.375H243.954V144.656H249.954V150.375H259.376ZM246.954 157.547C253.189 157.547 257.829 161.766 257.829 167.719C257.829 173.672 253.189 177.891 246.954 177.891C240.673 177.891 236.032 173.672 236.032 167.719C236.032 161.766 240.673 157.547 246.954 157.547ZM246.954 162.375C243.954 162.422 241.751 164.438 241.751 167.719C241.751 171.047 243.954 173.016 246.954 172.969C249.954 173.016 252.11 171.047 252.11 167.719C252.11 164.438 249.954 162.422 246.954 162.375ZM311.617 155.625V160.312H281.805V145.5H287.758V155.625H311.617ZM315.977 164.906V169.594H276.93V164.906H315.977ZM311.899 180.938V185.719H281.43V173.062H287.43V180.938H311.899ZM347.1 148.359C347.053 153.797 350.053 158.672 356.99 160.734L353.803 165.375C349.209 163.922 346.022 161.039 344.194 157.312C342.295 161.578 338.85 164.953 333.787 166.594L330.74 161.812C337.912 159.609 341.053 154.172 341.1 148.5V145.641H347.1V148.359ZM365.287 144V152.484H371.053V157.312H365.287V166.641H359.287V144H365.287ZM348.834 168.375V179.203H340.678V181.875C344.264 181.875 346.631 181.711 349.49 181.172L350.006 185.625C346.256 186.375 343.209 186.469 337.397 186.422H334.819V175.031H343.069V172.734H334.772V168.375H348.834ZM365.287 168.375V186.422H351.084V168.375H365.287ZM356.24 172.734V182.109H360.131V172.734H356.24Z" fill="#40424D"/>
</svg>
