<svg width="316" height="115" viewBox="0 0 316 115" fill="none" xmlns="http://www.w3.org/2000/svg">
<path d="M41.3895 10.5938C41.3895 17.9062 43.4052 24.8438 49.4052 28.0312L45.8895 32.7656C42.1864 30.75 39.7958 27.3047 38.3895 23.0625C36.8661 27.7734 34.3114 31.7109 30.4677 34.0312L26.7177 29.6719C33.1395 25.8281 35.5302 18.2344 35.577 11.0156V3.65625H41.3895V10.5938ZM64.4989 0V42.6562H58.7802V21.4219H55.077V40.6875H49.452V0.609375H55.077V16.6406H58.7802V0H64.4989ZM109.006 33V37.9219H69.9589V33H86.412V26.5781H74.4589V12.2344H98.5995V7.54688H74.412V2.76562H104.506V16.9219H80.4589V21.7031H105.49V26.5781H92.3652V33H109.006ZM151.403 20.7656V25.5469H135.231V32.9531H129.185V25.5469H112.356V20.7656H151.403ZM147.091 37.0781V41.9062H116.997V29.1562H123.044V37.0781H147.091ZM131.856 0.796875C141.091 0.84375 147.231 4.26562 147.278 9.65625C147.231 15.0938 141.091 18.4688 131.856 18.4688C122.575 18.4688 116.388 15.0938 116.388 9.65625C116.388 4.26562 122.575 0.84375 131.856 0.796875ZM131.856 5.53125C126.325 5.53125 122.81 6.9375 122.856 9.65625C122.81 12.2812 126.325 13.6875 131.856 13.6875C137.341 13.6875 140.856 12.2812 140.856 9.65625C140.856 6.9375 137.341 5.53125 131.856 5.53125ZM183.417 11.625C183.417 18.5156 186.933 25.875 194.105 28.875L190.87 33.5625C185.831 31.4297 182.362 27.1875 180.464 21.9844C178.519 27.6328 174.98 32.3203 169.964 34.6406L166.542 29.9062C173.62 26.7656 177.276 18.8438 177.276 11.625V9H168.23V4.125H192.323V9H183.417V11.625ZM202.589 0V42.6562H196.542V0H202.589ZM225.674 6.04688C225.627 11.3906 228.674 16.5469 235.705 18.6562L232.705 23.3438C227.854 21.7969 224.502 18.7734 222.58 14.8594C220.658 19.0781 217.19 22.3828 212.174 24L209.174 19.3125C216.299 17.0156 219.44 11.4844 219.44 6.04688V1.96875H225.674V6.04688ZM245.033 27.2812V42.6562H239.033V32.0625H215.69V27.2812H245.033ZM245.033 0V25.4531H239.033V0H245.033ZM275.759 4.26562V7.6875C275.712 11.7188 275.712 16.9688 274.587 24.0469L268.681 23.5781C269.642 17.3906 269.735 12.8203 269.806 9.04688H253.634V4.26562H275.759ZM265.118 16.5V28.875C269.314 28.7109 273.579 28.4062 277.493 27.8906L277.868 32.3438C269.103 33.8438 259.4 33.9844 251.946 33.9375L251.384 29.1562C253.775 29.1328 256.446 29.1328 259.212 29.0625V16.5H265.118ZM285.556 0V17.1562H291.368V22.125H285.556V42.6562H279.509V0H285.556ZM36.2342 72V97.3125H30.2811V87.2344H23.6248V82.4062H30.2811V72H36.2342ZM21.6561 98.25C30.7498 98.2969 36.328 101.297 36.3748 106.5C36.328 111.656 30.7498 114.703 21.6561 114.703C12.5623 114.703 6.98422 111.656 6.98422 106.5C6.98422 101.297 12.5623 98.2969 21.6561 98.25ZM21.6561 102.844C15.9842 102.844 12.9373 104.016 12.9373 106.5C12.9373 108.938 15.9842 110.156 21.6561 110.156C27.328 110.156 30.4217 108.938 30.4217 106.5C30.4217 104.016 27.328 102.844 21.6561 102.844ZM24.8905 74.5781V79.3594H16.4061C16.5467 84.3281 19.5467 89.3438 26.203 91.5469L23.2498 96.2344C18.5389 94.7109 15.3045 91.6172 13.453 87.75C11.5545 92.1094 8.1561 95.625 3.0936 97.3594L-0.000152588 92.625C7.00766 90.2812 10.1483 84.7031 10.3123 79.3594H1.73422V74.5781H24.8905ZM81.7723 104.812V109.688H42.7255V104.812H59.1786V96.9375H46.8505V74.7188H52.8505V81.3281H71.4598V74.7188H77.413V96.9375H65.1317V104.812H81.7723ZM52.8505 92.1562H71.4598V86.1094H52.8505V92.1562ZM118.942 74.3906V79.2188H104.833V82.5469H118.052V87.2812H104.833V90.75C111.77 90.75 116.224 90.5391 121.239 89.5781L121.895 94.3125C116.13 95.2969 110.974 95.4844 102.349 95.4375H98.7861V74.3906H118.942ZM131.036 98.8125V114.188H103.145V98.8125H131.036ZM109.052 103.453V109.406H125.13V103.453H109.052ZM131.036 72V81.9844H136.802V86.9062H131.036V96.9375H125.036V72H131.036ZM153.277 79.4062C153.277 84.1406 155.621 88.7812 161.293 91.0312L158.059 95.625C154.473 94.1719 151.965 91.5469 150.465 88.3125C148.871 92.0156 146.199 95.0859 142.215 96.75L139.027 92.1094C145.027 89.5312 147.465 84.2344 147.465 79.4062V74.4844H153.277V79.4062ZM176.293 72.0469V97.875H170.621V87.2812H167.059V97.6406H161.48V72.7031H167.059V82.4062H170.621V72.0469H176.293ZM176.293 99.75V114.656H170.34V104.531H146.809V99.75H176.293ZM201.534 72.6094C211.331 72.6094 217.003 75.1875 217.05 79.875C217.003 84.6094 211.331 87.1875 201.534 87.1875C191.69 87.1875 185.972 84.6094 185.972 79.875C185.972 75.1875 191.69 72.6094 201.534 72.6094ZM201.534 76.9688C195.253 76.9688 192.206 78 192.253 79.875C192.206 81.9844 195.253 82.7812 201.534 82.7812C207.862 82.7812 210.862 81.9844 210.862 79.875C210.862 78 207.862 76.9688 201.534 76.9688ZM220.987 89.2031V93.9375H182.081V89.2031H220.987ZM216.253 96.4219V107.297H192.487V109.875H217.378V114.375H186.628V103.125H210.347V100.781H186.581V96.4219H216.253ZM275.454 93.9844V98.6719H236.454V93.9844H252.954V91.3594H241.329V73.0312H270.907V77.625H247.329V80.0156H269.923V84.3281H247.329V86.7656H271.282V91.3594H258.954V93.9844H275.454ZM255.954 100.641C265.376 100.594 270.767 103.125 270.814 107.625C270.767 112.219 265.376 114.656 255.954 114.656C246.392 114.656 241.001 112.219 241.001 107.625C241.001 103.125 246.392 100.594 255.954 100.641ZM255.954 105.047C249.814 105.047 246.954 105.844 247.001 107.625C246.954 109.453 249.814 110.25 255.954 110.25C261.954 110.25 264.767 109.453 264.814 107.625C264.767 105.844 261.954 105.047 255.954 105.047ZM299.57 78.5156V83.25H278.945V78.5156H286.352V73.1719H292.258V78.5156H299.57ZM289.352 85.1719C294.789 85.1719 298.68 89.3906 298.727 95.2969C298.68 101.25 294.789 105.469 289.352 105.469C283.914 105.469 279.93 101.25 279.93 95.2969C279.93 89.3906 283.914 85.1719 289.352 85.1719ZM289.352 90.1406C286.867 90.1406 285.18 92.0625 285.18 95.2969C285.18 98.5312 286.867 100.406 289.352 100.406C291.742 100.406 293.43 98.5312 293.477 95.2969C293.43 92.0625 291.742 90.1406 289.352 90.1406ZM315.883 72V114.656H310.211V94.125H306.742V112.828H301.164V72.8438H306.742V89.3438H310.211V72H315.883Z" fill="#40424D"/>
</svg>
