<svg width="1920" height="4874" viewBox="0 0 1920 4874" fill="none" xmlns="http://www.w3.org/2000/svg">
<rect width="1920" height="4874" fill="white"/>
<g filter="url(#filter0_f_4712_2042)">
<circle cx="198.664" cy="454.113" r="741.336" fill="url(#paint0_radial_4712_2042)" fill-opacity="0.4"/>
</g>
<g filter="url(#filter1_f_4712_2042)">
<circle cx="1650.45" cy="1560.72" r="893.449" fill="url(#paint1_radial_4712_2042)" fill-opacity="0.4"/>
</g>
<path d="M597.255 470.039V497.695H620.927V459.961H631.942V565.195H620.927V506.719H597.255V538.711H548.505V470.039H597.255ZM559.52 478.711V529.805H586.356V478.711H559.52ZM746.256 503.438V512.344H703.834V521.484H734.186V546.094H673.014V555.352H737.116V563.906H662.116V538.008H723.17V530.039H661.998V521.484H692.702V512.344H650.514V503.438H746.256ZM733.952 463.359V495.703H662.819V463.359H733.952ZM673.717 472.148V486.914H722.819V472.148H673.717ZM841.586 470.039V480.352C841.586 493.359 841.586 507.891 837.602 529.336L826.352 528.164C830.453 507.891 830.453 493.008 830.453 480.352V479.062H766.703V470.039H841.586ZM852.367 541.523V550.781H756.625V541.523H793.07V504.492H804.086V541.523H852.367ZM981.503 460.078V518.32H970.37V460.078H981.503ZM932.636 474.023C932.519 487.969 942.714 500.742 958.769 505.664L953.378 514.453C941.015 510.469 931.816 502.207 927.011 491.484C922.265 503.027 912.89 512.109 900.292 516.328L894.784 507.539C911.191 502.148 921.269 488.555 921.269 474.023V463.828H932.636V474.023ZM982.206 524.062V532.969H968.378V554.648H983.261V563.672H910.136V554.648H925.136V532.969H911.073V524.062H982.206ZM936.152 554.648H957.363V532.969H936.152V554.648ZM1096.29 514.805V523.711H1000.54V514.805H1096.29ZM1085.5 553.711V562.734H1012.61V532.266H1023.86V553.711H1085.5ZM1048.36 463.477C1071.09 463.359 1085.86 471.328 1085.86 484.453C1085.86 497.695 1071.09 505.664 1048.36 505.781C1025.5 505.664 1010.86 497.695 1010.86 484.453C1010.86 471.328 1025.5 463.359 1048.36 463.477ZM1048.36 472.383C1032.3 472.383 1022.22 476.953 1022.34 484.453C1022.22 492.188 1032.3 496.641 1048.36 496.641C1064.41 496.641 1074.37 492.188 1074.37 484.453C1074.37 476.953 1064.41 472.383 1048.36 472.383ZM1368.85 547.148L1359.71 579.023H1351.04L1357.49 547.148H1368.85ZM475.441 616.031C475.441 630.211 484.933 642.398 501.105 647.438L495.011 656.109C483.409 652.125 474.796 644.273 470.284 634.078C465.655 645.855 456.456 654.879 443.8 659.391L438.058 650.484C454.581 644.977 464.425 631.5 464.425 616.266V608.062H475.441V616.031ZM521.612 603.961V626.344H536.847V635.484H521.612V659.859H510.48V603.961H521.612ZM481.769 664.898V689.742H458.917V699.586C469.23 699.527 475.734 699.234 483.761 697.711L484.816 706.148C475.206 708.023 467.706 708.141 453.878 708.141H448.136V681.656H470.987V673.219H447.902V664.898H481.769ZM521.612 664.898V708.141H487.862V664.898H521.612ZM497.706 673.219V699.938H511.886V673.219H497.706ZM579.442 611.461C596.083 611.344 607.919 621.656 608.036 636.422C607.919 651.188 596.083 661.5 579.442 661.5C562.919 661.5 550.731 651.188 550.848 636.422C550.731 621.656 562.919 611.344 579.442 611.461ZM579.442 621.07C569.247 621.07 561.747 627.164 561.864 636.422C561.747 645.68 569.247 651.773 579.442 651.773C589.637 651.773 597.137 645.68 597.137 636.422C597.137 627.164 589.637 621.07 579.442 621.07ZM632.059 603.961V709.195H620.927V603.961H632.059ZM545.809 677.32C564.911 677.32 591.395 677.086 614.364 673.805L615.184 681.891C591.395 686.461 565.966 686.578 547.216 686.578L545.809 677.32ZM769.75 672.867V707.672H699.672V672.867H712.914V659.391C702.719 659.742 693.051 659.801 684.555 659.859L683.148 650.602C702.953 650.602 729.086 650.602 751.937 647.789L752.641 655.641C743.324 657.223 733.656 658.219 724.164 658.805V672.867H769.75ZM710.57 681.773V698.648H758.734V681.773H710.57ZM769.75 604.078V667.477H758.617V604.078H769.75ZM724.281 611.812C724.281 622.359 733.891 631.266 749.359 634.664L744.555 642.984C732.367 640.23 723.344 633.902 718.773 625.406C714.262 634.605 705.062 641.578 692.641 644.742L687.484 636.188C703.422 632.555 712.914 622.828 712.914 611.812V606.773H724.281V611.812ZM885.236 687.398V696.539H789.142V687.398H814.923V664.078H797.58V655.055H813.283V622.359H797.345V613.219H876.447V622.359H860.392V655.055H876.095V664.078H858.869V687.398H885.236ZM824.298 655.055H849.494V622.359H824.298V655.055ZM826.056 687.398H847.736V664.078H826.056V687.398ZM977.05 603.961V645.797H993.339V655.055H977.05V708.844H965.917V603.961H977.05ZM949.628 614.977C949.511 645.328 936.152 672.398 901.581 689.508L895.37 680.836C921.679 667.711 935.976 648.727 938.261 624.234H900.644V614.977H949.628ZM1095.64 648.375V657.516H1073.49V676.969C1083.22 676.5 1093 675.855 1102.2 674.859L1103.02 683.062C1079.94 686.578 1054.97 686.812 1035.05 686.93L1033.65 677.672C1042.49 677.672 1052.28 677.613 1062.36 677.32V657.516H1041.26V613.688H1095.17V622.711H1052.28V648.375H1095.64ZM1119.9 603.961V709.195H1108.76V603.961H1119.9ZM1224.13 634.664V643.57H1151.83V607.711H1162.84V634.664H1224.13ZM1235.15 656.812V665.719H1139.05V656.812H1235.15ZM1224.84 697.359V706.5H1151.01V675.68H1162.14V697.359H1224.84Z" fill="#8D92A2"/>
<path d="M1194.84 465.352C1194.84 477.188 1207.38 490.43 1230.81 493.594L1225.19 505.43C1207.2 502.793 1193.96 494.531 1187.22 483.516C1180.3 494.648 1167 502.969 1149.02 505.664L1143.51 493.945C1166.83 490.664 1179.37 477.656 1179.48 465.352V461.836H1194.84V465.352ZM1235.97 511.523V523.477H1195.77V541.875H1181.01V523.477H1138.35V511.523H1235.97ZM1225.19 551.953V563.906H1149.84V532.617H1164.72V551.953H1225.19ZM1329.19 459.141V489.023H1343.6V501.328H1329.19V535.547H1314.07V459.141H1329.19ZM1300.13 467.109C1300.13 495.938 1282.08 516.094 1250.09 525.117L1243.88 513.281C1267.72 506.602 1281.26 494.238 1283.72 479.297H1248.56V467.109H1300.13ZM1332.82 551.953V563.906H1259.81V527.695H1274.93V551.953H1332.82ZM1325.14 669.586C1348.46 669.586 1363.11 676.969 1363.23 689.742C1363.11 702.281 1348.46 709.781 1325.14 709.781C1302.06 709.781 1287.17 702.281 1287.17 689.742C1287.17 676.969 1302.06 669.586 1325.14 669.586ZM1325.14 680.719C1310.5 680.719 1302.06 683.766 1302.06 689.742C1302.06 695.484 1310.5 698.414 1325.14 698.414C1339.79 698.414 1348.35 695.484 1348.35 689.742C1348.35 683.766 1339.79 680.719 1325.14 680.719ZM1362.64 607.945V616.617C1362.64 625.055 1362.64 634.195 1359.6 645.211L1344.95 643.805C1347.29 634.137 1347.59 626.93 1347.76 619.664H1288.23V607.945H1362.64ZM1374.13 650.719V662.789H1277.33V650.719H1313.66V632.086H1328.42V650.719H1374.13ZM1467.82 603.141V633.023H1482.23V645.328H1467.82V679.547H1452.7V603.141H1467.82ZM1438.75 611.109C1438.75 639.938 1420.71 660.094 1388.72 669.117L1382.5 657.281C1406.35 650.602 1419.89 638.238 1422.35 623.297H1387.19V611.109H1438.75ZM1471.45 695.953V707.906H1398.44V671.695H1413.56V695.953H1471.45Z" fill="#40424D"/>
<line x1="244.027" y1="3171.18" x2="244.027" y2="3603.18" stroke="#56AFDF" stroke-width="2"/>
<line x1="265.027" y1="3172.18" x2="222.027" y2="3172.18" stroke="#56AFDF" stroke-width="2"/>
<line x1="265.027" y1="3604.18" x2="222.027" y2="3604.18" stroke="#56AFDF" stroke-width="2"/>
<line x1="1677" y1="4253.61" x2="1677" y2="4685.61" stroke="#56AFDF" stroke-width="2"/>
<line x1="1698" y1="4254.61" x2="1655" y2="4254.61" stroke="#56AFDF" stroke-width="2"/>
<line x1="1698" y1="4686.61" x2="1655" y2="4686.61" stroke="#56AFDF" stroke-width="2"/>
<path d="M1109.98 4285.7V4290.53H1071.08V4285.7H1087.48V4282.94H1075.91V4269.48H1105.06V4282.94H1093.39V4285.7H1109.98ZM1081.77 4274.12V4278.34H1099.11V4274.12H1081.77ZM1105.25 4292.64V4303.56H1081.48V4306.14H1106.37V4310.64H1075.62V4299.34H1099.34V4297.14H1075.58V4292.64H1105.25ZM1149.24 4268.27V4291.19H1143.24V4268.27H1149.24ZM1126.6 4293.06V4297.05H1143.29V4293.06H1149.24V4310.45H1120.69V4293.06H1126.6ZM1126.6 4305.62H1143.29V4301.69H1126.6V4305.62ZM1125.85 4270.05C1132.51 4270 1137.52 4274.17 1137.52 4280.17C1137.52 4285.98 1132.51 4290.16 1125.85 4290.16C1119.19 4290.16 1114.18 4285.98 1114.18 4280.17C1114.18 4274.17 1119.19 4270 1125.85 4270.05ZM1125.85 4275.02C1122.43 4275.02 1119.99 4276.94 1120.04 4280.17C1119.99 4283.36 1122.43 4285.23 1125.85 4285.23C1129.18 4285.23 1131.62 4283.36 1131.62 4280.17C1131.62 4276.94 1129.18 4275.02 1125.85 4275.02ZM1189.62 4268.27V4284.95H1195.9V4289.88H1189.62V4310.92H1183.72V4268.27H1189.62ZM1180.81 4274.64V4279.42H1155.73V4274.64H1165.39V4268.92H1171.39V4274.64H1180.81ZM1168.39 4281.81C1174.62 4281.81 1179.26 4286.03 1179.26 4291.98C1179.26 4297.94 1174.62 4302.16 1168.39 4302.16C1162.11 4302.16 1157.47 4297.94 1157.47 4291.98C1157.47 4286.03 1162.11 4281.81 1168.39 4281.81ZM1168.39 4286.64C1165.39 4286.69 1163.19 4288.7 1163.19 4291.98C1163.19 4295.31 1165.39 4297.28 1168.39 4297.23C1171.39 4297.28 1173.54 4295.31 1173.54 4291.98C1173.54 4288.7 1171.39 4286.69 1168.39 4286.64ZM1234.27 4268.27V4310.92H1228.22V4268.27H1234.27ZM1221.47 4272.72C1221.47 4285.66 1216.93 4296.39 1201.69 4303.61L1198.55 4298.83C1209.57 4293.62 1214.42 4286.88 1215.38 4277.41H1200.85V4272.72H1221.47ZM1275.24 4280.97V4284.91H1291.88V4289.69H1252.83V4284.91H1269.33V4280.97H1275.24ZM1288.27 4269.3V4273.84H1276.78C1278 4276.3 1282.29 4278.53 1290.1 4278.95L1288.22 4283.41C1280 4282.84 1274.51 4280.22 1272.33 4276.38C1270.13 4280.2 1264.64 4282.84 1256.44 4283.41L1254.52 4278.95C1262.18 4278.53 1266.57 4276.28 1267.83 4273.84H1256.44V4269.3H1288.27ZM1288.17 4294.05V4298.5H1256.39V4294.05H1269.28V4290.86H1275.28V4294.05H1288.17ZM1272.24 4299.77C1280.49 4299.77 1285.41 4301.73 1285.41 4305.39C1285.41 4309.09 1280.49 4311.06 1272.24 4311.06C1263.89 4311.06 1259.16 4309.09 1259.16 4305.39C1259.16 4301.73 1263.89 4299.77 1272.24 4299.77ZM1272.24 4303.7C1267.64 4303.75 1265.3 4304.17 1265.3 4305.39C1265.3 4306.56 1267.64 4307.12 1272.24 4307.12C1276.88 4307.12 1279.13 4306.56 1279.17 4305.39C1279.13 4304.17 1276.88 4303.75 1272.24 4303.7ZM1334.23 4290.06V4294.84H1295.32V4290.06H1334.23ZM1329.82 4305.39V4310.17H1300.01V4297.7H1306.01V4305.39H1329.82ZM1314.78 4269.58C1324.1 4269.53 1330.24 4272.86 1330.29 4278.3C1330.24 4283.73 1324.1 4287.11 1314.78 4287.11C1305.35 4287.11 1299.21 4283.73 1299.21 4278.3C1299.21 4272.86 1305.35 4269.53 1314.78 4269.58ZM1314.78 4274.27C1308.87 4274.31 1305.4 4275.72 1305.45 4278.3C1305.4 4280.97 1308.87 4282.28 1314.78 4282.28C1320.68 4282.28 1324.1 4280.97 1324.1 4278.3C1324.1 4275.72 1320.68 4274.31 1314.78 4274.27ZM1089.56 4356.44V4361.31H1083.51V4382.83H1077.51V4340.27H1083.51V4356.44H1089.56ZM1057.17 4344.34V4367.45C1062.63 4367.38 1068.49 4366.87 1074.65 4365.62L1075.26 4370.59C1068.14 4372.05 1061.2 4372.42 1054.92 4372.42H1051.22V4344.34H1057.17ZM1114.05 4343.78V4364.27H1093.57V4343.78H1114.05ZM1099.47 4348.56V4359.58H1108.14V4348.56H1099.47ZM1126.14 4340.27V4352.55H1131.91V4357.47H1126.14V4371.39H1120.14V4340.27H1126.14ZM1127.69 4377.39V4382.17H1098.49V4368.34H1104.44V4377.39H1127.69ZM1148.57 4343.12C1155.32 4343.08 1160.39 4347.48 1160.39 4353.58C1160.39 4359.72 1155.32 4364.08 1148.57 4364.08C1141.82 4364.08 1136.71 4359.72 1136.71 4353.58C1136.71 4347.48 1141.82 4343.08 1148.57 4343.12ZM1148.57 4348.28C1145.2 4348.28 1142.62 4350.25 1142.67 4353.58C1142.62 4356.95 1145.2 4358.88 1148.57 4358.88C1151.95 4358.88 1154.53 4356.95 1154.57 4353.58C1154.53 4350.25 1151.99 4348.28 1148.57 4348.28ZM1170.6 4340.27V4383.02H1164.65V4340.27H1170.6ZM1134.93 4369.42C1142.53 4369.47 1153.07 4369.33 1162.21 4368.06L1162.68 4372.38C1153.21 4374.2 1143.09 4374.3 1135.64 4374.3L1134.93 4369.42ZM1208.43 4366.84C1217.76 4366.84 1223.62 4369.8 1223.66 4374.91C1223.62 4379.92 1217.76 4382.92 1208.43 4382.92C1199.2 4382.92 1193.24 4379.92 1193.24 4374.91C1193.24 4369.8 1199.2 4366.84 1208.43 4366.84ZM1208.43 4371.3C1202.57 4371.3 1199.2 4372.52 1199.2 4374.91C1199.2 4377.2 1202.57 4378.38 1208.43 4378.38C1214.29 4378.38 1217.71 4377.2 1217.71 4374.91C1217.71 4372.52 1214.29 4371.3 1208.43 4371.3ZM1223.43 4342.19V4345.66C1223.43 4349.03 1223.43 4352.69 1222.21 4357.09L1216.35 4356.53C1217.29 4352.66 1217.41 4349.78 1217.48 4346.88H1193.66V4342.19H1223.43ZM1228.02 4359.3V4364.12H1189.31V4359.3H1203.84V4351.84H1209.74V4359.3H1228.02ZM1265.5 4340.27V4352.22H1271.27V4357.14H1265.5V4370.83H1259.45V4340.27H1265.5ZM1253.87 4343.45C1253.87 4354.98 1246.66 4363.05 1233.86 4366.66L1231.37 4361.92C1240.91 4359.25 1246.33 4354.3 1247.31 4348.33H1233.25V4343.45H1253.87ZM1266.95 4377.39V4382.17H1237.75V4367.69H1243.8V4377.39H1266.95ZM1311.08 4340.27V4382.92H1305.37V4340.27H1311.08ZM1302.18 4340.88V4380.95H1296.55V4360.8H1293.13C1292.57 4369.19 1289.01 4374.25 1283.76 4374.25C1278.13 4374.25 1274.48 4368.34 1274.48 4358.73C1274.48 4349.17 1278.13 4343.31 1283.76 4343.31C1288.89 4343.31 1292.4 4348.09 1293.08 4356.06H1296.55V4340.88H1302.18ZM1283.76 4348.94C1281.37 4348.94 1279.96 4352.22 1280.01 4358.73C1279.96 4365.3 1281.37 4368.53 1283.76 4368.48C1286.19 4368.53 1287.65 4365.3 1287.65 4358.73C1287.65 4352.22 1286.19 4348.94 1283.76 4348.94ZM1332.67 4349.92C1332.67 4357.94 1335.9 4365.72 1343.03 4368.81L1339.37 4373.59C1334.64 4371.27 1331.47 4367.03 1329.72 4361.78C1327.84 4367.36 1324.56 4371.93 1319.69 4374.34L1315.94 4369.47C1323.25 4366.19 1326.58 4357.94 1326.62 4349.92V4343.55H1332.67V4349.92ZM1352.54 4340.27V4383.02H1346.64V4358.5H1338.25V4353.67H1346.64V4340.27H1352.54ZM1053.41 4412.27V4454.92H1047.64V4433.59H1043.66V4452.86H1038.03V4412.97H1043.66V4428.77H1047.64V4412.27H1053.41ZM1024.35 4417V4439.27C1027.77 4439.2 1031.52 4438.89 1035.64 4438.09L1036.25 4443.25C1030.53 4444.23 1025.66 4444.52 1021.25 4444.52H1018.35V4417H1024.35ZM1083.22 4413.53C1089.69 4413.53 1094.61 4417.56 1094.61 4423.28C1094.61 4428.91 1089.69 4432.98 1083.22 4432.98C1076.61 4432.98 1071.73 4428.91 1071.73 4423.28C1071.73 4417.56 1076.61 4413.53 1083.22 4413.53ZM1083.22 4418.41C1079.94 4418.41 1077.5 4420.19 1077.55 4423.28C1077.5 4426.33 1079.94 4428.16 1083.22 4428.16C1086.45 4428.16 1088.84 4426.33 1088.84 4423.28C1088.84 4420.19 1086.45 4418.41 1083.22 4418.41ZM1106.8 4412.27V4433.64H1100.8V4412.27H1106.8ZM1106.8 4435.42V4447H1084.11V4449.77H1107.97V4454.45H1078.25V4442.64H1100.84V4440.02H1078.16V4435.42H1106.8ZM1150.51 4412.27V4454.92H1144.79V4412.27H1150.51ZM1141.6 4412.88V4452.95H1135.98V4432.8H1132.55C1131.99 4441.19 1128.43 4446.25 1123.18 4446.25C1117.55 4446.25 1113.9 4440.34 1113.9 4430.73C1113.9 4421.17 1117.55 4415.31 1123.18 4415.31C1128.31 4415.31 1131.83 4420.09 1132.51 4428.06H1135.98V4412.88H1141.6ZM1123.18 4420.94C1120.79 4420.94 1119.38 4424.22 1119.43 4430.73C1119.38 4437.3 1120.79 4440.53 1123.18 4440.48C1125.62 4440.53 1127.07 4437.3 1127.07 4430.73C1127.07 4424.22 1125.62 4420.94 1123.18 4420.94ZM1203.94 4412.31V4443.44H1197.99V4428.16H1191V4423.33H1197.99V4412.31H1203.94ZM1204.97 4449.39V4454.17H1175.63V4440.72H1181.63V4449.39H1204.97ZM1184.11 4420.66C1184.11 4425.58 1187.11 4430.88 1193.91 4433.08L1190.96 4437.81C1186.22 4436.29 1182.99 4433.17 1181.11 4429.28C1179.24 4433.59 1175.84 4437.02 1170.8 4438.7L1167.75 4433.83C1174.79 4431.62 1177.97 4426.05 1178.02 4420.61V4419.95H1169.44V4415.17H1192.6V4419.95H1184.11V4420.66ZM1218.92 4414.09V4431.3C1224.07 4431.23 1228.67 4430.97 1233.68 4430.17L1234.29 4434.86C1228.25 4435.94 1222.86 4436.22 1216.29 4436.17H1212.87V4414.09H1218.92ZM1246.39 4412.27V4437.2H1240.43V4428.11H1229.98V4423.61H1240.43V4420.66H1229.98V4416.2H1240.43V4412.27H1246.39ZM1246.39 4438.94V4454.45H1217.98V4438.94H1246.39ZM1223.84 4443.67V4449.67H1240.48V4443.67H1223.84ZM1286.53 4412.27V4428.95H1292.82V4433.88H1286.53V4454.92H1280.63V4412.27H1286.53ZM1277.72 4418.64V4423.42H1252.64V4418.64H1262.3V4412.92H1268.3V4418.64H1277.72ZM1265.3 4425.81C1271.53 4425.81 1276.17 4430.03 1276.17 4435.98C1276.17 4441.94 1271.53 4446.16 1265.3 4446.16C1259.02 4446.16 1254.38 4441.94 1254.38 4435.98C1254.38 4430.03 1259.02 4425.81 1265.3 4425.81ZM1265.3 4430.64C1262.3 4430.69 1260.1 4432.7 1260.1 4435.98C1260.1 4439.31 1262.3 4441.28 1265.3 4441.23C1268.3 4441.28 1270.46 4439.31 1270.46 4435.98C1270.46 4432.7 1268.3 4430.69 1265.3 4430.64ZM1329.96 4423.89V4428.58H1300.15V4413.77H1306.1V4423.89H1329.96ZM1334.32 4433.17V4437.86H1295.28V4433.17H1334.32ZM1330.24 4449.2V4453.98H1299.78V4441.33H1305.78V4449.2H1330.24ZM1365.45 4416.62C1365.4 4422.06 1368.4 4426.94 1375.34 4429L1372.15 4433.64C1367.55 4432.19 1364.37 4429.3 1362.54 4425.58C1360.64 4429.84 1357.2 4433.22 1352.13 4434.86L1349.09 4430.08C1356.26 4427.88 1359.4 4422.44 1359.45 4416.77V4413.91H1365.45V4416.62ZM1383.63 4412.27V4420.75H1389.4V4425.58H1383.63V4434.91H1377.63V4412.27H1383.63ZM1367.18 4436.64V4447.47H1359.02V4450.14C1362.61 4450.14 1364.98 4449.98 1367.84 4449.44L1368.35 4453.89C1364.6 4454.64 1361.55 4454.73 1355.74 4454.69H1353.16V4443.3H1361.41V4441H1353.12V4436.64H1367.18ZM1383.63 4436.64V4454.69H1369.43V4436.64H1383.63ZM1374.59 4441V4450.38H1378.48V4441H1374.59Z" fill="#40424D"/>
<g filter="url(#filter2_f_4712_2042)">
<circle cx="1522" cy="3518" r="1032" fill="url(#paint2_radial_4712_2042)" fill-opacity="0.4"/>
</g>
<path d="M987 2781.98C987 2789.72 980.694 2796 972.915 2796C965.136 2796 958.83 2789.72 958.83 2781.98C958.83 2774.24 965.136 2767.96 972.915 2767.96C980.694 2767.96 987 2774.24 987 2781.98Z" fill="#56AFDF" fill-opacity="0.32"/>
<path d="M979.957 2773.83C979.957 2781.57 973.651 2787.84 965.872 2787.84C958.094 2787.84 951.787 2781.57 951.787 2773.83C951.787 2766.08 958.094 2759.81 965.872 2759.81C973.651 2759.81 979.957 2766.08 979.957 2773.83Z" fill="#56AFDF" fill-opacity="0.32"/>
<path fill-rule="evenodd" clip-rule="evenodd" d="M944.549 2755.84C946.051 2754.72 948.119 2754.72 949.622 2755.84L973.566 2773.73C974.629 2774.52 975.255 2775.77 975.255 2777.09V2791.79C975.255 2794.12 973.363 2796 971.03 2796H937.226C934.892 2796 933 2794.12 933 2791.79V2766.57C933 2765.25 933.626 2764 934.689 2763.21L944.549 2755.84ZM946.142 2784.13C943.809 2784.13 941.917 2786.01 941.917 2788.33V2796H950.606V2788.33C950.606 2786.01 948.714 2784.13 946.381 2784.13H946.142Z" fill="#56AFDF"/>
<path d="M760.25 2845.53V2852.47H764.156V2855.31H760.25V2862.03H756.75V2845.53H760.25ZM751.031 2862.56C756.812 2862.56 760.469 2864.62 760.5 2868.12C760.469 2871.69 756.812 2873.75 751.031 2873.75C745.188 2873.75 741.469 2871.69 741.469 2868.12C741.469 2864.62 745.188 2862.56 751.031 2862.56ZM751.031 2865.34C747.156 2865.34 744.875 2866.31 744.906 2868.12C744.875 2869.97 747.156 2870.97 751.031 2870.97C754.844 2870.97 757.125 2869.97 757.125 2868.12C757.125 2866.31 754.844 2865.34 751.031 2865.34ZM751.688 2847.53V2850.34H742.469V2857.44C747.875 2857.42 750.891 2857.27 754.219 2856.56L754.562 2859.34C750.906 2860.12 747.562 2860.25 741.312 2860.25H739.031V2847.53H751.688ZM789.765 2845.56V2866.19H786.265V2845.56H789.765ZM790.546 2870.41V2873.22H771.077V2864.22H774.577V2870.41H790.546ZM776.765 2849.88C776.765 2853.81 779.077 2857.53 783.546 2859.03L781.765 2861.78C778.546 2860.66 776.249 2858.41 775.015 2855.53C773.734 2858.61 771.406 2861.08 768.077 2862.28L766.265 2859.53C770.859 2857.91 773.171 2853.94 773.171 2849.88V2847.12H776.765V2849.88ZM803.686 2847.5C808.155 2847.47 811.436 2850.31 811.467 2854.31C811.436 2858.34 808.155 2861.16 803.686 2861.16C799.249 2861.16 795.936 2858.34 795.936 2854.31C795.936 2850.31 799.249 2847.47 803.686 2847.5ZM803.686 2850.5C801.217 2850.5 799.374 2851.97 799.374 2854.31C799.374 2856.69 801.217 2858.12 803.686 2858.12C806.186 2858.12 808.061 2856.69 808.061 2854.31C808.061 2851.97 806.186 2850.5 803.686 2850.5ZM818.061 2845.53V2873.81H814.592V2845.53H818.061ZM794.655 2865.06C799.749 2865.06 806.811 2865 812.905 2864.12L813.186 2866.66C806.842 2867.88 800.061 2867.91 795.092 2867.91L794.655 2865.06ZM845.435 2848.28V2866.78H832.06V2848.28H845.435ZM835.466 2851V2864H841.966V2851H835.466ZM853.185 2845.53V2856.38H857.529V2859.31H853.185V2873.78H849.716V2845.53H853.185ZM872.2 2846.09C878.45 2846.09 882.356 2848.16 882.387 2851.59C882.356 2854.97 878.45 2857 872.2 2856.97C866.012 2857 862.012 2854.97 862.012 2851.59C862.012 2848.16 866.012 2846.09 872.2 2846.09ZM872.2 2848.81C868.075 2848.81 865.606 2849.78 865.637 2851.59C865.606 2853.31 868.075 2854.25 872.2 2854.28C876.325 2854.25 878.794 2853.31 878.794 2851.59C878.794 2849.78 876.325 2848.81 872.2 2848.81ZM881.981 2863.94V2873.44H862.387V2863.94H881.981ZM865.825 2866.69V2870.62H878.606V2866.69H865.825ZM885.106 2858.88V2861.69H859.356V2858.88H885.106ZM921.636 2859.41V2862.22H895.886V2859.41H907.011V2855.47H910.449V2859.41H921.636ZM910.48 2847.06C910.48 2850.5 914.261 2853.62 920.167 2854.38L918.824 2857.09C914.183 2856.38 910.496 2854.28 908.699 2851.31C906.886 2854.28 903.199 2856.38 898.542 2857.09L897.292 2854.38C903.105 2853.62 906.949 2850.44 906.949 2847.06V2846H910.48V2847.06ZM918.48 2864.47V2873.78H915.011V2867.19H898.73V2864.47H918.48ZM955.479 2848.12V2850.84C955.447 2854.34 955.447 2858.28 954.354 2864.19L950.854 2863.81C951.947 2858.31 951.947 2854.3 951.979 2850.91H935.104V2848.12H955.479ZM958.166 2867.28V2870.12H932.416V2867.28H941.916V2857.47H945.354V2867.28H958.166ZM986.837 2849.94V2852.78H982.994V2856H986.837V2858.84H982.994V2863.56H979.525V2845.53H982.994V2849.94H986.837ZM973.869 2863.81C979.65 2863.81 983.306 2865.66 983.306 2868.78C983.306 2871.88 979.65 2873.75 973.869 2873.75C967.994 2873.75 964.4 2871.88 964.431 2868.78C964.4 2865.66 967.994 2863.81 973.869 2863.81ZM973.869 2866.47C969.994 2866.47 967.837 2867.22 967.869 2868.78C967.837 2870.28 969.994 2871.12 973.869 2871.12C977.681 2871.12 979.837 2870.28 979.837 2868.78C979.837 2867.22 977.681 2866.47 973.869 2866.47ZM977.494 2848.41V2851.12H960.744V2848.41H967.4V2845.34H970.869V2848.41H977.494ZM969.119 2852.25C973.212 2852.25 975.994 2854.28 976.025 2857.31C975.994 2860.34 973.212 2862.34 969.119 2862.34C964.994 2862.34 962.181 2860.34 962.181 2857.31C962.181 2854.28 964.994 2852.25 969.119 2852.25ZM969.119 2854.81C966.962 2854.81 965.556 2855.75 965.556 2857.31C965.556 2858.84 966.962 2859.72 969.119 2859.72C971.275 2859.72 972.712 2858.84 972.712 2857.31C972.712 2855.75 971.275 2854.81 969.119 2854.81ZM1014.76 2860.12V2862.91H989.009V2860.12H1014.76ZM1011.85 2870.41V2873.22H992.196V2865H995.665V2870.41H1011.85ZM1001.85 2846.44C1008.01 2846.44 1012.01 2848.59 1012.04 2852.16C1012.01 2855.75 1008.01 2857.94 1001.85 2857.94C995.696 2857.94 991.665 2855.75 991.665 2852.16C991.665 2848.59 995.696 2846.44 1001.85 2846.44ZM1001.85 2849.22C997.759 2849.22 995.259 2850.28 995.29 2852.16C995.259 2854.06 997.759 2855.12 1001.85 2855.09C1005.98 2855.12 1008.45 2854.06 1008.45 2852.16C1008.45 2850.28 1005.98 2849.22 1001.85 2849.22ZM1033.26 2847.59C1037.09 2847.59 1039.91 2850.78 1040.41 2855.94H1045.79V2845.53H1049.23V2873.81H1045.79V2858.75H1040.45C1040.07 2864.2 1037.2 2867.56 1033.26 2867.56C1029.01 2867.56 1026.01 2863.72 1026.01 2857.56C1026.01 2851.47 1029.01 2847.59 1033.26 2847.59ZM1033.26 2850.72C1030.91 2850.72 1029.32 2853.25 1029.35 2857.56C1029.32 2861.91 1030.91 2864.44 1033.26 2864.44C1035.6 2864.44 1037.16 2861.91 1037.2 2857.56C1037.16 2853.25 1035.6 2850.72 1033.26 2850.72ZM1077.33 2845.53V2873.81H1073.83V2845.53H1077.33ZM1069.21 2848.09V2850.94H1059.08V2864.06C1064.29 2864.05 1067.55 2863.89 1071.3 2863.22L1071.65 2866.09C1067.62 2866.84 1063.96 2867 1057.99 2867H1055.58V2848.09H1069.21ZM1105.66 2845.56V2865.97H1102.16V2845.56H1105.66ZM1106.44 2870.41V2873.22H1086.98V2863.91H1090.48V2870.41H1106.44ZM1090.26 2847.41C1094.54 2847.41 1097.85 2850.38 1097.85 2854.47C1097.85 2858.66 1094.54 2861.56 1090.26 2861.56C1085.94 2861.56 1082.63 2858.66 1082.63 2854.47C1082.63 2850.38 1085.94 2847.41 1090.26 2847.41ZM1090.26 2850.44C1087.85 2850.44 1086.01 2852.03 1086.04 2854.47C1086.01 2856.97 1087.85 2858.53 1090.26 2858.53C1092.6 2858.53 1094.44 2856.97 1094.44 2854.47C1094.44 2852.03 1092.6 2850.44 1090.26 2850.44ZM1132.55 2845.53V2856.56H1136.74V2859.47H1132.55V2873.72H1129.08V2845.53H1132.55ZM1125.08 2848.47C1125.08 2856.78 1121.65 2864.06 1112.24 2868.69L1110.27 2866C1117.15 2862.58 1120.86 2857.77 1121.58 2851.34H1111.8V2848.47H1125.08ZM1164.54 2867.5V2870.34H1138.72V2867.5H1144.69V2860.34C1142.44 2859.06 1141.08 2857.05 1141.1 2854.53C1141.07 2850.03 1145.51 2847.06 1151.57 2847.06C1157.66 2847.06 1162.1 2850.03 1162.1 2854.53C1162.1 2857 1160.79 2858.98 1158.6 2860.28V2867.5H1164.54ZM1151.57 2849.81C1147.35 2849.81 1144.47 2851.59 1144.51 2854.53C1144.47 2857.44 1147.35 2859.25 1151.57 2859.25C1155.79 2859.25 1158.69 2857.44 1158.69 2854.53C1158.69 2851.59 1155.79 2849.81 1151.57 2849.81ZM1148.13 2867.5H1155.07V2861.59C1153.99 2861.84 1152.82 2861.97 1151.57 2861.97C1150.35 2861.97 1149.19 2861.84 1148.13 2861.62V2867.5ZM1171.8 2864.06C1171.83 2860.09 1172.96 2858.88 1174.93 2857.66C1176.27 2856.81 1177.27 2855.75 1177.27 2854.19C1177.27 2852.44 1175.93 2851.31 1174.21 2851.31C1172.64 2851.31 1171.14 2852.31 1171.05 2854.41H1167.14C1167.24 2850.22 1170.39 2848.06 1174.24 2848.06C1178.46 2848.06 1181.36 2850.41 1181.36 2854.12C1181.36 2856.66 1180.08 2858.31 1178.05 2859.53C1176.24 2860.62 1175.49 2861.72 1175.46 2864.06V2864.34H1171.8V2864.06ZM1173.74 2871.25C1172.39 2871.25 1171.3 2870.16 1171.3 2868.81C1171.3 2867.5 1172.39 2866.41 1173.74 2866.41C1175.02 2866.41 1176.14 2867.5 1176.14 2868.81C1176.14 2870.16 1175.02 2871.25 1173.74 2871.25Z" fill="#40424D"/>
<path d="M547.207 3318.28C547.16 3324.8 550.629 3332.3 557.66 3335.53L554.332 3340.22C549.574 3338.04 546.176 3333.68 544.301 3328.55C542.379 3334.2 538.887 3338.98 533.941 3341.3L530.473 3336.56C537.598 3333.23 541.16 3325.31 541.207 3318.28V3315.66H532.16V3310.78H555.785V3315.66H547.207V3318.28ZM565.113 3306.66V3322.92H571.394V3327.94H565.113V3349.31H559.113V3306.66H565.113ZM612.901 3330.38V3335.2H603.761V3349.31H597.667V3335.2H588.948V3349.31H582.808V3335.2H573.854V3330.38H612.901ZM593.261 3308.06C602.401 3308.06 608.823 3311.86 608.823 3317.72C608.823 3323.48 602.401 3327.09 593.261 3327.09C584.12 3327.09 577.745 3323.48 577.792 3317.72C577.745 3311.86 584.12 3308.06 593.261 3308.06ZM593.261 3312.84C587.542 3312.84 583.886 3314.58 583.933 3317.72C583.886 3320.72 587.542 3322.41 593.261 3322.41C599.026 3322.41 602.636 3320.72 602.636 3317.72C602.636 3314.58 599.026 3312.84 593.261 3312.84ZM655.346 3327.84V3332.58H616.299V3327.84H632.846V3325.27H621.174V3314.06H644.611V3311.86H621.08V3307.27H650.611V3318.33H627.127V3320.72H651.408V3325.27H638.799V3327.84H655.346ZM627.174 3334.12V3336.94H644.846V3334.12H650.752V3348.84H621.221V3334.12H627.174ZM627.174 3344.25H644.846V3341.39H627.174V3344.25ZM695.774 3306.66V3349.31H690.149V3306.66H695.774ZM686.681 3307.59V3347.44H681.103V3327.84H674.118C671.681 3332.72 667.72 3336.94 661.649 3340.45L658.274 3336.23C666.876 3331.12 670.673 3324.91 671.493 3316.55H660.618V3311.72H677.446C677.423 3315.77 677.001 3319.59 675.993 3323.11H681.103V3307.59H686.681ZM748.976 3306.66V3349.41H742.929V3306.66H748.976ZM725.819 3309.66C732.241 3309.66 737.023 3315.56 737.023 3324.84C737.023 3334.22 732.241 3340.08 725.819 3340.08C719.257 3340.08 714.476 3334.22 714.523 3324.84C714.476 3315.56 719.257 3309.66 725.819 3309.66ZM725.819 3315.05C722.491 3315.05 720.288 3318.52 720.288 3324.84C720.288 3331.22 722.491 3334.64 725.819 3334.64C729.054 3334.64 731.257 3331.22 731.257 3324.84C731.257 3318.52 729.054 3315.05 725.819 3315.05ZM794.701 3326.81V3331.5H755.701V3326.81H772.295V3323.16H760.436V3308.53H790.014V3313.17H766.389V3318.47H790.248V3323.16H778.154V3326.81H794.701ZM775.107 3333.66C784.342 3333.66 789.92 3336.47 789.967 3341.53C789.92 3346.5 784.342 3349.36 775.107 3349.36C765.779 3349.36 760.154 3346.5 760.154 3341.53C760.154 3336.47 765.779 3333.66 775.107 3333.66ZM775.107 3338.2C769.201 3338.2 766.201 3339.33 766.248 3341.53C766.201 3343.78 769.201 3344.81 775.107 3344.81C780.873 3344.81 783.92 3343.78 783.967 3341.53C783.92 3339.33 780.873 3338.2 775.107 3338.2ZM831.802 3306.66V3323.34H838.083V3328.27H831.802V3349.31H825.896V3306.66H831.802ZM822.989 3313.03V3317.81H797.911V3313.03H807.568V3307.31H813.568V3313.03H822.989ZM810.568 3320.2C816.802 3320.2 821.443 3324.42 821.443 3330.38C821.443 3336.33 816.802 3340.55 810.568 3340.55C804.286 3340.55 799.646 3336.33 799.646 3330.38C799.646 3324.42 804.286 3320.2 810.568 3320.2ZM810.568 3325.03C807.568 3325.08 805.364 3327.09 805.364 3330.38C805.364 3333.7 807.568 3335.67 810.568 3335.62C813.568 3335.67 815.724 3333.7 815.724 3330.38C815.724 3327.09 813.568 3325.08 810.568 3325.03ZM862.621 3310.45V3316.31H870.684V3306.66H876.59V3349.41H870.684V3332.62H862.621V3338.91H842.184V3310.45H862.621ZM848.137 3315.09V3334.27H856.762V3315.09H848.137ZM862.621 3327.89H870.684V3321.14H862.621V3327.89ZM558.808 3379.92C565.277 3379.92 570.199 3383.95 570.199 3389.67C570.199 3395.3 565.277 3399.38 558.808 3399.38C552.199 3399.38 547.324 3395.3 547.324 3389.67C547.324 3383.95 552.199 3379.92 558.808 3379.92ZM558.808 3384.8C555.527 3384.8 553.09 3386.58 553.137 3389.67C553.09 3392.72 555.527 3394.55 558.808 3394.55C562.043 3394.55 564.433 3392.72 564.433 3389.67C564.433 3386.58 562.043 3384.8 558.808 3384.8ZM582.387 3378.66V3400.03H576.387V3378.66H582.387ZM582.387 3401.81V3413.39H559.699V3416.16H583.558V3420.84H553.84V3409.03H576.433V3406.41H553.746V3401.81H582.387ZM613.112 3382.92V3386.34C613.065 3390.38 613.065 3395.62 611.94 3402.7L606.034 3402.23C606.995 3396.05 607.089 3391.48 607.159 3387.7H590.987V3382.92H613.112ZM602.472 3395.16V3407.53C606.667 3407.37 610.933 3407.06 614.847 3406.55L615.222 3411C606.456 3412.5 596.753 3412.64 589.3 3412.59L588.737 3407.81C591.128 3407.79 593.8 3407.79 596.565 3407.72V3395.16H602.472ZM622.909 3378.66V3395.81H628.722V3400.78H622.909V3421.31H616.862V3378.66H622.909ZM659.235 3383.02C659.188 3388.45 662.188 3393.33 669.126 3395.39L665.938 3400.03C661.345 3398.58 658.157 3395.7 656.329 3391.97C654.431 3396.23 650.985 3399.61 645.923 3401.25L642.876 3396.47C650.048 3394.27 653.188 3388.83 653.235 3383.16V3380.3H659.235V3383.02ZM677.423 3378.66V3387.14H683.188V3391.97H677.423V3401.3H671.423V3378.66H677.423ZM660.97 3403.03V3413.86H652.813V3416.53C656.399 3416.53 658.767 3416.37 661.626 3415.83L662.142 3420.28C658.392 3421.03 655.345 3421.12 649.532 3421.08H646.954V3409.69H655.204V3407.39H646.907V3403.03H660.97ZM677.423 3403.03V3421.08H663.22V3403.03H677.423ZM668.376 3407.39V3416.77H672.267V3407.39H668.376ZM699.852 3381.52C706.602 3381.47 711.664 3385.88 711.664 3391.97C711.664 3398.11 706.602 3402.47 699.852 3402.47C693.102 3402.47 687.992 3398.11 687.992 3391.97C687.992 3385.88 693.102 3381.47 699.852 3381.52ZM699.852 3386.67C696.477 3386.67 693.898 3388.64 693.945 3391.97C693.898 3395.34 696.477 3397.27 699.852 3397.27C703.227 3397.27 705.805 3395.34 705.852 3391.97C705.805 3388.64 703.273 3386.67 699.852 3386.67ZM721.883 3378.66V3421.41H715.93V3378.66H721.883ZM686.211 3407.81C693.805 3407.86 704.352 3407.72 713.492 3406.45L713.961 3410.77C704.492 3412.59 694.367 3412.69 686.914 3412.69L686.211 3407.81ZM752.397 3380.95C755.795 3380.95 758.772 3382.2 760.834 3384.28H770.49V3378.66H776.443V3403.64H770.49V3398.53H760.787C758.725 3400.59 755.772 3401.84 752.397 3401.81C745.928 3401.86 741.006 3397.41 741.053 3391.41C741.006 3385.31 745.928 3380.95 752.397 3380.95ZM752.397 3386.06C749.068 3386.06 746.678 3388.03 746.725 3391.41C746.678 3394.69 749.068 3396.8 752.397 3396.75C755.631 3396.8 757.975 3394.69 757.975 3391.41C757.975 3388.03 755.631 3386.06 752.397 3386.06ZM761.865 3404.53C770.912 3404.53 776.537 3407.62 776.584 3412.92C776.537 3418.22 770.912 3421.31 761.865 3421.31C752.865 3421.31 747.193 3418.22 747.193 3412.92C747.193 3407.62 752.865 3404.53 761.865 3404.53ZM761.865 3409.08C756.193 3409.08 753.053 3410.34 753.053 3412.92C753.053 3415.41 756.193 3416.67 761.865 3416.67C767.631 3416.67 770.725 3415.41 770.725 3412.92C770.725 3410.34 767.631 3409.08 761.865 3409.08ZM763.412 3389.02C763.553 3389.77 763.647 3390.59 763.647 3391.41C763.647 3392.23 763.553 3393 763.412 3393.75H770.49V3389.02H763.412ZM816.778 3378.66V3387.98H822.544V3392.91H816.778V3402.52H810.778V3378.66H816.778ZM804.825 3381.14C804.778 3392.44 797.653 3400.08 784.857 3403.45L782.466 3398.72C792.028 3396.35 797.302 3391.62 798.31 3385.92H784.575V3381.14H804.825ZM816.778 3404.11V3420.8H788.888V3404.11H816.778ZM794.841 3408.94V3416.11H810.872V3408.94H794.841ZM844.832 3379.27C854.629 3379.27 860.301 3381.84 860.348 3386.53C860.301 3391.27 854.629 3393.84 844.832 3393.84C834.988 3393.84 829.27 3391.27 829.27 3386.53C829.27 3381.84 834.988 3379.27 844.832 3379.27ZM844.832 3383.62C838.551 3383.62 835.504 3384.66 835.551 3386.53C835.504 3388.64 838.551 3389.44 844.832 3389.44C851.16 3389.44 854.16 3388.64 854.16 3386.53C854.16 3384.66 851.16 3383.62 844.832 3383.62ZM864.285 3395.86V3400.59H825.379V3395.86H864.285ZM859.551 3403.08V3413.95H835.785V3416.53H860.676V3421.03H829.926V3409.78H853.645V3407.44H829.879V3403.08H859.551ZM673.802 3476.81V3481.59H650.787V3488.06H674.365V3492.84H644.787V3476.81H673.802ZM673.521 3450.66V3474.84H667.568V3465.52H660.49C659.458 3470.32 655.029 3473.67 649.474 3473.67C643.005 3473.67 638.083 3469.27 638.13 3463.31C638.083 3457.17 643.005 3452.81 649.474 3452.81C654.888 3452.81 659.201 3455.95 660.396 3460.64H667.568V3450.66H673.521ZM649.474 3457.83C646.146 3457.83 643.755 3459.84 643.802 3463.31C643.755 3466.55 646.146 3468.61 649.474 3468.61C652.615 3468.61 655.052 3466.55 655.052 3463.31C655.052 3459.84 652.615 3457.83 649.474 3457.83ZM714.653 3462.28V3466.97H684.84V3452.16H690.793V3462.28H714.653ZM719.012 3471.56V3476.25H679.965V3471.56H719.012ZM714.934 3487.59V3492.38H684.465V3479.72H690.465V3487.59H714.934ZM750.135 3455.02C750.088 3460.45 753.088 3465.33 760.026 3467.39L756.838 3472.03C752.245 3470.58 749.057 3467.7 747.229 3463.97C745.331 3468.23 741.885 3471.61 736.823 3473.25L733.776 3468.47C740.948 3466.27 744.088 3460.83 744.135 3455.16V3452.3H750.135V3455.02ZM768.323 3450.66V3459.14H774.088V3463.97H768.323V3473.3H762.323V3450.66H768.323ZM751.87 3475.03V3485.86H743.713V3488.53C747.299 3488.53 749.667 3488.37 752.526 3487.83L753.042 3492.28C749.292 3493.03 746.245 3493.12 740.432 3493.08H737.854V3481.69H746.104V3479.39H737.807V3475.03H751.87ZM768.323 3475.03V3493.08H754.12V3475.03H768.323ZM759.276 3479.39V3488.77H763.167V3479.39H759.276Z" fill="#40424D"/>
<path d="M1385.12 3782.66V3825.41H1379.07V3782.66H1385.12ZM1357.51 3786.03V3796.44H1366.7V3786.03H1372.6V3815.42H1351.51V3786.03H1357.51ZM1357.51 3810.59H1366.7V3801.08H1357.51V3810.59ZM1430.75 3802.62V3807.45H1391.85V3802.62H1430.75ZM1414.3 3810.55C1414.3 3815.05 1418.75 3819.41 1428.13 3820.53L1425.92 3825.12C1418.92 3824.16 1413.9 3821.45 1411.25 3817.58C1408.6 3821.45 1403.59 3824.16 1396.58 3825.12L1394.47 3820.53C1403.75 3819.41 1408.2 3815.05 1408.25 3810.55V3809.66H1414.3V3810.55ZM1414.39 3784.81C1414.39 3789.36 1419.31 3794.42 1428.83 3795.55L1426.53 3800.33C1419.31 3799.27 1414.02 3796.06 1411.3 3791.8C1408.56 3796.09 1403.24 3799.27 1396.02 3800.33L1393.81 3795.55C1403.24 3794.42 1408.2 3789.45 1408.25 3784.81V3783.36H1414.39V3784.81ZM1468.13 3782.7V3795.78H1473.9V3800.66H1468.13V3814.53H1462.13V3782.7H1468.13ZM1459.6 3787.16V3791.89H1434.29V3787.16H1443.99V3782.61H1449.95V3787.16H1459.6ZM1446.95 3793.39C1453.13 3793.39 1457.45 3796.72 1457.45 3801.64C1457.45 3806.56 1453.13 3809.8 1446.95 3809.8C1440.71 3809.8 1436.35 3806.56 1436.35 3801.64C1436.35 3796.72 1440.71 3793.39 1446.95 3793.39ZM1446.95 3797.94C1444.09 3797.98 1442.16 3799.3 1442.21 3801.64C1442.16 3803.98 1444.09 3805.25 1446.95 3805.25C1449.81 3805.25 1451.77 3803.98 1451.77 3801.64C1451.77 3799.3 1449.81 3797.98 1446.95 3797.94ZM1469.68 3819.78V3824.56H1440.48V3812.09H1446.43V3819.78H1469.68ZM1514.4 3786.92V3791.56H1505.96C1506.08 3794.91 1509.1 3798.01 1515.43 3799.16L1513.08 3803.75C1508.26 3802.81 1504.93 3800.68 1503.05 3797.8C1501.16 3800.96 1497.76 3803.35 1492.74 3804.36L1490.3 3799.72C1496.75 3798.52 1499.75 3795.17 1499.91 3791.56H1491.43V3786.92H1499.96V3782.75H1505.96V3786.92H1514.4ZM1524.71 3782.7V3825.31H1518.8V3782.7H1524.71ZM1488.85 3806.19C1496.73 3806.19 1507.23 3806.14 1516.23 3804.97L1516.6 3809.28C1513.08 3809.89 1509.48 3810.31 1505.91 3810.55V3824H1499.96V3810.88C1496.26 3811.02 1492.72 3811.04 1489.6 3811.02L1488.85 3806.19ZM1570.58 3788.89V3793.72H1565.04V3798.08H1570.58V3802.95H1565.04V3809.75H1559.04V3782.66H1565.04V3788.89H1570.58ZM1551.12 3810.12C1559.89 3810.12 1565.51 3812.98 1565.51 3817.77C1565.51 3822.45 1559.89 3825.31 1551.12 3825.31C1542.17 3825.31 1536.64 3822.45 1536.69 3817.77C1536.64 3812.98 1542.17 3810.12 1551.12 3810.12ZM1551.12 3814.67C1545.54 3814.67 1542.54 3815.66 1542.59 3817.77C1542.54 3819.78 1545.54 3820.86 1551.12 3820.86C1556.56 3820.86 1559.51 3819.78 1559.51 3817.77C1559.51 3815.66 1556.56 3814.67 1551.12 3814.67ZM1556.51 3786.73V3791.38H1531.2V3786.73H1540.9V3782.42H1546.86V3786.73H1556.51ZM1543.86 3792.83C1550.04 3792.83 1554.36 3795.97 1554.36 3800.52C1554.36 3805.11 1550.04 3808.16 1543.86 3808.16C1537.58 3808.16 1533.26 3805.11 1533.26 3800.52C1533.26 3795.97 1537.58 3792.83 1543.86 3792.83ZM1543.86 3797.19C1541 3797.19 1539.08 3798.36 1539.12 3800.52C1539.08 3802.62 1541 3803.75 1543.86 3803.7C1546.72 3803.75 1548.69 3802.62 1548.69 3800.52C1548.69 3798.36 1546.72 3797.19 1543.86 3797.19ZM1587.47 3785.52C1594.22 3785.47 1599.29 3789.88 1599.29 3795.97C1599.29 3802.11 1594.22 3806.47 1587.47 3806.47C1580.72 3806.47 1575.61 3802.11 1575.61 3795.97C1575.61 3789.88 1580.72 3785.47 1587.47 3785.52ZM1587.47 3790.67C1584.1 3790.67 1581.52 3792.64 1581.57 3795.97C1581.52 3799.34 1584.1 3801.27 1587.47 3801.27C1590.85 3801.27 1593.43 3799.34 1593.47 3795.97C1593.43 3792.64 1590.9 3790.67 1587.47 3790.67ZM1609.5 3782.66V3825.41H1603.55V3782.66H1609.5ZM1573.83 3811.81C1581.43 3811.86 1591.97 3811.72 1601.11 3810.45L1601.58 3814.77C1592.11 3816.59 1581.99 3816.69 1574.54 3816.69L1573.83 3811.81ZM1365.1 3864.31C1365.06 3871.95 1368.34 3879.69 1375.18 3882.97L1371.57 3887.75C1367 3885.5 1363.93 3881.28 1362.15 3876.12C1360.3 3881.66 1356.99 3886.18 1352.17 3888.55L1348.46 3883.72C1355.68 3880.39 1359.1 3872.23 1359.1 3864.31V3857.94H1365.1V3864.31ZM1383.06 3854.66V3871.11H1389.34V3876.17H1383.06V3897.31H1377.06V3854.66H1383.06ZM1425.69 3854.7V3864.78H1431.45V3869.75H1425.69V3880.02H1419.69V3854.7H1425.69ZM1425.69 3881.8V3896.84H1397.75V3881.8H1425.69ZM1403.61 3886.48V3892.06H1419.83V3886.48H1403.61ZM1412.94 3856.77V3869.75H1399.35V3873.59C1406.4 3873.55 1411.18 3873.31 1416.6 3872.38L1417.25 3877.06C1411.11 3878.28 1405.63 3878.47 1397 3878.47H1393.39V3865.25H1407.13V3861.55H1393.35V3856.77H1412.94ZM1473.29 3871.3V3875.98H1434.29V3871.3H1473.29ZM1468.65 3864.27V3868.95H1439.16V3855.5H1468.32V3860.28H1445.12V3864.27H1468.65ZM1468.46 3878.52V3889.67H1444.7V3892.3H1469.59V3896.94H1438.84V3885.41H1462.56V3883.02H1438.79V3878.52H1468.46ZM1500.73 3858.92V3862.34C1500.69 3866.38 1500.69 3871.62 1499.56 3878.7L1493.66 3878.23C1494.62 3872.05 1494.71 3867.48 1494.78 3863.7H1478.61V3858.92H1500.73ZM1490.09 3871.16V3883.53C1494.29 3883.37 1498.55 3883.06 1502.47 3882.55L1502.84 3887C1494.08 3888.5 1484.37 3888.64 1476.92 3888.59L1476.36 3883.81C1478.75 3883.79 1481.42 3883.79 1484.19 3883.72V3871.16H1490.09ZM1510.53 3854.66V3871.81H1516.34V3876.78H1510.53V3897.31H1504.48V3854.66H1510.53ZM1565.04 3854.66V3865.16H1570.81V3870.17H1565.04V3880.39H1559.04V3854.66H1565.04ZM1565.04 3882.27V3896.84H1537.15V3882.27H1565.04ZM1543.06 3886.95V3892.06H1559.14V3886.95H1543.06ZM1556.51 3858.5V3863.23H1531.2V3858.5H1540.9V3854.42H1546.86V3858.5H1556.51ZM1543.86 3864.55C1550.04 3864.55 1554.36 3867.69 1554.36 3872.19C1554.36 3876.83 1550.04 3879.92 1543.86 3879.92C1537.58 3879.92 1533.26 3876.83 1533.26 3872.19C1533.26 3867.69 1537.58 3864.55 1543.86 3864.55ZM1543.86 3869.05C1541 3869.05 1539.08 3870.17 1539.12 3872.19C1539.08 3874.34 1541 3875.52 1543.86 3875.52C1546.72 3875.52 1548.69 3874.34 1548.69 3872.19C1548.69 3870.17 1546.72 3869.05 1543.86 3869.05ZM1584.15 3859.53C1584.1 3870.17 1583.07 3879.73 1577.63 3888.17L1572.99 3885.73C1577.37 3879.1 1578.68 3872.63 1578.99 3864.36H1574.4V3859.53H1584.15ZM1593.71 3859.53C1593.68 3863.28 1593.61 3867.01 1593.29 3870.64H1596.94V3855.59H1602.57V3895.44H1596.94V3875.47H1592.68C1591.76 3880.7 1590.15 3885.71 1587.19 3890.33L1582.65 3887.8C1587.4 3880.53 1588.39 3873.01 1588.6 3864.36H1585.36V3859.53H1593.71ZM1610.96 3854.66V3897.31H1605.24V3854.66H1610.96Z" fill="#40424D"/>
<path d="M941.5 3709.68C942.252 3709.68 943.002 3709.68 943.75 3709.7C943.576 3710.36 943.411 3711.02 943.257 3711.69C942.672 3711.68 942.087 3711.68 941.5 3711.68C887.376 3711.68 843.5 3755.55 843.5 3809.68C843.5 3863.8 887.376 3907.68 941.5 3907.68C995.624 3907.68 1039.5 3863.8 1039.5 3809.68C1039.5 3802.91 1038.81 3796.31 1037.51 3789.93C1038.14 3789.65 1038.76 3789.37 1039.37 3789.07C1040.77 3795.72 1041.5 3802.61 1041.5 3809.68C1041.5 3864.9 996.728 3909.68 941.5 3909.68C886.272 3909.68 841.5 3864.9 841.5 3809.68C841.5 3754.45 886.272 3709.68 941.5 3709.68ZM943.257 3711.69C989.833 3712.51 1028.48 3745.82 1037.51 3789.93C1029.09 3793.62 1019.78 3795.68 1010 3795.68C972.168 3795.68 941.5 3765.01 941.5 3727.18C941.5 3721.85 942.107 3716.67 943.257 3711.69ZM1010 3658.68C1047.83 3658.68 1078.5 3689.34 1078.5 3727.18C1078.5 3754.49 1062.51 3778.08 1039.37 3789.07C1030.02 3744.44 990.914 3710.74 943.75 3709.7C951.475 3680.33 978.208 3658.68 1010 3658.68Z" fill="#56AFDF"/>
<path d="M347.776 3970.25C347.776 3977.56 349.792 3984.5 355.792 3987.69L352.276 3992.42C348.573 3990.41 346.182 3986.96 344.776 3982.72C343.253 3987.43 340.698 3991.37 336.854 3993.69L333.104 3989.33C339.526 3985.48 341.917 3977.89 341.964 3970.67V3963.31H347.776V3970.25ZM370.886 3959.66V4002.31H365.167V3981.08H361.464V4000.34H355.839V3960.27H361.464V3976.3H365.167V3959.66H370.886ZM415.392 3992.66V3997.58H376.346V3992.66H392.799V3986.23H380.846V3971.89H404.986V3967.2H380.799V3962.42H410.892V3976.58H386.846V3981.36H411.877V3986.23H398.752V3992.66H415.392ZM457.79 3980.42V3985.2H441.618V3992.61H435.571V3985.2H418.743V3980.42H457.79ZM453.477 3996.73V4001.56H423.384V3988.81H429.431V3996.73H453.477ZM438.243 3960.45C447.477 3960.5 453.618 3963.92 453.665 3969.31C453.618 3974.75 447.477 3978.12 438.243 3978.12C428.962 3978.12 422.774 3974.75 422.774 3969.31C422.774 3963.92 428.962 3960.5 438.243 3960.45ZM438.243 3965.19C432.712 3965.19 429.196 3966.59 429.243 3969.31C429.196 3971.94 432.712 3973.34 438.243 3973.34C443.727 3973.34 447.243 3971.94 447.243 3969.31C447.243 3966.59 443.727 3965.19 438.243 3965.19ZM489.804 3971.28C489.804 3978.17 493.319 3985.53 500.491 3988.53L497.257 3993.22C492.218 3991.09 488.749 3986.84 486.851 3981.64C484.905 3987.29 481.366 3991.98 476.351 3994.3L472.929 3989.56C480.007 3986.42 483.663 3978.5 483.663 3971.28V3968.66H474.616V3963.78H498.71V3968.66H489.804V3971.28ZM508.976 3959.66V4002.31H502.929V3959.66H508.976ZM532.061 3965.7C532.014 3971.05 535.061 3976.2 542.092 3978.31L539.092 3983C534.24 3981.45 530.889 3978.43 528.967 3974.52C527.045 3978.73 523.576 3982.04 518.561 3983.66L515.561 3978.97C522.686 3976.67 525.826 3971.14 525.826 3965.7V3961.62H532.061V3965.7ZM551.42 3986.94V4002.31H545.42V3991.72H522.076V3986.94H551.42ZM551.42 3959.66V3985.11H545.42V3959.66H551.42ZM582.146 3963.92V3967.34C582.099 3971.38 582.099 3976.62 580.974 3983.7L575.067 3983.23C576.028 3977.05 576.122 3972.48 576.192 3968.7H560.021V3963.92H582.146ZM571.505 3976.16V3988.53C575.7 3988.37 579.966 3988.06 583.88 3987.55L584.255 3992C575.489 3993.5 565.786 3993.64 558.333 3993.59L557.771 3988.81C560.161 3988.79 562.833 3988.79 565.599 3988.72V3976.16H571.505ZM591.942 3959.66V3976.81H597.755V3981.78H591.942V4002.31H585.896V3959.66H591.942ZM342.621 4031.66V4056.97H336.668V4046.89H330.012V4042.06H336.668V4031.66H342.621ZM328.043 4057.91C337.137 4057.95 342.715 4060.95 342.762 4066.16C342.715 4071.31 337.137 4074.36 328.043 4074.36C318.949 4074.36 313.371 4071.31 313.371 4066.16C313.371 4060.95 318.949 4057.95 328.043 4057.91ZM328.043 4062.5C322.371 4062.5 319.324 4063.67 319.324 4066.16C319.324 4068.59 322.371 4069.81 328.043 4069.81C333.715 4069.81 336.808 4068.59 336.808 4066.16C336.808 4063.67 333.715 4062.5 328.043 4062.5ZM331.277 4034.23V4039.02H322.793C322.933 4043.98 325.933 4049 332.59 4051.2L329.637 4055.89C324.926 4054.37 321.691 4051.27 319.84 4047.41C317.941 4051.77 314.543 4055.28 309.48 4057.02L306.387 4052.28C313.394 4049.94 316.535 4044.36 316.699 4039.02H308.121V4034.23H331.277ZM388.159 4064.47V4069.34H349.112V4064.47H365.565V4056.59H353.237V4034.38H359.237V4040.98H377.847V4034.38H383.8V4056.59H371.518V4064.47H388.159ZM359.237 4051.81H377.847V4045.77H359.237V4051.81ZM425.329 4034.05V4038.88H411.22V4042.2H424.438V4046.94H411.22V4050.41C418.157 4050.41 422.61 4050.2 427.626 4049.23L428.282 4053.97C422.517 4054.95 417.36 4055.14 408.735 4055.09H405.173V4034.05H425.329ZM437.423 4058.47V4073.84H409.532V4058.47H437.423ZM415.438 4063.11V4069.06H431.517V4063.11H415.438ZM437.423 4031.66V4041.64H443.188V4046.56H437.423V4056.59H431.423V4031.66H437.423ZM459.664 4039.06C459.664 4043.8 462.008 4048.44 467.68 4050.69L464.445 4055.28C460.859 4053.83 458.352 4051.2 456.852 4047.97C455.258 4051.67 452.586 4054.74 448.602 4056.41L445.414 4051.77C451.414 4049.19 453.852 4043.89 453.852 4039.06V4034.14H459.664V4039.06ZM482.68 4031.7V4057.53H477.008V4046.94H473.445V4057.3H467.867V4032.36H473.445V4042.06H477.008V4031.7H482.68ZM482.68 4059.41V4074.31H476.727V4064.19H453.195V4059.41H482.68ZM507.921 4032.27C517.718 4032.27 523.39 4034.84 523.437 4039.53C523.39 4044.27 517.718 4046.84 507.921 4046.84C498.077 4046.84 492.358 4044.27 492.358 4039.53C492.358 4034.84 498.077 4032.27 507.921 4032.27ZM507.921 4036.62C501.64 4036.62 498.593 4037.66 498.64 4039.53C498.593 4041.64 501.64 4042.44 507.921 4042.44C514.249 4042.44 517.249 4041.64 517.249 4039.53C517.249 4037.66 514.249 4036.62 507.921 4036.62ZM527.374 4048.86V4053.59H488.468V4048.86H527.374ZM522.64 4056.08V4066.95H498.874V4069.53H523.765V4074.03H493.015V4062.78H516.733V4060.44H492.968V4056.08H522.64ZM581.841 4053.64V4058.33H542.841V4053.64H559.341V4051.02H547.716V4032.69H577.294V4037.28H553.716V4039.67H576.31V4043.98H553.716V4046.42H577.669V4051.02H565.341V4053.64H581.841ZM562.341 4060.3C571.763 4060.25 577.153 4062.78 577.2 4067.28C577.153 4071.88 571.763 4074.31 562.341 4074.31C552.778 4074.31 547.388 4071.88 547.388 4067.28C547.388 4062.78 552.778 4060.25 562.341 4060.3ZM562.341 4064.7C556.2 4064.7 553.341 4065.5 553.388 4067.28C553.341 4069.11 556.2 4069.91 562.341 4069.91C568.341 4069.91 571.153 4069.11 571.2 4067.28C571.153 4065.5 568.341 4064.7 562.341 4064.7ZM605.957 4038.17V4042.91H585.332V4038.17H592.738V4032.83H598.645V4038.17H605.957ZM595.738 4044.83C601.176 4044.83 605.067 4049.05 605.113 4054.95C605.067 4060.91 601.176 4065.12 595.738 4065.12C590.301 4065.12 586.317 4060.91 586.317 4054.95C586.317 4049.05 590.301 4044.83 595.738 4044.83ZM595.738 4049.8C593.254 4049.8 591.567 4051.72 591.567 4054.95C591.567 4058.19 593.254 4060.06 595.738 4060.06C598.129 4060.06 599.817 4058.19 599.863 4054.95C599.817 4051.72 598.129 4049.8 595.738 4049.8ZM622.27 4031.66V4074.31H616.598V4053.78H613.129V4072.48H607.551V4032.5H613.129V4049H616.598V4031.66H622.27Z" fill="#40424D"/>
<rect x="1000" y="2964" width="80" height="80" rx="40" transform="rotate(90 1000 2964)" fill="#56AFDF"/>
<path d="M960 3020L968.66 3005L951.34 3005L960 3020ZM960 2988L958.5 2988L958.5 3006.5L960 3006.5L961.5 3006.5L961.5 2988L960 2988Z" fill="white"/>
<defs>
<filter id="filter0_f_4712_2042" x="-642.672" y="-387.223" width="1682.67" height="1682.67" filterUnits="userSpaceOnUse" color-interpolation-filters="sRGB">
<feFlood flood-opacity="0" result="BackgroundImageFix"/>
<feBlend mode="normal" in="SourceGraphic" in2="BackgroundImageFix" result="shape"/>
<feGaussianBlur stdDeviation="50" result="effect1_foregroundBlur_4712_2042"/>
</filter>
<filter id="filter1_f_4712_2042" x="657" y="567.273" width="1986.9" height="1986.9" filterUnits="userSpaceOnUse" color-interpolation-filters="sRGB">
<feFlood flood-opacity="0" result="BackgroundImageFix"/>
<feBlend mode="normal" in="SourceGraphic" in2="BackgroundImageFix" result="shape"/>
<feGaussianBlur stdDeviation="50" result="effect1_foregroundBlur_4712_2042"/>
</filter>
<filter id="filter2_f_4712_2042" x="390" y="2386" width="2264" height="2264" filterUnits="userSpaceOnUse" color-interpolation-filters="sRGB">
<feFlood flood-opacity="0" result="BackgroundImageFix"/>
<feBlend mode="normal" in="SourceGraphic" in2="BackgroundImageFix" result="shape"/>
<feGaussianBlur stdDeviation="50" result="effect1_foregroundBlur_4712_2042"/>
</filter>
<radialGradient id="paint0_radial_4712_2042" cx="0" cy="0" r="1" gradientUnits="userSpaceOnUse" gradientTransform="translate(198.664 454.113) rotate(90) scale(741.336)">
<stop stop-color="#56AFDF" stop-opacity="0.39"/>
<stop offset="1" stop-color="#56AFDF" stop-opacity="0"/>
</radialGradient>
<radialGradient id="paint1_radial_4712_2042" cx="0" cy="0" r="1" gradientUnits="userSpaceOnUse" gradientTransform="translate(1650.45 1560.72) rotate(90) scale(893.449)">
<stop stop-color="#56AFDF" stop-opacity="0.39"/>
<stop offset="1" stop-color="#56AFDF" stop-opacity="0"/>
</radialGradient>
<radialGradient id="paint2_radial_4712_2042" cx="0" cy="0" r="1" gradientUnits="userSpaceOnUse" gradientTransform="translate(1522 3518) rotate(90) scale(1032)">
<stop stop-color="#56AFDF" stop-opacity="0.39"/>
<stop offset="1" stop-color="#56AFDF" stop-opacity="0"/>
</radialGradient>
</defs>
</svg>
