<svg width="372" height="187" viewBox="0 0 372 187" fill="none" xmlns="http://www.w3.org/2000/svg">
<path d="M91.6385 17.4375V22.2656H52.7323V17.4375H69.1385V14.6719H57.5604V1.21875H86.7167V14.6719H75.0448V17.4375H91.6385ZM63.4198 5.85938V10.0781H80.7635V5.85938H63.4198ZM86.9042 24.375V35.2969H63.1385V37.875H88.0292V42.375H57.2792V31.0781H80.9979V28.875H57.2323V24.375H86.9042ZM130.895 0V22.9219H124.895V0H130.895ZM108.255 24.7969V28.7812H124.942V24.7969H130.895V42.1875H102.349V24.7969H108.255ZM108.255 37.3594H124.942V33.4219H108.255V37.3594ZM107.505 1.78125C114.161 1.73438 119.177 5.90625 119.177 11.9062C119.177 17.7188 114.161 21.8906 107.505 21.8906C100.849 21.8906 95.8329 17.7188 95.8329 11.9062C95.8329 5.90625 100.849 1.73438 107.505 1.78125ZM107.505 6.75C104.083 6.75 101.645 8.67188 101.692 11.9062C101.645 15.0938 104.083 16.9688 107.505 16.9688C110.833 16.9688 113.27 15.0938 113.27 11.9062C113.27 8.67188 110.833 6.75 107.505 6.75ZM171.277 0V16.6875H177.559V21.6094H171.277V42.6562H165.371V0H171.277ZM162.465 6.375V11.1562H137.387V6.375H147.043V0.65625H153.043V6.375H162.465ZM150.043 13.5469C156.277 13.5469 160.918 17.7656 160.918 23.7188C160.918 29.6719 156.277 33.8906 150.043 33.8906C143.762 33.8906 139.121 29.6719 139.121 23.7188C139.121 17.7656 143.762 13.5469 150.043 13.5469ZM150.043 18.375C147.043 18.4219 144.84 20.4375 144.84 23.7188C144.84 27.0469 147.043 29.0156 150.043 28.9688C153.043 29.0156 155.199 27.0469 155.199 23.7188C155.199 20.4375 153.043 18.4219 150.043 18.375ZM215.925 0V42.6562H209.878V0H215.925ZM203.128 4.45312C203.128 17.3906 198.581 28.125 183.347 35.3438L180.206 30.5625C191.222 25.3594 196.073 18.6094 197.034 9.14062H182.503V4.45312H203.128ZM256.892 12.7031V16.6406H273.532V21.4219H234.485V16.6406H250.985V12.7031H256.892ZM269.923 1.03125V5.57812H258.439C259.657 8.03906 263.946 10.2656 271.751 10.6875L269.876 15.1406C261.649 14.5781 256.165 11.9531 253.985 8.10938C251.782 11.9297 246.298 14.5781 238.095 15.1406L236.173 10.6875C243.837 10.2656 248.22 8.01562 249.485 5.57812H238.095V1.03125H269.923ZM269.829 25.7812V30.2344H238.048V25.7812H250.939V22.5938H256.939V25.7812H269.829ZM253.892 31.5C262.142 31.5 267.064 33.4688 267.064 37.125C267.064 40.8281 262.142 42.7969 253.892 42.7969C245.548 42.7969 240.814 40.8281 240.814 37.125C240.814 33.4688 245.548 31.5 253.892 31.5ZM253.892 35.4375C249.298 35.4844 246.954 35.9062 246.954 37.125C246.954 38.2969 249.298 38.8594 253.892 38.8594C258.532 38.8594 260.782 38.2969 260.829 37.125C260.782 35.9062 258.532 35.4844 253.892 35.4375ZM315.883 21.7969V26.5781H276.977V21.7969H315.883ZM311.477 37.125V41.9062H281.664V29.4375H287.664V37.125H311.477ZM296.43 1.3125C305.758 1.26562 311.899 4.59375 311.945 10.0312C311.899 15.4688 305.758 18.8438 296.43 18.8438C287.008 18.8438 280.867 15.4688 280.867 10.0312C280.867 4.59375 287.008 1.26562 296.43 1.3125ZM296.43 6C290.524 6.04688 287.055 7.45312 287.102 10.0312C287.055 12.7031 290.524 14.0156 296.43 14.0156C302.336 14.0156 305.758 12.7031 305.758 10.0312C305.758 7.45312 302.336 6.04688 296.43 6ZM71.2132 88.1719V93.0469H65.1664V114.562H59.1664V72H65.1664V88.1719H71.2132ZM38.8226 76.0781V99.1875C44.2836 99.1172 50.1429 98.6016 56.307 97.3594L56.9164 102.328C49.7914 103.781 42.8539 104.156 36.5726 104.156H32.8695V76.0781H38.8226ZM95.7045 75.5156V96H75.2201V75.5156H95.7045ZM81.1264 80.2969V91.3125H89.7982V80.2969H81.1264ZM107.798 72V84.2812H113.564V89.2031H107.798V103.125H101.798V72H107.798ZM109.345 109.125V113.906H80.142V100.078H86.0951V109.125H109.345ZM130.227 74.8594C136.977 74.8125 142.039 79.2188 142.039 85.3125C142.039 91.4531 136.977 95.8125 130.227 95.8125C123.477 95.8125 118.368 91.4531 118.368 85.3125C118.368 79.2188 123.477 74.8125 130.227 74.8594ZM130.227 80.0156C126.852 80.0156 124.274 81.9844 124.321 85.3125C124.274 88.6875 126.852 90.6094 130.227 90.6094C133.602 90.6094 136.18 88.6875 136.227 85.3125C136.18 81.9844 133.649 80.0156 130.227 80.0156ZM152.258 72V114.75H146.305V72H152.258ZM116.586 101.156C124.18 101.203 134.727 101.062 143.868 99.7969L144.336 104.109C134.868 105.938 124.743 106.031 117.289 106.031L116.586 101.156ZM190.084 98.5781C199.413 98.5781 205.272 101.531 205.319 106.641C205.272 111.656 199.413 114.656 190.084 114.656C180.85 114.656 174.897 111.656 174.897 106.641C174.897 101.531 180.85 98.5781 190.084 98.5781ZM190.084 103.031C184.225 103.031 180.85 104.25 180.85 106.641C180.85 108.938 184.225 110.109 190.084 110.109C195.944 110.109 199.366 108.938 199.366 106.641C199.366 104.25 195.944 103.031 190.084 103.031ZM205.084 73.9219V77.3906C205.084 80.7656 205.084 84.4219 203.866 88.8281L198.006 88.2656C198.944 84.3984 199.061 81.5156 199.131 78.6094H175.319V73.9219H205.084ZM209.678 91.0312V95.8594H170.959V91.0312H185.491V83.5781H191.397V91.0312H209.678ZM247.154 72V83.9531H252.919V88.875H247.154V102.562H241.107V72H247.154ZM235.529 75.1875C235.529 86.7188 228.31 94.7812 215.513 98.3906L213.029 93.6562C222.568 90.9844 227.982 86.0391 228.966 80.0625H214.904V75.1875H235.529ZM248.607 109.125V113.906H219.404V99.4219H225.451V109.125H248.607ZM292.739 72V114.656H287.02V72H292.739ZM283.833 72.6094V112.688H278.208V92.5312H274.786C274.223 100.922 270.661 105.984 265.411 105.984C259.786 105.984 256.129 100.078 256.129 90.4688C256.129 80.9062 259.786 75.0469 265.411 75.0469C270.544 75.0469 274.059 79.8281 274.739 87.7969H278.208V72.6094H283.833ZM265.411 80.6719C263.02 80.6719 261.614 83.9531 261.661 90.4688C261.614 97.0312 263.02 100.266 265.411 100.219C267.848 100.266 269.301 97.0312 269.301 90.4688C269.301 83.9531 267.848 80.6719 265.411 80.6719ZM314.324 81.6562C314.324 89.6719 317.558 97.4531 324.683 100.547L321.027 105.328C316.293 103.008 313.129 98.7656 311.371 93.5156C309.496 99.0938 306.214 103.664 301.339 106.078L297.589 101.203C304.902 97.9219 308.23 89.6719 308.277 81.6562V75.2812H314.324V81.6562ZM334.199 72V114.75H328.293V90.2344H319.902V85.4062H328.293V72H334.199ZM35.0623 144V186.656H29.2967V165.328H25.3123V184.594H19.6873V144.703H25.3123V160.5H29.2967V144H35.0623ZM5.9998 148.734V171C9.42168 170.93 13.1717 170.625 17.2967 169.828L17.9061 174.984C12.1873 175.969 7.3123 176.25 2.90605 176.25H-0.000198364V148.734H5.9998ZM64.8729 145.266C71.3417 145.266 76.2635 149.297 76.2635 155.016C76.2635 160.641 71.3417 164.719 64.8729 164.719C58.2635 164.719 53.3885 160.641 53.3885 155.016C53.3885 149.297 58.2635 145.266 64.8729 145.266ZM64.8729 150.141C61.5917 150.141 59.1542 151.922 59.201 155.016C59.1542 158.062 61.5917 159.891 64.8729 159.891C68.1073 159.891 70.4979 158.062 70.4979 155.016C70.4979 151.922 68.1073 150.141 64.8729 150.141ZM88.451 144V165.375H82.451V144H88.451ZM88.451 167.156V178.734H65.7635V181.5H89.6229V186.188H59.9042V174.375H82.4979V171.75H59.8104V167.156H88.451ZM132.161 144V186.656H126.442V144H132.161ZM123.255 144.609V184.688H117.63V164.531H114.208C113.645 172.922 110.083 177.984 104.833 177.984C99.2079 177.984 95.5517 172.078 95.5517 162.469C95.5517 152.906 99.2079 147.047 104.833 147.047C109.966 147.047 113.481 151.828 114.161 159.797H117.63V144.609H123.255ZM104.833 152.672C102.442 152.672 101.036 155.953 101.083 162.469C101.036 169.031 102.442 172.266 104.833 172.219C107.27 172.266 108.724 169.031 108.724 162.469C108.724 155.953 107.27 152.672 104.833 152.672ZM185.597 144.047V175.172H179.644V159.891H172.659V155.062H179.644V144.047H185.597ZM186.628 181.125V185.906H157.284V172.453H163.284V181.125H186.628ZM165.769 152.391C165.769 157.312 168.769 162.609 175.565 164.812L172.612 169.547C167.878 168.023 164.644 164.906 162.769 161.016C160.894 165.328 157.495 168.75 152.456 170.438L149.409 165.562C156.44 163.359 159.628 157.781 159.675 152.344V151.688H151.097V146.906H174.253V151.688H165.769V152.391ZM200.572 145.828V163.031C205.729 162.961 210.322 162.703 215.338 161.906L215.947 166.594C209.9 167.672 204.51 167.953 197.947 167.906H194.525V145.828H200.572ZM228.041 144V168.938H222.088V159.844H211.635V155.344H222.088V152.391H211.635V147.938H222.088V144H228.041ZM228.041 170.672V186.188H199.635V170.672H228.041ZM205.494 175.406V181.406H222.135V175.406H205.494ZM268.189 144V160.688H274.47V165.609H268.189V186.656H262.282V144H268.189ZM259.376 150.375V155.156H234.298V150.375H243.954V144.656H249.954V150.375H259.376ZM246.954 157.547C253.189 157.547 257.829 161.766 257.829 167.719C257.829 173.672 253.189 177.891 246.954 177.891C240.673 177.891 236.032 173.672 236.032 167.719C236.032 161.766 240.673 157.547 246.954 157.547ZM246.954 162.375C243.954 162.422 241.751 164.438 241.751 167.719C241.751 171.047 243.954 173.016 246.954 172.969C249.954 173.016 252.11 171.047 252.11 167.719C252.11 164.438 249.954 162.422 246.954 162.375ZM311.617 155.625V160.312H281.805V145.5H287.758V155.625H311.617ZM315.977 164.906V169.594H276.93V164.906H315.977ZM311.899 180.938V185.719H281.43V173.062H287.43V180.938H311.899ZM347.1 148.359C347.053 153.797 350.053 158.672 356.99 160.734L353.803 165.375C349.209 163.922 346.022 161.039 344.194 157.312C342.295 161.578 338.85 164.953 333.787 166.594L330.74 161.812C337.912 159.609 341.053 154.172 341.1 148.5V145.641H347.1V148.359ZM365.287 144V152.484H371.053V157.312H365.287V166.641H359.287V144H365.287ZM348.834 168.375V179.203H340.678V181.875C344.264 181.875 346.631 181.711 349.49 181.172L350.006 185.625C346.256 186.375 343.209 186.469 337.397 186.422H334.819V175.031H343.069V172.734H334.772V168.375H348.834ZM365.287 168.375V186.422H351.084V168.375H365.287ZM356.24 172.734V182.109H360.131V172.734H356.24Z" fill="#40424D"/>
</svg>
