<svg width="414" height="115" viewBox="0 0 414 115" fill="none" xmlns="http://www.w3.org/2000/svg">
<path d="M48.3387 11.625C48.2918 18.1406 51.7606 25.6406 58.7918 28.875L55.4637 33.5625C50.7059 31.3828 47.3075 27.0234 45.4325 21.8906C43.5106 27.5391 40.0184 32.3203 35.0731 34.6406L31.6043 29.9062C38.7293 26.5781 42.2918 18.6562 42.3387 11.625V9H33.2918V4.125H56.9168V9H48.3387V11.625ZM66.245 0V16.2656H72.5262V21.2812H66.245V42.6562H60.245V0H66.245ZM114.033 23.7188V28.5469H104.892V42.6562H98.7987V28.5469H90.08V42.6562H83.9393V28.5469H74.9862V23.7188H114.033ZM94.3925 1.40625C103.533 1.40625 109.955 5.20312 109.955 11.0625C109.955 16.8281 103.533 20.4375 94.3925 20.4375C85.2518 20.4375 78.8768 16.8281 78.9237 11.0625C78.8768 5.20312 85.2518 1.40625 94.3925 1.40625ZM94.3925 6.1875C88.6737 6.1875 85.0175 7.92188 85.0643 11.0625C85.0175 14.0625 88.6737 15.75 94.3925 15.75C100.158 15.75 103.767 14.0625 103.767 11.0625C103.767 7.92188 100.158 6.1875 94.3925 6.1875ZM156.477 21.1875V25.9219H117.431V21.1875H133.977V18.6094H122.306V7.40625H145.743V5.20312H122.212V0.609375H151.743V11.6719H128.259V14.0625H152.54V18.6094H139.931V21.1875H156.477ZM128.306 27.4688V30.2812H145.977V27.4688H151.884V42.1875H122.352V27.4688H128.306ZM128.306 37.5938H145.977V34.7344H128.306V37.5938ZM196.906 0V42.6562H191.281V0H196.906ZM187.812 0.9375V40.7812H182.234V21.1875H175.25C172.812 26.0625 168.852 30.2812 162.781 33.7969L159.406 29.5781C168.008 24.4688 171.805 18.2578 172.625 9.89062H161.75V5.0625H178.578C178.555 9.11719 178.133 12.9375 177.125 16.4531H182.234V0.9375H187.812ZM250.107 0V42.75H244.061V0H250.107ZM226.951 3C233.373 3 238.154 8.90625 238.154 18.1875C238.154 27.5625 233.373 33.4219 226.951 33.4219C220.389 33.4219 215.607 27.5625 215.654 18.1875C215.607 8.90625 220.389 3 226.951 3ZM226.951 8.39062C223.623 8.39062 221.42 11.8594 221.42 18.1875C221.42 24.5625 223.623 27.9844 226.951 27.9844C230.186 27.9844 232.389 24.5625 232.389 18.1875C232.389 11.8594 230.186 8.39062 226.951 8.39062ZM295.833 20.1562V24.8438H256.833V20.1562H273.427V16.5H261.567V1.875H291.146V6.51562H267.521V11.8125H291.38V16.5H279.286V20.1562H295.833ZM276.239 27C285.474 27 291.052 29.8125 291.099 34.875C291.052 39.8438 285.474 42.7031 276.239 42.7031C266.911 42.7031 261.286 39.8438 261.286 34.875C261.286 29.8125 266.911 27 276.239 27ZM276.239 31.5469C270.333 31.5469 267.333 32.6719 267.38 34.875C267.333 37.125 270.333 38.1562 276.239 38.1562C282.005 38.1562 285.052 37.125 285.099 34.875C285.052 32.6719 282.005 31.5469 276.239 31.5469ZM332.934 0V16.6875H339.215V21.6094H332.934V42.6562H327.027V0H332.934ZM324.121 6.375V11.1562H299.043V6.375H308.699V0.65625H314.699V6.375H324.121ZM311.699 13.5469C317.934 13.5469 322.574 17.7656 322.574 23.7188C322.574 29.6719 317.934 33.8906 311.699 33.8906C305.418 33.8906 300.777 29.6719 300.777 23.7188C300.777 17.7656 305.418 13.5469 311.699 13.5469ZM311.699 18.375C308.699 18.4219 306.496 20.4375 306.496 23.7188C306.496 27.0469 308.699 29.0156 311.699 28.9688C314.699 29.0156 316.856 27.0469 316.856 23.7188C316.856 20.4375 314.699 18.4219 311.699 18.375ZM363.753 3.79688V9.65625H371.816V0H377.722V42.75H371.816V25.9688H363.753V32.25H343.316V3.79688H363.753ZM349.269 8.4375V27.6094H357.894V8.4375H349.269ZM363.753 21.2344H371.816V14.4844H363.753V21.2344ZM11.4846 73.2656C17.9534 73.2656 22.8753 77.2969 22.8753 83.0156C22.8753 88.6406 17.9534 92.7188 11.4846 92.7188C4.87527 92.7188 0.000274658 88.6406 0.000274658 83.0156C0.000274658 77.2969 4.87527 73.2656 11.4846 73.2656ZM11.4846 78.1406C8.2034 78.1406 5.7659 79.9219 5.81277 83.0156C5.7659 86.0625 8.2034 87.8906 11.4846 87.8906C14.719 87.8906 17.1096 86.0625 17.1096 83.0156C17.1096 79.9219 14.719 78.1406 11.4846 78.1406ZM35.0628 72V93.375H29.0628V72H35.0628ZM35.0628 95.1562V106.734H12.3753V109.5H36.2346V114.188H6.5159V102.375H29.1096V99.75H6.42215V95.1562H35.0628ZM65.7884 76.2656V79.6875C65.7415 83.7188 65.7415 88.9688 64.6165 96.0469L58.7103 95.5781C59.6712 89.3906 59.765 84.8203 59.8353 81.0469H43.6634V76.2656H65.7884ZM55.1478 88.5V100.875C59.3431 100.711 63.6087 100.406 67.5228 99.8906L67.8978 104.344C59.1321 105.844 49.429 105.984 41.9759 105.938L41.4134 101.156C43.804 101.133 46.4759 101.133 49.2415 101.062V88.5H55.1478ZM75.5853 72V89.1562H81.3978V94.125H75.5853V114.656H69.5384V72H75.5853ZM111.912 76.3594C111.865 81.7969 114.865 86.6719 121.802 88.7344L118.615 93.375C114.021 91.9219 110.833 89.0391 109.005 85.3125C107.107 89.5781 103.662 92.9531 98.599 94.5938L95.5521 89.8125C102.724 87.6094 105.865 82.1719 105.912 76.5V73.6406H111.912V76.3594ZM130.099 72V80.4844H135.865V85.3125H130.099V94.6406H124.099V72H130.099ZM113.646 96.375V107.203H105.49V109.875C109.076 109.875 111.443 109.711 114.302 109.172L114.818 113.625C111.068 114.375 108.021 114.469 102.208 114.422H99.6303V103.031H107.88V100.734H99.5834V96.375H113.646ZM130.099 96.375V114.422H115.896V96.375H130.099ZM121.052 100.734V110.109H124.943V100.734H121.052ZM152.528 74.8594C159.278 74.8125 164.34 79.2188 164.34 85.3125C164.34 91.4531 159.278 95.8125 152.528 95.8125C145.778 95.8125 140.668 91.4531 140.668 85.3125C140.668 79.2188 145.778 74.8125 152.528 74.8594ZM152.528 80.0156C149.153 80.0156 146.575 81.9844 146.622 85.3125C146.575 88.6875 149.153 90.6094 152.528 90.6094C155.903 90.6094 158.481 88.6875 158.528 85.3125C158.481 81.9844 155.95 80.0156 152.528 80.0156ZM174.559 72V114.75H168.606V72H174.559ZM138.887 101.156C146.481 101.203 157.028 101.062 166.168 99.7969L166.637 104.109C157.168 105.938 147.043 106.031 139.59 106.031L138.887 101.156ZM205.073 74.2969C208.471 74.2969 211.448 75.5391 213.51 77.625H223.167V72H229.12V96.9844H223.167V91.875H213.463C211.401 93.9375 208.448 95.1797 205.073 95.1562C198.604 95.2031 193.682 90.75 193.729 84.75C193.682 78.6562 198.604 74.2969 205.073 74.2969ZM205.073 79.4062C201.745 79.4062 199.354 81.375 199.401 84.75C199.354 88.0312 201.745 90.1406 205.073 90.0938C208.307 90.1406 210.651 88.0312 210.651 84.75C210.651 81.375 208.307 79.4062 205.073 79.4062ZM214.542 97.875C223.588 97.875 229.213 100.969 229.26 106.266C229.213 111.562 223.588 114.656 214.542 114.656C205.542 114.656 199.87 111.562 199.87 106.266C199.87 100.969 205.542 97.875 214.542 97.875ZM214.542 102.422C208.87 102.422 205.729 103.688 205.729 106.266C205.729 108.75 208.87 110.016 214.542 110.016C220.307 110.016 223.401 108.75 223.401 106.266C223.401 103.688 220.307 102.422 214.542 102.422ZM216.088 82.3594C216.229 83.1094 216.323 83.9297 216.323 84.75C216.323 85.5703 216.229 86.3438 216.088 87.0938H223.167V82.3594H216.088ZM269.455 72V81.3281H275.22V86.25H269.455V95.8594H263.455V72H269.455ZM257.502 74.4844C257.455 85.7812 250.33 93.4219 237.533 96.7969L235.142 92.0625C244.705 89.6953 249.978 84.9609 250.986 79.2656H237.252V74.4844H257.502ZM269.455 97.4531V114.141H241.564V97.4531H269.455ZM247.517 102.281V109.453H263.548V102.281H247.517ZM297.508 72.6094C307.305 72.6094 312.977 75.1875 313.024 79.875C312.977 84.6094 307.305 87.1875 297.508 87.1875C287.665 87.1875 281.946 84.6094 281.946 79.875C281.946 75.1875 287.665 72.6094 297.508 72.6094ZM297.508 76.9688C291.227 76.9688 288.18 78 288.227 79.875C288.18 81.9844 291.227 82.7812 297.508 82.7812C303.837 82.7812 306.837 81.9844 306.837 79.875C306.837 78 303.837 76.9688 297.508 76.9688ZM316.962 89.2031V93.9375H278.055V89.2031H316.962ZM312.227 96.4219V107.297H288.462V109.875H313.352V114.375H282.602V103.125H306.321V100.781H282.555V96.4219H312.227ZM368.757 98.1562V102.938H345.741V109.406H369.319V114.188H339.741V98.1562H368.757ZM368.475 72V96.1875H362.522V86.8594H355.444C354.413 91.6641 349.983 95.0156 344.428 95.0156C337.96 95.0156 333.038 90.6094 333.085 84.6562C333.038 78.5156 337.96 74.1562 344.428 74.1562C349.842 74.1562 354.155 77.2969 355.35 81.9844H362.522V72H368.475ZM344.428 79.1719C341.1 79.1719 338.71 81.1875 338.757 84.6562C338.71 87.8906 341.1 89.9531 344.428 89.9531C347.569 89.9531 350.007 87.8906 350.007 84.6562C350.007 81.1875 347.569 79.1719 344.428 79.1719ZM410.123 75.7031V79.7344C410.123 85.0781 410.123 91.0781 408.388 100.125L402.388 99.5156C404.006 91.4531 404.076 85.4531 404.123 80.4375H378.998V75.7031H410.123ZM413.873 104.578V109.453H374.967V104.578H388.888V89.9062H394.842V104.578H413.873Z" fill="#40424D"/>
</svg>
