<svg width="303" height="115" viewBox="0 0 303 115" fill="none" xmlns="http://www.w3.org/2000/svg">
<path d="M29.3675 10.5938C29.3675 17.9062 31.3832 24.8438 37.3832 28.0312L33.8675 32.7656C30.1644 30.75 27.7738 27.3047 26.3675 23.0625C24.8441 27.7734 22.2894 31.7109 18.4457 34.0312L14.6957 29.6719C21.1175 25.8281 23.5082 18.2344 23.555 11.0156V3.65625H29.3675V10.5938ZM52.4769 0V42.6562H46.7582V21.4219H43.055V40.6875H37.43V0.609375H43.055V16.6406H46.7582V0H52.4769ZM96.9838 33V37.9219H57.9369V33H74.39V26.5781H62.4369V12.2344H86.5775V7.54688H62.39V2.76562H92.4838V16.9219H68.4369V21.7031H93.4682V26.5781H80.3432V33H96.9838ZM139.381 20.7656V25.5469H123.209V32.9531H117.163V25.5469H100.334V20.7656H139.381ZM135.069 37.0781V41.9062H104.975V29.1562H111.022V37.0781H135.069ZM119.834 0.796875C129.069 0.84375 135.209 4.26562 135.256 9.65625C135.209 15.0938 129.069 18.4688 119.834 18.4688C110.553 18.4688 104.366 15.0938 104.366 9.65625C104.366 4.26562 110.553 0.84375 119.834 0.796875ZM119.834 5.53125C114.303 5.53125 110.788 6.9375 110.834 9.65625C110.788 12.2812 114.303 13.6875 119.834 13.6875C125.319 13.6875 128.834 12.2812 128.834 9.65625C128.834 6.9375 125.319 5.53125 119.834 5.53125ZM171.395 11.625C171.395 18.5156 174.911 25.875 182.083 28.875L178.848 33.5625C173.809 31.4297 170.34 27.1875 168.442 21.9844C166.497 27.6328 162.958 32.3203 157.942 34.6406L154.52 29.9062C161.598 26.7656 165.254 18.8438 165.254 11.625V9H156.208V4.125H180.301V9H171.395V11.625ZM190.567 0V42.6562H184.52V0H190.567ZM213.652 6.04688C213.605 11.3906 216.652 16.5469 223.683 18.6562L220.683 23.3438C215.832 21.7969 212.48 18.7734 210.558 14.8594C208.636 19.0781 205.168 22.3828 200.152 24L197.152 19.3125C204.277 17.0156 207.418 11.4844 207.418 6.04688V1.96875H213.652V6.04688ZM233.011 27.2812V42.6562H227.011V32.0625H203.668V27.2812H233.011ZM233.011 0V25.4531H227.011V0H233.011ZM263.737 4.26562V7.6875C263.69 11.7188 263.69 16.9688 262.565 24.0469L256.659 23.5781C257.62 17.3906 257.713 12.8203 257.784 9.04688H241.612V4.26562H263.737ZM253.096 16.5V28.875C257.292 28.7109 261.557 28.4062 265.471 27.8906L265.846 32.3438C257.081 33.8438 247.378 33.9844 239.924 33.9375L239.362 29.1562C241.753 29.1328 244.424 29.1328 247.19 29.0625V16.5H253.096ZM273.534 0V17.1562H279.346V22.125H273.534V42.6562H267.487V0H273.534ZM36.2347 72V97.3125H30.2816V87.2344H23.6254V82.4062H30.2816V72H36.2347ZM21.6566 98.25C30.7504 98.2969 36.3285 101.297 36.3754 106.5C36.3285 111.656 30.7504 114.703 21.6566 114.703C12.5629 114.703 6.98473 111.656 6.98473 106.5C6.98473 101.297 12.5629 98.2969 21.6566 98.25ZM21.6566 102.844C15.9847 102.844 12.9379 104.016 12.9379 106.5C12.9379 108.938 15.9847 110.156 21.6566 110.156C27.3285 110.156 30.4222 108.938 30.4222 106.5C30.4222 104.016 27.3285 102.844 21.6566 102.844ZM24.891 74.5781V79.3594H16.4066C16.5472 84.3281 19.5472 89.3438 26.2035 91.5469L23.2504 96.2344C18.5394 94.7109 15.305 91.6172 13.4535 87.75C11.555 92.1094 8.1566 95.625 3.0941 97.3594L0.000350952 92.625C7.00816 90.2812 10.1488 84.7031 10.3129 79.3594H1.73473V74.5781H24.891ZM81.7729 104.812V109.688H42.726V104.812H59.1791V96.9375H46.851V74.7188H52.851V81.3281H71.4604V74.7188H77.4135V96.9375H65.1322V104.812H81.7729ZM52.851 92.1562H71.4604V86.1094H52.851V92.1562ZM124.17 91.125V95.5781H85.1235V91.125H124.17ZM119.483 97.6875V107.766H95.5766V110.203H120.748V114.281H89.6235V103.969H113.577V101.812H89.5766V97.6875H119.483ZM119.436 72.75V82.7812H95.9516V85.0781H120.186V89.1094H89.9985V78.9844H113.436V76.8281H89.9047V72.75H119.436ZM161.387 74.3906V79.2188H147.278V82.5469H160.497V87.2812H147.278V90.75C154.215 90.75 158.668 90.5391 163.684 89.5781L164.34 94.3125C158.575 95.2969 153.418 95.4844 144.793 95.4375H141.231V74.3906H161.387ZM173.481 98.8125V114.188H145.59V98.8125H173.481ZM151.497 103.453V109.406H167.575V103.453H151.497ZM173.481 72V81.9844H179.247V86.9062H173.481V96.9375H167.481V72H173.481ZM195.722 79.4062C195.722 84.1406 198.066 88.7812 203.738 91.0312L200.503 95.625C196.918 94.1719 194.41 91.5469 192.91 88.3125C191.316 92.0156 188.644 95.0859 184.66 96.75L181.472 92.1094C187.472 89.5312 189.91 84.2344 189.91 79.4062V74.4844H195.722V79.4062ZM218.738 72.0469V97.875H213.066V87.2812H209.503V97.6406H203.925V72.7031H209.503V82.4062H213.066V72.0469H218.738ZM218.738 99.75V114.656H212.785V104.531H189.253V99.75H218.738ZM258.182 72V88.6875H264.463V93.6094H258.182V114.656H252.276V72H258.182ZM249.37 78.375V83.1562H224.292V78.375H233.948V72.6562H239.948V78.375H249.37ZM236.948 85.5469C243.182 85.5469 247.823 89.7656 247.823 95.7188C247.823 101.672 243.182 105.891 236.948 105.891C230.667 105.891 226.026 101.672 226.026 95.7188C226.026 89.7656 230.667 85.5469 236.948 85.5469ZM236.948 90.375C233.948 90.4219 231.745 92.4375 231.745 95.7188C231.745 99.0469 233.948 101.016 236.948 100.969C239.948 101.016 242.104 99.0469 242.104 95.7188C242.104 92.4375 239.948 90.4219 236.948 90.375ZM289.002 75.7969V81.6562H297.064V72H302.97V114.75H297.064V97.9688H289.002V104.25H268.564V75.7969H289.002ZM274.517 80.4375V99.6094H283.142V80.4375H274.517ZM289.002 93.2344H297.064V86.4844H289.002V93.2344Z" fill="#40424D"/>
</svg>
