<svg width="464" height="790" viewBox="0 0 464 790" fill="none" xmlns="http://www.w3.org/2000/svg">
<rect width="97" height="54" rx="27" fill="white"/>
<path d="M27.3777 34H24.6629L29.6434 19.8594H32.7684L37.7684 34H35.0535L33.8816 30.5039H28.5496L27.3777 34ZM29.2332 28.4531H33.198L31.2645 22.75H31.1473L29.2332 28.4531ZM44.9652 23.3945V25.3086H42.7777V34H40.2777V25.3086H38.6957V23.3945H40.2777V22.3789C40.2777 20.3086 41.5668 19.1953 43.598 19.1953C44.184 19.1953 44.7113 19.2539 45.1801 19.3516V21.3242C44.7699 21.2656 44.4574 21.2461 44.2816 21.2461C43.266 21.2461 42.7777 21.6562 42.7777 22.6133V23.3945H44.9652ZM52.4355 23.3945V25.3086H50.3457V30.8164C50.3457 31.832 50.8535 32.0469 51.4785 32.0469C51.7715 32.0469 52.2598 32.0273 52.5723 32.0078V34.0391C52.2793 34.0977 51.791 34.1367 51.166 34.1367C49.291 34.1367 47.8457 33.2188 47.8652 31.2266V25.3086H46.3418V23.3945H47.8652V20.8555H50.3457V23.3945H52.4355ZM59.3395 34.2148C56.1363 34.2148 54.1832 32.0859 54.1832 28.7656C54.1832 25.4844 56.1754 23.2578 59.2027 23.2578C61.8004 23.2578 64.0465 24.8789 64.0465 28.6094V29.3906H56.6441C56.6734 31.1973 57.7379 32.2617 59.359 32.2617C60.4527 32.2617 61.1949 31.793 61.5074 31.168H63.9488C63.4996 33.0039 61.8004 34.2148 59.3395 34.2148ZM56.6637 27.6914H61.6637C61.6441 26.2461 60.6871 25.1914 59.2418 25.1914C57.7379 25.1914 56.7418 26.334 56.6637 27.6914ZM66.3801 34V23.3945H68.802V25.1523H68.9191C69.2902 23.9414 70.3254 23.2383 71.5363 23.2383C71.8098 23.2383 72.2004 23.2578 72.4348 23.2969V25.6016C72.2199 25.5234 71.6926 25.4453 71.2824 25.4453C69.8957 25.4453 68.8801 26.4023 68.8801 27.75V34H66.3801Z" fill="#56AFDF"/>
<path d="M29.2578 742.047V752.242H34.0625V756.383H29.2578V767.945H24.2578V742.047H29.2578ZM30.5469 772.984V776.969H6.21094V765.211H11.1719V772.984H30.5469ZM11.0547 744.352C16.4844 744.352 20.7422 748.102 20.7422 753.375C20.7422 758.57 16.4844 762.398 11.0547 762.398C5.58594 762.398 1.28906 758.57 1.28906 753.375C1.28906 748.102 5.58594 744.352 11.0547 744.352ZM11.0547 748.688C8.35938 748.648 6.17188 750.406 6.21094 753.375C6.17188 756.266 8.35938 758.062 11.0547 758.062C13.7891 758.062 15.8594 756.266 15.8984 753.375C15.8594 750.406 13.7891 748.648 11.0547 748.688ZM66.3859 742.047V763.141H61.425V754.742H55.8781V750.719H61.425V742.047H66.3859ZM54.2375 763.922C61.8156 763.961 66.4641 766.461 66.5031 770.797C66.4641 775.094 61.8156 777.633 54.2375 777.633C46.6594 777.633 42.0109 775.094 42.0109 770.797C42.0109 766.461 46.6594 763.961 54.2375 763.922ZM54.2375 767.75C49.5109 767.75 46.9719 768.727 46.9719 770.797C46.9719 772.828 49.5109 773.844 54.2375 773.844C58.9641 773.844 61.5422 772.828 61.5422 770.797C61.5422 768.727 58.9641 767.75 54.2375 767.75ZM56.9328 744.195V748.18H49.8625C49.9797 752.32 52.4797 756.5 58.0266 758.336L55.5656 762.242C51.6398 760.973 48.9445 758.395 47.4016 755.172C45.8195 758.805 42.9875 761.734 38.7687 763.18L36.1906 759.234C42.0305 757.281 44.6477 752.633 44.7844 748.18H37.6359V744.195H56.9328ZM91.7953 745.602V748.453C91.7562 751.812 91.7562 756.188 90.8187 762.086L85.8969 761.695C86.6977 756.539 86.7758 752.73 86.8344 749.586H73.3578V745.602H91.7953ZM82.9281 755.797V766.109C86.4242 765.973 89.9789 765.719 93.2406 765.289L93.5531 769C86.2484 770.25 78.1625 770.367 71.9516 770.328L71.4828 766.344C73.475 766.324 75.7016 766.324 78.0062 766.266V755.797H82.9281ZM99.9594 742.047V756.344H104.803V760.484H99.9594V777.594H94.9203V742.047H99.9594ZM137.028 744.391V748.375H134.098V757.867C135.29 757.77 136.462 757.652 137.575 757.516L137.77 761.188C131.091 762.32 123.317 762.438 117.692 762.438L117.184 758.414L120.973 758.375V748.375H118.083V744.391H137.028ZM147.145 742.047V763.766H142.184V758.453H137.809V754.469H142.184V751.734H137.809V747.828H142.184V742.047H147.145ZM134.997 764.312C142.653 764.352 147.223 766.734 147.262 770.992C147.223 775.133 142.653 777.594 134.997 777.594C127.38 777.594 122.77 775.133 122.77 770.992C122.77 766.734 127.38 764.352 134.997 764.312ZM134.997 768.141C130.231 768.141 127.731 769.039 127.731 770.992C127.731 772.867 130.231 773.805 134.997 773.805C139.762 773.805 142.302 772.867 142.302 770.992C142.302 769.039 139.762 768.141 134.997 768.141ZM125.778 758.258L129.333 758.141V748.375H125.778V758.258ZM180.992 742.047V756.5H185.641V760.641H180.992V777.594H175.953V742.047H180.992ZM152.125 767.555C154.723 767.555 157.75 767.555 160.914 767.477V764.43C157.125 763.688 154.664 761.285 154.703 757.984C154.664 754 158.258 751.305 163.453 751.305C168.531 751.305 172.164 754 172.203 757.984C172.164 761.285 169.664 763.707 165.914 764.43V767.281C168.727 767.145 171.559 766.91 174.195 766.539L174.508 770.172C166.93 771.578 158.805 771.617 152.789 771.617L152.125 767.555ZM173.922 745.992V749.898H152.828V745.992H160.914V742.242H165.914V745.992H173.922ZM163.453 755.094C161.031 755.094 159.391 756.148 159.43 757.984C159.391 759.859 161.031 760.875 163.453 760.875C165.797 760.875 167.398 759.859 167.398 757.984C167.398 756.148 165.797 755.094 163.453 755.094ZM220.425 757.984V761.695H187.886V757.984H220.425ZM216.519 763.453V771.852H196.597V773.883H217.573V777.281H191.636V768.688H211.597V766.891H191.597V763.453H216.519ZM216.48 742.672V751.031H196.909V752.945H217.105V756.305H191.948V747.867H211.48V746.07H191.87V742.672H216.48ZM253.587 745.484V749.43H246.4C246.478 752.926 249.056 756.52 254.72 757.945L252.533 761.773C248.431 760.738 245.58 758.512 243.978 755.68C242.396 758.805 239.545 761.285 235.384 762.438L233.041 758.492C238.705 757.027 241.361 753.277 241.439 749.43H234.291V745.484H241.439V741.891H246.478V745.484H253.587ZM261.517 742.047V750.016H266.322V754.117H261.517V762.32H256.517V742.047H261.517ZM261.947 763.844V767.75H252.923C253.822 770.367 257.318 772.906 263.509 773.727L261.752 777.516C256.029 776.754 252.005 774.469 249.955 771.422C247.923 774.449 243.92 776.676 238.275 777.438L236.478 773.648C242.728 772.887 246.185 770.426 247.103 767.75H238.002V763.844H261.947ZM301.106 760.211V764.195H268.684V760.211H301.106ZM297.434 772.984V776.969H272.591V766.578H277.591V772.984H297.434ZM284.895 743.141C292.669 743.102 297.786 745.875 297.825 750.406C297.786 754.938 292.669 757.75 284.895 757.75C277.044 757.75 271.927 754.938 271.927 750.406C271.927 745.875 277.044 743.102 284.895 743.141ZM284.895 747.047C279.973 747.086 277.083 748.258 277.122 750.406C277.083 752.633 279.973 753.727 284.895 753.727C289.817 753.727 292.669 752.633 292.669 750.406C292.669 748.258 289.817 747.086 284.895 747.047ZM346.612 769.547V773.648H314.073V769.547H327.784V764.195H317.823V752.242H337.941V748.336H317.784V744.352H342.862V756.148H322.823V760.133H343.683V764.195H332.745V769.547H346.612ZM368.077 743.57C368.077 753.18 363.311 758.766 351.866 761.461L350.108 757.672C355.03 756.598 358.213 755.016 360.186 753.023L350.967 753.688L350.264 749.977L362.334 749.547C362.569 748.883 362.725 748.18 362.803 747.438H352.061V743.57H368.077ZM379.405 742.047V760.055H374.444V753.727H368.155V749.664H374.444V742.047H379.405ZM379.405 761.383V770.992H360.733V773.297H380.186V777.203H355.811V767.398H374.483V765.211H355.772V761.383H379.405ZM406.2 748.375C406.2 752.203 408.192 756.031 412.919 757.828L410.263 761.617C407.235 760.465 405.145 758.355 403.856 755.719C402.567 758.805 400.341 761.383 397.02 762.75L394.325 758.922C399.325 756.734 401.356 752.359 401.356 748.375V744.195H406.2V748.375ZM425.38 742.086V763.805H420.653V754.781H417.684V762.711H413.036V742.711H417.684V750.758H420.653V742.086H425.38ZM413.231 764.312C420.731 764.312 425.536 766.812 425.575 770.953C425.536 775.094 420.731 777.594 413.231 777.594C405.692 777.594 400.927 775.094 400.927 770.953C400.927 766.812 405.692 764.312 413.231 764.312ZM413.231 768.023C408.583 768.023 405.888 769.039 405.927 770.953C405.888 772.867 408.583 773.844 413.231 773.844C417.841 773.844 420.536 772.867 420.536 770.953C420.536 769.039 417.841 768.023 413.231 768.023ZM458.641 742.047V750.445H463.172V754.586H458.641V762.984H453.641V742.047H458.641ZM458.641 764.234V772.203H439.578V774.039H459.812V777.359H434.578V769.195H453.641V767.555H434.539V764.234H458.641ZM429.812 759.156C432.41 759.176 435.359 759.176 438.445 759.078V757.516C434.559 757.066 432.156 755.445 432.195 752.906C432.156 750.016 435.594 748.336 440.906 748.336C446.18 748.336 449.578 750.016 449.617 752.906C449.578 755.445 447.234 757.047 443.406 757.516V758.922C446.316 758.785 449.246 758.551 452 758.18L452.352 761.266C444.773 762.555 436.531 762.594 430.32 762.594L429.812 759.156ZM451.102 744.273V747.594H430.75V744.273H438.445V741.734H443.406V744.273H451.102ZM440.906 751.422C438.367 751.422 436.922 751.891 436.961 752.906C436.922 753.961 438.367 754.508 440.906 754.547C443.406 754.508 444.812 753.961 444.852 752.906C444.812 751.891 443.406 751.422 440.906 751.422Z" fill="white"/>
</svg>
