<svg width="923" height="154" viewBox="0 0 923 154" fill="none" xmlns="http://www.w3.org/2000/svg">
<rect width="236" height="54" rx="27" fill="#56AFDF"/>
<path d="M25.5469 34V19.8594H30.957C34.0234 19.8594 35.5469 21.4219 35.5469 23.5312C35.5469 25.25 34.4531 26.207 33.0664 26.5391V26.6758C34.5703 26.7539 36.0938 28.0039 36.0938 30.1523C36.0938 32.3594 34.5117 34 31.2695 34H25.5469ZM30.8789 31.8711C32.7344 31.8711 33.5156 31.0703 33.5156 29.957C33.5156 28.6875 32.5195 27.7109 30.9375 27.7109H28.0859V31.8711H30.8789ZM30.6445 25.875C31.9922 25.875 33.0078 25.0938 33.0078 23.8438C33.0078 22.75 32.2266 21.9688 30.7031 21.9688H28.0859V25.875H30.6445ZM37.9586 31.0117C37.9586 28.6289 39.9312 27.9258 41.9039 27.8086C42.6363 27.7598 44.1598 27.6719 44.6187 27.6523V26.8125C44.6187 25.7578 43.9352 25.1523 42.7047 25.1523C41.5914 25.1523 40.9078 25.6602 40.7125 26.4219H38.3102C38.4859 24.625 40.107 23.2578 42.7633 23.2578C44.775 23.2578 47.0992 24.0781 47.0992 26.9102V34H44.7164V32.5352H44.6383C44.1695 33.4336 43.1734 34.2148 41.5133 34.2148C39.482 34.2148 37.9586 33.1016 37.9586 31.0117ZM40.3609 30.9922C40.3609 31.9102 41.1031 32.3789 42.1578 32.3789C43.6617 32.3789 44.6383 31.3828 44.6383 30.1914V29.3125L42.2945 29.4688C41.1031 29.5664 40.3609 30.0547 40.3609 30.9922ZM54.4719 34.2148C51.3078 34.2148 49.3937 31.9492 49.3937 28.7461C49.3937 25.5039 51.3664 23.2578 54.4719 23.2578C57.05 23.2578 58.8469 24.7617 59.0227 27.0469H56.6398C56.4445 26.0312 55.7023 25.25 54.4914 25.25C52.9484 25.25 51.9133 26.5586 51.9133 28.6875C51.9133 30.875 52.9289 32.1836 54.4914 32.1836C55.6047 32.1836 56.425 31.5391 56.6398 30.3867H59.0227C58.8273 32.6328 57.1281 34.2148 54.4719 34.2148ZM61.2977 34V19.8594H63.7977V27.6523H63.9734L67.782 23.3945H70.6922L66.5906 27.9648L70.9461 34H67.9773L64.7156 29.4492L63.7977 30.4258V34H61.2977ZM76.7562 38.1992C73.9437 38.1992 72.1664 36.9492 71.9906 34.957H74.4711C74.6469 35.875 75.5258 36.3242 76.7953 36.3242C78.2797 36.3242 79.2562 35.6797 79.2562 34.1172V32.0859H79.1391C78.7484 32.8672 77.9086 33.8438 76.0727 33.8438C73.6312 33.8438 71.6977 32.0664 71.6977 28.6094C71.6977 25.1133 73.6312 23.2578 76.0922 23.2578C77.9672 23.2578 78.7484 24.3711 79.1391 25.1328H79.2562V23.3945H81.7172V34.1758C81.7172 36.8906 79.6273 38.1992 76.7562 38.1992ZM76.7562 31.8906C78.3578 31.8906 79.2758 30.6797 79.2758 28.6484C79.2758 26.6367 78.3773 25.2891 76.7562 25.2891C75.0961 25.2891 74.2367 26.7148 74.2367 28.6484C74.2367 30.6016 75.1156 31.8906 76.7562 31.8906ZM84.5 34V23.3945H86.9219V25.1523H87.0391C87.4102 23.9414 88.4453 23.2383 89.6562 23.2383C89.9297 23.2383 90.3203 23.2578 90.5547 23.2969V25.6016C90.3398 25.5234 89.8125 25.4453 89.4023 25.4453C88.0156 25.4453 87 26.4023 87 27.75V34H84.5ZM96.7164 34.2148C93.6305 34.2148 91.6383 32.0273 91.6383 28.7461C91.6383 25.4453 93.6305 23.2578 96.7164 23.2578C99.8219 23.2578 101.795 25.4453 101.795 28.7461C101.795 32.0273 99.8219 34.2148 96.7164 34.2148ZM96.7359 32.2227C98.4352 32.2227 99.275 30.6797 99.275 28.7266C99.275 26.793 98.4352 25.2305 96.7359 25.2305C94.9977 25.2305 94.1578 26.793 94.1578 28.7266C94.1578 30.6797 94.9977 32.2227 96.7359 32.2227ZM110.905 29.5469V23.3945H113.386V34H110.984V32.125H110.866C110.378 33.2969 109.265 34.1367 107.683 34.1367C105.593 34.1367 104.148 32.6914 104.128 30.1523V23.3945H106.628V29.7617C106.628 31.1094 107.429 31.9688 108.64 31.9688C109.734 31.9688 110.905 31.168 110.905 29.5469ZM118.669 27.7891V34H116.169V23.3945H118.552V25.1914H118.688C119.177 24 120.251 23.2578 121.833 23.2578C124.04 23.2578 125.485 24.7031 125.466 27.2422V34H122.985V27.6328C122.985 26.207 122.223 25.3672 120.915 25.3672C119.587 25.3672 118.669 26.2461 118.669 27.7891ZM132.194 34.1953C129.694 34.1953 127.819 32.2031 127.819 28.707C127.819 25.1719 129.752 23.2578 132.213 23.2578C134.088 23.2578 134.87 24.3711 135.241 25.1328H135.338V19.8594H137.819V34H135.377V32.3203H135.241C134.85 33.1016 134.03 34.1953 132.194 34.1953ZM132.877 32.1445C134.479 32.1445 135.397 30.7578 135.397 28.6875C135.397 26.6367 134.498 25.2891 132.877 25.2891C131.217 25.2891 130.358 26.7148 130.358 28.6875C130.358 30.6992 131.237 32.1445 132.877 32.1445ZM152.31 27.0859V29.1367H145.943V27.0859H152.31ZM174.477 18.082V28.5703H172.309V24.2539H169.302V22.4766H172.309V18.082H174.477ZM168.501 29.0195C172.251 29.0195 174.536 30.25 174.536 32.3789C174.536 34.5078 172.251 35.7383 168.501 35.7383C164.77 35.7383 162.485 34.5078 162.505 32.3789C162.485 30.25 164.77 29.0195 168.501 29.0195ZM168.501 30.6797C166.04 30.6797 164.653 31.2656 164.653 32.3789C164.653 33.4727 166.04 34.0586 168.501 34.0586C170.962 34.0586 172.368 33.4727 172.368 32.3789C172.368 31.2656 170.962 30.6797 168.501 30.6797ZM166.177 21.1094C166.177 23.2578 167.602 25.4258 170.337 26.3438L169.243 28.0625C167.28 27.3984 165.884 26.0508 165.122 24.3906C164.341 26.2754 162.866 27.7793 160.766 28.5312L159.634 26.8125C162.466 25.8359 163.97 23.4531 163.97 21.1289V20.9922H160.298V19.2344H169.829V20.9922H166.177V21.1094ZM193.784 20.6016V22.3984H191.303V24.3125H193.784V26.1289H191.303V28.7656H189.135V18.1016H191.303V20.6016H193.784ZM186.108 19.1758V24.2539H180.229V26.1094C183.227 26.0898 185.278 25.9824 187.69 25.582L187.924 27.3203C185.288 27.7891 183.002 27.9062 179.506 27.8867H178.061V22.6133H183.979V20.8945H178.041V19.1758H186.108ZM185.541 29.0977C189.174 29.1172 191.459 30.3477 191.479 32.4375C191.459 34.5078 189.174 35.6992 185.541 35.6992C181.83 35.6992 179.565 34.5078 179.565 32.4375C179.565 30.3477 181.83 29.1172 185.541 29.0977ZM185.541 30.7969C183.08 30.7969 181.674 31.3828 181.694 32.4375C181.674 33.4922 183.08 34.0586 185.541 34.0586C187.983 34.0586 189.33 33.4922 189.33 32.4375C189.33 31.3828 187.983 30.7969 185.541 30.7969ZM201.547 21.1094C201.547 23.2578 202.973 25.4258 205.707 26.3438L204.613 28.0234C202.641 27.3789 201.244 26.041 200.473 24.3906C199.701 26.2363 198.227 27.7207 196.137 28.4141L195.023 26.6953C197.836 25.7773 199.34 23.4336 199.34 21.1289V20.8945H195.668V19.1562H205.199V20.8945H201.547V21.1094ZM209.848 29.4492V35.7383H207.68V31.1875H197.816V29.4492H209.848ZM209.848 18.082V28.6094H207.68V24.2344H204.672V22.457H207.68V18.082H209.848Z" fill="white"/>
<path d="M30.8203 106.086V131.633H25.8203V106.086H30.8203ZM31.7578 136.984V140.969H6.99219V129.055H12.0312V136.984H31.7578ZM11.3281 108.352C16.7969 108.352 21.0547 112.102 21.0547 117.297C21.0547 122.609 16.7969 126.32 11.3281 126.32C5.85938 126.32 1.60156 122.609 1.60156 117.297C1.60156 112.102 5.85938 108.352 11.3281 108.352ZM11.3281 112.688C8.55469 112.648 6.44531 114.406 6.48438 117.297C6.44531 120.266 8.55469 121.984 11.3281 121.984C14.0234 121.984 16.1328 120.266 16.1328 117.297C16.1328 114.406 14.0234 112.648 11.3281 112.688ZM65.0578 108.117V111.32C65.0578 114.641 65.0578 118.273 64.1594 123.234H68.8469V127.258H54.9797V141.633H49.9797V127.258H36.425V123.234H59.1203C60.0187 118.645 60.0969 115.168 60.0969 112.102H40.1359V108.117H65.0578ZM111.58 106.047V141.672H106.541V106.047H111.58ZM92.2828 108.547C97.6344 108.547 101.619 113.469 101.619 121.203C101.619 129.016 97.6344 133.898 92.2828 133.898C86.8141 133.898 82.8297 129.016 82.8688 121.203C82.8297 113.469 86.8141 108.547 92.2828 108.547ZM92.2828 113.039C89.5094 113.039 87.6734 115.93 87.6734 121.203C87.6734 126.516 89.5094 129.367 92.2828 129.367C94.9781 129.367 96.8141 126.516 96.8141 121.203C96.8141 115.93 94.9781 113.039 92.2828 113.039ZM149.684 122.844V126.75H117.184V122.844H131.012V119.797H121.13V107.609H145.778V111.477H126.091V115.891H145.973V119.797H135.895V122.844H149.684ZM133.356 128.547C141.052 128.547 145.7 130.891 145.739 135.109C145.7 139.25 141.052 141.633 133.356 141.633C125.583 141.633 120.895 139.25 120.895 135.109C120.895 130.891 125.583 128.547 133.356 128.547ZM133.356 132.336C128.434 132.336 125.934 133.273 125.973 135.109C125.934 136.984 128.434 137.844 133.356 137.844C138.161 137.844 140.7 136.984 140.739 135.109C140.7 133.273 138.161 132.336 133.356 132.336ZM181.753 108.195V123.156H164.37V108.195H181.753ZM169.292 112.062V119.25H176.792V112.062H169.292ZM192.3 106.047V126.203H187.339V106.047H192.3ZM192.925 128.156V131.867H182.964C183.511 134.289 187.261 137.082 194.292 137.766L192.613 141.516C186.695 140.969 182.495 138.82 180.347 136.008C178.14 138.859 173.921 140.949 167.964 141.516L166.245 137.766C173.374 137.199 177.124 134.348 177.652 131.867H167.691V128.156H177.808V125.227H182.808V128.156H192.925ZM240.384 125.656V129.641H226.556V141.594H221.634V129.641H207.962V125.656H240.384ZM237.494 107.922V111.828H227.142C227.63 115.305 231.556 118.801 238.861 119.68L237.064 123.586C230.814 122.746 226.341 120.07 224.212 116.398C222.025 120.07 217.591 122.746 211.4 123.586L209.564 119.68C216.752 118.801 220.716 115.305 221.283 111.828H210.892V107.922H237.494ZM273.294 106.047V141.594H268.333V123.781H261.262V119.719H268.333V106.047H273.294ZM261.458 109.758C261.458 120.5 257.981 129.25 245.559 135.422L242.981 131.516C251.966 127.082 255.677 121.438 256.458 113.664H244.661V109.758H261.458ZM317.159 106.047V117.727H321.691V121.828H317.159V133.781H312.159V106.047H317.159ZM318.37 136.984V140.969H293.331V131.945H298.331V136.984H318.37ZM288.331 126.477C290.89 126.477 293.859 126.457 296.964 126.359V124.289C293.097 123.762 290.675 121.828 290.714 119.055C290.675 115.539 294.152 113.469 299.425 113.508C304.659 113.469 308.097 115.539 308.136 119.055C308.097 121.809 305.734 123.742 301.925 124.289V126.125C304.855 125.949 307.784 125.676 310.519 125.266L310.87 128.703C303.37 130.148 294.972 130.227 288.839 130.305L288.331 126.477ZM309.62 108.938V112.492H289.269V108.938H296.964V105.93H301.925V108.938H309.62ZM299.425 116.828C296.886 116.828 295.441 117.531 295.48 119.055C295.441 120.383 296.886 121.125 299.425 121.125C301.925 121.125 303.331 120.383 303.37 119.055C303.331 117.531 301.925 116.828 299.425 116.828ZM354.053 106.086V126.555H349.092V123.078H341.084V119.094H349.092V115.695H341.436C339.229 121.32 334.19 125.188 326.358 127.336L324.405 123.391C332.588 121.242 336.592 117.336 337.295 112.453H326.319V108.469H342.725C342.725 109.621 342.647 110.734 342.491 111.789H349.092V106.086H354.053ZM342.217 126.984C349.444 126.984 354.288 129.758 354.327 134.172C354.288 138.625 349.444 141.438 342.217 141.438C334.913 141.438 330.03 138.625 330.069 134.172C330.03 129.758 334.913 126.984 342.217 126.984ZM342.217 130.891C337.725 130.852 335.03 131.984 335.03 134.172C335.03 136.359 337.725 137.492 342.217 137.492C346.631 137.492 349.327 136.359 349.327 134.172C349.327 131.984 346.631 130.852 342.217 130.891ZM399.442 106.086V132.297H394.481V123.625H387.919V126.672H371.005V108.391H376.005V113.859H382.997V108.391H387.919V112.023H394.481V106.086H399.442ZM400.184 136.984V140.969H375.77V129.68H380.809V136.984H400.184ZM376.005 122.766H382.997V117.648H376.005V122.766ZM387.919 119.641H394.481V116.047H387.919V119.641ZM433.289 106.047V120.5H437.938V124.641H433.289V141.594H428.25V106.047H433.289ZM404.422 131.555C407.02 131.555 410.047 131.555 413.211 131.477V128.43C409.422 127.688 406.961 125.285 407 121.984C406.961 118 410.555 115.305 415.75 115.305C420.828 115.305 424.461 118 424.5 121.984C424.461 125.285 421.961 127.707 418.211 128.43V131.281C421.023 131.145 423.855 130.91 426.492 130.539L426.805 134.172C419.227 135.578 411.102 135.617 405.086 135.617L404.422 131.555ZM426.219 109.992V113.898H405.125V109.992H413.211V106.242H418.211V109.992H426.219ZM415.75 119.094C413.328 119.094 411.688 120.148 411.727 121.984C411.688 123.859 413.328 124.875 415.75 124.875C418.094 124.875 419.695 123.859 419.695 121.984C419.695 120.148 418.094 119.094 415.75 119.094Z" fill="#40424D"/>
</svg>
