<svg width="923" height="154" viewBox="0 0 923 154" fill="none" xmlns="http://www.w3.org/2000/svg">
<rect width="236" height="54" rx="27" fill="white"/>
<path d="M25.5469 34V19.8594H30.957C34.0234 19.8594 35.5469 21.4219 35.5469 23.5312C35.5469 25.25 34.4531 26.207 33.0664 26.5391V26.6758C34.5703 26.7539 36.0938 28.0039 36.0938 30.1523C36.0938 32.3594 34.5117 34 31.2695 34H25.5469ZM30.8789 31.8711C32.7344 31.8711 33.5156 31.0703 33.5156 29.957C33.5156 28.6875 32.5195 27.7109 30.9375 27.7109H28.0859V31.8711H30.8789ZM30.6445 25.875C31.9922 25.875 33.0078 25.0938 33.0078 23.8438C33.0078 22.75 32.2266 21.9688 30.7031 21.9688H28.0859V25.875H30.6445ZM37.9586 31.0117C37.9586 28.6289 39.9312 27.9258 41.9039 27.8086C42.6363 27.7598 44.1598 27.6719 44.6187 27.6523V26.8125C44.6187 25.7578 43.9352 25.1523 42.7047 25.1523C41.5914 25.1523 40.9078 25.6602 40.7125 26.4219H38.3102C38.4859 24.625 40.107 23.2578 42.7633 23.2578C44.775 23.2578 47.0992 24.0781 47.0992 26.9102V34H44.7164V32.5352H44.6383C44.1695 33.4336 43.1734 34.2148 41.5133 34.2148C39.482 34.2148 37.9586 33.1016 37.9586 31.0117ZM40.3609 30.9922C40.3609 31.9102 41.1031 32.3789 42.1578 32.3789C43.6617 32.3789 44.6383 31.3828 44.6383 30.1914V29.3125L42.2945 29.4688C41.1031 29.5664 40.3609 30.0547 40.3609 30.9922ZM54.4719 34.2148C51.3078 34.2148 49.3937 31.9492 49.3937 28.7461C49.3937 25.5039 51.3664 23.2578 54.4719 23.2578C57.05 23.2578 58.8469 24.7617 59.0227 27.0469H56.6398C56.4445 26.0312 55.7023 25.25 54.4914 25.25C52.9484 25.25 51.9133 26.5586 51.9133 28.6875C51.9133 30.875 52.9289 32.1836 54.4914 32.1836C55.6047 32.1836 56.425 31.5391 56.6398 30.3867H59.0227C58.8273 32.6328 57.1281 34.2148 54.4719 34.2148ZM61.2977 34V19.8594H63.7977V27.6523H63.9734L67.782 23.3945H70.6922L66.5906 27.9648L70.9461 34H67.9773L64.7156 29.4492L63.7977 30.4258V34H61.2977ZM76.7562 38.1992C73.9437 38.1992 72.1664 36.9492 71.9906 34.957H74.4711C74.6469 35.875 75.5258 36.3242 76.7953 36.3242C78.2797 36.3242 79.2562 35.6797 79.2562 34.1172V32.0859H79.1391C78.7484 32.8672 77.9086 33.8438 76.0727 33.8438C73.6312 33.8438 71.6977 32.0664 71.6977 28.6094C71.6977 25.1133 73.6312 23.2578 76.0922 23.2578C77.9672 23.2578 78.7484 24.3711 79.1391 25.1328H79.2562V23.3945H81.7172V34.1758C81.7172 36.8906 79.6273 38.1992 76.7562 38.1992ZM76.7562 31.8906C78.3578 31.8906 79.2758 30.6797 79.2758 28.6484C79.2758 26.6367 78.3773 25.2891 76.7562 25.2891C75.0961 25.2891 74.2367 26.7148 74.2367 28.6484C74.2367 30.6016 75.1156 31.8906 76.7562 31.8906ZM84.5 34V23.3945H86.9219V25.1523H87.0391C87.4102 23.9414 88.4453 23.2383 89.6562 23.2383C89.9297 23.2383 90.3203 23.2578 90.5547 23.2969V25.6016C90.3398 25.5234 89.8125 25.4453 89.4023 25.4453C88.0156 25.4453 87 26.4023 87 27.75V34H84.5ZM96.7164 34.2148C93.6305 34.2148 91.6383 32.0273 91.6383 28.7461C91.6383 25.4453 93.6305 23.2578 96.7164 23.2578C99.8219 23.2578 101.795 25.4453 101.795 28.7461C101.795 32.0273 99.8219 34.2148 96.7164 34.2148ZM96.7359 32.2227C98.4352 32.2227 99.275 30.6797 99.275 28.7266C99.275 26.793 98.4352 25.2305 96.7359 25.2305C94.9977 25.2305 94.1578 26.793 94.1578 28.7266C94.1578 30.6797 94.9977 32.2227 96.7359 32.2227ZM110.905 29.5469V23.3945H113.386V34H110.984V32.125H110.866C110.378 33.2969 109.265 34.1367 107.683 34.1367C105.593 34.1367 104.148 32.6914 104.128 30.1523V23.3945H106.628V29.7617C106.628 31.1094 107.429 31.9688 108.64 31.9688C109.734 31.9688 110.905 31.168 110.905 29.5469ZM118.669 27.7891V34H116.169V23.3945H118.552V25.1914H118.688C119.177 24 120.251 23.2578 121.833 23.2578C124.04 23.2578 125.485 24.7031 125.466 27.2422V34H122.985V27.6328C122.985 26.207 122.223 25.3672 120.915 25.3672C119.587 25.3672 118.669 26.2461 118.669 27.7891ZM132.194 34.1953C129.694 34.1953 127.819 32.2031 127.819 28.707C127.819 25.1719 129.752 23.2578 132.213 23.2578C134.088 23.2578 134.87 24.3711 135.241 25.1328H135.338V19.8594H137.819V34H135.377V32.3203H135.241C134.85 33.1016 134.03 34.1953 132.194 34.1953ZM132.877 32.1445C134.479 32.1445 135.397 30.7578 135.397 28.6875C135.397 26.6367 134.498 25.2891 132.877 25.2891C131.217 25.2891 130.358 26.7148 130.358 28.6875C130.358 30.6992 131.237 32.1445 132.877 32.1445ZM152.31 27.0859V29.1367H145.943V27.0859H152.31ZM174.477 18.082V28.5703H172.309V24.2539H169.302V22.4766H172.309V18.082H174.477ZM168.501 29.0195C172.251 29.0195 174.536 30.25 174.536 32.3789C174.536 34.5078 172.251 35.7383 168.501 35.7383C164.77 35.7383 162.485 34.5078 162.505 32.3789C162.485 30.25 164.77 29.0195 168.501 29.0195ZM168.501 30.6797C166.04 30.6797 164.653 31.2656 164.653 32.3789C164.653 33.4727 166.04 34.0586 168.501 34.0586C170.962 34.0586 172.368 33.4727 172.368 32.3789C172.368 31.2656 170.962 30.6797 168.501 30.6797ZM166.177 21.1094C166.177 23.2578 167.602 25.4258 170.337 26.3438L169.243 28.0625C167.28 27.3984 165.884 26.0508 165.122 24.3906C164.341 26.2754 162.866 27.7793 160.766 28.5312L159.634 26.8125C162.466 25.8359 163.97 23.4531 163.97 21.1289V20.9922H160.298V19.2344H169.829V20.9922H166.177V21.1094ZM183.842 20.6211C183.823 23.0234 185.229 25.2109 188.002 26.0898L186.83 27.7891C184.907 27.1152 183.559 25.8359 182.807 24.1562C182.026 26.0801 180.551 27.5938 178.413 28.3359L177.26 26.5781C180.19 25.6211 181.655 23.2578 181.655 20.7188V19.0391H183.842V20.6211ZM192.163 18.082V28.4727H189.995V23.2773H186.479V21.5H189.995V18.082H192.163ZM186.186 28.9414C189.936 28.9414 192.221 30.1914 192.221 32.3398C192.221 34.4883 189.936 35.7188 186.186 35.7188C182.455 35.7188 180.17 34.4883 180.19 32.3398C180.17 30.1914 182.455 28.9414 186.186 28.9414ZM186.186 30.6211C183.725 30.6211 182.338 31.2266 182.338 32.3398C182.338 33.4141 183.725 34.0195 186.186 34.0195C188.647 34.0195 190.053 33.4141 190.053 32.3398C190.053 31.2266 188.647 30.6211 186.186 30.6211ZM201.547 21.1094C201.547 23.2578 202.973 25.4258 205.707 26.3438L204.613 28.0234C202.641 27.3789 201.244 26.041 200.473 24.3906C199.701 26.2363 198.227 27.7207 196.137 28.4141L195.023 26.6953C197.836 25.7773 199.34 23.4336 199.34 21.1289V20.8945H195.668V19.1562H205.199V20.8945H201.547V21.1094ZM209.848 29.4492V35.7383H207.68V31.1875H197.816V29.4492H209.848ZM209.848 18.082V28.6094H207.68V24.2344H204.672V22.457H207.68V18.082H209.848Z" fill="#56AFDF"/>
<path d="M12.6172 114.875C12.6172 120.969 14.2969 126.75 19.2969 129.406L16.3672 133.352C13.2812 131.672 11.2891 128.801 10.1172 125.266C8.84766 129.191 6.71875 132.473 3.51562 134.406L0.390625 130.773C5.74219 127.57 7.73438 121.242 7.77344 115.227V109.094H12.6172V114.875ZM31.875 106.047V141.594H27.1094V123.898H24.0234V139.953H19.3359V106.555H24.0234V119.914H27.1094V106.047H31.875ZM68.9641 133.547V137.648H36.425V133.547H50.1359V128.195H40.175V116.242H60.2922V112.336H40.1359V108.352H65.2141V120.148H45.175V124.133H66.0344V128.195H55.0969V133.547H68.9641ZM104.295 123.352V127.336H90.8187V133.508H85.7797V127.336H71.7562V123.352H104.295ZM100.702 136.945V140.969H75.6234V130.344H80.6625V136.945H100.702ZM88.0062 106.711C95.7016 106.75 100.819 109.602 100.858 114.094C100.819 118.625 95.7016 121.438 88.0062 121.438C80.2719 121.438 75.1156 118.625 75.1156 114.094C75.1156 109.602 80.2719 106.75 88.0062 106.711ZM88.0062 110.656C83.3969 110.656 80.4672 111.828 80.5062 114.094C80.4672 116.281 83.3969 117.453 88.0062 117.453C92.5766 117.453 95.5062 116.281 95.5062 114.094C95.5062 111.828 92.5766 110.656 88.0062 110.656ZM145.231 106.047V119.484H150.466V123.586H145.231V141.672H140.309V106.047H145.231ZM135.075 109.016V122.805H123.63V129.25C128.805 129.23 133.083 128.996 137.809 128.195L138.239 132.18C132.809 133.156 127.927 133.391 121.677 133.391H118.669V118.859H130.114V113.039H118.63V109.016H135.075ZM182.32 106.047V141.672H177.281V106.047H182.32ZM163.023 108.547C168.375 108.547 172.359 113.469 172.359 121.203C172.359 129.016 168.375 133.898 163.023 133.898C157.555 133.898 153.57 129.016 153.609 121.203C153.57 113.469 157.555 108.547 163.023 108.547ZM163.023 113.039C160.25 113.039 158.414 115.93 158.414 121.203C158.414 126.516 160.25 129.367 163.023 129.367C165.719 129.367 167.555 126.516 167.555 121.203C167.555 115.93 165.719 113.039 163.023 113.039ZM220.464 133.312V137.453H187.925V133.312H220.464ZM217.73 109.172V113.156H212.73V123.938H217.573V127.844H190.62V123.938H195.386V113.156H190.464V109.172H217.73ZM200.386 123.938H207.808V113.156H200.386V123.938ZM242.006 110.734C242.006 115.93 246.616 121.516 254.663 122.883L252.475 127.023C246.284 125.793 241.674 122.316 239.389 117.727C237.026 122.277 232.416 125.773 226.264 127.023L224.116 122.883C232.006 121.477 236.655 115.891 236.694 110.734V108.156H242.006V110.734ZM255.834 133.117V137.219H223.295V133.117H255.834ZM276.908 108.977V113.039H265.111V118.898H276.4V122.805H265.111V129.523C270.209 129.484 274.349 129.27 279.095 128.508L279.564 132.531C274.134 133.352 269.291 133.508 263.08 133.508H260.072V108.977H276.908ZM286.712 106.047V119.523H291.947V123.703H286.712V141.594H281.712V106.047H286.712ZM304.153 107.102C309.544 107.102 313.645 110.461 313.645 115.227C313.645 119.914 309.544 123.312 304.153 123.312C298.645 123.312 294.583 119.914 294.583 115.227C294.583 110.461 298.645 107.102 304.153 107.102ZM304.153 111.164C301.419 111.164 299.388 112.648 299.427 115.227C299.388 117.766 301.419 119.289 304.153 119.289C306.848 119.289 308.841 117.766 308.841 115.227C308.841 112.648 306.848 111.164 304.153 111.164ZM323.802 106.047V123.859H318.802V106.047H323.802ZM323.802 125.344V134.992H304.895V137.297H324.778V141.203H300.013V131.359H318.841V129.172H299.934V125.344H323.802ZM360.227 106.047V141.594H355.461V106.047H360.227ZM352.805 106.555V139.953H348.117V123.156H345.266C344.797 130.148 341.828 134.367 337.453 134.367C332.766 134.367 329.719 129.445 329.719 121.438C329.719 113.469 332.766 108.586 337.453 108.586C341.73 108.586 344.66 112.57 345.227 119.211H348.117V106.555H352.805ZM337.453 113.273C335.461 113.273 334.289 116.008 334.328 121.438C334.289 126.906 335.461 129.602 337.453 129.562C339.484 129.602 340.695 126.906 340.695 121.438C340.695 116.008 339.484 113.273 337.453 113.273ZM405.538 106.047V141.594H400.811V123.742H397.373V139.875H392.803V106.633H397.373V119.758H400.811V106.047H405.538ZM389.053 110.148V114.172H380.811V129.328C384.248 129.309 387.295 129.133 390.733 128.508L391.084 132.57C386.748 133.391 382.959 133.508 378.272 133.547H375.811V110.148H389.053ZM438.369 106.086V116.984H443.173V121.047H438.369V132.609H433.369V106.086H438.369ZM431.259 109.797V113.742H410.166V109.797H418.252V106.008H423.212V109.797H431.259ZM420.712 114.992C425.869 114.992 429.462 117.766 429.462 121.867C429.462 125.969 425.869 128.664 420.712 128.664C415.517 128.664 411.884 125.969 411.884 121.867C411.884 117.766 415.517 114.992 420.712 114.992ZM420.712 118.781C418.33 118.82 416.728 119.914 416.767 121.867C416.728 123.82 418.33 124.875 420.712 124.875C423.095 124.875 424.736 123.82 424.736 121.867C424.736 119.914 423.095 118.82 420.712 118.781ZM439.658 136.984V140.969H415.322V130.578H420.283V136.984H439.658ZM471.766 106.633C479.656 106.633 484.656 109.328 484.695 113.625C484.676 115.969 483.172 117.844 480.516 119.055V123.547H487.977V127.453H455.555V123.547H462.859V118.977C460.281 117.785 458.797 115.93 458.797 113.625C458.797 109.328 463.914 106.633 471.766 106.633ZM471.766 110.539C466.805 110.5 463.953 111.516 463.992 113.625C463.953 115.695 466.805 116.75 471.766 116.75C476.688 116.75 479.539 115.695 479.539 113.625C479.539 111.516 476.688 110.5 471.766 110.539ZM484.031 129.953V141.594H479.07V133.859H459.148V129.953H484.031ZM467.898 123.547H475.555V120.383C474.383 120.539 473.113 120.617 471.766 120.617C470.379 120.617 469.09 120.539 467.898 120.383V123.547ZM519.558 108.117V111.32C519.558 114.641 519.558 118.273 518.659 123.234H523.347V127.258H509.48V141.633H504.48V127.258H490.925V123.234H513.62C514.519 118.645 514.597 115.168 514.597 112.102H494.636V108.117H519.558Z" fill="white"/>
</svg>
