<svg width="419" height="790" viewBox="0 0 419 790" fill="none" xmlns="http://www.w3.org/2000/svg">
<rect width="111" height="54" rx="27" fill="#56AFDF"/>
<path d="M25.3691 34V19.8594H30.7793C33.8457 19.8594 35.3691 21.4219 35.3691 23.5312C35.3691 25.25 34.2754 26.207 32.8887 26.5391V26.6758C34.3926 26.7539 35.916 28.0039 35.916 30.1523C35.916 32.3594 34.334 34 31.0918 34H25.3691ZM30.7012 31.8711C32.5566 31.8711 33.3379 31.0703 33.3379 29.957C33.3379 28.6875 32.3418 27.7109 30.7598 27.7109H27.9082V31.8711H30.7012ZM30.4668 25.875C31.8145 25.875 32.8301 25.0938 32.8301 23.8438C32.8301 22.75 32.0488 21.9688 30.5254 21.9688H27.9082V25.875H30.4668ZM42.9762 34.2148C39.773 34.2148 37.8199 32.0859 37.8199 28.7656C37.8199 25.4844 39.8121 23.2578 42.8395 23.2578C45.4371 23.2578 47.6832 24.8789 47.6832 28.6094V29.3906H40.2809C40.3102 31.1973 41.3746 32.2617 42.9957 32.2617C44.0895 32.2617 44.8316 31.793 45.1441 31.168H47.5855C47.1363 33.0039 45.4371 34.2148 42.9762 34.2148ZM40.3004 27.6914H45.3004C45.2809 26.2461 44.3238 25.1914 42.8785 25.1914C41.3746 25.1914 40.3785 26.334 40.3004 27.6914ZM55.3879 23.3945V25.3086H53.2004V34H50.7004V25.3086H49.1184V23.3945H50.7004V22.3789C50.7004 20.3086 51.9895 19.1953 54.0207 19.1953C54.6066 19.1953 55.134 19.2539 55.6027 19.3516V21.3242C55.1926 21.2656 54.8801 21.2461 54.7043 21.2461C53.6887 21.2461 53.2004 21.6562 53.2004 22.6133V23.3945H55.3879ZM61.784 34.2148C58.698 34.2148 56.7059 32.0273 56.7059 28.7461C56.7059 25.4453 58.698 23.2578 61.784 23.2578C64.8895 23.2578 66.8621 25.4453 66.8621 28.7461C66.8621 32.0273 64.8895 34.2148 61.784 34.2148ZM61.8035 32.2227C63.5027 32.2227 64.3426 30.6797 64.3426 28.7266C64.3426 26.793 63.5027 25.2305 61.8035 25.2305C60.0652 25.2305 59.2254 26.793 59.2254 28.7266C59.2254 30.6797 60.0652 32.2227 61.8035 32.2227ZM69.1957 34V23.3945H71.6176V25.1523H71.7348C72.1059 23.9414 73.141 23.2383 74.352 23.2383C74.6254 23.2383 75.016 23.2578 75.2504 23.2969V25.6016C75.0355 25.5234 74.5082 25.4453 74.098 25.4453C72.7113 25.4453 71.6957 26.4023 71.6957 27.75V34H69.1957ZM81.4902 34.2148C78.2871 34.2148 76.334 32.0859 76.334 28.7656C76.334 25.4844 78.3262 23.2578 81.3535 23.2578C83.9512 23.2578 86.1973 24.8789 86.1973 28.6094V29.3906H78.7949C78.8242 31.1973 79.8887 32.2617 81.5098 32.2617C82.6035 32.2617 83.3457 31.793 83.6582 31.168H86.0996C85.6504 33.0039 83.9512 34.2148 81.4902 34.2148ZM78.8145 27.6914H83.8145C83.7949 26.2461 82.8379 25.1914 81.3926 25.1914C79.8887 25.1914 78.8926 26.334 78.8145 27.6914Z" fill="white"/>
<path d="M29.2578 742.086V752.086H34.0625V756.188H29.2578V768.258H24.2578V742.086H29.2578ZM30.5469 772.984V776.969H6.21094V765.562H11.1719V772.984H30.5469ZM7.07031 744.586V749.742H14.3359V744.586H19.3359V762.594H2.10938V744.586H7.07031ZM7.07031 758.688H14.3359V753.57H7.07031V758.688ZM68.8469 759.664V763.688H36.425V759.664H50.0969V756.656H40.5656V742.906H45.4875V746.148H59.7453V742.906H64.7062V756.656H55.0969V759.664H68.8469ZM64.9016 766.109V777.594H59.9406V770.055H40.0187V766.109H64.9016ZM45.4875 752.75H59.7453V749.82H45.4875V752.75ZM92.9672 756.5V760.484H86.0531V766.305C88.9828 766.207 91.9125 766.012 94.6859 765.719L95.0766 769.352C87.3031 770.562 79.2172 770.602 72.5375 770.602L71.9516 766.539C74.7836 766.559 77.8695 766.559 81.0531 766.461V760.484H74.2953V745.211H92.7719V749.156H79.2562V756.5H92.9672ZM101.678 742.047V777.672H96.7172V742.047H101.678ZM136.463 745.133V748.492C136.463 752.945 136.463 757.945 135.017 765.484L130.017 764.977C131.365 758.258 131.423 753.258 131.463 749.078H110.525V745.133H136.463ZM139.588 769.195V773.258H107.166V769.195H118.767V756.969H123.728V769.195H139.588ZM166.344 751.734C166.344 757.477 169.273 763.609 175.25 766.109L172.555 770.016C168.355 768.238 165.465 764.703 163.883 760.367C162.262 765.074 159.312 768.98 155.133 770.914L152.281 766.969C158.18 764.352 161.227 757.75 161.227 751.734V749.547H153.688V745.484H173.766V749.547H166.344V751.734ZM182.32 742.047V777.594H177.281V742.047H182.32ZM217.652 742.047V777.594H212.652V742.047H217.652ZM201.831 753.18C201.831 758.336 204.761 764.156 210.659 766.578L207.964 770.406C203.921 768.746 201.03 765.348 199.409 761.266C197.827 765.602 194.917 769.234 190.777 770.953L188.12 767.125C193.98 764.586 196.87 758.609 196.87 753.18V751.812H189.292V747.828H196.831V742.828H201.792V747.828H209.214V751.812H201.831V753.18ZM252.163 751.734V755.641H227.319V743.297H232.28V751.734H252.163ZM255.795 759.469V763.375H223.256V759.469H255.795ZM252.397 772.828V776.812H227.006V766.266H232.006V772.828H252.397ZM297.669 757.945V761.891H287.356V769.469H301.223V773.531H268.684V769.469H282.395V761.891H272.513V744.547H297.395V748.531H277.513V757.945H297.669ZM317.883 750.094C317.883 756.617 320.852 763.18 326.867 765.719L323.938 769.703C319.875 767.867 317.062 764.332 315.461 759.938C313.84 764.723 310.93 768.59 306.594 770.562L303.586 766.422C309.797 763.805 312.805 757.008 312.844 750.094V744.781H317.883V750.094ZM333.82 742.047V777.672H328.781V742.047H333.82ZM360.811 748.375C360.811 752.203 362.803 756.031 367.53 757.828L364.873 761.617C361.846 760.465 359.756 758.355 358.467 755.719C357.178 758.805 354.952 761.383 351.631 762.75L348.936 758.922C353.936 756.734 355.967 752.359 355.967 748.375V744.195H360.811V748.375ZM379.991 742.086V763.805H375.264V754.781H372.295V762.711H367.647V742.711H372.295V750.758H375.264V742.086H379.991ZM367.842 764.312C375.342 764.312 380.147 766.812 380.186 770.953C380.147 775.094 375.342 777.594 367.842 777.594C360.303 777.594 355.538 775.094 355.538 770.953C355.538 766.812 360.303 764.312 367.842 764.312ZM367.842 768.023C363.194 768.023 360.498 769.039 360.538 770.953C360.498 772.867 363.194 773.844 367.842 773.844C372.452 773.844 375.147 772.867 375.147 770.953C375.147 769.039 372.452 768.023 367.842 768.023ZM413.252 742.047V750.445H417.783V754.586H413.252V762.984H408.252V742.047H413.252ZM413.252 764.234V772.203H394.189V774.039H414.423V777.359H389.189V769.195H408.252V767.555H389.15V764.234H413.252ZM384.423 759.156C387.021 759.176 389.97 759.176 393.056 759.078V757.516C389.17 757.066 386.767 755.445 386.806 752.906C386.767 750.016 390.205 748.336 395.517 748.336C400.791 748.336 404.189 750.016 404.228 752.906C404.189 755.445 401.845 757.047 398.017 757.516V758.922C400.927 758.785 403.857 758.551 406.611 758.18L406.962 761.266C399.384 762.555 391.142 762.594 384.931 762.594L384.423 759.156ZM405.712 744.273V747.594H385.361V744.273H393.056V741.734H398.017V744.273H405.712ZM395.517 751.422C392.978 751.422 391.533 751.891 391.572 752.906C391.533 753.961 392.978 754.508 395.517 754.547C398.017 754.508 399.423 753.961 399.462 752.906C399.423 751.891 398.017 751.422 395.517 751.422Z" fill="white"/>
</svg>
