<svg width="1760" height="1752" viewBox="0 0 1760 1752" fill="none" xmlns="http://www.w3.org/2000/svg">
<rect x="1" y="987" width="633" height="381" rx="59" fill="white"/>
<rect x="1" y="987" width="633" height="381" rx="59" stroke="#56AFDF" stroke-width="2"/>
<path d="M123.756 1115.03V1135.91H120.287V1128.53H116.287V1125.66H120.287V1122.97H116.287V1120.16H120.287V1115.03H123.756ZM115.881 1117.16V1119.94H113.381V1128.94C114.443 1128.88 115.474 1128.8 116.474 1128.69L116.631 1131.22C111.287 1132.09 105.006 1132.19 100.506 1132.19L100.131 1129.31L103.318 1129.28V1119.94H100.849V1117.16H115.881ZM124.474 1139.91V1142.72H105.193V1134.28H108.693V1139.91H124.474ZM106.693 1129.25L110.037 1129.12V1119.94H106.693V1129.25ZM150.677 1115.03V1123.31H154.614V1126.19H150.677V1135.69H147.208V1115.03H150.677ZM151.802 1139.91V1142.72H132.583V1133.53H136.052V1139.91H151.802ZM136.333 1116.91C140.614 1116.91 143.927 1119.88 143.958 1124.03C143.927 1128.12 140.614 1131.12 136.333 1131.12C132.052 1131.12 128.677 1128.12 128.708 1124.03C128.677 1119.88 132.052 1116.91 136.333 1116.91ZM136.333 1119.94C133.958 1119.94 132.083 1121.53 132.114 1124.03C132.083 1126.47 133.958 1128.06 136.333 1128.06C138.708 1128.06 140.552 1126.47 140.552 1124.03C140.552 1121.53 138.708 1119.94 136.333 1119.94ZM178.973 1115.06V1123.94H182.911V1126.81H178.973V1136.16H175.504V1115.06H178.973ZM173.473 1118.19V1120.97H156.723V1118.19H163.379V1115.03H166.848V1118.19H173.473ZM165.098 1122.12C169.161 1122.12 171.973 1124.28 172.004 1127.53C171.973 1130.75 169.161 1132.88 165.098 1132.88C161.004 1132.88 158.161 1130.75 158.161 1127.53C158.161 1124.28 161.004 1122.12 165.098 1122.12ZM165.098 1124.81C162.942 1124.81 161.536 1125.81 161.536 1127.53C161.536 1129.22 162.942 1130.22 165.098 1130.19C167.254 1130.22 168.692 1129.22 168.692 1127.53C168.692 1125.81 167.254 1124.81 165.098 1124.81ZM180.098 1139.91V1142.72H160.879V1134.5H164.348V1139.91H180.098ZM215.597 1115.03V1124.5H219.409V1127.38H215.597V1137.09H212.128V1115.03H215.597ZM216.597 1139.91V1142.72H197.034V1135.62H200.503V1139.91H216.597ZM192.972 1131.44C195.081 1131.44 197.534 1131.42 200.097 1131.31V1129.53C196.956 1129.16 194.972 1127.61 194.972 1125.34C194.972 1122.56 197.691 1120.94 201.784 1120.97C205.909 1120.94 208.597 1122.56 208.597 1125.34C208.597 1127.59 206.659 1129.12 203.566 1129.53V1131.16C205.972 1131.03 208.394 1130.81 210.659 1130.47L210.941 1132.91C204.972 1134.03 198.222 1134.09 193.347 1134.16L192.972 1131.44ZM209.909 1117.5V1120.03H193.691V1117.5H200.097V1114.94H203.566V1117.5H209.909ZM201.784 1123.31C199.597 1123.31 198.284 1124.03 198.316 1125.34C198.284 1126.56 199.597 1127.28 201.784 1127.28C203.972 1127.28 205.284 1126.56 205.284 1125.34C205.284 1124.03 203.972 1123.31 201.784 1123.31ZM245.174 1115.06V1131.56H241.706V1128.44H234.987V1125.62H241.706V1122.59H235.268C233.471 1127.09 229.362 1130.23 223.206 1131.94L221.799 1129.19C228.409 1127.39 231.924 1124.05 232.487 1119.84H223.299V1117.03H236.268C236.268 1118.02 236.19 1118.95 236.018 1119.84H241.706V1115.06H245.174ZM235.831 1131.88C241.549 1131.88 245.362 1134.03 245.362 1137.5C245.362 1140.97 241.549 1143.12 235.831 1143.12C230.049 1143.12 226.237 1140.97 226.237 1137.5C226.237 1134.03 230.049 1131.88 235.831 1131.88ZM235.831 1134.59C232.018 1134.59 229.706 1135.62 229.706 1137.5C229.706 1139.34 232.018 1140.38 235.831 1140.38C239.549 1140.38 241.893 1139.34 241.893 1137.5C241.893 1135.62 239.549 1134.59 235.831 1134.59ZM274.189 1115.03V1143.28H270.846V1115.03H274.189ZM268.377 1115.53V1141.91H265.064V1128.47H262.377C262.049 1133.97 259.689 1137.38 256.189 1137.34C252.502 1137.38 250.096 1133.47 250.096 1127.25C250.096 1121.03 252.502 1117.19 256.189 1117.19C259.611 1117.19 261.939 1120.38 262.346 1125.66H265.064V1115.53H268.377ZM256.189 1120.47C254.408 1120.44 253.283 1122.84 253.314 1127.25C253.283 1131.66 254.408 1134.06 256.189 1134.03C258.064 1134.06 259.189 1131.66 259.189 1127.25C259.189 1122.84 258.064 1120.44 256.189 1120.47ZM288.548 1121.81C288.548 1127.06 291.048 1132.22 295.548 1134.19L293.454 1136.97C290.251 1135.41 288.001 1132.41 286.798 1128.72C285.564 1132.61 283.267 1135.84 280.017 1137.5L277.829 1134.69C282.423 1132.53 284.986 1127.09 285.017 1121.81V1117.31H288.548V1121.81ZM301.798 1115.03V1143.31H298.361V1126.97H292.423V1124.16H298.361V1115.03H301.798ZM329.282 1123.03V1125.78H309.719V1116.06H313.157V1123.03H329.282ZM332.188 1129.06V1131.81H306.376V1129.06H332.188ZM329.469 1139.81V1142.62H309.469V1134.31H312.938V1139.81H329.469ZM366.624 1115.03V1143.31H363.156V1128.88H357.687V1126.06H363.156V1115.03H366.624ZM353.249 1124C353.218 1128.28 355.781 1132.84 360.249 1134.81L358.374 1137.47C355.14 1136.09 352.796 1133.27 351.562 1129.88C350.312 1133.47 347.984 1136.48 344.749 1137.94L342.874 1135.25C347.281 1133.25 349.781 1128.44 349.781 1124V1122.53H343.718V1119.75H349.812V1115.62H353.281V1119.75H359.187V1122.53H353.249V1124ZM384.077 1115.59C390.327 1115.59 394.233 1117.66 394.264 1121.09C394.233 1124.47 390.327 1126.5 384.077 1126.47C377.889 1126.5 373.889 1124.47 373.889 1121.09C373.889 1117.66 377.889 1115.59 384.077 1115.59ZM384.077 1118.31C379.952 1118.31 377.483 1119.28 377.514 1121.09C377.483 1122.81 379.952 1123.75 384.077 1123.78C388.202 1123.75 390.671 1122.81 390.671 1121.09C390.671 1119.28 388.202 1118.31 384.077 1118.31ZM393.858 1133.44V1142.94H374.264V1133.44H393.858ZM377.702 1136.19V1140.12H390.483V1136.19H377.702ZM396.983 1128.38V1131.19H371.233V1128.38H396.983ZM433.576 1137.03V1139.88H407.763V1137.03H418.888V1131.53H410.607V1116.91H414.076V1121.53H427.169V1116.91H430.638V1131.53H422.326V1137.03H433.576ZM414.076 1128.72H427.169V1124.31H414.076V1128.72ZM458.934 1123.03V1125.78H439.372V1116.06H442.809V1123.03H458.934ZM461.841 1129.06V1131.81H436.028V1129.06H461.841ZM459.122 1139.81V1142.62H439.122V1134.31H442.591V1139.81H459.122ZM496.089 1115.03V1143.31H492.589V1115.03H496.089ZM480.871 1117.09C485.121 1117.09 488.214 1120.97 488.246 1127.06C488.214 1133.22 485.121 1137.06 480.871 1137.06C476.589 1137.06 473.496 1133.22 473.496 1127.06C473.496 1120.97 476.589 1117.09 480.871 1117.09ZM480.871 1120.22C478.464 1120.22 476.839 1122.75 476.839 1127.06C476.839 1131.41 478.464 1133.94 480.871 1133.94C483.246 1133.94 484.871 1131.41 484.871 1127.06C484.871 1122.75 483.246 1120.22 480.871 1120.22ZM526.667 1126.34V1129.09H500.886V1126.34H526.667ZM523.604 1121.78V1124.53H504.167V1115.75H523.354V1118.53H507.636V1121.78H523.604ZM523.417 1131.03V1138.12H507.354V1140.28H524.198V1143H503.948V1135.62H520.011V1133.66H503.917V1131.03H523.417ZM154.794 1163.06V1169.53H158.731V1172.34H154.794V1178.84H151.325V1163.06H154.794ZM155.387 1180.16V1182.91H151.794V1188.03H155.762V1190.84H136.169V1188.03H140.044V1182.91H136.356V1180.16H155.387ZM140.45 1164.56C144.794 1164.56 148.044 1167.31 148.075 1171.28C148.044 1175.22 144.794 1177.97 140.45 1177.97C136.075 1177.97 132.794 1175.22 132.825 1171.28C132.794 1167.31 136.075 1164.56 140.45 1164.56ZM140.45 1167.47C138.012 1167.44 136.2 1168.94 136.231 1171.28C136.2 1173.62 138.012 1175.09 140.45 1175.09C142.856 1175.09 144.669 1173.62 144.669 1171.28C144.669 1168.94 142.856 1167.44 140.45 1167.47ZM143.419 1188.03H148.419V1182.91H143.419V1188.03ZM185.184 1163.03V1191.28H181.84V1163.03H185.184ZM179.371 1163.53V1189.91H176.059V1176.47H173.371C173.043 1181.97 170.684 1185.38 167.184 1185.34C163.496 1185.38 161.09 1181.47 161.09 1175.25C161.09 1169.03 163.496 1165.19 167.184 1165.19C170.606 1165.19 172.934 1168.38 173.34 1173.66H176.059V1163.53H179.371ZM167.184 1168.47C165.402 1168.44 164.277 1170.84 164.309 1175.25C164.277 1179.66 165.402 1182.06 167.184 1182.03C169.059 1182.06 170.184 1179.66 170.184 1175.25C170.184 1170.84 169.059 1168.44 167.184 1168.47ZM199.542 1169.81C199.542 1175.06 202.042 1180.22 206.542 1182.19L204.449 1184.97C201.246 1183.41 198.996 1180.41 197.792 1176.72C196.558 1180.61 194.261 1183.84 191.011 1185.5L188.824 1182.69C193.417 1180.53 195.98 1175.09 196.011 1169.81V1165.31H199.542V1169.81ZM212.792 1163.03V1191.31H209.355V1174.97H203.417V1172.16H209.355V1163.03H212.792ZM238.479 1164.62C244.541 1164.62 249.01 1167.66 249.01 1172.25C249.01 1176.48 245.369 1179.31 240.197 1179.81V1185H251.447V1187.84H225.635V1185H236.76V1179.81C231.619 1179.31 227.979 1176.48 228.01 1172.25C227.979 1167.66 232.447 1164.62 238.479 1164.62ZM238.479 1167.44C234.354 1167.41 231.385 1169.28 231.416 1172.25C231.385 1175.31 234.354 1177.12 238.479 1177.12C242.666 1177.12 245.604 1175.31 245.604 1172.25C245.604 1169.28 242.666 1167.41 238.479 1167.44ZM277.431 1163.03V1191.28H273.931V1163.03H277.431ZM271.462 1167.41V1170.19H254.525V1167.41H261.244V1163.38H264.775V1167.41H271.462ZM263.056 1172C267.181 1172 270.244 1174.75 270.244 1178.66C270.244 1182.56 267.181 1185.28 263.056 1185.28C258.9 1185.28 255.869 1182.56 255.869 1178.66C255.869 1174.75 258.9 1172 263.056 1172ZM263.056 1174.84C260.806 1174.84 259.181 1176.34 259.181 1178.66C259.181 1180.97 260.806 1182.44 263.056 1182.41C265.306 1182.44 266.9 1180.97 266.9 1178.66C266.9 1176.34 265.306 1174.84 263.056 1174.84ZM305.884 1163.03V1191.31H302.415V1179.72H297.259V1176.88H302.415V1172.03H297.352V1169.19H302.415V1163.03H305.884ZM295.759 1165.47V1176.03H286.696V1182.03C290.431 1182 293.681 1181.84 297.477 1181.28L297.759 1184.12C293.415 1184.81 289.821 1184.91 285.446 1184.91H283.259V1173.31H292.352V1168.25H283.165V1165.47H295.759ZM333.039 1165.59V1168.44H323.632V1181.59C328.039 1181.56 331.148 1181.38 334.664 1180.72L335.039 1183.53C331.07 1184.31 327.664 1184.47 322.382 1184.47H320.132V1165.59H333.039ZM342.476 1163.03V1191.31H339.007V1175.81H331.539V1172.97H339.007V1163.03H342.476ZM369.85 1171.56V1174.84H381.037V1177.62H355.287V1174.84H366.412V1171.56H369.85ZM369.881 1164.03C369.881 1167.25 373.6 1169.94 379.631 1170.53L378.412 1173.19C373.678 1172.59 369.928 1170.81 368.131 1168.06C366.287 1170.81 362.553 1172.59 357.819 1173.19L356.6 1170.53C362.631 1169.94 366.35 1167.25 366.35 1164.03V1163.28H369.881V1164.03ZM377.819 1179.34V1186.34H361.756V1188.38H378.6V1191.03H358.35V1183.88H374.412V1182H358.319V1179.34H377.819ZM394.302 1167.94C394.302 1171.44 396.709 1174.91 401.209 1176.31L399.427 1179C396.224 1177.98 393.896 1175.84 392.615 1173.16C391.334 1176.08 388.943 1178.41 385.584 1179.53L383.802 1176.84C388.334 1175.31 390.771 1171.62 390.802 1167.94V1167.59H384.709V1164.81H400.24V1167.59H394.302V1167.94ZM407.115 1163.03V1180.06H403.615V1163.03H407.115ZM407.115 1181.38V1191.28H403.615V1184.19H387.834V1181.38H407.115ZM425.661 1167.53V1170.31H411.818V1167.53H417.068V1163.84H420.505V1167.53H425.661ZM418.786 1171.81C422.38 1171.81 424.943 1174.53 424.943 1178.38C424.943 1182.28 422.38 1185.03 418.786 1185.03C415.224 1185.03 412.599 1182.28 412.63 1178.38C412.599 1174.53 415.224 1171.81 418.786 1171.81ZM418.786 1174.69C416.943 1174.69 415.661 1176.16 415.693 1178.38C415.661 1180.66 416.943 1182.09 418.786 1182.06C420.599 1182.09 421.88 1180.66 421.88 1178.38C421.88 1176.16 420.599 1174.69 418.786 1174.69ZM436.161 1163.03V1191.28H432.849V1177.47H430.099V1190H426.849V1163.62H430.099V1174.66H432.849V1163.03H436.161ZM450.833 1171.06C450.833 1175.69 453.551 1180.56 458.114 1182.47L456.208 1185.22C452.864 1183.78 450.426 1180.81 449.145 1177.22C447.833 1181.09 445.364 1184.34 442.051 1185.91L440.051 1183.19C444.52 1181.12 447.301 1175.88 447.301 1171.06V1168.69H441.083V1165.81H457.02V1168.69H450.833V1171.06ZM463.676 1163.03V1191.28H460.176V1163.03H463.676ZM491.347 1171.03V1173.78H471.785V1164.06H475.222V1171.03H491.347ZM494.254 1177.06V1179.81H468.441V1177.06H494.254ZM491.535 1187.81V1190.62H471.535V1182.31H475.004V1187.81H491.535ZM267.556 1211.06V1227.56H264.087V1224.44H257.369V1221.62H264.087V1218.59H257.65C255.853 1223.09 251.744 1226.23 245.587 1227.94L244.181 1225.19C250.791 1223.39 254.306 1220.05 254.869 1215.84H245.681V1213.03H258.65C258.65 1214.02 258.572 1214.95 258.4 1215.84H264.087V1211.06H267.556ZM258.212 1227.88C263.931 1227.88 267.744 1230.03 267.744 1233.5C267.744 1236.97 263.931 1239.12 258.212 1239.12C252.431 1239.12 248.619 1236.97 248.619 1233.5C248.619 1230.03 252.431 1227.88 258.212 1227.88ZM258.212 1230.59C254.4 1230.59 252.087 1231.62 252.087 1233.5C252.087 1235.34 254.4 1236.38 258.212 1236.38C261.931 1236.38 264.275 1235.34 264.275 1233.5C264.275 1231.62 261.931 1230.59 258.212 1230.59ZM298.321 1215.44V1218.28H294.477V1221.5H298.321V1224.34H294.477V1229.06H291.009V1211.03H294.477V1215.44H298.321ZM285.352 1229.31C291.134 1229.31 294.79 1231.16 294.79 1234.28C294.79 1237.38 291.134 1239.25 285.352 1239.25C279.477 1239.25 275.884 1237.38 275.915 1234.28C275.884 1231.16 279.477 1229.31 285.352 1229.31ZM285.352 1231.97C281.477 1231.97 279.321 1232.72 279.352 1234.28C279.321 1235.78 281.477 1236.62 285.352 1236.62C289.165 1236.62 291.321 1235.78 291.321 1234.28C291.321 1232.72 289.165 1231.97 285.352 1231.97ZM288.977 1213.91V1216.62H272.227V1213.91H278.884V1210.84H282.352V1213.91H288.977ZM280.602 1217.75C284.696 1217.75 287.477 1219.78 287.509 1222.81C287.477 1225.84 284.696 1227.84 280.602 1227.84C276.477 1227.84 273.665 1225.84 273.665 1222.81C273.665 1219.78 276.477 1217.75 280.602 1217.75ZM280.602 1220.31C278.446 1220.31 277.04 1221.25 277.04 1222.81C277.04 1224.34 278.446 1225.22 280.602 1225.22C282.759 1225.22 284.196 1224.34 284.196 1222.81C284.196 1221.25 282.759 1220.31 280.602 1220.31ZM313.336 1211.47C319.774 1211.47 323.492 1213.19 323.524 1216.31C323.492 1219.47 319.774 1221.16 313.336 1221.19C306.899 1221.16 303.149 1219.47 303.149 1216.31C303.149 1213.19 306.899 1211.47 313.336 1211.47ZM313.336 1214.03C309.024 1214.03 306.774 1214.84 306.805 1216.31C306.774 1217.88 309.024 1218.59 313.336 1218.59C317.711 1218.59 319.93 1217.88 319.93 1216.31C319.93 1214.84 317.711 1214.03 313.336 1214.03ZM326.242 1222.69V1225.47H300.492V1222.69H326.242ZM323.024 1227.38V1234.28H306.961V1236.38H323.805V1239.03H303.555V1231.81H319.617V1229.94H303.524V1227.38H323.024ZM341.429 1212.28V1215.88H348.022V1212.28H351.46V1224.59H337.991V1212.28H341.429ZM341.429 1221.84H348.022V1218.5H341.429V1221.84ZM359.304 1211.03V1216.75H363.241V1219.56H359.304V1225.5H355.835V1211.03H359.304ZM359.304 1226.62V1234.03H344.304V1236.28H360.179V1239.03H340.866V1231.5H355.835V1229.34H340.835V1226.62H359.304ZM388.975 1211.06V1231.94H385.506V1225.78H378.694V1222.94H385.506V1219.44H379.069C377.069 1223.78 372.912 1227.03 367.194 1228.78L365.725 1226.06C371.959 1224.06 375.959 1220.47 376.6 1216H367.194V1213.22H380.412C380.412 1214.41 380.272 1215.55 380.037 1216.62H385.506V1211.06H388.975ZM389.694 1235.91V1238.72H370.569V1229.88H374.1V1235.91H389.694Z" fill="#525666"/>
<rect y="1369" width="635" height="383" rx="60" fill="#56AFDF"/>
<path d="M192.574 1522.06V1538.03H189.074V1522.06H192.574ZM192.574 1539.44V1549.94H173.824V1539.44H192.574ZM177.261 1542.19V1547.12H189.167V1542.19H177.261ZM179.574 1525.88C179.574 1529.47 181.98 1532.84 186.386 1534.25L184.699 1536.91C181.433 1535.89 179.089 1533.81 177.824 1531.09C176.527 1534.02 174.152 1536.34 170.761 1537.47L169.042 1534.72C173.636 1533.25 175.98 1529.59 175.98 1525.88V1523.12H179.574V1525.88ZM220.87 1522.03V1550.31H217.432V1522.03H220.87ZM212.182 1524.5V1535.09H202.464V1540.78C206.917 1540.75 210.761 1540.53 215.151 1539.78L215.464 1542.62C210.651 1543.47 206.432 1543.62 201.37 1543.62H198.901V1532.34H208.651V1527.31H198.87V1524.5H212.182ZM236.01 1526.88C236.01 1530.31 238.291 1533.78 242.666 1535.25L240.916 1537.94C237.76 1536.91 235.526 1534.77 234.291 1532.12C233.057 1535.08 230.697 1537.45 227.354 1538.56L225.572 1535.81C230.072 1534.34 232.479 1530.59 232.479 1526.91V1526.53H226.604V1523.75H241.854V1526.53H236.01V1526.88ZM249.291 1540.22V1550.28H245.822V1543H230.041V1540.22H249.291ZM249.291 1522.03V1538.88H245.822V1531.88H241.01V1529.03H245.822V1522.03H249.291ZM266.775 1523.62C272.744 1523.62 277.306 1526.78 277.306 1531.59C277.306 1536.47 272.744 1539.62 266.775 1539.62C260.837 1539.62 256.275 1536.47 256.306 1531.59C256.275 1526.78 260.837 1523.62 266.775 1523.62ZM266.775 1526.44C262.681 1526.41 259.65 1528.47 259.65 1531.59C259.65 1534.78 262.681 1536.78 266.775 1536.78C270.9 1536.78 273.9 1534.78 273.9 1531.59C273.9 1528.47 270.9 1526.41 266.775 1526.44ZM279.744 1543.88V1546.72H253.931V1543.88H279.744ZM308.04 1544.12V1547H282.227V1544.12H293.352V1539.53H285.29V1530.28H301.54V1526.78H285.227V1523.97H304.977V1533.03H288.759V1536.69H305.634V1539.53H296.79V1544.12H308.04ZM341.039 1522.03V1530.31H344.976V1533.19H341.039V1542.69H337.57V1522.03H341.039ZM342.164 1546.91V1549.72H322.945V1540.53H326.414V1546.91H342.164ZM326.695 1523.91C330.976 1523.91 334.289 1526.88 334.32 1531.03C334.289 1535.12 330.976 1538.12 326.695 1538.12C322.414 1538.12 319.039 1535.12 319.07 1531.03C319.039 1526.88 322.414 1523.91 326.695 1523.91ZM326.695 1526.94C324.32 1526.94 322.445 1528.53 322.476 1531.03C322.445 1533.47 324.32 1535.06 326.695 1535.06C329.07 1535.06 330.914 1533.47 330.914 1531.03C330.914 1528.53 329.07 1526.94 326.695 1526.94ZM370.71 1522.06V1542.69H367.241V1532.34H362.241V1529.53H367.241V1522.06H370.71ZM371.429 1546.91V1549.72H352.179V1540.88H355.647V1546.91H371.429ZM357.429 1527.69C357.429 1531.09 359.71 1534.59 364.085 1536.03L362.335 1538.81C359.179 1537.73 356.944 1535.59 355.71 1532.91C354.46 1535.89 352.101 1538.25 348.772 1539.41L346.991 1536.59C351.491 1535.12 353.897 1531.41 353.897 1527.66V1526.91H348.022V1524.09H363.272V1526.91H357.429V1527.69ZM397.475 1522.03V1533.28H401.819V1536.16H397.475V1550.28H394.037V1522.03H397.475ZM391.85 1526.38V1529.16H375.194V1526.38H381.881V1522.44H385.35V1526.38H391.85ZM383.631 1531C387.694 1531 390.725 1533.75 390.725 1537.66C390.725 1541.56 387.694 1544.28 383.631 1544.28C379.506 1544.28 376.475 1541.56 376.506 1537.66C376.475 1533.75 379.506 1531 383.631 1531ZM383.631 1533.84C381.412 1533.84 379.819 1535.34 379.819 1537.66C379.819 1539.97 381.412 1541.44 383.631 1541.41C385.787 1541.44 387.381 1539.97 387.412 1537.66C387.381 1535.34 385.787 1533.84 383.631 1533.84ZM425.771 1522.03V1532.75H430.115V1535.59H425.771V1550.31H422.302V1522.03H425.771ZM418.021 1524.72V1527.53H408.271V1540.5C412.662 1540.5 416.131 1540.28 420.021 1539.59L420.427 1542.53C416.052 1543.28 412.24 1543.41 407.146 1543.41H404.802V1524.72H418.021ZM455.005 1524.62V1527.34C454.974 1530.84 454.974 1534.78 453.88 1540.69L450.38 1540.31C451.474 1534.81 451.474 1530.8 451.505 1527.41H434.63V1524.62H455.005ZM457.693 1543.78V1546.62H431.943V1543.78H441.443V1533.97H444.88V1543.78H457.693ZM197.926 1582.62V1585.47H177.926V1572.5H181.426V1582.62H197.926ZM200.769 1591.81V1594.75H174.957V1591.81H200.769ZM211.941 1571.47C211.941 1577.19 210.066 1580.69 205.597 1583.81L203.347 1581.62C206.363 1579.66 208.05 1577.67 208.566 1574.28H204.284V1571.47H211.941ZM219.972 1571.47C219.972 1577.28 218.597 1581.25 214.003 1584.72L211.566 1582.66C214.847 1580.31 216.269 1577.92 216.659 1574.28H212.909V1571.47H219.972ZM226.722 1570.03V1584.38H223.222V1570.03H226.722ZM226.784 1585.56V1592.94H211.316V1595.19H227.722V1597.94H207.941V1590.38H223.316V1588.31H207.878V1585.56H226.784ZM254.502 1572.38C254.502 1575.94 258.471 1579.53 264.502 1580.31L263.127 1583.12C258.33 1582.41 254.518 1580.05 252.689 1576.84C250.83 1580.05 247.033 1582.41 242.283 1583.12L240.908 1580.31C246.877 1579.53 250.846 1575.94 250.846 1572.38V1570.94H254.502V1572.38ZM265.533 1585.56V1588.44H254.314V1598.28H250.877V1588.44H239.783V1585.56H265.533ZM286.344 1588.41C286.344 1590.75 287.423 1593.22 289.844 1594.75C292.298 1593.11 293.438 1590.55 293.469 1588.41V1587.25H296.876V1588.41C296.844 1591.38 298.594 1594.12 302.313 1595.31L300.626 1597.84C297.876 1596.92 296.048 1595.12 295.063 1592.88C294.157 1595.09 292.485 1597.08 289.938 1598.09C287.251 1597.12 285.563 1595.22 284.688 1592.97C283.673 1595.14 281.876 1596.91 279.251 1597.84L277.532 1595.31C281.188 1594.03 282.938 1591.16 282.969 1588.41V1587.25H286.344V1588.41ZM299.844 1570.06V1586.06H296.344V1570.06H299.844ZM284.438 1571.56C288.782 1571.56 292.032 1574.31 292.032 1578.28C292.032 1582.22 288.782 1584.97 284.438 1584.97C280.063 1584.97 276.813 1582.22 276.813 1578.28C276.813 1574.31 280.063 1571.56 284.438 1571.56ZM284.438 1574.5C281.969 1574.5 280.188 1575.97 280.219 1578.28C280.188 1580.59 281.969 1582.09 284.438 1582.09C286.876 1582.09 288.626 1580.59 288.626 1578.28C288.626 1575.97 286.876 1574.5 284.438 1574.5ZM327.484 1578.03V1580.78H307.922V1571.06H311.359V1578.03H327.484ZM330.391 1584.06V1586.81H304.578V1584.06H330.391ZM327.672 1594.81V1597.62H307.672V1589.31H311.141V1594.81H327.672ZM363.514 1570.03V1579.5H367.327V1582.38H363.514V1592.09H360.046V1570.03H363.514ZM364.514 1594.91V1597.72H344.952V1590.62H348.421V1594.91H364.514ZM340.889 1586.44C342.999 1586.44 345.452 1586.42 348.014 1586.31V1584.53C344.874 1584.16 342.889 1582.61 342.889 1580.34C342.889 1577.56 345.608 1575.94 349.702 1575.97C353.827 1575.94 356.514 1577.56 356.514 1580.34C356.514 1582.59 354.577 1584.12 351.483 1584.53V1586.16C353.889 1586.03 356.311 1585.81 358.577 1585.47L358.858 1587.91C352.889 1589.03 346.139 1589.09 341.264 1589.16L340.889 1586.44ZM357.827 1572.5V1575.03H341.608V1572.5H348.014V1569.94H351.483V1572.5H357.827ZM349.702 1578.31C347.514 1578.31 346.202 1579.03 346.233 1580.34C346.202 1581.56 347.514 1582.28 349.702 1582.28C351.889 1582.28 353.202 1581.56 353.202 1580.34C353.202 1579.03 351.889 1578.31 349.702 1578.31ZM393.092 1570.06V1586.56H389.623V1583.44H382.904V1580.62H389.623V1577.59H383.186C381.389 1582.09 377.279 1585.23 371.123 1586.94L369.717 1584.19C376.326 1582.39 379.842 1579.05 380.404 1574.84H371.217V1572.03H384.186C384.186 1573.02 384.107 1573.95 383.936 1574.84H389.623V1570.06H393.092ZM383.748 1586.88C389.467 1586.88 393.279 1589.03 393.279 1592.5C393.279 1595.97 389.467 1598.12 383.748 1598.12C377.967 1598.12 374.154 1595.97 374.154 1592.5C374.154 1589.03 377.967 1586.88 383.748 1586.88ZM383.748 1589.59C379.936 1589.59 377.623 1590.62 377.623 1592.5C377.623 1594.34 379.936 1595.38 383.748 1595.38C387.467 1595.38 389.811 1594.34 389.811 1592.5C389.811 1590.62 387.467 1589.59 383.748 1589.59ZM431.778 1592.03V1594.88H405.966V1592.03H417.122V1585.53H420.591V1592.03H431.778ZM429.559 1572.31V1575.16H420.653C420.762 1579.22 424.95 1582.95 430.747 1583.81L429.372 1586.56C424.591 1585.69 420.684 1583.17 418.872 1579.66C417.044 1583.22 413.169 1585.83 408.466 1586.72L407.091 1583.97C412.731 1583.02 416.887 1579.22 416.997 1575.16H408.122V1572.31H429.559ZM444.606 1574.09C444.574 1577.94 446.824 1581.44 451.262 1582.84L449.387 1585.56C446.309 1584.48 444.152 1582.44 442.949 1579.75C441.699 1582.83 439.34 1585.25 435.918 1586.44L434.074 1583.62C438.762 1582.09 441.106 1578.31 441.106 1574.25V1571.56H444.606V1574.09ZM457.918 1570.03V1586.66H454.449V1578.34H448.824V1575.5H454.449V1570.03H457.918ZM448.356 1587.41C454.356 1587.41 458.012 1589.41 458.012 1592.84C458.012 1596.28 454.356 1598.25 448.356 1598.25C442.387 1598.25 438.731 1596.28 438.762 1592.84C438.731 1589.41 442.387 1587.41 448.356 1587.41ZM448.356 1590.09C444.418 1590.09 442.199 1591.06 442.199 1592.84C442.199 1594.56 444.418 1595.53 448.356 1595.53C452.293 1595.53 454.543 1594.56 454.543 1592.84C454.543 1591.06 452.293 1590.09 448.356 1590.09Z" fill="white"/>
<path d="M793.938 1015.9V1037.09H791.453V1015.9H793.938ZM789.625 1016.3V1036.05H787.164V1025.39H784.117V1023.28H787.164V1016.3H789.625ZM782.242 1021.69C782.242 1025.27 783.531 1028.86 786.555 1030.59L785.008 1032.52C783.051 1031.34 781.75 1029.33 781.023 1026.91C780.273 1029.53 778.926 1031.75 776.922 1033.01L775.328 1031.06C778.398 1029.21 779.734 1025.37 779.734 1021.69V1020.28H776.055V1018.17H785.664V1020.28H782.242V1021.69ZM816.238 1027.71V1029.82H807.824V1037.06H805.246V1029.82H796.925V1027.71H816.238ZM814.457 1017.09V1019.16H808.105C808.257 1021.48 811.046 1023.7 815.23 1024.24L814.292 1026.28C810.683 1025.78 807.871 1024.12 806.582 1021.83C805.292 1024.12 802.48 1025.78 798.917 1026.28L797.933 1024.24C802.093 1023.7 804.882 1021.48 805.082 1019.16H798.707V1017.09H814.457ZM835.351 1025.53V1027.59H829.069V1032.45H837.507V1034.58H818.147V1032.45H826.491V1027.59H820.491V1017.47H835.187V1019.55H823.093V1025.53H835.351ZM863.826 1015.9V1037.09H861.342V1015.9H863.826ZM859.326 1016.41V1036.08H856.865V1026.33H853.092C851.85 1028.77 849.857 1030.88 846.857 1032.61L845.381 1030.76C849.775 1028.17 851.779 1024.85 852.178 1020.59H846.459V1018.48H854.756C854.756 1020.53 854.51 1022.45 853.936 1024.24H856.865V1016.41H859.326ZM877.713 1018.8C877.713 1022.09 880.923 1025.37 885.353 1026.14L884.181 1028.32C880.63 1027.57 877.724 1025.43 876.353 1022.58C874.947 1025.4 872.041 1027.56 868.502 1028.32L867.353 1026.14C871.736 1025.34 874.923 1022.06 874.947 1018.8V1017.23H877.713V1018.8ZM886.127 1032.23V1034.39H866.767V1032.23H886.127ZM905.216 1027.01V1029.07H890.357V1017.56H905.028V1019.67H893.005V1022.23H904.536V1024.27H893.005V1027.01H905.216ZM907.349 1032.38V1034.51H887.989V1032.38H907.349ZM925.805 1015.9V1024.34H929.063V1026.49H925.805V1037.09H923.227V1015.9H925.805ZM921.587 1019.16V1021.24H909.094V1019.16H914.11V1016.2H916.712V1019.16H921.587ZM915.423 1022.62C918.469 1022.62 920.743 1024.69 920.743 1027.62C920.743 1030.55 918.469 1032.59 915.423 1032.59C912.329 1032.59 910.055 1030.55 910.079 1027.62C910.055 1024.69 912.329 1022.62 915.423 1022.62ZM915.423 1024.76C913.758 1024.76 912.563 1025.88 912.563 1027.62C912.563 1029.35 913.758 1030.45 915.423 1030.43C917.04 1030.45 918.235 1029.35 918.258 1027.62C918.235 1025.88 917.04 1024.76 915.423 1024.76ZM949.77 1027.83V1029.98H941.332V1037.09H938.754V1029.98H930.41V1027.83H949.77ZM940.043 1016.65C944.543 1016.67 947.684 1018.5 947.684 1021.41C947.684 1024.29 944.543 1026.09 940.043 1026.09C935.52 1026.09 932.426 1024.29 932.449 1021.41C932.426 1018.5 935.52 1016.67 940.043 1016.65ZM940.043 1018.76C937.043 1018.76 935.098 1019.74 935.121 1021.41C935.098 1023.05 937.043 1024.03 940.043 1024.03C943.043 1024.03 944.988 1023.05 944.988 1021.41C944.988 1019.74 943.043 1018.76 940.043 1018.76ZM962.601 1018.8C962.601 1022.09 965.812 1025.37 970.242 1026.14L969.07 1028.32C965.519 1027.57 962.613 1025.43 961.242 1022.58C959.836 1025.4 956.929 1027.56 953.39 1028.32L952.242 1026.14C956.625 1025.34 959.812 1022.06 959.836 1018.8V1017.23H962.601V1018.8ZM971.015 1032.23V1034.39H951.656V1032.23H971.015ZM986.671 1020.26C986.671 1022.55 988.382 1024.8 991.71 1025.72L990.514 1027.73C988.077 1027.08 986.342 1025.65 985.405 1023.82C984.467 1025.84 982.698 1027.39 980.178 1028.11L978.936 1026.09C982.288 1025.16 984.069 1022.79 984.069 1020.26V1020.21H979.639V1018.15H984.069V1015.8H986.694V1018.15H991.1V1020.21H986.671V1020.26ZM995.764 1015.9V1021.01H998.717V1023.16H995.764V1028.37H993.163V1015.9H995.764ZM995.764 1029.26V1036.83H982.077V1029.26H995.764ZM984.655 1031.32V1034.72H993.186V1031.32H984.655ZM1006.06 1017.45C1007.99 1017.45 1009.57 1018.51 1010.52 1020.38H1015.46V1015.9H1018.04V1037.11H1015.46V1029.09H1010.71C1009.79 1031.2 1008.12 1032.42 1006.06 1032.42C1002.88 1032.42 1000.63 1029.54 1000.63 1024.92C1000.63 1020.35 1002.88 1017.45 1006.06 1017.45ZM1006.06 1019.79C1004.31 1019.79 1003.11 1021.69 1003.13 1024.92C1003.11 1028.18 1004.31 1030.08 1006.06 1030.08C1007.82 1030.08 1008.99 1028.18 1009.02 1024.92C1008.99 1021.69 1007.82 1019.79 1006.06 1019.79ZM1011.24 1022.51C1011.4 1023.25 1011.48 1024.05 1011.48 1024.92C1011.48 1025.66 1011.42 1026.34 1011.31 1026.98H1015.46V1022.51H1011.24ZM1039.51 1017.47V1018.73C1039.49 1020.19 1039.49 1022.27 1038.99 1024.97L1036.42 1024.73C1036.83 1022.54 1036.91 1020.93 1036.95 1019.62H1028.7V1017.47H1039.51ZM1034.17 1022.3V1026.52C1036.36 1026.43 1038.61 1026.27 1040.66 1025.98L1040.8 1027.85C1036.39 1028.65 1031.4 1028.72 1027.67 1028.74L1027.44 1026.66C1028.69 1026.64 1030.1 1026.63 1031.59 1026.61V1022.3H1034.17ZM1044.57 1015.9V1022.51H1047.31V1024.69H1044.57V1031.77H1041.9V1015.9H1044.57ZM1045.25 1034.55V1036.66H1030.6V1030.36H1033.23V1034.55H1045.25ZM1056.51 1019.95C1056.51 1021.99 1058.29 1023.94 1061.58 1024.64L1060.47 1026.61C1057.99 1026.06 1056.21 1024.79 1055.25 1023.12C1054.3 1024.98 1052.46 1026.4 1049.88 1027.03L1048.75 1025.02C1052.08 1024.22 1053.91 1022.18 1053.91 1019.95V1019.93H1049.48V1017.87H1053.91V1015.83H1056.54V1017.87H1060.94V1019.93H1056.51V1019.95ZM1065.61 1015.9V1020.33H1068.56V1022.46H1065.61V1026.96H1063V1015.9H1065.61ZM1065.61 1027.9V1033.29H1054.36V1034.88H1066.26V1036.9H1051.78V1031.39H1063V1029.89H1051.75V1027.9H1065.61Z" fill="#40424D"/>
<path d="M781.172 1071.2C777.891 1071.2 775.977 1068.56 775.977 1063.93C775.977 1059.34 777.93 1056.66 781.172 1056.66C784.414 1056.66 786.367 1059.34 786.367 1063.93C786.367 1068.56 784.434 1071.2 781.172 1071.2ZM781.172 1069.34C783.086 1069.34 784.219 1067.46 784.219 1063.93C784.219 1060.41 783.066 1058.48 781.172 1058.48C779.277 1058.48 778.125 1060.41 778.125 1063.93C778.125 1067.46 779.258 1069.34 781.172 1069.34ZM793.935 1071.2C790.869 1071.2 788.72 1069.54 788.74 1067.23C788.72 1065.41 790.029 1063.93 791.689 1063.68V1063.6C790.244 1063.27 789.267 1061.98 789.267 1060.43C789.267 1058.27 791.24 1056.66 793.935 1056.66C796.611 1056.66 798.564 1058.27 798.584 1060.43C798.564 1061.98 797.587 1063.27 796.162 1063.6V1063.68C797.802 1063.93 799.111 1065.41 799.13 1067.23C799.111 1069.54 796.962 1071.2 793.935 1071.2ZM793.935 1069.42C795.771 1069.42 796.943 1068.46 796.943 1067.07C796.943 1065.61 795.673 1064.55 793.935 1064.55C792.177 1064.55 790.888 1065.61 790.927 1067.07C790.888 1068.46 792.06 1069.42 793.935 1069.42ZM793.935 1062.86C795.42 1062.86 796.474 1061.96 796.474 1060.63C796.474 1059.32 795.439 1058.42 793.935 1058.42C792.373 1058.42 791.357 1059.3 791.357 1060.63C791.357 1061.96 792.431 1062.86 793.935 1062.86ZM802.714 1071.14C801.952 1071.14 801.308 1070.51 801.327 1069.75C801.308 1068.99 801.952 1068.36 802.714 1068.36C803.456 1068.36 804.101 1068.99 804.101 1069.75C804.101 1070.51 803.456 1071.14 802.714 1071.14ZM810.653 1056.86V1071H808.485V1059.01H808.407L805.028 1061.21V1059.16L808.544 1056.86H810.653ZM819.588 1071.2C816.522 1071.2 814.373 1069.54 814.393 1067.23C814.373 1065.41 815.682 1063.93 817.342 1063.68V1063.6C815.897 1063.27 814.92 1061.98 814.92 1060.43C814.92 1058.27 816.893 1056.66 819.588 1056.66C822.264 1056.66 824.217 1058.27 824.237 1060.43C824.217 1061.98 823.241 1063.27 821.815 1063.6V1063.68C823.455 1063.93 824.764 1065.41 824.784 1067.23C824.764 1069.54 822.616 1071.2 819.588 1071.2ZM819.588 1069.42C821.424 1069.42 822.596 1068.46 822.596 1067.07C822.596 1065.61 821.327 1064.55 819.588 1064.55C817.83 1064.55 816.541 1065.61 816.58 1067.07C816.541 1068.46 817.713 1069.42 819.588 1069.42ZM819.588 1062.86C821.073 1062.86 822.127 1061.96 822.127 1060.63C822.127 1059.32 821.092 1058.42 819.588 1058.42C818.026 1058.42 817.01 1059.3 817.01 1060.63C817.01 1061.96 818.084 1062.86 819.588 1062.86ZM828.367 1071.14C827.605 1071.14 826.961 1070.51 826.98 1069.75C826.961 1068.99 827.605 1068.36 828.367 1068.36C829.109 1068.36 829.754 1068.99 829.754 1069.75C829.754 1070.51 829.109 1071.14 828.367 1071.14ZM838.327 1063.56C838.972 1062.84 839.773 1062.46 840.652 1062.46C842.175 1062.46 843.523 1063.58 845.007 1063.58C845.905 1063.58 846.687 1063.19 847.292 1062.41V1064.28C846.628 1065 845.847 1065.38 844.968 1065.38C843.445 1065.38 842.077 1064.26 840.593 1064.26C839.714 1064.26 838.952 1064.65 838.327 1065.43V1063.56ZM856.1 1071V1069.44L861.002 1064.5C862.545 1062.88 863.327 1061.98 863.327 1060.75C863.327 1059.36 862.194 1058.46 860.709 1058.46C859.147 1058.46 858.131 1059.46 858.131 1060.96H856.1C856.08 1058.38 858.053 1056.66 860.748 1056.66C863.483 1056.66 865.358 1058.38 865.377 1060.69C865.358 1062.27 864.616 1063.52 861.959 1066.14L859.088 1069.05V1069.16H865.612V1071H856.1ZM873.316 1071.2C870.035 1071.2 868.121 1068.56 868.121 1063.93C868.121 1059.34 870.074 1056.66 873.316 1056.66C876.559 1056.66 878.512 1059.34 878.512 1063.93C878.512 1068.56 876.578 1071.2 873.316 1071.2ZM873.316 1069.34C875.23 1069.34 876.363 1067.46 876.363 1063.93C876.363 1060.41 875.211 1058.48 873.316 1058.48C871.422 1058.48 870.27 1060.41 870.27 1063.93C870.27 1067.46 871.402 1069.34 873.316 1069.34ZM881.998 1071.14C881.236 1071.14 880.591 1070.51 880.611 1069.75C880.591 1068.99 881.236 1068.36 881.998 1068.36C882.74 1068.36 883.384 1068.99 883.384 1069.75C883.384 1070.51 882.74 1071.14 881.998 1071.14ZM886.734 1065.61C886.753 1061.94 887.788 1058.87 889.624 1056.25H891.538C890.191 1058.19 888.902 1062.13 888.902 1065.61C888.902 1069.11 890.191 1073.03 891.538 1074.98H889.624C887.788 1072.37 886.753 1069.3 886.734 1065.61ZM893.833 1071V1069.44L898.735 1064.5C900.278 1062.88 901.059 1061.98 901.059 1060.75C901.059 1059.36 899.927 1058.46 898.442 1058.46C896.88 1058.46 895.864 1059.46 895.864 1060.96H893.833C893.813 1058.38 895.786 1056.66 898.481 1056.66C901.216 1056.66 903.091 1058.38 903.11 1060.69C903.091 1062.27 902.348 1063.52 899.692 1066.14L896.821 1069.05V1069.16H903.345V1071H893.833ZM919.272 1055.16V1059.63H921.811V1061.16H919.272V1065.71H917.416V1055.16H919.272ZM919.272 1066.59V1072.66H917.416V1068.09H907.709V1066.59H919.272ZM908.022 1056.25V1058.87H912.612V1056.25H914.448V1064.59H906.205V1056.25H908.022ZM908.022 1063.11H912.612V1060.34H908.022V1063.11ZM934.115 1071.2C931.185 1071.2 929.095 1069.61 929.017 1067.31H931.205C931.283 1068.56 932.513 1069.34 934.095 1069.34C935.795 1069.34 937.045 1068.4 937.045 1067.04C937.045 1065.65 935.873 1064.63 933.861 1064.63H932.65V1062.88H933.861C935.462 1062.88 936.595 1061.98 936.595 1060.63C936.595 1059.34 935.638 1058.46 934.134 1058.46C932.709 1058.46 931.459 1059.24 931.4 1060.53H929.33C929.388 1058.23 931.517 1056.66 934.154 1056.66C936.927 1056.66 938.685 1058.42 938.666 1060.51C938.685 1062.11 937.689 1063.29 936.166 1063.66V1063.75C938.099 1064.03 939.212 1065.32 939.212 1067.11C939.212 1069.48 937.045 1071.2 934.115 1071.2ZM946.331 1055.75C948.968 1055.77 950.902 1057.39 950.921 1059.67C950.902 1061.98 948.968 1063.58 946.331 1063.58C943.675 1063.58 941.722 1061.98 941.722 1059.67C941.722 1057.39 943.675 1055.77 946.331 1055.75ZM946.331 1057.31C944.71 1057.29 943.519 1058.25 943.538 1059.67C943.519 1061.12 944.71 1062.07 946.331 1062.07C947.933 1062.07 949.124 1061.12 949.124 1059.67C949.124 1058.25 947.933 1057.29 946.331 1057.31ZM955.882 1055.16V1064.07H954.027V1055.16H955.882ZM955.882 1064.87V1069.28H946.234V1070.96H956.468V1072.45H944.437V1067.89H954.046V1066.35H944.378V1064.87H955.882ZM963.86 1065.61C963.841 1069.3 962.805 1072.37 960.97 1074.98H959.055C960.403 1073.03 961.692 1069.11 961.692 1065.61C961.692 1062.13 960.403 1058.19 959.055 1056.25H960.97C962.805 1058.87 963.841 1061.94 963.86 1065.61Z" fill="#8D92A2"/>
<path d="M63.5859 29.8984V51.0859H61.1016V29.8984H63.5859ZM59.2734 30.2969V50.0547H56.8125V39.3906H53.7656V37.2812H56.8125V30.2969H59.2734ZM51.8906 35.6875C51.8906 39.2734 53.1797 42.8594 56.2031 44.5938L54.6562 46.5156C52.6992 45.3438 51.3984 43.3281 50.6719 40.9141C49.9219 43.5273 48.5742 45.7539 46.5703 47.0078L44.9766 45.0625C48.0469 43.2109 49.3828 39.3672 49.3828 35.6875V34.2812H45.7031V32.1719H55.3125V34.2812H51.8906V35.6875ZM85.8862 41.7109V43.8203H77.4722V51.0625H74.8941V43.8203H66.5737V41.7109H85.8862ZM84.105 31.0938V33.1562H77.7534C77.9058 35.4766 80.6948 37.7031 84.8784 38.2422L83.9409 40.2812C80.3316 39.7773 77.5191 38.125 76.23 35.8281C74.9409 38.125 72.1284 39.7773 68.5659 40.2812L67.5816 38.2422C71.7417 37.7031 74.5308 35.4766 74.73 33.1562H68.355V31.0938H84.105ZM104.999 39.5312V41.5938H98.7178V46.4453H107.155V48.5781H87.7959V46.4453H96.1397V41.5938H90.1397V31.4688H104.835V33.5547H92.7412V39.5312H104.999ZM133.475 29.8984V51.0859H130.99V29.8984H133.475ZM128.975 30.4141V50.0781H126.514V40.3281H122.74C121.498 42.7656 119.506 44.875 116.506 46.6094L115.029 44.7578C119.424 42.168 121.428 38.8516 121.826 34.5859H116.107V32.4766H124.404C124.404 34.5273 124.158 36.4492 123.584 38.2422H126.514V30.4141H128.975ZM147.361 32.8047C147.361 36.0859 150.572 39.3672 155.002 40.1406L153.83 42.3203C150.279 41.5703 147.373 39.4258 146.002 36.5781C144.595 39.4023 141.689 41.5586 138.15 42.3203L137.002 40.1406C141.384 39.3438 144.572 36.0625 144.595 32.8047V31.2344H147.361V32.8047ZM155.775 46.2344V48.3906H136.416V46.2344H155.775ZM174.864 41.0078V43.0703H160.005V31.5625H174.677V33.6719H162.653V36.2266H174.185V38.2656H162.653V41.0078H174.864ZM176.997 46.375V48.5078H157.638V46.375H176.997ZM195.454 29.8984V38.3359H198.712V40.4922H195.454V51.0859H192.876V29.8984H195.454ZM191.235 33.1562V35.2422H178.743V33.1562H183.758V30.2031H186.36V33.1562H191.235ZM185.071 36.625C188.118 36.625 190.391 38.6875 190.391 41.6172C190.391 44.5469 188.118 46.5859 185.071 46.5859C181.977 46.5859 179.704 44.5469 179.727 41.6172C179.704 38.6875 181.977 36.625 185.071 36.625ZM185.071 38.7578C183.407 38.7578 182.212 39.8828 182.212 41.6172C182.212 43.3516 183.407 44.4531 185.071 44.4297C186.688 44.4531 187.883 43.3516 187.907 41.6172C187.883 39.8828 186.688 38.7578 185.071 38.7578ZM219.418 41.8281V43.9844H210.981V51.0859H208.402V43.9844H200.059V41.8281H219.418ZM209.692 30.6484C214.192 30.6719 217.332 32.5 217.332 35.4062C217.332 38.2891 214.192 40.0938 209.692 40.0938C205.168 40.0938 202.074 38.2891 202.098 35.4062C202.074 32.5 205.168 30.6719 209.692 30.6484ZM209.692 32.7578C206.692 32.7578 204.746 33.7422 204.77 35.4062C204.746 37.0469 206.692 38.0312 209.692 38.0312C212.692 38.0312 214.637 37.0469 214.637 35.4062C214.637 33.7422 212.692 32.7578 209.692 32.7578ZM232.25 32.8047C232.25 36.0859 235.461 39.3672 239.89 40.1406L238.718 42.3203C235.168 41.5703 232.261 39.4258 230.89 36.5781C229.484 39.4023 226.578 41.5586 223.039 42.3203L221.89 40.1406C226.273 39.3438 229.461 36.0625 229.484 32.8047V31.2344H232.25V32.8047ZM240.664 46.2344V48.3906H221.304V46.2344H240.664ZM256.319 34.2578C256.319 36.5547 258.03 38.8047 261.358 39.7188L260.163 41.7344C257.725 41.0781 255.991 39.6484 255.053 37.8203C254.116 39.8359 252.346 41.3945 249.827 42.1094L248.585 40.0938C251.936 39.1562 253.717 36.7891 253.717 34.2578V34.2109H249.288V32.1484H253.717V29.8047H256.342V32.1484H260.749V34.2109H256.319V34.2578ZM265.413 29.8984V35.0078H268.366V37.1641H265.413V42.3672H262.811V29.8984H265.413ZM265.413 43.2578V50.8281H251.725V43.2578H265.413ZM254.303 45.3203V48.7188H262.835V45.3203H254.303ZM275.713 31.4453C277.635 31.4453 279.217 32.5117 280.166 34.375H285.112V29.8984H287.69V51.1094H285.112V43.0938H280.354C279.44 45.2031 277.764 46.4219 275.713 46.4219C272.526 46.4219 270.276 43.5391 270.276 38.9219C270.276 34.3516 272.526 31.4453 275.713 31.4453ZM275.713 33.7891C273.955 33.7891 272.76 35.6875 272.783 38.9219C272.76 42.1797 273.955 44.0781 275.713 44.0781C277.471 44.0781 278.643 42.1797 278.666 38.9219C278.643 35.6875 277.471 33.7891 275.713 33.7891ZM280.893 36.5078C281.045 37.2461 281.127 38.0547 281.127 38.9219C281.127 39.6602 281.069 40.3398 280.963 40.9844H285.112V36.5078H280.893ZM309.158 31.4688V32.7344C309.134 34.1875 309.134 36.2734 308.642 38.9688L306.064 38.7344C306.474 36.543 306.556 34.9258 306.603 33.625H298.353V31.4688H309.158ZM303.814 36.2969V40.5156C306.005 40.4336 308.255 40.2695 310.306 39.9766L310.447 41.8516C306.04 42.6484 301.048 42.7188 297.322 42.7422L297.087 40.6562C298.341 40.6445 299.747 40.6328 301.236 40.6094V36.2969H303.814ZM314.22 29.8984V36.5078H316.962V38.6875H314.22V45.7656H311.548V29.8984H314.22ZM314.9 48.5547V50.6641H300.251V44.3594H302.876V48.5547H314.9ZM326.161 33.9531C326.161 35.9922 327.942 37.9375 331.223 38.6406L330.122 40.6094C327.638 40.0586 325.856 38.793 324.895 37.1172C323.946 38.9805 322.106 40.3984 319.528 41.0312L318.403 39.0156C321.731 38.2188 323.559 36.1797 323.559 33.9531V33.9297H319.13V31.8672H323.559V29.8281H326.184V31.8672H330.591V33.9297H326.161V33.9531ZM335.255 29.8984V34.3281H338.208V36.4609H335.255V40.9609H332.653V29.8984H335.255ZM335.255 41.8984V47.2891H324.005V48.8828H335.911V50.8984H321.427V45.3906H332.653V43.8906H321.403V41.8984H335.255Z" fill="#40424D"/>
<path d="M50.8203 85.1953C47.5391 85.1953 45.625 82.5586 45.625 77.9297C45.625 73.3398 47.5781 70.6641 50.8203 70.6641C54.0625 70.6641 56.0156 73.3398 56.0156 77.9297C56.0156 82.5586 54.082 85.1953 50.8203 85.1953ZM50.8203 83.3398C52.7344 83.3398 53.8672 81.4648 53.8672 77.9297C53.8672 74.4141 52.7148 72.4805 50.8203 72.4805C48.9258 72.4805 47.7734 74.4141 47.7734 77.9297C47.7734 81.4648 48.9062 83.3398 50.8203 83.3398ZM63.5836 85.1953C60.5172 85.1953 58.3687 83.5352 58.3883 81.2305C58.3687 79.4141 59.6773 77.9297 61.3375 77.6758V77.5977C59.8922 77.2656 58.9156 75.9766 58.9156 74.4336C58.9156 72.2656 60.8883 70.6641 63.5836 70.6641C66.2594 70.6641 68.2125 72.2656 68.232 74.4336C68.2125 75.9766 67.2359 77.2656 65.8102 77.5977V77.6758C67.4508 77.9297 68.7594 79.4141 68.7789 81.2305C68.7594 83.5352 66.6109 85.1953 63.5836 85.1953ZM63.5836 83.418C65.4195 83.418 66.5914 82.4609 66.5914 81.0742C66.5914 79.6094 65.3219 78.5547 63.5836 78.5547C61.8258 78.5547 60.5367 79.6094 60.5758 81.0742C60.5367 82.4609 61.7086 83.418 63.5836 83.418ZM63.5836 76.8555C65.068 76.8555 66.1227 75.957 66.1227 74.6289C66.1227 73.3203 65.0875 72.4219 63.5836 72.4219C62.0211 72.4219 61.0055 73.3008 61.0055 74.6289C61.0055 75.957 62.0797 76.8555 63.5836 76.8555ZM72.3625 85.1367C71.6008 85.1367 70.9562 84.5117 70.9758 83.75C70.9562 82.9883 71.6008 82.3633 72.3625 82.3633C73.1047 82.3633 73.7492 82.9883 73.7492 83.75C73.7492 84.5117 73.1047 85.1367 72.3625 85.1367ZM80.3016 70.8594V85H78.1336V73.0078H78.0555L74.6766 75.2148V73.1641L78.1922 70.8594H80.3016ZM89.2367 85.1953C86.1703 85.1953 84.0219 83.5352 84.0414 81.2305C84.0219 79.4141 85.3305 77.9297 86.9906 77.6758V77.5977C85.5453 77.2656 84.5687 75.9766 84.5687 74.4336C84.5687 72.2656 86.5414 70.6641 89.2367 70.6641C91.9125 70.6641 93.8656 72.2656 93.8852 74.4336C93.8656 75.9766 92.8891 77.2656 91.4633 77.5977V77.6758C93.1039 77.9297 94.4125 79.4141 94.432 81.2305C94.4125 83.5352 92.2641 85.1953 89.2367 85.1953ZM89.2367 83.418C91.0727 83.418 92.2445 82.4609 92.2445 81.0742C92.2445 79.6094 90.975 78.5547 89.2367 78.5547C87.4789 78.5547 86.1898 79.6094 86.2289 81.0742C86.1898 82.4609 87.3617 83.418 89.2367 83.418ZM89.2367 76.8555C90.7211 76.8555 91.7758 75.957 91.7758 74.6289C91.7758 73.3203 90.7406 72.4219 89.2367 72.4219C87.6742 72.4219 86.6586 73.3008 86.6586 74.6289C86.6586 75.957 87.7328 76.8555 89.2367 76.8555ZM98.0156 85.1367C97.2539 85.1367 96.6094 84.5117 96.6289 83.75C96.6094 82.9883 97.2539 82.3633 98.0156 82.3633C98.7578 82.3633 99.4023 82.9883 99.4023 83.75C99.4023 84.5117 98.7578 85.1367 98.0156 85.1367ZM107.976 77.5586C108.62 76.8359 109.421 76.4648 110.3 76.4648C111.823 76.4648 113.171 77.5781 114.655 77.5781C115.554 77.5781 116.335 77.1875 116.941 76.4062V78.2812C116.277 79.0039 115.495 79.375 114.616 79.375C113.093 79.375 111.726 78.2617 110.241 78.2617C109.362 78.2617 108.601 78.6523 107.976 79.4336V77.5586ZM125.748 85V83.4375L130.651 78.4961C132.194 76.875 132.975 75.9766 132.975 74.7461C132.975 73.3594 131.842 72.4609 130.358 72.4609C128.795 72.4609 127.78 73.457 127.78 74.9609H125.748C125.729 72.3828 127.702 70.6641 130.397 70.6641C133.131 70.6641 135.006 72.3828 135.026 74.6875C135.006 76.2695 134.264 77.5195 131.608 80.1367L128.737 83.0469V83.1641H135.26V85H125.748ZM142.965 85.1953C139.684 85.1953 137.77 82.5586 137.77 77.9297C137.77 73.3398 139.723 70.6641 142.965 70.6641C146.207 70.6641 148.16 73.3398 148.16 77.9297C148.16 82.5586 146.227 85.1953 142.965 85.1953ZM142.965 83.3398C144.879 83.3398 146.012 81.4648 146.012 77.9297C146.012 74.4141 144.859 72.4805 142.965 72.4805C141.07 72.4805 139.918 74.4141 139.918 77.9297C139.918 81.4648 141.051 83.3398 142.965 83.3398ZM151.646 85.1367C150.884 85.1367 150.24 84.5117 150.259 83.75C150.24 82.9883 150.884 82.3633 151.646 82.3633C152.388 82.3633 153.033 82.9883 153.033 83.75C153.033 84.5117 152.388 85.1367 151.646 85.1367ZM156.382 79.6094C156.402 75.9375 157.437 72.8711 159.273 70.2539H161.187C159.839 72.1875 158.55 76.1328 158.55 79.6094C158.55 83.1055 159.839 87.0312 161.187 88.9844H159.273C157.437 86.3672 156.402 83.3008 156.382 79.6094ZM163.481 85V83.4375L168.384 78.4961C169.927 76.875 170.708 75.9766 170.708 74.7461C170.708 73.3594 169.575 72.4609 168.091 72.4609C166.528 72.4609 165.512 73.457 165.512 74.9609H163.481C163.462 72.3828 165.434 70.6641 168.13 70.6641C170.864 70.6641 172.739 72.3828 172.759 74.6875C172.739 76.2695 171.997 77.5195 169.341 80.1367L166.47 83.0469V83.1641H172.993V85H163.481ZM188.92 69.1602V73.6328H191.459V75.1562H188.92V79.707H187.065V69.1602H188.92ZM188.92 80.5859V86.6602H187.065V82.0898H177.358V80.5859H188.92ZM177.67 70.2539V72.8711H182.26V70.2539H184.096V78.5938H175.854V70.2539H177.67ZM177.67 77.1094H182.26V74.3359H177.67V77.1094ZM203.763 85.1953C200.834 85.1953 198.744 83.6133 198.666 81.3086H200.853C200.931 82.5586 202.162 83.3398 203.744 83.3398C205.443 83.3398 206.693 82.4023 206.693 81.0352C206.693 79.6484 205.521 78.6328 203.509 78.6328H202.298V76.875H203.509C205.111 76.875 206.244 75.9766 206.244 74.6289C206.244 73.3398 205.287 72.4609 203.783 72.4609C202.357 72.4609 201.107 73.2422 201.048 74.5312H198.978C199.037 72.2266 201.166 70.6641 203.802 70.6641C206.576 70.6641 208.334 72.4219 208.314 74.5117C208.334 76.1133 207.337 77.2852 205.814 77.6562V77.7539C207.748 78.0273 208.861 79.3164 208.861 81.1133C208.861 83.4766 206.693 85.1953 203.763 85.1953ZM215.98 69.7461C218.616 69.7656 220.55 71.3867 220.57 73.6719C220.55 75.9766 218.616 77.5781 215.98 77.5781C213.323 77.5781 211.37 75.9766 211.37 73.6719C211.37 71.3867 213.323 69.7656 215.98 69.7461ZM215.98 71.3086C214.359 71.2891 213.167 72.2461 213.187 73.6719C213.167 75.1172 214.359 76.0742 215.98 76.0742C217.581 76.0742 218.773 75.1172 218.773 73.6719C218.773 72.2461 217.581 71.2891 215.98 71.3086ZM225.53 69.1602V78.0664H223.675V69.1602H225.53ZM225.53 78.8672V83.2812H215.882V84.9609H226.116V86.4453H214.085V81.8945H223.695V80.3516H214.027V78.8672H225.53ZM233.509 79.6094C233.489 83.3008 232.454 86.3672 230.618 88.9844H228.704C230.052 87.0312 231.341 83.1055 231.341 79.6094C231.341 76.1328 230.052 72.1875 228.704 70.2539H230.618C232.454 72.8711 233.489 75.9375 233.509 79.6094Z" fill="#8D92A2"/>
<rect x="1126" y="1" width="633" height="381" rx="59" fill="white"/>
<rect x="1126" y="1" width="633" height="381" rx="59" stroke="#56AFDF" stroke-width="2"/>
<path d="M1240.85 169.469V172.219H1229.6V181.281H1226.16V172.219H1215.04V169.469H1240.85ZM1221.6 154.156V157.625H1234.22V154.156H1237.72V166.531H1218.16V154.156H1221.6ZM1221.6 163.719H1234.22V160.375H1221.6V163.719ZM1265.65 153.031V159.594H1269.58V162.469H1265.65V168.938H1262.18V153.031H1265.65ZM1257.11 154.844V157.656H1247.99V164.875C1253.3 164.875 1256.26 164.672 1259.61 164L1259.99 166.75C1256.3 167.562 1252.99 167.688 1246.83 167.688H1244.55V154.844H1257.11ZM1265.65 170.219V180.906H1247.4V170.219H1265.65ZM1250.83 173V178.156H1262.21V173H1250.83ZM1286.25 156.906C1286.25 161.281 1290.54 165.656 1296.44 166.688L1294.88 169.594C1290.15 168.594 1286.27 165.734 1284.44 161.938C1282.57 165.703 1278.69 168.578 1273.97 169.594L1272.44 166.688C1278.29 165.625 1282.54 161.25 1282.57 156.906V154.812H1286.25V156.906ZM1297.47 174.812V177.688H1271.66V174.812H1297.47ZM1323.61 153.031V181.312H1320.14V166.281H1315.3V163.438H1320.14V153.031H1323.61ZM1313.68 155.5V165.844H1304.43V171.781C1308.61 171.766 1312 171.625 1315.8 170.938L1316.08 173.781C1311.86 174.531 1308.11 174.688 1303.24 174.688H1300.99V163.031H1310.27V158.312H1300.89V155.5H1313.68ZM1354.03 167V169.781H1343.13V174.969H1339.6V169.781H1328.22V167H1354.03ZM1351.19 177.875V180.719H1331.38V172.344H1334.88V177.875H1351.19ZM1341.1 153.656C1347.19 153.656 1351.22 155.875 1351.22 159.438C1351.22 163 1347.19 165.188 1341.1 165.188C1335 165.188 1330.97 163 1330.97 159.438C1330.97 155.875 1335 153.656 1341.1 153.656ZM1341.1 156.406C1337.22 156.406 1334.69 157.5 1334.72 159.438C1334.69 161.312 1337.22 162.406 1341.1 162.406C1345 162.406 1347.5 161.312 1347.5 159.438C1347.5 157.5 1345 156.406 1341.1 156.406ZM1387.25 154.188V164H1379.38V166.969H1390.53V169.781H1364.78V166.969H1375.88V164H1368.03V154.188H1387.25ZM1371.41 156.906V161.25H1383.81V156.906H1371.41ZM1387.38 172.156V181.281H1383.91V174.906H1367.63V172.156H1387.38ZM1403.45 157.875C1403.45 161.312 1405.74 164.781 1410.11 166.25L1408.36 168.938C1405.2 167.906 1402.97 165.766 1401.74 163.125C1400.5 166.078 1398.14 168.453 1394.8 169.562L1393.02 166.812C1397.52 165.344 1399.92 161.594 1399.92 157.906V157.531H1394.05V154.75H1409.3V157.531H1403.45V157.875ZM1416.74 171.219V181.281H1413.27V174H1397.49V171.219H1416.74ZM1416.74 153.031V169.875H1413.27V162.875H1408.45V160.031H1413.27V153.031H1416.74ZM1431.72 157.094C1431.69 160.938 1433.94 164.438 1438.38 165.844L1436.5 168.562C1433.42 167.484 1431.27 165.438 1430.06 162.75C1428.81 165.828 1426.45 168.25 1423.03 169.438L1421.19 166.625C1425.88 165.094 1428.22 161.312 1428.22 157.25V154.562H1431.72V157.094ZM1445.03 153.031V169.656H1441.56V161.344H1435.94V158.5H1441.56V153.031H1445.03ZM1435.47 170.406C1441.47 170.406 1445.13 172.406 1445.13 175.844C1445.13 179.281 1441.47 181.25 1435.47 181.25C1429.5 181.25 1425.84 179.281 1425.88 175.844C1425.84 172.406 1429.5 170.406 1435.47 170.406ZM1435.47 173.094C1431.53 173.094 1429.31 174.062 1429.31 175.844C1429.31 177.562 1431.53 178.531 1435.47 178.531C1439.41 178.531 1441.66 177.562 1441.66 175.844C1441.66 174.062 1439.41 173.094 1435.47 173.094ZM1475.42 167.625V170.406H1449.67V167.625H1475.42ZM1472.52 177.906V180.719H1452.86V172.5H1456.33V177.906H1472.52ZM1462.52 153.938C1468.67 153.938 1472.67 156.094 1472.7 159.656C1472.67 163.25 1468.67 165.438 1462.52 165.438C1456.36 165.438 1452.33 163.25 1452.33 159.656C1452.33 156.094 1456.36 153.938 1462.52 153.938ZM1462.52 156.719C1458.42 156.719 1455.92 157.781 1455.95 159.656C1455.92 161.562 1458.42 162.625 1462.52 162.594C1466.64 162.625 1469.11 161.562 1469.11 159.656C1469.11 157.781 1466.64 156.719 1462.52 156.719ZM1508.33 153.031V163.75H1512.67V166.594H1508.33V181.312H1504.86V153.031H1508.33ZM1500.58 155.719V158.531H1490.83V171.5C1495.22 171.5 1498.69 171.281 1502.58 170.594L1502.98 173.531C1498.61 174.281 1494.8 174.406 1489.7 174.406H1487.36V155.719H1500.58ZM1540.28 168.438V171.219H1514.47V168.438H1540.28ZM1537.72 177.906V180.719H1517.78V173H1521.28V177.906H1537.72ZM1537.09 153.781V161.312H1521.19V163.719H1537.65V166.344H1517.75V158.812H1533.62V156.5H1517.65V153.781H1537.09ZM1564.12 170.469C1569.97 170.469 1573.56 172.438 1573.59 175.844C1573.56 179.281 1569.97 181.281 1564.12 181.281C1558.22 181.281 1554.56 179.281 1554.56 175.844C1554.56 172.438 1558.22 170.469 1564.12 170.469ZM1564.12 173.188C1560.25 173.188 1558.03 174.094 1558.03 175.844C1558.03 177.594 1560.25 178.531 1564.12 178.531C1568 178.531 1570.15 177.594 1570.15 175.844C1570.15 174.094 1568 173.188 1564.12 173.188ZM1573.31 153.031V159.781H1577.25V162.688H1573.31V169.781H1569.84V153.031H1573.31ZM1555.43 154.812V158.625H1562.03V154.812H1565.47V168H1552V154.812H1555.43ZM1555.43 165.25H1562.03V161.344H1555.43V165.25ZM1605.11 167.156V169.938H1594.2V175.125H1590.76V169.938H1579.29V167.156H1605.11ZM1601.79 154.312V164.531H1582.57V154.312H1601.79ZM1585.95 157.031V161.812H1598.36V157.031H1585.95ZM1602.26 177.906V180.719H1582.42V172.531H1585.89V177.906H1602.26ZM1617.75 161.062C1617.75 165.438 1620.34 170.406 1624.81 172.469L1622.87 175.219C1619.68 173.719 1617.32 170.688 1616.06 167.156C1614.78 171.031 1612.31 174.344 1609.06 175.906L1607.03 173.188C1611.53 171.062 1614.25 165.75 1614.28 161.062V158.688H1608.12V155.812H1623.65V158.688H1617.75V161.062ZM1629.75 153.031V164.031H1634.09V166.938H1629.75V181.281H1626.28V153.031H1629.75ZM1661.7 165.844V168.469H1635.89V165.844H1661.7ZM1658.57 170.156V176.594H1642.39V178.562H1659.42V180.969H1638.92V174.344H1655.14V172.594H1638.89V170.156H1658.57ZM1658.51 153.656V160.031H1642.6V161.875H1659.01V164.25H1639.17V157.781H1655.04V156.062H1639.07V153.656H1658.51ZM1325 201.469V203.688H1337.19V201.469H1340.63V210.875H1321.57V201.469H1325ZM1325 208.281H1337.19V206.219H1325V208.281ZM1343.97 212.625V215.469H1332.78V217.562H1340.75V224.406H1324.69V226.375H1341.53V229.031H1321.28V221.969H1337.35V220.125H1321.25V217.562H1329.32V215.469H1318.22V212.625H1343.97ZM1370.17 201.031V221.906H1366.71V214.531H1362.71V211.656H1366.71V208.969H1362.71V206.156H1366.71V201.031H1370.17ZM1362.3 203.156V205.938H1359.8V214.938C1360.86 214.875 1361.89 214.797 1362.89 214.688L1363.05 217.219C1357.71 218.094 1351.42 218.188 1346.92 218.188L1346.55 215.312L1349.74 215.281V205.938H1347.27V203.156H1362.3ZM1370.89 225.906V228.719H1351.61V220.281H1355.11V225.906H1370.89ZM1353.11 215.25L1356.46 215.125V205.938H1353.11V215.25ZM1396.94 201.031V212.281H1401.28V215.156H1396.94V229.281H1393.5V201.031H1396.94ZM1391.31 205.375V208.156H1374.66V205.375H1381.35V201.438H1384.81V205.375H1391.31ZM1383.1 210C1387.16 210 1390.19 212.75 1390.19 216.656C1390.19 220.562 1387.16 223.281 1383.1 223.281C1378.97 223.281 1375.94 220.562 1375.97 216.656C1375.94 212.75 1378.97 210 1383.1 210ZM1383.1 212.844C1380.88 212.844 1379.28 214.344 1379.28 216.656C1379.28 218.969 1380.88 220.438 1383.1 220.406C1385.25 220.438 1386.85 218.969 1386.88 216.656C1386.85 214.344 1385.25 212.844 1383.1 212.844ZM1427.49 201.031V229.281H1424.17V201.031H1427.49ZM1421.49 201.719V227.938H1418.2V214.938H1413.17C1411.52 218.188 1408.86 221 1404.86 223.312L1402.89 220.844C1408.75 217.391 1411.42 212.969 1411.95 207.281H1404.33V204.469H1415.39C1415.39 207.203 1415.06 209.766 1414.3 212.156H1418.2V201.719H1421.49ZM1461.92 200.969V207.344H1465.89V210.156H1461.92V216.375H1458.45V200.969H1461.92ZM1461.92 217.625V224.438H1446.92V226.438H1462.8V229.031H1443.48V222.031H1458.45V220.156H1443.45V217.625H1461.92ZM1456.42 203.312V205.969H1439.67V203.312H1446.33V200.812H1449.8V203.312H1456.42ZM1448.05 206.844C1452.23 206.875 1454.92 208.656 1454.95 211.469C1454.92 214.375 1452.23 216.094 1448.05 216.094C1443.86 216.094 1441.11 214.375 1441.11 211.469C1441.11 208.656 1443.86 206.875 1448.05 206.844ZM1448.05 209.344C1445.86 209.344 1444.48 210.125 1444.48 211.469C1444.48 212.844 1445.86 213.594 1448.05 213.594C1450.23 213.594 1451.64 212.844 1451.64 211.469C1451.64 210.125 1450.23 209.344 1448.05 209.344ZM1490.89 203.375C1490.89 206.938 1494.86 210.531 1500.89 211.312L1499.51 214.125C1494.72 213.406 1490.9 211.047 1489.08 207.844C1487.22 211.047 1483.42 213.406 1478.67 214.125L1477.3 211.312C1483.26 210.531 1487.23 206.938 1487.23 203.375V201.938H1490.89V203.375ZM1501.92 216.562V219.438H1490.7V229.281H1487.26V219.438H1476.17V216.562H1501.92ZM1522.73 219.406C1522.73 221.75 1523.81 224.219 1526.23 225.75C1528.68 224.109 1529.83 221.547 1529.86 219.406V218.25H1533.26V219.406C1533.23 222.375 1534.98 225.125 1538.7 226.312L1537.01 228.844C1534.26 227.922 1532.43 226.125 1531.45 223.875C1530.54 226.094 1528.87 228.078 1526.33 229.094C1523.64 228.125 1521.95 226.219 1521.08 223.969C1520.06 226.141 1518.26 227.906 1515.64 228.844L1513.92 226.312C1517.58 225.031 1519.33 222.156 1519.36 219.406V218.25H1522.73V219.406ZM1536.23 201.062V217.062H1532.73V201.062H1536.23ZM1520.83 202.562C1525.17 202.562 1528.42 205.312 1528.42 209.281C1528.42 213.219 1525.17 215.969 1520.83 215.969C1516.45 215.969 1513.2 213.219 1513.2 209.281C1513.2 205.312 1516.45 202.562 1520.83 202.562ZM1520.83 205.5C1518.36 205.5 1516.58 206.969 1516.61 209.281C1516.58 211.594 1518.36 213.094 1520.83 213.094C1523.26 213.094 1525.01 211.594 1525.01 209.281C1525.01 206.969 1523.26 205.5 1520.83 205.5ZM1553.84 201.594C1560.09 201.594 1564 203.656 1564.03 207.094C1564 210.469 1560.09 212.5 1553.84 212.469C1547.65 212.5 1543.65 210.469 1543.65 207.094C1543.65 203.656 1547.65 201.594 1553.84 201.594ZM1553.84 204.312C1549.72 204.312 1547.25 205.281 1547.28 207.094C1547.25 208.812 1549.72 209.75 1553.84 209.781C1557.97 209.75 1560.43 208.812 1560.43 207.094C1560.43 205.281 1557.97 204.312 1553.84 204.312ZM1563.62 219.438V228.938H1544.03V219.438H1563.62ZM1547.47 222.188V226.125H1560.25V222.188H1547.47ZM1566.75 214.375V217.188H1541V214.375H1566.75Z" fill="#525666"/>
<rect x="1125" y="383" width="635" height="383" rx="60" fill="#56AFDF"/>
<path d="M1275.68 536.031V543.188H1279.61V546.094H1275.68V553.062H1272.21V536.031H1275.68ZM1275.68 554.406V563.938H1257.43V554.406H1275.68ZM1260.86 557.156V561.125H1272.24V557.156H1260.86ZM1270.18 538.75V541.531H1253.43V538.75H1260.08V535.844H1263.55V538.75H1270.18ZM1261.8 542.562C1265.9 542.562 1268.68 544.625 1268.71 547.625C1268.68 550.656 1265.9 552.688 1261.8 552.688C1257.68 552.688 1254.86 550.656 1254.86 547.625C1254.86 544.625 1257.68 542.562 1261.8 542.562ZM1261.8 545.188C1259.65 545.188 1258.24 546.094 1258.24 547.625C1258.24 549.188 1259.65 550.094 1261.8 550.094C1263.96 550.094 1265.4 549.188 1265.4 547.625C1265.4 546.094 1263.96 545.188 1261.8 545.188ZM1288.66 539.344C1288.63 546 1287.88 552.438 1284.13 558L1281.41 556.531C1284.54 552.141 1285.44 547.562 1285.66 542.156H1282.22V539.344H1288.66ZM1294.97 539.344C1294.96 541.766 1294.91 544.281 1294.66 546.781H1297.5V536.719H1300.79V562.938H1297.5V549.594H1294.29C1293.66 553.094 1292.52 556.5 1290.44 559.562L1287.79 558.062C1291.18 553.203 1291.83 547.766 1291.97 542.156H1289.5V539.344H1294.97ZM1306.25 536.031V564.281H1302.91V536.031H1306.25ZM1332.57 538.469V551.812H1319.19V538.469H1332.57ZM1322.6 541.25V549.062H1329.16V541.25H1322.6ZM1340.5 536.031V544.312H1344.44V547.219H1340.5V556.656H1337.03V536.031H1340.5ZM1341.63 560.906V563.719H1322.41V554.656H1325.88V560.906H1341.63ZM1369.46 549.281V552.062H1349.64V538.5H1369.24V541.312H1353.08V549.281H1369.46ZM1372.33 557.812V560.688H1346.52V557.812H1372.33ZM1397.69 544.031V546.781H1378.13V537.062H1381.56V544.031H1397.69ZM1400.6 550.062V552.812H1374.78V550.062H1400.6ZM1397.88 560.812V563.625H1377.88V555.312H1381.35V560.812H1397.88ZM1435 536.062V554.906H1431.53V546.531H1426.16V543.688H1431.53V536.062H1435ZM1425.97 538.25C1425.94 545.719 1421.63 550.844 1413.22 553.469L1411.72 550.75C1418.22 548.797 1421.63 545.406 1422.22 541.031H1413.19V538.25H1425.97ZM1427.31 553.781C1427.28 557.281 1430.78 560.469 1436.41 561.375L1435 564.125C1430.63 563.375 1427.25 561.312 1425.56 558.375C1423.83 561.312 1420.44 563.391 1416.06 564.156L1414.69 561.406C1420.34 560.562 1423.84 557.281 1423.84 553.781V552.688H1427.31V553.781ZM1464.02 536.031V564.281H1460.67V536.031H1464.02ZM1458.2 536.531V562.906H1454.89V549.469H1452.2C1451.88 554.969 1449.52 558.375 1446.02 558.344C1442.33 558.375 1439.92 554.469 1439.92 548.25C1439.92 542.031 1442.33 538.188 1446.02 538.188C1449.44 538.188 1451.77 541.375 1452.17 546.656H1454.89V536.531H1458.2ZM1446.02 541.469C1444.23 541.438 1443.11 543.844 1443.14 548.25C1443.11 552.656 1444.23 555.062 1446.02 555.031C1447.89 555.062 1449.02 552.656 1449.02 548.25C1449.02 543.844 1447.89 541.438 1446.02 541.469ZM1501.98 558.094V560.938H1476.17V558.094H1487.33V552.25H1490.76V558.094H1501.98ZM1499.67 540.125V542.938H1490.86C1491.09 546.453 1494.76 549.688 1500.86 550.5L1499.58 553.219C1494.69 552.531 1490.92 550.359 1489.05 547.25C1487.17 550.359 1483.44 552.531 1478.55 553.219L1477.23 550.5C1483.36 549.688 1487.01 546.453 1487.3 542.938H1478.45V540.125H1487.33V536.469H1490.76V540.125H1499.67ZM1528.12 536.031V552.438H1524.65V545.594H1519.78V542.75H1524.65V536.031H1528.12ZM1528.12 553.656V563.938H1509.34V553.656H1528.12ZM1512.81 556.406V561.125H1524.72V556.406H1512.81ZM1514.84 540.688C1514.84 544.094 1517.12 547.562 1521.5 549.062L1519.75 551.812C1516.59 550.734 1514.36 548.594 1513.12 545.938C1511.87 548.875 1509.51 551.234 1506.19 552.344L1504.4 549.625C1508.9 548.125 1511.31 544.406 1511.31 540.656V540.438H1505.44V537.625H1520.69V540.438H1514.84V540.688ZM1545.61 536.469C1552.04 536.469 1555.76 538.188 1555.79 541.312C1555.76 544.469 1552.04 546.156 1545.61 546.188C1539.17 546.156 1535.42 544.469 1535.42 541.312C1535.42 538.188 1539.17 536.469 1545.61 536.469ZM1545.61 539.031C1541.29 539.031 1539.04 539.844 1539.08 541.312C1539.04 542.875 1541.29 543.594 1545.61 543.594C1549.98 543.594 1552.2 542.875 1552.2 541.312C1552.2 539.844 1549.98 539.031 1545.61 539.031ZM1558.51 547.688V550.469H1532.76V547.688H1558.51ZM1555.29 552.375V559.281H1539.23V561.375H1556.08V564.031H1535.83V556.812H1551.89V554.938H1535.79V552.375H1555.29ZM1591.98 546.25V549H1572.64V537.594H1591.67V540.375H1576.2V546.25H1591.98ZM1595.07 552.125V554.938H1583.82V564.219H1580.39V554.938H1569.26V552.125H1595.07ZM1605.31 538.094C1609.14 538.094 1611.96 541.281 1612.46 546.438H1617.84V536.031H1621.28V564.312H1617.84V549.25H1612.5C1612.12 554.703 1609.25 558.062 1605.31 558.062C1601.06 558.062 1598.06 554.219 1598.06 548.062C1598.06 541.969 1601.06 538.094 1605.31 538.094ZM1605.31 541.219C1602.96 541.219 1601.37 543.75 1601.4 548.062C1601.37 552.406 1602.96 554.938 1605.31 554.938C1607.65 554.938 1609.21 552.406 1609.25 548.062C1609.21 543.75 1607.65 541.219 1605.31 541.219ZM1335.06 601.688C1341.18 601.719 1345.06 603.656 1345.09 607C1345.06 610.281 1341.18 612.25 1335.06 612.25C1328.96 612.25 1325.06 610.281 1325.06 607C1325.06 603.656 1328.96 601.719 1335.06 601.688ZM1335.06 604.312C1331 604.312 1328.53 605.281 1328.56 607C1328.53 608.656 1331 609.562 1335.06 609.562C1339.15 609.562 1341.62 608.656 1341.65 607C1341.62 605.281 1339.15 604.312 1335.06 604.312ZM1344.9 585.375V587.719C1344.9 589.938 1344.9 592.312 1344.12 595.219L1340.68 594.906C1341.39 592.156 1341.43 590.172 1341.43 588.125H1325.34V585.375H1344.9ZM1348.03 596.844V599.656H1322.4V596.844H1332.34V591.719H1335.78V596.844H1348.03ZM1376.42 597.562V600.344H1350.64V597.562H1361.82V594.875H1353.79V585.312H1373.29V588.031H1357.26V592.125H1373.45V594.875H1365.23V597.562H1376.42ZM1363.48 601.969C1369.57 601.969 1373.23 603.812 1373.26 607.125C1373.23 610.406 1369.57 612.281 1363.48 612.281C1357.32 612.281 1353.64 610.406 1353.64 607.125C1353.64 603.812 1357.32 601.969 1363.48 601.969ZM1363.48 604.625C1359.35 604.625 1357.14 605.5 1357.17 607.125C1357.14 608.75 1359.35 609.594 1363.48 609.594C1367.51 609.594 1369.76 608.75 1369.79 607.125C1369.76 605.5 1367.51 604.625 1363.48 604.625ZM1388.09 586C1392.56 585.969 1395.84 588.812 1395.87 592.812C1395.84 596.844 1392.56 599.656 1388.09 599.656C1383.65 599.656 1380.34 596.844 1380.34 592.812C1380.34 588.812 1383.65 585.969 1388.09 586ZM1388.09 589C1385.62 589 1383.78 590.469 1383.78 592.812C1383.78 595.188 1385.62 596.625 1388.09 596.625C1390.59 596.625 1392.46 595.188 1392.46 592.812C1392.46 590.469 1390.59 589 1388.09 589ZM1402.46 584.031V612.312H1398.99V584.031H1402.46ZM1379.06 603.562C1384.15 603.562 1391.21 603.5 1397.31 602.625L1397.59 605.156C1391.24 606.375 1384.46 606.406 1379.49 606.406L1379.06 603.562ZM1437.93 585.188V595H1430.05V597.969H1441.21V600.781H1415.46V597.969H1426.55V595H1418.71V585.188H1437.93ZM1422.09 587.906V592.25H1434.49V587.906H1422.09ZM1438.05 603.156V612.281H1434.59V605.906H1418.3V603.156H1438.05ZM1469.57 606.219V609.031H1443.76V606.219H1450.45V600.406H1445.98V597.594H1449.95V589.219H1445.88V586.438H1467.32V589.219H1463.2V597.594H1467.23V600.406H1462.76V606.219H1469.57ZM1453.41 597.594H1459.76V589.219H1453.41V597.594ZM1453.91 606.219H1459.29V600.406H1453.91V606.219ZM1497.83 596.844V599.469H1472.02V596.844H1497.83ZM1494.71 601.156V607.594H1478.52V609.562H1495.55V611.969H1475.05V605.344H1491.27V603.594H1475.02V601.156H1494.71ZM1494.65 584.656V591.031H1478.74V592.875H1495.15V595.25H1475.3V588.781H1491.18V587.062H1475.21V584.656H1494.65ZM1530.86 584.031V590.906H1534.8V593.75H1530.86V600.594H1527.4V584.031H1530.86ZM1523.05 585.969C1523.05 593.406 1518.21 598.656 1509.86 601.031L1508.49 598.219C1514.9 596.469 1518.69 593.016 1519.3 588.781H1509.77V585.969H1523.05ZM1521.74 600.938C1527.46 600.938 1531.18 603.125 1531.18 606.594C1531.18 610.125 1527.46 612.25 1521.74 612.25C1516.05 612.25 1512.27 610.125 1512.3 606.594C1512.27 603.125 1516.05 600.938 1521.74 600.938ZM1521.74 603.656C1518.02 603.656 1515.71 604.719 1515.74 606.594C1515.71 608.438 1518.02 609.531 1521.74 609.531C1525.46 609.531 1527.77 608.438 1527.77 606.594C1527.77 604.719 1525.46 603.656 1521.74 603.656ZM1562.69 606.031V608.875H1536.88V606.031H1548.04V599.531H1551.51V606.031H1562.69ZM1560.47 586.312V589.156H1551.57C1551.68 593.219 1555.86 596.953 1561.66 597.812L1560.29 600.562C1555.51 599.688 1551.6 597.172 1549.79 593.656C1547.96 597.219 1544.08 599.828 1539.38 600.719L1538.01 597.969C1543.65 597.016 1547.8 593.219 1547.91 589.156H1539.04V586.312H1560.47Z" fill="white"/>
<rect x="1482" y="344" width="78" height="78" rx="39" transform="rotate(90 1482 344)" fill="#56AFDF"/>
<rect x="1482" y="344" width="78" height="78" rx="39" transform="rotate(90 1482 344)" stroke="white" stroke-width="2"/>
<path d="M1443 399L1451.66 384L1434.34 384L1443 399ZM1443 367L1441.5 367L1441.5 385.5L1443 385.5L1444.5 385.5L1444.5 367L1443 367Z" fill="white"/>
<rect x="357" y="1330" width="78" height="78" rx="39" transform="rotate(90 357 1330)" fill="#56AFDF"/>
<rect x="357" y="1330" width="78" height="78" rx="39" transform="rotate(90 357 1330)" stroke="white" stroke-width="2"/>
<path d="M318 1385L326.66 1370L309.34 1370L318 1385ZM318 1353L316.5 1353L316.5 1371.5L318 1371.5L319.5 1371.5L319.5 1353L318 1353Z" fill="white"/>
</svg>
