<svg width="1119" height="154" viewBox="0 0 1119 154" fill="none" xmlns="http://www.w3.org/2000/svg">
<rect width="189" height="54" rx="27" fill="#56AFDF"/>
<path d="M25.3863 34V19.8594H34.4488V21.9883H27.9254V25.8555H33.8238V27.9844H27.9254V34H25.3863ZM36.8801 34V23.3945H39.3801V34H36.8801ZM38.1496 21.8906C37.3684 21.8906 36.7043 21.2852 36.7043 20.5234C36.7043 19.7812 37.3684 19.1758 38.1496 19.1758C38.9504 19.1758 39.5949 19.7812 39.5949 20.5234C39.5949 21.2852 38.9504 21.8906 38.1496 21.8906ZM46.8699 34.2148C43.6668 34.2148 41.7137 32.0859 41.7137 28.7656C41.7137 25.4844 43.7059 23.2578 46.7332 23.2578C49.3309 23.2578 51.577 24.8789 51.577 28.6094V29.3906H44.1746C44.2039 31.1973 45.2684 32.2617 46.8895 32.2617C47.9832 32.2617 48.7254 31.793 49.0379 31.168H51.4793C51.0301 33.0039 49.3309 34.2148 46.8699 34.2148ZM44.1941 27.6914H49.1941C49.1746 26.2461 48.2176 25.1914 46.7723 25.1914C45.2684 25.1914 44.2723 26.334 44.1941 27.6914ZM56.4105 19.8594V34H53.9105V19.8594H56.4105ZM63.1387 34.1953C60.6387 34.1953 58.7637 32.2031 58.7637 28.707C58.7637 25.1719 60.6973 23.2578 63.1582 23.2578C65.0332 23.2578 65.8145 24.3711 66.1855 25.1328H66.2832V19.8594H68.7637V34H66.3223V32.3203H66.1855C65.7949 33.1016 64.9746 34.1953 63.1387 34.1953ZM63.8223 32.1445C65.4238 32.1445 66.3418 30.7578 66.3418 28.6875C66.3418 26.6367 65.4434 25.2891 63.8223 25.2891C62.1621 25.2891 61.3027 26.7148 61.3027 28.6875C61.3027 30.6992 62.1816 32.1445 63.8223 32.1445ZM76.9465 34V19.8594H82.259C85.5012 19.8594 87.2395 21.6758 87.2395 24.3711C87.2395 26.2949 86.3605 27.7207 84.7004 28.3945L87.7473 34H84.9152L82.1418 28.8242H79.4855V34H76.9465ZM79.4855 26.6953H81.8684C83.7824 26.6953 84.6418 25.875 84.6418 24.3711C84.6418 22.8672 83.7824 21.9883 81.8684 21.9883H79.4855V26.6953ZM94.2606 34.2148C91.0574 34.2148 89.1043 32.0859 89.1043 28.7656C89.1043 25.4844 91.0965 23.2578 94.1238 23.2578C96.7215 23.2578 98.9676 24.8789 98.9676 28.6094V29.3906H91.5652C91.5945 31.1973 92.659 32.2617 94.2801 32.2617C95.3738 32.2617 96.116 31.793 96.4285 31.168H98.8699C98.4207 33.0039 96.7215 34.2148 94.2606 34.2148ZM91.5848 27.6914H96.5848C96.5652 26.2461 95.6082 25.1914 94.1629 25.1914C92.659 25.1914 91.6629 26.334 91.5848 27.6914ZM107.317 26.4219C107.161 25.6211 106.496 25.1133 105.442 25.1133C104.368 25.1133 103.586 25.6406 103.606 26.3633C103.586 26.9102 104.036 27.3203 105.11 27.5742L106.907 27.9453C108.918 28.3945 109.875 29.3125 109.895 30.8359C109.875 32.8281 108.137 34.2148 105.364 34.2148C102.668 34.2148 101.067 33.0039 100.813 30.9727H103.352C103.508 31.8711 104.211 32.3203 105.364 32.3203C106.555 32.3203 107.356 31.832 107.356 31.0508C107.356 30.4453 106.868 30.0547 105.813 29.8203L104.114 29.4492C102.141 29.0586 101.125 28.0234 101.125 26.5C101.125 24.5469 102.805 23.2578 105.403 23.2578C107.942 23.2578 109.504 24.4883 109.68 26.4219H107.317ZM116.896 34.2148C113.693 34.2148 111.74 32.0859 111.74 28.7656C111.74 25.4844 113.732 23.2578 116.76 23.2578C119.357 23.2578 121.604 24.8789 121.604 28.6094V29.3906H114.201C114.23 31.1973 115.295 32.2617 116.916 32.2617C118.01 32.2617 118.752 31.793 119.064 31.168H121.506C121.057 33.0039 119.357 34.2148 116.896 34.2148ZM114.221 27.6914H119.221C119.201 26.2461 118.244 25.1914 116.799 25.1914C115.295 25.1914 114.299 26.334 114.221 27.6914ZM123.449 31.0117C123.449 28.6289 125.421 27.9258 127.394 27.8086C128.127 27.7598 129.65 27.6719 130.109 27.6523V26.8125C130.109 25.7578 129.425 25.1523 128.195 25.1523C127.082 25.1523 126.398 25.6602 126.203 26.4219H123.8C123.976 24.625 125.597 23.2578 128.254 23.2578C130.265 23.2578 132.589 24.0781 132.589 26.9102V34H130.207V32.5352H130.129C129.66 33.4336 128.664 34.2148 127.004 34.2148C124.972 34.2148 123.449 33.1016 123.449 31.0117ZM125.851 30.9922C125.851 31.9102 126.593 32.3789 127.648 32.3789C129.152 32.3789 130.129 31.3828 130.129 30.1914V29.3125L127.785 29.4688C126.593 29.5664 125.851 30.0547 125.851 30.9922ZM135.333 34V23.3945H137.755V25.1523H137.872C138.243 23.9414 139.279 23.2383 140.489 23.2383C140.763 23.2383 141.154 23.2578 141.388 23.2969V25.6016C141.173 25.5234 140.646 25.4453 140.236 25.4453C138.849 25.4453 137.833 26.4023 137.833 27.75V34H135.333ZM147.55 34.2148C144.386 34.2148 142.471 31.9492 142.471 28.7461C142.471 25.5039 144.444 23.2578 147.55 23.2578C150.128 23.2578 151.925 24.7617 152.1 27.0469H149.718C149.522 26.0312 148.78 25.25 147.569 25.25C146.026 25.25 144.991 26.5586 144.991 28.6875C144.991 30.875 146.007 32.1836 147.569 32.1836C148.682 32.1836 149.503 31.5391 149.718 30.3867H152.1C151.905 32.6328 150.206 34.2148 147.55 34.2148ZM156.875 27.7891V34H154.375V19.8594H156.817V25.1914H156.954C157.442 24 158.457 23.2578 160.098 23.2578C162.305 23.2578 163.75 24.6836 163.75 27.2422V34H161.27V27.6328C161.27 26.1875 160.489 25.3672 159.18 25.3672C157.832 25.3672 156.875 26.2461 156.875 27.7891Z" fill="white"/>
<path d="M31.875 106.047V141.594H27.1875V106.047H31.875ZM24.2969 106.828V140.031H19.6484V123.703H13.8281C11.7969 127.766 8.49609 131.281 3.4375 134.211L0.625 130.695C7.79297 126.438 10.957 121.262 11.6406 114.289H2.57812V110.266H16.6016C16.582 113.645 16.2305 116.828 15.3906 119.758H19.6484V106.828H24.2969ZM55.1359 110.734C55.1359 115.93 59.7453 121.516 67.7922 122.883L65.6047 127.023C59.4133 125.793 54.8039 122.316 52.5187 117.727C50.1555 122.277 45.5461 125.773 39.3937 127.023L37.2453 122.883C45.1359 121.477 49.7844 115.891 49.8234 110.734V108.156H55.1359V110.734ZM68.9641 133.117V137.219H36.425V133.117H68.9641ZM100.78 124.406V128.352H75.6234V108.664H100.506V112.688H80.7016V116.438H99.6859V120.344H80.7016V124.406H100.78ZM104.334 133.391V137.453H71.7953V133.391H104.334ZM135.213 106.047V119.953H140.447V124.055H135.213V141.594H130.291V106.047H135.213ZM127.869 111.359V115.344H106.97V111.359H115.017V106.594H120.017V111.359H127.869ZM117.517 117.336C122.713 117.336 126.58 120.852 126.58 125.812C126.58 130.773 122.713 134.289 117.517 134.289C112.283 134.289 108.416 130.773 108.416 125.812C108.416 120.852 112.283 117.336 117.517 117.336ZM117.517 121.359C115.017 121.398 113.181 123.078 113.181 125.812C113.181 128.586 115.017 130.227 117.517 130.188C120.017 130.227 121.814 128.586 121.814 125.812C121.814 123.078 120.017 121.398 117.517 121.359ZM175.036 125.93V129.992H161.13V141.633H156.208V129.992H142.497V125.93H175.036ZM158.669 107.219C166.286 107.219 171.637 110.383 171.637 115.305C171.637 120.148 166.286 123.234 158.669 123.234C151.052 123.234 145.739 120.148 145.778 115.305C145.739 110.383 151.052 107.219 158.669 107.219ZM158.669 111.203C153.903 111.203 150.856 112.688 150.895 115.305C150.856 117.844 153.903 119.289 158.669 119.289C163.473 119.289 166.481 117.844 166.481 115.305C166.481 112.688 163.473 111.203 158.669 111.203ZM196.617 110.734C196.617 115.93 201.227 121.516 209.273 122.883L207.086 127.023C200.895 125.793 196.285 122.316 194 117.727C191.637 122.277 187.027 125.773 180.875 127.023L178.727 122.883C186.617 121.477 191.266 115.891 191.305 110.734V108.156H196.617V110.734ZM210.445 133.117V137.219H177.906V133.117H210.445ZM243.569 109.602V113.508H236.381C236.479 117.082 239.057 120.676 244.702 122.18L242.436 126.008C238.393 124.953 235.58 122.727 233.959 119.836C232.397 123.02 229.565 125.5 225.366 126.633L223.022 122.805C228.666 121.262 231.342 117.434 231.42 113.508H224.272V109.602H231.42V105.891H236.459V109.602H243.569ZM251.498 106.047V114.406H256.303V118.469H251.498V126.867H246.498V106.047H251.498ZM251.498 128.352V141.203H228.256V128.352H251.498ZM233.178 132.297V137.219H246.577V132.297H233.178ZM268.47 108.547C271.654 108.547 274.31 110.305 275.931 113.352H283.744V106.047H288.666V141.672H283.744V128.352H276.322C274.72 131.867 271.908 133.898 268.47 133.898C263.08 133.898 259.212 129.016 259.252 121.203C259.212 113.469 263.08 108.547 268.47 108.547ZM268.47 113.039C265.814 113.039 263.978 115.93 264.017 121.203C263.978 126.516 265.814 129.367 268.47 129.367C271.166 129.367 272.923 126.516 272.923 121.203C272.923 115.93 271.166 113.039 268.47 113.039ZM277.337 117.375C277.552 118.547 277.689 119.836 277.689 121.203C277.689 122.316 277.591 123.371 277.455 124.367H283.744V117.375H277.337ZM323.977 108.625V110.852C323.977 113.312 323.977 116.867 323.156 121.281L318.273 120.812C318.898 117.395 319.055 114.816 319.094 112.688H305.695V108.625H323.977ZM315.148 116.828V123.625C318.684 123.488 322.316 123.215 325.656 122.727L325.93 126.32C318.547 127.688 310.188 127.805 304.016 127.844L303.586 123.859C305.578 123.859 307.824 123.859 310.188 123.781V116.828H315.148ZM332.688 106.047V116.867H336.984V121.047H332.688V132.648H327.57V106.047H332.688ZM333.781 136.984V140.969H308.82V130.266H313.82V136.984H333.781ZM359.698 109.133V113.039H352.511C352.648 116.164 355.343 119.191 360.87 120.344L358.722 124.133C354.601 123.254 351.73 121.242 350.128 118.586C348.527 121.555 345.577 123.82 341.222 124.797L339.112 120.93C344.718 119.66 347.433 116.477 347.55 113.039H340.402V109.133H347.55V105.93H352.589V109.133H359.698ZM367.628 106.047V113.234H372.433V117.297H367.628V124.523H362.628V106.047H367.628ZM367.628 125.969V135.383H348.995V137.531H368.644V141.359H344.112V131.789H362.667V129.797H344.034V125.969H367.628ZM391.006 106.555C399.17 106.555 403.897 108.703 403.936 112.609C403.897 116.555 399.17 118.703 391.006 118.703C382.803 118.703 378.038 116.555 378.038 112.609C378.038 108.703 382.803 106.555 391.006 106.555ZM391.006 110.188C385.772 110.188 383.233 111.047 383.272 112.609C383.233 114.367 385.772 115.031 391.006 115.031C396.28 115.031 398.78 114.367 398.78 112.609C398.78 111.047 396.28 110.188 391.006 110.188ZM407.217 120.383V124.328H374.795V120.383H407.217ZM403.272 126.398V135.461H383.467V137.609H404.209V141.359H378.584V131.984H398.35V130.031H378.545V126.398H403.272ZM452.606 124.367V128.273H420.106V124.367H433.856V122.18H424.169V106.906H448.817V110.734H429.169V112.727H447.997V116.32H429.169V118.352H449.13V122.18H438.856V124.367H452.606ZM436.356 129.914C444.208 129.875 448.7 131.984 448.739 135.734C448.7 139.562 444.208 141.594 436.356 141.594C428.388 141.594 423.895 139.562 423.895 135.734C423.895 131.984 428.388 129.875 436.356 129.914ZM436.356 133.586C431.239 133.586 428.856 134.25 428.895 135.734C428.856 137.258 431.239 137.922 436.356 137.922C441.356 137.922 443.7 137.258 443.739 135.734C443.7 134.25 441.356 133.586 436.356 133.586ZM472.703 111.477V115.422H455.516V111.477H461.688V107.023H466.609V111.477H472.703ZM464.188 117.023C468.719 117.023 471.961 120.539 472 125.461C471.961 130.422 468.719 133.938 464.188 133.938C459.656 133.938 456.336 130.422 456.336 125.461C456.336 120.539 459.656 117.023 464.188 117.023ZM464.188 121.164C462.117 121.164 460.711 122.766 460.711 125.461C460.711 128.156 462.117 129.719 464.188 129.719C466.18 129.719 467.586 128.156 467.625 125.461C467.586 122.766 466.18 121.164 464.188 121.164ZM486.297 106.047V141.594H481.57V124.484H478.68V140.07H474.031V106.75H478.68V120.5H481.57V106.047H486.297ZM530.827 106.047V141.594H525.788V106.047H530.827ZM520.163 109.758C520.163 120.539 516.373 129.484 503.678 135.5L501.061 131.516C510.241 127.18 514.284 121.555 515.084 113.664H502.975V109.758H520.163ZM565.142 114.953V118.938H540.416V106.594H545.377V114.953H565.142ZM568.814 121.984V126.047H536.314V121.984H568.814ZM552.486 128.273C560.181 128.312 564.83 130.695 564.869 134.875C564.83 139.094 560.181 141.477 552.486 141.477C544.713 141.477 540.025 139.094 540.025 134.875C540.025 130.695 544.713 128.312 552.486 128.273ZM552.486 132.141C547.564 132.18 545.064 133 545.103 134.875C545.064 136.711 547.564 137.688 552.486 137.688C557.291 137.688 559.83 136.711 559.869 134.875C559.83 133 557.291 132.18 552.486 132.141ZM592.192 108.039V111.984H585.122C585.161 116.184 587.661 120.48 593.286 122.336L590.825 126.164C586.88 124.914 584.184 122.336 582.661 119.133C581.059 122.688 578.227 125.559 574.028 126.906L571.489 122.961C577.329 121.086 579.985 116.418 580.044 111.984H572.895V108.039H592.192ZM601.645 128.781V141.594H596.684V132.766H577.231V128.781H601.645ZM601.645 106.047V127.219H596.684V118.664H591.177V114.602H596.684V106.047H601.645ZM649.495 123.664V127.648H617.073V123.664H649.495ZM645.55 130.344V141.594H640.589V134.25H620.667V130.344H645.55ZM635.706 106.164V109.367H646.37V113.234H636.097C636.663 115.793 640.277 118.117 648.05 118.586L646.527 122.375C640.003 121.906 635.472 119.992 633.245 117.102C630.999 119.992 626.468 121.906 619.964 122.375L618.441 118.586C626.175 118.117 629.788 115.793 630.394 113.234H620.198V109.367H630.784V106.164H635.706ZM670.803 108.938V111.633H677.444V106.086H682.405V131.945H677.444V123.234H670.803V126.242H653.928V108.938H670.803ZM658.889 112.883V122.375H665.92V112.883H658.889ZM683.147 136.984V140.969H658.733V129.484H663.772V136.984H683.147ZM670.803 119.289H677.444V115.656H670.803V119.289ZM718.634 106.047V141.594H713.869V106.047H718.634ZM711.213 106.555V139.953H706.525V123.156H703.673C703.205 130.148 700.236 134.367 695.861 134.367C691.173 134.367 688.127 129.445 688.127 121.438C688.127 113.469 691.173 108.586 695.861 108.586C700.138 108.586 703.068 112.57 703.634 119.211H706.525V106.555H711.213ZM695.861 113.273C693.869 113.273 692.697 116.008 692.736 121.438C692.697 126.906 693.869 129.602 695.861 129.562C697.892 129.602 699.103 126.906 699.103 121.438C699.103 116.008 697.892 113.273 695.861 113.273ZM763.945 106.047V141.594H759.219V123.742H755.781V139.875H751.211V106.633H755.781V119.758H759.219V106.047H763.945ZM747.461 110.148V114.172H739.219V129.328C742.656 129.309 745.703 129.133 749.141 128.508L749.492 132.57C745.156 133.391 741.367 133.508 736.68 133.547H734.219V110.148H747.461ZM796.777 106.086V116.984H801.581V121.047H796.777V132.609H791.777V106.086H796.777ZM789.667 109.797V113.742H768.573V109.797H776.659V106.008H781.62V109.797H789.667ZM779.12 114.992C784.277 114.992 787.87 117.766 787.87 121.867C787.87 125.969 784.277 128.664 779.12 128.664C773.925 128.664 770.292 125.969 770.292 121.867C770.292 117.766 773.925 114.992 779.12 114.992ZM779.12 118.781C776.737 118.82 775.136 119.914 775.175 121.867C775.136 123.82 776.737 124.875 779.12 124.875C781.503 124.875 783.144 123.82 783.144 121.867C783.144 119.914 781.503 118.82 779.12 118.781ZM798.066 136.984V140.969H773.73V130.578H778.691V136.984H798.066ZM832.4 108.117C832.4 117.414 826.541 123.859 816.111 126.75L814.158 122.883C821.814 120.812 826.228 116.906 827.088 112.102H816.072V108.117H832.4ZM843.923 106.086V125.969H838.963V118.586H832.634V114.523H838.963V106.086H843.923ZM843.923 127.375V141.164H820.369V127.375H843.923ZM825.252 131.281V137.258H839.002V131.281H825.252ZM881.755 122.414V126.438H849.333V122.414H881.755ZM865.505 128.43C873.2 128.43 877.848 130.852 877.888 135.031C877.848 139.25 873.2 141.594 865.505 141.594C857.731 141.594 853.044 139.25 853.044 135.031C853.044 130.852 857.731 128.43 865.505 128.43ZM865.505 132.297C860.583 132.297 858.083 133.156 858.122 135.031C858.083 136.867 860.583 137.727 865.505 137.727C870.309 137.727 872.848 136.867 872.888 135.031C872.848 133.156 870.309 132.297 865.505 132.297ZM878.825 107.688V111.672H869.138C869.938 114.152 873.552 116.613 880.388 117.219L878.63 121.125C871.93 120.48 867.399 117.941 865.505 114.484C863.63 117.941 859.177 120.48 852.419 121.125L850.778 117.219C857.458 116.613 861.11 114.172 861.95 111.672H852.302V107.688H878.825ZM900.914 106.555C909.078 106.555 913.805 108.703 913.844 112.609C913.805 116.555 909.078 118.703 900.914 118.703C892.711 118.703 887.945 116.555 887.945 112.609C887.945 108.703 892.711 106.555 900.914 106.555ZM900.914 110.188C895.68 110.188 893.141 111.047 893.18 112.609C893.141 114.367 895.68 115.031 900.914 115.031C906.188 115.031 908.688 114.367 908.688 112.609C908.688 111.047 906.188 110.188 900.914 110.188ZM917.125 120.383V124.328H884.703V120.383H917.125ZM913.18 126.398V135.461H893.375V137.609H914.117V141.359H888.492V131.984H908.258V130.031H888.453V126.398H913.18ZM943.959 113.078C943.959 117.336 946.577 121.672 952.436 123.43L949.897 127.336C945.912 126.086 943.1 123.527 941.498 120.305C939.877 123.801 936.987 126.613 932.827 128L930.248 124.094C936.147 122.18 938.881 117.57 938.881 113.078V112.57H931.577V108.586H951.108V112.57H943.959V113.078ZM959.858 106.086V131.789H954.858V106.086H959.858ZM960.795 136.984V140.969H936.03V129.445H941.069V136.984H960.795ZM996.009 106.047V128.352H991.283V118.898H988.431V127.18H983.783V106.711H988.431V114.836H991.283V106.047H996.009ZM982.728 109.719V113.586H965.267V109.719H971.556V106.359H976.517V109.719H982.728ZM974.056 114.758C978.588 114.758 981.791 117.258 981.83 120.969C981.791 124.641 978.588 127.141 974.056 127.141C969.603 127.141 966.361 124.641 966.361 120.969C966.361 117.258 969.603 114.758 974.056 114.758ZM974.056 118.352C972.103 118.352 970.814 119.328 970.814 120.969C970.814 122.609 972.103 123.625 974.056 123.586C976.009 123.625 977.298 122.609 977.338 120.969C977.298 119.328 976.009 118.352 974.056 118.352ZM983.861 128.664C991.556 128.664 996.166 131.008 996.205 135.148C996.166 139.25 991.556 141.594 983.861 141.594C976.205 141.594 971.556 139.25 971.556 135.148C971.556 131.008 976.205 128.664 983.861 128.664ZM983.861 132.414C979.056 132.414 976.517 133.273 976.556 135.148C976.517 136.945 979.056 137.844 983.861 137.844C988.705 137.844 991.166 136.945 991.166 135.148C991.166 133.273 988.705 132.414 983.861 132.414ZM1031.38 106.086V127.961H1026.65V119.211H1023.88V127.57H1019.23V106.555H1023.88V115.188H1026.65V106.086H1031.38ZM1018.1 109.445V113.391H1000.64V109.445H1006.93V106.242H1011.89V109.445H1018.1ZM1009.43 114.523C1013.96 114.523 1017.16 117.023 1017.2 120.734C1017.16 124.367 1013.96 126.945 1009.43 126.945C1004.97 126.945 1001.73 124.367 1001.73 120.734C1001.73 117.023 1004.97 114.523 1009.43 114.523ZM1009.43 118.078C1007.47 118.078 1006.18 118.977 1006.18 120.734C1006.18 122.414 1007.47 123.352 1009.43 123.352C1011.38 123.352 1012.67 122.414 1012.71 120.734C1012.67 118.977 1011.38 118.078 1009.43 118.078ZM1014.47 129.797C1014.43 132.395 1015.58 135.07 1018.41 136.828C1021.22 134.973 1022.47 132.16 1022.51 129.797V129.055H1027.47V129.797C1027.43 133.117 1029.43 136.242 1034.15 137.453L1031.85 141.164C1028.41 140.129 1026.15 138.059 1024.93 135.422C1023.76 138.039 1021.71 140.344 1018.49 141.516C1015.17 140.363 1013.08 138.195 1011.97 135.578C1010.66 138.078 1008.43 140.109 1005.17 141.164L1002.83 137.453C1007.43 136.125 1009.5 132.922 1009.5 129.797V129.055H1014.47V129.797ZM1046.01 108.547C1050.81 108.547 1054.39 112.512 1055.11 118.898H1061.28V106.047H1066.2V141.672H1061.28V122.883H1055.15C1054.62 129.719 1050.97 133.898 1046.01 133.898C1040.62 133.898 1036.75 129.016 1036.79 121.203C1036.75 113.469 1040.62 108.547 1046.01 108.547ZM1046.01 113.039C1043.35 113.039 1041.52 115.93 1041.55 121.203C1041.52 126.516 1043.35 129.367 1046.01 129.367C1048.7 129.367 1050.46 126.516 1050.46 121.203C1050.46 115.93 1048.7 113.039 1046.01 113.039ZM1104.11 133.352V137.453H1071.57V133.352H1078.84V124.641C1076.09 123 1074.43 120.48 1074.43 117.336C1074.43 111.594 1080.05 107.766 1087.78 107.766C1095.48 107.766 1101.14 111.594 1101.18 117.336C1101.16 120.402 1099.54 122.902 1096.89 124.562V133.352H1104.11ZM1087.78 111.711C1082.71 111.711 1079.35 113.742 1079.35 117.336C1079.35 120.812 1082.71 122.961 1087.78 122.961C1092.82 122.961 1096.22 120.812 1096.26 117.336C1096.22 113.742 1092.82 111.711 1087.78 111.711ZM1083.76 133.352H1091.85V126.438C1090.58 126.691 1089.21 126.828 1087.78 126.828C1086.36 126.828 1085.01 126.711 1083.76 126.438V133.352ZM1115.03 109.719L1114.52 129.523H1109.52L1109.01 109.719H1115.03ZM1112.06 138.352C1110.22 138.352 1108.74 136.867 1108.78 135.07C1108.74 133.273 1110.22 131.828 1112.06 131.828C1113.78 131.828 1115.3 133.273 1115.3 135.07C1115.3 136.867 1113.78 138.352 1112.06 138.352Z" fill="#40424D"/>
</svg>
