<svg width="1310" height="480" viewBox="0 0 1310 480" fill="none" xmlns="http://www.w3.org/2000/svg">
<path d="M240 0C328.555 0 405.908 47.9609 447.5 119.324C426.837 154.777 415 196.006 415 240C415 283.993 426.837 325.222 447.5 360.675C405.908 432.039 328.555 480 240 480C107.452 480 0 372.548 0 240C0 107.452 107.452 0 240 0ZM860.203 356.645C860.956 357.996 861.722 359.34 862.5 360.675C820.908 432.039 743.555 480 655 480C566.445 480 489.092 432.039 447.5 360.675C448.278 359.34 449.043 357.996 449.796 356.645C490.405 427.932 567.089 476 655 476C742.911 476 819.594 427.931 860.203 356.645ZM1070 0C1202.55 0 1310 107.452 1310 240C1310 372.548 1202.55 480 1070 480C981.445 480 904.092 432.039 862.5 360.675C883.163 325.222 895 283.993 895 240C895 196.006 883.163 154.777 862.5 119.324C904.092 47.9609 981.445 0 1070 0ZM449.796 123.354C469.037 157.887 480 197.663 480 240C480 282.337 469.037 322.112 449.796 356.645C430.197 322.24 419 282.428 419 240C419 197.572 430.197 157.759 449.796 123.354ZM860.203 123.354C879.802 157.759 891 197.572 891 240C891 282.428 879.802 322.24 860.203 356.645C840.963 322.112 830 282.336 830 240C830 197.663 840.962 157.887 860.203 123.354ZM655 0C743.555 0 820.908 47.9609 862.5 119.324C861.722 120.659 860.956 122.003 860.203 123.354C819.594 52.0681 742.911 4 655 4C567.089 4 490.405 52.0678 449.796 123.354C449.043 122.003 448.278 120.659 447.5 119.324C489.092 47.9609 566.445 0 655 0Z" fill="#56AFDF"/>
<rect x="180" y="159.5" width="120" height="120" rx="60" fill="#78BFE5"/>
<path d="M256.38 203.5C258.38 203.5 260 205.3 260 207.5V231.5C260 233.7 258.2 235.5 256 235.5H224C221.8 235.5 220 233.7 220 231.5V223.5C222.22 223.5 224 221.7 224 219.5C224 217.3 222.22 215.5 220.02 215.5V207.5C220.02 205.3 221.8 203.5 224 203.5H256.38Z" fill="white"/>
<path d="M188.352 348.922V364.391H185.727V348.922H188.352ZM188.938 367.555V369.664H174.336V362.914H176.961V367.555H188.938ZM178.602 352.156C178.602 355.109 180.336 357.898 183.688 359.023L182.352 361.086C179.938 360.242 178.215 358.555 177.289 356.398C176.328 358.707 174.582 360.559 172.086 361.461L170.727 359.398C174.172 358.18 175.906 355.203 175.906 352.156V350.094H178.602V352.156ZM204.324 350.797V356.844H196.121V358.953H204.839V360.992H200.316V363.922C202.144 363.852 203.972 363.734 205.707 363.547L205.917 365.445C201.253 366.195 196.355 366.242 192.347 366.195L192.019 364.039C193.777 364.051 195.71 364.051 197.691 363.992V360.992H193.496V354.922H201.746V352.859H193.472V350.797H204.324ZM209.574 348.898V370.109H206.972V348.898H209.574ZM237.018 348.898V370.086H234.393V348.898H237.018ZM230.69 351.148C230.69 357.453 228.252 362.82 220.823 366.336L219.463 364.25C225.006 361.613 227.585 358.027 228.042 353.211H220.542V351.148H230.69ZM257.256 348.922V355.039H260.209V357.195H257.256V364.508H254.654V348.922H257.256ZM258.1 367.555V369.664H243.686V362.938H246.287V367.555H258.1ZM243.85 350.422V353.656H248.795V350.422H251.373V361.062H241.272V350.422H243.85ZM243.85 359H248.795V355.672H243.85V359ZM285.685 348.922V364.461H283.083V359.211H278.044C277.025 360.348 275.525 361.039 273.825 361.039C270.638 361.039 268.224 358.742 268.224 355.625C268.224 352.461 270.638 350.188 273.825 350.188C275.513 350.188 277.001 350.867 278.021 351.992H283.083V348.922H285.685ZM286.224 367.555V369.664H271.786V362.867H274.388V367.555H286.224ZM273.825 352.508C271.997 352.508 270.708 353.727 270.708 355.625C270.708 357.5 271.997 358.719 273.825 358.719C275.56 358.719 276.872 357.5 276.896 355.625C276.872 353.727 275.56 352.508 273.825 352.508ZM279.169 354.102C279.298 354.582 279.38 355.086 279.38 355.625C279.38 356.141 279.31 356.633 279.192 357.102H283.083V354.102H279.169ZM306.907 348.898V359.633H304.305V357.781H299.196V355.789H304.305V353.703H299.477C298.141 356.938 295.048 359.047 290.36 360.102L289.446 357.969C294.426 356.938 296.911 354.746 297.274 351.922H290.618V349.812H300.18C300.18 350.48 300.122 351.113 300.04 351.711H304.305V348.898H306.907ZM306.907 360.453V366.031H295.587V367.789H307.469V369.875H292.985V364.086H304.305V362.516H292.962V360.453H306.907Z" fill="white"/>
<rect x="595" y="159.5" width="120" height="120" rx="60" fill="#EEF7FC"/>
<path d="M662.121 207.084C662.81 208.335 663.996 209.231 665.382 209.549L671.11 210.861C674.766 211.699 676.235 216.134 673.809 219.007L669.642 223.94C668.768 224.974 668.348 226.32 668.477 227.67L669.082 233.989C669.452 237.852 665.509 240.658 662.006 239.025L657.103 236.74C655.77 236.118 654.232 236.118 652.899 236.74L647.993 239.026C644.491 240.659 640.548 237.852 640.918 233.99L641.523 227.67C641.652 226.32 641.232 224.974 640.358 223.94L636.191 219.007C633.765 216.134 635.234 211.699 638.89 210.861L644.618 209.549C646.004 209.231 647.19 208.335 647.879 207.084L650.629 202.09C652.531 198.636 657.471 198.637 659.372 202.091L662.121 207.084Z" fill="#56AFDF"/>
<path d="M593.25 351.219C593.227 353.984 594.938 356.422 598.289 357.453L596.883 359.469C594.562 358.695 592.922 357.195 592.008 355.25C591.07 357.5 589.289 359.246 586.758 360.102L585.422 358.016C588.867 356.914 590.625 354.195 590.648 351.266V349.742H593.25V351.219ZM602.414 348.898V353.258H605.367V355.391H602.414V360.172H599.812V348.898H602.414ZM594.305 361.086V366.289H589.992V367.953C591.926 367.93 593.168 367.871 594.68 367.578L594.914 369.547C593.016 369.922 591.492 369.945 588.656 369.945H587.438V364.438H591.797V363.031H587.414V361.086H594.305ZM602.414 361.086V369.945H595.5V361.086H602.414ZM597.773 363.008V368.023H600.164V363.008H597.773ZM613.792 350.375C617.144 350.352 619.605 352.484 619.628 355.484C619.605 358.508 617.144 360.617 613.792 360.617C610.464 360.617 607.98 358.508 607.98 355.484C607.98 352.484 610.464 350.352 613.792 350.375ZM613.792 352.625C611.941 352.625 610.558 353.727 610.558 355.484C610.558 357.266 611.941 358.344 613.792 358.344C615.667 358.344 617.074 357.266 617.074 355.484C617.074 353.727 615.667 352.625 613.792 352.625ZM624.574 348.898V370.109H621.972V348.898H624.574ZM607.019 363.547C610.839 363.547 616.136 363.5 620.707 362.844L620.917 364.742C616.16 365.656 611.074 365.68 607.347 365.68L607.019 363.547ZM650.917 348.898V357.172H654.057V359.352H650.917V370.039H648.315V348.898H650.917ZM645.315 351.102C645.315 357.336 642.737 362.797 635.682 366.266L634.206 364.25C639.362 361.684 642.151 358.074 642.69 353.258H635.354V351.102H645.315ZM673.147 348.898V370.086H670.545V348.898H673.147ZM663.678 355.625C663.678 358.859 665.647 362.305 669.068 363.734L667.639 365.727C665.201 364.707 663.385 362.586 662.412 360.031C661.463 362.738 659.635 365 657.162 366.078L655.756 364.062C659.131 362.562 661.076 359 661.076 355.625V354.523H656.412V352.438H661.076V349.344H663.654V352.438H668.225V354.523H663.678V355.625ZM699.724 348.922V355.086H702.583V357.242H699.724V363.242H697.122V348.922H699.724ZM682.755 360.711C684.349 360.711 686.189 360.699 688.099 360.641V359.352C685.743 359.059 684.255 357.922 684.255 356.258C684.255 354.312 686.294 353.094 689.364 353.117C692.458 353.094 694.474 354.312 694.474 356.258C694.474 357.91 693.021 359.035 690.7 359.328V360.547C692.505 360.465 694.321 360.324 696.021 360.102L696.232 361.906C691.708 362.703 686.763 362.75 683.036 362.75L682.755 360.711ZM699.724 364.156V370.086H697.122V366.195H685.427V364.156H699.724ZM695.458 350.586V352.508H683.294V350.586H688.099V348.734H690.7V350.586H695.458ZM689.364 354.875C687.724 354.852 686.739 355.344 686.763 356.258C686.739 357.125 687.724 357.688 689.364 357.664C691.005 357.688 691.989 357.125 691.989 356.258C691.989 355.344 691.005 354.852 689.364 354.875ZM711.758 352.719C711.758 355.32 713.446 357.758 716.751 358.766L715.508 360.805C713.13 360.066 711.442 358.555 710.516 356.633C709.579 358.859 707.786 360.629 705.243 361.484L703.93 359.422C707.352 358.297 709.133 355.555 709.133 352.742V352.484H704.657V350.375H716.165V352.484H711.758V352.719ZM720.876 348.898V353.984H723.829V356.117H720.876V361.531H718.274V348.898H720.876ZM713.985 362C718.368 362 721.063 363.477 721.087 366.008C721.063 368.562 718.368 370.062 713.985 370.062C709.555 370.062 706.813 368.562 706.813 366.008C706.813 363.477 709.555 362 713.985 362ZM713.985 364.039C711.079 364.039 709.415 364.719 709.415 366.008C709.415 367.32 711.079 368.023 713.985 368.023C716.891 368.023 718.508 367.32 718.508 366.008C718.508 364.719 716.891 364.039 713.985 364.039Z" fill="#525666"/>
<rect x="1010" y="159.5" width="120" height="120" rx="60" fill="#78BFE5"/>
<path d="M1050 217.278H1067.78V199.5H1050V217.278ZM1054.44 203.944H1063.33V212.833H1054.44V203.944Z" fill="white"/>
<path d="M1050 239.5H1067.78V221.723H1050V239.5ZM1054.44 226.167H1063.33V235.056H1054.44V226.167Z" fill="white"/>
<path d="M1072.22 199.5V217.278H1090V199.5H1072.22ZM1085.56 212.833H1076.67V203.944H1085.56V212.833Z" fill="white"/>
<path d="M1090 235.056H1085.55V239.5H1090V235.056Z" fill="white"/>
<path d="M1076.67 221.723H1072.22V226.167H1076.67V221.723Z" fill="white"/>
<path d="M1081.11 226.167H1076.67V230.611H1081.11V226.167Z" fill="white"/>
<path d="M1076.67 230.611H1072.22V235.056H1076.67V230.611Z" fill="white"/>
<path d="M1081.11 235.056H1076.67V239.5H1081.11V235.056Z" fill="white"/>
<path d="M1085.56 230.611H1081.11V235.056H1085.56V230.611Z" fill="white"/>
<path d="M1085.56 221.723H1081.11V226.167H1085.56V221.723Z" fill="white"/>
<path d="M1090 226.167H1085.55V230.611H1090V226.167Z" fill="white"/>
<path d="M1011.2 352.273C1011.2 354.945 1012.94 357.453 1016.2 358.484L1014.79 360.523C1012.5 359.75 1010.86 358.203 1009.96 356.234C1009.02 358.484 1007.31 360.254 1004.88 361.109L1003.47 359.07C1006.89 357.875 1008.58 355.062 1008.6 352.039V350.023H1011.2V352.273ZM1020.41 348.898V354.055H1023.37V356.211H1020.41V361.578H1017.81V348.898H1020.41ZM1013.52 362.047C1017.91 362.023 1020.6 363.523 1020.62 366.031C1020.6 368.586 1017.91 370.062 1013.52 370.062C1009.09 370.062 1006.35 368.586 1006.35 366.031C1006.35 363.523 1009.09 362.023 1013.52 362.047ZM1013.52 364.086C1010.62 364.086 1008.95 364.789 1008.95 366.031C1008.95 367.344 1010.62 368 1013.52 368C1016.43 368 1018.05 367.344 1018.05 366.031C1018.05 364.789 1016.43 364.086 1013.52 364.086ZM1031.53 352.836C1031.53 355.133 1032.87 357.43 1035.66 358.484L1034.28 360.477C1032.39 359.75 1031.08 358.402 1030.32 356.75C1029.54 358.648 1028.16 360.266 1026.14 361.109L1024.74 359.117C1027.64 357.828 1029 355.18 1029.03 352.836V350.211H1031.53V352.836ZM1043.04 348.922V361.906H1040.56V356.398H1038.45V361.25H1036.01V349.32H1038.45V354.266H1040.56V348.922H1043.04ZM1035.89 362.258C1040.32 362.258 1043.14 363.711 1043.16 366.148C1043.14 368.586 1040.32 370.062 1035.89 370.062C1031.42 370.062 1028.63 368.586 1028.63 366.148C1028.63 363.711 1031.42 362.258 1035.89 362.258ZM1035.89 364.227C1032.96 364.227 1031.23 364.906 1031.23 366.148C1031.23 367.414 1032.96 368.07 1035.89 368.07C1038.8 368.07 1040.53 367.414 1040.53 366.148C1040.53 364.906 1038.8 364.227 1035.89 364.227ZM1053.01 350.375C1056.37 350.352 1058.83 352.484 1058.85 355.484C1058.83 358.508 1056.37 360.617 1053.01 360.617C1049.69 360.617 1047.2 358.508 1047.2 355.484C1047.2 352.484 1049.69 350.352 1053.01 350.375ZM1053.01 352.625C1051.16 352.625 1049.78 353.727 1049.78 355.484C1049.78 357.266 1051.16 358.344 1053.01 358.344C1054.89 358.344 1056.3 357.266 1056.3 355.484C1056.3 353.727 1054.89 352.625 1053.01 352.625ZM1063.8 348.898V370.109H1061.19V348.898H1063.8ZM1046.24 363.547C1050.06 363.547 1055.36 363.5 1059.93 362.844L1060.14 364.742C1055.38 365.656 1050.3 365.68 1046.57 365.68L1046.24 363.547ZM1081.26 352.648C1081.26 355.461 1082.94 358.203 1086.22 359.328L1084.79 361.367C1082.51 360.5 1080.87 358.848 1079.99 356.773C1079.06 359.094 1077.34 360.934 1074.86 361.859L1073.47 359.797C1076.87 358.648 1078.61 355.719 1078.63 352.625V350.211H1081.26V352.648ZM1091.29 348.922V364.648H1088.69V355.719H1084.47V353.586H1088.69V348.922H1091.29ZM1091.76 367.555V369.664H1077.32V362.938H1079.97V367.555H1091.76ZM1105.76 350.258C1105.76 352.766 1108.69 355.344 1113.03 355.953L1112.04 358.016C1108.56 357.477 1105.78 355.789 1104.45 353.516C1103.08 355.824 1100.29 357.523 1096.81 358.062L1095.82 356.023C1100.13 355.367 1103.06 352.836 1103.09 350.258V349.438H1105.76V350.258ZM1114.1 359.422V361.531H1105.92V365.398H1103.35V361.531H1094.74V359.422H1114.1ZM1111.97 367.555V369.664H1097.09V363.5H1099.69V367.555H1111.97ZM1132.77 348.898V356H1135.63V358.156H1132.77V365.445H1130.17V348.898H1132.77ZM1133.52 367.555V369.664H1118.85V364.344H1121.45V367.555H1133.52ZM1115.8 361.203C1117.38 361.203 1119.22 361.191 1121.15 361.109V359.773C1118.79 359.492 1117.3 358.332 1117.3 356.633C1117.3 354.547 1119.34 353.328 1122.41 353.352C1125.5 353.328 1127.52 354.547 1127.52 356.633C1127.52 358.32 1126.07 359.469 1123.75 359.773V360.992C1125.55 360.898 1127.37 360.734 1129.07 360.477L1129.28 362.305C1124.8 363.148 1119.74 363.195 1116.08 363.242L1115.8 361.203ZM1128.5 350.75V352.648H1116.34V350.75H1121.15V348.828H1123.75V350.75H1128.5ZM1122.41 355.109C1120.77 355.109 1119.79 355.648 1119.81 356.633C1119.79 357.547 1120.77 358.086 1122.41 358.086C1124.05 358.086 1125.04 357.547 1125.04 356.633C1125.04 355.648 1124.05 355.109 1122.41 355.109Z" fill="white"/>
</svg>
