<svg width="923" height="205" viewBox="0 0 923 205" fill="none" xmlns="http://www.w3.org/2000/svg">
<rect width="139" height="54" rx="27" fill="#56AFDF"/>
<path d="M37.9828 26.9297C37.9828 31.5 35.2094 34.1953 31.4984 34.1953C27.7875 34.1953 25.0141 31.4805 25.0141 26.9297C25.0141 22.3594 27.7875 19.6641 31.4984 19.6641C35.2094 19.6641 37.9828 22.3594 37.9828 26.9297ZM35.4242 26.9297C35.4242 23.707 33.8031 21.9492 31.4984 21.9492C29.1937 21.9492 27.5727 23.707 27.5727 26.9297C27.5727 30.1523 29.1937 31.9102 31.4984 31.9102C33.8031 31.9102 35.4242 30.1523 35.4242 26.9297ZM50.0039 23.3945L46.2148 34H43.4805L39.6914 23.3945H42.3477L44.7891 31.2852H44.9062L47.3672 23.3945H50.0039ZM56.3023 34.2148C53.0992 34.2148 51.1461 32.0859 51.1461 28.7656C51.1461 25.4844 53.1383 23.2578 56.1656 23.2578C58.7633 23.2578 61.0094 24.8789 61.0094 28.6094V29.3906H53.607C53.6363 31.1973 54.7008 32.2617 56.3219 32.2617C57.4156 32.2617 58.1578 31.793 58.4703 31.168H60.9117C60.4625 33.0039 58.7633 34.2148 56.3023 34.2148ZM53.6266 27.6914H58.6266C58.607 26.2461 57.65 25.1914 56.2047 25.1914C54.7008 25.1914 53.7047 26.334 53.6266 27.6914ZM63.343 34V23.3945H65.7648V25.1523H65.882C66.2531 23.9414 67.2883 23.2383 68.4992 23.2383C68.7727 23.2383 69.1633 23.2578 69.3977 23.2969V25.6016C69.1828 25.5234 68.6555 25.4453 68.2453 25.4453C66.8586 25.4453 65.843 26.4023 65.843 27.75V34H63.343ZM81.0867 23.3945L77.2977 34H74.5633L70.7742 23.3945H73.4305L75.8719 31.2852H75.9891L78.45 23.3945H81.0867ZM83.0492 34V23.3945H85.5492V34H83.0492ZM84.3187 21.8906C83.5375 21.8906 82.8734 21.2852 82.8734 20.5234C82.8734 19.7812 83.5375 19.1758 84.3187 19.1758C85.1195 19.1758 85.7641 19.7812 85.7641 20.5234C85.7641 21.2852 85.1195 21.8906 84.3187 21.8906ZM93.0391 34.2148C89.8359 34.2148 87.8828 32.0859 87.8828 28.7656C87.8828 25.4844 89.875 23.2578 92.9023 23.2578C95.5 23.2578 97.7461 24.8789 97.7461 28.6094V29.3906H90.3438C90.373 31.1973 91.4375 32.2617 93.0586 32.2617C94.1523 32.2617 94.8945 31.793 95.207 31.168H97.6484C97.1992 33.0039 95.5 34.2148 93.0391 34.2148ZM90.3633 27.6914H95.3633C95.3438 26.2461 94.3867 25.1914 92.9414 25.1914C91.4375 25.1914 90.4414 26.334 90.3633 27.6914ZM102.228 34L99.2203 23.3945H101.759L103.634 30.8555H103.732L105.627 23.3945H108.146L110.06 30.8164H110.158L112.013 23.3945H114.552L111.545 34H108.947L106.955 26.8125H106.818L104.826 34H102.228Z" fill="white"/>
<path d="M29.3359 106.047V114.484H34.0625V118.547H29.3359V126.633H24.2578V106.047H29.3359ZM17.6172 127.258C24.9219 127.258 29.6094 129.914 29.6094 134.367C29.6094 138.938 24.9219 141.594 17.6172 141.594C10.1562 141.594 5.42969 138.938 5.42969 134.367C5.42969 129.914 10.1562 127.258 17.6172 127.258ZM17.6172 131.203C12.9297 131.203 10.3125 132.297 10.3516 134.367C10.3125 136.516 12.9297 137.648 17.6172 137.648C22.1094 137.648 24.7656 136.516 24.7656 134.367C24.7656 132.297 22.1094 131.203 17.6172 131.203ZM18.2812 108.43V112.414H7.26562V120.695C13.8477 120.656 17.4609 120.461 21.4453 119.602L21.875 123.586C17.5 124.562 13.3203 124.68 5.27344 124.719H2.30469V108.43H18.2812ZM66.1906 106.086V132.023H61.1906V106.086H66.1906ZM67.1281 136.984V140.969H42.3625V129.523H47.4016V136.984H67.1281ZM50.0578 111.477C50.0187 116.164 52.5187 120.773 58.3781 122.648L55.8391 126.555C51.8352 125.227 49.0617 122.57 47.4797 119.172C45.8977 122.824 43.0461 125.754 38.8859 127.18L36.3078 123.234C42.2844 121.242 44.8625 116.281 44.8625 111.477V108.039H50.0578V111.477ZM83.3187 108.43C88.9437 108.391 93.1625 112.062 93.1625 117.141C93.1625 122.258 88.9437 125.891 83.3187 125.891C77.6937 125.891 73.4359 122.258 73.4359 117.141C73.4359 112.062 77.6937 108.391 83.3187 108.43ZM83.3187 112.727C80.5062 112.727 78.3578 114.367 78.3969 117.141C78.3578 119.953 80.5062 121.555 83.3187 121.555C86.1312 121.555 88.2797 119.953 88.3187 117.141C88.2797 114.367 86.1703 112.727 83.3187 112.727ZM101.678 106.047V141.672H96.7172V106.047H101.678ZM71.9516 130.344C78.2797 130.383 87.0687 130.266 94.6859 129.211L95.0766 132.805C87.1859 134.328 78.7484 134.406 72.5375 134.406L71.9516 130.344ZM130.231 109.68C130.192 114.211 132.692 118.273 138.473 119.992L135.817 123.859C131.989 122.648 129.333 120.246 127.809 117.141C126.227 120.695 123.356 123.508 119.137 124.875L116.598 120.891C122.575 119.055 125.192 114.523 125.231 109.797V107.414H130.231V109.68ZM145.387 106.047V113.117H150.192V117.141H145.387V124.914H140.387V106.047H145.387ZM131.677 126.359V135.383H124.88V137.609C127.868 137.609 129.841 137.473 132.223 137.023L132.653 140.734C129.528 141.359 126.989 141.438 122.145 141.398H119.997V131.906H126.872V129.992H119.958V126.359H131.677ZM145.387 126.359V141.398H133.552V126.359H145.387ZM137.848 129.992V137.805H141.091V129.992H137.848ZM168.766 106.555C176.93 106.555 181.656 108.703 181.695 112.609C181.656 116.555 176.93 118.703 168.766 118.703C160.562 118.703 155.797 116.555 155.797 112.609C155.797 108.703 160.562 106.555 168.766 106.555ZM168.766 110.188C163.531 110.188 160.992 111.047 161.031 112.609C160.992 114.367 163.531 115.031 168.766 115.031C174.039 115.031 176.539 114.367 176.539 112.609C176.539 111.047 174.039 110.188 168.766 110.188ZM184.977 120.383V124.328H152.555V120.383H184.977ZM181.031 126.398V135.461H161.227V137.609H181.969V141.359H156.344V131.984H176.109V130.031H156.305V126.398H181.031ZM211.733 115.734C211.733 121.477 214.663 127.609 220.639 130.109L217.944 134.016C213.745 132.238 210.854 128.703 209.272 124.367C207.651 129.074 204.702 132.98 200.522 134.914L197.67 130.969C203.569 128.352 206.616 121.75 206.616 115.734V113.547H199.077V109.484H219.155V113.547H211.733V115.734ZM227.709 106.047V141.594H222.67V106.047H227.709ZM263.275 128.664V141.594H258.314V132.57H238.861V128.664H263.275ZM263.275 106.047V127.062H258.314V122.57H250.345C248.646 124.406 246.127 125.5 243.236 125.5C237.845 125.5 233.744 121.789 233.783 116.633C233.744 111.594 237.845 107.922 243.236 107.961C246.127 107.941 248.646 109.016 250.345 110.812H258.314V106.047H263.275ZM243.236 112.141C240.462 112.141 238.47 113.859 238.509 116.633C238.47 119.562 240.462 121.242 243.236 121.242C245.853 121.242 247.884 119.562 247.884 116.633C247.884 113.859 245.853 112.141 243.236 112.141ZM252.416 118.586H258.314V114.836H252.455C252.552 115.402 252.611 116.008 252.611 116.633C252.611 117.316 252.533 117.961 252.416 118.586ZM288.684 109.602V112.453C288.645 115.812 288.645 120.188 287.708 126.086L282.786 125.695C283.587 120.539 283.665 116.73 283.723 113.586H270.247V109.602H288.684ZM279.817 119.797V130.109C283.313 129.973 286.868 129.719 290.13 129.289L290.442 133C283.138 134.25 275.052 134.367 268.841 134.328L268.372 130.344C270.364 130.324 272.591 130.324 274.895 130.266V119.797H279.817ZM296.848 106.047V120.344H301.692V124.484H296.848V141.594H291.809V106.047H296.848ZM342.277 106.047V114.797H347.081V118.977H342.277V127.492H337.277V106.047H342.277ZM342.277 129.055V141.203H319.034V129.055H342.277ZM323.956 132.961V137.219H337.355V132.961H323.956ZM335.167 109.25V113.195H314.073V109.25H322.159V105.852H327.12V109.25H335.167ZM324.62 114.289C329.777 114.289 333.37 116.906 333.37 120.656C333.37 124.523 329.777 127.102 324.62 127.102C319.386 127.102 315.792 124.523 315.792 120.656C315.792 116.906 319.386 114.289 324.62 114.289ZM324.62 118.039C322.237 118.039 320.636 118.977 320.675 120.656C320.636 122.453 322.237 123.43 324.62 123.43C327.003 123.43 328.644 122.453 328.644 120.656C328.644 118.977 327.003 118.039 324.62 118.039ZM358.194 110.109C358.155 118.977 357.295 126.945 352.764 133.977L348.897 131.945C352.549 126.418 353.643 121.027 353.897 114.133H350.069V110.109H358.194ZM366.163 110.109C366.143 113.234 366.084 116.34 365.811 119.367H368.858V106.828H373.545V140.031H368.858V123.391H365.303C364.541 127.746 363.194 131.926 360.733 135.773L356.944 133.664C360.909 127.609 361.729 121.34 361.905 114.133H359.209V110.109H366.163ZM380.538 106.047V141.594H375.772V106.047H380.538ZM424.598 106.047V141.672H419.559V106.047H424.598ZM405.302 108.547C410.653 108.547 414.638 113.469 414.638 121.203C414.638 129.016 410.653 133.898 405.302 133.898C399.833 133.898 395.848 129.016 395.888 121.203C395.848 113.469 399.833 108.547 405.302 108.547ZM405.302 113.039C402.528 113.039 400.692 115.93 400.692 121.203C400.692 126.516 402.528 129.367 405.302 129.367C407.997 129.367 409.833 126.516 409.833 121.203C409.833 115.93 407.997 113.039 405.302 113.039ZM440.008 108.547C444.812 108.547 448.387 112.512 449.109 118.898H455.281V106.047H460.203V141.672H455.281V122.883H449.148C448.621 129.719 444.969 133.898 440.008 133.898C434.617 133.898 430.75 129.016 430.789 121.203C430.75 113.469 434.617 108.547 440.008 108.547ZM440.008 113.039C437.352 113.039 435.516 115.93 435.555 121.203C435.516 126.516 437.352 129.367 440.008 129.367C442.703 129.367 444.461 126.516 444.461 121.203C444.461 115.93 442.703 113.039 440.008 113.039ZM493.62 106.047V119.68H498.659V123.781H493.62V141.516H488.62V106.047H493.62ZM484.128 109.68C484.089 120.305 479.948 129.523 467.995 135.383L465.183 131.555C473.601 127.336 478.112 121.672 479.05 113.742H467.214V109.68H484.128ZM529.811 115.734V119.641H504.967V107.297H509.928V115.734H529.811ZM533.444 123.469V127.375H500.905V123.469H533.444ZM530.045 136.828V140.812H504.655V130.266H509.655V136.828H530.045ZM562.895 127.805C570.278 127.805 574.888 130.344 574.888 134.68C574.888 139.094 570.278 141.633 562.895 141.633C555.356 141.633 550.708 139.094 550.708 134.68C550.708 130.344 555.356 127.805 562.895 127.805ZM562.895 131.672C558.208 131.672 555.669 132.648 555.708 134.68C555.669 136.711 558.208 137.766 562.895 137.766C567.505 137.766 569.966 136.711 569.966 134.68C569.966 132.648 567.505 131.672 562.895 131.672ZM574.536 106.047V114.289H579.341V118.469H574.536V127.023H569.536V106.047H574.536ZM552.348 108.273V112.766H559.614V108.273H564.614V124.992H547.388V108.273H552.348ZM552.348 121.047H559.614V116.633H552.348V121.047ZM595.336 111.086C595.297 115.539 597.836 119.836 603.695 121.594L601.195 125.5C597.152 124.211 594.359 121.691 592.758 118.43C591.156 121.945 588.266 124.699 584.086 126.047L581.586 122.141C587.523 120.227 590.141 115.617 590.141 111.086V107.688H595.336V111.086ZM611.469 128.781V141.594H606.469V132.766H587.016V128.781H611.469ZM611.469 106.047V127.258H606.469V106.047H611.469ZM633.284 107.844C640.784 107.883 646.644 111.906 646.683 118.078C646.644 124.289 640.784 128.352 633.284 128.312C625.745 128.352 619.925 124.289 619.925 118.078C619.925 111.906 625.745 107.883 633.284 107.844ZM633.284 111.906C628.362 111.867 624.769 114.25 624.769 118.078C624.769 121.945 628.362 124.25 633.284 124.25C638.206 124.25 641.722 121.945 641.761 118.078C641.722 114.25 638.206 111.867 633.284 111.906ZM649.612 133.234V137.258H617.073V133.234H649.612ZM684.983 133.547V137.648H652.444V133.547H666.155V128.195H656.194V116.242H676.311V112.336H656.155V108.352H681.233V120.148H661.194V124.133H682.053V128.195H671.116V133.547H684.983Z" fill="#40424D"/>
<path d="M20.4375 182.078V184.211H17.2969V195.039H14.6953V173.898H17.2969V182.078H20.4375ZM4.03125 175.961V187.656C6.85547 187.609 9.86719 187.363 13.0547 186.695L13.3359 188.898C9.77344 189.602 6.375 189.812 3.23438 189.812H1.45312V175.961H4.03125ZM28.2534 175.211C31.5112 175.211 33.9956 177.32 34.0191 180.32C33.9956 182.91 32.1675 184.82 29.5894 185.312V188.43C31.3472 188.348 33.1167 188.207 34.7691 187.984L34.9566 189.93C30.5269 190.727 25.6753 190.75 22.0425 190.703L21.6675 188.57C23.2612 188.57 25.0894 188.57 26.9878 188.523V185.312C24.3277 184.867 22.4878 182.945 22.5112 180.32C22.4878 177.32 24.9253 175.211 28.2534 175.211ZM28.2534 177.414C26.4019 177.438 25.0425 178.539 25.0425 180.32C25.0425 182.102 26.4019 183.227 28.2534 183.203C30.0816 183.227 31.4409 182.102 31.4409 180.32C31.4409 178.539 30.0816 177.438 28.2534 177.414ZM38.5894 173.898V182.359H41.6597V184.562H38.5894V195.086H35.9878V173.898H38.5894ZM57.315 179.922C57.315 183.391 59.3541 187.047 62.7759 188.477L61.3462 190.539C58.8384 189.461 57.0103 187.234 56.0494 184.539C55.065 187.445 53.2134 189.883 50.7291 191.055L49.2291 189.016C52.5806 187.469 54.6666 183.531 54.6666 179.922V178.141H50.0025V175.984H61.9556V178.141H57.315V179.922ZM66.9478 173.898V195.086H64.3228V173.898H66.9478ZM88.2872 187.422V195.086H85.6856V189.484H73.8497V187.422H88.2872ZM88.2872 173.898V186.414H85.6856V183.602H80.7169C79.7091 184.727 78.1856 185.406 76.4278 185.406C73.2403 185.406 70.8262 183.25 70.8262 180.203C70.8262 177.203 73.2403 175.047 76.4278 175.07C78.1739 175.059 79.6973 175.715 80.6934 176.828H85.6856V173.898H88.2872ZM76.4278 177.273C74.5997 177.273 73.3106 178.445 73.3106 180.203C73.3106 182.031 74.5997 183.18 76.4278 183.203C78.1622 183.18 79.4747 182.031 79.4981 180.203C79.4747 178.445 78.1622 177.273 76.4278 177.273ZM81.8184 181.492H85.6856V178.961H81.8419C81.9239 179.359 81.9825 179.77 81.9825 180.203C81.9825 180.648 81.9239 181.082 81.8184 181.492ZM98.6344 175.375C101.986 175.352 104.447 177.484 104.47 180.484C104.447 183.508 101.986 185.617 98.6344 185.617C95.3063 185.617 92.8219 183.508 92.8219 180.484C92.8219 177.484 95.3063 175.352 98.6344 175.375ZM98.6344 177.625C96.7828 177.625 95.4 178.727 95.4 180.484C95.4 182.266 96.7828 183.344 98.6344 183.344C100.509 183.344 101.916 182.266 101.916 180.484C101.916 178.727 100.509 177.625 98.6344 177.625ZM109.416 173.898V195.109H106.814V173.898H109.416ZM91.8609 188.547C95.6813 188.547 100.978 188.5 105.548 187.844L105.759 189.742C101.002 190.656 95.9156 190.68 92.1891 190.68L91.8609 188.547ZM137.352 173.898V195.086H134.844V184.375H132.501V194.008H130.063V174.297H132.501V182.242H134.844V173.898H137.352ZM122.704 176.336V187.516C124.532 187.48 126.536 187.328 128.751 186.883L129.008 189.156C126.149 189.672 123.735 189.812 121.485 189.812H120.079V176.336H122.704ZM146.387 174.578C149.598 174.578 151.988 176.57 152.012 179.359C151.988 182.172 149.598 184.141 146.387 184.141C143.152 184.141 140.762 182.172 140.762 179.359C140.762 176.57 143.152 174.578 146.387 174.578ZM146.387 176.734C144.606 176.734 143.293 177.742 143.293 179.359C143.293 181 144.606 182.031 146.387 182.031C148.168 182.031 149.481 181 149.481 179.359C149.481 177.742 148.168 176.734 146.387 176.734ZM158.035 173.898V184.609H155.41V173.898H158.035ZM158.035 185.523V191.055H146.574V192.766H158.668V194.828H144.02V189.133H155.434V187.562H143.973V185.523H158.035ZM171.242 174.227C176.07 174.227 178.859 175.516 178.883 177.859C178.859 180.227 176.07 181.492 171.242 181.516C166.414 181.492 163.601 180.227 163.601 177.859C163.601 175.516 166.414 174.227 171.242 174.227ZM171.242 176.148C168.008 176.148 166.32 176.758 166.343 177.859C166.32 179.031 168.008 179.57 171.242 179.57C174.523 179.57 176.187 179.031 176.187 177.859C176.187 176.758 174.523 176.148 171.242 176.148ZM180.922 182.641V184.727H161.609V182.641H180.922ZM178.508 186.156V191.336H166.461V192.906H179.093V194.898H163.906V189.484H175.953V188.078H163.883V186.156H178.508ZM205.717 173.898V179.266H208.671V181.445H205.717V186.672H203.116V173.898H205.717ZM205.717 187.68V194.828H192.03V187.68H205.717ZM194.608 189.742V192.719H203.139V189.742H194.608ZM201.592 175.938V178.023H189.03V175.938H194.022V173.758H196.624V175.938H201.592ZM195.311 178.797C198.382 178.797 200.467 180.344 200.491 182.594C200.467 184.867 198.382 186.391 195.311 186.391C192.217 186.391 190.108 184.867 190.108 182.594C190.108 180.344 192.217 178.797 195.311 178.797ZM195.311 180.766C193.694 180.766 192.639 181.445 192.639 182.594C192.639 183.766 193.694 184.445 195.311 184.445C196.928 184.445 198.007 183.766 198.007 182.594C198.007 181.445 196.928 180.766 195.311 180.766ZM215.455 176.383C215.432 181.375 214.869 186.203 212.057 190.375L210.018 189.273C212.362 185.98 213.041 182.547 213.205 178.492H210.627V176.383H215.455ZM220.19 176.383C220.178 178.199 220.143 180.086 219.955 181.961H222.088V174.414H224.549V194.078H222.088V184.07H219.674C219.205 186.695 218.35 189.25 216.791 191.547L214.799 190.422C217.342 186.777 217.834 182.699 217.94 178.492H216.088V176.383H220.19ZM228.651 173.898V195.086H226.143V173.898H228.651ZM248.384 175.727V185.734H238.353V175.727H248.384ZM240.908 177.812V183.672H245.829V177.812H240.908ZM254.337 173.898V180.109H257.29V182.289H254.337V189.367H251.736V173.898H254.337ZM255.181 192.555V194.664H240.767V187.867H243.368V192.555H255.181ZM276.052 183.836V185.922H261.192V175.75H275.888V177.859H263.77V183.836H276.052ZM278.208 190.234V192.391H258.848V190.234H278.208ZM297.227 179.898V181.961H282.555V174.672H285.133V179.898H297.227ZM299.407 184.422V186.484H280.047V184.422H299.407ZM297.367 192.484V194.594H282.367V188.359H284.969V192.484H297.367ZM324.39 174.906V176.5C324.39 178.117 324.39 179.945 323.874 182.336L321.273 182.078C321.742 179.957 321.788 178.387 321.788 176.945H309.718V174.906H324.39ZM326.734 183.602V185.664H307.515V183.602H314.968V179.547H317.546V183.602H326.734ZM318.343 187.844C318.343 190.234 320.921 192.414 325.374 192.977L324.413 194.969C320.968 194.5 318.343 193.07 317.031 191.031C315.706 193.07 313.081 194.5 309.671 194.969L308.734 192.977C313.117 192.414 315.695 190.234 315.718 187.844V187.07H318.343V187.844ZM332.815 191.336L330.847 197.898H328.62L329.839 191.336H332.815ZM342.33 193V176.031H348.705C352.596 176.031 354.682 178.398 354.682 181.656C354.682 184.914 352.572 187.258 348.658 187.258H345.377V193H342.33ZM345.377 184.75H348.236C350.533 184.75 351.564 183.461 351.564 181.656C351.564 179.828 350.533 178.586 348.236 178.586H345.377V184.75ZM357.482 193V180.273H360.388V182.383H360.529C360.974 180.93 362.216 180.086 363.669 180.086C363.997 180.086 364.466 180.109 364.747 180.156V182.922C364.49 182.828 363.857 182.734 363.365 182.734C361.701 182.734 360.482 183.883 360.482 185.5V193H357.482ZM372.142 193.258C368.438 193.258 366.048 190.633 366.048 186.695C366.048 182.734 368.438 180.109 372.142 180.109C375.868 180.109 378.235 182.734 378.235 186.695C378.235 190.633 375.868 193.258 372.142 193.258ZM372.165 190.867C374.204 190.867 375.212 189.016 375.212 186.672C375.212 184.352 374.204 182.477 372.165 182.477C370.079 182.477 369.071 184.352 369.071 186.672C369.071 189.016 370.079 190.867 372.165 190.867ZM381.036 180.273H384.036V193.727C384.036 196.469 382.418 197.781 379.606 197.781C379.418 197.781 379.231 197.781 378.997 197.758V195.32C379.161 195.344 379.301 195.344 379.442 195.344C380.59 195.344 381.036 194.758 381.036 193.703V180.273ZM382.536 178.469C381.598 178.469 380.801 177.742 380.801 176.828C380.801 175.938 381.598 175.211 382.536 175.211C383.497 175.211 384.27 175.938 384.27 176.828C384.27 177.742 383.497 178.469 382.536 178.469ZM393.023 193.258C389.18 193.258 386.836 190.703 386.836 186.719C386.836 182.781 389.227 180.109 392.859 180.109C395.977 180.109 398.672 182.055 398.672 186.531V187.469H389.789C389.824 189.637 391.102 190.914 393.047 190.914C394.359 190.914 395.25 190.352 395.625 189.602H398.555C398.016 191.805 395.977 193.258 393.023 193.258ZM389.812 185.43H395.812C395.789 183.695 394.641 182.43 392.906 182.43C391.102 182.43 389.906 183.801 389.812 185.43ZM407.027 193.258C403.23 193.258 400.933 190.539 400.933 186.695C400.933 182.805 403.3 180.109 407.027 180.109C410.121 180.109 412.277 181.914 412.488 184.656H409.628C409.394 183.438 408.503 182.5 407.05 182.5C405.199 182.5 403.957 184.07 403.957 186.625C403.957 189.25 405.175 190.82 407.05 190.82C408.386 190.82 409.371 190.047 409.628 188.664H412.488C412.253 191.359 410.214 193.258 407.027 193.258ZM421.569 180.273V182.57H419.062V189.18C419.062 190.398 419.671 190.656 420.421 190.656C420.772 190.656 421.358 190.633 421.733 190.609V193.047C421.382 193.117 420.796 193.164 420.046 193.164C417.796 193.164 416.062 192.062 416.085 189.672V182.57H414.257V180.273H416.085V177.227H419.062V180.273H421.569ZM430.662 193V176.031H433.709V183.227H441.608V176.031H444.678V193H441.608V185.781H433.709V193H430.662ZM450.009 193.188C449.002 193.188 448.181 192.367 448.181 191.359C448.181 190.375 449.002 189.555 450.009 189.555C450.97 189.555 451.814 190.375 451.814 191.359C451.814 192.367 450.97 193.188 450.009 193.188Z" fill="#8D92A2"/>
</svg>
