<svg width="923" height="205" viewBox="0 0 923 205" fill="none" xmlns="http://www.w3.org/2000/svg">
<rect width="139" height="54" rx="27" fill="#56AFDF"/>
<path d="M37.9828 26.9297C37.9828 31.5 35.2094 34.1953 31.4984 34.1953C27.7875 34.1953 25.0141 31.4805 25.0141 26.9297C25.0141 22.3594 27.7875 19.6641 31.4984 19.6641C35.2094 19.6641 37.9828 22.3594 37.9828 26.9297ZM35.4242 26.9297C35.4242 23.707 33.8031 21.9492 31.4984 21.9492C29.1937 21.9492 27.5727 23.707 27.5727 26.9297C27.5727 30.1523 29.1937 31.9102 31.4984 31.9102C33.8031 31.9102 35.4242 30.1523 35.4242 26.9297ZM50.0039 23.3945L46.2148 34H43.4805L39.6914 23.3945H42.3477L44.7891 31.2852H44.9062L47.3672 23.3945H50.0039ZM56.3023 34.2148C53.0992 34.2148 51.1461 32.0859 51.1461 28.7656C51.1461 25.4844 53.1383 23.2578 56.1656 23.2578C58.7633 23.2578 61.0094 24.8789 61.0094 28.6094V29.3906H53.607C53.6363 31.1973 54.7008 32.2617 56.3219 32.2617C57.4156 32.2617 58.1578 31.793 58.4703 31.168H60.9117C60.4625 33.0039 58.7633 34.2148 56.3023 34.2148ZM53.6266 27.6914H58.6266C58.607 26.2461 57.65 25.1914 56.2047 25.1914C54.7008 25.1914 53.7047 26.334 53.6266 27.6914ZM63.343 34V23.3945H65.7648V25.1523H65.882C66.2531 23.9414 67.2883 23.2383 68.4992 23.2383C68.7727 23.2383 69.1633 23.2578 69.3977 23.2969V25.6016C69.1828 25.5234 68.6555 25.4453 68.2453 25.4453C66.8586 25.4453 65.843 26.4023 65.843 27.75V34H63.343ZM81.0867 23.3945L77.2977 34H74.5633L70.7742 23.3945H73.4305L75.8719 31.2852H75.9891L78.45 23.3945H81.0867ZM83.0492 34V23.3945H85.5492V34H83.0492ZM84.3187 21.8906C83.5375 21.8906 82.8734 21.2852 82.8734 20.5234C82.8734 19.7812 83.5375 19.1758 84.3187 19.1758C85.1195 19.1758 85.7641 19.7812 85.7641 20.5234C85.7641 21.2852 85.1195 21.8906 84.3187 21.8906ZM93.0391 34.2148C89.8359 34.2148 87.8828 32.0859 87.8828 28.7656C87.8828 25.4844 89.875 23.2578 92.9023 23.2578C95.5 23.2578 97.7461 24.8789 97.7461 28.6094V29.3906H90.3438C90.373 31.1973 91.4375 32.2617 93.0586 32.2617C94.1523 32.2617 94.8945 31.793 95.207 31.168H97.6484C97.1992 33.0039 95.5 34.2148 93.0391 34.2148ZM90.3633 27.6914H95.3633C95.3438 26.2461 94.3867 25.1914 92.9414 25.1914C91.4375 25.1914 90.4414 26.334 90.3633 27.6914ZM102.228 34L99.2203 23.3945H101.759L103.634 30.8555H103.732L105.627 23.3945H108.146L110.06 30.8164H110.158L112.013 23.3945H114.552L111.545 34H108.947L106.955 26.8125H106.818L104.826 34H102.228Z" fill="white"/>
<path d="M29.3359 106.047V114.484H34.0625V118.547H29.3359V126.633H24.2578V106.047H29.3359ZM17.6172 127.258C24.9219 127.258 29.6094 129.914 29.6094 134.367C29.6094 138.938 24.9219 141.594 17.6172 141.594C10.1562 141.594 5.42969 138.938 5.42969 134.367C5.42969 129.914 10.1562 127.258 17.6172 127.258ZM17.6172 131.203C12.9297 131.203 10.3125 132.297 10.3516 134.367C10.3125 136.516 12.9297 137.648 17.6172 137.648C22.1094 137.648 24.7656 136.516 24.7656 134.367C24.7656 132.297 22.1094 131.203 17.6172 131.203ZM18.2812 108.43V112.414H7.26562V120.695C13.8477 120.656 17.4609 120.461 21.4453 119.602L21.875 123.586C17.5 124.562 13.3203 124.68 5.27344 124.719H2.30469V108.43H18.2812ZM66.1906 106.086V132.023H61.1906V106.086H66.1906ZM67.1281 136.984V140.969H42.3625V129.523H47.4016V136.984H67.1281ZM50.0578 111.477C50.0187 116.164 52.5187 120.773 58.3781 122.648L55.8391 126.555C51.8352 125.227 49.0617 122.57 47.4797 119.172C45.8977 122.824 43.0461 125.754 38.8859 127.18L36.3078 123.234C42.2844 121.242 44.8625 116.281 44.8625 111.477V108.039H50.0578V111.477ZM83.3187 108.43C88.9437 108.391 93.1625 112.062 93.1625 117.141C93.1625 122.258 88.9437 125.891 83.3187 125.891C77.6937 125.891 73.4359 122.258 73.4359 117.141C73.4359 112.062 77.6937 108.391 83.3187 108.43ZM83.3187 112.727C80.5062 112.727 78.3578 114.367 78.3969 117.141C78.3578 119.953 80.5062 121.555 83.3187 121.555C86.1312 121.555 88.2797 119.953 88.3187 117.141C88.2797 114.367 86.1703 112.727 83.3187 112.727ZM101.678 106.047V141.672H96.7172V106.047H101.678ZM71.9516 130.344C78.2797 130.383 87.0687 130.266 94.6859 129.211L95.0766 132.805C87.1859 134.328 78.7484 134.406 72.5375 134.406L71.9516 130.344ZM130.231 109.68C130.192 114.211 132.692 118.273 138.473 119.992L135.817 123.859C131.989 122.648 129.333 120.246 127.809 117.141C126.227 120.695 123.356 123.508 119.137 124.875L116.598 120.891C122.575 119.055 125.192 114.523 125.231 109.797V107.414H130.231V109.68ZM145.387 106.047V113.117H150.192V117.141H145.387V124.914H140.387V106.047H145.387ZM131.677 126.359V135.383H124.88V137.609C127.868 137.609 129.841 137.473 132.223 137.023L132.653 140.734C129.528 141.359 126.989 141.438 122.145 141.398H119.997V131.906H126.872V129.992H119.958V126.359H131.677ZM145.387 126.359V141.398H133.552V126.359H145.387ZM137.848 129.992V137.805H141.091V129.992H137.848ZM168.766 106.555C176.93 106.555 181.656 108.703 181.695 112.609C181.656 116.555 176.93 118.703 168.766 118.703C160.562 118.703 155.797 116.555 155.797 112.609C155.797 108.703 160.562 106.555 168.766 106.555ZM168.766 110.188C163.531 110.188 160.992 111.047 161.031 112.609C160.992 114.367 163.531 115.031 168.766 115.031C174.039 115.031 176.539 114.367 176.539 112.609C176.539 111.047 174.039 110.188 168.766 110.188ZM184.977 120.383V124.328H152.555V120.383H184.977ZM181.031 126.398V135.461H161.227V137.609H181.969V141.359H156.344V131.984H176.109V130.031H156.305V126.398H181.031ZM225.991 106.047V119.68H231.03V123.781H225.991V141.516H220.991V106.047H225.991ZM216.498 109.68C216.459 120.305 212.319 129.523 200.366 135.383L197.553 131.555C205.971 127.336 210.483 121.672 211.42 113.742H199.584V109.68H216.498ZM253.509 108.43V112.414H246.439C246.478 116.555 248.959 120.559 254.642 122.219L252.259 126.125C248.334 124.934 245.619 122.551 244.056 119.484C242.474 123.078 239.584 125.93 235.306 127.336L232.767 123.391C238.666 121.535 241.322 116.926 241.4 112.414H234.134V108.43H253.509ZM261.517 106.047V114.289H266.322V118.352H261.517V127.141H256.517V106.047H261.517ZM249.877 127.844C257.259 127.805 261.869 130.344 261.869 134.68C261.869 139.016 257.259 141.594 249.877 141.594C242.337 141.594 237.689 139.016 237.689 134.68C237.689 130.344 242.337 127.805 249.877 127.844ZM249.877 131.711C245.189 131.711 242.65 132.688 242.689 134.68C242.65 136.711 245.189 137.727 249.877 137.727C254.486 137.727 256.947 136.711 256.947 134.68C256.947 132.688 254.486 131.711 249.877 131.711ZM290.109 114.992C290.109 120.734 291.711 126.672 296.555 129.797L293.859 133.664C290.793 131.809 288.84 128.762 287.727 125.109C286.438 129.133 284.309 132.492 281.086 134.445L278.039 130.773C283.312 127.492 285.266 121.242 285.266 115.227V109.094H290.109V114.992ZM309.523 106.047V141.594H304.758V106.047H309.523ZM302.062 106.555V139.953H297.414V122.102H292.805V118.039H297.414V106.555H302.062ZM331.144 108.469V119.875H320.402V123.938C325.284 123.879 328.624 123.684 332.433 123.039L332.98 127.062C328.409 127.844 324.464 127.961 318.136 127.961H315.402V116.164H326.144V112.453H315.362V108.469H331.144ZM344.034 106.086V132.336H339.073V123.469H333.214V119.445H339.073V115.422H333.214V111.477H339.073V106.086H344.034ZM344.933 136.867V140.93H320.206V130.305H325.167V136.867H344.933ZM370.186 116.945V120.93H363.819V124.523C366.631 124.387 369.424 124.211 372.061 123.938L372.413 127.492C364.873 128.547 356.827 128.742 350.264 128.742L349.6 124.797C352.452 124.777 355.596 124.758 358.819 124.68V120.93H352.608V108.195H369.873V112.18H357.608V116.945H370.186ZM379.327 106.008V132.805H374.248V106.008H379.327ZM380.264 136.984V140.969H355.108V130.773H360.147V136.984H380.264ZM411.395 127.805C418.778 127.805 423.388 130.344 423.388 134.68C423.388 139.094 418.778 141.633 411.395 141.633C403.856 141.633 399.208 139.094 399.208 134.68C399.208 130.344 403.856 127.805 411.395 127.805ZM411.395 131.672C406.708 131.672 404.169 132.648 404.208 134.68C404.169 136.711 406.708 137.766 411.395 137.766C416.005 137.766 418.466 136.711 418.466 134.68C418.466 132.648 416.005 131.672 411.395 131.672ZM423.036 106.047V114.289H427.841V118.469H423.036V127.023H418.036V106.047H423.036ZM400.848 108.273V112.766H408.114V108.273H413.114V124.992H395.888V108.273H400.848ZM400.848 121.047H408.114V116.633H400.848V121.047ZM443.836 111.086C443.797 115.539 446.336 119.836 452.195 121.594L449.695 125.5C445.652 124.211 442.859 121.691 441.258 118.43C439.656 121.945 436.766 124.699 432.586 126.047L430.086 122.141C436.023 120.227 438.641 115.617 438.641 111.086V107.688H443.836V111.086ZM459.969 128.781V141.594H454.969V132.766H435.516V128.781H459.969ZM459.969 106.047V127.258H454.969V106.047H459.969ZM481.784 107.844C489.284 107.883 495.144 111.906 495.183 118.078C495.144 124.289 489.284 128.352 481.784 128.312C474.245 128.352 468.425 124.289 468.425 118.078C468.425 111.906 474.245 107.883 481.784 107.844ZM481.784 111.906C476.862 111.867 473.269 114.25 473.269 118.078C473.269 121.945 476.862 124.25 481.784 124.25C486.706 124.25 490.222 121.945 490.261 118.078C490.222 114.25 486.706 111.867 481.784 111.906ZM498.112 133.234V137.258H465.573V133.234H498.112ZM533.483 133.547V137.648H500.944V133.547H514.655V128.195H504.694V116.242H524.811V112.336H504.655V108.352H529.733V120.148H509.694V124.133H530.553V128.195H519.616V133.547H533.483ZM564.458 108.977V126.047H547.388V108.977H564.458ZM552.309 112.961V122.141H559.536V112.961H552.309ZM574.536 106.047V116.281H579.341V120.383H574.536V131.984H569.536V106.047H574.536ZM575.825 136.984V140.969H551.489V129.445H556.45V136.984H575.825ZM614.203 119.914V123.82H581.703V119.914H614.203ZM610.336 114.055V117.961H585.766V106.75H610.062V110.734H590.727V114.055H610.336ZM610.18 125.93V135.227H590.375V137.414H611.117V141.281H585.492V131.672H605.258V129.68H585.453V125.93H610.18ZM626.878 108.547C631.683 108.547 635.257 112.512 635.98 118.898H642.152V106.047H647.073V141.672H642.152V122.883H636.019C635.491 129.719 631.839 133.898 626.878 133.898C621.487 133.898 617.62 129.016 617.659 121.203C617.62 113.469 621.487 108.547 626.878 108.547ZM626.878 113.039C624.222 113.039 622.386 115.93 622.425 121.203C622.386 126.516 624.222 129.367 626.878 129.367C629.573 129.367 631.331 126.516 631.331 121.203C631.331 115.93 629.573 113.039 626.878 113.039ZM684.983 133.391V137.453H652.444V133.391H666.155V126.828H655.881V108.312H660.881V113.82H676.389V108.312H681.35V126.828H671.116V133.391H684.983ZM660.881 122.844H676.389V117.805H660.881V122.844ZM699.22 114.992C699.22 120.734 700.822 126.672 705.666 129.797L702.97 133.664C699.904 131.809 697.951 128.762 696.838 125.109C695.548 129.133 693.42 132.492 690.197 134.445L687.15 130.773C692.423 127.492 694.377 121.242 694.377 115.227V109.094H699.22V114.992ZM718.634 106.047V141.594H713.869V106.047H718.634ZM711.173 106.555V139.953H706.525V122.102H701.916V118.039H706.525V106.555H711.173ZM755.723 133.352V137.453H723.184V133.352H730.45V124.641C727.696 123 726.036 120.48 726.036 117.336C726.036 111.594 731.661 107.766 739.395 107.766C747.091 107.766 752.755 111.594 752.794 117.336C752.774 120.402 751.153 122.902 748.497 124.562V133.352H755.723ZM739.395 111.711C734.317 111.711 730.958 113.742 730.958 117.336C730.958 120.812 734.317 122.961 739.395 122.961C744.434 122.961 747.833 120.812 747.872 117.336C747.833 113.742 744.434 111.711 739.395 111.711ZM735.372 133.352H743.458V126.438C742.188 126.691 740.821 126.828 739.395 126.828C737.97 126.828 736.622 126.711 735.372 126.438V133.352Z" fill="#40424D"/>
<path d="M20.4375 182.078V184.211H17.2969V195.039H14.6953V173.898H17.2969V182.078H20.4375ZM4.03125 175.961V187.656C6.85547 187.609 9.86719 187.363 13.0547 186.695L13.3359 188.898C9.77344 189.602 6.375 189.812 3.23438 189.812H1.45312V175.961H4.03125ZM28.2534 175.211C31.5112 175.211 33.9956 177.32 34.0191 180.32C33.9956 182.91 32.1675 184.82 29.5894 185.312V188.43C31.3472 188.348 33.1167 188.207 34.7691 187.984L34.9566 189.93C30.5269 190.727 25.6753 190.75 22.0425 190.703L21.6675 188.57C23.2612 188.57 25.0894 188.57 26.9878 188.523V185.312C24.3277 184.867 22.4878 182.945 22.5112 180.32C22.4878 177.32 24.9253 175.211 28.2534 175.211ZM28.2534 177.414C26.4019 177.438 25.0425 178.539 25.0425 180.32C25.0425 182.102 26.4019 183.227 28.2534 183.203C30.0816 183.227 31.4409 182.102 31.4409 180.32C31.4409 178.539 30.0816 177.438 28.2534 177.414ZM38.5894 173.898V182.359H41.6597V184.562H38.5894V195.086H35.9878V173.898H38.5894ZM57.315 179.922C57.315 183.391 59.3541 187.047 62.7759 188.477L61.3462 190.539C58.8384 189.461 57.0103 187.234 56.0494 184.539C55.065 187.445 53.2134 189.883 50.7291 191.055L49.2291 189.016C52.5806 187.469 54.6666 183.531 54.6666 179.922V178.141H50.0025V175.984H61.9556V178.141H57.315V179.922ZM66.9478 173.898V195.086H64.3228V173.898H66.9478ZM88.2872 187.422V195.086H85.6856V189.484H73.8497V187.422H88.2872ZM88.2872 173.898V186.414H85.6856V183.602H80.7169C79.7091 184.727 78.1856 185.406 76.4278 185.406C73.2403 185.406 70.8262 183.25 70.8262 180.203C70.8262 177.203 73.2403 175.047 76.4278 175.07C78.1739 175.059 79.6973 175.715 80.6934 176.828H85.6856V173.898H88.2872ZM76.4278 177.273C74.5997 177.273 73.3106 178.445 73.3106 180.203C73.3106 182.031 74.5997 183.18 76.4278 183.203C78.1622 183.18 79.4747 182.031 79.4981 180.203C79.4747 178.445 78.1622 177.273 76.4278 177.273ZM81.8184 181.492H85.6856V178.961H81.8419C81.9239 179.359 81.9825 179.77 81.9825 180.203C81.9825 180.648 81.9239 181.082 81.8184 181.492ZM98.6344 175.375C101.986 175.352 104.447 177.484 104.47 180.484C104.447 183.508 101.986 185.617 98.6344 185.617C95.3063 185.617 92.8219 183.508 92.8219 180.484C92.8219 177.484 95.3063 175.352 98.6344 175.375ZM98.6344 177.625C96.7828 177.625 95.4 178.727 95.4 180.484C95.4 182.266 96.7828 183.344 98.6344 183.344C100.509 183.344 101.916 182.266 101.916 180.484C101.916 178.727 100.509 177.625 98.6344 177.625ZM109.416 173.898V195.109H106.814V173.898H109.416ZM91.8609 188.547C95.6813 188.547 100.978 188.5 105.548 187.844L105.759 189.742C101.002 190.656 95.9156 190.68 92.1891 190.68L91.8609 188.547ZM137.352 173.898V195.086H134.844V184.375H132.501V194.008H130.063V174.297H132.501V182.242H134.844V173.898H137.352ZM122.704 176.336V187.516C124.532 187.48 126.536 187.328 128.751 186.883L129.008 189.156C126.149 189.672 123.735 189.812 121.485 189.812H120.079V176.336H122.704ZM146.387 174.578C149.598 174.578 151.988 176.57 152.012 179.359C151.988 182.172 149.598 184.141 146.387 184.141C143.152 184.141 140.762 182.172 140.762 179.359C140.762 176.57 143.152 174.578 146.387 174.578ZM146.387 176.734C144.606 176.734 143.293 177.742 143.293 179.359C143.293 181 144.606 182.031 146.387 182.031C148.168 182.031 149.481 181 149.481 179.359C149.481 177.742 148.168 176.734 146.387 176.734ZM158.035 173.898V184.609H155.41V173.898H158.035ZM158.035 185.523V191.055H146.574V192.766H158.668V194.828H144.02V189.133H155.434V187.562H143.973V185.523H158.035ZM171.242 174.227C176.07 174.227 178.859 175.516 178.883 177.859C178.859 180.227 176.07 181.492 171.242 181.516C166.414 181.492 163.601 180.227 163.601 177.859C163.601 175.516 166.414 174.227 171.242 174.227ZM171.242 176.148C168.008 176.148 166.32 176.758 166.343 177.859C166.32 179.031 168.008 179.57 171.242 179.57C174.523 179.57 176.187 179.031 176.187 177.859C176.187 176.758 174.523 176.148 171.242 176.148ZM180.922 182.641V184.727H161.609V182.641H180.922ZM178.508 186.156V191.336H166.461V192.906H179.093V194.898H163.906V189.484H175.953V188.078H163.883V186.156H178.508ZM205.717 173.898V179.266H208.671V181.445H205.717V186.672H203.116V173.898H205.717ZM205.717 187.68V194.828H192.03V187.68H205.717ZM194.608 189.742V192.719H203.139V189.742H194.608ZM201.592 175.938V178.023H189.03V175.938H194.022V173.758H196.624V175.938H201.592ZM195.311 178.797C198.382 178.797 200.467 180.344 200.491 182.594C200.467 184.867 198.382 186.391 195.311 186.391C192.217 186.391 190.108 184.867 190.108 182.594C190.108 180.344 192.217 178.797 195.311 178.797ZM195.311 180.766C193.694 180.766 192.639 181.445 192.639 182.594C192.639 183.766 193.694 184.445 195.311 184.445C196.928 184.445 198.007 183.766 198.007 182.594C198.007 181.445 196.928 180.766 195.311 180.766ZM215.455 176.383C215.432 181.375 214.869 186.203 212.057 190.375L210.018 189.273C212.362 185.98 213.041 182.547 213.205 178.492H210.627V176.383H215.455ZM220.19 176.383C220.178 178.199 220.143 180.086 219.955 181.961H222.088V174.414H224.549V194.078H222.088V184.07H219.674C219.205 186.695 218.35 189.25 216.791 191.547L214.799 190.422C217.342 186.777 217.834 182.699 217.94 178.492H216.088V176.383H220.19ZM228.651 173.898V195.086H226.143V173.898H228.651ZM248.384 175.727V185.734H238.353V175.727H248.384ZM240.908 177.812V183.672H245.829V177.812H240.908ZM254.337 173.898V180.109H257.29V182.289H254.337V189.367H251.736V173.898H254.337ZM255.181 192.555V194.664H240.767V187.867H243.368V192.555H255.181ZM276.052 183.836V185.922H261.192V175.75H275.888V177.859H263.77V183.836H276.052ZM278.208 190.234V192.391H258.848V190.234H278.208ZM297.227 179.898V181.961H282.555V174.672H285.133V179.898H297.227ZM299.407 184.422V186.484H280.047V184.422H299.407ZM297.367 192.484V194.594H282.367V188.359H284.969V192.484H297.367ZM324.39 174.906V176.5C324.39 178.117 324.39 179.945 323.874 182.336L321.273 182.078C321.742 179.957 321.788 178.387 321.788 176.945H309.718V174.906H324.39ZM326.734 183.602V185.664H307.515V183.602H314.968V179.547H317.546V183.602H326.734ZM318.343 187.844C318.343 190.234 320.921 192.414 325.374 192.977L324.413 194.969C320.968 194.5 318.343 193.07 317.031 191.031C315.706 193.07 313.081 194.5 309.671 194.969L308.734 192.977C313.117 192.414 315.695 190.234 315.718 187.844V187.07H318.343V187.844ZM332.815 191.336L330.847 197.898H328.62L329.839 191.336H332.815ZM342.33 193V176.031H348.705C352.596 176.031 354.682 178.398 354.682 181.656C354.682 184.914 352.572 187.258 348.658 187.258H345.377V193H342.33ZM345.377 184.75H348.236C350.533 184.75 351.564 183.461 351.564 181.656C351.564 179.828 350.533 178.586 348.236 178.586H345.377V184.75ZM357.482 193V180.273H360.388V182.383H360.529C360.974 180.93 362.216 180.086 363.669 180.086C363.997 180.086 364.466 180.109 364.747 180.156V182.922C364.49 182.828 363.857 182.734 363.365 182.734C361.701 182.734 360.482 183.883 360.482 185.5V193H357.482ZM372.142 193.258C368.438 193.258 366.048 190.633 366.048 186.695C366.048 182.734 368.438 180.109 372.142 180.109C375.868 180.109 378.235 182.734 378.235 186.695C378.235 190.633 375.868 193.258 372.142 193.258ZM372.165 190.867C374.204 190.867 375.212 189.016 375.212 186.672C375.212 184.352 374.204 182.477 372.165 182.477C370.079 182.477 369.071 184.352 369.071 186.672C369.071 189.016 370.079 190.867 372.165 190.867ZM381.036 180.273H384.036V193.727C384.036 196.469 382.418 197.781 379.606 197.781C379.418 197.781 379.231 197.781 378.997 197.758V195.32C379.161 195.344 379.301 195.344 379.442 195.344C380.59 195.344 381.036 194.758 381.036 193.703V180.273ZM382.536 178.469C381.598 178.469 380.801 177.742 380.801 176.828C380.801 175.938 381.598 175.211 382.536 175.211C383.497 175.211 384.27 175.938 384.27 176.828C384.27 177.742 383.497 178.469 382.536 178.469ZM393.023 193.258C389.18 193.258 386.836 190.703 386.836 186.719C386.836 182.781 389.227 180.109 392.859 180.109C395.977 180.109 398.672 182.055 398.672 186.531V187.469H389.789C389.824 189.637 391.102 190.914 393.047 190.914C394.359 190.914 395.25 190.352 395.625 189.602H398.555C398.016 191.805 395.977 193.258 393.023 193.258ZM389.812 185.43H395.812C395.789 183.695 394.641 182.43 392.906 182.43C391.102 182.43 389.906 183.801 389.812 185.43ZM407.027 193.258C403.23 193.258 400.933 190.539 400.933 186.695C400.933 182.805 403.3 180.109 407.027 180.109C410.121 180.109 412.277 181.914 412.488 184.656H409.628C409.394 183.438 408.503 182.5 407.05 182.5C405.199 182.5 403.957 184.07 403.957 186.625C403.957 189.25 405.175 190.82 407.05 190.82C408.386 190.82 409.371 190.047 409.628 188.664H412.488C412.253 191.359 410.214 193.258 407.027 193.258ZM421.569 180.273V182.57H419.062V189.18C419.062 190.398 419.671 190.656 420.421 190.656C420.772 190.656 421.358 190.633 421.733 190.609V193.047C421.382 193.117 420.796 193.164 420.046 193.164C417.796 193.164 416.062 192.062 416.085 189.672V182.57H414.257V180.273H416.085V177.227H419.062V180.273H421.569ZM430.662 193V176.031H433.709V183.227H441.608V176.031H444.678V193H441.608V185.781H433.709V193H430.662ZM450.009 193.188C449.002 193.188 448.181 192.367 448.181 191.359C448.181 190.375 449.002 189.555 450.009 189.555C450.97 189.555 451.814 190.375 451.814 191.359C451.814 192.367 450.97 193.188 450.009 193.188Z" fill="#8D92A2"/>
</svg>
