<svg width="440" height="520" viewBox="0 0 440 520" fill="none" xmlns="http://www.w3.org/2000/svg">
<rect x="1" y="1" width="438" height="518" rx="59" fill="white"/>
<rect x="1" y="1" width="438" height="518" rx="59" stroke="#56AFDF" stroke-width="2"/>
<path d="M93.5938 99.6641V103.648H61.0547V99.6641H69.1406V92.9062H63.75V88.8828H68.5156V78.8828H63.5938V74.8984H90.8594V78.8828H85.8594V88.8828H90.7031V92.9062H85.3516V99.6641H93.5938ZM73.5156 88.8828H80.9375V78.8828H73.5156V88.8828ZM74.1406 99.6641H80.3516V92.9062H74.1406V99.6641ZM114.784 74.9375V77.6328H121.425V72.0859H126.386V97.9453H121.425V89.2344H114.784V92.2422H97.9094V74.9375H114.784ZM102.87 78.8828V88.375H109.902V78.8828H102.87ZM127.128 102.984V106.969H102.714V95.4844H107.753V102.984H127.128ZM114.784 85.2891H121.425V81.6562H114.784V85.2891ZM152.303 74.0391V77.9844H145.233C145.272 82.1836 147.772 86.4805 153.397 88.3359L150.936 92.1641C146.991 90.9141 144.295 88.3359 142.772 85.1328C141.17 88.6875 138.338 91.5586 134.139 92.9062L131.6 88.9609C137.44 87.0859 140.096 82.418 140.155 77.9844H133.006V74.0391H152.303ZM161.756 94.7812V107.594H156.795V98.7656H137.342V94.7812H161.756ZM161.756 72.0469V93.2188H156.795V84.6641H151.287V80.6016H156.795V72.0469H161.756ZM196.931 72.0469V107.672H191.892V72.0469H196.931ZM177.634 74.5469C182.986 74.5469 186.97 79.4688 186.97 87.2031C186.97 95.0156 182.986 99.8984 177.634 99.8984C172.166 99.8984 168.181 95.0156 168.22 87.2031C168.181 79.4688 172.166 74.5469 177.634 74.5469ZM177.634 79.0391C174.861 79.0391 173.025 81.9297 173.025 87.2031C173.025 92.5156 174.861 95.3672 177.634 95.3672C180.33 95.3672 182.166 92.5156 182.166 87.2031C182.166 81.9297 180.33 79.0391 177.634 79.0391ZM232.419 72.0469V107.594H227.38V72.0469H232.419ZM221.755 75.7578C221.755 86.5391 217.966 95.4844 205.27 101.5L202.653 97.5156C211.833 93.1797 215.876 87.5547 216.677 79.6641H204.567V75.7578H221.755ZM256.031 74.9766V92.0469H238.961V74.9766H256.031ZM243.883 78.9609V88.1406H251.109V78.9609H243.883ZM266.109 72.0469V82.2812H270.914V86.3828H266.109V97.9844H261.109V72.0469H266.109ZM267.398 102.984V106.969H243.062V95.4453H248.023V102.984H267.398ZM311.498 72.0859V82.9844H316.303V87.0469H311.498V98.6094H306.498V72.0859H311.498ZM304.389 75.7969V79.7422H283.295V75.7969H291.381V72.0078H296.342V75.7969H304.389ZM293.842 80.9922C298.998 80.9922 302.592 83.7656 302.592 87.8672C302.592 91.9688 298.998 94.6641 293.842 94.6641C288.647 94.6641 285.014 91.9688 285.014 87.8672C285.014 83.7656 288.647 80.9922 293.842 80.9922ZM293.842 84.7812C291.459 84.8203 289.858 85.9141 289.897 87.8672C289.858 89.8203 291.459 90.875 293.842 90.875C296.225 90.875 297.866 89.8203 297.866 87.8672C297.866 85.9141 296.225 84.8203 293.842 84.7812ZM312.788 102.984V106.969H288.452V96.5781H293.413V102.984H312.788ZM80.9766 134.625V136.852C80.9766 139.312 80.9766 142.867 80.1562 147.281L75.2734 146.812C75.8984 143.395 76.0547 140.816 76.0938 138.688H62.6953V134.625H80.9766ZM72.1484 142.828V149.625C75.6836 149.488 79.3164 149.215 82.6562 148.727L82.9297 152.32C75.5469 153.688 67.1875 153.805 61.0156 153.844L60.5859 149.859C62.5781 149.859 64.8242 149.859 67.1875 149.781V142.828H72.1484ZM89.6875 132.047V142.867H93.9844V147.047H89.6875V158.648H84.5703V132.047H89.6875ZM90.7812 162.984V166.969H65.8203V156.266H70.8203V162.984H90.7812ZM127.245 132.047V167.594H122.558V132.047H127.245ZM119.823 132.828V166.031H115.097V154.312H110.058V150.289H115.097V145.445H110.722C109.062 151.305 105.468 156.266 98.8078 160.211L95.8781 156.695C103.085 152.438 106.249 147.262 106.933 140.289H97.9484V136.266H111.894C111.894 138.043 111.777 139.762 111.581 141.422H115.097V132.828H119.823ZM174.236 149.352V153.336H141.814V149.352H155.525V144.625H160.447V149.352H174.236ZM160.525 133.805C160.525 137.945 164.509 141.891 172.517 142.867L170.603 146.734C164.607 145.836 160.193 143.316 157.947 139.742C155.662 143.316 151.248 145.855 145.252 146.734L143.494 142.867C151.345 141.891 155.447 137.828 155.447 133.805V132.633H160.525V133.805ZM170.291 155.836V167.594H165.33V159.703H145.408V155.836H170.291ZM188.708 134.43C194.333 134.391 198.552 138.062 198.552 143.141C198.552 148.258 194.333 151.891 188.708 151.891C183.083 151.891 178.825 148.258 178.825 143.141C178.825 138.062 183.083 134.391 188.708 134.43ZM188.708 138.727C185.895 138.727 183.747 140.367 183.786 143.141C183.747 145.953 185.895 147.555 188.708 147.555C191.52 147.555 193.669 145.953 193.708 143.141C193.669 140.367 191.559 138.727 188.708 138.727ZM207.067 132.047V167.672H202.106V132.047H207.067ZM177.341 156.344C183.669 156.383 192.458 156.266 200.075 155.211L200.466 158.805C192.575 160.328 184.137 160.406 177.927 160.406L177.341 156.344ZM90.3516 195.133V198.492C90.3516 202.945 90.3516 207.945 88.9062 215.484L83.9062 214.977C85.2539 208.258 85.3125 203.258 85.3516 199.078H64.4141V195.133H90.3516ZM93.4766 219.195V223.258H61.0547V219.195H72.6562V206.969H77.6172V219.195H93.4766ZM126.191 192.086V211.891H121.191V192.086H126.191ZM114.745 193.648V204.234H103.183V207.164C109.12 207.145 113.3 207.047 118.105 206.227L118.73 210.211C113.261 211.148 108.495 211.266 101.425 211.266H98.3V200.445H109.784V197.633H98.2609V193.648H114.745ZM107.362 213.375V216.422H121.23V213.375H126.191V227.203H102.402V213.375H107.362ZM107.362 223.219H121.23V220.289H107.362V223.219ZM151.795 195.602V198.453C151.756 201.812 151.756 206.188 150.819 212.086L145.897 211.695C146.698 206.539 146.776 202.73 146.834 199.586H133.358V195.602H151.795ZM142.928 205.797V216.109C146.424 215.973 149.979 215.719 153.241 215.289L153.553 219C146.248 220.25 138.162 220.367 131.952 220.328L131.483 216.344C133.475 216.324 135.702 216.324 138.006 216.266V205.797H142.928ZM159.959 192.047V206.344H164.803V210.484H159.959V227.594H154.92V192.047H159.959ZM205.387 192.047V201.734H210.192V205.836H205.387V217.75H200.387V192.047H205.387ZM194.606 194.898V198.883H183.552V207.867C189.977 207.828 193.512 207.633 197.497 206.773L198.005 210.758C193.552 211.695 189.45 211.891 181.559 211.891H178.552V194.898H194.606ZM206.677 222.984V226.969H182.341V215.016H187.302V222.984H206.677ZM232.867 193.414V197.398H225.797C225.934 200.953 228.512 204.664 233.922 206.227L231.617 210.172C227.613 209.02 224.859 206.656 223.297 203.688C221.676 206.969 218.785 209.664 214.664 210.914L212.242 207.047C217.809 205.27 220.582 201.168 220.797 197.398H213.609V193.414H232.867ZM242.516 192.047V210.133H237.555V203.297H231.969V199.352H237.555V192.047H242.516ZM242.516 211.5V221.109H223.883V223.375H243.57V227.242H218.883V217.477H237.555V215.445H218.844V211.5H242.516ZM280.347 210.211V214.195H247.925V210.211H280.347ZM276.675 222.984V226.969H251.831V216.578H256.831V222.984H276.675ZM264.136 193.141C271.909 193.102 277.027 195.875 277.066 200.406C277.027 204.938 271.909 207.75 264.136 207.75C256.284 207.75 251.167 204.938 251.167 200.406C251.167 195.875 256.284 193.102 264.136 193.141ZM264.136 197.047C259.214 197.086 256.323 198.258 256.363 200.406C256.323 202.633 259.214 203.727 264.136 203.727C269.058 203.727 271.909 202.633 271.909 200.406C271.909 198.258 269.058 197.086 264.136 197.047Z" fill="#56AFDF"/>
<path d="M97.7344 460C75.9961 460 60.4102 447.969 60 430.742H80.7812C81.1914 438.125 88.3008 443.047 97.8711 443.047C107.715 443.047 114.824 437.441 114.688 429.512C114.824 421.445 107.578 415.703 95.957 415.703H86.7969V400.527H95.957C105.664 400.527 112.5 395.195 112.5 387.402C112.5 379.883 106.758 374.688 98.0078 374.688C89.2578 374.688 82.0117 379.609 81.7383 387.129H62.0508C62.3242 370.039 77.7734 358.281 98.0078 358.281C118.652 358.281 132.461 370.449 132.324 386.172C132.461 397.246 124.668 405.176 113.594 407.09V407.91C128.086 409.688 136.152 418.574 136.016 430.879C136.152 447.832 120.02 460 97.7344 460Z" fill="#E6F3FA"/>
</svg>
