<svg width="440" height="520" viewBox="0 0 440 520" fill="none" xmlns="http://www.w3.org/2000/svg">
<rect width="440" height="520" rx="60" fill="#56AFDF"/>
<path d="M67.7734 74.5859V79.7031H75.2344V74.5859H80.1953V92.5938H62.8516V74.5859H67.7734ZM67.7734 88.6875H75.2344V83.4922H67.7734V88.6875ZM90.8203 72.0859V98.1797H85.8203V72.0859H90.8203ZM91.6406 102.984V106.969H66.9141V95.5625H71.9141V102.984H91.6406ZM117.441 74V77.9844H110.331C110.566 81.7344 113.241 85.4844 118.808 87.0078L116.308 90.875C112.245 89.7227 109.394 87.2812 107.792 84.1562C106.171 87.5352 103.261 90.2109 99.0422 91.5L96.5422 87.5938C102.206 85.9531 104.96 82.0078 105.214 77.9844H97.9094V74H117.441ZM126.191 72.0469V91.3438H121.191V72.0469H126.191ZM107.323 92.8281V96.1484H121.23V92.8281H126.191V107.203H102.402V92.8281H107.323ZM107.323 103.219H121.23V100.016H107.323V103.219ZM148.006 72.5547C156.17 72.5547 160.897 74.7031 160.936 78.6094C160.897 82.5547 156.17 84.7031 148.006 84.7031C139.803 84.7031 135.037 82.5547 135.037 78.6094C135.037 74.7031 139.803 72.5547 148.006 72.5547ZM148.006 76.1875C142.772 76.1875 140.233 77.0469 140.272 78.6094C140.233 80.3672 142.772 81.0312 148.006 81.0312C153.28 81.0312 155.78 80.3672 155.78 78.6094C155.78 77.0469 153.28 76.1875 148.006 76.1875ZM164.217 86.3828V90.3281H131.795V86.3828H164.217ZM160.272 92.3984V101.461H140.467V103.609H161.209V107.359H135.584V97.9844H155.35V96.0312H135.545V92.3984H160.272ZM208.2 72.0469V107.594H203.434V89.7812H200.427V105.953H195.7V95.7578L192.887 99.5078C189.587 97.7695 187.458 94.8203 186.208 91.1484C185.016 95.3672 182.907 98.7852 179.528 100.797L176.442 96.9688C181.833 93.9219 183.669 87.6328 183.669 80.8359V79.7031H177.653V75.7188H193.942V79.7031H188.512V80.8359C188.512 87.0273 190.348 92.9258 195.7 95.6797V72.5547H200.427V85.7188H203.434V72.0469H208.2ZM240.992 72.0469V80.4453H245.523V84.5859H240.992V92.9844H235.992V72.0469H240.992ZM240.992 94.2344V102.203H221.93V104.039H242.164V107.359H216.93V99.1953H235.992V97.5547H216.891V94.2344H240.992ZM212.164 89.1562C214.762 89.1758 217.711 89.1758 220.797 89.0781V87.5156C216.91 87.0664 214.508 85.4453 214.547 82.9062C214.508 80.0156 217.945 78.3359 223.258 78.3359C228.531 78.3359 231.93 80.0156 231.969 82.9062C231.93 85.4453 229.586 87.0469 225.758 87.5156V88.9219C228.668 88.7852 231.598 88.5508 234.352 88.1797L234.703 91.2656C227.125 92.5547 218.883 92.5938 212.672 92.5938L212.164 89.1562ZM233.453 74.2734V77.5938H213.102V74.2734H220.797V71.7344H225.758V74.2734H233.453ZM223.258 81.4219C220.719 81.4219 219.273 81.8906 219.312 82.9062C219.273 83.9609 220.719 84.5078 223.258 84.5469C225.758 84.5078 227.164 83.9609 227.203 82.9062C227.164 81.8906 225.758 81.4219 223.258 81.4219ZM280.347 88.8828V92.8672H247.925V88.8828H255.23V84.625C252.632 83.4727 251.167 81.7148 251.167 79.4297C251.167 75.1328 256.206 72.5547 264.136 72.5547C271.988 72.5547 277.027 75.1328 277.066 79.4297C277.046 81.7344 275.523 83.5312 272.886 84.6641V88.8828H280.347ZM264.097 94.7422C271.792 94.7422 276.441 97.0078 276.48 101.109C276.441 105.289 271.792 107.555 264.097 107.555C256.284 107.555 251.636 105.289 251.636 101.109C251.636 97.0078 256.284 94.7422 264.097 94.7422ZM264.097 98.4922C259.175 98.4922 256.675 99.3516 256.714 101.109C256.675 102.945 259.175 103.844 264.097 103.844C268.902 103.844 271.441 102.945 271.48 101.109C271.441 99.3516 268.902 98.4922 264.097 98.4922ZM264.136 76.3828C259.097 76.3828 256.323 77.4375 256.363 79.4297C256.323 81.3828 259.097 82.3594 264.136 82.3594C269.097 82.3594 271.909 81.3828 271.909 79.4297C271.909 77.4375 269.097 76.3828 264.136 76.3828ZM260.269 88.8828H267.925V85.9141C266.753 86.0508 265.484 86.1094 264.136 86.1094C262.749 86.1094 261.46 86.0508 260.269 85.875V88.8828ZM311.498 72.0859V82.9844H316.303V87.0469H311.498V98.6094H306.498V72.0859H311.498ZM304.389 75.7969V79.7422H283.295V75.7969H291.381V72.0078H296.342V75.7969H304.389ZM293.842 80.9922C298.998 80.9922 302.592 83.7656 302.592 87.8672C302.592 91.9688 298.998 94.6641 293.842 94.6641C288.647 94.6641 285.014 91.9688 285.014 87.8672C285.014 83.7656 288.647 80.9922 293.842 80.9922ZM293.842 84.7812C291.459 84.8203 289.858 85.9141 289.897 87.8672C289.858 89.8203 291.459 90.875 293.842 90.875C296.225 90.875 297.866 89.8203 297.866 87.8672C297.866 85.9141 296.225 84.8203 293.842 84.7812ZM312.788 102.984V106.969H288.452V96.5781H293.413V102.984H312.788ZM91.875 132.047V167.594H87.1875V132.047H91.875ZM84.2969 132.828V166.031H79.6484V149.703H73.8281C71.7969 153.766 68.4961 157.281 63.4375 160.211L60.625 156.695C67.793 152.438 70.957 147.262 71.6406 140.289H62.5781V136.266H76.6016C76.582 139.645 76.2305 142.828 75.3906 145.758H79.6484V132.828H84.2969ZM115.136 136.734C115.136 141.93 119.745 147.516 127.792 148.883L125.605 153.023C119.413 151.793 114.804 148.316 112.519 143.727C110.155 148.277 105.546 151.773 99.3937 153.023L97.2453 148.883C105.136 147.477 109.784 141.891 109.823 136.734V134.156H115.136V136.734ZM128.964 159.117V163.219H96.425V159.117H128.964ZM160.78 150.406V154.352H135.623V134.664H160.506V138.688H140.702V142.438H159.686V146.344H140.702V150.406H160.78ZM164.334 159.391V163.453H131.795V159.391H164.334ZM195.213 132.047V145.953H200.447V150.055H195.213V167.594H190.291V132.047H195.213ZM187.869 137.359V141.344H166.97V137.359H175.017V132.594H180.017V137.359H187.869ZM177.517 143.336C182.713 143.336 186.58 146.852 186.58 151.812C186.58 156.773 182.713 160.289 177.517 160.289C172.283 160.289 168.416 156.773 168.416 151.812C168.416 146.852 172.283 143.336 177.517 143.336ZM177.517 147.359C175.017 147.398 173.181 149.078 173.181 151.812C173.181 154.586 175.017 156.227 177.517 156.188C180.017 156.227 181.814 154.586 181.814 151.812C181.814 149.078 180.017 147.398 177.517 147.359ZM235.036 151.93V155.992H221.13V167.633H216.208V155.992H202.497V151.93H235.036ZM218.669 133.219C226.286 133.219 231.637 136.383 231.637 141.305C231.637 146.148 226.286 149.234 218.669 149.234C211.052 149.234 205.739 146.148 205.778 141.305C205.739 136.383 211.052 133.219 218.669 133.219ZM218.669 137.203C213.903 137.203 210.856 138.688 210.895 141.305C210.856 143.844 213.903 145.289 218.669 145.289C223.473 145.289 226.481 143.844 226.481 141.305C226.481 138.688 223.473 137.203 218.669 137.203ZM256.617 136.734C256.617 141.93 261.227 147.516 269.273 148.883L267.086 153.023C260.895 151.793 256.285 148.316 254 143.727C251.637 148.277 247.027 151.773 240.875 153.023L238.727 148.883C246.617 147.477 251.266 141.891 251.305 136.734V134.156H256.617V136.734ZM270.445 159.117V163.219H237.906V159.117H270.445ZM305.816 159.547V163.648H273.277V159.547H286.988V154.195H277.027V142.242H297.144V138.336H276.988V134.352H302.066V146.148H282.027V150.133H302.886V154.195H291.948V159.547H305.816Z" fill="white"/>
<path d="M103.887 361.016V460H83.2422V380.566H82.6953L60 394.785V376.602L84.4727 361.016H103.887Z" fill="#78BFE5"/>
</svg>
