<svg width="440" height="520" viewBox="0 0 440 520" fill="none" xmlns="http://www.w3.org/2000/svg">
<rect width="440" height="520" rx="60" fill="#56AFDF"/>
<path d="M94.1406 85.5234V89.5859H89.1016V107.516H84.1016V72.0469H89.1016V85.5234H94.1406ZM67.1484 75.4453V94.7031C71.6992 94.6445 76.582 94.2148 81.7188 93.1797L82.2266 97.3203C76.2891 98.5312 70.5078 98.8438 65.2734 98.8438H62.1875V75.4453H67.1484ZM127.245 72.0469V107.594H122.48V72.0469H127.245ZM119.823 72.5547V105.953H115.136V89.1562H112.284C111.816 96.1484 108.847 100.367 104.472 100.367C99.7844 100.367 96.7375 95.4453 96.7375 87.4375C96.7375 79.4688 99.7844 74.5859 104.472 74.5859C108.749 74.5859 111.679 78.5703 112.245 85.2109H115.136V72.5547H119.823ZM104.472 79.2734C102.48 79.2734 101.308 82.0078 101.347 87.4375C101.308 92.9062 102.48 95.6016 104.472 95.5625C106.503 95.6016 107.714 92.9062 107.714 87.4375C107.714 82.0078 106.503 79.2734 104.472 79.2734ZM162.616 72.0469V107.594H157.928V72.0469H162.616ZM155.037 72.8281V106.031H150.389V89.7031H144.569C142.537 93.7656 139.237 97.2812 134.178 100.211L131.366 96.6953C138.534 92.4375 141.698 87.2617 142.381 80.2891H133.319V76.2656H147.342C147.323 79.6445 146.971 82.8281 146.131 85.7578H150.389V72.8281H155.037ZM195.309 74.3516V89.9375H178.239V74.3516H195.309ZM183.161 78.2969V85.9922H190.387V78.2969H183.161ZM205.387 72.0469V79.7812H210.192V83.8438H205.387V91.9688H200.387V72.0469H205.387ZM205.817 93.6484V97.5938H196.716C197.555 100.25 201.071 102.887 207.38 103.727L205.622 107.516C199.919 106.754 195.895 104.469 193.864 101.422C191.813 104.469 187.809 106.715 182.145 107.438L180.348 103.648C186.755 102.867 190.192 100.328 191.012 97.5938H181.872V93.6484H205.817ZM241.422 81.7344V85.6406H216.578V73.2969H221.539V81.7344H241.422ZM245.055 89.4688V93.375H212.516V89.4688H245.055ZM241.656 102.828V106.812H216.266V96.2656H221.266V102.828H241.656ZM79.2578 135.406V158.922H62.1875V135.406H79.2578ZM67.1094 139.312V154.977H74.2969V139.312H67.1094ZM89.1016 132.047V145.445H94.3359V149.586H89.1016V167.594H84.1016V132.047H89.1016ZM112.636 132.711C120.527 132.711 125.527 135.328 125.566 139.664C125.527 143.961 120.527 146.578 112.636 146.539C104.784 146.578 99.6672 143.961 99.6672 139.664C99.6672 135.328 104.784 132.711 112.636 132.711ZM112.636 136.578C107.675 136.578 104.823 137.633 104.862 139.664C104.823 141.656 107.675 142.672 112.636 142.672C117.558 142.672 120.409 141.656 120.409 139.664C120.409 137.633 117.558 136.578 112.636 136.578ZM124.98 155.094V167.203H100.175V155.094H124.98ZM105.097 159.039V163.219H120.097V159.039H105.097ZM128.847 148.609V152.594H96.425V148.609H128.847ZM143.319 134.43C148.944 134.391 153.162 138.062 153.162 143.141C153.162 148.258 148.944 151.891 143.319 151.891C137.694 151.891 133.436 148.258 133.436 143.141C133.436 138.062 137.694 134.391 143.319 134.43ZM143.319 138.727C140.506 138.727 138.358 140.367 138.397 143.141C138.358 145.953 140.506 147.555 143.319 147.555C146.131 147.555 148.28 145.953 148.319 143.141C148.28 140.367 146.17 138.727 143.319 138.727ZM161.678 132.047V167.672H156.717V132.047H161.678ZM131.952 156.344C138.28 156.383 147.069 156.266 154.686 155.211L155.077 158.805C147.186 160.328 138.748 160.406 132.537 160.406L131.952 156.344ZM206.481 135.133V138.492C206.481 142.945 206.481 147.945 205.036 155.484L200.036 154.977C201.384 148.258 201.442 143.258 201.481 139.078H180.544V135.133H206.481ZM209.606 159.195V163.258H177.184V159.195H188.786V146.969H193.747V159.195H209.606ZM245.367 137.242V141.266H240.758V144.898H245.367V148.961H240.758V154.625H235.758V132.047H240.758V137.242H245.367ZM229.156 154.938C236.461 154.938 241.148 157.32 241.148 161.305C241.148 165.211 236.461 167.594 229.156 167.594C221.695 167.594 217.086 165.211 217.125 161.305C217.086 157.32 221.695 154.938 229.156 154.938ZM229.156 158.727C224.508 158.727 222.008 159.547 222.047 161.305C222.008 162.984 224.508 163.883 229.156 163.883C233.688 163.883 236.148 162.984 236.148 161.305C236.148 159.547 233.688 158.727 229.156 158.727ZM233.648 135.445V139.312H212.555V135.445H220.641V131.852H225.602V135.445H233.648ZM223.102 140.523C228.258 140.523 231.852 143.141 231.852 146.93C231.852 150.758 228.258 153.297 223.102 153.297C217.867 153.297 214.273 150.758 214.273 146.93C214.273 143.141 217.867 140.523 223.102 140.523ZM223.102 144.156C220.719 144.156 219.117 145.133 219.156 146.93C219.117 148.688 220.719 149.625 223.102 149.586C225.484 149.625 227.125 148.688 227.125 146.93C227.125 145.133 225.484 144.156 223.102 144.156ZM264.136 132.555C272.3 132.555 277.027 134.703 277.066 138.609C277.027 142.555 272.3 144.703 264.136 144.703C255.933 144.703 251.167 142.555 251.167 138.609C251.167 134.703 255.933 132.555 264.136 132.555ZM264.136 136.188C258.902 136.188 256.363 137.047 256.402 138.609C256.363 140.367 258.902 141.031 264.136 141.031C269.409 141.031 271.909 140.367 271.909 138.609C271.909 137.047 269.409 136.188 264.136 136.188ZM280.347 146.383V150.328H247.925V146.383H280.347ZM276.402 152.398V161.461H256.597V163.609H277.339V167.359H251.714V157.984H271.48V156.031H251.675V152.398H276.402ZM313.587 135.484V139.43H306.4C306.478 142.926 309.056 146.52 314.72 147.945L312.533 151.773C308.431 150.738 305.58 148.512 303.978 145.68C302.396 148.805 299.545 151.285 295.384 152.438L293.041 148.492C298.705 147.027 301.361 143.277 301.439 139.43H294.291V135.484H301.439V131.891H306.478V135.484H313.587ZM321.517 132.047V140.016H326.322V144.117H321.517V152.32H316.517V132.047H321.517ZM321.947 153.844V157.75H312.923C313.822 160.367 317.318 162.906 323.509 163.727L321.752 167.516C316.029 166.754 312.005 164.469 309.955 161.422C307.923 164.449 303.92 166.676 298.275 167.438L296.478 163.648C302.728 162.887 306.185 160.426 307.103 157.75H298.002V153.844H321.947ZM338.255 134.547C343.684 134.547 347.591 139.469 347.63 147.203C347.591 155.016 343.684 159.898 338.255 159.898C332.825 159.898 328.841 155.016 328.88 147.203C328.841 139.469 332.825 134.547 338.255 134.547ZM338.255 139.039C335.52 139.039 333.684 141.93 333.684 147.203C333.684 152.516 335.52 155.367 338.255 155.367C341.028 155.367 342.825 152.516 342.864 147.203C342.825 141.93 341.028 139.039 338.255 139.039ZM356.731 132.047V145.445H361.966V149.586H356.731V167.594H351.731V132.047H356.731ZM71.0547 195.289V199.312H66.7578V214.625C68.2422 214.586 69.5312 214.449 70.9766 214.156L71.4844 218.219C68.9844 218.727 66.9141 218.766 63.6328 218.766H61.875V195.289H71.0547ZM82.5 195.289V199.312H77.7344V214.664C80.0195 214.645 81.7188 214.508 83.5938 214.078L83.9844 218.062C81.25 218.727 78.9844 218.766 74.7266 218.766H72.7344V195.289H82.5ZM91.4453 192.047V227.594H86.4844V208.453H81.0547V204.469H86.4844V192.047H91.4453ZM129.511 205.523V209.586H124.472V227.516H119.472V192.047H124.472V205.523H129.511ZM102.519 195.445V214.703C107.07 214.645 111.952 214.215 117.089 213.18L117.597 217.32C111.659 218.531 105.878 218.844 100.644 218.844H97.5578V195.445H102.519ZM160.662 201.734V205.641H135.819V193.297H140.78V201.734H160.662ZM164.295 209.469V213.375H131.756V209.469H164.295ZM160.897 222.828V226.812H135.506V216.266H140.506V222.828H160.897ZM195.973 194.117C195.973 198.062 200.153 202.477 207.966 203.531L206.091 207.477C200.095 206.598 195.68 203.844 193.434 200.172C191.13 203.883 186.696 206.656 180.7 207.555L178.864 203.648C186.637 202.555 190.817 198.219 190.856 194.117V192.945H195.973V194.117ZM209.684 209.508V213.492H196.286V219.625H191.364V213.492H177.145V209.508H209.684ZM206.091 222.984V226.969H180.973V216.539H185.934V222.984H206.091ZM240.992 192.047V203.727H245.523V207.828H240.992V219.781H235.992V192.047H240.992ZM242.203 222.984V226.969H217.164V217.945H222.164V222.984H242.203ZM212.164 212.477C214.723 212.477 217.691 212.457 220.797 212.359V210.289C216.93 209.762 214.508 207.828 214.547 205.055C214.508 201.539 217.984 199.469 223.258 199.508C228.492 199.469 231.93 201.539 231.969 205.055C231.93 207.809 229.566 209.742 225.758 210.289V212.125C228.688 211.949 231.617 211.676 234.352 211.266L234.703 214.703C227.203 216.148 218.805 216.227 212.672 216.305L212.164 212.477ZM233.453 194.938V198.492H213.102V194.938H220.797V191.93H225.758V194.938H233.453ZM223.258 202.828C220.719 202.828 219.273 203.531 219.312 205.055C219.273 206.383 220.719 207.125 223.258 207.125C225.758 207.125 227.164 206.383 227.203 205.055C227.164 203.531 225.758 202.828 223.258 202.828ZM287.905 192.047V227.594H282.944V209.781H275.873V205.719H282.944V192.047H287.905ZM276.069 195.758C276.069 206.5 272.592 215.25 260.17 221.422L257.592 217.516C266.577 213.082 270.288 207.438 271.069 199.664H259.272V195.758H276.069ZM325.736 211.656V215.641H311.908V227.594H306.986V215.641H293.314V211.656H325.736ZM322.845 193.922V197.828H312.494C312.982 201.305 316.908 204.801 324.212 205.68L322.416 209.586C316.166 208.746 311.693 206.07 309.564 202.398C307.377 206.07 302.943 208.746 296.752 209.586L294.916 205.68C302.103 204.801 306.068 201.305 306.634 197.828H296.244V193.922H322.845ZM361.223 219.547V223.648H328.684V219.547H342.395V214.195H332.434V202.242H352.552V198.336H332.395V194.352H357.473V206.148H337.434V210.133H358.294V214.195H347.356V219.547H361.223Z" fill="white"/>
<path d="M60.958 460L60.8213 445.098L96.3682 412.422C105.665 403.535 110.587 398.066 110.587 390.273C110.587 381.523 103.888 376.055 94.8643 376.055C85.5674 376.055 79.5518 381.934 79.5518 391.367H60.001C59.8642 371.953 74.2197 359.648 95.1377 359.648C116.329 359.648 130.411 371.68 130.411 388.906C130.411 400.117 124.942 409.414 104.571 427.871L89.5322 442.5V443.047H131.778V460H60.958Z" fill="#78BFE5"/>
</svg>
