<svg width="440" height="520" viewBox="0 0 440 520" fill="none" xmlns="http://www.w3.org/2000/svg">
<rect width="440" height="520" rx="60" fill="#56AFDF"/>
<path d="M89.2578 72.0469V80.3672H94.0625V84.5078H89.2578V92.7109H84.2578V72.0469H89.2578ZM79.2578 74.0391C79.2578 83.5312 73.2812 89.9375 62.6172 92.6328L60.5469 88.8438C68.6523 86.8125 73.1055 82.7891 73.8672 77.9844H62.4219V74.0391H79.2578ZM89.2578 94.1172V107.594H84.2578V98.1016H65.3125V94.1172H89.2578ZM120.233 81.7344C120.233 87.4766 123.162 93.6094 129.139 96.1094L126.444 100.016C122.245 98.2383 119.354 94.7031 117.772 90.3672C116.151 95.0742 113.202 98.9805 109.022 100.914L106.17 96.9688C112.069 94.3516 115.116 87.75 115.116 81.7344V79.5469H107.577V75.4844H127.655V79.5469H120.233V81.7344ZM136.209 72.0469V107.594H131.17V72.0469H136.209ZM171.775 94.6641V107.594H166.814V98.5703H147.361V94.6641H171.775ZM171.775 72.0469V93.0625H166.814V88.5703H158.845C157.146 90.4062 154.627 91.5 151.736 91.5C146.345 91.5 142.244 87.7891 142.283 82.6328C142.244 77.5938 146.345 73.9219 151.736 73.9609C154.627 73.9414 157.146 75.0156 158.845 76.8125H166.814V72.0469H171.775ZM151.736 78.1406C148.963 78.1406 146.97 79.8594 147.009 82.6328C146.97 85.5625 148.963 87.2422 151.736 87.2422C154.353 87.2422 156.384 85.5625 156.384 82.6328C156.384 79.8594 154.353 78.1406 151.736 78.1406ZM160.916 84.5859H166.814V80.8359H160.955C161.052 81.4023 161.111 82.0078 161.111 82.6328C161.111 83.3164 161.033 83.9609 160.916 84.5859ZM219.625 91.6562V95.6406H205.797V107.594H200.875V95.6406H187.203V91.6562H219.625ZM216.734 73.9219V77.8281H206.383C206.871 81.3047 210.797 84.8008 218.102 85.6797L216.305 89.5859C210.055 88.7461 205.582 86.0703 203.453 82.3984C201.266 86.0703 196.832 88.7461 190.641 89.5859L188.805 85.6797C195.992 84.8008 199.957 81.3047 200.523 77.8281H190.133V73.9219H216.734ZM241.753 74.8984V92.0469H224.37V74.8984H241.753ZM229.292 78.8438V88.1016H236.792V78.8438H229.292ZM252.339 72.0859V97.3594H247.339V72.0859H252.339ZM253.277 102.789V106.812H228.511V95.0156H233.55V102.789H253.277ZM277.944 75.6016V78.4531C277.905 81.8125 277.905 86.1875 276.967 92.0859L272.045 91.6953C272.846 86.5391 272.924 82.7305 272.983 79.5859H259.506V75.6016H277.944ZM269.077 85.7969V96.1094C272.573 95.9727 276.127 95.7188 279.389 95.2891L279.702 99C272.397 100.25 264.311 100.367 258.1 100.328L257.631 96.3438C259.623 96.3242 261.85 96.3242 264.155 96.2656V85.7969H269.077ZM286.108 72.0469V86.3438H290.952V90.4844H286.108V107.594H281.069V72.0469H286.108ZM89.2578 132.047V140.797H94.0625V144.977H89.2578V153.492H84.2578V132.047H89.2578ZM89.2578 155.055V167.203H66.0156V155.055H89.2578ZM70.9375 158.961V163.219H84.3359V158.961H70.9375ZM82.1484 135.25V139.195H61.0547V135.25H69.1406V131.852H74.1016V135.25H82.1484ZM71.6016 140.289C76.7578 140.289 80.3516 142.906 80.3516 146.656C80.3516 150.523 76.7578 153.102 71.6016 153.102C66.3672 153.102 62.7734 150.523 62.7734 146.656C62.7734 142.906 66.3672 140.289 71.6016 140.289ZM71.6016 144.039C69.2188 144.039 67.6172 144.977 67.6562 146.656C67.6172 148.453 69.2188 149.43 71.6016 149.43C73.9844 149.43 75.625 148.453 75.625 146.656C75.625 144.977 73.9844 144.039 71.6016 144.039ZM105.175 136.109C105.136 144.977 104.277 152.945 99.7453 159.977L95.8781 157.945C99.5305 152.418 100.624 147.027 100.878 140.133H97.05V136.109H105.175ZM113.144 136.109C113.124 139.234 113.066 142.34 112.792 145.367H115.839V132.828H120.527V166.031H115.839V149.391H112.284C111.523 153.746 110.175 157.926 107.714 161.773L103.925 159.664C107.89 153.609 108.71 147.34 108.886 140.133H106.191V136.109H113.144ZM127.519 132.047V167.594H122.753V132.047H127.519ZM159.842 132.047V145.953H165.077V150.055H159.842V167.594H154.92V132.047H159.842ZM152.498 137.359V141.344H131.6V137.359H139.647V132.594H144.647V137.359H152.498ZM142.147 143.336C147.342 143.336 151.209 146.852 151.209 151.812C151.209 156.773 147.342 160.289 142.147 160.289C136.912 160.289 133.045 156.773 133.045 151.812C133.045 146.852 136.912 143.336 142.147 143.336ZM142.147 147.359C139.647 147.398 137.811 149.078 137.811 151.812C137.811 154.586 139.647 156.227 142.147 156.188C144.647 156.227 146.444 154.586 146.444 151.812C146.444 149.078 144.647 147.398 142.147 147.359ZM196.033 141.734V145.641H171.189V133.297H176.15V141.734H196.033ZM199.666 149.469V153.375H167.127V149.469H199.666ZM196.267 162.828V166.812H170.877V156.266H175.877V162.828H196.267ZM240.992 132.047V140.445H245.523V144.586H240.992V152.984H235.992V132.047H240.992ZM240.992 154.234V162.203H221.93V164.039H242.164V167.359H216.93V159.195H235.992V157.555H216.891V154.234H240.992ZM212.164 149.156C214.762 149.176 217.711 149.176 220.797 149.078V147.516C216.91 147.066 214.508 145.445 214.547 142.906C214.508 140.016 217.945 138.336 223.258 138.336C228.531 138.336 231.93 140.016 231.969 142.906C231.93 145.445 229.586 147.047 225.758 147.516V148.922C228.668 148.785 231.598 148.551 234.352 148.18L234.703 151.266C227.125 152.555 218.883 152.594 212.672 152.594L212.164 149.156ZM233.453 134.273V137.594H213.102V134.273H220.797V131.734H225.758V134.273H233.453ZM223.258 141.422C220.719 141.422 219.273 141.891 219.312 142.906C219.273 143.961 220.719 144.508 223.258 144.547C225.758 144.508 227.164 143.961 227.203 142.906C227.164 141.891 225.758 141.422 223.258 141.422ZM280.425 148.844V152.75H247.925V148.844H261.753V145.797H251.87V133.609H276.519V137.477H256.831V141.891H276.714V145.797H266.636V148.844H280.425ZM264.097 154.547C271.792 154.547 276.441 156.891 276.48 161.109C276.441 165.25 271.792 167.633 264.097 167.633C256.323 167.633 251.636 165.25 251.636 161.109C251.636 156.891 256.323 154.547 264.097 154.547ZM264.097 158.336C259.175 158.336 256.675 159.273 256.714 161.109C256.675 162.984 259.175 163.844 264.097 163.844C268.902 163.844 271.441 162.984 271.48 161.109C271.441 159.273 268.902 158.336 264.097 158.336ZM299.506 133.844C307.006 133.883 312.866 137.906 312.905 144.078C312.866 150.289 307.006 154.352 299.506 154.312C291.967 154.352 286.147 150.289 286.147 144.078C286.147 137.906 291.967 133.883 299.506 133.844ZM299.506 137.906C294.584 137.867 290.991 140.25 290.991 144.078C290.991 147.945 294.584 150.25 299.506 150.25C304.428 150.25 307.944 147.945 307.983 144.078C307.944 140.25 304.428 137.867 299.506 137.906ZM315.834 159.234V163.258H283.295V159.234H315.834ZM351.205 159.547V163.648H318.666V159.547H332.377V154.195H322.416V142.242H342.533V138.336H322.377V134.352H347.455V146.148H327.416V150.133H348.275V154.195H337.337V159.547H351.205Z" fill="white"/>
<path d="M97.7344 460C75.9961 460 60.4102 447.969 60 430.742H80.7812C81.1914 438.125 88.3008 443.047 97.8711 443.047C107.715 443.047 114.824 437.441 114.688 429.512C114.824 421.445 107.578 415.703 95.957 415.703H86.7969V400.527H95.957C105.664 400.527 112.5 395.195 112.5 387.402C112.5 379.883 106.758 374.688 98.0078 374.688C89.2578 374.688 82.0117 379.609 81.7383 387.129H62.0508C62.3242 370.039 77.7734 358.281 98.0078 358.281C118.652 358.281 132.461 370.449 132.324 386.172C132.461 397.246 124.668 405.176 113.594 407.09V407.91C128.086 409.688 136.152 418.574 136.016 430.879C136.152 447.832 120.02 460 97.7344 460Z" fill="#78BFE5"/>
</svg>
