<svg width="440" height="520" viewBox="0 0 440 520" fill="none" xmlns="http://www.w3.org/2000/svg">
<rect x="1" y="1" width="438" height="518" rx="59" fill="white"/>
<rect x="1" y="1" width="438" height="518" rx="59" stroke="#56AFDF" stroke-width="2"/>
<path d="M93.5938 99.3516V103.336H61.0547V99.3516H74.6484V91.3047H79.6094V99.3516H93.5938ZM79.7656 76.6172C79.7656 81.6953 84.3359 87.0469 92.4609 88.2969L90.3516 92.4375C84.1016 91.3047 79.4531 87.9648 77.1094 83.5312C74.7656 87.9453 70.1562 91.3242 63.9453 92.4375L61.8359 88.2969C69.8828 87.0469 74.4141 81.6562 74.4531 76.6172V74.0781H79.7656V76.6172ZM114.902 73.6875V76.1484H121.425V72.0469H126.386V89.8594H121.425V86.3828H114.902V88.7266H97.8703V73.6875H114.902ZM102.792 77.5547V84.7812H109.941V77.5547H102.792ZM126.386 91.3828V100.992H107.753V103.297H127.441V107.203H102.753V97.3203H121.425V95.2109H102.714V91.3828H126.386ZM114.902 82.5938H121.425V79.8594H114.902V82.5938ZM153.416 73.5312C158.845 73.4922 162.791 76.5781 162.791 81.0703C162.791 85.5234 158.845 88.6484 153.416 88.6094C147.986 88.6484 144.041 85.5234 144.08 81.0703C144.041 76.5781 147.986 73.4922 153.416 73.5312ZM153.416 77.5156C150.759 77.5156 148.884 78.8047 148.884 81.0703C148.884 83.2969 150.759 84.5859 153.416 84.5469C156.15 84.5859 158.064 83.2969 158.064 81.0703C158.064 78.8047 156.15 77.5156 153.416 77.5156ZM171.775 72.0859V107.594H166.853V72.0859H171.775ZM141.892 90.7969C148.181 90.7969 157.127 90.6406 164.705 89.5078L165.017 93.1797C162.088 93.7656 159.08 94.1367 156.111 94.3516V106.539H151.15V94.6641C148.025 94.8008 145.076 94.8203 142.517 94.8594L141.892 90.7969ZM207.067 72.0469V107.594H202.028V72.0469H207.067ZM196.403 75.7578C196.403 86.5391 192.614 95.4844 179.919 101.5L177.302 97.5156C186.481 93.1797 190.524 87.5547 191.325 79.6641H179.216V75.7578H196.403ZM236.363 81.7344C236.363 87.4766 239.292 93.6094 245.269 96.1094L242.573 100.016C238.374 98.2383 235.484 94.7031 233.902 90.3672C232.28 95.0742 229.331 98.9805 225.152 100.914L222.3 96.9688C228.198 94.3516 231.245 87.75 231.245 81.7344V79.5469H223.706V75.4844H243.784V79.5469H236.363V81.7344ZM252.339 72.0469V107.594H247.3V72.0469H252.339ZM287.905 94.6641V107.594H282.944V98.5703H263.491V94.6641H287.905ZM287.905 72.0469V93.0625H282.944V88.5703H274.975C273.276 90.4062 270.756 91.5 267.866 91.5C262.475 91.5 258.373 87.7891 258.413 82.6328C258.373 77.5938 262.475 73.9219 267.866 73.9609C270.756 73.9414 273.276 75.0156 274.975 76.8125H282.944V72.0469H287.905ZM267.866 78.1406C265.092 78.1406 263.1 79.8594 263.139 82.6328C263.1 85.5625 265.092 87.2422 267.866 87.2422C270.483 87.2422 272.514 85.5625 272.514 82.6328C272.514 79.8594 270.483 78.1406 267.866 78.1406ZM277.045 84.5859H282.944V80.8359H277.084C277.182 81.4023 277.241 82.0078 277.241 82.6328C277.241 83.3164 277.163 83.9609 277.045 84.5859ZM304.837 74.4297C310.462 74.3906 314.681 78.0625 314.681 83.1406C314.681 88.2578 310.462 91.8906 304.837 91.8906C299.212 91.8906 294.955 88.2578 294.955 83.1406C294.955 78.0625 299.212 74.3906 304.837 74.4297ZM304.837 78.7266C302.025 78.7266 299.877 80.3672 299.916 83.1406C299.877 85.9531 302.025 87.5547 304.837 87.5547C307.65 87.5547 309.798 85.9531 309.837 83.1406C309.798 80.3672 307.689 78.7266 304.837 78.7266ZM323.197 72.0469V107.672H318.236V72.0469H323.197ZM293.47 96.3438C299.798 96.3828 308.587 96.2656 316.205 95.2109L316.595 98.8047C308.705 100.328 300.267 100.406 294.056 100.406L293.47 96.3438ZM77.6172 153.805C85 153.805 89.6094 156.344 89.6094 160.68C89.6094 165.094 85 167.633 77.6172 167.633C70.0781 167.633 65.4297 165.094 65.4297 160.68C65.4297 156.344 70.0781 153.805 77.6172 153.805ZM77.6172 157.672C72.9297 157.672 70.3906 158.648 70.4297 160.68C70.3906 162.711 72.9297 163.766 77.6172 163.766C82.2266 163.766 84.6875 162.711 84.6875 160.68C84.6875 158.648 82.2266 157.672 77.6172 157.672ZM89.2578 132.047V140.289H94.0625V144.469H89.2578V153.023H84.2578V132.047H89.2578ZM67.0703 134.273V138.766H74.3359V134.273H79.3359V150.992H62.1094V134.273H67.0703ZM67.0703 147.047H74.3359V142.633H67.0703V147.047ZM126.152 132.047V167.594H121.152V132.047H126.152ZM110.331 143.18C110.331 148.336 113.261 154.156 119.159 156.578L116.464 160.406C112.421 158.746 109.53 155.348 107.909 151.266C106.327 155.602 103.417 159.234 99.2766 160.953L96.6203 157.125C102.48 154.586 105.37 148.609 105.37 143.18V141.812H97.7922V137.828H105.331V132.828H110.292V137.828H117.714V141.812H110.331V143.18ZM152.537 142.945V146.93H146.17V150.523C148.983 150.387 151.776 150.211 154.412 149.938L154.764 153.492C147.225 154.547 139.178 154.742 132.616 154.742L131.952 150.797C134.803 150.777 137.948 150.758 141.17 150.68V146.93H134.959V134.195H152.225V138.18H139.959V142.945H152.537ZM161.678 132.008V158.805H156.6V132.008H161.678ZM162.616 162.984V166.969H137.459V156.773H142.498V162.984H162.616ZM193.2 154.195C200.973 154.195 205.856 156.656 205.895 160.914C205.856 165.094 200.973 167.594 193.2 167.594C185.505 167.594 180.544 165.094 180.544 160.914C180.544 156.656 185.505 154.195 193.2 154.195ZM193.2 157.906C188.317 157.906 185.505 158.922 185.505 160.914C185.505 162.828 188.317 163.805 193.2 163.805C198.083 163.805 200.934 162.828 200.934 160.914C200.934 158.922 198.083 157.906 193.2 157.906ZM205.7 133.648V136.539C205.7 139.352 205.7 142.398 204.684 146.07L199.802 145.602C200.583 142.379 200.68 139.977 200.739 137.555H180.895V133.648H205.7ZM209.528 147.906V151.93H177.262V147.906H189.372V141.695H194.294V147.906H209.528ZM240.758 132.047V142.008H245.562V146.109H240.758V157.516H235.719V132.047H240.758ZM231.07 134.703C231.07 144.312 225.055 151.031 214.391 154.039L212.32 150.094C220.27 147.867 224.781 143.746 225.602 138.766H213.883V134.703H231.07ZM241.969 162.984V166.969H217.633V154.898H222.672V162.984H241.969ZM267.925 135.602V138.453C267.886 141.812 267.886 146.188 266.948 152.086L262.027 151.695C262.827 146.539 262.905 142.73 262.964 139.586H249.488V135.602H267.925ZM259.058 145.797V156.109C262.554 155.973 266.109 155.719 269.37 155.289L269.683 159C262.378 160.25 254.292 160.367 248.081 160.328L247.613 156.344C249.605 156.324 251.831 156.324 254.136 156.266V145.797H259.058ZM276.089 132.047V146.344H280.933V150.484H276.089V167.594H271.05V132.047H276.089ZM90.8203 192.086V217.633H85.8203V192.086H90.8203ZM91.7578 222.984V226.969H66.9922V215.055H72.0312V222.984H91.7578ZM71.3281 194.352C76.7969 194.352 81.0547 198.102 81.0547 203.297C81.0547 208.609 76.7969 212.32 71.3281 212.32C65.8594 212.32 61.6016 208.609 61.6016 203.297C61.6016 198.102 65.8594 194.352 71.3281 194.352ZM71.3281 198.688C68.5547 198.648 66.4453 200.406 66.4844 203.297C66.4453 206.266 68.5547 207.984 71.3281 207.984C74.0234 207.984 76.1328 206.266 76.1328 203.297C76.1328 200.406 74.0234 198.648 71.3281 198.688ZM128.964 219.312V223.453H96.425V219.312H128.964ZM126.23 195.172V199.156H121.23V209.938H126.073V213.844H99.1203V209.938H103.886V199.156H98.9641V195.172H126.23ZM108.886 209.938H116.308V199.156H108.886V209.938ZM159.842 192.047V205.484H165.077V209.586H159.842V227.672H154.92V192.047H159.842ZM149.686 195.016V208.805H138.241V215.25C143.416 215.23 147.694 214.996 152.42 214.195L152.85 218.18C147.42 219.156 142.537 219.391 136.287 219.391H133.28V204.859H144.725V199.039H133.241V195.016H149.686ZM178.689 194.43C184.314 194.391 188.533 198.062 188.533 203.141C188.533 208.258 184.314 211.891 178.689 211.891C173.064 211.891 168.806 208.258 168.806 203.141C168.806 198.062 173.064 194.391 178.689 194.43ZM178.689 198.727C175.877 198.727 173.728 200.367 173.767 203.141C173.728 205.953 175.877 207.555 178.689 207.555C181.502 207.555 183.65 205.953 183.689 203.141C183.65 200.367 181.541 198.727 178.689 198.727ZM197.048 192.047V227.672H192.088V192.047H197.048ZM167.322 216.344C173.65 216.383 182.439 216.266 190.056 215.211L190.447 218.805C182.556 220.328 174.119 220.406 167.908 220.406L167.322 216.344ZM245.094 219.352V223.336H212.555V219.352H226.148V211.305H231.109V219.352H245.094ZM231.266 196.617C231.266 201.695 235.836 207.047 243.961 208.297L241.852 212.438C235.602 211.305 230.953 207.965 228.609 203.531C226.266 207.945 221.656 211.324 215.445 212.438L213.336 208.297C221.383 207.047 225.914 201.656 225.953 196.617V194.078H231.266V196.617ZM266.402 193.688V196.148H272.925V192.047H277.886V209.859H272.925V206.383H266.402V208.727H249.37V193.688H266.402ZM254.292 197.555V204.781H261.441V197.555H254.292ZM277.886 211.383V220.992H259.253V223.297H278.941V227.203H254.253V217.32H272.925V215.211H254.214V211.383H277.886ZM266.402 202.594H272.925V199.859H266.402V202.594ZM315.717 210.211V214.195H283.295V210.211H315.717ZM312.045 222.984V226.969H287.202V216.578H292.202V222.984H312.045ZM299.506 193.141C307.28 193.102 312.397 195.875 312.436 200.406C312.397 204.938 307.28 207.75 299.506 207.75C291.655 207.75 286.538 204.938 286.538 200.406C286.538 195.875 291.655 193.102 299.506 193.141ZM299.506 197.047C294.584 197.086 291.694 198.258 291.733 200.406C291.694 202.633 294.584 203.727 299.506 203.727C304.428 203.727 307.28 202.633 307.28 200.406C307.28 198.258 304.428 197.086 299.506 197.047Z" fill="#56AFDF"/>
<path d="M103.887 361.016V460H83.2422V380.566H82.6953L60 394.785V376.602L84.4727 361.016H103.887Z" fill="#E6F3FA"/>
</svg>
