<svg width="440" height="520" viewBox="0 0 440 520" fill="none" xmlns="http://www.w3.org/2000/svg">
<rect x="1" y="1" width="438" height="518" rx="59" fill="white"/>
<rect x="1" y="1" width="438" height="518" rx="59" stroke="#56AFDF" stroke-width="2"/>
<path d="M89.2578 72.0859V82.0859H94.0625V86.1875H89.2578V98.2578H84.2578V72.0859H89.2578ZM90.5469 102.984V106.969H66.2109V95.5625H71.1719V102.984H90.5469ZM67.0703 74.5859V79.7422H74.3359V74.5859H79.3359V92.5938H62.1094V74.5859H67.0703ZM67.0703 88.6875H74.3359V83.5703H67.0703V88.6875ZM128.847 89.6641V93.6875H96.425V89.6641H110.097V86.6562H100.566V72.9062H105.487V76.1484H119.745V72.9062H124.706V86.6562H115.097V89.6641H128.847ZM124.902 96.1094V107.594H119.941V100.055H100.019V96.1094H124.902ZM105.487 82.75H119.745V79.8203H105.487V82.75ZM152.967 86.5V90.4844H146.053V96.3047C148.983 96.207 151.912 96.0117 154.686 95.7188L155.077 99.3516C147.303 100.562 139.217 100.602 132.537 100.602L131.952 96.5391C134.784 96.5586 137.87 96.5586 141.053 96.4609V90.4844H134.295V75.2109H152.772V79.1562H139.256V86.5H152.967ZM161.678 72.0469V107.672H156.717V72.0469H161.678ZM196.033 81.7344V85.6406H171.189V73.2969H176.15V81.7344H196.033ZM199.666 89.4688V93.375H167.127V89.4688H199.666ZM196.267 102.828V106.812H170.877V96.2656H175.877V102.828H196.267ZM222.672 73.1016C228.062 73.1016 232.164 76.4609 232.164 81.2266C232.164 85.9141 228.062 89.3125 222.672 89.3125C217.164 89.3125 213.102 85.9141 213.102 81.2266C213.102 76.4609 217.164 73.1016 222.672 73.1016ZM222.672 77.1641C219.938 77.1641 217.906 78.6484 217.945 81.2266C217.906 83.7656 219.938 85.2891 222.672 85.2891C225.367 85.2891 227.359 83.7656 227.359 81.2266C227.359 78.6484 225.367 77.1641 222.672 77.1641ZM242.32 72.0469V89.8594H237.32V72.0469H242.32ZM242.32 91.3438V100.992H223.414V103.297H243.297V107.203H218.531V97.3594H237.359V95.1719H218.453V91.3438H242.32ZM260.894 77.6328C260.894 81.9297 263.394 86.0703 269.019 87.8281L266.363 91.6953C262.593 90.4453 259.956 88.0234 258.433 84.8984C256.89 88.4922 254.136 91.3047 250.073 92.6719L247.378 88.7656C253.316 86.7734 255.855 82.0469 255.894 77.1641V73.9219H260.894V77.6328ZM276.128 72.0469V80.3672H280.933V84.5078H276.128V93.1406H271.128V72.0469H276.128ZM264.488 93.8438C271.831 93.8438 276.48 96.3828 276.48 100.719C276.48 105.094 271.831 107.594 264.488 107.594C256.988 107.594 252.3 105.094 252.3 100.719C252.3 96.3828 256.988 93.8438 264.488 93.8438ZM264.488 97.75C259.8 97.75 257.261 98.7656 257.3 100.719C257.261 102.75 259.8 103.688 264.488 103.688C269.097 103.688 271.558 102.75 271.558 100.719C271.558 98.7656 269.097 97.75 264.488 97.75ZM325.736 89.3516V93.3359H293.314V89.3516H307.025V84.625H311.947V89.3516H325.736ZM312.025 73.8047C312.025 77.9453 316.009 81.8906 324.017 82.8672L322.103 86.7344C316.107 85.8359 311.693 83.3164 309.447 79.7422C307.162 83.3164 302.748 85.8555 296.752 86.7344L294.994 82.8672C302.845 81.8906 306.947 77.8281 306.947 73.8047V72.6328H312.025V73.8047ZM321.791 95.8359V107.594H316.83V99.7031H296.908V95.8359H321.791ZM74.8438 141.734C74.8438 147.477 77.7734 153.609 83.75 156.109L81.0547 160.016C76.8555 158.238 73.9648 154.703 72.3828 150.367C70.7617 155.074 67.8125 158.98 63.6328 160.914L60.7812 156.969C66.6797 154.352 69.7266 147.75 69.7266 141.734V139.547H62.1875V135.484H82.2656V139.547H74.8438V141.734ZM90.8203 132.047V167.594H85.7812V132.047H90.8203ZM126.425 132.047V167.672H121.464V154.117H115.331V150.094H121.464V146.812H115.331V142.711H121.464V132.047H126.425ZM109.745 143.18C109.745 148.336 112.558 154.156 118.378 156.695L115.644 160.484C111.659 158.805 108.847 155.367 107.284 151.305C105.761 155.602 102.948 159.215 98.8859 160.953L96.2687 157.125C101.972 154.586 104.745 148.531 104.784 143.18V141.812H97.4016V137.828H104.784V132.828H109.784V137.828H116.972V141.812H109.745V143.18ZM159.842 132.047V145.68H164.881V149.781H159.842V167.516H154.842V132.047H159.842ZM150.35 135.68C150.311 146.305 146.17 155.523 134.217 161.383L131.405 157.555C139.823 153.336 144.334 147.672 145.272 139.742H133.436V135.68H150.35ZM196.033 141.734V145.641H171.189V133.297H176.15V141.734H196.033ZM199.666 149.469V153.375H167.127V149.469H199.666ZM196.267 162.828V166.812H170.877V156.266H175.877V162.828H196.267ZM91.0156 192.086V219.156H86.0547V212.438H81.25V208.492H86.0547V204.938H81.25V200.914H86.0547V192.086H91.0156ZM80.8984 195.797V199.742H61.1328V195.797H68.7891V192.008H73.75V195.797H80.8984ZM71.2109 200.992C76.0938 200.992 79.6094 203.883 79.6484 207.984C79.6094 212.086 76.0938 214.938 71.2109 214.938C66.3672 214.938 62.8516 212.086 62.8906 207.984C62.8516 203.883 66.3672 200.992 71.2109 200.992ZM71.2109 204.859C69.0234 204.898 67.5 205.992 67.5391 207.984C67.5 210.016 69.0234 211.148 71.2109 211.148C73.3594 211.148 74.9219 210.016 74.9609 207.984C74.9219 205.992 73.3594 204.898 71.2109 204.859ZM91.7578 222.984V226.969H67.3438V216.852H72.3828V222.984H91.7578ZM127.167 192.047V227.594H122.441V209.742H119.003V225.875H114.433V192.633H119.003V205.758H122.441V192.047H127.167ZM110.683 196.148V200.172H102.441V215.328C105.878 215.309 108.925 215.133 112.362 214.508L112.714 218.57C108.378 219.391 104.589 219.508 99.9016 219.547H97.4406V196.148H110.683ZM153.181 198.375C153.181 202.203 155.173 206.031 159.9 207.828L157.244 211.617C154.216 210.465 152.127 208.355 150.838 205.719C149.548 208.805 147.322 211.383 144.002 212.75L141.306 208.922C146.306 206.734 148.338 202.359 148.338 198.375V194.195H153.181V198.375ZM172.361 192.086V213.805H167.634V204.781H164.666V212.711H160.017V192.711H164.666V200.758H167.634V192.086H172.361ZM160.213 214.312C167.713 214.312 172.517 216.812 172.556 220.953C172.517 225.094 167.713 227.594 160.213 227.594C152.673 227.594 147.908 225.094 147.908 220.953C147.908 216.812 152.673 214.312 160.213 214.312ZM160.213 218.023C155.564 218.023 152.869 219.039 152.908 220.953C152.869 222.867 155.564 223.844 160.213 223.844C164.822 223.844 167.517 222.867 167.517 220.953C167.517 219.039 164.822 218.023 160.213 218.023ZM205.622 192.047V200.445H210.153V204.586H205.622V212.984H200.622V192.047H205.622ZM205.622 214.234V222.203H186.559V224.039H206.794V227.359H181.559V219.195H200.622V217.555H181.52V214.234H205.622ZM176.794 209.156C179.391 209.176 182.341 209.176 185.427 209.078V207.516C181.54 207.066 179.137 205.445 179.177 202.906C179.137 200.016 182.575 198.336 187.887 198.336C193.161 198.336 196.559 200.016 196.598 202.906C196.559 205.445 194.216 207.047 190.387 207.516V208.922C193.298 208.785 196.227 208.551 198.981 208.18L199.333 211.266C191.755 212.555 183.512 212.594 177.302 212.594L176.794 209.156ZM198.083 194.273V197.594H177.731V194.273H185.427V191.734H190.387V194.273H198.083ZM187.887 201.422C185.348 201.422 183.903 201.891 183.942 202.906C183.903 203.961 185.348 204.508 187.887 204.547C190.387 204.508 191.794 203.961 191.833 202.906C191.794 201.891 190.387 201.422 187.887 201.422ZM244.977 210.211V214.195H212.555V210.211H244.977ZM241.305 222.984V226.969H216.461V216.578H221.461V222.984H241.305ZM228.766 193.141C236.539 193.102 241.656 195.875 241.695 200.406C241.656 204.938 236.539 207.75 228.766 207.75C220.914 207.75 215.797 204.938 215.797 200.406C215.797 195.875 220.914 193.102 228.766 193.141ZM228.766 197.047C223.844 197.086 220.953 198.258 220.992 200.406C220.953 202.633 223.844 203.727 228.766 203.727C233.688 203.727 236.539 202.633 236.539 200.406C236.539 198.258 233.688 197.086 228.766 197.047Z" fill="#56AFDF"/>
<path d="M60.958 460L60.8213 445.098L96.3682 412.422C105.665 403.535 110.587 398.066 110.587 390.273C110.587 381.523 103.888 376.055 94.8643 376.055C85.5674 376.055 79.5518 381.934 79.5518 391.367H60.001C59.8642 371.953 74.2197 359.648 95.1377 359.648C116.329 359.648 130.411 371.68 130.411 388.906C130.411 400.117 124.942 409.414 104.571 427.871L89.5322 442.5V443.047H131.778V460H60.958Z" fill="#E6F3FA"/>
</svg>
