<svg width="400" height="400" viewBox="0 0 400 400" fill="none" xmlns="http://www.w3.org/2000/svg">
<rect width="400" height="400" rx="200" fill="#56AFDF" fill-opacity="0.1"/>
<path d="M135.908 185.562V207.062H132.439V201.5H128.252V198.719H132.439V195.562H128.252V192.75H132.439V185.562H135.908ZM128.096 188.688V191.469H112.314V188.688H118.627V185.531H122.096V188.688H128.096ZM120.314 192.625C124.158 192.625 126.908 194.875 126.939 198.125C126.908 201.375 124.158 203.625 120.314 203.625C116.502 203.625 113.752 201.375 113.783 198.125C113.752 194.875 116.502 192.625 120.314 192.625ZM120.314 195.344C118.377 195.375 117.002 196.406 117.033 198.125C117.002 199.906 118.377 200.938 120.314 200.938C122.252 200.938 123.658 199.906 123.658 198.125C123.658 196.406 122.252 195.375 120.314 195.344ZM136.533 210.406V213.219H117.283V205.219H120.814V210.406H136.533ZM164.861 185.531V213.781H161.548V199.375H158.361V212.344H155.173V186.062H158.361V196.594H161.548V185.531H164.861ZM151.986 188.875V191.688H144.923V204.25C148.001 204.219 150.533 204.062 153.392 203.531L153.642 206.375C150.236 207.062 147.267 207.156 143.329 207.188H141.423V188.875H151.986ZM192.376 185.562V205.969H188.876V185.562H192.376ZM193.157 210.406V213.219H173.688V203.906H177.188V210.406H193.157ZM176.969 187.406C181.251 187.406 184.563 190.375 184.563 194.469C184.563 198.656 181.251 201.562 176.969 201.562C172.657 201.562 169.344 198.656 169.344 194.469C169.344 190.375 172.657 187.406 176.969 187.406ZM176.969 190.438C174.563 190.438 172.719 192.031 172.751 194.469C172.719 196.969 174.563 198.531 176.969 198.531C179.313 198.531 181.157 196.969 181.157 194.469C181.157 192.031 179.313 190.438 176.969 190.438ZM206.297 187.5C210.766 187.469 214.047 190.312 214.078 194.312C214.047 198.344 210.766 201.156 206.297 201.156C201.859 201.156 198.547 198.344 198.547 194.312C198.547 190.312 201.859 187.469 206.297 187.5ZM206.297 190.5C203.828 190.5 201.984 191.969 201.984 194.312C201.984 196.688 203.828 198.125 206.297 198.125C208.797 198.125 210.672 196.688 210.672 194.312C210.672 191.969 208.797 190.5 206.297 190.5ZM220.672 185.531V213.812H217.203V185.531H220.672ZM197.266 205.062C202.359 205.062 209.422 205 215.516 204.125L215.797 206.656C209.453 207.875 202.672 207.906 197.703 207.906L197.266 205.062ZM257.327 185.531V199.844H253.858V197.375H247.046V194.719H253.858V191.938H247.421C245.639 196.25 241.514 199.062 235.264 200.469L234.046 197.625C240.686 196.25 243.999 193.328 244.483 189.562H235.608V186.75H248.358C248.358 187.641 248.28 188.484 248.171 189.281H253.858V185.531H257.327ZM257.327 200.938V208.375H242.233V210.719H258.077V213.5H238.764V205.781H253.858V203.688H238.733V200.938H257.327ZM278.529 187.375V190.125H275.998V197.219C277.279 197.156 278.514 197.047 279.717 196.906L279.936 199.469C274.186 200.375 267.748 200.438 262.811 200.469L262.436 197.594L265.654 197.562V190.125H263.186V187.375H278.529ZM285.498 185.531V201.219H281.998V185.531H285.498ZM270.248 202.312V205.031H282.029V202.312H285.498V213.438H266.811V202.312H270.248ZM270.248 210.625H282.029V207.75H270.248V210.625ZM268.998 197.531C270.217 197.5 271.451 197.469 272.686 197.406V190.125H268.998V197.531Z" fill="#56AFDF"/>
</svg>
