<svg width="1920" height="1080" viewBox="0 0 1920 1080" fill="none" xmlns="http://www.w3.org/2000/svg">
<path d="M1920 540C1920 469.086 1895.17 398.867 1846.92 333.351C1798.68 267.835 1727.97 208.306 1638.82 158.162C1549.68 108.019 1443.85 68.2426 1327.38 41.105C1210.9 13.9675 1086.07 -3.09974e-06 960 0C833.931 3.09974e-06 709.096 13.9675 592.624 41.1051C476.151 68.2426 370.322 108.019 281.177 158.162C192.033 208.306 121.32 267.835 73.0756 333.351C24.8311 398.867 -1.10213e-05 469.086 0 540L960 540H1920Z" fill="url(#paint0_linear_4737_5043)" fill-opacity="0.2"/>
<rect x="877" y="200" width="127" height="54" rx="27" fill="#56AFDF"/>
<path d="M910.096 223.746C909.979 222.535 908.944 221.832 907.42 221.832C905.819 221.832 904.842 222.613 904.842 223.668C904.842 224.859 906.092 225.348 907.264 225.621L908.592 225.973C910.702 226.461 912.733 227.574 912.733 230.035C912.733 232.516 910.78 234.215 907.381 234.215C904.08 234.215 902.01 232.633 901.893 229.84H904.393C904.51 231.324 905.76 232.047 907.362 232.047C909.041 232.047 910.194 231.227 910.194 230.016C910.194 228.902 909.159 228.434 907.635 228.043L906.034 227.633C903.709 227.027 902.264 225.855 902.264 223.824C902.264 221.324 904.491 219.664 907.459 219.664C910.467 219.664 912.498 221.363 912.537 223.746H910.096ZM919.754 234.215C916.668 234.215 914.676 232.027 914.676 228.746C914.676 225.445 916.668 223.258 919.754 223.258C922.859 223.258 924.832 225.445 924.832 228.746C924.832 232.027 922.859 234.215 919.754 234.215ZM919.773 232.223C921.473 232.223 922.312 230.68 922.312 228.727C922.312 226.793 921.473 225.23 919.773 225.23C918.035 225.23 917.195 226.793 917.195 228.727C917.195 230.68 918.035 232.223 919.773 232.223ZM929.666 219.859V234H927.166V219.859H929.666ZM939.226 229.547V223.395H941.706V234H939.304V232.125H939.187C938.698 233.297 937.585 234.137 936.003 234.137C933.913 234.137 932.468 232.691 932.448 230.152V223.395H934.948V229.762C934.948 231.109 935.749 231.969 936.96 231.969C938.054 231.969 939.226 231.168 939.226 229.547ZM949.782 223.395V225.309H947.692V230.816C947.692 231.832 948.2 232.047 948.825 232.047C949.118 232.047 949.606 232.027 949.919 232.008V234.039C949.626 234.098 949.137 234.137 948.512 234.137C946.637 234.137 945.192 233.219 945.212 231.227V225.309H943.688V223.395H945.212V220.855H947.692V223.395H949.782ZM952.096 234V223.395H954.596V234H952.096ZM953.366 221.891C952.584 221.891 951.92 221.285 951.92 220.523C951.92 219.781 952.584 219.176 953.366 219.176C954.166 219.176 954.811 219.781 954.811 220.523C954.811 221.285 954.166 221.891 953.366 221.891ZM962.008 234.215C958.922 234.215 956.93 232.027 956.93 228.746C956.93 225.445 958.922 223.258 962.008 223.258C965.113 223.258 967.086 225.445 967.086 228.746C967.086 232.027 965.113 234.215 962.008 234.215ZM962.027 232.223C963.727 232.223 964.566 230.68 964.566 228.727C964.566 226.793 963.727 225.23 962.027 225.23C960.289 225.23 959.449 226.793 959.449 228.727C959.449 230.68 960.289 232.223 962.027 232.223ZM971.92 227.789V234H969.42V223.395H971.802V225.191H971.939C972.427 224 973.502 223.258 975.084 223.258C977.291 223.258 978.736 224.703 978.716 227.242V234H976.236V227.633C976.236 226.207 975.474 225.367 974.166 225.367C972.838 225.367 971.92 226.246 971.92 227.789Z" fill="white"/>
<path d="M601.328 311.703V317.844H610.281V311.703H616.234V333.312H595.422V311.703H601.328ZM601.328 328.625H610.281V322.391H601.328V328.625ZM628.984 308.703V340.016H622.984V308.703H628.984ZM629.969 345.781V350.562H600.297V336.875H606.297V345.781H629.969ZM660.929 311V315.781H652.397C652.679 320.281 655.89 324.781 662.569 326.609L659.569 331.25C654.694 329.867 651.272 326.938 649.351 323.188C647.405 327.242 643.913 330.453 638.851 332L635.851 327.312C642.647 325.344 645.952 320.609 646.257 315.781H637.491V311H660.929ZM671.429 308.656V331.812H665.429V308.656H671.429ZM648.788 333.594V337.578H665.476V333.594H671.429V350.844H642.882V333.594H648.788ZM648.788 346.062H665.476V342.219H648.788V346.062ZM697.607 309.266C707.404 309.266 713.076 311.844 713.123 316.531C713.076 321.266 707.404 323.844 697.607 323.844C687.764 323.844 682.045 321.266 682.045 316.531C682.045 311.844 687.764 309.266 697.607 309.266ZM697.607 313.625C691.326 313.625 688.279 314.656 688.326 316.531C688.279 318.641 691.326 319.438 697.607 319.438C703.936 319.438 706.936 318.641 706.936 316.531C706.936 314.656 703.936 313.625 697.607 313.625ZM717.061 325.859V330.594H678.154V325.859H717.061ZM712.326 333.078V343.953H688.561V346.531H713.451V351.031H682.701V339.781H706.42V337.438H682.654V333.078H712.326ZM745.934 321.547C745.934 327.969 748.231 334.484 754.371 337.719L751.043 342.125C747.199 340.156 744.645 336.711 743.168 332.516C741.668 337.086 739.113 340.906 735.246 343.109L731.871 338.609C737.918 335.141 740.262 328.156 740.309 321.547V320.75H733.231V315.875H740.309V310.109H745.887V315.875H752.918V320.75H745.934V321.547ZM769.84 308.656V351.312H764.121V329.938H760.512V349.344H754.84V309.266H760.512V325.062H764.121V308.656H769.84ZM814.066 332.516V337.391H797.378V351.359H791.472V337.391H775.019V332.516H814.066ZM794.425 310.062C803.566 310.062 809.988 313.859 809.988 319.766C809.988 325.578 803.566 329.281 794.425 329.281C785.284 329.281 778.909 325.578 778.956 319.766C778.909 313.859 785.284 310.062 794.425 310.062ZM794.425 314.844C788.706 314.844 785.05 316.625 785.097 319.766C785.05 322.812 788.706 324.547 794.425 324.547C800.191 324.547 803.8 322.812 803.8 319.766C803.8 316.625 800.191 314.844 794.425 314.844ZM852.666 312.359V316.391C852.666 321.734 852.666 327.734 850.932 336.781L844.932 336.172C846.549 328.109 846.619 322.109 846.666 317.094H821.541V312.359H852.666ZM856.416 341.234V346.109H817.51V341.234H831.432V326.562H837.385V341.234H856.416ZM868.954 343.531L864.923 356.891H859.954L862.298 343.531H868.954ZM907.015 312.688V340.906H886.531V312.688H907.015ZM892.437 317.375V336.172H901.062V317.375H892.437ZM918.828 308.656V324.734H925.109V329.703H918.828V351.312H912.828V308.656H918.828ZM947.069 309.453C956.538 309.453 962.538 312.594 962.584 317.797C962.538 322.953 956.538 326.094 947.069 326.047C937.647 326.094 931.506 322.953 931.506 317.797C931.506 312.594 937.647 309.453 947.069 309.453ZM947.069 314.094C941.116 314.094 937.694 315.359 937.741 317.797C937.694 320.188 941.116 321.406 947.069 321.406C952.975 321.406 956.397 320.188 956.397 317.797C956.397 315.359 952.975 314.094 947.069 314.094ZM961.881 336.312V350.844H932.116V336.312H961.881ZM938.022 341.047V346.062H956.022V341.047H938.022ZM966.522 328.531V333.312H927.616V328.531H966.522ZM989.513 309.266C999.31 309.266 1004.98 311.844 1005.03 316.531C1004.98 321.266 999.31 323.844 989.513 323.844C979.669 323.844 973.951 321.266 973.951 316.531C973.951 311.844 979.669 309.266 989.513 309.266ZM989.513 313.625C983.232 313.625 980.185 314.656 980.232 316.531C980.185 318.641 983.232 319.438 989.513 319.438C995.841 319.438 998.841 318.641 998.841 316.531C998.841 314.656 995.841 313.625 989.513 313.625ZM1008.97 325.859V330.594H970.06V325.859H1008.97ZM1004.23 333.078V343.953H980.466V346.531H1005.36V351.031H974.607V339.781H998.326V337.438H974.56V333.078H1004.23ZM1037.84 321.547C1037.84 327.969 1040.14 334.484 1046.28 337.719L1042.95 342.125C1039.11 340.156 1036.55 336.711 1035.07 332.516C1033.57 337.086 1031.02 340.906 1027.15 343.109L1023.78 338.609C1029.82 335.141 1032.17 328.156 1032.21 321.547V320.75H1025.14V315.875H1032.21V310.109H1037.79V315.875H1044.82V320.75H1037.84V321.547ZM1061.75 308.656V351.312H1056.03V329.938H1052.42V349.344H1046.75V309.266H1052.42V325.062H1056.03V308.656H1061.75ZM1105.97 332.516V337.391H1089.28V351.359H1083.38V337.391H1066.92V332.516H1105.97ZM1086.33 310.062C1095.47 310.062 1101.89 313.859 1101.89 319.766C1101.89 325.578 1095.47 329.281 1086.33 329.281C1077.19 329.281 1070.82 325.578 1070.86 319.766C1070.82 313.859 1077.19 310.062 1086.33 310.062ZM1086.33 314.844C1080.61 314.844 1076.96 316.625 1077 319.766C1076.96 322.812 1080.61 324.547 1086.33 324.547C1092.1 324.547 1095.71 322.812 1095.71 319.766C1095.71 316.625 1092.1 314.844 1086.33 314.844ZM1144.06 320.281V324.969H1114.24V310.156H1120.2V320.281H1144.06ZM1148.42 329.562V334.25H1109.37V329.562H1148.42ZM1144.34 345.594V350.375H1113.87V337.719H1119.87V345.594H1144.34ZM1186.24 321.5V326.094H1202.79V330.828H1163.88V326.094H1180.34V321.5H1186.24ZM1186.34 309.922C1186.34 314.469 1190.93 318.547 1200.73 319.438L1198.66 323.984C1191.35 323.094 1185.98 320.539 1183.24 316.625C1180.52 320.539 1175.16 323.094 1167.82 323.984L1165.76 319.438C1175.55 318.547 1180.24 314.469 1180.24 309.922V309.031H1186.34V309.922ZM1198.05 332.984V344H1174.29V346.531H1199.18V351.031H1168.43V339.781H1192.15V337.531H1168.38V332.984H1198.05ZM1240.83 309.969V322.672H1216.97V326.234H1241.81V331.016H1210.92V318.172H1234.69V314.797H1210.78V309.969H1240.83ZM1245.33 334.203V338.984H1228.73V351.406H1222.73V338.984H1206.28V334.203H1245.33ZM1264.76 316.016C1264.76 321.922 1267.66 327.781 1274.41 330.266L1271.08 334.906C1266.61 333.148 1263.54 329.797 1261.8 325.578C1259.93 330.078 1256.62 333.594 1251.77 335.422L1248.58 330.734C1255.57 328.25 1258.71 322.25 1258.71 316.016V311.094H1264.76V316.016ZM1284.72 308.703V340.344H1278.77V327.312H1271.46V322.484H1278.77V319.062H1271.46V314.234H1278.77V308.703H1284.72ZM1285.61 345.781V350.562H1256.32V337.297H1262.36V345.781H1285.61Z" fill="#40424D"/>
<defs>
<linearGradient id="paint0_linear_4737_5043" x1="960" y1="1080" x2="960" y2="0" gradientUnits="userSpaceOnUse">
<stop offset="0.6" stop-color="#56AFDF" stop-opacity="0"/>
<stop offset="0.8" stop-color="#56AFDF" stop-opacity="0.4"/>
<stop offset="1" stop-color="#56AFDF"/>
</linearGradient>
</defs>
</svg>
