<svg width="1920" height="1146" viewBox="0 0 1920 1146" fill="none" xmlns="http://www.w3.org/2000/svg">
<g clip-path="url(#clip0_4878_5445)">
<path d="M1920 540C1920 469.086 1895.17 398.867 1846.92 333.351C1798.68 267.835 1727.97 208.306 1638.82 158.162C1549.68 108.019 1443.85 68.2426 1327.38 41.1051C1210.9 13.9675 1086.07 0 960 0C833.931 0 709.096 13.9675 592.624 41.1051C476.151 68.2426 370.322 108.019 281.177 158.162C192.033 208.306 121.32 267.835 73.0756 333.351C24.8311 398.867 -1.10213e-05 469.086 0 540L960 540H1920Z" fill="url(#paint0_linear_4878_5445)" fill-opacity="0.2"/>
<rect x="877" y="200" width="127" height="54" rx="27" fill="#56AFDF"/>
<path d="M910.096 223.746C909.979 222.535 908.944 221.832 907.42 221.832C905.819 221.832 904.842 222.613 904.842 223.668C904.842 224.859 906.092 225.348 907.264 225.621L908.592 225.973C910.702 226.461 912.733 227.574 912.733 230.035C912.733 232.516 910.78 234.215 907.381 234.215C904.08 234.215 902.01 232.633 901.893 229.84H904.393C904.51 231.324 905.76 232.047 907.362 232.047C909.041 232.047 910.194 231.227 910.194 230.016C910.194 228.902 909.159 228.434 907.635 228.043L906.034 227.633C903.709 227.027 902.264 225.855 902.264 223.824C902.264 221.324 904.491 219.664 907.459 219.664C910.467 219.664 912.498 221.363 912.537 223.746H910.096ZM919.754 234.215C916.668 234.215 914.676 232.027 914.676 228.746C914.676 225.445 916.668 223.258 919.754 223.258C922.859 223.258 924.832 225.445 924.832 228.746C924.832 232.027 922.859 234.215 919.754 234.215ZM919.773 232.223C921.473 232.223 922.312 230.68 922.312 228.727C922.312 226.793 921.473 225.23 919.773 225.23C918.035 225.23 917.195 226.793 917.195 228.727C917.195 230.68 918.035 232.223 919.773 232.223ZM929.666 219.859V234H927.166V219.859H929.666ZM939.226 229.547V223.395H941.706V234H939.304V232.125H939.187C938.698 233.297 937.585 234.137 936.003 234.137C933.913 234.137 932.468 232.691 932.448 230.152V223.395H934.948V229.762C934.948 231.109 935.749 231.969 936.96 231.969C938.054 231.969 939.226 231.168 939.226 229.547ZM949.782 223.395V225.309H947.692V230.816C947.692 231.832 948.2 232.047 948.825 232.047C949.118 232.047 949.606 232.027 949.919 232.008V234.039C949.626 234.098 949.137 234.137 948.512 234.137C946.637 234.137 945.192 233.219 945.212 231.227V225.309H943.688V223.395H945.212V220.855H947.692V223.395H949.782ZM952.096 234V223.395H954.596V234H952.096ZM953.366 221.891C952.584 221.891 951.92 221.285 951.92 220.523C951.92 219.781 952.584 219.176 953.366 219.176C954.166 219.176 954.811 219.781 954.811 220.523C954.811 221.285 954.166 221.891 953.366 221.891ZM962.008 234.215C958.922 234.215 956.93 232.027 956.93 228.746C956.93 225.445 958.922 223.258 962.008 223.258C965.113 223.258 967.086 225.445 967.086 228.746C967.086 232.027 965.113 234.215 962.008 234.215ZM962.027 232.223C963.727 232.223 964.566 230.68 964.566 228.727C964.566 226.793 963.727 225.23 962.027 225.23C960.289 225.23 959.449 226.793 959.449 228.727C959.449 230.68 960.289 232.223 962.027 232.223ZM971.92 227.789V234H969.42V223.395H971.802V225.191H971.939C972.427 224 973.502 223.258 975.084 223.258C977.291 223.258 978.736 224.703 978.716 227.242V234H976.236V227.633C976.236 226.207 975.474 225.367 974.166 225.367C972.838 225.367 971.92 226.246 971.92 227.789Z" fill="white"/>
<path d="M622.328 311.703V317.844H631.281V311.703H637.234V333.312H616.422V311.703H622.328ZM622.328 328.625H631.281V322.391H622.328V328.625ZM649.984 308.703V340.016H643.984V308.703H649.984ZM650.969 345.781V350.562H621.297V336.875H627.297V345.781H650.969ZM681.929 311V315.781H673.397C673.679 320.281 676.89 324.781 683.569 326.609L680.569 331.25C675.694 329.867 672.272 326.938 670.351 323.188C668.405 327.242 664.913 330.453 659.851 332L656.851 327.312C663.647 325.344 666.952 320.609 667.257 315.781H658.491V311H681.929ZM692.429 308.656V331.812H686.429V308.656H692.429ZM669.788 333.594V337.578H686.476V333.594H692.429V350.844H663.882V333.594H669.788ZM669.788 346.062H686.476V342.219H669.788V346.062ZM718.607 309.266C728.404 309.266 734.076 311.844 734.123 316.531C734.076 321.266 728.404 323.844 718.607 323.844C708.764 323.844 703.045 321.266 703.045 316.531C703.045 311.844 708.764 309.266 718.607 309.266ZM718.607 313.625C712.326 313.625 709.279 314.656 709.326 316.531C709.279 318.641 712.326 319.438 718.607 319.438C724.936 319.438 727.936 318.641 727.936 316.531C727.936 314.656 724.936 313.625 718.607 313.625ZM738.061 325.859V330.594H699.154V325.859H738.061ZM733.326 333.078V343.953H709.561V346.531H734.451V351.031H703.701V339.781H727.42V337.438H703.654V333.078H733.326ZM766.934 321.547C766.934 327.969 769.231 334.484 775.371 337.719L772.043 342.125C768.199 340.156 765.645 336.711 764.168 332.516C762.668 337.086 760.113 340.906 756.246 343.109L752.871 338.609C758.918 335.141 761.262 328.156 761.309 321.547V320.75H754.231V315.875H761.309V310.109H766.887V315.875H773.918V320.75H766.934V321.547ZM790.84 308.656V351.312H785.121V329.938H781.512V349.344H775.84V309.266H781.512V325.062H785.121V308.656H790.84ZM835.066 332.516V337.391H818.378V351.359H812.472V337.391H796.019V332.516H835.066ZM815.425 310.062C824.566 310.062 830.988 313.859 830.988 319.766C830.988 325.578 824.566 329.281 815.425 329.281C806.284 329.281 799.909 325.578 799.956 319.766C799.909 313.859 806.284 310.062 815.425 310.062ZM815.425 314.844C809.706 314.844 806.05 316.625 806.097 319.766C806.05 322.812 809.706 324.547 815.425 324.547C821.191 324.547 824.8 322.812 824.8 319.766C824.8 316.625 821.191 314.844 815.425 314.844ZM873.666 312.359V316.391C873.666 321.734 873.666 327.734 871.932 336.781L865.932 336.172C867.549 328.109 867.619 322.109 867.666 317.094H842.541V312.359H873.666ZM877.416 341.234V346.109H838.51V341.234H852.432V326.562H858.385V341.234H877.416ZM889.954 343.531L885.923 356.891H880.954L883.298 343.531H889.954ZM928.015 312.688V340.906H907.531V312.688H928.015ZM913.437 317.375V336.172H922.062V317.375H913.437ZM939.828 308.656V324.734H946.109V329.703H939.828V351.312H933.828V308.656H939.828ZM968.069 309.453C977.538 309.453 983.538 312.594 983.584 317.797C983.538 322.953 977.538 326.094 968.069 326.047C958.647 326.094 952.506 322.953 952.506 317.797C952.506 312.594 958.647 309.453 968.069 309.453ZM968.069 314.094C962.116 314.094 958.694 315.359 958.741 317.797C958.694 320.188 962.116 321.406 968.069 321.406C973.975 321.406 977.397 320.188 977.397 317.797C977.397 315.359 973.975 314.094 968.069 314.094ZM982.881 336.312V350.844H953.116V336.312H982.881ZM959.022 341.047V346.062H977.022V341.047H959.022ZM987.522 328.531V333.312H948.616V328.531H987.522ZM1010.51 309.266C1020.31 309.266 1025.98 311.844 1026.03 316.531C1025.98 321.266 1020.31 323.844 1010.51 323.844C1000.67 323.844 994.951 321.266 994.951 316.531C994.951 311.844 1000.67 309.266 1010.51 309.266ZM1010.51 313.625C1004.23 313.625 1001.18 314.656 1001.23 316.531C1001.18 318.641 1004.23 319.438 1010.51 319.438C1016.84 319.438 1019.84 318.641 1019.84 316.531C1019.84 314.656 1016.84 313.625 1010.51 313.625ZM1029.97 325.859V330.594H991.06V325.859H1029.97ZM1025.23 333.078V343.953H1001.47V346.531H1026.36V351.031H995.607V339.781H1019.33V337.438H995.56V333.078H1025.23ZM1058.84 321.547C1058.84 327.969 1061.14 334.484 1067.28 337.719L1063.95 342.125C1060.11 340.156 1057.55 336.711 1056.07 332.516C1054.57 337.086 1052.02 340.906 1048.15 343.109L1044.78 338.609C1050.82 335.141 1053.17 328.156 1053.21 321.547V320.75H1046.14V315.875H1053.21V310.109H1058.79V315.875H1065.82V320.75H1058.84V321.547ZM1082.75 308.656V351.312H1077.03V329.938H1073.42V349.344H1067.75V309.266H1073.42V325.062H1077.03V308.656H1082.75ZM1126.97 332.516V337.391H1110.28V351.359H1104.38V337.391H1087.92V332.516H1126.97ZM1107.33 310.062C1116.47 310.062 1122.89 313.859 1122.89 319.766C1122.89 325.578 1116.47 329.281 1107.33 329.281C1098.19 329.281 1091.82 325.578 1091.86 319.766C1091.82 313.859 1098.19 310.062 1107.33 310.062ZM1107.33 314.844C1101.61 314.844 1097.96 316.625 1098 319.766C1097.96 322.812 1101.61 324.547 1107.33 324.547C1113.1 324.547 1116.71 322.812 1116.71 319.766C1116.71 316.625 1113.1 314.844 1107.33 314.844ZM1165.06 320.281V324.969H1135.24V310.156H1141.2V320.281H1165.06ZM1169.42 329.562V334.25H1130.37V329.562H1169.42ZM1165.34 345.594V350.375H1134.87V337.719H1140.87V345.594H1165.34ZM1204.76 334.766C1213.62 334.766 1219.15 337.812 1219.15 343.016C1219.15 348.312 1213.62 351.359 1204.76 351.359C1195.71 351.359 1190.13 348.312 1190.13 343.016C1190.13 337.812 1195.71 334.766 1204.76 334.766ZM1204.76 339.406C1199.13 339.406 1196.09 340.578 1196.13 343.016C1196.09 345.453 1199.13 346.719 1204.76 346.719C1210.29 346.719 1213.24 345.453 1213.24 343.016C1213.24 340.578 1210.29 339.406 1204.76 339.406ZM1218.73 308.656V318.547H1224.49V323.562H1218.73V333.828H1212.73V308.656H1218.73ZM1192.1 311.328V316.719H1200.82V311.328H1206.82V331.391H1186.15V311.328H1192.1ZM1192.1 326.656H1200.82V321.359H1192.1V326.656ZM1235.16 310.812V316.297H1243.55V310.812H1249.45V318.406H1257.33V308.656H1263.28V332H1257.33V323.281H1249.45V330.781H1229.16V310.812H1235.16ZM1235.16 326H1243.55V320.891H1235.16V326ZM1240.73 333.781V337.719H1257.33V333.781H1263.28V350.75H1234.83V333.781H1240.73ZM1240.73 345.969H1257.33V342.312H1240.73V345.969Z" fill="#40424D"/>
</g>
<defs>
<linearGradient id="paint0_linear_4878_5445" x1="960" y1="1080" x2="960" y2="0" gradientUnits="userSpaceOnUse">
<stop offset="0.6" stop-color="#56AFDF" stop-opacity="0"/>
<stop offset="0.8" stop-color="#56AFDF" stop-opacity="0.4"/>
<stop offset="1" stop-color="#56AFDF"/>
</linearGradient>
<clipPath id="clip0_4878_5445">
<rect width="1920" height="1146" fill="white"/>
</clipPath>
</defs>
</svg>
