<svg width="400" height="400" viewBox="0 0 400 400" fill="none" xmlns="http://www.w3.org/2000/svg">
<rect width="400" height="400" rx="200" fill="#56AFDF" fill-opacity="0.1"/>
<path d="M133.948 207.469V210.281H108.135V207.469H119.198V200.938H122.635V207.469H133.948ZM122.729 189.312C122.729 193.594 127.01 197.812 132.948 198.75L131.448 201.625C126.666 200.719 122.76 197.984 120.885 194.281C119.01 197.969 115.135 200.75 110.385 201.625L108.885 198.75C114.791 197.812 119.01 193.562 119.041 189.312V187.25H122.729V189.312ZM145.588 187.281C150.056 187.281 153.338 190.094 153.369 194.094C153.338 197.578 150.884 200.125 147.338 200.75V204.875C149.853 204.75 152.4 204.531 154.806 204.188L155.088 206.688C148.744 207.875 141.963 207.938 136.994 207.938L136.556 205.094C138.713 205.094 141.228 205.094 143.869 205V200.75C140.322 200.141 137.838 197.578 137.838 194.094C137.838 190.094 141.15 187.281 145.588 187.281ZM145.588 190.281C143.119 190.281 141.275 191.719 141.275 194.094C141.275 196.438 143.119 197.938 145.588 197.938C148.088 197.938 149.963 196.438 149.963 194.094C149.963 191.719 148.088 190.281 145.588 190.281ZM159.963 185.531V213.812H156.494V185.531H159.963ZM195.899 198.375V201.125H187.524V207.594H198.774V210.438H172.961V207.594H184.086V201.125H176.086V187.625H195.68V190.406H179.555V198.375H195.899ZM211.945 192.312C211.914 197.5 214.632 202.688 219.226 204.656L217.164 207.438C213.914 205.938 211.523 202.938 210.226 199.25C208.929 203.234 206.507 206.484 203.07 208.094L200.945 205.188C205.664 203.156 208.414 197.75 208.414 192.312V187.812H211.945V192.312ZM224.757 185.531V213.812H221.257V185.531H224.757ZM263.6 207.469V210.281H237.788V207.469H248.85V200.938H252.288V207.469H263.6ZM252.381 189.312C252.381 193.594 256.663 197.812 262.6 198.75L261.1 201.625C256.319 200.719 252.413 197.984 250.538 194.281C248.663 197.969 244.788 200.75 240.038 201.625L238.538 198.75C244.444 197.812 248.663 193.562 248.694 189.312V187.25H252.381V189.312ZM280.677 186.906V188.969H286.271V185.531H289.74V199.812H286.271V196.75H280.677V198.719H267.302V186.906H280.677ZM270.74 189.656V195.969H277.24V189.656H270.74ZM289.74 201.094V208.406H274.615V210.688H290.646V213.438H271.146V205.844H286.271V203.781H271.115V201.094H289.74ZM280.677 194.062H286.271V191.594H280.677V194.062Z" fill="#56AFDF"/>
</svg>
