<svg width="400" height="400" viewBox="0 0 400 400" fill="none" xmlns="http://www.w3.org/2000/svg">
<rect width="400" height="400" rx="200" fill="#56AFDF"/>
<path d="M136.627 185.531V213.781H133.314V185.531H136.627ZM130.627 186.219V212.438H127.346V199.438H122.314C120.658 202.688 118.002 205.5 114.002 207.812L112.033 205.344C117.893 201.891 120.564 197.469 121.096 191.781H113.471V188.969H124.533C124.533 191.703 124.205 194.266 123.439 196.656H127.346V186.219H130.627ZM155.142 189.406C155.142 193.781 159.423 198.156 165.329 199.188L163.767 202.094C159.033 201.094 155.158 198.234 153.329 194.438C151.454 198.203 147.579 201.078 142.861 202.094L141.329 199.188C147.173 198.125 151.423 193.75 151.454 189.406V187.312H155.142V189.406ZM166.361 207.312V210.188H140.548V207.312H166.361ZM191.813 200.344V203.094H172.001V187.75H191.563V190.562H175.532V193.969H190.907V196.688H175.532V200.344H191.813ZM194.657 207.5V210.344H168.844V207.5H194.657ZM227.499 185.531V196.781H231.843V199.656H227.499V213.781H224.062V185.531H227.499ZM221.874 189.875V192.656H205.218V189.875H211.906V185.938H215.374V189.875H221.874ZM213.656 194.5C217.718 194.5 220.749 197.25 220.749 201.156C220.749 205.062 217.718 207.781 213.656 207.781C209.531 207.781 206.499 205.062 206.531 201.156C206.499 197.25 209.531 194.5 213.656 194.5ZM213.656 197.344C211.437 197.344 209.843 198.844 209.843 201.156C209.843 203.469 211.437 204.938 213.656 204.906C215.812 204.938 217.406 203.469 217.437 201.156C217.406 198.844 215.812 197.344 213.656 197.344ZM259.452 201.438V204.312H248.202V213.781H244.764V204.312H233.639V201.438H259.452ZM246.483 186.531C252.483 186.562 256.671 189 256.671 192.875C256.671 196.719 252.483 199.125 246.483 199.125C240.452 199.125 236.327 196.719 236.358 192.875C236.327 189 240.452 186.562 246.483 186.531ZM246.483 189.344C242.483 189.344 239.889 190.656 239.921 192.875C239.889 195.062 242.483 196.375 246.483 196.375C250.483 196.375 253.077 195.062 253.077 192.875C253.077 190.656 250.483 189.344 246.483 189.344ZM276.561 189.406C276.561 193.781 280.842 198.156 286.748 199.188L285.186 202.094C280.451 201.094 276.576 198.234 274.748 194.438C272.873 198.203 268.998 201.078 264.279 202.094L262.748 199.188C268.592 198.125 272.842 193.75 272.873 189.406V187.312H276.561V189.406ZM287.779 207.312V210.188H261.967V207.312H287.779Z" fill="white"/>
</svg>
