<svg width="1760" height="1068" viewBox="0 0 1760 1068" fill="none" xmlns="http://www.w3.org/2000/svg">
<rect width="1760" height="1068" rx="80" fill="#F7F8F8"/>
<path d="M141.914 109.922V116.039H144.867V118.195H141.914V125.508H139.312V109.922H141.914ZM142.758 128.555V130.664H128.344V123.938H130.945V128.555H142.758ZM128.508 111.422V114.656H133.453V111.422H136.031V122.062H125.93V111.422H128.508ZM128.508 120H133.453V116.672H128.508V120ZM165.738 120.562V122.648H146.425V120.562H154.746V118.523H148.933V110.414H151.511V112.523H160.652V110.414H163.23V118.523H157.371V120.562H165.738ZM163.371 124.336V131.086H160.769V126.398H148.558V124.336H163.371ZM151.511 116.438H160.652V114.469H151.511V116.438ZM180.257 118.688V120.797H175.968V124.5C177.819 124.418 179.671 124.289 181.429 124.102L181.64 126.023C176.976 126.727 172.077 126.773 168.069 126.773L167.741 124.617C169.487 124.629 171.397 124.629 173.366 124.57V120.797H169.218V111.844H180.163V113.906H171.796V118.688H180.257ZM185.296 109.898V131.109H182.694V109.898H185.296ZM206.026 115.898V117.961H191.354V110.672H193.932V115.898H206.026ZM208.206 120.422V122.484H188.846V120.422H208.206ZM206.167 128.484V130.594H191.167V124.359H193.768V128.484H206.167ZM222.267 110.578C225.478 110.578 227.869 112.57 227.892 115.359C227.869 118.172 225.478 120.141 222.267 120.141C219.033 120.141 216.642 118.172 216.642 115.359C216.642 112.57 219.033 110.578 222.267 110.578ZM222.267 112.734C220.486 112.734 219.173 113.742 219.173 115.359C219.173 117 220.486 118.031 222.267 118.031C224.048 118.031 225.361 117 225.361 115.359C225.361 113.742 224.048 112.734 222.267 112.734ZM233.916 109.898V120.609H231.291V109.898H233.916ZM233.916 121.523V127.055H222.455V128.766H234.548V130.828H219.9V125.133H231.314V123.562H219.853V121.523H233.916ZM244.989 113.273C244.989 115.945 246.724 118.453 249.982 119.484L248.575 121.523C246.29 120.75 244.65 119.203 243.747 117.234C242.81 119.484 241.099 121.254 238.661 122.109L237.255 120.07C240.677 118.875 242.364 116.062 242.388 113.039V111.023H244.989V113.273ZM254.2 109.898V115.055H257.153V117.211H254.2V122.578H251.599V109.898H254.2ZM247.31 123.047C251.692 123.023 254.388 124.523 254.411 127.031C254.388 129.586 251.692 131.062 247.31 131.062C242.88 131.062 240.138 129.586 240.138 127.031C240.138 124.523 242.88 123.023 247.31 123.047ZM247.31 125.086C244.403 125.086 242.739 125.789 242.739 127.031C242.739 128.344 244.403 129 247.31 129C250.216 129 251.833 128.344 251.833 127.031C251.833 125.789 250.216 125.086 247.31 125.086ZM268.344 110.227C273.173 110.227 275.962 111.516 275.985 113.859C275.962 116.227 273.173 117.492 268.344 117.516C263.516 117.492 260.704 116.227 260.704 113.859C260.704 111.516 263.516 110.227 268.344 110.227ZM268.344 112.148C265.11 112.148 263.423 112.758 263.446 113.859C263.423 115.031 265.11 115.57 268.344 115.57C271.626 115.57 273.29 115.031 273.29 113.859C273.29 112.758 271.626 112.148 268.344 112.148ZM278.024 118.641V120.727H258.712V118.641H278.024ZM275.61 122.156V127.336H263.563V128.906H276.196V130.898H261.008V125.484H273.055V124.078H260.985V122.156H275.61ZM289.672 111.117V114.234H294.406V111.117H296.984V115.312H301.25V109.898H303.851V124.453H301.25V117.422H296.984V121.383H287.07V111.117H289.672ZM289.672 119.297H294.406V116.273H289.672V119.297ZM298.179 123.633C298.156 126.094 300.804 128.367 305.093 128.977L304.109 130.969C300.687 130.477 298.074 128.953 296.797 126.797C295.496 128.918 292.894 130.488 289.531 130.969L288.593 128.977C292.789 128.32 295.484 125.977 295.484 123.633V123.07H298.179V123.633ZM313.12 111.445C315.991 111.445 318.113 113.836 318.488 117.703H322.519V109.898H325.097V131.109H322.519V119.812H318.511C318.23 123.902 316.073 126.422 313.12 126.422C309.933 126.422 307.683 123.539 307.683 118.922C307.683 114.352 309.933 111.445 313.12 111.445ZM313.12 113.789C311.363 113.789 310.167 115.688 310.191 118.922C310.167 122.18 311.363 124.078 313.12 124.078C314.878 124.078 316.05 122.18 316.073 118.922C316.05 115.688 314.878 113.789 313.12 113.789ZM332.092 111.375V119.391C334.811 119.355 337.694 119.156 340.811 118.523L341.092 120.656C337.6 121.383 334.342 121.57 331.225 121.57H329.467V111.375H332.092ZM345.264 109.922V115.992H348.217V118.172H345.264V125.156H342.663V109.922H345.264ZM345.967 128.555V130.664H331.717V123.703H334.342V128.555H345.967ZM362.654 115.406C362.654 118.969 363.873 122.461 366.803 124.031L365.256 126.094C363.345 125.027 362.092 123.176 361.388 120.914C360.603 123.41 359.244 125.496 357.263 126.68L355.599 124.781C358.717 122.953 360.123 119.18 360.123 115.57V111.773H362.654V115.406ZM374.232 109.898V131.086H371.724V120.352H369.545V130.055H367.084V110.273H369.545V118.242H371.724V109.898H374.232ZM396.533 126.469V128.625H377.173V126.469H385.517V123.023H379.47V116.086H391.658V113.461H379.423V111.352H394.236V118.148H382.072V120.891H394.728V123.023H388.095V126.469H396.533ZM417.731 120.375V122.461H409.552V126.352H406.903V122.461H398.372V120.375H417.731ZM415.598 128.531V130.664H400.739V124.383H403.364V128.531H415.598ZM408.028 110.367C412.598 110.367 415.622 112.031 415.622 114.703C415.622 117.375 412.598 119.016 408.028 119.016C403.458 119.016 400.434 117.375 400.434 114.703C400.434 112.031 403.458 110.367 408.028 110.367ZM408.028 112.43C405.122 112.43 403.223 113.25 403.247 114.703C403.223 116.109 405.122 116.93 408.028 116.93C410.958 116.93 412.833 116.109 412.833 114.703C412.833 113.25 410.958 112.43 408.028 112.43ZM443.535 109.922V122.297H440.933V119.953H435.894V117.844H440.933V115.57H436.105C434.758 118.945 431.676 121.301 427.058 122.578L426.004 120.516C430.961 119.168 433.598 116.66 434.019 113.508H427.129V111.398H436.855C436.855 112.137 436.797 112.84 436.668 113.508H440.933V109.922H443.535ZM436.527 122.531C440.816 122.531 443.676 124.148 443.676 126.75C443.676 129.352 440.816 130.969 436.527 130.969C432.191 130.969 429.332 129.352 429.332 126.75C429.332 124.148 432.191 122.531 436.527 122.531ZM436.527 124.57C433.668 124.57 431.933 125.344 431.933 126.75C431.933 128.133 433.668 128.906 436.527 128.906C439.316 128.906 441.074 128.133 441.074 126.75C441.074 125.344 439.316 124.57 436.527 124.57ZM464.757 109.898V122.719H462.156V118.336H459.132V116.18H462.156V109.898H464.757ZM464.757 123.68V130.828H450.671V123.68H464.757ZM453.273 125.742V128.719H462.203V125.742H453.273ZM459.484 111.867V113.977H447.062V111.867H451.984V109.734H454.562V111.867H459.484ZM453.273 114.797C456.226 114.797 458.288 116.367 458.312 118.594C458.288 120.891 456.226 122.391 453.273 122.391C450.343 122.391 448.257 120.891 448.257 118.594C448.257 116.367 450.343 114.797 453.273 114.797ZM453.273 116.766C451.749 116.766 450.742 117.469 450.742 118.594C450.742 119.766 451.749 120.445 453.273 120.445C454.796 120.445 455.804 119.766 455.804 118.594C455.804 117.469 454.796 116.766 453.273 116.766ZM480.073 112.102V113.602C480.073 115.5 480.073 118.148 479.487 121.805L476.909 121.594C477.413 118.383 477.472 116.016 477.495 114.188H469.175V112.102H480.073ZM474.729 118.148V124.406C476.886 124.324 479.1 124.172 481.128 123.914L481.268 125.859C476.886 126.562 472.034 126.656 468.307 126.633L468.05 124.547C469.304 124.535 470.698 124.523 472.151 124.477V118.148H474.729ZM484.854 109.898V118.523H487.925V120.727H484.854V131.086H482.229V109.898H484.854ZM512.416 109.898V117H515.275V119.156H512.416V126.445H509.814V109.898H512.416ZM513.166 128.555V130.664H498.494V125.344H501.096V128.555H513.166ZM495.447 122.203C497.029 122.203 498.869 122.191 500.791 122.109V120.773C498.435 120.492 496.947 119.332 496.947 117.633C496.947 115.547 498.986 114.328 502.057 114.352C505.15 114.328 507.166 115.547 507.166 117.633C507.166 119.32 505.713 120.469 503.392 120.773V121.992C505.197 121.898 507.014 121.734 508.713 121.477L508.924 123.305C504.447 124.148 499.385 124.195 495.728 124.242L495.447 122.203ZM508.15 111.75V113.648H495.986V111.75H500.791V109.828H503.392V111.75H508.15ZM502.057 116.109C500.416 116.109 499.432 116.648 499.455 117.633C499.432 118.547 500.416 119.086 502.057 119.086C503.697 119.086 504.682 118.547 504.682 117.633C504.682 116.648 503.697 116.109 502.057 116.109ZM534.599 109.922V122.297H531.997V119.953H526.958V117.844H531.997V115.57H527.169C525.822 118.945 522.74 121.301 518.122 122.578L517.068 120.516C522.025 119.168 524.662 116.66 525.083 113.508H518.193V111.398H527.919C527.919 112.137 527.861 112.84 527.732 113.508H531.997V109.922H534.599ZM527.591 122.531C531.88 122.531 534.74 124.148 534.74 126.75C534.74 129.352 531.88 130.969 527.591 130.969C523.255 130.969 520.396 129.352 520.396 126.75C520.396 124.148 523.255 122.531 527.591 122.531ZM527.591 124.57C524.732 124.57 522.997 125.344 522.997 126.75C522.997 128.133 524.732 128.906 527.591 128.906C530.38 128.906 532.138 128.133 532.138 126.75C532.138 125.344 530.38 124.57 527.591 124.57ZM547.712 110.227C552.54 110.227 555.329 111.516 555.353 113.859C555.329 116.227 552.54 117.492 547.712 117.516C542.884 117.492 540.071 116.227 540.071 113.859C540.071 111.516 542.884 110.227 547.712 110.227ZM547.712 112.148C544.478 112.148 542.79 112.758 542.813 113.859C542.79 115.031 544.478 115.57 547.712 115.57C550.993 115.57 552.657 115.031 552.657 113.859C552.657 112.758 550.993 112.148 547.712 112.148ZM557.392 118.641V120.727H538.079V118.641H557.392ZM554.978 122.156V127.336H542.931V128.906H555.563V130.898H540.376V125.484H552.423V124.078H540.353V122.156H554.978ZM583.242 109.922V125.953H580.617V124.102H576.469V122.273H580.617V109.922H583.242ZM583.734 128.555V130.664H568.195V124.406H570.797V128.555H583.734ZM565.383 119.438C569.297 119.414 574.547 119.367 579.047 118.805L579.188 120.68C577.441 120.973 575.637 121.172 573.844 121.289V125.367H571.242V121.43C569.262 121.512 567.375 121.523 565.711 121.523L565.383 119.438ZM572.297 110.695C575.391 110.695 577.547 112.219 577.57 114.445C577.547 116.719 575.391 118.172 572.297 118.172C569.156 118.172 567 116.719 567 114.445C567 112.219 569.156 110.695 572.297 110.695ZM572.297 112.617C570.609 112.617 569.461 113.297 569.461 114.445C569.461 115.594 570.609 116.273 572.297 116.273C573.914 116.273 575.062 115.594 575.086 114.445C575.062 113.297 573.914 112.617 572.297 112.617ZM603.293 109.898V118.336H606.55V120.492H603.293V131.086H600.714V109.898H603.293ZM599.074 113.156V115.242H586.582V113.156H591.597V110.203H594.199V113.156H599.074ZM592.91 116.625C595.957 116.625 598.23 118.688 598.23 121.617C598.23 124.547 595.957 126.586 592.91 126.586C589.816 126.586 587.543 124.547 587.566 121.617C587.543 118.688 589.816 116.625 592.91 116.625ZM592.91 118.758C591.246 118.758 590.05 119.883 590.05 121.617C590.05 123.352 591.246 124.453 592.91 124.43C594.527 124.453 595.722 123.352 595.746 121.617C595.722 119.883 594.527 118.758 592.91 118.758ZM625.077 115.898V117.961H610.405V110.672H612.983V115.898H625.077ZM627.257 120.422V122.484H607.897V120.422H627.257ZM625.218 128.484V130.594H610.218V124.359H612.819V128.484H625.218ZM642.889 114.984C642.865 118.758 644.764 122.602 648.045 124.172L646.451 126.258C644.154 125.098 642.502 122.859 641.6 120.164C640.674 123.047 638.94 125.438 636.514 126.656L634.92 124.57C638.318 122.953 640.264 118.898 640.287 114.984V111.609H642.889V114.984ZM651.912 109.898V118.195H655.17V120.422H651.912V131.086H649.311V109.898H651.912ZM673.252 109.922V115.078H676.228V117.258H673.252V122.508H670.65V109.922H673.252ZM673.252 123.445V130.828H659.541V123.445H673.252ZM662.095 125.484V128.719H670.697V125.484H662.095ZM667.017 111V117.211H659.963V119.484C663.56 119.473 666.021 119.355 668.916 118.875L669.197 120.938C666.033 121.523 663.291 121.617 659.095 121.617H657.361V115.242H664.463V113.086H657.338V111H667.017ZM697.099 118.383V120.445H677.763V118.383H697.099ZM694.802 114.961V117.023H680.224V110.438H694.614V112.523H682.825V114.961H694.802ZM694.661 121.898V127.219H682.614V128.836H695.247V130.875H680.06V125.344H692.107V123.867H680.036V121.898H694.661ZM705.852 111.375C709.204 111.352 711.665 113.484 711.688 116.484C711.665 119.508 709.204 121.617 705.852 121.617C702.524 121.617 700.04 119.508 700.04 116.484C700.04 113.484 702.524 111.352 705.852 111.375ZM705.852 113.625C704.001 113.625 702.618 114.727 702.618 116.484C702.618 118.266 704.001 119.344 705.852 119.344C707.727 119.344 709.133 118.266 709.133 116.484C709.133 114.727 707.727 113.625 705.852 113.625ZM716.633 109.898V131.109H714.032V109.898H716.633ZM699.079 124.547C702.899 124.547 708.196 124.5 712.766 123.844L712.977 125.742C708.219 126.656 703.133 126.68 699.407 126.68L699.079 124.547Z" fill="#56AFDF"/>
<path d="M136.375 168.188C136.375 172.781 138.719 177.688 143.5 179.688L141.344 182.812C137.984 181.391 135.672 178.562 134.406 175.094C133.109 178.859 130.75 181.984 127.406 183.531L125.125 180.375C129.844 178.281 132.281 173 132.281 168.188V166.438H126.25V163.188H142.312V166.438H136.375V168.188ZM149.156 160.438V188.875H145.125V160.438H149.156ZM179.577 174.281V177.469H153.64V174.281H164.609V170.5H168.546V174.281H179.577ZM168.609 161.844C168.609 165.156 171.796 168.312 178.202 169.094L176.671 172.188C171.874 171.469 168.343 169.453 166.546 166.594C164.718 169.453 161.187 171.484 156.39 172.188L154.984 169.094C161.265 168.312 164.546 165.062 164.546 161.844V160.906H168.609V161.844ZM176.421 179.469V188.875H172.452V182.562H156.515V179.469H176.421ZM198.342 162.031V165.188H192.686C192.717 168.547 194.717 171.984 199.217 173.469L197.249 176.531C194.092 175.531 191.936 173.469 190.717 170.906C189.436 173.75 187.171 176.047 183.811 177.125L181.78 173.969C186.452 172.469 188.577 168.734 188.624 165.188H182.905V162.031H198.342ZM205.905 178.625V188.875H201.936V181.812H186.374V178.625H205.905ZM205.905 160.438V177.375H201.936V170.531H197.53V167.281H201.936V160.438H205.905ZM234.045 160.469V180.906H230.045V160.469H234.045ZM234.795 185.188V188.375H214.982V178.844H219.014V185.188H234.795ZM218.451 162.281C222.826 162.281 226.232 165.281 226.232 169.438C226.232 173.688 222.826 176.656 218.451 176.656C214.076 176.656 210.67 173.688 210.67 169.438C210.67 165.281 214.076 162.281 218.451 162.281ZM218.451 165.75C216.232 165.719 214.545 167.125 214.576 169.438C214.545 171.812 216.232 173.188 218.451 173.188C220.607 173.188 222.295 171.812 222.295 169.438C222.295 167.125 220.607 165.719 218.451 165.75ZM259.794 177.844C265.7 177.844 269.387 179.875 269.387 183.344C269.387 186.875 265.7 188.906 259.794 188.906C253.762 188.906 250.044 186.875 250.044 183.344C250.044 179.875 253.762 177.844 259.794 177.844ZM259.794 180.938C256.044 180.938 254.012 181.719 254.044 183.344C254.012 184.969 256.044 185.812 259.794 185.812C263.481 185.812 265.45 184.969 265.45 183.344C265.45 181.719 263.481 180.938 259.794 180.938ZM269.106 160.438V167.031H272.95V170.375H269.106V177.219H265.106V160.438H269.106ZM251.356 162.219V165.812H257.169V162.219H261.169V175.594H247.387V162.219H251.356ZM251.356 172.438H257.169V168.906H251.356V172.438ZM300.84 174.5V177.656H290.121V182.562H286.184V177.656H274.809V174.5H300.84ZM297.496 161.688V172.156H278.059V161.688H297.496ZM281.965 164.781V169.062H293.59V164.781H281.965ZM297.965 185.188V188.375H277.871V180.094H281.84V185.188H297.965ZM316.105 160.844C322.636 160.844 326.417 162.562 326.449 165.688C326.417 168.844 322.636 170.562 316.105 170.562C309.542 170.562 305.73 168.844 305.73 165.688C305.73 162.562 309.542 160.844 316.105 160.844ZM316.105 163.75C311.917 163.75 309.886 164.438 309.917 165.688C309.886 167.094 311.917 167.625 316.105 167.625C320.324 167.625 322.324 167.094 322.324 165.688C322.324 164.438 320.324 163.75 316.105 163.75ZM329.074 171.906V175.062H303.136V171.906H329.074ZM325.917 176.719V183.969H310.074V185.688H326.667V188.688H306.167V181.188H321.98V179.625H306.136V176.719H325.917ZM348.729 161.625C353.072 161.594 356.229 164.062 356.229 167.656C356.229 171.219 353.072 173.719 348.729 173.688C344.385 173.719 341.229 171.219 341.26 167.656C341.229 164.062 344.385 161.594 348.729 161.625ZM348.729 164.812C346.604 164.812 345.104 165.844 345.104 167.656C345.104 169.438 346.604 170.469 348.729 170.438C350.916 170.469 352.447 169.438 352.447 167.656C352.447 165.844 350.916 164.812 348.729 164.812ZM363.416 160.469V188.875H359.479V160.469H363.416ZM339.51 175.438C344.541 175.438 351.697 175.312 357.76 174.406L358.01 177.344C355.666 177.812 353.26 178.109 350.885 178.281V188.031H346.916V178.531C344.416 178.641 342.057 178.656 340.01 178.688L339.51 175.438ZM381.462 164.781V167.938H367.712V164.781H372.65V161.219H376.587V164.781H381.462ZM374.65 169.219C378.275 169.219 380.869 172.031 380.9 175.969C380.869 179.938 378.275 182.75 374.65 182.75C371.025 182.75 368.369 179.938 368.369 175.969C368.369 172.031 371.025 169.219 374.65 169.219ZM374.65 172.531C372.994 172.531 371.869 173.812 371.869 175.969C371.869 178.125 372.994 179.375 374.65 179.375C376.244 179.375 377.369 178.125 377.4 175.969C377.369 173.812 376.244 172.531 374.65 172.531ZM392.337 160.438V188.875H388.556V175.188H386.244V187.656H382.525V161H386.244V172H388.556V160.438H392.337ZM414.805 164.312C414.774 168.125 416.742 171.625 421.305 173.031L419.211 176.156C416.149 175.094 414.071 173.125 412.899 170.562C411.617 173.531 409.321 175.875 405.899 177.031L403.805 173.844C408.68 172.281 410.742 168.469 410.774 164.5V161.906H414.805V164.312ZM428.024 160.438V177.094H424.055V168.906H418.711V165.656H424.055V160.438H428.024ZM418.305 177.844C424.367 177.844 428.086 179.875 428.117 183.375C428.086 186.875 424.367 188.875 418.305 188.875C412.242 188.875 408.524 186.875 408.524 183.375C408.524 179.875 412.242 177.844 418.305 177.844ZM418.305 180.938C414.524 180.938 412.492 181.75 412.492 183.375C412.492 184.938 414.524 185.781 418.305 185.781C422.086 185.781 424.149 184.938 424.149 183.375C424.149 181.75 422.086 180.938 418.305 180.938ZM458.601 164.594V167.812H454.914V170.719H458.601V173.969H454.914V178.5H450.914V160.438H454.914V164.594H458.601ZM445.633 178.75C451.476 178.75 455.226 180.656 455.226 183.844C455.226 186.969 451.476 188.875 445.633 188.875C439.664 188.875 435.976 186.969 436.008 183.844C435.976 180.656 439.664 178.75 445.633 178.75ZM445.633 181.781C441.914 181.781 439.914 182.438 439.945 183.844C439.914 185.188 441.914 185.906 445.633 185.906C449.258 185.906 451.226 185.188 451.226 183.844C451.226 182.438 449.258 181.781 445.633 181.781ZM449.226 163.156V166.25H432.351V163.156H438.82V160.281H442.789V163.156H449.226ZM440.789 167.219C444.914 167.219 447.789 169.312 447.789 172.344C447.789 175.406 444.914 177.438 440.789 177.438C436.601 177.438 433.726 175.406 433.726 172.344C433.726 169.312 436.601 167.219 440.789 167.219ZM440.789 170.125C438.883 170.125 437.601 170.906 437.633 172.344C437.601 173.75 438.883 174.5 440.789 174.469C442.695 174.5 444.008 173.75 444.008 172.344C444.008 170.906 442.695 170.125 440.789 170.125ZM473.616 160.844C480.147 160.844 483.929 162.562 483.96 165.688C483.929 168.844 480.147 170.562 473.616 170.562C467.054 170.562 463.241 168.844 463.241 165.688C463.241 162.562 467.054 160.844 473.616 160.844ZM473.616 163.75C469.429 163.75 467.397 164.438 467.429 165.688C467.397 167.094 469.429 167.625 473.616 167.625C477.835 167.625 479.835 167.094 479.835 165.688C479.835 164.438 477.835 163.75 473.616 163.75ZM486.585 171.906V175.062H460.647V171.906H486.585ZM483.429 176.719V183.969H467.585V185.688H484.179V188.688H463.679V181.188H479.491V179.625H463.647V176.719H483.429ZM520.396 162.906V165.594C520.396 169.156 520.396 173.156 519.24 179.188L515.24 178.781C516.318 173.406 516.365 169.406 516.396 166.062H499.646V162.906H520.396ZM522.896 182.156V185.406H496.959V182.156H506.24V172.375H510.209V182.156H522.896ZM549.224 160.438V188.938H545.255V177.469H540.38V174.188H545.255V169.719H540.474V166.469H545.255V160.438H549.224ZM538.974 162.812V173.75H530.224V179.281C533.739 179.266 536.864 179.094 540.443 178.562L540.755 181.812C536.505 182.5 532.88 182.562 528.505 182.562H526.255V170.656H535.068V165.969H526.193V162.812H538.974ZM576.114 160.469V169.188H579.957V172.438H576.114V181.688H572.114V160.469H576.114ZM570.426 163.438V166.594H553.551V163.438H560.02V160.406H563.989V163.438H570.426ZM561.989 167.594C566.114 167.594 568.989 169.812 568.989 173.094C568.989 176.375 566.114 178.531 561.989 178.531C557.832 178.531 554.926 176.375 554.926 173.094C554.926 169.812 557.832 167.594 561.989 167.594ZM561.989 170.625C560.082 170.656 558.801 171.531 558.832 173.094C558.801 174.656 560.082 175.5 561.989 175.5C563.895 175.5 565.207 174.656 565.207 173.094C565.207 171.531 563.895 170.656 561.989 170.625ZM577.145 185.188V188.375H557.676V180.062H561.645V185.188H577.145ZM612.3 160.438V171.562H616.487V174.844H612.3V188.875H608.362V160.438H612.3ZM606.425 164.688V167.875H589.706V164.688H596.144V160.875H600.144V164.688H606.425ZM598.144 169.469C602.3 169.469 605.394 172.281 605.394 176.25C605.394 180.219 602.3 183.031 598.144 183.031C593.956 183.031 590.862 180.219 590.862 176.25C590.862 172.281 593.956 169.469 598.144 169.469ZM598.144 172.688C596.144 172.719 594.675 174.062 594.675 176.25C594.675 178.469 596.144 179.781 598.144 179.75C600.144 179.781 601.581 178.469 601.581 176.25C601.581 174.062 600.144 172.719 598.144 172.688ZM644.159 176.344V179.594H633.034V188.906H629.096V179.594H618.128V176.344H644.159ZM631.065 161.375C637.159 161.375 641.44 163.906 641.44 167.844C641.44 171.719 637.159 174.188 631.065 174.188C624.971 174.188 620.721 171.719 620.753 167.844C620.721 163.906 624.971 161.375 631.065 161.375ZM631.065 164.562C627.253 164.562 624.815 165.75 624.846 167.844C624.815 169.875 627.253 171.031 631.065 171.031C634.909 171.031 637.315 169.875 637.315 167.844C637.315 165.75 634.909 164.562 631.065 164.562ZM661.424 164.188C661.424 168.344 665.111 172.812 671.549 173.906L669.799 177.219C664.846 176.234 661.158 173.453 659.33 169.781C657.439 173.422 653.752 176.219 648.83 177.219L647.111 173.906C653.424 172.781 657.143 168.312 657.174 164.188V162.125H661.424V164.188ZM672.486 182.094V185.375H646.455V182.094H672.486ZM698.72 160.438V175.062H694.751V172.219H689.501V174.25H675.97V161.656H679.97V164.969H685.564V161.656H689.501V164.062H694.751V160.438H698.72ZM698.72 176.125V183.719H683.814V185.438H699.564V188.562H679.814V180.812H694.751V179.188H679.782V176.125H698.72ZM679.97 171.125H685.564V168H679.97V171.125ZM689.501 169.219H694.751V167.031H689.501V169.219ZM722.562 163.594V166.719H715.719V171.25H721.438V174.281H715.719V179.375C718.766 179.359 721.016 179.188 723.656 178.75L724 181.969C720.75 182.562 718 182.594 713.844 182.594H711.938V163.594H722.562ZM735.719 160.438V188.875H731.875V160.438H735.719ZM729.688 160.938V187.594H725.969V174H722.781V170.812H725.969V160.938H729.688ZM753.921 163.125V181.938H740.265V163.125H753.921ZM744.203 166.25V178.781H749.953V166.25H744.203ZM761.796 160.438V171.156H765.984V174.469H761.796V188.875H757.796V160.438H761.796ZM793.655 173.188V176.156H767.624V173.188H793.655ZM790.53 177.562V184.281H774.593V185.906H791.374V188.625H770.624V181.75H786.593V180.312H770.593V177.562H790.53ZM790.499 160.938V167.625H774.843V169.156H790.999V171.844H770.874V165.094H786.499V163.656H770.811V160.938H790.499ZM818.466 162.781V176.438H804.81V162.781H818.466ZM808.747 165.969V173.312H814.529V165.969H808.747ZM826.529 160.438V168.625H830.372V171.906H826.529V181.188H822.529V160.438H826.529ZM827.56 185.188V188.375H808.091V179.156H812.06V185.188H827.56ZM858.263 171.531V174.656H832.263V171.531H858.263ZM855.169 166.844V169.969H835.513V161H854.95V164.188H839.481V166.844H855.169ZM855.044 176.344V183.781H839.2V185.531H855.794V188.625H835.294V180.938H851.106V179.344H835.263V176.344H855.044ZM871.278 178.594C871.246 180.922 872.215 183.312 874.559 184.906C876.887 183.219 877.84 180.719 877.871 178.594V177.438H881.778V178.594C881.778 181.562 883.34 184.375 887.215 185.562L885.184 188.5C882.481 187.562 880.715 185.812 879.746 183.562C878.793 185.781 877.121 187.719 874.559 188.75C871.934 187.781 870.278 185.938 869.34 183.719C868.324 185.828 866.574 187.562 863.996 188.5L862.059 185.562C865.809 184.312 867.371 181.438 867.403 178.594V177.438H871.278V178.594ZM868.496 161.906C872.074 161.875 875.012 163.969 875.809 167.031H880.559V160.438H884.528V176.375H880.559V170.281H875.809C875.059 173.422 872.106 175.531 868.496 175.531C864.153 175.531 860.903 172.688 860.903 168.688C860.903 164.75 864.153 161.875 868.496 161.906ZM868.496 165.219C866.309 165.219 864.715 166.5 864.746 168.688C864.715 170.844 866.309 172.219 868.496 172.219C870.621 172.219 872.184 170.844 872.215 168.688C872.184 166.5 870.621 165.219 868.496 165.219ZM895.824 177.5V179.906H907.542V177.5H911.511V188.562H891.886V177.5H895.824ZM895.824 185.438H907.542V182.938H895.824V185.438ZM914.792 172.844V176.062H888.855V172.844H914.792ZM903.886 161.688C903.886 164.531 907.167 167.75 913.511 168.469L912.105 171.594C907.199 170.969 903.652 168.938 901.824 166.188C899.996 168.938 896.433 170.969 891.574 171.594L890.136 168.469C896.48 167.719 899.761 164.594 899.792 161.688V160.719H903.886V161.688ZM941.057 160.438V188.875H937.089V160.438H941.057ZM922.62 163.156V178.438C926.464 178.391 930.589 178.031 934.776 177.219L935.276 180.5C930.276 181.531 925.589 181.875 921.182 181.844H918.682V163.156H922.62ZM967.885 160.438V171H972.073V174.25H967.885V188.938H963.885V160.438H967.885ZM959.916 163.062V166.281H950.541V178.75C954.666 178.703 958.073 178.516 961.854 177.844L962.291 181.188C957.885 181.938 954.01 182.062 948.979 182.031H946.573V163.062H959.916ZM977.431 186.281C975.963 186.281 974.775 185.094 974.806 183.656C974.775 182.219 975.963 181.062 977.431 181.062C978.806 181.062 980.025 182.219 980.025 183.656C980.025 185.094 978.806 186.281 977.431 186.281Z" fill="#40424D"/>
<rect x="125.5" y="300" width="1509" height="573" rx="39" fill="white"/>
<rect x="125.5" y="300" width="1509" height="573" rx="39" stroke="#56AFDF" stroke-width="2"/>
<rect x="184.5" y="359" width="76" height="54" rx="27" fill="#F7F8F8"/>
<path d="M215.093 388.254H217.417L218.628 389.836C219.419 388.996 219.898 387.678 219.898 385.93C219.898 382.707 218.277 380.949 215.972 380.949C213.667 380.949 212.046 382.707 212.046 385.93C212.046 389.152 213.667 390.91 215.972 390.91C216.343 390.91 216.695 390.861 217.027 390.773L215.093 388.254ZM222.456 385.93C222.456 388.498 221.577 390.471 220.171 391.711L222.124 394.23H219.644L218.472 392.727C217.71 393.039 216.87 393.195 215.972 393.195C212.261 393.195 209.488 390.48 209.488 385.93C209.488 381.359 212.261 378.664 215.972 378.664C219.683 378.664 222.456 381.359 222.456 385.93ZM230.141 393.195C227.114 393.195 224.966 391.555 224.907 389.172H227.466C227.544 390.305 228.677 391.047 230.141 391.047C231.704 391.047 232.817 390.188 232.817 388.938C232.817 387.668 231.723 386.75 229.887 386.75H228.618V384.797H229.887C231.391 384.797 232.446 383.957 232.427 382.727C232.446 381.535 231.548 380.734 230.161 380.734C228.833 380.734 227.68 381.477 227.641 382.668H225.2C225.259 380.285 227.407 378.664 230.18 378.664C233.052 378.664 234.907 380.422 234.887 382.59C234.907 384.172 233.852 385.324 232.309 385.637V385.754C234.302 386.027 235.434 387.297 235.415 389.074C235.434 391.457 233.208 393.195 230.141 393.195Z" fill="#56AFDF"/>
<path d="M189.891 442.469C191.482 442.469 192.801 443.387 193.582 444.969H197.898V441.16H199.734V458.699H197.898V451.98H193.699C192.947 453.738 191.57 454.754 189.891 454.754C187.273 454.754 185.438 452.371 185.457 448.602C185.438 444.852 187.273 442.469 189.891 442.469ZM189.891 444.129C188.309 444.129 187.215 445.848 187.215 448.602C187.215 451.375 188.309 453.094 189.891 453.094C191.473 453.094 192.566 451.375 192.566 448.602C192.566 445.848 191.473 444.129 189.891 444.129ZM194.109 446.492C194.236 447.137 194.324 447.84 194.324 448.602C194.324 449.266 194.266 449.881 194.148 450.457H197.898V446.492H194.109ZM217.752 441.16V452.195H215.994V447.312H213.962V451.59H212.224V441.492H213.962V445.789H215.994V441.16H217.752ZM211.58 443.152V444.617H202.732V443.152H206.267V441.297H208.103V443.152H211.58ZM207.166 445.438C209.392 445.438 210.955 446.629 210.955 448.445C210.955 450.262 209.392 451.453 207.166 451.453C204.978 451.453 203.416 450.262 203.416 448.445C203.416 446.629 204.978 445.438 207.166 445.438ZM207.166 446.805C205.935 446.805 205.076 447.449 205.076 448.445C205.076 449.441 205.935 450.105 207.166 450.105C208.435 450.105 209.275 449.441 209.275 448.445C209.275 447.449 208.435 446.805 207.166 446.805ZM211.892 452.449C215.603 452.449 217.83 453.562 217.849 455.555C217.83 457.508 215.603 458.641 211.892 458.621C208.181 458.641 205.955 457.508 205.974 455.555C205.955 453.562 208.181 452.449 211.892 452.449ZM211.892 453.875C209.295 453.875 207.791 454.461 207.81 455.555C207.791 456.609 209.295 457.215 211.892 457.195C214.509 457.215 215.974 456.609 215.994 455.555C215.974 454.461 214.509 453.875 211.892 453.875ZM239.723 441.883V447.879H234.684V449.91H241.755V451.414H225.798V449.91H232.848V447.879H227.829V441.883H239.723ZM229.645 443.348V446.395H237.888V443.348H229.645ZM239.802 453.074V458.66H237.927V454.539H227.575V453.074H239.802ZM249.752 444.266C249.752 446.473 251.334 448.641 253.971 449.539L253.014 450.984C251.051 450.301 249.596 448.904 248.834 447.176C248.073 449.1 246.539 450.643 244.459 451.375L243.502 449.91C246.198 448.992 247.858 446.648 247.858 444.285V443.797H244.069V442.293H253.502V443.797H249.752V444.266ZM258.073 452.508V458.66H256.217V454.012H246.217V452.508H258.073ZM258.073 441.16V451.629H256.217V447.137H252.975V445.613H256.217V441.16H258.073Z" fill="#40424D"/>
<circle cx="344.5" cy="654" r="160" fill="#EEF7FC"/>
<path d="M504.5 654C504.5 694.262 489.321 733.043 461.992 762.608C434.662 792.173 397.191 810.348 357.053 813.507C316.916 816.666 277.063 804.576 245.445 779.651C213.827 754.725 192.768 718.795 186.47 679.03C180.172 639.264 189.097 598.585 211.465 565.109C233.833 531.633 268 507.82 307.149 498.421C346.298 489.022 387.551 494.728 422.679 514.401C457.807 534.073 484.228 566.266 496.669 604.557L344.5 654H504.5Z" fill="#E6F3FA"/>
<path d="M504.5 654C504.5 692.096 490.907 728.943 466.165 757.912C441.423 786.88 407.157 806.071 369.53 812.03C331.902 817.99 293.383 810.328 260.9 790.422C228.418 770.517 204.103 739.675 192.331 703.443C180.558 667.211 182.1 627.967 196.679 592.771C211.258 557.574 237.917 528.734 271.862 511.439C305.806 494.144 344.807 489.527 381.851 498.421C418.895 507.314 451.55 529.134 473.943 559.954L344.5 654H504.5Z" fill="#CBE6F5"/>
<path d="M504.5 654C504.5 683.508 496.34 712.44 480.922 737.6C465.505 762.759 443.43 783.165 417.138 796.561C390.847 809.957 361.363 815.822 331.947 813.507C302.53 811.192 274.326 800.787 250.454 783.443C226.582 766.099 207.971 742.491 196.679 715.229C185.387 687.968 181.854 658.115 186.47 628.971C191.086 599.826 203.671 572.526 222.835 550.088C241.999 527.651 266.994 510.949 295.057 501.831L344.5 654H504.5Z" fill="#56AFDF"/>
<path d="M283.312 746.462C280.695 746.442 277.961 744.899 277.961 739.665C277.961 734.743 280.09 731.931 283.488 731.931C286.086 731.931 287.902 733.552 288.234 735.798H286.105C285.832 734.646 284.914 733.806 283.488 733.806C281.301 733.806 280.031 735.72 280.031 738.903H280.188C280.949 737.712 282.277 736.989 283.82 736.989C286.34 736.989 288.371 738.923 288.371 741.638C288.371 744.372 286.359 746.482 283.312 746.462ZM283.293 744.665C285.012 744.665 286.281 743.337 286.281 741.677C286.281 740.056 285.051 738.747 283.352 738.747C281.613 738.747 280.305 740.114 280.285 741.696C280.305 743.259 281.555 744.665 283.293 744.665ZM296.173 746.462C293.556 746.442 290.822 744.899 290.822 739.665C290.822 734.743 292.951 731.931 296.349 731.931C298.947 731.931 300.763 733.552 301.095 735.798H298.966C298.693 734.646 297.775 733.806 296.349 733.806C294.162 733.806 292.892 735.72 292.892 738.903H293.048C293.81 737.712 295.138 736.989 296.681 736.989C299.201 736.989 301.232 738.923 301.232 741.638C301.232 744.372 299.22 746.482 296.173 746.462ZM296.154 744.665C297.873 744.665 299.142 743.337 299.142 741.677C299.142 740.056 297.912 738.747 296.212 738.747C294.474 738.747 293.166 740.114 293.146 741.696C293.166 743.259 294.416 744.665 296.154 744.665ZM304.659 746.403C303.898 746.403 303.253 745.778 303.273 745.017C303.253 744.255 303.898 743.63 304.659 743.63C305.402 743.63 306.046 744.255 306.046 745.017C306.046 745.778 305.402 746.403 304.659 746.403ZM309.063 746.267L315.372 734.079V733.962H308.087V732.126H317.598V734.04L311.309 746.267H309.063ZM323.409 738.845C321.475 738.864 320.42 737.419 320.44 735.329C320.42 733.259 321.514 731.833 323.409 731.833C325.342 731.833 326.377 733.259 326.377 735.329C326.377 737.439 325.303 738.864 323.409 738.845ZM323.409 737.478C324.327 737.478 324.756 736.618 324.756 735.329C324.756 734.06 324.346 733.2 323.409 733.2C322.51 733.22 322.041 734.06 322.041 735.329C322.041 736.618 322.491 737.478 323.409 737.478ZM332.334 746.56C330.401 746.56 329.346 745.134 329.366 743.044C329.346 740.954 330.459 739.528 332.334 739.528C334.268 739.528 335.303 740.954 335.303 743.044C335.303 745.134 334.229 746.56 332.334 746.56ZM332.334 745.173C333.252 745.173 333.682 744.314 333.682 743.044C333.682 741.755 333.272 740.896 332.334 740.896C331.436 740.915 330.967 741.774 330.967 743.044C330.967 744.314 331.436 745.173 332.334 745.173ZM322.041 746.267L331.748 732.126H333.526L323.819 746.267H322.041Z" fill="white"/>
<path d="M358.551 566.356V564.793L363.453 559.852C364.996 558.231 365.777 557.332 365.777 556.102C365.777 554.715 364.645 553.816 363.16 553.816C361.598 553.816 360.582 554.813 360.582 556.316H358.551C358.531 553.738 360.504 552.02 363.199 552.02C365.934 552.02 367.809 553.738 367.828 556.043C367.809 557.625 367.066 558.875 364.41 561.492L361.539 564.402V564.52H368.062V566.356H358.551ZM375.767 566.551C372.486 566.551 370.572 563.914 370.572 559.285C370.572 554.695 372.525 552.02 375.767 552.02C379.009 552.02 380.962 554.695 380.962 559.285C380.962 563.914 379.029 566.551 375.767 566.551ZM375.767 564.695C377.681 564.695 378.814 562.82 378.814 559.285C378.814 555.77 377.662 553.836 375.767 553.836C373.873 553.836 372.72 555.77 372.72 559.285C372.72 562.82 373.853 564.695 375.767 564.695ZM386.831 558.934C384.898 558.953 383.843 557.508 383.862 555.418C383.843 553.348 384.937 551.922 386.831 551.922C388.765 551.922 389.8 553.348 389.8 555.418C389.8 557.527 388.726 558.953 386.831 558.934ZM386.831 557.566C387.749 557.566 388.179 556.707 388.179 555.418C388.179 554.149 387.769 553.289 386.831 553.289C385.933 553.309 385.464 554.149 385.464 555.418C385.464 556.707 385.913 557.566 386.831 557.566ZM395.757 566.649C393.823 566.649 392.769 565.223 392.788 563.133C392.769 561.043 393.882 559.617 395.757 559.617C397.691 559.617 398.726 561.043 398.726 563.133C398.726 565.223 397.652 566.649 395.757 566.649ZM395.757 565.262C396.675 565.262 397.105 564.402 397.105 563.133C397.105 561.844 396.695 560.984 395.757 560.984C394.859 561.004 394.39 561.863 394.39 563.133C394.39 564.402 394.859 565.262 395.757 565.262ZM385.464 566.356L395.171 552.215H396.948L387.241 566.356H385.464Z" fill="#56AFDF"/>
<circle cx="604.5" cy="583.5" r="10" fill="#56AFDF"/>
<path d="M632.859 577.344V578.547H631.516V582.781C632.109 582.734 632.68 582.68 633.234 582.609L633.297 583.734C630.609 584.156 627.469 584.203 625.219 584.203L625.031 582.969L626.734 582.953V578.547H625.422V577.344H632.859ZM636.688 576.328V584.938H635.203V582.5H633.062V581.312H635.203V579.953H633.062V578.766H635.203V576.328H636.688ZM632 585.203C634.953 585.203 636.734 586.125 636.734 587.766C636.734 589.359 634.953 590.312 632 590.297C629.047 590.312 627.25 589.359 627.266 587.766C627.25 586.125 629.047 585.203 632 585.203ZM632 586.359C629.938 586.359 628.734 586.859 628.734 587.766C628.734 588.656 629.938 589.156 632 589.156C634.047 589.156 635.266 588.656 635.266 587.766C635.266 586.859 634.047 586.359 632 586.359ZM628.172 582.938C628.805 582.922 629.445 582.898 630.094 582.859V578.547H628.172V582.938ZM651.976 587.328V588.547H639.164V587.328H644.773V584H646.242V587.328H651.976ZM646.273 578.281C646.273 580.5 648.711 582.578 651.414 583.031L650.773 584.25C648.507 583.797 646.422 582.398 645.492 580.469C644.57 582.391 642.507 583.812 640.257 584.25L639.601 583.031C642.289 582.578 644.711 580.5 644.711 578.281V577.219H646.273V578.281ZM661.507 576.797C663.616 576.812 665.163 578.109 665.179 579.938C665.163 581.781 663.616 583.062 661.507 583.062C659.382 583.062 657.819 581.781 657.819 579.938C657.819 578.109 659.382 576.812 661.507 576.797ZM661.507 578.047C660.21 578.031 659.257 578.797 659.272 579.938C659.257 581.094 660.21 581.859 661.507 581.859C662.788 581.859 663.741 581.094 663.741 579.938C663.741 578.797 662.788 578.031 661.507 578.047ZM669.147 576.328V583.453H667.663V576.328H669.147ZM669.147 584.094V587.625H661.429V588.969H669.616V590.156H659.991V586.516H667.679V585.281H659.944V584.094H669.147ZM676.514 578.562C676.514 580.406 677.796 582.109 679.889 582.797L679.092 583.969C677.561 583.43 676.413 582.336 675.811 580.953C675.194 582.523 674.007 583.75 672.374 584.359L671.577 583.172C673.764 582.391 675.03 580.531 675.046 578.438V577.062H676.514V578.562ZM682.686 576.328V579.844H684.717V581.094H682.686V584.781H681.202V576.328H682.686ZM678.171 585.109C681.046 585.109 682.811 586.062 682.811 587.703C682.811 589.359 681.046 590.312 678.171 590.297C675.264 590.312 673.467 589.359 673.467 587.703C673.467 586.062 675.264 585.109 678.171 585.109ZM678.171 586.281C676.139 586.281 674.936 586.812 674.952 587.703C674.936 588.625 676.139 589.125 678.171 589.141C680.186 589.125 681.358 588.625 681.358 587.703C681.358 586.812 680.186 586.281 678.171 586.281ZM693.631 577.828V578.688C693.631 579.859 693.631 581.672 693.225 584.172L691.756 584.062C692.108 581.82 692.147 580.203 692.162 579.031H686.475V577.828H693.631ZM690.037 581.828V586.016C691.53 585.969 693.045 585.867 694.444 585.688L694.522 586.797C691.6 587.266 688.35 587.328 685.866 587.312L685.694 586.109C686.569 586.102 687.545 586.094 688.569 586.062V581.828H690.037ZM696.741 576.328V582.109H698.881V583.375H696.741V590.328H695.241V576.328H696.741ZM715.115 576.328V581.75H717.365V582.969H715.115V590.359H713.631V576.328H715.115ZM711.349 577.672V578.875H706.287V585.641C708.638 585.633 710.404 585.531 712.396 585.172L712.584 586.422C710.396 586.812 708.537 586.891 705.927 586.875H704.802V577.672H711.349ZM731.154 584.016V585.219H718.341V584.016H731.154ZM729.841 588.828V590.031H720.013V586.219H721.497V588.828H729.841ZM729.544 576.75V580.344H721.451V581.719H729.826V582.859H719.982V579.266H728.06V577.922H719.951V576.75H729.544ZM748.403 576.328V583.453H746.919V580.781H744.012V579.578H746.919V576.328H748.403ZM743.887 576.953C743.887 580.484 741.512 582.781 737.45 583.781L736.934 582.578C740.208 581.812 742.044 580.227 742.294 578.172H737.684V576.953H743.887ZM748.403 584.047V587.594H740.747V589H748.825V590.188H739.278V586.469H746.919V585.219H739.247V584.047H748.403ZM766.777 576.344V584.625H765.293V582.922H761.762V581.703H765.293V580H761.902C761.004 582.25 758.902 583.836 755.871 584.703L755.277 583.547C758.59 582.594 760.527 580.82 760.793 578.562H755.996V577.344H762.402C762.402 577.859 762.348 578.359 762.262 578.828H765.293V576.344H766.777ZM762.168 584.781C764.996 584.781 766.856 585.812 766.871 587.516C766.856 589.219 764.996 590.266 762.168 590.266C759.293 590.266 757.449 589.219 757.449 587.516C757.449 585.812 759.293 584.781 762.168 584.781ZM762.168 585.953C760.168 585.953 758.918 586.516 758.918 587.516C758.918 588.5 760.168 589.078 762.168 589.078C764.137 589.078 765.371 588.5 765.387 587.516C765.371 586.516 764.137 585.953 762.168 585.953ZM780.926 576.328V584.812H779.441V581.766H777.254V580.531H779.441V576.328H780.926ZM780.926 585.5V590.156H771.691V585.5H780.926ZM773.16 586.672V588.953H779.473V586.672H773.16ZM777.473 577.719V578.906H769.269V577.719H772.644V576.203H774.113V577.719H777.473ZM773.379 579.547C775.301 579.547 776.66 580.578 776.66 582.047C776.66 583.562 775.301 584.547 773.379 584.562C771.457 584.547 770.082 583.562 770.082 582.047C770.082 580.578 771.457 579.547 773.379 579.547ZM773.379 580.688C772.254 580.672 771.504 581.219 771.504 582.047C771.504 582.906 772.254 583.438 773.379 583.438C774.488 583.438 775.238 582.906 775.238 582.047C775.238 581.219 774.488 580.672 773.379 580.688ZM794.308 576.328V582H796.558V583.234H794.308V590.328H792.839V576.328H794.308ZM791.621 578.516V579.734H783.324V578.516H786.777V576.516H788.261V578.516H791.621ZM787.527 580.766C789.527 580.766 790.996 582.109 791.011 584.016C790.996 585.938 789.527 587.266 787.527 587.281C785.511 587.266 784.042 585.938 784.042 584.016C784.042 582.109 785.511 580.766 787.527 580.766ZM787.527 581.984C786.339 581.984 785.449 582.812 785.464 584.016C785.449 585.234 786.339 586.047 787.527 586.031C788.714 586.047 789.589 585.234 789.589 584.016C789.589 582.812 788.714 581.984 787.527 581.984ZM809.206 576.328V590.359H807.738V582.828H805.175V581.594H807.738V576.328H809.206ZM804.347 577.594V582.594H799.55V585.781C801.784 585.773 803.503 585.695 805.456 585.344L805.581 586.562C803.488 586.938 801.644 587.016 799.175 587.031H798.066V581.391H802.909V578.797H798.034V577.594H804.347Z" fill="#525666"/>
<circle cx="604.5" cy="630.5" r="10" fill="#CBE6F5"/>
<path d="M629.328 627.125C629.328 629.453 630.281 631.797 632.188 632.812L631.312 633.984C629.992 633.242 629.094 631.914 628.609 630.328C628.086 632.062 627.125 633.547 625.766 634.344L624.828 633.266C626.828 632.094 627.891 629.609 627.891 627.219V624.609H629.328V627.125ZM637.062 623.328V637.328H635.641V630.109H633.953V636.641H632.531V623.594H633.953V628.906H635.641V623.328H637.062ZM651.961 630.422V631.625H639.148V630.422H644.82V629.25H640.789V625.844H648.867V624.75H640.757V623.594H650.351V626.938H642.257V628.094H650.632V629.25H646.289V630.422H651.961ZM642.32 632.266V633.484H648.898V632.266H650.367V637.156H640.836V632.266H642.32ZM642.32 635.984H648.898V634.625H642.32V635.984ZM664.64 624.672V626.047C664.64 627.781 664.64 629.719 664.109 632.578L662.609 632.422C663.156 629.719 663.156 627.734 663.156 626.047V625.875H654.656V624.672H664.64ZM666.077 634.203V635.438H653.312V634.203H658.171V629.266H659.64V634.203H666.077ZM678.671 624.359V630.656H672.233V624.359H678.671ZM673.686 625.562V629.469H677.202V625.562H673.686ZM682.686 623.328V627.047H684.717V628.297H682.686V632.609H681.202V623.328H682.686ZM679.092 632.344C679.077 634.203 681.077 635.688 683.733 636.094L683.139 637.266C681.014 636.898 679.217 635.859 678.374 634.359C677.507 635.859 675.702 636.898 673.577 637.266L672.999 636.094C675.624 635.688 677.624 634.203 677.624 632.344V631.938H679.092V632.344ZM690.694 632.578C690.694 633.781 691.287 635.055 692.553 635.812C693.842 634.992 694.475 633.648 694.475 632.578V631.906H695.928V632.578C695.928 634.031 696.881 635.438 698.709 636.031L697.975 637.125C696.592 636.648 695.655 635.719 695.162 634.562C694.717 635.695 693.881 636.719 692.6 637.25C691.256 636.742 690.405 635.75 689.975 634.609C689.467 635.711 688.545 636.641 687.225 637.125L686.475 636.031C688.272 635.391 689.241 633.938 689.256 632.578V631.906H690.694V632.578ZM697.444 623.344V631.312H695.959V623.344H697.444ZM689.85 624.109C691.991 624.109 693.569 625.469 693.569 627.422C693.569 629.359 691.991 630.703 689.85 630.703C687.709 630.703 686.116 629.359 686.116 627.422C686.116 625.469 687.709 624.109 689.85 624.109ZM689.85 625.375C688.522 625.359 687.569 626.188 687.569 627.422C687.569 628.641 688.522 629.469 689.85 629.469C691.162 629.469 692.116 628.641 692.116 627.422C692.116 626.188 691.162 625.359 689.85 625.375ZM711.311 627.422V628.609H701.67V623.828H703.139V627.422H711.311ZM712.779 630.375V631.562H699.967V630.375H712.779ZM711.404 635.781V637H701.561V632.891H703.045V635.781H711.404ZM724.732 623.625C727.81 623.625 729.732 624.625 729.732 626.312C729.732 627.969 727.81 628.953 724.732 628.953C721.669 628.953 719.732 627.969 719.732 626.312C719.732 624.625 721.669 623.625 724.732 623.625ZM724.732 624.797C722.576 624.797 721.247 625.344 721.263 626.312C721.247 627.25 722.576 627.781 724.732 627.797C726.872 627.781 728.201 627.25 728.201 626.312C728.201 625.344 726.872 624.797 724.732 624.797ZM729.56 632.484V637.156H719.888V632.484H729.56ZM721.357 633.672V635.953H728.122V633.672H721.357ZM731.122 630.031V631.234H718.357V630.031H731.122ZM737.599 625.344C737.583 627.281 738.911 629.047 741.067 629.766L740.317 630.938C738.7 630.367 737.482 629.227 736.849 627.766C736.224 629.336 734.997 630.578 733.333 631.172L732.583 630.016C734.771 629.234 736.083 627.344 736.083 625.344V624H737.599V625.344ZM744.114 632.406V637.328H742.63V633.609H734.63V632.406H744.114ZM744.114 623.328V631.734H742.63V623.328H744.114ZM762.551 632.328V637.344H761.067V633.516H753.067V632.328H762.551ZM762.551 623.328V631.578H761.067V628H758.02V630.703H751.52V624.359H758.02V626.797H761.067V623.328H762.551ZM752.989 625.562V629.516H756.567V625.562H752.989ZM771.402 624.172C774.34 624.172 776.574 625.719 776.574 628.078C776.574 630.438 774.34 632 771.402 631.984C768.465 632 766.246 630.438 766.246 628.078C766.246 625.719 768.465 624.172 771.402 624.172ZM771.402 625.375C769.262 625.359 767.652 626.453 767.668 628.078C767.652 629.719 769.262 630.766 771.402 630.766C773.543 630.766 775.137 629.719 775.137 628.078C775.137 626.453 773.543 625.359 771.402 625.375ZM777.84 634.281V635.516H765.027V634.281H777.84ZM790.832 623.328V637.359H789.363V629.828H786.801V628.594H789.363V623.328H790.832ZM785.973 624.594V629.594H781.176V632.781C783.41 632.773 785.129 632.695 787.082 632.344L787.207 633.562C785.113 633.938 783.269 634.016 780.801 634.031H779.691V628.391H784.535V625.797H779.66V624.594H785.973Z" fill="#525666"/>
<circle cx="604.5" cy="677.5" r="10" fill="#E6F3FA"/>
<path d="M630.391 671.734C630.375 673.312 631.656 674.656 633.844 675.156L633.156 676.328C631.492 675.898 630.266 675.008 629.641 673.781C629.008 675.141 627.75 676.172 626.047 676.641L625.312 675.484C627.531 674.906 628.859 673.422 628.859 671.734V670.922H630.391V671.734ZM636.656 670.344V684.328H635.188V670.344H636.656ZM625 677.766C627.609 677.781 631.156 677.734 634.219 677.312L634.328 678.375C633.047 678.617 631.727 678.766 630.438 678.844V683.891H628.953V678.938C627.602 678.992 626.32 679 625.203 679L625 677.766ZM650.82 670.328V684.359H649.351V676.828H646.789V675.594H649.351V670.328H650.82ZM645.961 671.594V676.594H641.164V679.781C643.398 679.773 645.117 679.695 647.07 679.344L647.195 680.562C645.101 680.938 643.257 681.016 640.789 681.031H639.679V675.391H644.523V672.797H639.648V671.594H645.961Z" fill="#525666"/>
<circle cx="604.5" cy="724.5" r="10" fill="#EEF7FC"/>
<path d="M632 718.359V724.656H625.562V718.359H632ZM627.016 719.562V723.469H630.531V719.562H627.016ZM636.016 717.328V721.047H638.047V722.297H636.016V726.609H634.531V717.328H636.016ZM632.422 726.344C632.406 728.203 634.406 729.688 637.062 730.094L636.469 731.266C634.344 730.898 632.547 729.859 631.703 728.359C630.836 729.859 629.031 730.898 626.906 731.266L626.328 730.094C628.953 729.688 630.953 728.203 630.953 726.344V725.938H632.422V726.344ZM644.023 726.578C644.023 727.781 644.617 729.055 645.882 729.812C647.172 728.992 647.804 727.648 647.804 726.578V725.906H649.257V726.578C649.257 728.031 650.211 729.438 652.039 730.031L651.304 731.125C649.922 730.648 648.984 729.719 648.492 728.562C648.047 729.695 647.211 730.719 645.929 731.25C644.586 730.742 643.734 729.75 643.304 728.609C642.797 729.711 641.875 730.641 640.554 731.125L639.804 730.031C641.601 729.391 642.57 727.938 642.586 726.578V725.906H644.023V726.578ZM650.773 717.344V725.312H649.289V717.344H650.773ZM643.179 718.109C645.32 718.109 646.898 719.469 646.898 721.422C646.898 723.359 645.32 724.703 643.179 724.703C641.039 724.703 639.445 723.359 639.445 721.422C639.445 719.469 641.039 718.109 643.179 718.109ZM643.179 719.375C641.851 719.359 640.898 720.188 640.898 721.422C640.898 722.641 641.851 723.469 643.179 723.469C644.492 723.469 645.445 722.641 645.445 721.422C645.445 720.188 644.492 719.359 643.179 719.375ZM664.64 721.422V722.609H654.999V717.828H656.468V721.422H664.64ZM666.109 724.375V725.562H653.296V724.375H666.109ZM664.734 729.781V731H654.89V726.891H656.374V729.781H664.734ZM678.061 717.625C681.139 717.625 683.061 718.625 683.061 720.312C683.061 721.969 681.139 722.953 678.061 722.953C674.999 722.953 673.061 721.969 673.061 720.312C673.061 718.625 674.999 717.625 678.061 717.625ZM678.061 718.797C675.905 718.797 674.577 719.344 674.592 720.312C674.577 721.25 675.905 721.781 678.061 721.797C680.202 721.781 681.53 721.25 681.53 720.312C681.53 719.344 680.202 718.797 678.061 718.797ZM682.889 726.484V731.156H673.217V726.484H682.889ZM674.686 727.672V729.953H681.452V727.672H674.686ZM684.452 724.031V725.234H671.686V724.031H684.452ZM690.928 719.344C690.912 721.281 692.241 723.047 694.397 723.766L693.647 724.938C692.03 724.367 690.811 723.227 690.178 721.766C689.553 723.336 688.327 724.578 686.662 725.172L685.912 724.016C688.1 723.234 689.412 721.344 689.412 719.344V718H690.928V719.344ZM697.444 726.406V731.328H695.959V727.609H687.959V726.406H697.444ZM697.444 717.328V725.734H695.959V717.328H697.444ZM707.779 718.828V719.688C707.779 720.859 707.779 722.672 707.373 725.172L705.904 725.062C706.256 722.82 706.295 721.203 706.311 720.031H700.623V718.828H707.779ZM704.186 722.828V727.016C705.678 726.969 707.193 726.867 708.592 726.688L708.67 727.797C705.748 728.266 702.498 728.328 700.014 728.312L699.842 727.109C700.717 727.102 701.693 727.094 702.717 727.062V722.828H704.186ZM710.889 717.328V723.109H713.029V724.375H710.889V731.328H709.389V717.328H710.889ZM730.404 718.828V720.016H719.013V718.828H723.997V717.266H725.466V718.828H730.404ZM731.169 726.281V727.484H727.935V731.344H726.435V727.484H723.06V731.344H721.576V727.484H718.357V726.281H731.169ZM724.732 720.734C727.638 720.734 729.388 721.562 729.388 723.078C729.388 724.578 727.638 725.422 724.732 725.422C721.81 725.422 720.06 724.578 720.076 723.078C720.06 721.562 721.81 720.734 724.732 720.734ZM724.732 721.859C722.716 721.875 721.607 722.281 721.607 723.078C721.607 723.859 722.716 724.281 724.732 724.281C726.732 724.281 727.841 723.859 727.857 723.078C727.841 722.281 726.732 721.875 724.732 721.859ZM737.599 719.344C737.583 721.281 738.911 723.047 741.067 723.766L740.317 724.938C738.7 724.367 737.482 723.227 736.849 721.766C736.224 723.336 734.997 724.578 733.333 725.172L732.583 724.016C734.771 723.234 736.083 721.344 736.083 719.344V718H737.599V719.344ZM744.114 726.406V731.328H742.63V727.609H734.63V726.406H744.114ZM744.114 717.328V725.734H742.63V717.328H744.114ZM749.169 728.922L747.919 733.234H746.591L747.419 728.922H749.169ZM759.606 721.125C759.606 723.453 760.559 725.797 762.465 726.812L761.59 727.984C760.27 727.242 759.371 725.914 758.887 724.328C758.363 726.062 757.402 727.547 756.043 728.344L755.106 727.266C757.106 726.094 758.168 723.609 758.168 721.219V718.609H759.606V721.125ZM767.34 717.328V731.328H765.918V724.109H764.231V730.641H762.809V717.594H764.231V722.906H765.918V717.328H767.34ZM782.254 728.406V729.656H769.441V728.406H775.082V725.953H771.004V721.5H779.223V719.531H770.973V718.312H780.691V722.688H772.473V724.734H781.019V725.953H776.551V728.406H782.254ZM796.386 724.344V725.547H790.839V728.266H789.339V725.547H783.574V724.344H796.386ZM794.964 729.812V731.031H785.183V726.922H786.667V729.812H794.964ZM789.964 717.656C792.98 717.656 794.933 718.75 794.933 720.5C794.933 722.25 792.98 723.328 789.964 723.328C786.964 723.328 784.98 722.25 784.98 720.5C784.98 718.75 786.964 717.656 789.964 717.656ZM789.964 718.844C787.917 718.844 786.558 719.469 786.574 720.5C786.558 721.516 787.917 722.125 789.964 722.125C792.027 722.125 793.371 721.516 793.371 720.5C793.371 719.469 792.027 718.844 789.964 718.844ZM809.057 718.562V725.094H802.511V718.562H809.057ZM803.964 719.766V723.922H807.604V719.766H803.964ZM812.964 717.312V721.5H814.995V722.75H812.964V727.578H811.479V717.312H812.964ZM813.557 729.828V731.031H804.089V726.594H805.573V729.828H813.557ZM827.112 717.344V720.453H829.159V721.688H827.112V725.234H825.628V717.344H827.112ZM827.112 725.969V731.141H818.143V725.969H827.112ZM819.596 727.125V729.953H825.674V727.125H819.596ZM818.237 718.031V723.047C820.135 723.031 822.12 722.867 824.268 722.438L824.456 723.656C822.096 724.141 819.956 724.266 817.893 724.281H816.753V718.031H818.237ZM836.635 718.172C839.572 718.172 841.807 719.719 841.807 722.078C841.807 724.438 839.572 726 836.635 725.984C833.697 726 831.479 724.438 831.479 722.078C831.479 719.719 833.697 718.172 836.635 718.172ZM836.635 719.375C834.494 719.359 832.885 720.453 832.901 722.078C832.885 723.719 834.494 724.766 836.635 724.766C838.776 724.766 840.369 723.719 840.369 722.078C840.369 720.453 838.776 719.359 836.635 719.375ZM843.072 728.281V729.516H830.26V728.281H843.072ZM857.221 728.406V729.656H844.408V728.406H850.049V725.953H845.971V721.5H854.189V719.531H845.939V718.312H855.658V722.688H847.439V724.734H855.986V725.953H851.518V728.406H857.221Z" fill="#525666"/>
<rect x="899.5" y="359" width="77" height="54" rx="27" fill="#F7F8F8"/>
<path d="M930.456 388.254H932.78L933.991 389.836C934.782 388.996 935.261 387.678 935.261 385.93C935.261 382.707 933.64 380.949 931.335 380.949C929.03 380.949 927.409 382.707 927.409 385.93C927.409 389.152 929.03 390.91 931.335 390.91C931.706 390.91 932.058 390.861 932.39 390.773L930.456 388.254ZM937.82 385.93C937.82 388.498 936.941 390.471 935.534 391.711L937.488 394.23H935.007L933.835 392.727C933.073 393.039 932.234 393.195 931.335 393.195C927.624 393.195 924.851 390.48 924.851 385.93C924.851 381.359 927.624 378.664 931.335 378.664C935.046 378.664 937.82 381.359 937.82 385.93ZM940.114 390.363V388.332L946.227 378.859H949.391V388.273H951.247V390.363H949.391V393H946.97V390.363H940.114ZM942.712 388.273H947.009V381.75H946.852L942.712 388.176V388.273Z" fill="#56AFDF"/>
<path d="M915.184 441.16V458.66H913.426V441.16H915.184ZM911.492 441.609V457.801H909.734V449.676H906.316C905.271 451.707 903.611 453.484 901.141 454.93L900.086 453.602C903.797 451.395 905.584 448.455 905.906 444.852H900.906V443.328H907.742C907.732 445.037 907.498 446.668 906.961 448.191H909.734V441.609H911.492ZM926.716 443.641C926.716 446.492 929.763 449.188 933.123 449.793L932.263 451.336C929.47 450.73 926.892 448.895 925.759 446.434C924.607 448.875 922.039 450.711 919.236 451.336L918.416 449.793C921.736 449.168 924.763 446.492 924.763 443.641V442.312H926.716V443.641ZM933.845 454.812V456.355H917.83V454.812H933.845ZM949.714 450.477V451.961H937.527V442.605H949.538V444.109H939.402V446.473H949.167V447.938H939.402V450.477H949.714ZM951.53 454.93V456.453H935.515V454.93H951.53ZM966.833 441.16V448.25H969.645V449.793H966.833V458.66H964.997V441.16H966.833ZM963.473 443.895V445.418H953.102V443.895H957.419V441.395H959.274V443.895H963.473ZM958.356 446.707C960.856 446.707 962.692 448.387 962.712 450.77C962.692 453.172 960.856 454.832 958.356 454.852C955.837 454.832 954.001 453.172 954.001 450.77C954.001 448.387 955.837 446.707 958.356 446.707ZM958.356 448.23C956.872 448.23 955.759 449.266 955.778 450.77C955.759 452.293 956.872 453.309 958.356 453.289C959.841 453.309 960.934 452.293 960.934 450.77C960.934 449.266 959.841 448.23 958.356 448.23ZM986.881 451.102V452.645H979.733V458.66H977.916V452.645H970.866V451.102H986.881ZM978.834 441.824C982.526 441.824 985.065 443.328 985.065 445.711C985.065 448.074 982.526 449.559 978.834 449.559C975.123 449.559 972.604 448.074 972.604 445.711C972.604 443.328 975.123 441.824 978.834 441.824ZM978.834 443.309C976.237 443.328 974.498 444.227 974.518 445.711C974.498 447.176 976.237 448.074 978.834 448.074C981.432 448.074 983.17 447.176 983.17 445.711C983.17 444.227 981.432 443.328 978.834 443.309ZM997.457 443.641C997.457 446.492 1000.5 449.188 1003.86 449.793L1003 451.336C1000.21 450.73 997.633 448.895 996.5 446.434C995.348 448.875 992.779 450.711 989.977 451.336L989.156 449.793C992.477 449.168 995.504 446.492 995.504 443.641V442.312H997.457V443.641ZM1004.59 454.812V456.355H988.57V454.812H1004.59ZM1022.25 449.188V450.613H1006.24V449.188H1022.25ZM1020.28 451.844V455.691H1010.01V457.137H1020.83V458.445H1008.15V454.461H1018.44V453.172H1008.13V451.844H1020.28ZM1020.24 441.609V445.398H1010.12V446.727H1020.53V448.035H1008.29V444.168H1018.38V442.918H1008.25V441.609H1020.24ZM1044.28 441.16V458.66H1042.5V441.16H1044.28ZM1040.77 441.492V457.801H1039.01V452.156H1036.47C1035.84 453.895 1034.68 454.9 1033.19 454.891C1030.9 454.91 1029.42 452.508 1029.42 448.719C1029.42 444.93 1030.9 442.547 1033.19 442.566C1034.68 442.557 1035.83 443.553 1036.47 445.281H1039.01V441.492H1040.77ZM1033.19 444.305C1031.9 444.305 1031.12 445.926 1031.12 448.719C1031.12 451.512 1031.9 453.133 1033.19 453.133C1034.48 453.133 1035.3 451.512 1035.3 448.719C1035.3 445.926 1034.48 444.305 1033.19 444.305ZM1036.86 446.785C1036.95 447.381 1037 448.025 1037 448.719C1037 449.402 1036.95 450.047 1036.86 450.633H1039.01V446.785H1036.86ZM1063.14 443.719V445.242H1060.66V447.469H1063.14V449.031H1060.66V451.531H1058.8V441.16H1060.66V443.719H1063.14ZM1060.66 452.312V458.66H1058.8V453.816H1049.1V452.312H1060.66ZM1051.83 442.176C1054.51 442.176 1056.48 443.895 1056.5 446.355C1056.48 448.816 1054.51 450.535 1051.83 450.535C1049.15 450.535 1047.16 448.816 1047.18 446.355C1047.16 443.895 1049.15 442.176 1051.83 442.176ZM1051.83 443.758C1050.19 443.758 1048.98 444.793 1049 446.355C1048.98 447.938 1050.19 448.973 1051.83 448.953C1053.47 448.973 1054.68 447.938 1054.68 446.355C1054.68 444.793 1053.47 443.758 1051.83 443.758ZM1078.34 441.102V445.203H1080.9V446.727H1078.34V450.73H1076.49V441.102H1078.34ZM1078.34 451.551V455.613H1068.89V457.078H1078.95V458.484H1067.07V454.305H1076.51V452.938H1067.04V451.551H1078.34ZM1075.04 442.645V444.109H1064.61V442.645H1068.91V441.004H1070.77V442.645H1075.04ZM1069.83 444.773C1072.39 444.773 1074.07 445.867 1074.07 447.645C1074.07 449.422 1072.39 450.496 1069.83 450.496C1067.25 450.496 1065.57 449.422 1065.57 447.645C1065.57 445.867 1067.25 444.773 1069.83 444.773ZM1069.83 446.102C1068.32 446.102 1067.35 446.707 1067.37 447.645C1067.35 448.582 1068.32 449.148 1069.83 449.148C1071.33 449.148 1072.31 448.582 1072.33 447.645C1072.31 446.707 1071.33 446.102 1069.83 446.102ZM1099.2 441.512V448.191H1101.06V441.16H1102.82V458.66H1101.06V449.715H1099.2V457.82H1097.48V441.512H1099.2ZM1091.8 443.328V444.852H1089.71V452.625C1090.33 452.596 1091.06 452.518 1091.86 452.312L1092.01 453.875C1090.61 454.188 1089.53 454.207 1088.73 454.207H1088.01V443.328H1091.8ZM1096.41 443.328V444.852H1094.2V452.625C1094.95 452.605 1095.77 452.527 1096.7 452.273L1096.86 453.836C1095.45 454.188 1094.3 454.207 1093.26 454.207H1092.52V443.328H1096.41ZM1124.16 441.16V448.133H1126.88V449.676H1124.16V458.641H1122.31V441.16H1124.16ZM1119.59 442.996C1119.57 448.055 1117.35 452.566 1111.58 455.418L1110.55 453.973C1114.93 451.785 1117.32 448.621 1117.7 444.539H1111.43V442.996H1119.59ZM1134.33 444.383C1134.33 446.609 1135.87 448.641 1138.53 449.48L1137.65 450.926C1135.66 450.291 1134.2 448.973 1133.43 447.312C1132.67 449.227 1131.13 450.74 1129.04 451.473L1128.08 449.988C1130.81 449.09 1132.45 446.824 1132.47 444.402V443.914H1128.62V442.41H1138.1V443.914H1134.33V444.383ZM1141.96 441.16V445.496H1144.5V447.02H1141.96V451.668H1140.11V441.16H1141.96ZM1136.32 452.098C1139.93 452.098 1142.12 453.289 1142.12 455.34C1142.12 457.41 1139.93 458.641 1136.32 458.621C1132.67 458.641 1130.44 457.41 1130.44 455.34C1130.44 453.289 1132.67 452.098 1136.32 452.098ZM1136.32 453.562C1133.78 453.562 1132.28 454.207 1132.3 455.34C1132.28 456.512 1133.78 457.156 1136.32 457.156C1138.84 457.156 1140.3 456.512 1140.3 455.34C1140.3 454.207 1138.84 453.562 1136.32 453.562ZM1167.14 449.266V450.77H1160.07V452.449C1163.28 452.625 1165.19 453.709 1165.19 455.535C1165.19 457.527 1162.92 458.641 1159.15 458.621C1155.34 458.641 1153.08 457.527 1153.08 455.535C1153.08 453.709 1154.98 452.625 1158.23 452.449V450.77H1151.18V449.266H1167.14ZM1159.15 453.855C1156.48 453.855 1154.95 454.461 1154.95 455.535C1154.95 456.59 1156.48 457.215 1159.15 457.195C1161.79 457.215 1163.33 456.59 1163.33 455.535C1163.33 454.461 1161.79 453.855 1159.15 453.855ZM1165.71 441.961V443.445H1160.4C1160.67 445.135 1163.13 446.57 1166.32 446.883L1165.66 448.348C1162.63 447.996 1160.12 446.717 1159.17 444.852C1158.19 446.717 1155.69 447.996 1152.67 448.348L1152.02 446.883C1155.17 446.57 1157.64 445.135 1157.9 443.445H1152.65V441.961H1165.71ZM1184.88 454.93V456.473H1168.87V454.93H1172.7V450.359C1171.26 449.568 1170.39 448.309 1170.39 446.746C1170.39 443.992 1173.09 442.176 1176.84 442.176C1180.61 442.176 1183.3 443.992 1183.3 446.746C1183.3 448.289 1182.46 449.529 1181.06 450.32V454.93H1184.88ZM1176.84 443.66C1174.08 443.66 1172.19 444.852 1172.19 446.746C1172.19 448.621 1174.08 449.852 1176.84 449.852C1179.57 449.852 1181.5 448.621 1181.5 446.746C1181.5 444.852 1179.57 443.66 1176.84 443.66ZM1174.53 454.93H1179.18V451.023C1178.47 451.209 1177.68 451.297 1176.84 451.297C1176.02 451.297 1175.24 451.209 1174.53 451.043V454.93ZM1200.19 441.16V448.25H1203V449.793H1200.19V458.66H1198.35V441.16H1200.19ZM1196.83 443.895V445.418H1186.46V443.895H1190.77V441.395H1192.63V443.895H1196.83ZM1191.71 446.707C1194.21 446.707 1196.05 448.387 1196.06 450.77C1196.05 453.172 1194.21 454.832 1191.71 454.852C1189.19 454.832 1187.35 453.172 1187.35 450.77C1187.35 448.387 1189.19 446.707 1191.71 446.707ZM1191.71 448.23C1190.23 448.23 1189.11 449.266 1189.13 450.77C1189.11 452.293 1190.23 453.309 1191.71 453.289C1193.19 453.309 1194.29 452.293 1194.29 450.77C1194.29 449.266 1193.19 448.23 1191.71 448.23ZM1219.28 441.16V458.66H1217.52V441.16H1219.28ZM1215.59 441.609V457.801H1213.83V449.676H1210.41C1209.37 451.707 1207.71 453.484 1205.23 454.93L1204.18 453.602C1207.89 451.395 1209.68 448.455 1210 444.852H1205V443.328H1211.84C1211.83 445.037 1211.59 446.668 1211.05 448.191H1213.83V441.609H1215.59ZM1232.56 444.52C1232.56 446.434 1233.79 448.367 1236.05 449.227L1235.08 450.652C1233.45 450.027 1232.3 448.836 1231.68 447.391C1231.03 449.021 1229.83 450.438 1228.14 451.16L1227.13 449.715C1229.49 448.68 1230.76 446.473 1230.76 444.52V442.254H1232.56V444.52ZM1242.13 441.18V451.941H1240.37V447.254H1238.32V451.395H1236.6V441.492H1238.32V445.73H1240.37V441.18H1242.13ZM1236.27 452.273C1239.92 452.273 1242.21 453.465 1242.23 455.457C1242.21 457.449 1239.92 458.641 1236.27 458.621C1232.62 458.641 1230.33 457.449 1230.35 455.457C1230.33 453.465 1232.62 452.273 1236.27 452.273ZM1236.27 453.699C1233.73 453.699 1232.17 454.344 1232.19 455.457C1232.17 456.57 1233.73 457.215 1236.27 457.195C1238.81 457.215 1240.35 456.57 1240.37 455.457C1240.35 454.344 1238.81 453.699 1236.27 453.699ZM1258.64 441.16V445.477H1261.18V447.039H1258.64V451.395H1256.79V441.16H1258.64ZM1253.8 442.234C1253.8 446.746 1250.75 449.891 1245.56 451.238L1244.79 449.812C1248.99 448.719 1251.48 446.502 1251.81 443.738H1245.63V442.234H1253.8ZM1258.64 452.156V458.66H1256.79V453.66H1247.08V452.156H1258.64ZM1276.33 441.18V446.805H1278.87V448.348H1276.33V454.266H1274.47V441.18H1276.33ZM1273.03 443.211V444.715H1262.6V443.211H1266.89V441.16H1268.75V443.211H1273.03ZM1267.81 445.555C1270.33 445.555 1272.05 446.863 1272.05 448.855C1272.05 450.848 1270.33 452.137 1267.81 452.137C1265.27 452.137 1263.55 450.848 1263.55 448.855C1263.55 446.863 1265.27 445.555 1267.81 445.555ZM1267.81 446.98C1266.33 446.98 1265.33 447.703 1265.35 448.855C1265.33 449.988 1266.33 450.691 1267.81 450.691C1269.3 450.691 1270.29 449.988 1270.31 448.855C1270.29 447.703 1269.3 446.98 1267.81 446.98ZM1277.07 456.785V458.289H1265.23V453.23H1267.09V456.785H1277.07ZM1300.13 441.18V454.07H1298.28V447.996H1294.65V446.453H1298.28V441.18H1300.13ZM1294.76 442.488C1294.74 447.059 1291.6 450.496 1286.58 452.117L1285.8 450.633C1289.69 449.373 1292.34 446.99 1292.73 444.031H1286.7V442.488H1294.76ZM1300.58 456.785V458.289H1288.86V452.742H1290.74V456.785H1300.58ZM1324.51 451.199V452.703H1317.36V458.641H1315.54V452.703H1308.49V451.199H1324.51ZM1322.5 442.098V448.973H1310.5V442.098H1322.5ZM1312.32 443.582V447.527H1320.64V443.582H1312.32ZM1340.79 441.16V453.094H1338.93V447.371H1335.51C1335.13 449.441 1333.36 450.848 1331.04 450.828C1328.4 450.848 1326.45 449.07 1326.45 446.57C1326.45 444.051 1328.4 442.332 1331.04 442.332C1333.39 442.332 1335.19 443.738 1335.53 445.867H1338.93V441.16H1340.79ZM1331.04 443.895C1329.4 443.895 1328.23 445.008 1328.23 446.57C1328.23 448.172 1329.4 449.266 1331.04 449.246C1332.62 449.266 1333.81 448.172 1333.81 446.57C1333.81 445.008 1332.62 443.895 1331.04 443.895ZM1336 452.43C1336 454.676 1338.5 456.59 1341.84 457.098L1341.1 458.562C1338.38 458.113 1336.09 456.756 1335.05 454.832C1333.98 456.736 1331.7 458.113 1328.95 458.562L1328.29 457.098C1331.53 456.57 1334.09 454.598 1334.11 452.43V451.805H1336V452.43ZM1358.39 441.18V453.895H1356.54V441.18H1358.39ZM1358.92 456.785V458.289H1346.95V452.605H1348.82V456.785H1358.92ZM1348.9 442.352C1351.54 442.352 1353.55 444.148 1353.55 446.688C1353.55 449.266 1351.54 451.043 1348.9 451.043C1346.27 451.043 1344.23 449.266 1344.23 446.688C1344.23 444.148 1346.27 442.352 1348.9 442.352ZM1348.9 443.973C1347.26 443.973 1346.05 445.086 1346.05 446.688C1346.05 448.328 1347.26 449.422 1348.9 449.422C1350.5 449.422 1351.73 448.328 1351.73 446.688C1351.73 445.086 1350.5 443.973 1348.9 443.973ZM1375.2 441.16V448.133H1377.92V449.676H1375.2V458.641H1373.35V441.16H1375.2ZM1370.63 442.996C1370.61 448.055 1368.38 452.566 1362.62 455.418L1361.59 453.973C1365.97 451.785 1368.36 448.621 1368.74 444.539H1362.47V442.996H1370.63ZM1395.27 454.93V456.473H1379.25V454.93H1383.08V450.359C1381.65 449.568 1380.78 448.309 1380.78 446.746C1380.78 443.992 1383.47 442.176 1387.22 442.176C1390.99 442.176 1393.69 443.992 1393.69 446.746C1393.69 448.289 1392.85 449.529 1391.44 450.32V454.93H1395.27ZM1387.22 443.66C1384.47 443.66 1382.57 444.852 1382.57 446.746C1382.57 448.621 1384.47 449.852 1387.22 449.852C1389.96 449.852 1391.89 448.621 1391.89 446.746C1391.89 444.852 1389.96 443.66 1387.22 443.66ZM1384.92 454.93H1389.57V451.023C1388.85 451.209 1388.06 451.297 1387.22 451.297C1386.4 451.297 1385.62 451.209 1384.92 451.043V454.93ZM1399.81 452.801C1399.83 450.242 1400.59 449.461 1401.88 448.66C1402.7 448.152 1403.33 447.449 1403.33 446.414C1403.33 445.184 1402.39 444.422 1401.22 444.422C1400.16 444.422 1399.15 445.066 1399.05 446.512H1396.94C1397.02 444.031 1398.89 442.664 1401.22 442.664C1403.75 442.664 1405.45 444.188 1405.45 446.414C1405.45 447.977 1404.71 449.031 1403.46 449.793C1402.29 450.496 1401.84 451.219 1401.8 452.801V452.918H1399.81V452.801ZM1400.88 457.137C1400.12 457.137 1399.48 456.512 1399.5 455.75C1399.48 454.988 1400.12 454.363 1400.88 454.363C1401.63 454.363 1402.27 454.988 1402.27 455.75C1402.27 456.512 1401.63 457.137 1400.88 457.137Z" fill="#40424D"/>
<circle cx="1059.5" cy="654" r="160" fill="#4D9EC9"/>
<path d="M1214.05 695.411C1203.85 733.463 1179.98 766.416 1146.99 787.959C1114.01 809.501 1074.24 818.118 1035.3 812.159C996.357 806.2 960.983 786.084 935.951 755.665C910.92 725.245 897.991 686.66 899.64 647.3C901.29 607.94 917.403 570.572 944.892 542.354C972.381 514.135 1009.31 497.05 1048.62 494.371C1087.92 491.691 1126.83 503.606 1157.9 527.832C1188.96 552.059 1210 586.894 1216.97 625.666L1059.5 654L1214.05 695.411Z" fill="#458CB2"/>
<path d="M1214.05 695.411C1204.75 730.125 1184.03 760.697 1155.23 782.201C1126.44 803.704 1091.24 814.886 1055.31 813.945C1019.38 813.004 984.821 799.996 957.19 777.015C929.558 754.034 910.469 722.42 902.996 687.266C895.524 652.112 900.105 615.467 916 583.234C931.896 551.001 958.18 525.059 990.618 509.586C1023.06 494.114 1059.76 490.014 1094.81 497.945C1129.86 505.877 1161.23 525.379 1183.84 553.309L1059.5 654L1214.05 695.411Z" fill="#EEF7FC"/>
<path d="M1214.05 695.411C1206.41 723.913 1191.04 749.748 1169.64 770.06C1148.23 790.372 1121.63 804.369 1092.77 810.504C1063.9 816.639 1033.91 814.672 1006.09 804.823C978.276 794.973 953.726 777.623 935.157 754.691C916.587 731.76 904.72 704.139 900.869 674.884C897.017 645.629 901.331 615.879 913.333 588.922C925.335 561.966 944.557 538.853 968.875 522.14C993.193 505.427 1021.66 495.764 1051.13 494.219L1059.5 654L1214.05 695.411Z" fill="#E6F3FA"/>
<path d="M1214.05 695.411C1208.61 715.707 1199.23 734.732 1186.44 751.402C1173.65 768.071 1157.7 782.058 1139.5 792.564C1121.3 803.07 1101.22 809.889 1080.38 812.631C1059.55 815.374 1038.38 813.986 1018.09 808.548C997.793 803.11 978.768 793.728 962.098 780.937C945.429 768.146 931.442 752.197 920.936 734C910.43 715.803 903.611 695.716 900.869 674.884C898.126 654.052 899.514 632.884 904.952 612.589L1059.5 654L1214.05 695.411Z" fill="#CBE6F5"/>
<path d="M1214.05 695.411C1204.19 732.209 1181.52 764.282 1150.12 785.86C1118.73 807.438 1080.66 817.106 1042.78 813.124C1004.89 809.141 969.664 791.771 943.44 764.137C917.216 736.503 901.713 700.418 899.719 662.374L1059.5 654L1214.05 695.411Z" fill="#56AFDF"/>
<path d="M999.438 742.246V740.508L1005.69 730.859H1008.34V740.43H1010.28V742.246H1008.34V745H1006.31V742.246H999.438ZM1001.7 740.43H1006.31V733.418H1006.16L1001.7 740.312V740.43ZM1017.96 745.195C1015.35 745.176 1012.61 743.633 1012.61 738.398C1012.61 733.477 1014.74 730.664 1018.14 730.664C1020.74 730.664 1022.55 732.285 1022.88 734.531H1020.76C1020.48 733.379 1019.56 732.539 1018.14 732.539C1015.95 732.539 1014.68 734.453 1014.68 737.637H1014.84C1015.6 736.445 1016.93 735.723 1018.47 735.723C1020.99 735.723 1023.02 737.656 1023.02 740.371C1023.02 743.105 1021.01 745.215 1017.96 745.195ZM1017.94 743.398C1019.66 743.398 1020.93 742.07 1020.93 740.41C1020.93 738.789 1019.7 737.48 1018 737.48C1016.26 737.48 1014.95 738.848 1014.94 740.43C1014.95 741.992 1016.2 743.398 1017.94 743.398ZM1026.45 745.137C1025.69 745.137 1025.04 744.512 1025.06 743.75C1025.04 742.988 1025.69 742.363 1026.45 742.363C1027.19 742.363 1027.84 742.988 1027.84 743.75C1027.84 744.512 1027.19 745.137 1026.45 745.137ZM1030.85 745L1037.16 732.812V732.695H1029.88V730.859H1039.39V732.773L1033.1 745H1030.85ZM1045.2 737.578C1043.26 737.598 1042.21 736.152 1042.23 734.062C1042.21 731.992 1043.3 730.566 1045.2 730.566C1047.13 730.566 1048.17 731.992 1048.17 734.062C1048.17 736.172 1047.09 737.598 1045.2 737.578ZM1045.2 736.211C1046.12 736.211 1046.55 735.352 1046.55 734.062C1046.55 732.793 1046.14 731.934 1045.2 731.934C1044.3 731.953 1043.83 732.793 1043.83 734.062C1043.83 735.352 1044.28 736.211 1045.2 736.211ZM1054.12 745.293C1052.19 745.293 1051.14 743.867 1051.15 741.777C1051.14 739.688 1052.25 738.262 1054.12 738.262C1056.06 738.262 1057.09 739.688 1057.09 741.777C1057.09 743.867 1056.02 745.293 1054.12 745.293ZM1054.12 743.906C1055.04 743.906 1055.47 743.047 1055.47 741.777C1055.47 740.488 1055.06 739.629 1054.12 739.629C1053.22 739.648 1052.76 740.508 1052.76 741.777C1052.76 743.047 1053.22 743.906 1054.12 743.906ZM1043.83 745L1053.54 730.859H1055.31L1045.61 745H1043.83Z" fill="white"/>
<path d="M1079.92 553.215V567.355H1077.75V555.363H1077.68L1074.3 557.57V555.52L1077.81 553.215H1079.92ZM1088.94 567.551C1086.01 567.551 1083.92 565.969 1083.84 563.664H1086.02C1086.1 564.914 1087.33 565.695 1088.92 565.695C1090.61 565.695 1091.86 564.758 1091.86 563.391C1091.86 562.004 1090.69 560.988 1088.68 560.988H1087.47V559.23H1088.68C1090.28 559.23 1091.42 558.332 1091.42 556.984C1091.42 555.695 1090.46 554.816 1088.95 554.816C1087.53 554.816 1086.28 555.598 1086.22 556.887H1084.15C1084.21 554.582 1086.34 553.02 1088.97 553.02C1091.75 553.02 1093.51 554.777 1093.49 556.867C1093.51 558.469 1092.51 559.641 1090.99 560.012V560.109C1092.92 560.383 1094.03 561.672 1094.03 563.469C1094.03 565.832 1091.86 567.551 1088.94 567.551ZM1097.75 567.492C1096.99 567.492 1096.35 566.867 1096.37 566.105C1096.35 565.344 1096.99 564.719 1097.75 564.719C1098.5 564.719 1099.14 565.344 1099.14 566.105C1099.14 566.867 1098.5 567.492 1097.75 567.492ZM1106.55 567.551C1103.62 567.551 1101.53 565.969 1101.45 563.664H1103.64C1103.72 564.914 1104.95 565.695 1106.53 565.695C1108.23 565.695 1109.48 564.758 1109.48 563.391C1109.48 562.004 1108.31 560.988 1106.3 560.988H1105.09V559.23H1106.3C1107.9 559.23 1109.03 558.332 1109.03 556.984C1109.03 555.695 1108.08 554.816 1106.57 554.816C1105.15 554.816 1103.9 555.598 1103.84 556.887H1101.77C1101.83 554.582 1103.95 553.02 1106.59 553.02C1109.36 553.02 1111.12 554.777 1111.1 556.867C1111.12 558.469 1110.13 559.641 1108.6 560.012V560.109C1110.54 560.383 1111.65 561.672 1111.65 563.469C1111.65 565.832 1109.48 567.551 1106.55 567.551ZM1117.65 559.934C1115.72 559.953 1114.67 558.508 1114.69 556.418C1114.67 554.348 1115.76 552.922 1117.65 552.922C1119.59 552.922 1120.62 554.348 1120.62 556.418C1120.62 558.527 1119.55 559.953 1117.65 559.934ZM1117.65 558.566C1118.57 558.566 1119 557.707 1119 556.418C1119 555.148 1118.59 554.289 1117.65 554.289C1116.76 554.309 1116.29 555.148 1116.29 556.418C1116.29 557.707 1116.74 558.566 1117.65 558.566ZM1126.58 567.648C1124.65 567.648 1123.59 566.223 1123.61 564.133C1123.59 562.043 1124.71 560.617 1126.58 560.617C1128.51 560.617 1129.55 562.043 1129.55 564.133C1129.55 566.223 1128.47 567.648 1126.58 567.648ZM1126.58 566.262C1127.5 566.262 1127.93 565.402 1127.93 564.133C1127.93 562.844 1127.52 561.984 1126.58 561.984C1125.68 562.004 1125.21 562.863 1125.21 564.133C1125.21 565.402 1125.68 566.262 1126.58 566.262ZM1116.29 567.355L1125.99 553.215H1127.77L1118.06 567.355H1116.29Z" fill="#56AFDF"/>
<path d="M970.75 590V588.438L975.652 583.496C977.195 581.875 977.977 580.977 977.977 579.746C977.977 578.359 976.844 577.461 975.359 577.461C973.797 577.461 972.781 578.457 972.781 579.961H970.75C970.73 577.383 972.703 575.664 975.398 575.664C978.133 575.664 980.008 577.383 980.027 579.688C980.008 581.27 979.266 582.52 976.609 585.137L973.738 588.047V588.164H980.262V590H970.75ZM987.966 590.195C984.685 590.195 982.771 587.559 982.771 582.93C982.771 578.34 984.724 575.664 987.966 575.664C991.209 575.664 993.162 578.34 993.162 582.93C993.162 587.559 991.228 590.195 987.966 590.195ZM987.966 588.34C989.88 588.34 991.013 586.465 991.013 582.93C991.013 579.414 989.861 577.48 987.966 577.48C986.072 577.48 984.92 579.414 984.92 582.93C984.92 586.465 986.052 588.34 987.966 588.34ZM999.03 582.578C997.097 582.598 996.042 581.152 996.062 579.062C996.042 576.992 997.136 575.566 999.03 575.566C1000.96 575.566 1002 576.992 1002 579.062C1002 581.172 1000.92 582.598 999.03 582.578ZM999.03 581.211C999.948 581.211 1000.38 580.352 1000.38 579.062C1000.38 577.793 999.968 576.934 999.03 576.934C998.132 576.953 997.663 577.793 997.663 579.062C997.663 580.352 998.112 581.211 999.03 581.211ZM1007.96 590.293C1006.02 590.293 1004.97 588.867 1004.99 586.777C1004.97 584.688 1006.08 583.262 1007.96 583.262C1009.89 583.262 1010.92 584.688 1010.92 586.777C1010.92 588.867 1009.85 590.293 1007.96 590.293ZM1007.96 588.906C1008.87 588.906 1009.3 588.047 1009.3 586.777C1009.3 585.488 1008.89 584.629 1007.96 584.629C1007.06 584.648 1006.59 585.508 1006.59 586.777C1006.59 588.047 1007.06 588.906 1007.96 588.906ZM997.663 590L1007.37 575.859H1009.15L999.441 590H997.663Z" fill="#56AFDF"/>
<circle cx="1335.5" cy="556.5" r="10" fill="#56AFDF"/>
<path d="M1368.81 556.656V557.844H1363.25V560.422H1361.78V557.844H1356V556.656H1368.81ZM1367.39 561.828V563.031H1357.59V559.203H1359.06V561.828H1367.39ZM1359.16 549.766V551.469H1365.64V549.766H1367.12V555.422H1357.69V549.766H1359.16ZM1359.16 554.234H1365.64V552.578H1359.16V554.234ZM1374.76 549.969C1376.87 549.969 1378.4 551.141 1378.4 552.875C1378.4 554.594 1376.87 555.781 1374.76 555.766C1372.65 555.781 1371.15 554.594 1371.15 552.875C1371.15 551.141 1372.65 549.969 1374.76 549.969ZM1374.76 551.172C1373.49 551.172 1372.57 551.844 1372.59 552.875C1372.57 553.891 1373.49 554.562 1374.76 554.547C1376.05 554.562 1376.98 553.891 1376.98 552.875C1376.98 551.844 1376.05 551.172 1374.76 551.172ZM1381.8 549.344V563.328H1380.34V549.344H1381.8ZM1370.15 556.859C1372.73 556.859 1376.3 556.797 1379.37 556.344L1379.48 557.453C1378.2 557.695 1376.87 557.844 1375.59 557.938V562.891H1374.1V558.016C1372.74 558.078 1371.46 558.086 1370.35 558.094L1370.15 556.859ZM1395.95 549.328V563.328H1394.45V549.328H1395.95ZM1391.78 550.828C1391.78 554.922 1390.03 558.484 1385.23 560.781L1384.45 559.578C1388.18 557.805 1389.99 555.281 1390.28 552.016H1385.12V550.828H1391.78ZM1403.27 550.156L1399.63 563.703H1398.15L1401.79 550.156H1403.27ZM1411.64 550.438C1411.62 554.156 1409.83 556.844 1405.25 558.359L1404.65 557.188C1406.94 556.445 1408.37 555.438 1409.2 554.203L1404.84 554.562L1404.61 553.359L1409.75 553.141C1409.92 552.664 1410.03 552.164 1410.08 551.641H1405.31V550.438H1411.64ZM1416 549.344V559.703H1414.51V554.938H1411.59V553.719H1414.51V549.344H1416ZM1416.39 561.828V563.031H1407.03V558.688H1408.53V561.828H1416.39ZM1430.41 549.344V557.109H1429.01V549.344H1430.41ZM1427.63 549.578V557.016H1426.21V553.375H1424.16V552.156H1426.21V549.578H1427.63ZM1422.54 557.672V559.172H1428.96V557.672H1430.41V563.156H1421.07V557.672H1422.54ZM1422.54 561.953H1428.96V560.359H1422.54V561.953ZM1422.71 551.672C1422.71 553.234 1423.66 554.797 1425.41 555.547L1424.62 556.656C1423.37 556.133 1422.48 555.164 1422.01 553.984C1421.49 555.273 1420.55 556.367 1419.22 556.953L1418.41 555.812C1420.27 555.016 1421.27 553.25 1421.27 551.688V550.031H1422.71V551.672Z" fill="#525666"/>
<circle cx="1335.5" cy="595.5" r="10" fill="#E6F3FA"/>
<path d="M1368.05 588.328V602.328H1366.64V588.328H1368.05ZM1365.09 588.688V601.641H1363.69V595.141H1360.95C1360.12 596.766 1358.79 598.188 1356.81 599.344L1355.97 598.281C1358.94 596.516 1360.37 594.164 1360.62 591.281H1356.62V590.062H1362.09C1362.09 591.43 1361.9 592.734 1361.47 593.953H1363.69V588.688H1365.09ZM1377.27 590.312C1377.27 592.594 1379.71 594.75 1382.4 595.234L1381.71 596.469C1379.48 595.984 1377.41 594.516 1376.51 592.547C1375.59 594.5 1373.53 595.969 1371.29 596.469L1370.63 595.234C1373.29 594.734 1375.71 592.594 1375.71 590.312V589.25H1377.27V590.312ZM1382.98 599.25V600.484H1370.16V599.25H1382.98ZM1395.67 595.781V596.969H1385.92V589.484H1395.53V590.688H1387.42V592.578H1395.23V593.75H1387.42V595.781H1395.67ZM1397.12 599.344V600.562H1384.31V599.344H1397.12ZM1409.37 588.328V594H1411.62V595.234H1409.37V602.328H1407.9V588.328H1409.37ZM1406.68 590.516V591.734H1398.38V590.516H1401.83V588.516H1403.32V590.516H1406.68ZM1402.58 592.766C1404.58 592.766 1406.05 594.109 1406.07 596.016C1406.05 597.938 1404.58 599.266 1402.58 599.281C1400.57 599.266 1399.1 597.938 1399.1 596.016C1399.1 594.109 1400.57 592.766 1402.58 592.766ZM1402.58 593.984C1401.4 593.984 1400.51 594.812 1400.52 596.016C1400.51 597.234 1401.4 598.047 1402.58 598.031C1403.77 598.047 1404.65 597.234 1404.65 596.016C1404.65 594.812 1403.77 593.984 1402.58 593.984ZM1425.4 596.281V597.516H1419.69V602.328H1418.23V597.516H1412.59V596.281H1425.4ZM1418.97 588.859C1421.92 588.859 1423.95 590.062 1423.95 591.969C1423.95 593.859 1421.92 595.047 1418.97 595.047C1416 595.047 1413.98 593.859 1413.98 591.969C1413.98 590.062 1416 588.859 1418.97 588.859ZM1418.97 590.047C1416.89 590.062 1415.5 590.781 1415.51 591.969C1415.5 593.141 1416.89 593.859 1418.97 593.859C1421.05 593.859 1422.44 593.141 1422.44 591.969C1422.44 590.781 1421.05 590.062 1418.97 590.047ZM1433.87 590.312C1433.87 592.594 1436.3 594.75 1438.99 595.234L1438.3 596.469C1436.07 595.984 1434.01 594.516 1433.1 592.547C1432.18 594.5 1430.12 595.969 1427.88 596.469L1427.22 595.234C1429.88 594.734 1432.3 592.594 1432.3 590.312V589.25H1433.87V590.312ZM1439.57 599.25V600.484H1426.76V599.25H1439.57ZM1448 589.562V596.094H1441.45V589.562H1448ZM1442.9 590.766V594.922H1446.54V590.766H1442.9ZM1451.9 588.312V592.5H1453.94V593.75H1451.9V598.578H1450.42V588.312H1451.9ZM1452.5 600.828V602.031H1443.03V597.594H1444.51V600.828H1452.5ZM1459.61 589.328C1461.83 589.312 1463.41 590.688 1463.43 592.656C1463.41 594.625 1461.83 596 1459.61 596C1457.41 596 1455.79 594.625 1455.8 592.656C1455.79 590.688 1457.41 589.312 1459.61 589.328ZM1459.61 590.609C1458.26 590.609 1457.26 591.422 1457.27 592.656C1457.26 593.891 1458.26 594.703 1459.61 594.703C1460.97 594.703 1461.97 593.891 1461.97 592.656C1461.97 591.422 1460.97 590.609 1459.61 590.609ZM1466.63 588.328V602.359H1465.15V588.328H1466.63ZM1455.13 598.109C1457.68 598.109 1461.21 598.078 1464.27 597.641L1464.38 598.719C1461.21 599.328 1457.82 599.344 1455.32 599.344L1455.13 598.109ZM1486.24 599.328V600.578H1473.43V599.328H1486.24ZM1485.07 589.672V590.891H1482.93V595.562H1485.02V596.75H1474.55V595.562H1476.65V590.891H1474.52V589.672H1485.07ZM1478.11 595.562H1481.47V590.891H1478.11V595.562ZM1500.39 599.406V600.656H1487.57V599.406H1493.22V596.953H1489.14V592.5H1497.36V590.531H1489.11V589.312H1498.82V593.688H1490.61V595.734H1499.15V596.953H1494.68V599.406H1500.39ZM1512.82 589.75V591.25C1512.82 593.062 1512.82 595.031 1512.3 598.016L1510.79 597.875C1511.35 595.078 1511.35 593.016 1511.35 591.25V590.969H1503.1V589.75H1512.82ZM1514.49 599.109V600.344H1501.72V599.109H1514.49ZM1527.81 588.344V596.656H1526.4V593.016H1524.68V596.5H1523.29V588.594H1524.68V591.797H1526.4V588.344H1527.81ZM1527.81 597.281V602.156H1518.45V597.281H1527.81ZM1519.93 598.469V600.953H1526.36V598.469H1519.93ZM1521.78 589.219V593.156H1517.93V594.906C1519.67 594.891 1520.99 594.812 1522.53 594.516L1522.68 595.703C1520.92 596.031 1519.46 596.078 1517.42 596.078H1516.5V592.016H1520.36V590.406H1516.46V589.219H1521.78ZM1534.83 589.156L1531.19 602.703H1529.71L1533.35 589.156H1534.83ZM1540.93 591.891C1540.93 594.453 1542.37 597 1544.51 597.969L1543.6 599.156C1542.01 598.359 1540.82 596.773 1540.2 594.859C1539.58 596.875 1538.35 598.578 1536.75 599.422L1535.81 598.219C1537.98 597.188 1539.43 594.484 1539.43 591.891V589.5H1540.93V591.891ZM1547.56 588.328V602.359H1546.09V594.188H1542.96V592.984H1546.09V588.328H1547.56ZM1561.63 588.328V602.359H1560.14V588.328H1561.63ZM1552.3 589.5V593.094H1556.07V589.5H1557.53V599H1550.82V589.5H1552.3ZM1552.3 597.781H1556.07V594.266H1552.3V597.781ZM1571.29 590.312C1571.29 592.594 1573.73 594.75 1576.42 595.234L1575.73 596.469C1573.49 595.984 1571.43 594.516 1570.53 592.547C1569.6 594.5 1567.55 595.969 1565.31 596.469L1564.65 595.234C1567.31 594.734 1569.73 592.594 1569.73 590.312V589.25H1571.29V590.312ZM1576.99 599.25V600.484H1564.18V599.25H1576.99Z" fill="#525666"/>
<circle cx="1335.5" cy="634.5" r="10" fill="#EEF7FC"/>
<path d="M1367.69 627.328V637.719H1366.2V633.859H1364.02V632.609H1366.2V631.141H1364.02V629.922H1366.2V627.328H1367.69ZM1363.86 628.422V629.625H1362.52V634.312C1363.11 634.266 1363.68 634.219 1364.23 634.156L1364.3 635.25C1361.61 635.672 1358.47 635.719 1356.22 635.734L1356.03 634.484L1357.73 634.469V629.625H1356.42V628.422H1363.86ZM1368.05 639.828V641.031H1358.56V636.875H1360.06V639.828H1368.05ZM1359.17 634.453C1359.8 634.438 1360.45 634.422 1361.09 634.391V629.625H1359.17V634.453ZM1374.73 628.328C1376.94 628.312 1378.52 629.688 1378.54 631.656C1378.52 633.625 1376.94 635 1374.73 635C1372.52 635 1370.9 633.625 1370.91 631.656C1370.9 629.688 1372.52 628.312 1374.73 628.328ZM1374.73 629.609C1373.37 629.609 1372.37 630.422 1372.38 631.656C1372.37 632.891 1373.37 633.703 1374.73 633.703C1376.09 633.703 1377.09 632.891 1377.09 631.656C1377.09 630.422 1376.09 629.609 1374.73 629.609ZM1381.74 627.328V641.359H1380.26V627.328H1381.74ZM1370.24 637.109C1372.79 637.109 1376.32 637.078 1379.38 636.641L1379.49 637.719C1376.32 638.328 1372.93 638.344 1370.43 638.344L1370.24 637.109ZM1389.45 630.891C1389.44 633.453 1390.98 636.016 1393.16 636.984L1392.26 638.156C1390.66 637.391 1389.38 635.82 1388.73 633.906C1388.08 635.953 1386.79 637.648 1385.11 638.469L1384.2 637.219C1386.41 636.234 1387.95 633.562 1387.95 630.891V628.5H1389.45V630.891ZM1395.91 627.328V641.359H1394.42V627.328H1395.91ZM1410.13 627.328V634.531H1408.65V630.938H1405.69V629.734H1408.65V627.328H1410.13ZM1410.13 635.188V638.672H1402.46V639.969H1410.62V641.156H1401.01V637.547H1408.66V636.359H1400.98V635.188H1410.13ZM1403.38 629C1403.38 630.781 1404.66 632.438 1406.77 633.109L1405.99 634.266C1404.45 633.734 1403.29 632.68 1402.68 631.344C1402.06 632.844 1400.86 634.023 1399.21 634.594L1398.41 633.406C1400.6 632.703 1401.9 630.969 1401.91 629V627.781H1403.38V629ZM1423.33 628.75V629.891C1423.33 631.25 1423.33 632.938 1422.91 635.297L1421.54 635.156C1421.72 634.203 1421.82 633.352 1421.88 632.594L1417.22 632.984L1417.04 631.781L1421.94 631.516C1421.96 630.953 1421.96 630.43 1421.96 629.953H1417.37V628.75H1423.33ZM1420.35 633.844V636.812C1421.56 636.773 1422.8 636.695 1423.83 636.562L1423.91 637.656C1421.65 638.078 1418.69 638.109 1416.87 638.125L1416.66 636.891C1417.33 636.891 1418.13 636.883 1418.99 636.859V633.844H1420.35ZM1428.88 627.328V641.328H1427.47V634.375H1425.94V640.609H1424.55V627.609H1425.94V633.141H1427.47V627.328H1428.88ZM1436 629.812C1436 631.578 1437.26 633.312 1439.37 634.031L1438.61 635.188C1437.04 634.641 1435.87 633.523 1435.26 632.141C1434.65 633.68 1433.43 634.914 1431.76 635.5L1431 634.328C1433.15 633.594 1434.48 631.719 1434.48 629.828V629.438H1431.45V628.234H1439V629.438H1436V629.812ZM1442.65 636.406V641.328H1441.17V637.609H1433.17V636.406H1442.65ZM1442.65 627.328V635.703H1441.17V632.109H1438.58V630.891H1441.17V627.328H1442.65ZM1456.13 627.328V630.953H1458.16V632.219H1456.13V635.766H1454.65V627.328H1456.13ZM1456.13 636.5V641.156H1447.19V636.5H1456.13ZM1448.65 637.672V639.953H1454.66V637.672H1448.65ZM1453.49 628.75V629.938H1445.15V628.75H1448.58V627.219H1450.07V628.75H1453.49ZM1449.32 630.547C1451.33 630.547 1452.71 631.547 1452.71 633.047C1452.71 634.562 1451.33 635.547 1449.32 635.562C1447.27 635.547 1445.91 634.562 1445.91 633.047C1445.91 631.547 1447.27 630.547 1449.32 630.547ZM1449.32 631.688C1448.13 631.672 1447.33 632.203 1447.35 633.047C1447.33 633.922 1448.13 634.438 1449.32 634.438C1450.51 634.438 1451.3 633.922 1451.32 633.047C1451.3 632.203 1450.51 631.672 1449.32 631.688Z" fill="#525666"/>
<circle cx="1335.5" cy="673.5" r="10" fill="#458CB2"/>
<path d="M1362.33 675.125C1365.36 675.125 1367.27 676.078 1367.28 677.719C1367.27 679.344 1365.36 680.312 1362.33 680.297C1359.33 680.312 1357.41 679.344 1357.41 677.719C1357.41 676.078 1359.33 675.125 1362.33 675.125ZM1362.33 676.25C1360.2 676.25 1358.88 676.797 1358.89 677.719C1358.88 678.625 1360.2 679.156 1362.33 679.156C1364.47 679.156 1365.8 678.625 1365.81 677.719C1365.8 676.797 1364.47 676.25 1362.33 676.25ZM1367.17 667.016V668.188C1367.17 669.312 1367.17 670.469 1366.78 671.906L1365.33 671.75C1365.7 670.32 1365.7 669.289 1365.7 668.203H1357.52V667.016H1367.17ZM1368.77 672.766V673.969H1356.03V672.766H1361.14V670.141H1362.59V672.766H1368.77ZM1381.16 666.328V670.125H1383.19V671.375H1381.16V675.312H1379.68V666.328H1381.16ZM1376.69 675.422C1379.55 675.422 1381.32 676.328 1381.32 677.875C1381.32 679.391 1379.55 680.312 1376.69 680.297C1373.8 680.312 1372.04 679.391 1372.05 677.875C1372.04 676.328 1373.8 675.422 1376.69 675.422ZM1376.69 676.562C1374.68 676.562 1373.51 677.016 1373.52 677.875C1373.51 678.688 1374.68 679.172 1376.69 679.172C1378.68 679.172 1379.85 678.688 1379.85 677.875C1379.85 677.016 1378.68 676.562 1376.69 676.562ZM1378.52 667.828V669H1370.18V667.828H1373.62V666.219H1375.1V667.828H1378.52ZM1374.35 669.641C1376.37 669.641 1377.74 670.641 1377.74 672.141C1377.74 673.641 1376.37 674.625 1374.35 674.609C1372.3 674.625 1370.94 673.641 1370.94 672.141C1370.94 670.641 1372.3 669.641 1374.35 669.641ZM1374.35 670.75C1373.16 670.75 1372.37 671.281 1372.38 672.141C1372.37 672.969 1373.16 673.484 1374.35 673.484C1375.54 673.484 1376.34 672.969 1376.35 672.141C1376.34 671.281 1375.54 670.75 1374.35 670.75ZM1392.11 667.828V668.688C1392.11 669.859 1392.11 671.672 1391.7 674.172L1390.23 674.062C1390.59 671.82 1390.62 670.203 1390.64 669.031H1384.95V667.828H1392.11ZM1388.51 671.828V676.016C1390.01 675.969 1391.52 675.867 1392.92 675.688L1393 676.797C1390.08 677.266 1386.83 677.328 1384.34 677.312L1384.17 676.109C1385.05 676.102 1386.02 676.094 1387.05 676.062V671.828H1388.51ZM1395.22 666.328V672.109H1397.36V673.375H1395.22V680.328H1393.72V666.328H1395.22ZM1403.02 667.328C1405.24 667.312 1406.82 668.688 1406.83 670.656C1406.82 672.625 1405.24 674 1403.02 674C1400.82 674 1399.19 672.625 1399.21 670.656C1399.19 668.688 1400.82 667.312 1403.02 667.328ZM1403.02 668.609C1401.66 668.609 1400.66 669.422 1400.68 670.656C1400.66 671.891 1401.66 672.703 1403.02 672.703C1404.38 672.703 1405.38 671.891 1405.38 670.656C1405.38 669.422 1404.38 668.609 1403.02 668.609ZM1410.04 666.328V680.359H1408.55V666.328H1410.04ZM1398.54 676.109C1401.08 676.109 1404.62 676.078 1407.68 675.641L1407.79 676.719C1404.62 677.328 1401.23 677.344 1398.73 677.344L1398.54 676.109ZM1428.49 666.328V680.328H1427.02V673.094H1423.88V671.875H1427.02V666.328H1428.49ZM1423.93 667.828C1423.91 671.891 1422.33 675.375 1417.58 677.734L1416.8 676.562C1420.51 674.75 1422.16 672.227 1422.43 669.016H1417.43V667.828H1423.93ZM1442.61 666.328V680.359H1441.12V666.328H1442.61ZM1438.33 667.594V672.703H1433.29V675.766C1435.56 675.758 1437.54 675.656 1439.89 675.266L1440.03 676.484C1437.54 676.906 1435.44 677 1432.97 677H1431.78V671.516H1436.81V668.797H1431.76V667.594H1438.33Z" fill="#525666"/>
<circle cx="1335.5" cy="712.5" r="10" fill="#4D9EC9"/>
<path d="M1366.92 705.328V710.906H1369.09V712.141H1366.92V719.312H1365.44V705.328H1366.92ZM1363.27 706.797C1363.25 710.844 1361.47 714.453 1356.86 716.734L1356.03 715.578C1359.54 713.828 1361.45 711.297 1361.75 708.031H1356.73V706.797H1363.27ZM1375.13 707.422C1375.13 709.391 1376.4 711.141 1378.52 711.828L1377.71 712.984C1376.17 712.43 1375.04 711.352 1374.43 709.953C1373.82 711.555 1372.6 712.797 1370.91 713.406L1370.12 712.219C1372.35 711.453 1373.65 709.594 1373.66 707.484V706.109H1375.13V707.422ZM1381.84 705.328V713.594H1380.35V709.391H1377.4V708.172H1380.35V705.328H1381.84ZM1377.15 713.984C1380.09 713.984 1381.88 714.953 1381.88 716.656C1381.88 718.344 1380.09 719.312 1377.15 719.297C1374.21 719.312 1372.4 718.344 1372.41 716.656C1372.4 714.953 1374.21 713.984 1377.15 713.984ZM1377.15 715.141C1375.1 715.141 1373.88 715.688 1373.88 716.656C1373.88 717.594 1375.1 718.125 1377.15 718.125C1379.19 718.125 1380.41 717.594 1380.41 716.656C1380.41 715.688 1379.19 715.141 1377.15 715.141ZM1395.91 705.328V719.359H1394.42V705.328H1395.91ZM1386.58 706.5V710.094H1390.34V706.5H1391.81V716H1385.09V706.5H1386.58ZM1386.58 714.781H1390.34V711.266H1386.58V714.781Z" fill="#525666"/>
<circle cx="1335.5" cy="751.5" r="10" fill="#CBE6F5"/>
<path d="M1360.61 744.969C1362.72 744.969 1364.25 746.141 1364.25 747.875C1364.25 749.594 1362.72 750.781 1360.61 750.766C1358.5 750.781 1357 749.594 1357 747.875C1357 746.141 1358.5 744.969 1360.61 744.969ZM1360.61 746.172C1359.34 746.172 1358.42 746.844 1358.44 747.875C1358.42 748.891 1359.34 749.562 1360.61 749.547C1361.91 749.562 1362.83 748.891 1362.83 747.875C1362.83 746.844 1361.91 746.172 1360.61 746.172ZM1367.66 744.344V758.328H1366.19V744.344H1367.66ZM1356 751.859C1358.58 751.859 1362.16 751.797 1365.22 751.344L1365.33 752.453C1364.05 752.695 1362.73 752.844 1361.44 752.938V757.891H1359.95V753.016C1358.59 753.078 1357.31 753.086 1356.2 753.094L1356 751.859ZM1381.76 744.328V758.328H1380.27V744.328H1381.76ZM1375.43 748.828C1375.43 751.062 1376.91 753.344 1379.09 754.266L1378.27 755.406C1376.66 754.703 1375.37 753.25 1374.73 751.484C1374.09 753.352 1372.83 754.906 1371.19 755.641L1370.37 754.5C1372.54 753.531 1373.98 751.172 1373.98 748.828V747.906H1370.79V746.719H1373.96V744.609H1375.43V746.719H1378.57V747.906H1375.43V748.828Z" fill="#525666"/>
<path d="M140.184 942.16V959.66H138.426V942.16H140.184ZM136.492 942.609V958.801H134.734V950.676H131.316C130.271 952.707 128.611 954.484 126.141 955.93L125.086 954.602C128.797 952.395 130.584 949.455 130.906 945.852H125.906V944.328H132.742C132.732 946.037 132.498 947.668 131.961 949.191H134.734V942.609H136.492ZM151.716 944.641C151.716 947.492 154.763 950.188 158.123 950.793L157.263 952.336C154.47 951.73 151.892 949.895 150.759 947.434C149.607 949.875 147.039 951.711 144.236 952.336L143.416 950.793C146.736 950.168 149.763 947.492 149.763 944.641V943.312H151.716V944.641ZM158.845 955.812V957.355H142.83V955.812H158.845ZM174.714 951.477V952.961H162.527V943.605H174.538V945.109H164.402V947.473H174.167V948.938H164.402V951.477H174.714ZM176.53 955.93V957.453H160.515V955.93H176.53ZM197.116 942.16V949.25H199.928V950.793H197.116V959.66H195.28V942.16H197.116ZM193.756 944.895V946.418H183.385V944.895H187.702V942.395H189.557V944.895H193.756ZM188.639 947.707C191.139 947.707 192.975 949.387 192.995 951.77C192.975 954.172 191.139 955.832 188.639 955.852C186.12 955.832 184.284 954.172 184.284 951.77C184.284 949.387 186.12 947.707 188.639 947.707ZM188.639 949.23C187.155 949.23 186.041 950.266 186.061 951.77C186.041 953.293 187.155 954.309 188.639 954.289C190.123 954.309 191.217 953.293 191.217 951.77C191.217 950.266 190.123 949.23 188.639 949.23ZM217.164 952.102V953.645H210.016V959.66H208.199V953.645H201.148V952.102H217.164ZM209.117 942.824C212.809 942.824 215.348 944.328 215.348 946.711C215.348 949.074 212.809 950.559 209.117 950.559C205.406 950.559 202.887 949.074 202.887 946.711C202.887 944.328 205.406 942.824 209.117 942.824ZM209.117 944.309C206.52 944.328 204.781 945.227 204.801 946.711C204.781 948.176 206.52 949.074 209.117 949.074C211.715 949.074 213.453 948.176 213.453 946.711C213.453 945.227 211.715 944.328 209.117 944.309ZM227.74 944.641C227.74 947.492 230.787 950.188 234.146 950.793L233.287 952.336C230.494 951.73 227.916 949.895 226.783 947.434C225.63 949.875 223.062 951.711 220.259 952.336L219.439 950.793C222.759 950.168 225.787 947.492 225.787 944.641V943.312H227.74V944.641ZM234.869 955.812V957.355H218.853V955.812H234.869ZM256.938 942.16V959.66H255.161V950.676H253.071V958.801H251.313V942.492H253.071V949.113H255.161V942.16H256.938ZM247.134 946.789C247.134 949.934 248.325 952.785 250.864 954.094L249.77 955.52C248.052 954.592 246.899 952.961 246.274 950.93C245.679 953.234 244.516 955.07 242.739 956.125L241.587 954.719C244.145 953.273 245.337 950.266 245.337 946.789V945.656H242.055V944.152H250.18V945.656H247.134V946.789ZM267.612 953.059C271.225 953.059 273.413 954.27 273.413 956.34C273.413 958.43 271.225 959.641 267.612 959.66C263.959 959.641 261.733 958.43 261.733 956.34C261.733 954.27 263.959 953.059 267.612 953.059ZM267.612 954.523C265.073 954.523 263.569 955.168 263.588 956.34C263.569 957.512 265.073 958.176 267.612 958.176C270.131 958.176 271.596 957.512 271.596 956.34C271.596 955.168 270.131 954.523 267.612 954.523ZM273.256 942.16V946.438H275.795V948.02H273.256V952.609H271.401V942.16H273.256ZM262.006 943.254V945.773H266.596V943.254H268.432V951.379H260.19V943.254H262.006ZM262.006 949.895H266.596V947.238H262.006V949.895ZM293.188 951.008V952.512H286.234V955.91H284.398V952.512H277.172V951.008H293.188ZM291.117 942.98V949.191H279.223V942.98H291.117ZM281.039 944.445V947.727H289.281V944.445H281.039ZM291.41 957.785V959.289H279.164V954.25H281.02V957.785H291.41ZM314.749 942.18V952.531H312.894V950.402H308.48V948.879H312.894V946.75H308.655C307.532 949.562 304.905 951.545 301.116 952.629L300.374 951.184C304.515 949.992 306.937 947.775 307.269 944.953H301.273V943.43H309.28C309.28 944.074 309.212 944.699 309.105 945.285H312.894V942.18H314.749ZM308.988 952.727C312.523 952.727 314.847 954.016 314.866 956.145C314.847 958.273 312.523 959.582 308.988 959.582C305.394 959.582 303.089 958.273 303.089 956.145C303.089 954.016 305.394 952.727 308.988 952.727ZM308.988 954.191C306.488 954.191 304.925 954.895 304.925 956.145C304.925 957.375 306.488 958.098 308.988 958.098C311.448 958.098 312.991 957.375 313.011 956.145C312.991 954.895 311.448 954.191 308.988 954.191ZM332.434 942.16V952.766H330.579V948.957H327.845V947.414H330.579V942.16H332.434ZM332.434 953.625V959.445H320.891V953.625H332.434ZM322.727 955.09V957.941H330.618V955.09H322.727ZM328.118 943.898V945.383H317.864V943.898H322.083V942.004H323.919V943.898H328.118ZM323.001 946.184C325.403 946.184 327.102 947.473 327.102 949.309C327.102 951.203 325.403 952.434 323.001 952.453C320.598 952.434 318.88 951.203 318.88 949.309C318.88 947.473 320.598 946.184 323.001 946.184ZM323.001 947.609C321.595 947.59 320.657 948.273 320.657 949.309C320.657 950.383 321.595 951.047 323.001 951.047C324.387 951.047 325.325 950.383 325.325 949.309C325.325 948.273 324.387 947.59 323.001 947.609ZM341.623 947.316C341.623 950.09 343.44 953.176 346.096 954.426L345.041 955.871C343.079 954.924 341.526 952.951 340.745 950.656C339.934 953.166 338.293 955.324 336.291 956.32L335.198 954.855C337.854 953.586 339.788 950.285 339.788 947.316V945.461H335.842V943.918H345.432V945.461H341.623V947.316ZM349.163 942.16V949.094H351.975V950.656H349.163V959.66H347.307V942.16H349.163ZM364.474 943.859V958H362.306V946.008H362.228L358.849 948.215V946.164L362.365 943.859H364.474ZM373.273 958.195C370.597 958.195 368.585 956.555 368.488 954.309H370.577C370.695 955.52 371.847 956.398 373.273 956.398C374.991 956.398 376.222 955.148 376.222 953.469C376.222 951.75 374.952 950.5 373.175 950.48C372.042 950.48 371.183 950.852 370.695 951.73H368.663L369.581 943.859H377.589V945.695H371.359L370.89 949.66H371.027C371.613 949.094 372.609 948.703 373.683 948.703C376.339 948.703 378.312 950.676 378.312 953.41C378.312 956.203 376.222 958.195 373.273 958.195ZM394.981 942.16V952.492H393.126V949.895H389.317V951.32H381.192V943.469H389.317V944.914H393.126V942.16H394.981ZM383.028 944.953V949.836H387.501V944.953H383.028ZM389.122 952.98C392.794 952.98 395.04 954.191 395.04 956.32C395.04 958.43 392.794 959.641 389.122 959.621C385.45 959.641 383.184 958.43 383.204 956.32C383.184 954.191 385.45 952.98 389.122 952.98ZM389.122 954.406C386.563 954.426 385.04 955.09 385.04 956.32C385.04 957.492 386.563 958.195 389.122 958.195C391.68 958.195 393.204 957.492 393.204 956.32C393.204 955.09 391.68 954.426 389.122 954.406ZM389.317 948.391H393.126V946.398H389.317V948.391ZM417.109 942.16V946.164H419.648V947.707H417.109V951.496H415.254V942.16H417.109ZM411.914 943.273V944.797H405.977V949.445C409.385 949.436 411.309 949.328 413.496 948.859L413.711 950.363C411.348 950.852 409.277 950.969 405.527 950.969H404.141V943.273H411.914ZM407.734 952.414V954.406H415.254V952.414H417.109V959.387H405.898V952.414H407.734ZM407.734 957.883H415.254V955.871H407.734V957.883ZM435.634 942.18V955.109H433.779V950.559H429.951V952.199H421.884V943.332H423.74V946.301H428.115V943.332H429.951V945.285H433.779V942.18H435.634ZM436.025 957.785V959.289H424.209V953.84H426.084V957.785H436.025ZM423.74 950.695H428.115V947.727H423.74V950.695ZM429.951 949.055H433.779V946.809H429.951V949.055Z" fill="#40424D"/>
</svg>
