<svg width="607" height="154" viewBox="0 0 607 154" fill="none" xmlns="http://www.w3.org/2000/svg">
<rect width="210" height="54" rx="27" fill="#56AFDF"/>
<path d="M33.2449 23.7461C33.1277 22.5352 32.0926 21.832 30.5691 21.832C28.9676 21.832 27.991 22.6133 27.991 23.668C27.991 24.8594 29.241 25.3477 30.4129 25.6211L31.741 25.9727C33.8504 26.4609 35.8816 27.5742 35.8816 30.0352C35.8816 32.5156 33.9285 34.2148 30.5301 34.2148C27.2293 34.2148 25.159 32.6328 25.0418 29.8398H27.5418C27.659 31.3242 28.909 32.0469 30.5105 32.0469C32.1902 32.0469 33.3426 31.2266 33.3426 30.0156C33.3426 28.9023 32.3074 28.4336 30.784 28.043L29.1824 27.6328C26.8582 27.0273 25.4129 25.8555 25.4129 23.8242C25.4129 21.3242 27.6395 19.6641 30.6082 19.6641C33.616 19.6641 35.6473 21.3633 35.6863 23.7461H33.2449ZM45.0512 29.5469V23.3945H47.5316V34H45.1293V32.125H45.0121C44.5238 33.2969 43.4105 34.1367 41.8285 34.1367C39.7387 34.1367 38.2934 32.6914 38.2738 30.1523V23.3945H40.7738V29.7617C40.7738 31.1094 41.5746 31.9688 42.7855 31.9688C43.8793 31.9688 45.0512 31.168 45.0512 29.5469ZM50.3144 34V23.3945H52.7363V25.1523H52.8535C53.2246 23.9414 54.2598 23.2383 55.4707 23.2383C55.7441 23.2383 56.1348 23.2578 56.3691 23.2969V25.6016C56.1543 25.5234 55.6269 25.4453 55.2168 25.4453C53.8301 25.4453 52.8144 26.4023 52.8144 27.75V34H50.3144ZM68.0582 23.3945L64.2691 34H61.5348L57.7457 23.3945H60.402L62.8434 31.2852H62.9605L65.4215 23.3945H68.0582ZM74.3566 34.2148C71.1535 34.2148 69.2004 32.0859 69.2004 28.7656C69.2004 25.4844 71.1926 23.2578 74.2199 23.2578C76.8176 23.2578 79.0637 24.8789 79.0637 28.6094V29.3906H71.6613C71.6906 31.1973 72.7551 32.2617 74.3762 32.2617C75.4699 32.2617 76.2121 31.793 76.5246 31.168H78.966C78.5168 33.0039 76.8176 34.2148 74.3566 34.2148ZM71.6809 27.6914H76.6809C76.6613 26.2461 75.7043 25.1914 74.259 25.1914C72.7551 25.1914 71.759 26.334 71.6809 27.6914ZM82.5887 37.9844C82.1004 37.9844 81.6121 37.9648 81.2996 37.9258V35.9336C81.6121 35.9531 82.0223 35.9727 82.3543 35.9727C82.9598 35.9727 83.4676 35.9141 83.8973 34.7812L84.1121 34.2148L80.2449 23.3945H82.8816L85.3426 31.4023H85.4598L87.9207 23.3945H90.5574L86.2996 35.2891C85.6941 36.9883 84.5809 37.9844 82.5887 37.9844ZM97.7832 34V19.8594H103.096C106.338 19.8594 108.076 21.6758 108.076 24.3711C108.076 26.2949 107.197 27.7207 105.537 28.3945L108.584 34H105.752L102.979 28.8242H100.322V34H97.7832ZM100.322 26.6953H102.705C104.619 26.6953 105.479 25.875 105.479 24.3711C105.479 22.8672 104.619 21.9883 102.705 21.9883H100.322V26.6953ZM115.097 34.2148C111.894 34.2148 109.941 32.0859 109.941 28.7656C109.941 25.4844 111.933 23.2578 114.961 23.2578C117.558 23.2578 119.804 24.8789 119.804 28.6094V29.3906H112.402C112.431 31.1973 113.496 32.2617 115.117 32.2617C116.211 32.2617 116.953 31.793 117.265 31.168H119.707C119.257 33.0039 117.558 34.2148 115.097 34.2148ZM112.421 27.6914H117.421C117.402 26.2461 116.445 25.1914 115 25.1914C113.496 25.1914 112.5 26.334 112.421 27.6914ZM128.154 26.4219C127.997 25.6211 127.333 25.1133 126.279 25.1133C125.204 25.1133 124.423 25.6406 124.443 26.3633C124.423 26.9102 124.872 27.3203 125.946 27.5742L127.743 27.9453C129.755 28.3945 130.712 29.3125 130.732 30.8359C130.712 32.8281 128.974 34.2148 126.2 34.2148C123.505 34.2148 121.904 33.0039 121.65 30.9727H124.189C124.345 31.8711 125.048 32.3203 126.2 32.3203C127.392 32.3203 128.193 31.832 128.193 31.0508C128.193 30.4453 127.704 30.0547 126.65 29.8203L124.95 29.4492C122.978 29.0586 121.962 28.0234 121.962 26.5C121.962 24.5469 123.642 23.2578 126.239 23.2578C128.779 23.2578 130.341 24.4883 130.517 26.4219H128.154ZM137.733 34.2148C134.53 34.2148 132.577 32.0859 132.577 28.7656C132.577 25.4844 134.569 23.2578 137.596 23.2578C140.194 23.2578 142.44 24.8789 142.44 28.6094V29.3906H135.038C135.067 31.1973 136.132 32.2617 137.753 32.2617C138.846 32.2617 139.589 31.793 139.901 31.168H142.343C141.893 33.0039 140.194 34.2148 137.733 34.2148ZM135.057 27.6914H140.057C140.038 26.2461 139.081 25.1914 137.636 25.1914C136.132 25.1914 135.136 26.334 135.057 27.6914ZM144.286 31.0117C144.286 28.6289 146.258 27.9258 148.231 27.8086C148.963 27.7598 150.487 27.6719 150.946 27.6523V26.8125C150.946 25.7578 150.262 25.1523 149.032 25.1523C147.918 25.1523 147.235 25.6602 147.039 26.4219H144.637C144.813 24.625 146.434 23.2578 149.09 23.2578C151.102 23.2578 153.426 24.0781 153.426 26.9102V34H151.043V32.5352H150.965C150.496 33.4336 149.5 34.2148 147.84 34.2148C145.809 34.2148 144.286 33.1016 144.286 31.0117ZM146.688 30.9922C146.688 31.9102 147.43 32.3789 148.485 32.3789C149.989 32.3789 150.965 31.3828 150.965 30.1914V29.3125L148.621 29.4688C147.43 29.5664 146.688 30.0547 146.688 30.9922ZM156.17 34V23.3945H158.592V25.1523H158.709C159.08 23.9414 160.115 23.2383 161.326 23.2383C161.6 23.2383 161.99 23.2578 162.225 23.2969V25.6016C162.01 25.5234 161.482 25.4453 161.072 25.4453C159.686 25.4453 158.67 26.4023 158.67 27.75V34H156.17ZM168.386 34.2148C165.222 34.2148 163.308 31.9492 163.308 28.7461C163.308 25.5039 165.281 23.2578 168.386 23.2578C170.964 23.2578 172.761 24.7617 172.937 27.0469H170.554C170.359 26.0312 169.617 25.25 168.406 25.25C166.863 25.25 165.828 26.5586 165.828 28.6875C165.828 30.875 166.843 32.1836 168.406 32.1836C169.519 32.1836 170.339 31.5391 170.554 30.3867H172.937C172.742 32.6328 171.043 34.2148 168.386 34.2148ZM177.712 27.7891V34H175.212V19.8594H177.654V25.1914H177.79C178.279 24 179.294 23.2578 180.935 23.2578C183.142 23.2578 184.587 24.6836 184.587 27.2422V34H182.107V27.6328C182.107 26.1875 181.325 25.3672 180.017 25.3672C178.669 25.3672 177.712 26.2461 177.712 27.7891Z" fill="white"/>
<path d="M29.7266 118.703V122.609H5.15625V107.922H29.375V111.906H10.2734V118.703H29.7266ZM33.5547 126.203V130.148H19.6484V141.555H14.7266V130.148H1.01562V126.203H33.5547ZM66.3859 106.047V141.672H61.425V127.336H55.3312V123.234H61.425V117.648H55.4484V113.586H61.425V106.047H66.3859ZM53.5734 109.016V122.688H42.6359V129.602C47.0305 129.582 50.9367 129.367 55.4094 128.703L55.8 132.766C50.4875 133.625 45.9562 133.703 40.4875 133.703H37.675V118.82H48.6906V112.961H37.5969V109.016H53.5734ZM88.0062 106.516C95.8969 106.555 100.897 109.094 100.936 113.43C100.897 117.648 95.8969 120.188 88.0062 120.188C80.1547 120.188 75.0375 117.648 75.0375 113.43C75.0375 109.094 80.1547 106.555 88.0062 106.516ZM88.0062 110.344C83.0453 110.344 80.1937 111.359 80.2328 113.43C80.1937 115.383 83.0453 116.398 88.0062 116.398C92.9281 116.398 95.7797 115.383 95.7797 113.43C95.7797 111.359 92.9281 110.344 88.0062 110.344ZM100.35 129.094V141.203H75.5453V129.094H85.5062V126.008H71.7953V122.023H104.217V126.008H90.4672V129.094H100.35ZM80.4672 133.039V137.219H95.4672V133.039H80.4672ZM139.588 124.211V128.195H107.166V124.211H139.588ZM135.916 136.984V140.969H111.072V130.578H116.072V136.984H135.916ZM123.377 107.141C131.15 107.102 136.267 109.875 136.306 114.406C136.267 118.938 131.15 121.75 123.377 121.75C115.525 121.75 110.408 118.938 110.408 114.406C110.408 109.875 115.525 107.102 123.377 107.141ZM123.377 111.047C118.455 111.086 115.564 112.258 115.603 114.406C115.564 116.633 118.455 117.727 123.377 117.727C128.298 117.727 131.15 116.633 131.15 114.406C131.15 112.258 128.298 111.086 123.377 111.047ZM182.32 106.086V132.023H177.32V106.086H182.32ZM183.258 136.984V140.969H158.492V129.523H163.531V136.984H183.258ZM166.188 111.477C166.148 116.164 168.648 120.773 174.508 122.648L171.969 126.555C167.965 125.227 165.191 122.57 163.609 119.172C162.027 122.824 159.176 125.754 155.016 127.18L152.438 123.234C158.414 121.242 160.992 116.281 160.992 111.477V108.039H166.188V111.477ZM208.784 109.133V119.68H195.503V122.766H209.605V126.633H202.3V131.047C205.191 130.93 208.081 130.754 210.816 130.461L211.206 134.094C203.433 135.344 195.347 135.383 188.667 135.305L188.081 131.242C190.952 131.262 194.077 131.262 197.3 131.203V126.633H190.503V116.086H203.863V113.039H190.464V109.133H208.784ZM217.808 106.047V141.672H212.847V106.047H217.808ZM255.834 133.547V137.648H223.295V133.547H237.006V128.195H227.045V116.242H247.163V112.336H227.006V108.352H252.084V120.148H232.045V124.133H252.905V128.195H241.967V133.547H255.834ZM266.166 135.109L262.806 146.242H258.666L260.619 135.109H266.166ZM289.25 108.547C294.68 108.547 298.586 113.469 298.625 121.203C298.586 129.016 294.68 133.898 289.25 133.898C283.82 133.898 279.836 129.016 279.875 121.203C279.836 113.469 283.82 108.547 289.25 108.547ZM289.25 113.039C286.516 113.039 284.68 115.93 284.68 121.203C284.68 126.516 286.516 129.367 289.25 129.367C292.023 129.367 293.82 126.516 293.859 121.203C293.82 115.93 292.023 113.039 289.25 113.039ZM307.727 106.047V119.445H312.961V123.586H307.727V141.594H302.727V106.047H307.727ZM329.347 109.367C329.347 113.078 331.886 116.477 337.823 117.766L335.558 121.672C331.3 120.656 328.409 118.527 326.808 115.656C325.187 118.84 322.218 121.262 317.862 122.336L315.519 118.469C321.495 117.062 324.152 113.312 324.152 109.367V107.492H329.347V109.367ZM345.011 106.086V141.594H340.089V106.086H345.011ZM315.128 124.602C321.534 124.602 330.362 124.523 337.941 123.43L338.253 127.023C335.323 127.59 332.316 127.98 329.347 128.195V140.539H324.386V128.508C321.28 128.645 318.331 128.664 315.753 128.664L315.128 124.602ZM366.631 106.516C374.522 106.555 379.522 109.094 379.561 113.43C379.522 117.648 374.522 120.188 366.631 120.188C358.78 120.188 353.663 117.648 353.663 113.43C353.663 109.094 358.78 106.555 366.631 106.516ZM366.631 110.344C361.67 110.344 358.819 111.359 358.858 113.43C358.819 115.383 361.67 116.398 366.631 116.398C371.553 116.398 374.405 115.383 374.405 113.43C374.405 111.359 371.553 110.344 366.631 110.344ZM378.975 129.094V141.203H354.17V129.094H364.131V126.008H350.42V122.023H382.842V126.008H369.092V129.094H378.975ZM359.092 133.039V137.219H374.092V133.039H359.092ZM418.212 124.211V128.195H385.791V124.211H418.212ZM414.541 136.984V140.969H389.697V130.578H394.697V136.984H414.541ZM402.002 107.141C409.775 107.102 414.892 109.875 414.931 114.406C414.892 118.938 409.775 121.75 402.002 121.75C394.15 121.75 389.033 118.938 389.033 114.406C389.033 109.875 394.15 107.102 402.002 107.141ZM402.002 111.047C397.08 111.086 394.189 112.258 394.228 114.406C394.189 116.633 397.08 117.727 402.002 117.727C406.923 117.727 409.775 116.633 409.775 114.406C409.775 112.258 406.923 111.086 402.002 111.047ZM444.969 115.734C444.969 121.477 447.898 127.609 453.875 130.109L451.18 134.016C446.98 132.238 444.09 128.703 442.508 124.367C440.887 129.074 437.938 132.98 433.758 134.914L430.906 130.969C436.805 128.352 439.852 121.75 439.852 115.734V113.547H432.312V109.484H452.391V113.547H444.969V115.734ZM460.945 106.047V141.594H455.906V106.047H460.945ZM498.972 123.352V127.336H466.55V123.352H480.261V118.625H485.183V123.352H498.972ZM485.261 107.805C485.261 111.945 489.245 115.891 497.253 116.867L495.339 120.734C489.343 119.836 484.929 117.316 482.683 113.742C480.398 117.316 475.984 119.855 469.987 120.734L468.23 116.867C476.081 115.891 480.183 111.828 480.183 107.805V106.633H485.261V107.805ZM495.027 129.836V141.594H490.066V133.703H470.144V129.836H495.027ZM515.358 110.891C515.319 115.656 517.78 120.031 523.483 121.789L520.866 125.695C517.038 124.367 514.44 121.906 512.975 118.703C511.373 122.414 508.502 125.344 504.225 126.789L501.608 122.805C507.702 120.852 510.28 116.086 510.319 111.125V107.883H515.358V110.891ZM531.881 106.047V126.867H526.92V116.633H520.241V112.57H526.92V106.047H531.881ZM519.733 127.805C527.311 127.805 531.959 130.344 531.998 134.719C531.959 139.094 527.311 141.594 519.733 141.594C512.155 141.594 507.506 139.094 507.506 134.719C507.506 130.344 512.155 127.805 519.733 127.805ZM519.733 131.672C515.006 131.672 512.467 132.688 512.467 134.719C512.467 136.672 515.006 137.727 519.733 137.727C524.459 137.727 527.038 136.672 527.038 134.719C527.038 132.688 524.459 131.672 519.733 131.672ZM553.502 107.844C561.002 107.883 566.861 111.906 566.9 118.078C566.861 124.289 561.002 128.352 553.502 128.312C545.963 128.352 540.142 124.289 540.142 118.078C540.142 111.906 545.963 107.883 553.502 107.844ZM553.502 111.906C548.58 111.867 544.986 114.25 544.986 118.078C544.986 121.945 548.58 124.25 553.502 124.25C558.423 124.25 561.939 121.945 561.978 118.078C561.939 114.25 558.423 111.867 553.502 111.906ZM569.83 133.234V137.258H537.291V133.234H569.83ZM605.2 133.547V137.648H572.661V133.547H586.372V128.195H576.411V116.242H596.528V112.336H576.372V108.352H601.45V120.148H581.411V124.133H602.27V128.195H591.333V133.547H605.2Z" fill="#40424D"/>
</svg>
