<svg width="1747" height="185" viewBox="0 0 1747 185" fill="none" xmlns="http://www.w3.org/2000/svg">
<path d="M111.016 30.1641V154.578H94.1992V91.2773H82.8516V149.109H66.582V33.4453H82.8516V77.332H94.1992V30.1641H111.016ZM57.832 45.4766C57.6953 80.2031 47.3047 108.641 12.3047 129.012L2.1875 116.98C27.5488 102.078 38.418 83.8262 40.8789 59.4219H8.47656V45.4766H57.832ZM231.667 30.3008V119.715H214.167V30.3008H231.667ZM234.948 138.445V152.391H148.269V110.691H165.905V138.445H234.948ZM163.445 38.2305C182.585 38.2305 197.488 51.3555 197.488 69.5391C197.488 88.1328 182.585 101.121 163.445 101.121C144.304 101.121 129.402 88.1328 129.402 69.5391C129.402 51.3555 144.304 38.2305 163.445 38.2305ZM163.445 53.4062C153.738 53.2695 146.355 59.4219 146.491 69.5391C146.355 79.9297 153.738 85.9453 163.445 85.9453C172.878 85.9453 180.261 79.9297 180.261 69.5391C180.261 59.4219 172.878 53.2695 163.445 53.4062ZM291.616 38.5039C311.303 38.3672 326.069 51.2188 326.069 68.9922C326.069 86.9023 311.303 99.6172 291.616 99.6172C271.928 99.6172 257.026 86.9023 257.026 68.9922C257.026 51.2188 271.928 38.3672 291.616 38.5039ZM291.616 53.543C281.772 53.543 274.252 59.2852 274.389 68.9922C274.252 78.8359 281.772 84.4414 291.616 84.4414C301.459 84.4414 308.979 78.8359 309.116 68.9922C308.979 59.2852 301.596 53.543 291.616 53.543ZM355.873 30.1641V154.852H338.51V30.1641H355.873ZM251.83 115.203C273.979 115.34 304.741 114.93 331.401 111.238L332.768 123.816C305.151 129.148 275.62 129.422 253.881 129.422L251.83 115.203Z" fill="#78BFE5"/>
</svg>
