<svg width="1747" height="185" viewBox="0 0 1747 185" fill="none" xmlns="http://www.w3.org/2000/svg">
<path d="M51.9531 64.0703C51.9531 84.168 62.207 105.633 83.125 114.383L73.6914 128.055C58.9941 121.834 48.877 109.461 43.3398 94.2852C37.666 110.76 27.3438 124.432 12.7148 131.199L2.73438 117.391C23.3789 108.23 34.043 85.125 34.043 64.0703V56.4141H7.65625V42.1953H77.9297V56.4141H51.9531V64.0703ZM107.871 30.1641V154.578H90.2344V30.1641H107.871ZM240.964 90.7305V104.676H127.488V90.7305H175.476V74.1875H192.702V90.7305H240.964ZM192.976 36.3164C192.976 50.8086 206.921 64.6172 234.948 68.0352L228.249 81.5703C207.263 78.4258 191.814 69.6074 183.952 57.0977C175.954 69.6074 160.505 78.4941 139.519 81.5703L133.366 68.0352C160.847 64.6172 175.202 50.3984 175.202 36.3164V32.2148H192.976V36.3164ZM227.155 113.426V154.578H209.792V126.961H140.066V113.426H227.155ZM384.513 30.1641V77.8789H402.15V92.2344H384.513V154.305H367.013V30.1641H384.513ZM351.291 42.8789C351.154 80.0664 336.662 112.332 294.826 132.84L284.982 119.441C314.445 104.676 330.236 84.8516 333.517 57.0977H292.091V42.8789H351.291ZM511.044 61.3359V75.2812H424.501V32.0781H441.864V61.3359H511.044ZM523.895 85.9453V100.164H410.145V85.9453H523.895ZM466.747 107.957C493.68 108.094 509.95 116.434 510.087 131.062C509.95 145.828 493.68 154.168 466.747 154.168C439.54 154.168 423.134 145.828 423.134 131.062C423.134 116.434 439.54 108.094 466.747 107.957ZM466.747 121.492C449.52 121.629 440.77 124.5 440.907 131.062C440.77 137.488 449.52 140.906 466.747 140.906C483.563 140.906 492.45 137.488 492.587 131.062C492.45 124.5 483.563 121.629 466.747 121.492ZM632.652 30.3008V68.4453H649.469V82.6641H632.652V123.133H615.152V30.3008H632.652ZM607.77 43.2891V57.0977H533.941V43.2891H562.242V30.0273H579.605V43.2891H607.77ZM570.855 61.4727C588.902 61.4727 601.48 71.1797 601.48 85.5352C601.48 99.8906 588.902 109.324 570.855 109.324C552.672 109.324 539.957 99.8906 539.957 85.5352C539.957 71.1797 552.672 61.4727 570.855 61.4727ZM570.855 74.7344C562.516 74.8711 556.91 78.6992 557.047 85.5352C556.91 92.3711 562.516 96.0625 570.855 96.0625C579.195 96.0625 584.938 92.3711 584.938 85.5352C584.938 78.6992 579.195 74.8711 570.855 74.7344ZM637.164 138.445V152.391H551.988V116.023H569.352V138.445H637.164ZM748.858 107.684C776.065 107.684 793.155 116.297 793.291 131.199C793.155 145.828 776.065 154.578 748.858 154.578C721.924 154.578 704.561 145.828 704.561 131.199C704.561 116.297 721.924 107.684 748.858 107.684ZM748.858 120.672C731.768 120.672 721.924 124.227 721.924 131.199C721.924 137.898 731.768 141.316 748.858 141.316C765.948 141.316 775.928 137.898 775.928 131.199C775.928 124.227 765.948 120.672 748.858 120.672ZM792.608 35.7695V45.8867C792.608 55.7305 792.608 66.3945 789.053 79.2461L771.963 77.6055C774.698 66.3262 775.039 57.918 775.245 49.4414H705.791V35.7695H792.608ZM806.006 85.6719V99.7539H693.077V85.6719H735.459V63.9336H752.686V85.6719H806.006ZM930.349 88.9531V102.625H816.599V88.9531H864.998V78.2891H830.408V35.6328H916.677V49.168H847.771V64.6172H917.361V78.2891H882.088V88.9531H930.349ZM873.201 108.914C900.134 108.914 916.404 117.117 916.541 131.883C916.404 146.375 900.134 154.715 873.201 154.715C845.994 154.715 829.588 146.375 829.588 131.883C829.588 117.117 845.994 108.914 873.201 108.914ZM873.201 122.176C855.974 122.176 847.224 125.457 847.361 131.883C847.224 138.445 855.974 141.453 873.201 141.453C890.017 141.453 898.904 138.445 899.041 131.883C898.904 125.457 890.017 122.176 873.201 122.176ZM979.223 68.0352C979.223 86.9023 986.059 105.77 1003.7 115.34L994.126 128.055C982.915 122.312 975.464 112.195 971.157 100.027C966.782 113.289 959.331 124.5 948.052 131.062L938.071 117.938C955.981 107.547 962.68 87.3125 962.817 68.0352V65.1641H942.72V51.2188H962.817V34.4023H979.087V51.2188H998.774V65.1641H979.223V68.0352ZM1047.99 30.1641V154.578H1031.45V30.1641H1047.99ZM1022.56 32.2148V148.836H1006.16V91.5508H991.528V77.332H1006.16V32.2148H1022.56Z" fill="white"/>
<path d="M1177.94 85.9453V98.9336H1064.05V85.9453H1177.94ZM1164.27 105.086V134.48H1094.54V141.59H1167.96V153.484H1077.18V123.406H1147.04V117.117H1077.04V105.086H1164.27ZM1164.13 32.3516V61.6094H1095.64V68.3086H1166.32V80.0664H1078.27V50.5352H1146.63V44.2461H1078V32.3516H1164.13ZM1286.49 40.418V100.164H1226.74V40.418H1286.49ZM1243.97 54.3633V86.4922H1269.26V54.3633H1243.97ZM1321.76 30.1641V65.9844H1338.58V80.3398H1321.76V120.945H1304.26V30.1641H1321.76ZM1326.28 138.445V152.391H1241.1V112.059H1258.46V138.445H1326.28ZM1448.29 87.7227V101.668H1360.25V40.5547H1447.34V54.6367H1377.47V87.7227H1448.29ZM1460.74 125.047V139.402H1346.85V125.047H1460.74ZM1571.68 64.0703V77.7422H1484.73V34.5391H1502.09V64.0703H1571.68ZM1584.4 91.1406V104.812H1470.51V91.1406H1584.4ZM1572.5 137.898V151.844H1483.63V114.93H1501.13V137.898H1572.5ZM1734.37 30.3008V112.879H1717.01V77.332H1695V63.1133H1717.01V30.3008H1734.37ZM1694.04 39.7344C1694.04 73.3672 1676.13 95.6523 1638.39 107.41L1630.87 93.7383C1659.04 85.3984 1672.64 71.5898 1675.31 53.543H1637.57V39.7344H1694.04ZM1700.87 107.82C1700.87 122.039 1714 136.258 1740.25 140.223L1733.28 154.031C1713.73 150.818 1699.64 142 1692.26 129.969C1684.6 142.068 1670.39 150.887 1650.84 154.168L1644 140.359C1670.39 136.531 1683.51 122.039 1683.65 107.82V103.445H1700.87V107.82Z" fill="#78BFE5"/>
</svg>
