<svg width="1747" height="185" viewBox="0 0 1747 185" fill="none" xmlns="http://www.w3.org/2000/svg">
<path d="M117.441 99.3438V113.426H90.7812V154.578H73.0078V113.426H47.5781V154.578H29.668V113.426H3.55469V99.3438H117.441ZM60.1562 34.2656C86.8164 34.2656 105.547 45.3398 105.547 62.4297C105.547 79.2461 86.8164 89.7734 60.1562 89.7734C33.4961 89.7734 14.9023 79.2461 15.0391 62.4297C14.9023 45.3398 33.4961 34.2656 60.1562 34.2656ZM60.1562 48.2109C43.4766 48.2109 32.8125 53.2695 32.9492 62.4297C32.8125 71.1797 43.4766 76.1016 60.1562 76.1016C76.9727 76.1016 87.5 71.1797 87.5 62.4297C87.5 53.2695 76.9727 48.2109 60.1562 48.2109ZM226.609 35.0859V78.8359H192.839V90.7305H240.964V104.812H127.488V90.7305H175.339V78.8359H141.57V35.0859H226.609ZM158.659 48.6211V65.1641H209.519V48.6211H158.659ZM227.155 113.973V154.578H209.792V127.645H140.066V113.973H227.155ZM318.413 40.1445V100.164H257.573V40.1445H318.413ZM274.799 53.9531V86.3555H301.049V53.9531H274.799ZM355.463 30.3008V118.758H337.963V30.3008H355.463ZM358.745 137.762V151.844H272.065V110.555H289.702V137.762H358.745ZM446.857 37.1367V50.9453H422.111C422.248 65.6426 430.998 80.6816 450.685 87.1758L442.072 100.574C428.263 96.1992 418.83 87.1758 413.498 75.9648C407.892 88.4062 397.98 98.4551 383.283 103.172L374.396 89.3633C394.836 82.8008 404.132 66.4629 404.337 50.9453H379.318V37.1367H446.857ZM479.943 109.734V154.578H462.58V123.68H394.494V109.734H479.943ZM479.943 30.1641V104.266H462.58V74.3242H443.302V60.1055H462.58V30.1641H479.943ZM579.605 42.8789C579.469 58.7383 588.219 72.957 608.453 78.9727L599.156 92.5078C585.758 88.2695 576.461 79.8613 571.129 68.9922C565.592 81.4336 555.543 91.2773 540.777 96.0625L531.891 82.1172C552.809 75.6914 561.969 59.832 562.105 43.2891V34.9492H579.605V42.8789ZM632.652 30.1641V54.9102H649.469V68.9922H632.652V96.1992H615.152V30.1641H632.652ZM584.664 101.258V132.84H560.875V140.633C571.334 140.633 578.238 140.154 586.578 138.582L588.082 151.57C577.145 153.758 568.258 154.031 551.305 153.895H543.785V120.672H567.848V113.973H543.648V101.258H584.664ZM632.652 101.258V153.895H591.227V101.258H632.652ZM606.266 113.973V141.316H617.613V113.973H606.266Z" fill="white"/>
<path d="M714.476 31.9414C743.05 31.9414 759.593 39.4609 759.73 53.1328C759.593 66.9414 743.05 74.4609 714.476 74.4609C685.765 74.4609 669.085 66.9414 669.085 53.1328C669.085 39.4609 685.765 31.9414 714.476 31.9414ZM714.476 44.6562C696.155 44.6562 687.269 47.6641 687.405 53.1328C687.269 59.2852 696.155 61.6094 714.476 61.6094C732.933 61.6094 741.683 59.2852 741.683 53.1328C741.683 47.6641 732.933 44.6562 714.476 44.6562ZM771.214 80.3398V94.1484H657.737V80.3398H771.214ZM757.405 101.395V133.113H688.089V140.633H760.687V153.758H670.999V120.945H740.179V114.109H670.862V101.395H757.405ZM930.486 125.867V140.086H816.599V125.867H864.588V102.898H828.63V38.0938H846.13V57.3711H900.408V38.0938H917.771V102.898H881.951V125.867H930.486ZM846.13 88.9531H900.408V71.3164H846.13V88.9531ZM1011.08 38.5039V52.4492H986.333C986.47 66.9414 995.151 80.9551 1015.04 86.7656L1006.7 100.438C992.964 96.2676 983.462 87.9277 977.993 77.1953C972.456 89.7734 962.339 99.7539 947.368 104.676L938.481 90.8672C959.126 84.373 968.423 68.2402 968.696 52.4492H943.266V38.5039H1011.08ZM1039.11 30.1641V59.0117H1055.92V73.2305H1039.11V103.992H1021.61V30.1641H1039.11ZM998.364 106.453C1024.2 106.316 1040.34 115.203 1040.34 130.379C1040.34 145.555 1024.2 154.578 998.364 154.578C971.977 154.578 955.708 145.555 955.708 130.379C955.708 115.203 971.977 106.316 998.364 106.453ZM998.364 119.988C981.958 119.988 973.071 123.406 973.208 130.379C973.071 137.488 981.958 141.043 998.364 141.043C1014.5 141.043 1023.11 137.488 1023.11 130.379C1023.11 123.406 1014.5 119.988 998.364 119.988ZM1162.36 30.1641V78.8359H1180.68V93.1914H1162.36V154.578H1145.13V30.1641H1162.36ZM1136.65 48.7578V62.7031H1063.51V48.7578H1091.67V32.0781H1109.17V48.7578H1136.65ZM1100.42 69.6758C1118.61 69.6758 1132.14 81.9805 1132.14 99.3438C1132.14 116.707 1118.61 129.012 1100.42 129.012C1082.1 129.012 1068.57 116.707 1068.57 99.3438C1068.57 81.9805 1082.1 69.6758 1100.42 69.6758ZM1100.42 83.7578C1091.67 83.8945 1085.25 89.7734 1085.25 99.3438C1085.25 109.051 1091.67 114.793 1100.42 114.656C1109.17 114.793 1115.46 109.051 1115.46 99.3438C1115.46 89.7734 1109.17 83.8945 1100.42 83.7578ZM1252.25 40.2812V49.7148H1275.49V30.3008H1292.85V120.809H1275.49V90.3203H1252.25V100.848H1193.18V40.2812H1252.25ZM1210.55 54.0898V87.3125H1235.16V54.0898H1210.55ZM1295.45 138.445V152.391H1210V112.195H1227.64V138.445H1295.45ZM1252.25 76.5117H1275.49V63.7969H1252.25V76.5117ZM1358.81 58.3281C1358.81 81.707 1368.25 104.402 1389.03 113.426L1378.37 127.371C1364.56 120.604 1355.33 108.23 1350.2 92.918C1344.73 109.188 1335.16 122.518 1320.94 129.559L1310.01 115.34C1331.33 105.77 1341.04 81.707 1341.18 58.3281V39.7344H1358.81V58.3281ZM1416.78 30.1641V154.852H1399.56V83.3477H1375.08V69.2656H1399.56V30.1641H1416.78ZM1461.83 131.883L1450.07 170.848H1435.58L1442.42 131.883H1461.83Z" fill="#78BFE5"/>
</svg>
