<svg width="1747" height="185" viewBox="0 0 1747 185" fill="none" xmlns="http://www.w3.org/2000/svg">
<path d="M102.402 30.1641V59.2852H119.219V73.7773H102.402V102.488H84.9023V30.1641H102.402ZM67.4023 37.1367C67.4023 70.3594 46.4844 92.7812 9.16016 102.215L1.91406 88.9531C30.2832 81.8438 45.8691 67.7617 48.5352 50.9453H8.47656V37.1367H67.4023ZM102.402 107.41V154.578H84.9023V121.355H18.5938V107.41H102.402ZM210.815 64.0703C210.815 84.168 221.069 105.633 241.987 114.383L232.553 128.055C217.856 121.834 207.739 109.461 202.202 94.2852C196.528 110.76 186.205 124.432 171.577 131.199L161.596 117.391C182.241 108.23 192.905 85.125 192.905 64.0703V56.4141H166.518V42.1953H236.791V56.4141H210.815V64.0703ZM266.733 30.1641V154.578H249.096V30.1641H266.733ZM391.212 109.324V154.578H373.849V122.996H305.763V109.324H391.212ZM391.212 30.1641V103.719H373.849V87.9961H345.959C340.011 94.4219 331.193 98.25 321.076 98.25C302.209 98.25 287.853 85.2617 287.99 67.2148C287.853 49.5781 302.209 36.7266 321.076 36.8633C331.193 36.7949 340.011 40.5547 345.959 46.8438H373.849V30.1641H391.212ZM321.076 51.4922C311.369 51.4922 304.396 57.5078 304.533 67.2148C304.396 77.4688 311.369 83.3477 321.076 83.3477C330.236 83.3477 337.345 77.4688 337.345 67.2148C337.345 57.5078 330.236 51.4922 321.076 51.4922ZM353.205 74.0508H373.849V60.9258H353.341C353.683 62.9082 353.888 65.0273 353.888 67.2148C353.888 69.6074 353.615 71.8633 353.205 74.0508ZM450.477 38.5039C470.165 38.3672 484.93 51.2188 484.93 68.9922C484.93 86.9023 470.165 99.6172 450.477 99.6172C430.79 99.6172 415.888 86.9023 415.888 68.9922C415.888 51.2188 430.79 38.3672 450.477 38.5039ZM450.477 53.543C440.634 53.543 433.114 59.2852 433.251 68.9922C433.114 78.8359 440.634 84.4414 450.477 84.4414C460.321 84.4414 467.841 78.8359 467.977 68.9922C467.841 59.2852 460.458 53.543 450.477 53.543ZM514.735 30.1641V154.852H497.372V30.1641H514.735ZM410.692 115.203C432.841 115.34 463.602 114.93 490.263 111.238L491.63 123.816C464.013 129.148 434.481 129.422 412.743 129.422L410.692 115.203ZM1279.79 31.9414C1308.37 31.9414 1324.91 39.4609 1325.05 53.1328C1324.91 66.9414 1308.37 74.4609 1279.79 74.4609C1251.08 74.4609 1234.4 66.9414 1234.4 53.1328C1234.4 39.4609 1251.08 31.9414 1279.79 31.9414ZM1279.79 44.6562C1261.47 44.6562 1252.58 47.6641 1252.72 53.1328C1252.58 59.2852 1261.47 61.6094 1279.79 61.6094C1298.25 61.6094 1307 59.2852 1307 53.1328C1307 47.6641 1298.25 44.6562 1279.79 44.6562ZM1336.53 80.3398V94.1484H1223.05V80.3398H1336.53ZM1322.72 101.395V133.113H1253.4V140.633H1326V153.758H1236.31V120.945H1305.49V114.109H1236.18V101.395H1322.72ZM1482.13 37.4102V48.6211C1482.13 60.2422 1482.13 72.957 1478.99 90.3203H1495.39V104.402H1446.86V154.715H1429.36V104.402H1381.91V90.3203H1461.35C1464.49 74.2559 1464.77 62.0879 1464.77 51.3555H1394.9V37.4102H1482.13ZM1619.19 91.4141V105.223H1570.93V116.023H1605.38V154.441H1588.02V129.832H1518.29V116.023H1553.7V105.223H1505.71V91.4141H1619.19ZM1570.93 30.3008V41.5117H1608.25V55.0469H1572.29C1574.28 64.002 1586.92 72.0684 1614.13 73.9141L1608.8 86.9023C1585.96 85.3301 1570.11 78.7676 1562.31 68.7188C1554.45 78.7676 1538.59 85.3301 1515.83 86.9023L1510.5 73.9141C1537.57 72.0684 1550.21 64.002 1552.33 55.0469H1516.65V41.5117H1553.7V30.3008H1570.93ZM1689.53 49.168V62.9766H1629.37V49.168H1650.97V33.582H1668.2V49.168H1689.53ZM1659.72 68.582C1675.58 68.582 1686.93 80.8867 1687.07 98.1133C1686.93 115.477 1675.58 127.781 1659.72 127.781C1643.86 127.781 1632.24 115.477 1632.24 98.1133C1632.24 80.8867 1643.86 68.582 1659.72 68.582ZM1659.72 83.0742C1652.48 83.0742 1647.55 88.6797 1647.55 98.1133C1647.55 107.547 1652.48 113.016 1659.72 113.016C1666.69 113.016 1671.62 107.547 1671.75 98.1133C1671.62 88.6797 1666.69 83.0742 1659.72 83.0742ZM1737.1 30.1641V154.578H1720.56V94.6953H1710.44V149.246H1694.18V32.625H1710.44V80.75H1720.56V30.1641H1737.1Z" fill="#78BFE5"/>
<path d="M673.87 30.1641V103.992H656.507V74.5977H637.093V60.5156H656.507V30.1641H673.87ZM631.351 106.727C657.874 106.863 674.144 115.613 674.28 130.789C674.144 145.828 657.874 154.715 631.351 154.715C604.827 154.715 588.558 145.828 588.558 130.789C588.558 115.613 604.827 106.863 631.351 106.727ZM631.351 120.125C614.808 120.125 605.921 123.543 605.921 130.789C605.921 137.898 614.808 141.453 631.351 141.453C647.894 141.453 656.917 137.898 656.917 130.789C656.917 123.543 647.894 120.125 631.351 120.125ZM640.784 37.6836V51.6289H616.038C616.448 66.1211 625.198 80.75 644.612 87.1758L635.999 100.848C622.259 96.4043 612.825 87.3809 607.425 76.1016C601.888 88.8164 591.976 99.0703 577.21 104.129L568.187 90.3203C588.626 83.4844 597.786 67.2148 598.265 51.6289H573.245V37.6836H640.784ZM739.834 58.3281C739.834 81.707 749.268 104.402 770.049 113.426L759.385 127.371C745.577 120.604 736.348 108.23 731.221 92.918C725.752 109.188 716.182 122.518 701.963 129.559L691.026 115.34C712.354 105.77 722.061 81.707 722.198 58.3281V39.7344H739.834V58.3281ZM797.803 30.1641V154.852H780.577V83.3477H756.104V69.2656H780.577V30.1641H797.803ZM888.377 37.1367V50.9453H863.63C863.767 65.6426 872.517 80.6816 892.205 87.1758L883.591 100.574C869.783 96.1992 860.349 87.1758 855.017 75.9648C849.412 88.4062 839.5 98.4551 824.802 103.172L815.916 89.3633C836.355 82.8008 845.652 66.4629 845.857 50.9453H820.838V37.1367H888.377ZM921.463 109.734V154.578H904.099V123.68H836.013V109.734H921.463ZM921.463 30.1641V104.266H904.099V74.3242H884.822V60.1055H904.099V30.1641H921.463ZM1078 40.9648V52.7227C1078 68.3086 1078 85.8086 1072.94 112.195L1055.44 110.418C1060.16 86.9023 1060.36 69.4023 1060.5 54.7734H987.219V40.9648H1078ZM1088.94 125.184V139.402H975.461V125.184H1016.07V82.3906H1033.43V125.184H1088.94ZM1214.1 48.3477V62.4297H1197.97V75.1445H1214.1V89.3633H1197.97V109.188H1180.47V30.1641H1197.97V48.3477H1214.1ZM1157.36 110.281C1182.93 110.281 1199.34 118.621 1199.34 132.566C1199.34 146.238 1182.93 154.578 1157.36 154.578C1131.25 154.578 1115.12 146.238 1115.25 132.566C1115.12 118.621 1131.25 110.281 1157.36 110.281ZM1157.36 123.543C1141.09 123.543 1132.34 126.414 1132.48 132.566C1132.34 138.445 1141.09 141.59 1157.36 141.59C1173.22 141.59 1181.84 138.445 1181.84 132.566C1181.84 126.414 1173.22 123.543 1157.36 123.543ZM1173.09 42.0586V55.5938H1099.26V42.0586H1127.56V29.4805H1144.92V42.0586H1173.09ZM1136.17 59.832C1154.22 59.832 1166.8 68.9922 1166.8 82.2539C1166.8 95.6523 1154.22 104.539 1136.17 104.539C1117.85 104.539 1105.27 95.6523 1105.27 82.2539C1105.27 68.9922 1117.85 59.832 1136.17 59.832ZM1136.17 72.5469C1127.83 72.5469 1122.23 75.9648 1122.36 82.2539C1122.23 88.4062 1127.83 91.6875 1136.17 91.5508C1144.51 91.6875 1150.25 88.4062 1150.25 82.2539C1150.25 75.9648 1144.51 72.5469 1136.17 72.5469Z" fill="white"/>
</svg>
